<?xml version="1.0" encoding="UTF-8" standalone="no"?>
<svg width="35px" height="29px" viewBox="0 0 35 29" version="1.1" xmlns="http://www.w3.org/2000/svg" xmlns:xlink="http://www.w3.org/1999/xlink">
    <!-- Generator: sketchtool 40.3 (33839) - http://www.bohemiancoding.com/sketch -->
    <title>83845657-98DA-4357-B957-722A4827F55F</title>
    <desc>Created with sketchtool.</desc>
    <defs>
        <polygon id="path-1" points="35.492 28.7123779 35.492 0.0876220883 0.00119881936 0.0876220883 0.00119881936 28.7123779"></polygon>
    </defs>
    <g id="Web" stroke="none" stroke-width="1" fill="none" fill-rule="evenodd">
        <g id="Icons" transform="translate(-297.000000, -153.000000)">
            <g id="google" transform="translate(296.000000, 153.000000)">
                <mask id="mask-2" fill="white">
                    <use xlink:href="#path-1"></use>
                </mask>
                <g id="Clip-2"></g>
                <path d="M30.7326006,5.83357978 L30.7326006,0.0868239278 L28.8126006,0.0868239278 L28.8126006,5.83357978 L23.0526006,5.83357978 L23.0526006,7.74916506 L28.8126006,7.74916506 L28.8126006,13.4959209 L30.7326006,13.4959209 L30.7326006,7.74916506 L36.4926006,7.74916506 L36.4926006,5.83357978 L30.7326006,5.83357978 Z M12.5806006,11.8916182 L12.7846006,11.9514803 C12.4126006,12.0073515 11.7806006,12.0751952 11.0166006,12.079186 C9.82060059,11.9594619 7.22460059,11.0894669 6.31660059,5.89344182 C6.31660059,5.89344182 5.74860059,1.47163246 9.54060059,1.25213831 C9.54060059,1.25213831 12.1726006,1.32397276 13.3366006,3.37923614 C13.3366006,3.37923614 14.5326006,5.2668858 14.6686006,8.21608898 C14.6686006,8.21608898 14.9526006,11.3488691 12.5806006,11.8916182 L12.5806006,11.8916182 Z M16.7566006,22.1399995 C16.7566006,22.1399995 17.8526006,25.7716299 13.3366006,26.9728616 C13.3366006,26.9728616 5.47260059,28.3656517 4.41660059,23.3013231 C4.41660059,23.3013231 3.21260059,17.8778223 12.3886006,18.0773624 L12.5806006,18.0773624 C12.5806006,18.0773624 16.5486006,20.4997796 16.7566006,22.1399995 L16.7566006,22.1399995 Z M20.1726006,0.0948055331 L11.2486006,0.0948055331 C11.2486006,0.0948055331 7.46460059,0.0868239278 5.17660059,2.41346189 C5.17660059,2.41346189 3.25260059,4.35698279 3.08860059,6.86320687 C3.08860059,6.86320687 2.52460059,11.3807955 7.83260059,12.8573925 C7.83260059,12.8573925 9.74860059,13.068905 10.8726006,12.8573925 C10.8726006,12.8573925 9.59260059,15.2478833 11.6286006,17.1115881 C11.6286006,17.1115881 1.23660059,17.0517261 1.00060059,23.4928816 C1.00060059,23.4928816 0.97260059,28.7607412 9.54060059,28.7128515 C9.54060059,28.7128515 18.9886006,28.8206032 19.4126006,21.5573423 C19.4126006,21.5573423 19.8206006,18.5323139 16.3766006,16.3373724 C16.3766006,16.3373724 12.8406006,14.0985321 14.6686006,12.2787261 L14.6286006,12.2667537 C14.8406006,11.9913883 15.2406006,11.5085012 15.6166006,11.3089611 C15.6166006,11.3089611 17.8766006,9.52906306 17.8966006,7.0547654 C17.8966006,7.0547654 18.3286006,2.96818346 15.4286006,1.44768764 L17.7046006,1.44768764 L20.1726006,0.0948055331 Z" id="Fill-1" fill="#FFFFFF" mask="url(#mask-2)"></path>
            </g>
        </g>
    </g>
</svg>