<svg xmlns="http://www.w3.org/2000/svg" xmlns:xlink="http://www.w3.org/1999/xlink" viewBox="0 0 872.61 149.31"><defs><style>.cls-1{fill:none;}.cls-2{clip-path:url(#clip-path);}.cls-3,.cls-4{fill:#fff;}.cls-3{fill-rule:evenodd;}</style><clipPath id="clip-path" transform="translate(0)"><rect class="cls-1" width="884.56" height="149.31"/></clipPath></defs><title>Asset 3</title><g id="Layer_2" data-name="Layer 2"><g id="Layer_1-2" data-name="Layer 1"><g class="cls-2"><path class="cls-3" d="M168,9.33H124.72a74.35,74.35,0,0,0-72.13,0H9.35A9.34,9.34,0,0,0,0,18.62V130.69A9.34,9.34,0,0,0,9.35,140H52.59a74.35,74.35,0,0,0,72.13,0H168a9.34,9.34,0,0,0,9.35-9.29V18.62A9.34,9.34,0,0,0,168,9.33m-79.31,0a65.32,65.32,0,0,1,18.82,2.78L100.58,19v9.68H90.87L81.24,19H61.88l-2.62-2.62a64.92,64.92,0,0,1,29.4-7.05M23.33,74.65a65,65,0,0,1,14.5-41L52.2,48v9.75l9.68,9.63L81.24,86.74V106.1l9.64,9.67-9.64,9.68v14.07a65.31,65.31,0,0,1-57.9-64.87m72.88,64.85,23.73-23.74V96.42l-19.35-9.68-9.68-9.68H81.26l-9.75-9.68h9.72l9.68-9.63h19.35l.27-19.13,9.41-10V19l-3.3-3.3A65.26,65.26,0,0,1,96.21,139.51m62.4-102.18A9.33,9.33,0,1,1,167.94,28a9.33,9.33,0,0,1-9.33,9.33" transform="translate(0)"/></g><path class="cls-4" d="M280.52,50.11a34.28,34.28,0,0,1,0,47.22,30.57,30.57,0,0,1-22.3,10,31.5,31.5,0,0,1-22.86-10,34.79,34.79,0,0,1,0-47.22,31.15,31.15,0,0,1,22.86-10A30.22,30.22,0,0,1,280.52,50.11ZM279.3,73.72A24.18,24.18,0,0,0,273,57.39a20.14,20.14,0,0,0-29.86,0,23.74,23.74,0,0,0-6.35,16.33A23.34,23.34,0,0,0,243.09,90,19.95,19.95,0,0,0,273,90,23.76,23.76,0,0,0,279.3,73.72Z" transform="translate(0)"/><path class="cls-4" d="M300.39,119.82V65.6a5,5,0,0,1,4.95-4.95,5.12,5.12,0,0,1,5.13,3.83,23.67,23.67,0,0,1,12.69-3.83c12.41,0,22.58,10.64,22.58,23.42s-10.17,23.14-22.58,23.14a21.58,21.58,0,0,1-12.51-3.83v16.42a5.27,5.27,0,0,1-5.32,5A5.12,5.12,0,0,1,300.39,119.82Zm10.27-35.74c0,3.64,1.21,7.19,3.64,9.33a11.55,11.55,0,0,0,8.87,3.92,11.93,11.93,0,0,0,8.77-3.92,13.61,13.61,0,0,0,3.64-9.33,14.4,14.4,0,0,0-3.64-9.43,12.19,12.19,0,0,0-8.77-3.83,11.79,11.79,0,0,0-8.87,3.83A13.1,13.1,0,0,0,310.65,84.08Z" transform="translate(0)"/><path class="cls-4" d="M350.87,84c.09-12.69,10-23.33,22.77-23.33,12.13,0,21.74,9.05,22.49,21.65v.47a2.58,2.58,0,0,1-.09.84c-.28,2.24-2.24,3.73-4.85,3.73H361.51a12.24,12.24,0,0,0,3.17,6.16,14.44,14.44,0,0,0,9,4.2c3.36.28,7.37-.56,9.71-2.33,2-2.05,5.79-1.77,7-.28,1.21,1.31,2.15,4.11,0,6.07-4.57,4.2-10.08,6.16-16.7,6.16C360.86,107.22,351,96.68,350.87,84ZM361,79.41h26.41c-.93-3.73-5.69-9.24-13.81-9.89C365.71,69.89,361.79,75.59,361,79.41Z" transform="translate(0)"/><path class="cls-4" d="M443,80.07v22.3a4.9,4.9,0,0,1-4.85,4.95,5,5,0,0,1-4.95-4.95V80.07a9.58,9.58,0,0,0-9.71-9.43,9.32,9.32,0,0,0-9.33,9.43v22.3a1.85,1.85,0,0,1-.19.93,5.1,5.1,0,0,1-4.95,4,4.92,4.92,0,0,1-4.95-4.95V65.6A4.92,4.92,0,0,1,409,60.65a5,5,0,0,1,4.57,2.89,18.63,18.63,0,0,1,9.89-2.89A19.54,19.54,0,0,1,443,80.07Z" transform="translate(0)"/><path class="cls-4" d="M453.34,91.08a4.87,4.87,0,0,1,6.81-.65c4.11,3.36,11.2,7.28,17.83,7.19a20.11,20.11,0,0,0,11.67-3.45c2.8-2.05,4-4.39,4-6.72a5.33,5.33,0,0,0-.84-3,8.8,8.8,0,0,0-2.8-2.8c-2.71-1.77-7.28-3.36-12.79-4.39H477a50.52,50.52,0,0,1-12-3.64,20.07,20.07,0,0,1-8.68-7.28,14.33,14.33,0,0,1-2.15-7.65c0-5.6,3.17-10.45,7.47-13.62a27.59,27.59,0,0,1,16.15-4.95c9,0,15.58,4.39,20.34,7.47a4.81,4.81,0,0,1,1.31,6.63,4.71,4.71,0,0,1-6.63,1.4c-4.76-3.17-9.33-6-15-6a17.83,17.83,0,0,0-10.45,3.17c-2.52,1.87-3.55,3.92-3.55,5.88a4.53,4.53,0,0,0,.65,2.61A9,9,0,0,0,467,63.73c2.43,1.68,6.63,3.17,11.67,4.11h.19a54.91,54.91,0,0,1,12.88,3.92c3.83,1.87,7.19,4.29,9.33,7.75a15.14,15.14,0,0,1,2.24,7.93c0,6-3.36,11.11-8,14.46A29.18,29.18,0,0,1,478,107.22c-10.08-.09-18.57-5.13-23.89-9.33A5,5,0,0,1,453.34,91.08Z" transform="translate(0)"/><path class="cls-4" d="M530.23,65.79A5.26,5.26,0,0,1,525,70.92h-2.33V97a5.14,5.14,0,0,1,5.13,5.23,5.06,5.06,0,0,1-5.13,5.13A10.39,10.39,0,0,1,512.31,97v-26h-2.71a5.12,5.12,0,0,1-5.13-5.13,5.06,5.06,0,0,1,5.13-5.13h2.71V47.12A5.14,5.14,0,0,1,517.54,42a5.06,5.06,0,0,1,5.13,5.13V60.65H525A5.2,5.2,0,0,1,530.23,65.79Z" transform="translate(0)"/><path class="cls-4" d="M561.77,65.6a5,5,0,0,1-4.95,4.95,8.92,8.92,0,0,0-5.6,1.77,14.06,14.06,0,0,0-4.29,4.48,28.65,28.65,0,0,0-3.83,7.84v17.73a5.08,5.08,0,0,1-5.13,4.95,5,5,0,0,1-4.95-4.95V65.6A4.9,4.9,0,0,1,538,60.75a5,5,0,0,1,5.13,4.85v.65a12.26,12.26,0,0,1,2-1.87,20.47,20.47,0,0,1,11.76-3.64A4.84,4.84,0,0,1,561.77,65.6Z" transform="translate(0)"/><path class="cls-4" d="M559.06,84c.09-12.69,10-23.33,22.77-23.33,12.13,0,21.74,9.05,22.49,21.65v.47a2.6,2.6,0,0,1-.09.84c-.28,2.24-2.24,3.73-4.85,3.73H569.7a12.24,12.24,0,0,0,3.17,6.16,14.44,14.44,0,0,0,9,4.2c3.36.28,7.37-.56,9.71-2.33,2-2.05,5.79-1.77,7-.28,1.21,1.31,2.15,4.11,0,6.07-4.57,4.2-10.08,6.16-16.71,6.16C569.05,107.22,559.16,96.68,559.06,84Zm10.17-4.57h26.41c-.93-3.73-5.69-9.24-13.81-9.89C573.9,69.89,570,75.59,569.24,79.41Z" transform="translate(0)"/><path class="cls-4" d="M608.9,84c.09-12.69,10-23.33,22.77-23.33,12.13,0,21.74,9.05,22.49,21.65v.47a2.6,2.6,0,0,1-.09.84c-.28,2.24-2.24,3.73-4.85,3.73H619.53a12.24,12.24,0,0,0,3.17,6.16,14.44,14.44,0,0,0,9,4.2c3.36.28,7.37-.56,9.71-2.33,2-2.05,5.79-1.77,7-.28,1.21,1.31,2.15,4.11,0,6.07-4.57,4.2-10.08,6.16-16.71,6.16C618.88,107.22,609,96.68,608.9,84Zm10.17-4.57h26.41c-.93-3.73-5.69-9.24-13.81-9.89C623.73,69.89,619.81,75.59,619.07,79.41Z" transform="translate(0)"/><path class="cls-4" d="M679.35,65.79a5.26,5.26,0,0,1-5.23,5.13h-2.33V97a5.14,5.14,0,0,1,5.13,5.23,5.06,5.06,0,0,1-5.13,5.13A10.39,10.39,0,0,1,661.43,97v-26h-2.71a5.12,5.12,0,0,1-5.13-5.13,5.06,5.06,0,0,1,5.13-5.13h2.71V47.12A5.14,5.14,0,0,1,666.66,42a5.06,5.06,0,0,1,5.13,5.13V60.65h2.33A5.2,5.2,0,0,1,679.35,65.79Z" transform="translate(0)"/><path class="cls-4" d="M686.82,73.72c.09-18.48,15.58-33.5,34.25-33.6a34.91,34.91,0,0,1,21.56,7.28,5.36,5.36,0,0,1-6.53,8.49,23.26,23.26,0,0,0-15-5.13,24.71,24.71,0,0,0-16.8,6.72,23,23,0,0,0-6.81,16.24A22.69,22.69,0,0,0,704.27,90a24.7,24.7,0,0,0,16.8,6.72,23.45,23.45,0,0,0,15-5.13,5.66,5.66,0,0,1,7.47,1,5.51,5.51,0,0,1-.93,7.47,34.91,34.91,0,0,1-21.56,7.28C702.4,107.32,686.91,92.29,686.82,73.72Z" transform="translate(0)"/><path class="cls-4" d="M793.11,84.08v18.29a5,5,0,0,1-4.95,4.95,5.08,5.08,0,0,1-4.85-4,21.19,21.19,0,0,1-12.41,4A21.68,21.68,0,0,1,755,100.5a23.89,23.89,0,0,1-6.35-16.42A23.55,23.55,0,0,1,755,67.65a21.49,21.49,0,0,1,15.86-7,21.27,21.27,0,0,1,12.41,4.11,5.07,5.07,0,0,1,4.85-4.11,5,5,0,0,1,4.95,5Zm-9.89,0a13.72,13.72,0,0,0-3.64-9.61,11.54,11.54,0,0,0-8.68-3.83,11.25,11.25,0,0,0-8.68,3.83,13.67,13.67,0,0,0-3.55,9.61,14,14,0,0,0,3.55,9.61,11.75,11.75,0,0,0,8.68,3.64,12.06,12.06,0,0,0,8.68-3.64A14.07,14.07,0,0,0,783.22,84.08Z" transform="translate(0)"/><path class="cls-4" d="M843.5,80v22.4a5,5,0,0,1-4.95,4.95,5.12,5.12,0,0,1-5-4.95V80a9.52,9.52,0,0,0-19,.28v22.12c0,.19-.09.47-.09.65v.28c-.09.19-.09.37-.28.56v.47a5.45,5.45,0,0,1-4.67,3c-.37,0-.65-.09-.93-.09a5.08,5.08,0,0,1-4-4.85V65.69a4.94,4.94,0,0,1,4.95-5,4.73,4.73,0,0,1,4.48,2.8,19.64,19.64,0,0,1,10-2.8,19.37,19.37,0,0,1,14.65,6.44,19.22,19.22,0,0,1,14.65-6.44,19.5,19.5,0,0,1,19.41,19.6v22.12a5,5,0,0,1-4.95,4.95,5.06,5.06,0,0,1-5-4.95V80.25a9.56,9.56,0,0,0-9.43-9.61A9.69,9.69,0,0,0,843.5,80Z" transform="translate(0)"/></g></g></svg>