<svg xmlns="http://www.w3.org/2000/svg" viewBox="0 0 38 32"><defs><style>.cls-1{fill:#fff;fill-rule:evenodd;}</style></defs><title>fullscreenAsset 2</title><g id="Layer_2" data-name="Layer 2"><g id="Layer_1-2" data-name="Layer 1"><path class="cls-1" d="M36,2H26.73A15.93,15.93,0,0,0,11.27,2H2A2,2,0,0,0,0,4V28a2,2,0,0,0,2,2h9.27a15.93,15.93,0,0,0,15.46,0H36a2,2,0,0,0,2-2V4a2,2,0,0,0-2-2M19,2a14,14,0,0,1,4,.6L21.56,4.07V6.15H19.48L17.41,4.07H13.26l-.56-.56A13.91,13.91,0,0,1,19,2M5,16A13.94,13.94,0,0,1,8.11,7.21l3.08,3.08v2.09l2.07,2.06,4.15,4.15v4.15l2.07,2.07-2.07,2.07v3A14,14,0,0,1,5,16M20.62,29.9l5.09-5.09V20.66l-4.15-2.07-2.07-2.07H17.42l-2.09-2.07h2.08l2.07-2.06h4.15l.06-4.1,2-2.13V4.07L25,3.36A14,14,0,0,1,20.62,29.9M34,8a2,2,0,1,1,2-2,2,2,0,0,1-2,2"/></g></g></svg>