<svg xmlns="http://www.w3.org/2000/svg" width="118" height="118" viewBox="0 0 118 118">
  <g fill="none" fill-rule="evenodd">
    <rect width="118" height="118" fill="#007050" rx="5"/>
    <g transform="matrix(-1 0 0 1 107 10)">
      <path fill="#FFF" fill-rule="nonzero" d="M34.0603125,66.1437997 C35.3021736,69.304131 33.6665516,71.7822321 30.6073328,69.9963941 L1.92337025,50.15152 C-0.641123415,48.365682 -0.641123415,46.8507295 1.92337025,45.0548587 L30.6073328,25.1999519 C33.6665516,23.4241467 35.31227,25.9022478 34.0603125,29.0525463 L31.3805397,40.4800186 C36.4703291,40.2450631 46.4826674,41.8937957 53.091874,45.0548587 C59.211173,47.9816079 63.1563941,51.8501083 65.5062972,54.968532 C65.5062972,47.4162969 65.5062972,42.6208854 65.5062972,40.5822976 C65.5062972,38.5437097 65.5062972,35.4858279 65.5062972,31.4086523 L55.1446036,33.801745 C51.9600972,35.0341785 49.4630399,33.4109734 51.2625387,30.3749785 L71.2592167,1.90876906 C73.0587156,-0.636256353 74.5852567,-0.636256353 76.3948651,1.90876906 L96.4016526,30.3749785 C98.1910419,33.4109734 95.6939845,35.0441983 92.5195877,33.801745 L82.1605436,31.4092642 L82.1605436,80.7200797 C82.1846186,81.1887924 82.1956887,86.5266851 82.193754,96.7337576 L82.1605436,98.0056933 C82.1605436,99.1071185 81.260832,100 80.1509814,100 L60.4823918,100 C59.3725413,100 58.4728296,99.1071185 58.4728296,98.0056933 L58.4728296,82.9647799 C57.9298919,76.4273439 56.1130388,69.7419574 51.2047983,64.8959997 C46.2489109,59.9988035 38.8264534,57.729857 31.9240402,57.0340006 L34.0603125,66.1437997 Z"/>
      <path fill="#007050" d="M73,38 L75,38 L75,44 L73,44 L73,38 Z M73,46 L75,46 L75,52 L73,52 L73,46 Z M73,54 L75,54 L75,60 L73,60 L73,54 Z M73,62 L75,62 L75,68 L73,68 L73,62 Z M73,70 L75,70 L75,76 L73,76 L73,70 Z M73,78 L75,78 L75,84 L73,84 L73,78 Z M73,86 L75,86 L75,92 L73,92 L73,86 Z"/>
      <path fill="#007050" fill-rule="nonzero" d="M66.991146,92 L65.0000702,91.9979209 L65.0062352,85.9545082 L66.997311,85.9565874 L66.991146,92 Z M66.999366,83.9421165 L65.0082902,83.9400374 L65.0089375,83.3248258 C64.9998076,81.5669203 64.8549483,79.8121324 64.5754066,78.0778583 L66.5405235,77.7536205 C66.8367951,79.5916867 66.9903117,81.4513465 67,83.3205728 L66.999366,83.9421165 Z M66.1503957,75.7109726 L64.207367,76.1508527 C63.7846593,74.2395408 63.1971405,72.3690731 62.4497148,70.5610398 L64.2865984,69.7837381 C65.0792392,71.7011475 65.7022274,73.6845381 66.1503957,75.7109726 Z M63.4354456,67.8847075 L61.6472436,68.770622 C60.7985014,67.0169556 59.796332,65.3381058 58.6475522,63.7510943 L60.2539048,62.5608282 C61.472215,64.2438941 62.5351949,66.0246145 63.4354456,67.8847075 Z M58.9759767,60.9010588 L57.4421563,62.1855357 C56.7727392,61.3672756 56.0625145,60.5781257 55.3123006,59.8198567 C54.6955789,59.1959787 54.0563979,58.5989437 53.3960018,58.0294377 L54.6875903,56.4963156 C55.3880805,57.1003976 56.0660333,57.7336479 56.7198009,58.3950018 C57.5141034,59.1978326 58.266581,60.0339307 58.9759767,60.9010588 Z M53.0862978,55.1960564 L51.8864719,56.8036901 C50.3387282,55.6212569 48.6935676,54.5827654 46.9690321,53.6957883 L47.8713124,51.9000312 C49.6998848,52.8405175 51.4446519,53.9418846 53.0862978,55.1960564 Z M46.0124775,51.0121549 L45.2153321,52.8581331 C43.440815,52.0737331 41.6007981,51.4468677 39.7185289,50.9832433 L40.1895022,49.0259396 C42.1831117,49.5169883 44.1322763,50.1810387 46.0124775,51.0121549 Z M38.1330261,48.5837445 L37.7764943,50.5656571 C35.8670506,50.2140424 33.9326609,50.0296872 32,50.0144105 L32.0155552,48 C34.0625839,48.0161807 36.1110544,48.2114083 38.1330261,48.5837445 Z"/>
    </g>
  </g>
</svg>
