<svg xmlns="http://www.w3.org/2000/svg" width="118" height="118" viewBox="0 0 118 118">
  <g fill="none" fill-rule="evenodd">
    <rect width="118" height="118" fill="#007050" rx="5"/>
    <path fill="#FFF" fill-rule="nonzero" d="M34.7994505,66.7550264 C36.0354024,69.9243798 34.4075633,72.4095553 31.3629012,70.6186191 L2.81542643,50.7170919 C0.263135481,48.9261557 0.263135481,47.4068783 2.81542643,45.6058807 L31.3629012,25.694292 C34.4075633,23.9134173 36.0454508,26.3985928 34.7994505,29.5578848 L32.1324289,41.0179802 C41.8880844,40.5641935 51.811612,44.787227 59.0958048,50.3203855 L59.0958048,31.920717 L48.7834156,34.3206415 C45.6140621,35.5565934 43.1288866,33.9287543 44.9198228,30.8840923 L64.82135,2.33661749 C66.6122862,-0.215673463 68.1315636,-0.215673463 69.9325613,2.33661749 L89.8441499,30.8840923 C91.6250247,33.9287543 89.1398491,35.5666418 85.9805572,34.3206415 L75.6708048,31.9213306 L75.6708048,81.3729187 C75.6947652,81.8429695 75.7057827,87.1961008 75.7038571,97.4323125 L75.6708048,98.7078794 C75.6708048,99.8124489 74.7753743,100.707879 73.6708048,100.707879 L61.0958048,100.707879 C59.9912353,100.707879 59.0958048,99.8124489 59.0958048,98.7078794 L59.0958048,83.6240271 C58.5554505,77.067928 56.7472427,70.3634561 51.8623571,65.5036642 C46.9300515,60.5924874 39.5429125,58.3170635 32.6733433,57.6192206 L34.7994505,66.7550264 Z" transform="matrix(-1 0 0 1 106 10)"/>
  </g>
</svg>
