<svg xmlns="http://www.w3.org/2000/svg" width="118" height="118" viewBox="0 0 118 118">
  <g fill="none" fill-rule="evenodd">
    <rect width="118" height="118" fill="#007050" rx="5"/>
    <g fill="#FFF" transform="translate(21 16)">
      <path fill-rule="nonzero" d="M32.5839716,41.5472186 C33.8081167,44.7082777 32.195828,47.1869494 29.180251,45.4007001 L1.89593205,25.551256 C-0.63197735,23.7650067 -0.63197735,22.2497054 1.89593205,20.453421 L29.180251,0.593941802 C32.195828,-1.18227236 33.8180691,1.29639938 32.5839716,4.44742337 L30.9328747,15.8775273 L31.4686219,32.4353215 L32.5839716,41.5472186 Z"/>
      <path d="M29,14 L29,31.3745371 C37.0186307,31.4004996 46.885073,33.065384 53,39.1250192 C59.0991939,45.1638844 60.429466,52.9476542 60.4714209,60.8610081 L60.4556878,87 L76.9790225,87 L77,56.0275511 C77,45.3985252 73.733595,34.7928724 65.5419004,26.6822039 C57.3502058,18.5715354 39.6985,14.0259624 29,14 Z"/>
    </g>
  </g>
</svg>
