<svg xmlns="http://www.w3.org/2000/svg" width="118" height="118" viewBox="0 0 118 118">
  <g fill="none" fill-rule="evenodd">
    <rect width="118" height="118" fill="#007050" rx="5"/>
    <g fill="#FFF" transform="translate(8 29)">
      <path fill-rule="nonzero" d="M22.7641445,29.1308084 C23.6193692,31.3471832 22.4929757,33.0851025 20.3862028,31.8326748 L1.32455527,17.9152485 C-0.441518423,16.6628208 -0.441518423,15.6003682 1.32455527,14.3409044 L20.3862028,0.416441953 C22.4929757,-0.828949584 23.6263222,0.90896968 22.7641445,3.11830834 L21.6106385,11.1325192 L21.9849276,22.742007 L22.7641445,29.1308084 Z"/>
      <path d="M20.260274,9.81609195 L20.260274,21.9982387 C25.862331,22.0164422 32.755325,23.183775 37.0273973,27.4324847 C41.2884779,31.6666316 42.2178461,37.1242173 42.2471571,42.6726609 L42.2361655,61 L53.7798651,61 L53.7945205,39.2836853 C53.7945205,31.8311499 51.5125116,24.3950025 45.7895469,18.7082119 C40.0665821,13.0214214 27.7345685,9.83429551 20.260274,9.81609195 Z"/>
      <g transform="matrix(-1 0 0 1 102 0)">
        <path fill-rule="nonzero" d="M22.7641445,29.1308084 C23.6193692,31.3471832 22.4929757,33.0851025 20.3862028,31.8326748 L1.32455527,17.9152485 C-0.441518423,16.6628208 -0.441518423,15.6003682 1.32455527,14.3409044 L20.3862028,0.416441953 C22.4929757,-0.828949584 23.6263222,0.90896968 22.7641445,3.11830834 L21.6106385,11.1325192 L21.9849276,22.742007 L22.7641445,29.1308084 Z"/>
        <path d="M20.260274,9.81609195 L20.260274,21.9982387 C25.862331,22.0164422 32.755325,23.183775 37.0273973,27.4324847 C41.2884779,31.6666316 42.2178461,37.1242173 42.2471571,42.6726609 L42.2361655,61 L53.7798651,61 L53.7945205,39.2836853 C53.7945205,31.8311499 51.5125116,24.3950025 45.7895469,18.7082119 C40.0665821,13.0214214 27.7345685,9.83429551 20.260274,9.81609195 Z"/>
      </g>
    </g>
  </g>
</svg>
