<svg xmlns="http://www.w3.org/2000/svg" width="118" height="118" viewBox="0 0 118 118">
  <g fill="none" fill-rule="evenodd">
    <rect width="118" height="118" fill="#007050" rx="5"/>
    <g transform="translate(10 10)">
      <path fill="#FFF" fill-rule="nonzero" d="M34.7994505,66.7550264 C36.0354024,69.9243798 34.4075633,72.4095553 31.3629012,70.6186191 L2.81542643,50.7170919 C0.263135481,48.9261557 0.263135481,47.4068783 2.81542643,45.6058807 L31.3629012,25.694292 C34.4075633,23.9134173 36.0454508,26.3985928 34.7994505,29.5578848 L32.1324289,41.0179802 C37.1979994,40.782354 47.1626957,42.4357934 53.7404536,45.6058807 C59.8306349,48.5409851 63.7570833,52.4205294 66.0958048,55.5478555 C66.0958048,47.9740602 66.0958048,43.1649588 66.0958048,41.1205512 C66.0958048,39.0761436 66.0958048,36.0095322 66.0958048,31.920717 L55.7834156,34.3206415 C52.6140621,35.5565934 50.1288866,33.9287543 51.9198228,30.8840923 L71.82135,2.33661749 C73.6122862,-0.215673463 75.1315636,-0.215673463 76.9325613,2.33661749 L96.8441499,30.8840923 C98.6250247,33.9287543 96.1398491,35.5666418 92.9805572,34.3206415 L82.6708048,31.9213306 L82.6708048,81.3729187 C82.6947652,81.8429695 82.7057827,87.1961008 82.7038571,97.4323125 L82.6708048,98.7078794 C82.6708048,99.8124489 81.7753743,100.707879 80.6708048,100.707879 L61.0958048,100.707879 C59.9912353,100.707879 59.0958048,99.8124489 59.0958048,98.7078794 L59.0958048,83.6240271 C58.5554505,77.067928 56.7472427,70.3634561 51.8623571,65.5036642 C46.9300515,60.5924874 39.5429125,58.3170635 32.6733433,57.6192206 L34.7994505,66.7550264 Z"/>
      <path fill="#007050" d="M74,38 L76,38 L76,44 L74,44 L74,38 Z M74,46 L76,46 L76,52 L74,52 L74,46 Z M74,54 L76,54 L76,60 L74,60 L74,54 Z M74,62 L76,62 L76,68 L74,68 L74,62 Z M74,70 L76,70 L76,76 L74,76 L74,70 Z M74,78 L76,78 L76,84 L74,84 L74,78 Z M74,86 L76,86 L76,92 L74,92 L74,86 Z"/>
      <path fill="#007050" fill-rule="nonzero" d="M68.1479619,91.6839044 L66.147963,91.6818402 L66.1541556,85.6818434 L68.1541545,85.6839076 L68.1479619,91.6839044 Z M68.1562187,83.6839086 L66.1562198,83.6818444 L66.1568699,83.0710526 C66.1476992,81.3257759 66.0021907,79.5835943 65.7213962,77.8617792 L67.6953199,77.5398707 C67.9929193,79.3647323 68.1471239,81.2110323 68.1568556,83.0668302 L68.1562187,83.6839086 Z M67.3034438,75.5118972 L65.3517072,75.9486172 C64.927105,74.0510362 64.3369532,72.1940059 63.5861779,70.3989615 L65.4312937,69.6272439 C66.2274867,71.5308787 66.8532669,73.5000206 67.3034438,75.5118972 Z M64.5763263,67.7418559 L62.7801103,68.621406 C61.9275644,66.8803379 60.9209038,65.213549 59.7669755,63.6379386 L61.3805272,62.4562233 C62.6042974,64.1271981 63.672041,65.8951259 64.5763263,67.7418559 Z M60.096872,60.8083777 L58.5561775,62.083627 C57.8837605,61.2712452 57.1703528,60.4877646 56.4167767,59.7349429 C55.7972911,59.1155469 55.1552456,58.522801 54.4918899,57.9573863 L55.7892667,56.4352781 C56.4928963,57.0350205 57.1738874,57.6637214 57.8305849,58.3203242 C58.6284471,59.1173875 59.384297,59.9474791 60.096872,60.8083777 Z M54.1807979,55.14436 L52.9755949,56.7404445 C51.4209148,55.5665059 49.7683813,54.5354749 48.0361172,53.6548698 L48.9424411,51.8720134 C50.7792084,52.8057432 52.5317949,53.8991982 54.1807979,55.14436 Z M47.0752757,50.9905156 L46.2745577,52.8232323 C44.4920881,52.0444675 42.6438249,51.4221055 40.7531201,50.9618117 L41.2262042,49.0185692 C43.2287482,49.5060903 45.1866482,50.1653701 47.0752757,50.9905156 Z M39.1605118,48.5795509 L38.8023822,50.5472254 C36.8843811,50.1981368 34.9413223,50.0151059 33,49.999939 L33.0156249,48 C35.0718275,48.0160645 37.1294784,48.2098896 39.1605118,48.5795509 Z"/>
    </g>
  </g>
</svg>
