<svg xmlns="http://www.w3.org/2000/svg" width="20" height="24" viewBox="0 0 20 24">
  <g fill="none">
    <rect width="19.8" height="23.8" x=".1" y=".1" fill="#FFF" stroke="#000" stroke-width=".2" rx="1"/>
    <rect width="18" height="22" x="1" y="1" fill="#FFF" stroke="#000" stroke-width=".7" rx=".3"/>
    <g fill="#000" transform="translate(4 5)">
      <path d="M.5 3C.8 3 1 2.8 1 2.5L1 1 2.5 1C2.8 1 3 .8 3 .5 3 .2 2.8 0 2.5 0L.5 0C.2 0 0 .2 0 .5L0 2.5C0 2.8.2 3 .5 3zM.5 8L2.5 8C2.8 8 3 7.8 3 7.5 3 7.2 2.8 7 2.5 7L1 7 1 5.5C1 5.2.8 5 .5 5 .2 5 0 5.2 0 5.5L0 7.5C0 7.8.2 8 .5 8zM9.5 1L11 1 11 2.5C11 2.8 11.2 3 11.5 3 11.8 3 12 2.8 12 2.5L12 .5C12 .2 11.8 0 11.5 0L9.5 0C9.2 0 9 .2 9 .5 9 .8 9.2 1 9.5 1zM11.5 5C11.2 5 11 5.2 11 5.5L11 7 9.5 7C9.2 7 9 7.2 9 7.5 9 7.8 9.2 8 9.5 8L11.5 8C11.8 8 12 7.8 12 7.5L12 5.5C12 5.2 11.8 5 11.5 5z"/>
      <circle cx="6" cy="4" r="3"/>
      <path d="M9,9 L3,9 C1.3,9 0,10.3 0,12 L0,14.5 C0,14.8 0.2,15 0.5,15 L11.5,15 C11.8,15 12,14.8 12,14.5 L12,12 C12,10.3 10.7,9 9,9 Z"/>
    </g>
  </g>
</svg>
