<svg xmlns="http://www.w3.org/2000/svg" width="20" height="24" viewBox="0 0 20 24">
  <g fill="none">
    <rect width="19.8" height="23.8" x=".1" y=".1" fill="#FFF" stroke="#000" stroke-width=".2" rx="1"/>
    <rect width="18" height="22" x="1" y="1" fill="#FFF" stroke="#000" stroke-width=".7" rx=".3"/>
    <path fill="#000" d="M14.8,14 C13.7,12.1 11.7,11 9.5,11 C7.3,11 5.3,12.1 4.2,14 C4.21002301,14 3.97668968,14 3.5,14 C2.78496549,14 2.33297095,14.7524398 2.23297095,14.8524398 C2.13297095,14.9524398 2,15.3 2,15.5 C2,15.6333333 2,16.4666667 2,18 C2,18.2 2.09758265,18.5703934 2.32485288,18.7170041 C2.55212311,18.8636147 2.96240863,19 3.5,19 L4.1,19 C4.3,19.6 4.9,20 5.5,20 C6.1,20 6.7,19.6 6.9,19 L12.6,19 C12.8,19.6 13.4,20 14,20 C14.6,20 15.2,19.6 15.4,19 L17.5,19 C17.8,19 18,18.8 18,18.5 L18,16.7488845 C18,15.8155511 16.9333333,14.8992563 14.8,14 Z M13.6,14 L10,14 L10,12 C11.4,12.2 12.7,12.9 13.6,14 Z M9,12 L9,14 L5.4,14 C6.3,12.9 7.6,12.2 9,12 Z M5.5,19 C5.2,19 5,18.8 5,18.5 C5,18.2 5.2,18 5.5,18 C5.8,18 6,18.2 6,18.5 C6,18.8 5.8,19 5.5,19 Z M14,19 C13.7,19 13.5,18.8 13.5,18.5 C13.5,18.2 13.7,18 14,18 C14.3,18 14.5,18.2 14.5,18.5 C14.5,18.8 14.3,19 14,19 Z"/>
    <g fill="#000" transform="translate(6 4)">
      <path d="M6.33846154 4.62C6.89230769 4.26 7.32307692 3.72 7.63076923 3.12 7.69230769 3.06 7.69230769 2.94 7.63076923 2.88 6.95384615 1.5 5.53846154.6 3.93846154.6 3.44615385.6 2.95384615.72 2.46153846.9L3.50769231 1.92C3.63076923 1.86 3.81538462 1.86 3.93846154 1.86 4.61538462 1.86 5.16923077 2.4 5.16923077 3.06 5.16923077 3.24 5.10769231 3.36 5.10769231 3.48L6.33846154 4.62zM5.89230769 5.91C5.95384615 5.97 6.01538462 5.97 6.13846154 5.97 6.26153846 5.97 6.32307692 5.97 6.38461538 5.91 6.50769231 5.79 6.50769231 5.61 6.38461538 5.49L.846153846.09C.723076923-.03.538461538-.03.415384615.09.292307692.21.292307692.39.415384615.51L1.15384615 1.23C.723076923 1.59.292307692 2.07.0461538462 2.61-.0153846154 2.67-.0153846154 2.79.0461538462 2.85.723076923 4.23 2.13846154 5.13 3.73846154 5.13 4.16923077 5.13 4.53846154 5.07 4.96923077 4.95L5.89230769 5.91zM3.67692308 3.87C3 3.87 2.44615385 3.33 2.44615385 2.67 2.44615385 2.61 2.44615385 2.55 2.44615385 2.49L3.8 3.81C3.8 3.87 3.73846154 3.87 3.67692308 3.87z"/>
    </g>
  </g>
</svg>
