<svg xmlns="http://www.w3.org/2000/svg" width="841" height="842" viewBox="0 0 841 842">
  <g fill="none" fill-rule="evenodd">
    <path fill="#000" d="M403.81425,834.27825 L6.9952467,437.34225 C-2.1397533,428.18325 -2.1247533,413.09325 6.9952467,403.91625 L403.81425,6.9892512 C412.97925,-2.1277488 428.08125,-2.1277488 437.22525,6.9892512 L834.07725,403.94325 C843.21525,413.10525 843.21525,428.18325 834.07725,437.33925 L437.22525,834.27825 C428.08125,843.37125 412.97925,843.41625 403.81425,834.27825"/>
    <path fill="#FFF" d="M56.9727175,428.075283 C53.0090942,424.250331 53.0090942,417.731447 56.9727175,413.903796 L413.931022,56.9820857 C417.738045,53.0059714 424.272083,53.0059714 428.073706,56.9820857 L785.053608,413.903796 C788.982131,417.731447 788.982131,424.274625 785.053608,428.096877 L428.073706,785.048282 C424.272083,788.983906 417.756945,788.983906 413.952622,785.048282 L56.9727175,428.075283 Z"/>
    <path fill="#1C1C1C" fill-rule="nonzero" d="M315.34,366.9 C315.34,385.94 305.54,397 284.82,397 L250.38,397 L250.38,299 L285.38,299 C304.7,299 313.8,307.68 313.8,324.9 C313.8,335.54 309.32,341.14 302.46,344.92 C310.44,348.56 315.34,355 315.34,366.9 Z M290.98,327 C290.98,320.28 288.6,317.2 283.14,317.2 L272.78,317.2 L272.78,337.22 L283.42,337.22 C288.46,337.22 290.98,333.86 290.98,327 Z M292.38,367.32 C292.38,358.92 289.44,355.14 283.7,355.14 L272.78,355.14 L272.78,378.8 L283.98,378.8 C289.44,378.8 292.38,375.02 292.38,367.32 Z M368.4,323.92 L364.62,346.46 C361.82,343.8 359.16,342.12 355.24,342.12 C350.9,342.12 347.96,343.94 347.12,349.26 L347.12,397 L325.56,397 L325.56,323.5 L347.12,323.5 L347.12,327.98 C350.48,324.34 354.4,321.96 359.44,321.96 C363.78,321.96 366.16,322.8 368.4,323.92 Z M399.2,305.44 C399.2,312.16 394.3,316.64 387.02,316.64 C379.88,316.64 374.84,312.16 374.84,305.44 C374.84,299 379.88,294.52 387.02,294.52 C394.3,294.52 399.2,299 399.2,305.44 Z M397.8,397 L376.24,397 L376.24,323.5 L397.8,323.5 L397.8,397 Z M463.04,397 L441.48,397 L441.48,392.66 C437.98,396.02 433.78,398.54 427.76,398.54 C415.3,398.54 407.88,386.36 407.88,360.6 C407.88,334 415.16,321.96 428.32,321.96 C433.92,321.96 438.12,324.62 441.48,327.56 L441.48,303.34 L463.04,294.94 L463.04,397 Z M441.48,377.82 L441.48,342.82 C439.8,341.28 437.98,340.16 435.18,340.16 C431.26,340.16 429.3,342.68 429.3,360.04 C429.3,377.68 431.26,380.34 435.32,380.34 C437.84,380.34 439.66,379.36 441.48,377.82 Z M527.86,389.3 C527.86,412.96 517.5,420.52 493.28,424.02 L486.84,409.88 C502.94,407.22 506.3,404.56 506.3,394.2 L506.3,392.38 C502.8,395.74 498.6,398.26 492.58,398.26 C480.12,398.26 472.7,386.36 472.7,360.6 C472.7,334 479.98,321.96 493.14,321.96 C498.74,321.96 502.94,324.62 506.3,327.56 L506.3,323.5 L527.86,323.5 L527.86,389.3 Z M506.3,377.82 L506.3,342.82 C504.62,341.28 502.8,340.16 500,340.16 C496.08,340.16 494.12,342.68 494.12,360.04 C494.12,377.68 496.08,380.34 500.14,380.34 C502.66,380.34 504.48,379.36 506.3,377.82 Z M591.98,366.48 L557.54,366.48 C558.1,378.24 561.18,381.6 566.08,381.6 C570.42,381.6 573.5,379.78 577.98,373.34 L590.72,383.42 C584.56,392.52 577.56,398.54 565.1,398.54 C546.76,398.54 537.38,384.12 537.38,360.6 C537.38,335.4 547.32,321.96 565.1,321.96 C582.46,321.96 591.98,334.98 591.98,361.3 L591.98,366.48 Z M572.38,352.34 C571.82,342.12 569.72,338.2 564.68,338.2 C560.34,338.2 558.24,341.56 557.54,352.34 L572.38,352.34 Z M340.82,551 L322.06,551 L307.64,522.86 C302.18,512.22 297,501.58 295.04,495.98 C295.6,501.58 295.74,514.04 295.74,523.28 L295.74,551 L273.76,551 L273.76,453 L294.2,453 L306.66,475.4 C312.26,485.48 317.86,497.52 319.68,502.84 C319.12,497.52 318.84,483.94 318.84,474.98 L318.84,453 L340.82,453 L340.82,551 Z M406.06,551 L384.92,551 L384.92,546.8 C381,550.3 376.38,552.54 370.78,552.54 C358.6,552.54 351.74,544.42 351.74,527.76 C351.74,511.66 359.72,503.54 373.3,503.54 C378.48,503.54 381.98,504.52 384.92,505.92 L384.92,500.18 C384.92,494.86 382.68,492.9 377.5,492.9 C371.76,492.9 367,494.58 360.84,498.5 L354.68,483.52 C361.96,479.04 370.78,475.96 381,475.96 C398.22,475.96 406.06,483.66 406.06,499.34 L406.06,551 Z M384.92,534.2 L384.92,519.64 C382.96,518.66 381,518.1 377.64,518.1 C373.86,518.1 371.9,520.62 371.9,527.48 C371.9,533.64 373.58,536.58 377.78,536.58 C380.72,536.58 383.24,535.6 384.92,534.2 Z M504.9,551 L483.34,551 L483.34,502.7 C483.34,497.1 481.66,494.44 478.3,494.44 C475.78,494.44 473.68,495.56 471.72,497.24 L471.72,551 L450.3,551 L450.3,502.7 C450.3,497.1 448.62,494.44 445.26,494.44 C442.74,494.44 440.64,495.56 438.68,497.24 L438.68,551 L417.12,551 L417.12,477.5 L438.68,477.5 L438.68,481.7 C442.04,478.62 446.52,475.96 453.24,475.96 C461.22,475.96 465.56,478.2 469.34,482.82 C473.96,478.76 478.86,475.96 486.42,475.96 C498.88,475.96 504.9,483.24 504.9,498.92 L504.9,551 Z M568.6,520.48 L534.16,520.48 C534.72,532.24 537.8,535.6 542.7,535.6 C547.04,535.6 550.12,533.78 554.6,527.34 L567.34,537.42 C561.18,546.52 554.18,552.54 541.72,552.54 C523.38,552.54 514,538.12 514,514.6 C514,489.4 523.94,475.96 541.72,475.96 C559.08,475.96 568.6,488.98 568.6,515.3 L568.6,520.48 Z M549,506.34 C548.44,496.12 546.34,492.2 541.3,492.2 C536.96,492.2 534.86,495.56 534.16,506.34 L549,506.34 Z"/>
  </g>
</svg>
