<svg xmlns="http://www.w3.org/2000/svg" width="350" height="113" viewBox="0 0 350 113">
  <g fill="none" transform="translate(1)">
    <path fill="#FFF" stroke="#000" d="M348.22262,95.16413 C348.22262,104.50163 340.58262,112.14163 331.24512,112.14163 L17.47012,112.14163 C8.132625,112.14163 0.492625,104.50163 0.492625,95.16413 L0.492625,17.47913 C0.492625,8.14038 8.132625,0.50038 17.47012,0.50038 L331.24512,0.50038 C340.58262,0.50038 348.22262,8.14038 348.22262,17.47913 L348.22262,95.16413 Z"/>
    <path fill="#000" d="M17.47012,4.74539 C10.466375,4.74539 4.736375,10.47539 4.736375,17.47914 L4.736375,95.16414 C4.736375,102.16789 10.466375,107.89789 17.47012,107.89789 L331.24512,107.89789 C338.24887,107.89789 343.97887,102.16789 343.97887,95.16414 L343.97887,17.47914 C343.97887,10.47539 338.24887,4.74539 331.24512,4.74539 L17.47012,4.74539 Z M336.90512,95.16414 C336.90512,98.27664 334.35762,100.82289 331.24512,100.82289 L17.47012,100.82289 C14.357625,100.82289 11.810125,98.27664 11.810125,95.16414 L11.810125,17.47914 C11.810125,14.36664 14.357625,11.81914 17.47012,11.81914 L331.24512,11.81914 C334.35762,11.81914 336.90512,14.36664 336.90512,17.47914 L336.90512,95.16414 Z"/>
    <path fill="#000" d="M63.2,60.716 C63.2,68.204 58.936,72 51.136,72 L41.672,72 L41.672,35.6 L51.5,35.6 C58.156,35.6 62.316,39.292 62.316,45.324 C62.316,48.392 60.756,51.2 57.844,52.448 C60.756,53.592 63.2,56.244 63.2,60.716 Z M55.868,45.584 C55.868,43.088 54.724,41.58 51.552,41.58 L48.016,41.58 L48.016,49.536 L51.708,49.536 C54.88,49.536 55.868,47.664 55.868,45.584 Z M56.752,60.872 C56.752,57.076 55.088,55.36 51.292,55.36 L48.016,55.36 L48.016,66.02 L51.5,66.02 C55.192,66.02 56.752,63.888 56.752,60.872 Z M89.72,72 L82.648,72 L76.98,58.168 L74.848,58.168 L74.848,72 L68.348,72 L68.348,35.6 L78.02,35.6 C85.092,35.6 89.616,39.396 89.616,46.936 C89.616,52.032 87.016,55.204 83.48,56.868 L89.72,72 Z M83.116,47.04 C83.116,43.764 81.608,41.944 77.708,41.944 L74.848,41.944 L74.848,52.084 L78.072,52.084 C81.4,52.084 83.116,50.368 83.116,47.04 Z M101.628,72 L95.128,72 L95.128,35.6 L101.628,35.6 L101.628,72 Z M130.748,53.748 C130.748,66.54 125.236,72 116.708,72 L108.648,72 L108.648,35.6 L116.864,35.6 C125.6,35.6 130.748,40.956 130.748,53.748 Z M124.092,53.852 C124.092,47.144 122.688,41.944 116.864,41.944 L115.148,41.944 L115.148,65.656 L116.864,65.656 C122.688,65.656 124.092,60.56 124.092,53.852 Z M158.516,58.844 C158.516,67.58 154.564,72.572 146.972,72.572 C138.496,72.572 134.908,64.304 134.908,53.852 C134.908,43.348 138.6,35.028 147.076,35.028 C152.588,35.028 156.592,37.94 158.152,44.232 L152.068,46.208 C151.132,42.776 149.468,41.528 146.972,41.528 C143.072,41.528 141.564,46 141.564,53.748 C141.564,61.496 143.176,66.072 147.076,66.072 C151.028,66.072 152.224,64.096 152.224,58.688 L147.024,58.688 L147.024,52.604 L158.516,52.604 L158.516,58.844 Z M183.32,72 L164.184,72 L164.184,35.6 L182.852,35.6 L182.852,41.84 L170.684,41.84 L170.684,49.536 L178.848,49.536 L178.848,55.672 L170.684,55.672 L170.684,65.76 L183.32,65.76 L183.32,72 Z M222.424,72 L216.184,72 L209.476,55.776 C208.54,53.488 207.396,50.524 206.72,48.392 C206.772,50.628 206.824,54.372 206.824,56.66 L206.824,72 L200.896,72 L200.896,35.6 L207.448,35.6 L213.844,51.564 C214.728,53.748 216.028,57.128 216.704,59.156 C216.652,56.92 216.496,52.968 216.496,50.68 L216.496,35.6 L222.424,35.6 L222.424,72 Z M252.22,72 L245.512,72 L243.796,64.408 L235.632,64.408 L233.916,72 L227.26,72 L236.568,35.6 L242.912,35.6 L252.22,72 Z M242.392,58.324 L241.404,54.008 C240.78,51.2 239.948,46.988 239.688,45.168 C239.428,47.04 238.7,50.94 238.024,53.904 L237.036,58.324 L242.392,58.324 Z M283.576,72 L277.648,72 L277.648,60.248 C277.648,55.932 277.7,51.928 277.752,49.224 C277.024,51.824 275.828,55.88 274.476,60.04 L270.264,72.936 L266.052,60.04 C264.7,55.932 263.504,51.824 262.776,49.224 C262.828,51.928 262.88,55.932 262.88,60.248 L262.88,72 L257.056,72 L257.056,35.6 L263.608,35.6 L267.924,49.068 C269.016,52.448 270.056,55.568 270.368,57.284 C270.732,55.464 271.772,52.292 272.812,49.068 L277.128,35.6 L283.576,35.6 L283.576,72 Z M309.472,72 L290.336,72 L290.336,35.6 L309.004,35.6 L309.004,41.84 L296.836,41.84 L296.836,49.536 L305,49.536 L305,55.672 L296.836,55.672 L296.836,65.76 L309.472,65.76 L309.472,72 Z"/>
  </g>
</svg>
