<?xml version="1.0" encoding="UTF-8" standalone="no"?>
<!-- Created with Inkscape (http://www.inkscape.org/) -->

<svg
   xmlns:dc="http://purl.org/dc/elements/1.1/"
   xmlns:cc="http://creativecommons.org/ns#"
   xmlns:rdf="http://www.w3.org/1999/02/22-rdf-syntax-ns#"
   xmlns:svg="http://www.w3.org/2000/svg"
   xmlns="http://www.w3.org/2000/svg"
   xmlns:sodipodi="http://sodipodi.sourceforge.net/DTD/sodipodi-0.dtd"
   xmlns:inkscape="http://www.inkscape.org/namespaces/inkscape"
   id="svg17624"
   version="1.1"
   inkscape:version="0.48.2 r9819"
   width="213.78906"
   height="213.78906"
   xml:space="preserve"
   sodipodi:docname="AA.svg"><metadata
     id="metadata17630"><rdf:RDF><cc:Work
         rdf:about=""><dc:format>image/svg+xml</dc:format><dc:type
           rdf:resource="http://purl.org/dc/dcmitype/StillImage" /><dc:title /></cc:Work></rdf:RDF></metadata><defs
     id="defs17628"><inkscape:perspective
       sodipodi:type="inkscape:persp3d"
       inkscape:vp_x="0 : 0.5 : 1"
       inkscape:vp_y="0 : 1000 : 0"
       inkscape:vp_z="1 : 0.5 : 1"
       inkscape:persp3d-origin="0.5 : 0.33333333 : 1"
       id="perspective17632" /><clipPath
       clipPathUnits="userSpaceOnUse"
       id="clipPath17642"><path
         d="m -2,710 501,0 0,-711 -501,0 0,711 z"
         id="path17644"
         inkscape:connector-curvature="0" /></clipPath><clipPath
       clipPathUnits="userSpaceOnUse"
       id="clipPath17648"><path
         d="m 0,708.06 498,0 0,-708 -498,0 0,708 z"
         id="path17650"
         inkscape:connector-curvature="0" /></clipPath><clipPath
       clipPathUnits="userSpaceOnUse"
       id="clipPath17798"><path
         d="m -2,710 501,0 0,-711 -501,0 0,711 z"
         id="path17800"
         inkscape:connector-curvature="0" /></clipPath><clipPath
       clipPathUnits="userSpaceOnUse"
       id="clipPath17804"><path
         d="m 0,708.06 498,0 0,-708 -498,0 0,708 z"
         id="path17806"
         inkscape:connector-curvature="0" /></clipPath><clipPath
       id="Clip0"><path
         inkscape:connector-curvature="0"
         d="m 0,0 212.597,0 0,269.292 L 0,269.292 0,0 z"
         transform="translate(0.923828,0.879883)"
         id="path7" /></clipPath><clipPath
       id="Clip0-8"><path
         inkscape:connector-curvature="0"
         d="m 0,0 170.079,0 0,113.386 L 0,113.386 0,0 z"
         transform="translate(0.0986328,0.822266)"
         id="path7-8" /></clipPath><clipPath
       id="Clip0-1"><path
         inkscape:connector-curvature="0"
         d="m 0,0 287.009,0 0,159.449 L 0,159.449 0,0 z"
         transform="translate(0.396484,0.267578)"
         id="path7-7" /></clipPath></defs><sodipodi:namedview
     pagecolor="#ffffff"
     bordercolor="#666666"
     borderopacity="1"
     objecttolerance="10"
     gridtolerance="10"
     guidetolerance="10"
     inkscape:pageopacity="0"
     inkscape:pageshadow="2"
     inkscape:window-width="1280"
     inkscape:window-height="1004"
     id="namedview17626"
     showgrid="false"
     inkscape:zoom="1.0011299"
     inkscape:cx="6.7528462"
     inkscape:cy="55.606135"
     inkscape:window-x="-8"
     inkscape:window-y="-8"
     inkscape:window-maximized="1"
     inkscape:current-layer="g17634"
     fit-margin-top="0"
     fit-margin-left="0"
     fit-margin-right="0"
     fit-margin-bottom="0"
     showguides="true"
     inkscape:guide-bbox="true" /><g
     id="g17634"
     inkscape:groupmode="layer"
     inkscape:label="GG1999P002"
     transform="matrix(1.25,0,0,-1.25,460.625,-37.773437)"><path
       inkscape:connector-curvature="0"
       style="fill:#ffffff;fill-rule:nonzero;stroke:#000000;stroke-width:0.95999998;stroke-miterlimit:4;stroke-opacity:1;stroke-dasharray:none"
       d="m -368.0293,-47.70018 c 0,9.39354 7.61524,17.0078 17.0088,17.0078 l 136.0622,0 c 9.394,0 17.008,-7.61426 17.008,-17.0078 l 0,-136.0632 c 0,-9.393 -7.614,-17.008 -17.008,-17.008 l -136.0622,0 c -9.39356,0 -17.0088,7.615 -17.0088,17.008 l 0,136.0632 z"
       id="path11" /><path
       inkscape:connector-curvature="0"
       style="fill:#c0111e;fill-opacity:1;fill-rule:nonzero;stroke:none"
       d="m -365.19434,-47.70024 c 0,7.82719 6.34571,14.1729 14.1728,14.1729 l 136.0632,0 c 7.829,0 14.173,-6.34571 14.173,-14.1729 l 0,-136.0631 c 0,-7.827 -6.344,-14.173 -14.173,-14.173 l -136.0632,0 c -7.82709,0 -14.1728,6.346 -14.1728,14.173 l 0,136.0631 z"
       id="path13" /><path
       inkscape:connector-curvature="0"
       style="fill:#ffffff;fill-rule:nonzero;stroke:none"
       d="m -360.94238,-47.7002 c 0,5.4795 4.44138,9.9209 9.92088,9.9209 l 136.06312,0 c 5.48,0 9.921,-4.4414 9.921,-9.9209 l 0,-136.0631 c 0,-5.48 -4.441,-9.921 -9.921,-9.921 l -136.06312,0 c -5.4795,0 -9.92088,4.441 -9.92088,9.921 l 0,136.0631 z"
       id="path15" /><path
       inkscape:connector-curvature="0"
       style="fill:#000000;fill-rule:evenodd;stroke:none"
       d="m -327.9941,-171.7285 c 4.373,0 7.5439,1.882 9.5146,5.646 1.5498,2.946 2.3242,6.959 2.3242,12.041 0,5.149 -1.0127,9.334 -3.0381,12.557 -2.125,3.399 -5.0586,5.098 -8.8007,5.098 -7.9815,0 -11.9717,-5.885 -11.9717,-17.655 0,-6.011 1.1123,-10.523 3.3369,-13.535 2.0371,-2.768 4.916,-4.152 8.6348,-4.152 z m 0,5.38 c -4.4502,0 -6.6748,4.102 -6.6748,12.307 0,4.286 0.5703,7.402 1.7099,9.351 1.0625,1.86 2.7178,2.79 4.9649,2.79 4.2177,0 6.3261,-4.047 6.3261,-12.141 0,-4.307 -0.5195,-7.458 -1.5605,-9.451 -1.0293,-1.904 -2.6182,-2.856 -4.7656,-2.856 z"
       id="path17" /><path
       inkscape:connector-curvature="0"
       style="fill:#000000;fill-rule:nonzero;stroke:none"
       d="m -307.6572,-137.0665 0,-34.016 5.2646,0 0,21.974 12.9405,-21.974 4.5507,0 0,34.016 -5.3652,0 0,-22.141 -12.9395,22.141 -4.4511,0 z"
       id="path19" /><path
       inkscape:connector-curvature="0"
       style="fill:#000000;fill-rule:nonzero;stroke:none"
       d="m -277.3506,-137.0665 0,-34.016 20.74911,0 0,4.999 -15.54991,0 0,29.017 -5.1992,0 z"
       id="path21" /><path
       inkscape:connector-curvature="0"
       style="fill:#000000;fill-rule:nonzero;stroke:none"
       d="m -254.8675,-137.0665 11.941,-19.383 0,-14.633 5.264,0 0,14.633 11.708,19.383 -6.26,0 -8.204,-13.205 -8.088,13.205 -6.361,0 z"
       id="path23" /><path
       inkscape:connector-curvature="0"
       style="fill:#000000;fill-rule:nonzero;stroke:none"
       d="m -254.0195,-100.1689 c 0,3.1308 2.538,5.6689 5.669,5.6689 3.132,0 5.67,-2.5381 5.67,-5.6689 0,-3.1309 -2.538,-5.669 -5.67,-5.669 -3.131,0 -5.669,2.5381 -5.669,5.669 z"
       id="path25" /><path
       inkscape:connector-curvature="0"
       style="fill:#000000;fill-rule:nonzero;stroke:none"
       d="m -324.8945,-100.1689 c 0,3.1308 2.539,5.6689 5.6699,5.6689 3.1309,0 5.6689,-2.5381 5.6689,-5.6689 0,-3.1309 -2.538,-5.669 -5.6689,-5.669 -3.1309,0 -5.6699,2.5381 -5.6699,5.669 z"
       id="path27" /><path
       inkscape:connector-curvature="0"
       style="fill:#000000;fill-rule:nonzero;stroke:none"
       d="m -346.0625,-60.4875 c -1.5655,0 -2.825,-1.2595 -2.825,-2.825 l 0,-33.8 18.775,-3.775 1.05,0 c 0,5.4746 4.0941,9.925 9.85,9.925 5.5293,0 10,-4.4504 10,-9.925 l 51.025,0 c 0,5.4746 4.069,9.925 9.825,9.925 5.53,0 10.025,-4.4504 10.025,-9.925 l 21.25,0 0,20.55 -3,15.6 c -0.59,3.539 -2.545,4.25 -5.675,4.25 l -120.3,0 z m 4.25,-4.25 17.925,0 c 1.5655,0 2.825,-1.2596 2.825,-2.825 l 0,-12.05 c 0,-1.5654 -1.2595,-2.85 -2.825,-2.85 l -17.925,0 c -1.5654,0 -2.825,1.2846 -2.825,2.85 l 0,12.05 c 0,1.5654 1.2596,2.825 2.825,2.825 z m 27.85,0 17.9,0 c 1.5654,0 2.825,-1.2596 2.825,-2.825 l 0,-12.05 c 0,-1.5654 -1.2596,-2.85 -2.825,-2.85 l -17.9,0 c -1.5654,0 -2.85,1.2846 -2.85,2.85 l 0,12.05 c 0,1.5654 1.2846,2.825 2.85,2.825 z m 27.825,0 17.9,0 c 1.566,0 2.85,-1.2596 2.85,-2.825 l 0,-12.05 c 0,-1.5654 -1.284,-2.85 -2.85,-2.85 l -17.9,0 c -1.5655,0 -2.825,1.2846 -2.825,2.85 l 0,12.05 c 0,1.5654 1.2595,2.825 2.825,2.825 z m 27.825,0 17.925,0 c 1.565,0 2.825,-1.2596 2.825,-2.825 l 0,-12.05 c 0,-1.5654 -1.26,-2.85 -2.825,-2.85 l -17.925,0 c -1.566,0 -2.825,1.2846 -2.825,2.85 l 0,12.05 c 0,1.5654 1.259,2.825 2.825,2.825 z m 25,0 8.95,0 3.025,-15.9 0,-16 -11.975,0 0,31.9 z"
       id="path29" /></g></svg>