<?xml version="1.0" encoding="UTF-8" standalone="no"?>
<!-- Created with Inkscape (http://www.inkscape.org/) -->

<svg
   xmlns:dc="http://purl.org/dc/elements/1.1/"
   xmlns:cc="http://creativecommons.org/ns#"
   xmlns:rdf="http://www.w3.org/1999/02/22-rdf-syntax-ns#"
   xmlns:svg="http://www.w3.org/2000/svg"
   xmlns="http://www.w3.org/2000/svg"
   xmlns:sodipodi="http://sodipodi.sourceforge.net/DTD/sodipodi-0.dtd"
   xmlns:inkscape="http://www.inkscape.org/namespaces/inkscape"
   id="svg17624"
   version="1.1"
   inkscape:version="0.48.2 r9819"
   width="213.82812"
   height="213.78906"
   xml:space="preserve"
   sodipodi:docname="AA.svg"><metadata
     id="metadata17630"><rdf:RDF><cc:Work
         rdf:about=""><dc:format>image/svg+xml</dc:format><dc:type
           rdf:resource="http://purl.org/dc/dcmitype/StillImage" /><dc:title /></cc:Work></rdf:RDF></metadata><defs
     id="defs17628"><inkscape:perspective
       sodipodi:type="inkscape:persp3d"
       inkscape:vp_x="0 : 0.5 : 1"
       inkscape:vp_y="0 : 1000 : 0"
       inkscape:vp_z="1 : 0.5 : 1"
       inkscape:persp3d-origin="0.5 : 0.33333333 : 1"
       id="perspective17632" /><clipPath
       clipPathUnits="userSpaceOnUse"
       id="clipPath17642"><path
         d="m -2,710 501,0 0,-711 -501,0 0,711 z"
         id="path17644"
         inkscape:connector-curvature="0" /></clipPath><clipPath
       clipPathUnits="userSpaceOnUse"
       id="clipPath17648"><path
         d="m 0,708.06 498,0 0,-708 -498,0 0,708 z"
         id="path17650"
         inkscape:connector-curvature="0" /></clipPath><clipPath
       clipPathUnits="userSpaceOnUse"
       id="clipPath17798"><path
         d="m -2,710 501,0 0,-711 -501,0 0,711 z"
         id="path17800"
         inkscape:connector-curvature="0" /></clipPath><clipPath
       clipPathUnits="userSpaceOnUse"
       id="clipPath17804"><path
         d="m 0,708.06 498,0 0,-708 -498,0 0,708 z"
         id="path17806"
         inkscape:connector-curvature="0" /></clipPath><clipPath
       id="Clip0"><path
         inkscape:connector-curvature="0"
         d="m 0,0 212.597,0 0,269.292 L 0,269.292 0,0 z"
         transform="translate(0.923828,0.879883)"
         id="path7" /></clipPath><clipPath
       id="Clip0-8"><path
         inkscape:connector-curvature="0"
         d="m 0,0 170.079,0 0,113.386 L 0,113.386 0,0 z"
         transform="translate(0.0986328,0.822266)"
         id="path7-8" /></clipPath><clipPath
       id="Clip0-1"><path
         inkscape:connector-curvature="0"
         d="m 0,0 287.009,0 0,159.449 L 0,159.449 0,0 z"
         transform="translate(0.396484,0.267578)"
         id="path7-7" /></clipPath></defs><sodipodi:namedview
     pagecolor="#ffffff"
     bordercolor="#666666"
     borderopacity="1"
     objecttolerance="10"
     gridtolerance="10"
     guidetolerance="10"
     inkscape:pageopacity="0"
     inkscape:pageshadow="2"
     inkscape:window-width="1280"
     inkscape:window-height="1004"
     id="namedview17626"
     showgrid="false"
     inkscape:zoom="1.0011299"
     inkscape:cx="6.2059712"
     inkscape:cy="56.153009"
     inkscape:window-x="-8"
     inkscape:window-y="-8"
     inkscape:window-maximized="1"
     inkscape:current-layer="g17634"
     fit-margin-top="0"
     fit-margin-left="0"
     fit-margin-right="0"
     fit-margin-bottom="0"
     showguides="true"
     inkscape:guide-bbox="true" /><g
     id="g17634"
     inkscape:groupmode="layer"
     inkscape:label="GG1999P002"
     transform="matrix(1.25,0,0,-1.25,460.07812,-38.320312)"><path
       inkscape:connector-curvature="0"
       style="fill:#ffffff;fill-rule:nonzero;stroke:#000000;stroke-width:0.95999998;stroke-miterlimit:4;stroke-opacity:1;stroke-dasharray:none"
       d="m -367.57031,-48.137682 c 0,9.39354 7.61426,17.0078 17.0079,17.0078 l 136.0621,0 c 9.394,0 17.009,-7.61426 17.009,-17.0078 l 0,-136.062198 c 0,-9.394 -7.615,-17.008 -17.009,-17.008 l -136.0621,0 c -9.39364,0 -17.0079,7.614 -17.0079,17.008 l 0,136.062198 z"
       id="path11" /><path
       inkscape:connector-curvature="0"
       style="fill:#c0111e;fill-opacity:1;fill-rule:nonzero;stroke:none"
       d="m -364.73535,-48.137666 c 0,7.8281 6.34473,14.1738 14.1729,14.1738 l 136.0621,0 c 7.828,0 14.174,-6.3457 14.174,-14.1738 l 0,-136.062204 c 0,-7.828 -6.346,-14.174 -14.174,-14.174 l -136.0621,0 c -7.82817,0 -14.1729,6.346 -14.1729,14.174 l 0,136.062204 z"
       id="path13-9" /><path
       inkscape:connector-curvature="0"
       style="fill:#ffffff;fill-rule:nonzero;stroke:none"
       d="m -360.48437,-48.137648 c 0,5.4794 4.44242,9.92183 9.92192,9.92183 l 136.06208,0 c 5.48,0 9.922,-4.44243 9.922,-9.92183 l 0,-136.062172 c 0,-5.479 -4.442,-9.922 -9.922,-9.922 l -136.06208,0 c -5.4795,0 -9.92192,4.443 -9.92192,9.922 l 0,136.062172 z"
       id="path15" /><path
       inkscape:connector-curvature="0"
       style="fill:#000000;fill-rule:nonzero;stroke:none"
       d="m -337.94725,-137.50425 0,-34.015 20.749,0 0,5 -15.5449,0 0,29.015 -5.2041,0 z"
       id="path17" /><path
       inkscape:connector-curvature="0"
       style="fill:#000000;fill-rule:evenodd;stroke:none"
       d="m -301.72075,-137.50425 -11.5312,-33.981 5.6807,0 3.1289,9.592 10.8847,0 3.334,-9.592 5.5108,0 -11.6338,33.981 -5.3741,0 z m 6.1563,-18.946 -6.9395,0 3.4024,10.137 3.5371,-10.137 z"
       id="path19" /><path
       inkscape:connector-curvature="0"
       style="fill:#000000;fill-rule:nonzero;stroke:none"
       d="m -278.48825,-137.50425 0,-34.015 5.2724,0 0,21.974 12.9256,-21.974 4.558,0 0,34.015 -5.374,0 0,-22.143 -12.926,22.143 -4.456,0 z"
       id="path21" /><path
       inkscape:connector-curvature="0"
       style="fill:#000000;fill-rule:nonzero;stroke:none"
       d="m -247.87425,-137.50425 0,-34.015 20.749,0 0,5.306 -15.476,0 0,9.592 9.931,0 0,5.307 -9.931,0 0,8.368 14.217,0 0,5.442 -19.49,0 z"
       id="path23" /><path
       inkscape:connector-curvature="0"
       style="fill:#000000;fill-rule:nonzero;stroke:none"
       d="m -253.57325,-100.32035 c 0,3.1309 2.538,5.67 5.67,5.67 3.131,0 5.669,-2.5391 5.669,-5.67 0,-3.1308 -2.538,-5.6689 -5.669,-5.6689 -3.132,0 -5.67,2.5381 -5.67,5.6689 z"
       id="path25" /><path
       inkscape:connector-curvature="0"
       style="fill:#000000;fill-rule:nonzero;stroke:none"
       d="m -324.45505,-100.32035 c 0,3.1319 2.5381,5.67 5.6689,5.67 3.1309,0 5.669,-2.5381 5.669,-5.67 0,-3.1308 -2.5381,-5.6689 -5.669,-5.6689 -3.1308,0 -5.6689,2.5381 -5.6689,5.6689 z"
       id="path27" /><path
       inkscape:connector-curvature="0"
       style="fill:#000000;fill-rule:nonzero;stroke:none"
       d="m -345.63125,-60.63125 c -1.5655,0 -2.825,-1.2845 -2.825,-2.85 l 0,-33.775 18.8,-3.775 1.05,0 c 0,5.4746 4.0692,9.925 9.825,9.925 5.5303,0 10,-4.4504 10,-9.925 l 51.05,0 c 0,5.4746 4.0688,9.925 9.825,9.925 5.529,0 10,-4.4504 10,-9.925 l 21.25,0 0,20.55 -3,15.6 c -0.59,3.5391 -2.519,4.25 -5.65,4.25 l -120.325,0 z m 4.275,-4.25 17.9,0 c 1.5655,0 2.825,-1.2846 2.825,-2.85 l 0,-12.025 c 0,-1.5664 -1.2595,-2.85 -2.825,-2.85 l -17.9,0 c -1.5654,0 -2.85,1.2836 -2.85,2.85 l 0,12.025 c 0,1.5654 1.2846,2.85 2.85,2.85 z m 27.825,0 17.9,0 c 1.5654,0 2.85,-1.2846 2.85,-2.85 l 0,-12.025 c 0,-1.5664 -1.2846,-2.85 -2.85,-2.85 l -17.9,0 c -1.5654,0 -2.825,1.2836 -2.825,2.85 l 0,12.025 c 0,1.5654 1.2596,2.85 2.825,2.85 z m 27.825,0 17.925,0 c 1.566,0 2.825,-1.2846 2.825,-2.85 l 0,-12.025 c 0,-1.5664 -1.259,-2.85 -2.825,-2.85 l -17.925,0 c -1.5665,0 -2.825,1.2836 -2.825,2.85 l 0,12.025 c 0,1.5654 1.2585,2.85 2.825,2.85 z m 27.85,0 17.9,0 c 1.566,0 2.825,-1.2846 2.825,-2.85 l 0,-12.025 c 0,-1.5664 -1.259,-2.85 -2.825,-2.85 l -17.9,0 c -1.565,0 -2.85,1.2836 -2.85,2.85 l 0,12.025 c 0,1.5654 1.285,2.85 2.85,2.85 z m 24.975,0 8.975,0 3,-15.9 0,-16 -11.975,0 0,31.9 z"
       id="path29" /></g></svg>