<svg xmlns="http://www.w3.org/2000/svg" width="545" height="335" viewBox="0 0 545 335">
  <g fill="none">
    <rect width="543.6" height="333.6" x=".6" y=".6" fill="#000" rx="19.8"/>
    <rect width="540" height="330" x="2.4" y="2.4" fill="#FFF" rx="18"/>
    <rect width="516" height="306" x="14.4" y="14.4" fill="#003F87" rx="6"/>
    <path fill="#FFF" fill-opacity=".97" d="M62.4,152.699818 C62.415,150.257938 62.8287,146.261812 65.37144,143.399986 L73.8,143.399986 L73.8,161.999986 L65.37144,161.999986 C62.8287,159.13816 62.41506,155.14231 62.4,152.70043 L62.4,152.700094 L62.4,152.699818 Z"/>
    <path fill="#FFF" d="M64.2,176.039986 L68.76,176.039986 L68.76,163.199986 L75,163.199986 L75,142.199986 L68.76,142.199986 L68.76,135.59998 L70.14,130.37998 L82.2,91.799982 L82.2,77.399982 L401.400006,77.399982 C403.535826,77.419902 407.374446,79.089216 408.840006,83.639982 L420.000006,120.719982 L420.000006,176.039986 L424.800006,176.039986 L424.800006,189.599986 L64.2,189.599986 L64.2,176.039986 Z"/>
    <rect width="31.2" height="36" x="106.8" y="87.6" fill="#003F87"/>
    <rect width="31.2" height="36" x="193.68" y="87.6" fill="#003F87"/>
    <rect width="31.2" height="36" x="233.76" y="87.6" fill="#003F87"/>
    <rect width="31.2" height="36" x="273.84" y="87.6" fill="#003F87"/>
    <rect width="31.2" height="36" x="313.92" y="87.6" fill="#003F87"/>
    <path fill="#003F87" d="M184.8 177.599976L184.8 91.799976C184.8 87.811176 181.5888 84.599976 177.6 84.599976L157.2 84.599976C153.2112 84.599976 150 87.811176 150 91.799976L150 177.599976 184.8 177.599976zM388.800006 177.599982L388.800006 91.799982C388.800006 87.811182 385.588806 84.599982 381.600006 84.599982L361.200006 84.599982C357.211206 84.599982 354.000006 87.811182 354.000006 91.799982L354.000006 177.599982 388.800006 177.599982zM94.80108 87.599958L90.00108 87.599958C88.5057 87.626898 86.99196 89.471274 86.58108 90.719952L78.00108 117.899958C76.43766 122.039988 80.36796 123.60658 81.84108 123.599977L94.80108 123.599977 94.80108 87.599958zM397.798866 87.599958L402.598866 87.599958C404.094306 87.626898 405.607986 89.471274 406.018866 90.719952L414.598866 117.899958C416.162346 122.039988 412.231986 123.60658 410.758866 123.599977L397.798866 123.599977 397.798866 87.599958z"/>
    <circle cx="121.2" cy="189.6" r="27" fill="#003F87"/>
    <circle cx="121.2" cy="189.6" r="22.2" fill="#FFF"/>
    <circle cx="324.6" cy="189.6" r="27" fill="#003F87"/>
    <circle cx="324.6" cy="189.6" r="22.2" fill="#FFF"/>
    <rect width="30" height="54" x="472.8" y="179.4" fill="#FAD214"/>
    <path fill="#FFF" d="M76.2477 256.019784C76.122 256.023456 75.7536 256.041816 75.52776 256.079736 75.60462 256.214208 75.60294 256.317996 75.59964 256.4322 75.58284 256.741806 75.49206 257.039454 75.49206 257.039454 75.33504 257.640816 74.92482 258.40299 74.72994 258.719538 74.4231 259.221336 73.86822 259.955352 73.19994 260.579508 71.50194 262.128006 69.87588 262.469574 68.74728 262.575216 69.18102 262.795932 69.58212 263.313186 69.60012 263.90943L69.60012 282.720384C69.58332 284.452584 68.16066 284.918004 67.20012 284.910504 66.2397 284.916504 64.8171 284.452584 64.8 282.720384L64.80018 271.031484C66.06108 270.686664 67.55808 269.030724 68.08386 267.96687 69.04704 266.216412 68.9058 264.690768 68.9058 264.690768 68.895 263.24208 68.34456 262.028484 68.03106 261.642726 68.03106 261.642726 67.29744 260.445858 65.61108 259.77789 64.2084 259.212264 62.9862 259.214658 62.70918 259.200822 60.51396 259.217442 59.27208 259.846956 58.479 260.54484 57.4719 261.474486 57 262.749444 57 263.958684 57.006 264.565614 57.23718 265.244778 57.35682 265.47072 57.50508 265.737516 57.76962 266.346096 58.63482 267.01881 59.50602 267.697338 60.5442 268.03158 61.34076 268.056762 61.34076 268.056762 61.63668 268.078722 62.01276 268.024002 62.01276 268.024002 62.26644 268.001982 62.64282 267.858738 62.64282 267.858738 63.46458 267.586446 63.89082 266.700702 64.18668 266.094162 64.21638 265.54998 64.19058 265.260792 64.15218 264.971964 64.06704 264.620712 63.72282 264.234624 63.31878 263.799816 62.7489 263.444562 61.93488 263.424756 61.43748 263.435856 61.32654 263.483136 61.01358 263.597112 60.87684 262.736214 61.61088 262.368954 61.61088 262.368954 62.11536 262.070298 62.71488 262.092828 62.71488 262.092828 63.25836 262.081668 63.77088 262.291014 63.77088 262.291014 64.54056 262.58145 65.20902 263.242914 65.43888 264.28299 65.76606 265.695378 65.21598 266.794266 65.21598 266.794266 64.77024 268.006422 63.59298 268.857504 62.64264 269.269044 61.20486 269.859564 59.84694 269.920704 58.79982 269.928204L58.79964 283.799784C58.80564 286.330164 60.1317 287.465784 60.1317 287.465784 60.7716 287.976864 61.37106 288.380964 62.29632 288.629664 63.13212 288.912444 64.78644 289.196784 67.1997 289.199724 69.61308 289.193724 71.26746 288.912624 72.1032 288.629664 73.0284 288.380964 73.62774 287.976804 74.2677 287.465784 74.2677 287.465784 75.59178 286.330164 75.5997 283.799784L75.5997 265.199646C75.5997 264.596832 75.5415 264.33264 75.36582 263.921718 75.10344 263.41554 74.69466 262.964172 73.88976 262.649652 75.26184 262.583226 76.06446 262.303812 76.61382 262.067688 77.84214 261.491502 78.40392 260.738034 78.67176 260.291724 78.95838 259.805316 79.13682 259.253532 79.14012 258.671628 79.13412 258.19839 79.07424 257.761476 78.73824 257.201628 78.36108 256.666296 78.12156 256.531434 77.76018 256.337646 77.16138 256.052706 76.74762 256.019784 76.24812 256.019784L76.2477 256.019784zM87.74958 269.699844C90.31782 269.699724 92.39976 271.781664 92.39982 274.349724 92.39982 276.397464 91.0593 278.203884 89.09982 278.798304L89.09982 282.059844C89.12682 284.618544 92.4756 284.786244 93.14976 284.759844 93.82398 284.786844 97.17096 284.618724 97.19982 282.059844L97.19982 267.119838C97.14462 264.958416 95.00496 263.807604 91.6197 263.759796 90.78108 263.748696 89.13036 263.92068 87.9897 264.239634 87.9897 264.239634 86.26542 264.6234 84.80976 265.529598 84.22518 265.90788 83.51202 266.44992 83.0997 267.13764 82.62318 266.780256 82.28058 266.275074 82.2597 265.58964 82.2597 264.508494 82.85736 263.712492 83.39976 263.03961 83.84604 262.597686 84.47496 261.782118 86.54976 260.699628 88.21812 259.865478 90.2868 259.277178 92.4597 259.205616L92.90994 259.199616C99.52716 259.374744 103.044 262.807998 103.19988 265.799616L103.19988 283.199544C103.19988 287.259564 98.80638 289.199664 93.59982 289.199664L92.69982 289.199664C87.49338 289.199664 83.1 287.259564 83.1 283.199544L83.09988 274.349544C83.09988 271.781484 85.18176 269.699604 87.74976 269.699604L87.74958 269.699844zM117.5997 259.199568C120.08502 259.199568 122.0997 261.214608 122.0997 263.69985L122.0997 286.199784C122.0937 288.132264 120.13044 289.199244 118.91976 289.199844 117.44586 289.193844 116.55756 288.153144 115.97976 287.561844 114.82806 286.196124 111.80196 280.206804 111.1557 278.999844 110.74182 278.197584 109.968 276.793584 108.65976 274.979844 108.34512 274.546104 107.37648 273.277764 106.7637 272.525844 106.41954 272.063064 106.30194 271.954584 106.19976 271.709844 106.3809 271.515504 106.99626 271.036944 107.93976 271.043844 108.36522 271.049844 108.79692 271.124004 109.46376 271.421544 109.9452 271.632924 110.79114 272.115924 111.7797 273.047604 112.56036 273.770064 113.57658 274.889484 114.47376 276.209544 115.01448 277.040724 115.53318 277.797324 116.09982 279.119544L116.09982 267.937146C114.30354 267.302178 113.1018 265.604766 113.0997 263.69958 113.0997 261.214332 115.11438 259.199568 117.5997 259.199568L117.5997 259.199568zM132.5997 259.199838C130.9377 259.199838 129.59976 260.537784 129.59976 262.19985L129.59976 284.699838C129.59976 287.185125 131.614479 289.199838 134.09976 289.199838 135.293255 289.199838 136.437878 288.725784 137.281818 287.881867 138.125757 287.037949 138.59988 285.893339 138.59988 284.699838 138.597406 282.794919 137.395761 281.097928 135.59976 280.463004L135.59976 262.19985C135.59976 260.537784 134.26176 259.199838 132.5997 259.199838L132.5997 259.199838zM156.4197 259.199796C156.4197 259.199796 159.5478 259.205196 161.6997 259.823784 164.21622 260.62356 166.49976 262.33794 166.49976 267.59973L166.49976 286.199724C166.49976 287.861724 165.16164 289.199844 163.49964 289.199844 161.83758 289.199844 160.49964 287.861724 160.49964 286.199724L160.49982 266.999796C160.46142 264.283512 158.72526 263.824272 157.2597 263.789754L153.83976 263.789754C152.37408 263.822514 150.63912 264.283284 150.59976 266.999796L150.59958 279.719844C150.99822 279.310824 151.64604 278.719584 152.4147 277.259784 152.4147 277.259784 152.73534 276.642804 153.02904 275.765904 152.250048 275.094739 151.801373 274.11803 151.7997 273.089784 151.799734 271.134696 153.384672 269.549811 155.33976 269.549844 157.294824 269.549845 158.879726 271.13472 158.87976 273.089784 158.879317 273.178836 158.875515 273.267839 158.86836 273.356604 158.83596 274.168284 158.82456 274.283004 158.51916 275.360664 158.19582 276.437364 157.5591 277.709664 157.5591 277.709664 155.02158 282.972804 150.85104 287.447724 150.85104 287.447724 150.19122 288.237684 149.58726 288.664584 149.15904 288.899724 148.7292 289.099584 148.36704 289.202784 147.5991 289.199484 145.9371 289.193484 144.59916 287.861364 144.59916 286.199364L144.59916 267.5994C144.59916 262.33761 146.88264 260.623272 149.3991 259.823448 151.551 259.204284 154.6791 259.199454 154.6791 259.199454L156.4197 259.199796zM176.84976 259.199796C174.28158 259.199796 172.1997 261.281592 172.1997 263.849694 172.1997 265.896192 173.54142 267.700854 175.4997 268.295004L175.4997 286.199664C175.4997 287.861664 176.8377 289.199872 178.4997 289.199872 179.26098 289.182984 179.80662 289.012584 180.5997 288.089784 181.78926 286.673604 182.4411 286.029564 183.5997 285.149784 184.12068 284.782524 185.93754 283.447764 188.0997 283.079724L188.0997 283.799844C188.0997 286.661424 190.332 289.026084 193.1889 289.190784 196.04568 289.355484 198.53514 287.262984 198.864 284.420364 199.19292 281.577684 197.24712 278.972124 194.42814 278.480124L194.09988 278.430924 194.09988 262.200912C194.09988 260.5389 192.76176 259.200894 191.0997 259.200894 189.43776 259.200894 188.09976 260.5389 188.09976 262.200912L188.09976 278.250984C186.60678 278.300184 184.22478 278.805204 181.4997 281.101044L181.49988 263.850756C181.49982 261.282534 179.41788 259.200738 176.84982 259.200792L176.84976 259.199796zM194.09982 282.899844C194.59722 282.899844 194.99976 283.302804 194.99976 283.799904 194.9997 284.296704 194.5968 284.699904 194.09982 284.699904L194.09982 282.899844zM218.10072 273.479844L218.10072 284.699844C218.10072 287.185164 216.08604 289.199844 213.60072 289.199844 211.1154 289.199844 209.10066 287.185164 209.10072 284.699844 209.10672 282.794904 210.30486 281.097984 212.10084 280.463004L212.10084 274.289844C212.10084 273.085644 211.47288 271.832964 208.41078 270.977844 205.08096 270.239484 201.50742 270.527664 200.14272 270.750024 200.08752 269.966784 200.09892 268.949964 200.09892 268.949964 200.10972 266.52243 200.63586 263.614794 201.97692 261.839922 203.67216 259.642536 206.40144 259.214064 207.99492 259.199952 210.69414 259.205352 213.14586 260.256642 214.52892 260.43 215.75892 260.606172 216.62808 260.39172 217.11456 259.265934 217.4934 259.82256 218.08494 260.489472 218.09892 262.01994 217.971 263.524842 216.89898 264.377964 216.89898 264.377964 215.68356 265.418178 214.44492 265.301946 214.44492 265.301946 213.2298 265.371084 210.5016 263.638926 207.70092 263.75991 205.40748 263.950422 205.12806 265.729752 205.04898 266.590674 207.16908 266.612754 209.26854 266.640114 211.98492 267.329922 215.51658 268.275168 218.07 270.213204 218.09892 273.479964L218.10072 273.479844zM235.7997 259.199764C233.97864 259.196838 233.11968 259.285452 232.2717 259.410108 228.85368 259.929978 227.47566 261.408174 226.53528 262.344006 226.26078 262.621764 225.37542 263.673354 224.63976 264.95997 225.3981 264.754662 227.02416 265.307502 227.7297 266.628096 226.41558 267.016266 225.5997 268.27917 225.5997 268.860024L225.5997 284.550144C225.5997 287.118204 227.68158 289.200024 230.24964 289.200024 232.81782 289.200024 234.89976 287.118264 234.89976 284.550144 234.89976 282.502344 233.55918 280.695984 231.59964 280.101564L231.59964 268.950144C231.59964 267.961926 233.24628 266.947542 234.07764 266.939988 233.56926 265.82421 232.96362 265.388838 232.43376 265.068024 232.68678 264.761124 233.74554 263.77146 235.7997 263.742048 238.12656 263.742048 239.9997 264.94626 239.9997 266.44203L239.9997 286.200084C239.9997 287.862084 241.33776 289.200024 242.9997 289.200024 244.66176 289.200024 245.9997 287.862084 245.9997 286.200084L245.9997 265.500078C245.9997 260.745594 240.14628 259.199764 235.7997 259.199764L235.7997 259.199764zM265.34964 289.199844C259.61574 289.199844 254.9997 286.657584 254.9997 283.499784L254.9997 268.295118C253.04136 267.700914 251.70174 265.896294 251.69976 263.849808 251.69976 261.281748 253.78164 259.199898 256.34976 259.199838 258.91776 259.199898 260.99964 261.281748 260.99964 263.849808L260.99964 282.179844C260.88216 283.737744 262.93974 284.999784 265.34964 284.999784 267.75954 284.999784 269.69976 283.742124 269.69976 282.179844L269.69976 252.899874C269.69976 251.237874 271.03776 249.899916 272.6997 249.899916 274.36176 249.899916 275.6997 251.237874 275.6997 252.899874L275.6997 283.499784C275.6997 286.657584 271.0836 289.199844 265.34964 289.199844L265.34964 289.199844zM298.20078 273.479844L298.20078 284.699844C298.20078 287.185164 296.18604 289.199844 293.70078 289.199844 291.215466 289.199844 289.200666 287.185164 289.200666 284.699844 289.206666 282.794904 290.404866 281.097984 292.200786 280.463004L292.200786 274.289844C292.200786 273.085644 291.572886 271.832964 288.51072 270.977844 285.18096 270.239484 281.60742 270.527664 280.24278 270.750024 280.18758 269.966784 280.19898 268.949964 280.19898 268.949964 280.21038 266.52243 280.73586 263.614794 282.07698 261.839922 283.77216 259.642536 286.5015 259.214064 288.09498 259.199952 290.794086 259.205352 293.2458 260.256642 294.62892 260.43 295.85898 260.606172 296.72808 260.39172 297.21456 259.265934 297.59334 259.82256 298.18494 260.489472 298.19898 262.01994 298.07106 263.524842 296.99898 264.377964 296.99898 264.377964 295.78362 265.418178 294.54492 265.301946 294.54492 265.301946 293.3298 265.371084 290.601606 263.638926 287.80098 263.75991 285.50748 263.950422 285.22812 265.729752 285.14898 266.590674 287.26902 266.612754 289.368666 266.640114 292.084986 267.329922 295.61658 268.275168 298.17 270.213204 298.19898 273.479964L298.20078 273.479844zM306.14976 280.199724C304.244378 280.199758 302.69982 281.744402 302.69982 283.649784 302.72142 284.157564 302.6235 285.114024 303.16806 286.199784 303.80352 287.449524 304.77462 287.979984 305.37012 288.311784 306.97674 289.113984 308.57412 289.202784 309.132 289.199912L309.732 289.199912C310.40856 289.189044 312.27078 288.987324 313.29006 288.533784 313.29006 288.533784 315.16116 287.873724 316.278 286.511784 317.42148 285.148764 317.6733 283.976364 317.7 283.079784 317.694 282.596064 317.6292 282.165084 317.4903 281.819784 317.20926 281.081724 316.71054 280.666224 316.24188 280.439724 316.07778 280.369944 315.90594 280.311804 315.71268 280.270044 315.5271 280.231644 315.32124 280.205304 315.08376 280.199784 315.13296 280.892124 315.07776 281.343624 314.97012 281.831784 314.7219 282.998244 314.00406 283.853784 314.00406 283.853784 313.55118 284.440584 313.11024 284.759784 313.11024 284.759784 312.4002 285.323604 311.70018 285.575844 311.70018 285.575844 311.0457 285.833364 310.41312 285.881664 310.25412 285.884964 309.6996 285.890964 309.3684 285.812484 308.95314 285.652764 309.372392 285.068539 309.598613 284.367912 309.60018 283.648824 309.600196 282.733806 309.236713 281.856261 308.589698 281.209246 307.942683 280.562231 307.065138 280.198764 306.15012 280.198764L306.14976 280.199724zM306.14976 259.199736C304.244411 259.19977 302.69982 260.744363 302.69982 262.649712 302.72142 263.157522 302.6235 264.114102 303.16806 265.19979 303.80352 266.449476 304.77462 266.97996 305.37012 267.31182 306.97674 268.113996 308.57412 268.202838 309.132 268.199846L309.732 268.199846C310.40856 268.188672 312.27078 267.987336 313.29006 267.533748 313.29006 267.533748 315.16116 266.873676 316.278 265.511706 317.42148 264.148794 317.6733 262.976358 317.7 262.0797 317.694 261.596034 317.6292 261.165018 317.4903 260.819772 317.20926 260.081736 316.71054 259.666224 316.24188 259.439724 316.07778 259.370022 315.90594 259.311792 315.71268 259.270092 315.5271 259.231812 315.32124 259.205286 315.08376 259.199292 315.13296 259.891554 315.07776 260.343096 314.97012 260.831274 314.7219 261.997722 314.00406 262.85331 314.00406 262.85331 313.55118 263.440002 313.11024 263.759292 313.11024 263.759292 312.4002 264.32304 311.70018 264.575418 311.70018 264.575418 311.0457 264.832884 310.41312 264.881196 310.25412 264.884466 309.6996 264.888666 309.3684 264.81204 308.95314 264.652254 309.372388 264.068034 309.598609 263.367414 309.60018 262.648332 309.600175 261.733328 309.236683 260.855803 308.589671 260.208804 307.942658 259.561806 307.065124 259.19835 306.15012 259.19835L306.14976 259.199736zM331.319886 259.199539C335.835426 259.172598 342.285906 261.00651 342.299706 265.73997L342.299706 286.199904C342.299706 287.861964 340.961826 289.199844 339.299886 289.199844 337.637826 289.199844 336.299826 287.861964 336.299826 286.199904L336.299826 282.749604C336.277626 282.412464 336.024786 279.954564 333.800946 277.467564 333.035821 278.290359 331.963275 278.758329 330.839706 278.759604 328.602976 278.75957 326.789767 276.946334 326.789766 274.709604 326.789767 272.472874 328.602976 270.659638 330.839706 270.659604 331.308059 270.660858 331.772645 270.743341 332.212806 270.903384 333.080526 271.130664 334.896126 272.037084 336.299826 273.839664L336.299826 266.459976C336.262026 264.760584 334.805826 263.521512 331.679826 263.399832L331.200006 263.399832C329.200686 263.449272 326.897346 263.901618 325.050006 264.83988 324.220746 265.253856 323.505726 265.7934 323.166786 266.459976 322.828566 266.322162 322.618266 266.165148 322.439946 265.79379 322.303266 265.505016 322.203366 265.093674 322.200066 264.539946 322.206066 263.745162 322.336806 262.817172 323.280126 261.767874 324.080406 260.953422 325.138326 260.24064 327.375126 259.649826 328.269486 259.424226 329.776686 259.202952 331.320126 259.199539L331.319886 259.199539zM355.799766 265.64991L355.799766 286.199844C355.799766 287.861904 357.138066 289.199844 358.799766 289.199844 360.461646 289.199844 361.799466 287.861904 361.799466 286.199844L361.799466 265.64991C361.793466 261.49452 357.811446 259.190952 353.729706 259.199926L353.204946 259.199926C350.877066 259.199926 348.866766 259.894272 347.610306 260.684892 347.192706 260.952306 346.719486 261.32139 346.319886 261.779958 345.916266 262.201578 345.303606 263.26038 345.299946 264.08991 345.305946 264.80052 345.631926 265.259868 345.911706 265.541934 346.036866 265.684116 346.231986 265.846608 346.391526 265.889964 346.369326 265.829598 346.418526 265.735194 346.451646 265.656138 346.621446 265.300884 346.862106 264.924672 347.330706 264.480078 347.796606 264.001344 348.662526 263.44122 349.025466 263.286078 349.656546 263.018166 350.114526 262.767258 351.401646 262.770036 352.326486 262.753416 353.432586 262.958886 354.077646 263.280066 354.667446 263.57265 355.729446 264.191382 355.799766 265.650024L355.799766 265.64991z"/>
    <circle cx="344.85" cy="253.35" r="4.05" fill="#FFF"/>
    <circle cx="344.85" cy="253.35" r="1" fill="#003F87"/>
    <path fill="#FFF" d="M405.299646 265.64991L405.299646 286.199844C405.299646 287.861904 406.638006 289.199844 408.299826 289.199844 409.961886 289.199844 411.299526 287.861904 411.299526 286.199844L411.299526 265.64991C411.293526 261.49452 407.311566 259.190952 403.229766 259.199926L402.704766 259.199926C400.377006 259.199926 398.366766 259.894272 397.109706 260.684892 396.692706 260.952306 396.219606 261.32139 395.820066 261.779958 395.416446 262.201578 394.803426 263.26038 394.799706 264.08991 394.805706 264.80052 395.132346 265.259868 395.411886 265.541934 395.536806 265.684116 395.732166 265.846608 395.891706 265.889964 395.869506 265.829598 395.918706 265.735194 395.951766 265.656138 396.121206 265.300884 396.362166 264.924672 396.830766 264.480078 397.296606 264.001344 398.162586 263.44122 398.525586 263.286078 399.156246 263.018166 399.613746 262.767258 400.901526 262.770036 401.826246 262.753416 402.932586 262.958886 403.577526 263.280066 404.167446 263.57265 405.229326 264.191382 405.299646 265.650024L405.299646 265.64991zM372.150006 259.199682C369.581646 259.199622 367.499946 261.281532 367.499946 263.849634 367.499946 265.89741 368.840226 267.703764 370.800306 268.298172L370.800306 286.199784C370.800306 287.861784 372.137886 289.199844 373.799826 289.199844L373.799826 289.199844C375.461586 289.199844 376.799886 287.861964 376.799886 286.199904L376.799886 280.919904C376.827486 280.346664 377.256546 278.190984 379.140066 275.021844 380.352546 272.871804 382.911606 269.473704 384.383706 267.989844 384.487026 267.885552 385.015866 267.363132 385.271766 267.119838 385.331166 267.062658 385.368966 267.02544 385.439466 266.984796 385.519026 266.940936 385.582986 266.940936 385.638126 266.968176 385.688526 266.995416 385.797666 267.053232 385.799826 267.238254L385.799826 286.198164C385.799826 287.860164 387.138186 289.198284 388.800006 289.198284 390.461946 289.198284 391.799586 287.860164 391.799586 286.198164L391.799586 263.098428C391.771986 262.208826 391.721046 259.210104 389.354766 259.198146 388.523706 259.209534 387.518826 259.533822 385.997406 260.518368 383.773506 262.050072 382.251966 263.871852 380.471646 266.09826L376.799886 271.018224 376.799886 263.84811C376.799886 261.280056 374.718006 259.198146 372.150066 259.198146L372.150006 259.199682zM425.700126 259.199568C428.185026 259.199568 430.199706 261.214608 430.199706 263.69985L430.199706 286.199784C430.193706 288.132264 428.230626 289.199244 427.019586 289.199844 425.545866 289.193844 424.657446 288.153144 424.079586 287.561844 422.928546 286.196124 419.902446 280.206804 419.255586 278.999844 418.841946 278.197584 418.067826 276.793584 416.759646 274.979844 416.445126 274.546104 415.476426 273.277764 414.863586 272.525844 414.519426 272.063064 414.402186 271.954584 414.299766 271.709844 414.480906 271.515504 415.096446 271.036944 416.039586 271.043844 416.465466 271.049844 416.897106 271.124004 417.563826 271.421544 418.045266 271.632924 418.891446 272.115924 419.879886 273.047604 420.660246 273.770064 421.676646 274.889484 422.573946 276.209544 423.114366 277.040724 423.633486 277.797324 424.199886 279.119544L424.199886 267.937146C422.403786 267.302178 421.202046 265.604766 421.199826 263.69958 421.199766 261.214332 423.214386 259.199568 425.700126 259.199568L425.700126 259.199568zM153.4185 246.599796C153.17256 246.603396 152.7675 246.627036 152.69856 246.627036 147.47628 246.94548 145.0758 250.30446 144.59856 254.096928 153.36906 252.841704 161.89746 255.059904 166.49976 256.196988 165.42696 253.94643 162.35988 249.804954 158.99856 247.977042 158.14884 247.5285 156.76818 246.762852 154.19862 246.627036 154.10694 246.621036 153.66888 246.599796 153.4185 246.599796zM153.14838 249.989862C154.88814 250.017102 155.74176 250.346112 156.10638 250.452096 157.84674 251.02989 158.77584 251.773974 159.44838 252.330132 157.7226 251.644224 155.59278 251.331054 153.32832 251.22012 152.69238 251.18736 150.17292 251.13834 148.94832 251.382138 149.49348 250.81896 150.65988 250.04262 153.14838 249.99009L153.14838 249.989862zM72.4497 247.199904C71.2032 247.199904 70.19964 248.203314 70.19964 249.449886L70.19964 253.949838C70.19964 255.19635 71.2032 256.199886 72.4497 256.199886 73.6962 256.199886 74.69976 255.19635 74.69976 253.949838L74.69976 249.449886C74.69976 248.203314 73.6962 247.199904 72.4497 247.199904z"/>
    <rect width="30" height="54" x="472.8" y="257.4" fill="#FAD214"/>
    <rect width="30" height="54" x="472.8" y="101.4" fill="#FAD214"/>
    <rect width="30" height="54" x="472.8" y="23.4" fill="#FAD214"/>
  </g>
</svg>
