<?xml version="1.0" encoding="UTF-8" standalone="no"?>
<svg
   xmlns:dc="http://purl.org/dc/elements/1.1/"
   xmlns:cc="http://creativecommons.org/ns#"
   xmlns:rdf="http://www.w3.org/1999/02/22-rdf-syntax-ns#"
   xmlns:svg="http://www.w3.org/2000/svg"
   xmlns="http://www.w3.org/2000/svg"
   xmlns:sodipodi="http://sodipodi.sourceforge.net/DTD/sodipodi-0.dtd"
   xmlns:inkscape="http://www.inkscape.org/namespaces/inkscape"
   id="Nederlands_verkeersbord_F7"
   width="310.5625"
   height="413.76874"
   viewBox="0 0 310.5625 413.76874"
   version="1.1"
   inkscape:version="0.48.2 r9819"
   sodipodi:docname="AJAX1.svg">
  <metadata
     id="metadata9">
    <rdf:RDF>
      <cc:Work
         rdf:about="">
        <dc:format>image/svg+xml</dc:format>
        <dc:type
           rdf:resource="http://purl.org/dc/dcmitype/StillImage" />
        <dc:title />
      </cc:Work>
    </rdf:RDF>
  </metadata>
  <defs
     id="defs7" />
  <sodipodi:namedview
     pagecolor="#ffffff"
     bordercolor="#666666"
     borderopacity="1"
     objecttolerance="10"
     gridtolerance="10"
     guidetolerance="10"
     inkscape:pageopacity="0"
     inkscape:pageshadow="2"
     inkscape:window-width="1280"
     inkscape:window-height="1004"
     id="namedview5"
     showgrid="false"
     fit-margin-top="0.3"
     fit-margin-left="0"
     fit-margin-right="0"
     fit-margin-bottom="0"
     inkscape:zoom="1.2727732"
     inkscape:cx="522.26958"
     inkscape:cy="-50.251965"
     inkscape:window-x="-8"
     inkscape:window-y="-8"
     inkscape:window-maximized="1"
     inkscape:current-layer="Nederlands_verkeersbord_F7" />
  <path
     inkscape:connector-curvature="0"
     d="m 31.709118,412.77659 247.148652,0 c 16.8835,0 30.6981,-13.81457 30.6981,-30.69812 l 0,-350.08447 c 0,-16.88355 -13.8146,-30.69813 -30.6981,-30.69813 l -247.148652,0 c -16.88355,0 -30.6981196,13.81458 -30.6981196,30.69813 l 0,350.08447 c 0,16.88355 13.8145696,30.69812 30.6981196,30.69812 z"
     style="fill:#ffffff;fill-opacity:1;fill-rule:evenodd;stroke:#000000;stroke-width:2;stroke-linecap:butt;stroke-linejoin:miter;stroke-miterlimit:8.52033329;stroke-opacity:1;stroke-dasharray:none"
     id="path4586" />
  <path
     inkscape:connector-curvature="0"
     d="m 32.101068,407.68108 246.364702,0 c 14.2983,0 25.9946,-11.69631 25.9946,-25.99457 l 0,-349.17129 c 0,-14.29827 -11.6963,-25.99458 -25.9946,-25.99458 l -246.364702,0 c -14.29826,0 -25.9945696,11.69631 -25.9945696,25.99458 l 0,349.17129 c 0,14.29826 11.6963096,25.99457 25.9945696,25.99457"
     style="fill:#000000;fill-opacity:1;fill-rule:evenodd;stroke:none"
     id="path4590" />
  <path
     inkscape:connector-curvature="0"
     d="m 32.101068,397.36498 246.364702,0 c 8.6232,0 15.6743,-7.05531 15.6743,-15.6743 l 0,-349.1713 c 0,-8.61899 -7.0511,-15.6743 -15.6743,-15.6743 l -246.364702,0 c -8.62315,0 -15.6743,7.05531 -15.6743,15.6743 l 0,349.1713 c 0,8.61899 7.05115,15.6743 15.6743,15.6743"
     style="fill:#ffffff;fill-opacity:1;fill-rule:evenodd;stroke:none"
     id="path4594" />
  <path
     inkscape:connector-curvature="0"
     d="m 59.379958,326.94945 c -18.26793,0 -23.86381,-19.18528 -23.86381,-42.80306 0,-23.61363 5.43326,-42.703 24.02642,-42.703 18.68074,0 23.5344,19.08937 23.5344,42.703 0,26.24893 -7.15955,42.80306 -23.69701,42.80306 z m 0,-11.8631 c 9.38206,0 12.25923,-13.66028 12.25923,-30.93996 0,-17.35892 -2.63115,-31.26522 -12.25923,-31.26522 -9.62809,0 -12.18001,13.9063 -12.18001,31.26522 0,17.27968 2.14328,30.93996 12.18001,30.93996"
     style="fill:#000000;fill-opacity:1;fill-rule:evenodd;stroke:none"
     id="path4598" />
  <path
     inkscape:connector-curvature="0"
     d="m 102.82934,243.09047 11.27099,0 21.80809,47.56081 0,-47.56081 11.92982,0 0,82.28279 -9.29868,0 -24.43923,-54.05737 0,54.05737 -11.27099,0 0,-82.28279"
     style="fill:#000000;fill-opacity:1;fill-rule:evenodd;stroke:none"
     id="path4602" />
  <path
     inkscape:connector-curvature="0"
     d="m 173.42834,243.09047 11.6838,0 0,71.42462 29.45973,0 0,10.85817 -41.14353,0 0,-82.28279"
     style="fill:#000000;fill-opacity:1;fill-rule:evenodd;stroke:none"
     id="path4606" />
  <path
     inkscape:connector-curvature="0"
     d="m 225.18397,243.09047 12.7555,0 13.3267,29.29289 13.0014,-29.29289 12.3426,0 -19.1727,44.92549 0,37.3573 -11.9298,0 0,-37.3573 -20.3237,-44.92549"
     style="fill:#000000;fill-opacity:1;fill-rule:evenodd;stroke:none"
     id="path4610" />
  <path
     inkscape:connector-curvature="0"
     d="m 65.396988,128.01631 0,-22.54615 c 0,-1.71379 1.88474,-3.76534 3.48178,-3.76534 l 35.330782,0 c 1.71379,0 4.62432,1.02577 4.62432,2.62281 l 0,22.83386 c 0,1.25511 -1.3135,3.25246 -2.62698,3.25246 l -37.786792,0 c -1.25512,0 -3.02311,-1.3135 -3.02311,-2.39764 z m 50.112742,0 0,-22.54615 c 0,-1.71379 2.05571,-3.76534 3.54017,-3.76534 l 38.75835,0 c 1.76799,0 4.50756,1.02577 4.50756,2.62281 l 0,22.83386 c 0,1.25511 -1.02578,3.25246 -2.45602,3.25246 l -41.43954,0 c -1.02577,0 -2.91052,-1.3135 -2.91052,-2.39764 z m 53.36935,0 0,-22.54615 c 0,-1.71379 1.88476,-3.76534 3.4818,-3.76534 l 38.64159,0 c 1.7722,0 4.6827,1.02577 4.6827,2.62281 l 0,22.83386 c 0,1.25511 -1.2009,3.25246 -2.627,3.25246 l -41.43952,0 c -1.02578,0 -2.73957,-1.3135 -2.73957,-2.39764 z m 54.34089,0 0,-22.54615 c 0,-1.71379 2.0516,-3.76534 3.4818,-3.76534 l 41.1518,0 c 1.7138,0 4.6244,1.02577 4.6244,2.62281 l 0,22.83386 c 0,1.25511 -1.1426,3.25246 -2.4561,3.25246 l -43.7204,0 c -1.2009,0 -3.0815,-1.3135 -3.0815,-2.39764 z m -186.419522,28.13785 0,-24.14318 3.36921,-29.45134 17.00863,0 0,53.59452 -20.37784,0 z m 52.56876,15.12806 c 5.9378,0 10.61632,-4.51173 10.61632,-10.33278 0,-5.82105 -4.67852,-10.72891 -10.61632,-10.72891 -5.93364,0 -10.89988,4.90786 -10.89988,10.72891 0,5.82105 4.96624,10.33278 10.89988,10.33278 z m 127.454362,0 c 5.9378,0 10.733,-4.51173 10.733,-10.33278 0,-5.82105 -4.7952,-10.72891 -10.733,-10.72891 -5.9337,0 -10.729,4.90786 -10.729,10.72891 0,5.82105 4.7953,10.33278 10.729,10.33278 z m 21.0617,-9.59056 c -7.4181,-29.96423 -40.81,-20.20688 -39.0962,1.99734 l -88.92943,0 c -11.300182,-31.10675 -41.552132,-22.94644 -43.149172,0 l -37.61582,0 0,-39.0419 2.51022,-25.28571 c 0,0 6.22135,-8.10194 10.73309,-8.10194 l 233.334012,0 c 2.4561,0 5.0789,2.73957 5.0789,5.24979 l 0,57.02211 -42.8656,8.16031"
     style="fill:#000000;fill-opacity:1;fill-rule:evenodd;stroke:none"
     id="path4614" />
</svg>
