<svg xmlns="http://www.w3.org/2000/svg" width="604" height="554" viewBox="0 0 604 554">
  <g fill="none">
    <path fill="#000" d="M52,0 L552,0 C580.718807,-5.27555926e-15 604,23.281193 604,52 L604,502 C604,530.718807 580.718807,554 552,554 L52,554 C23.281193,554 3.51703951e-15,530.718807 0,502 L0,52 C-3.51703951e-15,23.281193 23.281193,5.27555926e-15 52,0 Z"/>
    <path fill="#FFF" d="M52,2 L552,2 C579.614237,2 602,24.3857625 602,52 L602,502 C602,529.614237 579.614237,552 552,552 L52,552 C24.3857625,552 2,529.614237 2,502 L2,52 C2,24.3857625 24.3857625,2 52,2 Z"/>
    <path fill="#1C1C1C" d="M181.875488,381.018555 C173.364746,381.018555 166.597168,374.353516 166.597168,365.842773 L166.597168,296.936523 C166.597168,275.198242 169.263184,263.508789 179.312012,250.383789 L190.38623,237.771484 C194.282715,219.314453 201.050293,200.139648 204.741699,192.34668 C211.509277,177.786133 224.634277,168.865234 241.450684,166.609375 C251.294434,165.276367 271.187012,164.558594 301.94873,164.558594 C332.812988,164.558594 352.705566,165.276367 362.549316,166.609375 C379.365723,168.865234 392.490723,177.786133 399.258301,192.34668 C402.847168,200.139648 409.717285,219.314453 413.61377,237.771484 L424.687988,250.383789 C434.736816,263.508789 437.402832,275.198242 437.402832,296.936523 L437.402832,365.842773 C437.402832,374.353516 430.635254,381.018555 422.124512,381.018555 L408.486816,381.018555 C399.976074,381.018555 393.311035,374.353516 393.311035,365.842773 L393.311035,345.232422 C370.137207,346.873047 333.120605,348.103516 301.94873,348.103516 C270.776855,348.103516 233.862793,346.873047 210.688965,345.129883 L210.688965,365.842773 C210.688965,374.353516 204.023926,381.018555 195.513184,381.018555 L181.875488,381.018555 Z M221.353027,237.15625 C240.937988,235.413086 259.497559,235.00293 301.94873,235.00293 C344.502441,235.00293 363.062012,235.413086 382.646973,237.15625 C384.287598,237.258789 383.877441,238.489258 383.467285,236.643555 C380.186035,221.160156 376.39209,209.983398 373.520996,204.958984 C370.239746,199.011719 365.42041,196.038086 358.242676,195.115234 C350.039551,194.089844 331.58252,193.679688 301.94873,193.679688 C272.314941,193.679688 253.85791,194.089844 245.757324,195.115234 C238.57959,196.038086 233.657715,199.011719 230.479004,204.958984 C227.710449,209.983398 223.813965,221.160156 220.532715,236.643555 L220.225098,237.566406 C220.122559,237.771484 220.122559,237.463867 221.353027,237.15625 Z M213.560059,309.856445 C223.608887,309.856445 231.299316,302.268555 231.299316,292.219727 C231.299316,282.068359 223.608887,274.480469 213.560059,274.480469 C203.408691,274.480469 195.820801,282.068359 195.820801,292.219727 C195.820801,302.268555 203.408691,309.856445 213.560059,309.856445 Z M390.439941,309.856445 C400.48877,309.856445 408.179199,302.268555 408.179199,292.219727 C408.179199,282.068359 400.48877,274.480469 390.439941,274.480469 C380.288574,274.480469 372.700684,282.068359 372.700684,292.219727 C372.700684,302.268555 380.288574,309.856445 390.439941,309.856445 Z M271.597168,304.524414 L332.402832,304.524414 C339.683105,304.524414 344.810059,299.397461 344.810059,292.219727 C344.810059,284.939453 339.683105,279.8125 332.402832,279.8125 L271.597168,279.8125 C264.316895,279.8125 259.189941,284.939453 259.189941,292.219727 C259.189941,299.397461 264.316895,304.524414 271.597168,304.524414 Z"/>
  </g>
</svg>
