<?xml version="1.0" encoding="UTF-8" standalone="no"?>
<!-- Generator: Adobe Illustrator 12.0.1, SVG Export Plug-In  -->

<svg
   xmlns:dc="http://purl.org/dc/elements/1.1/"
   xmlns:cc="http://creativecommons.org/ns#"
   xmlns:rdf="http://www.w3.org/1999/02/22-rdf-syntax-ns#"
   xmlns:svg="http://www.w3.org/2000/svg"
   xmlns="http://www.w3.org/2000/svg"
   xmlns:sodipodi="http://sodipodi.sourceforge.net/DTD/sodipodi-0.dtd"
   xmlns:inkscape="http://www.inkscape.org/namespaces/inkscape"
   version="1.1"
   width="287.99649"
   height="287.99426"
   viewBox="0 -0.006 287.99649 287.99426"
   enable-background="new 0 -0.006 290 290"
   xml:space="preserve"
   id="svg2"
   inkscape:version="0.48.2 r9819"
   sodipodi:docname="AJAX1.svg"><metadata
   id="metadata46"><rdf:RDF><cc:Work
       rdf:about=""><dc:format>image/svg+xml</dc:format><dc:type
         rdf:resource="http://purl.org/dc/dcmitype/StillImage" /></cc:Work></rdf:RDF></metadata><sodipodi:namedview
   pagecolor="#ffffff"
   bordercolor="#666666"
   borderopacity="1"
   objecttolerance="10"
   gridtolerance="10"
   guidetolerance="10"
   inkscape:pageopacity="0"
   inkscape:pageshadow="2"
   inkscape:window-width="1280"
   inkscape:window-height="1004"
   id="namedview44"
   showgrid="false"
   fit-margin-top="0"
   fit-margin-left="0"
   fit-margin-right="0"
   fit-margin-bottom="0"
   inkscape:zoom="2.3017545"
   inkscape:cx="130.774"
   inkscape:cy="151.11771"
   inkscape:window-x="-8"
   inkscape:window-y="-8"
   inkscape:window-maximized="1"
   inkscape:current-layer="svg2" />
<defs
   id="defs4">
</defs>
<path
   d="M 4.11975,134.0005 134.00275,4.1174989 c 5.498,-5.498 14.491,-5.498 19.989,0 L 283.87375,134.0005 c 5.497,5.495 5.497,14.487 0,19.986 l -129.882,129.876 c -5.498,5.501 -14.491,5.501 -19.989,0 L 4.11975,153.9865 c -5.493,-5.499 -5.493,-14.491 0,-19.986 z"
   id="path6"
   style="fill:#ffd033;stroke:none;fill-opacity:1"
   inkscape:connector-curvature="0" />

<path
   clip-rule="evenodd"
   d="M 7.24975,136.0615 136.07075,7.2524989 c 4.36,-4.36 11.492,-4.36 15.856,0 L 280.74075,136.0615 c 4.361,4.367 4.361,11.498 0,15.86 l -128.813,128.807 c -4.364,4.363 -11.497,4.363 -15.856,0 L 7.24975,151.9225 c -4.354,-4.363 -4.354,-11.493 0,-15.861"
   id="path10"
   inkscape:connector-curvature="0"
   style="fill:#000000;fill-rule:evenodd;stroke:none" />
<path
   clip-rule="evenodd"
   d="m 11.27675,140.0315 128.76,-128.751001 c 2.176,-2.1790001 5.747,-2.1790001 7.925,0 l 128.755,128.751001 c 2.178,2.176 2.178,5.743 0,7.919 l -128.755,128.757 c -2.178,2.18 -5.749,2.18 -7.925,0 l -128.76,-128.757 c -2.177,-2.177 -2.177,-5.743 0,-7.919"
   id="path12"
   inkscape:connector-curvature="0"
   style="fill:#ffd033;fill-rule:evenodd;stroke:none;fill-opacity:1" />

<path
   d="m 64.17275,113.5035 c -0.523,-3.457 -1.886,-5.081 -4.19,-5.081 -4.085,0 -5.552,3.195 -5.552,12.31 0,10.109 1.729,14.195 6.023,14.195 2.934,0 3.719,-2.462 3.719,-5.081 h 5.029 c -0.105,5.814 -3.824,10.004 -8.748,10.004 -7.49,0 -10.843,-6.023 -10.843,-18.961 0,-11.367 3.563,-17.391 10.477,-17.391 2.828,0 5.29,1.257 6.914,3.562 1.31,1.729 1.833,3.248 2.2,6.443 h -5.029 z"
   id="path16"
   inkscape:connector-curvature="0"
   style="fill:#000000;stroke:none" />
<path
   d="m 91.40975,139.2225 v -15.871 h -9.638 v 15.871 h -5.028 v -35.095 h 5.028 v 14.3 h 9.638 v -14.3 h 5.029 v 35.095 h -5.029 z"
   id="path18"
   inkscape:connector-curvature="0"
   style="fill:#000000;stroke:none" />
<path
   d="m 104.60875,139.2225 v -35.095 h 4.924 v 35.095 h -4.924 z"
   id="path20"
   inkscape:connector-curvature="0"
   style="fill:#000000;stroke:none" />
<path
   d="m 117.80975,139.2225 v -35.095 h 5.028 v 30.433 h 12.833 v 4.662 h -17.861 z"
   id="path22"
   inkscape:connector-curvature="0"
   style="fill:#000000;stroke:none" />
<path
   d="m 155.78475,137.5985 c -1.257,1.153 -2.985,1.624 -4.924,1.624 h -9.743 v -35.095 h 8.958 c 2.985,0 4.452,0.367 5.709,1.362 2.096,1.466 3.562,4.19 4.19,7.752 0.472,2.567 0.838,5.657 0.838,8.381 0,8.119 -1.623,13.305 -5.028,15.976 z m -0.89,-24.985 c -0.838,-2.462 -2.305,-3.562 -4.557,-3.562 h -4.19 v 25.248 h 4.19 c 2.985,0 4.557,-2.357 5.081,-5.028 0.209,-2.252 0.471,-4.714 0.471,-7.386 0,-3.982 -0.367,-7.806 -0.995,-9.272 z"
   id="path24"
   inkscape:connector-curvature="0"
   style="fill:#000000;stroke:none" />
<path
   d="m 182.76075,139.2225 -4.662,-16.5 h -4.818 v 16.5 h -5.028 v -35.095 h 10.476 c 5.5,0 9.219,3.719 9.219,9.376 0,4.19 -1.729,7.229 -5.028,8.485 l 5.028,17.233 h -5.187 z m -4.295,-30.171 h -5.186 v 8.853 h 5.186 c 2.934,0 4.557,-1.571 4.557,-4.4 -0.001,-2.725 -1.834,-4.453 -4.557,-4.453 z"
   id="path26"
   inkscape:connector-curvature="0"
   style="fill:#000000;stroke:none" />
<path
   d="m 194.38975,139.2225 v -35.095 h 16.499 v 4.924 h -11.471 v 8.853 h 7.28 v 4.819 h -7.28 v 11.576 h 12.833 v 4.924 h -17.861 z"
   id="path28"
   inkscape:connector-curvature="0"
   style="fill:#000000;stroke:none" />
<path
   d="m 234.56475,139.2225 -10.843,-23.519 v 23.519 h -5.028 v -35.095 h 5.028 l 9.638,21.057 v -21.057 h 5.028 v 35.095 h -3.823 z"
   id="path30"
   inkscape:connector-curvature="0"
   style="fill:#000000;stroke:none" />
<path
   d="m 139.93975,184.9055 -2.462,-9.586 h -7.542 l -2.305,9.586 h -5.081 l 8.748,-35.095 h 4.924 l 8.748,35.095 h -5.03 z m -6.285,-24.619 -2.462,10.109 h 5.029 l -2.567,-10.109 z"
   id="path32"
   inkscape:connector-curvature="0"
   style="fill:#000000;stroke:none" />
<path
   d="m 159.05875,154.4725 v 30.434 h -5.08 v -30.434 h -6.391 v -4.661 h 17.861 v 4.661 h -6.39 z"
   id="path34"
   inkscape:connector-curvature="0"
   style="fill:#000000;stroke:none" />
<path
   d="m 107.07175,213.9435 h -5.447 v 15.399 h -5.029 v -35.095 h 10.476 c 5.5,0 9.219,3.929 9.219,9.848 10e-4,6.39 -3.3,9.848 -9.219,9.848 z m -0.261,-14.771 h -5.186 v 9.952 h 5.186 c 2.933,0 4.557,-1.833 4.557,-5.028 0,-2.934 -1.834,-4.924 -4.557,-4.924 z"
   id="path36"
   inkscape:connector-curvature="0"
   style="fill:#000000;stroke:none" />
<path
   d="m 122.20875,229.3435 v -35.095 h 5.029 v 30.433 h 12.833 v 4.662 h -17.862 z"
   id="path38"
   inkscape:connector-curvature="0"
   style="fill:#000000;stroke:none" />
<path
   d="m 160.76175,229.3435 -2.461,-9.586 h -7.543 l -2.305,9.586 h -5.082 l 8.748,-35.095 h 4.924 l 8.748,35.095 h -5.029 z m -6.285,-24.62 -2.463,10.109 h 5.029 l -2.566,-10.109 z"
   id="path40"
   inkscape:connector-curvature="0"
   style="fill:#000000;stroke:none" />
<path
   d="m 182.65575,213.4725 v 15.871 h -5.027 v -15.871 l -8.645,-19.224 h 5.291 l 5.92,12.676 5.814,-12.676 h 5.395 l -8.748,19.224 z"
   id="path42"
   inkscape:connector-curvature="0"
   style="fill:#000000;stroke:none" />
</svg>