<svg xmlns="http://www.w3.org/2000/svg" width="24" height="24">
    <path fill="#fffffe" d="M2 3.529h19.612l.04.044c-.413-.028-.827-.017-1.24-.019H3.189c-.414.002-.828-.008-1.241.018l.051-.042zM1.72 3.618c.042-.054.095-.066.159-.037a.133.133 0 0 1-.159.037zM21.722 3.582c.061-.026.114-.018.16.027-.058.036-.112.028-.16-.027zM1.532 3.673c.037-.059.089-.075.156-.047a.143.143 0 0 1-.156.047zM21.911 3.633c.059-.03.113-.023.161.022-.06.036-.114.029-.161-.022zM2.081 3.738c.244-.03.49-.018.735-.019h18.162c.408-.003.835.011 1.208.195.791.358 1.35 1.228 1.279 2.104-.001 4.115.001 8.23-.001 12.344-.082 1.06-1.037 1.983-2.113 1.976-6.335.006-12.668.001-19.004.003-1.159.061-2.23-.965-2.221-2.122C.131 14.043.125 9.867.129 5.69c.085-.996.939-1.897 1.953-1.953zm-.002.373c-.922.075-1.656.995-1.587 1.906.004 4.098 0 8.196.005 12.294.042.652.5 1.252 1.096 1.507.352.157.75.164 1.129.157 6.21-.001 12.419-.001 18.63-.004.947-.006 1.739-.873 1.746-1.801-.002-4.145.001-8.29-.005-12.435-.066-.916-.923-1.662-1.835-1.65-6.147-.002-12.295-.001-18.442-.001-.246.004-.493-.015-.737.027zM1.008 3.913l.098-.062-.098.062zM22.544 3.9zM22.681 4.004l.107.049-.107-.049zM.712 4.113l.102-.067-.102.067zM.566 4.297l.064-.103-.064.103zM.28 4.678l.067-.098-.067.098z"/>
    <path fill="#fffffe" d="M2.131 4.775c.164-.023.331-.02.497-.02 6.227.001 12.454.001 18.68.003.576-.005 1.093.495 1.117 1.067.001 4.099-.002 8.199-.001 12.299.035.557-.421 1.112-.981 1.16-.155.023-.311.019-.467.018l-18.678-.001c-.587.012-1.121-.499-1.134-1.084-.001-4.098.002-8.197.001-12.295-.03-.548.416-1.088.966-1.148zm10.849 5.494c-.222.292.089.76.444.679.515-.114 1.01-.31 1.523-.434.001 1.712.002 3.424-.001 5.136-2.007-1.357-4.007-2.725-6.007-4.091.412-.334.852-.636 1.252-.985.274-.244.067-.745-.295-.741-1.904-.071-3.809-.114-5.713-.172.654 1.787 1.31 3.575 1.967 5.36.126.358.661.365.828.035.173-.494.342-.99.512-1.486 2.317 1.552 4.623 3.12 6.934 4.68a.196.196 0 0 0 .123.045c.955.002 1.91-.004 2.865.001.024-2.596.001-5.194.008-7.791.498.138.988.307 1.49.432.359.116.7-.358.481-.66-1.066-1.581-2.136-3.16-3.206-4.738-1.072 1.573-2.137 3.152-3.204 4.729zM0 5.227l.035-.017c.041.064.03.111-.035.142v-.125zM23.569 5.251c.049.044.059.098.03.16-.049-.047-.06-.101-.03-.16zM23.612 5.479l.04.052v13.047l-.044.032c.014-.145.023-.292.021-.438-.013-4.23.018-8.463-.016-12.692zM23.574 18.8c-.036-.059-.027-.113.026-.159.028.059.018.112-.026.159zM.083 18.99c.08.11.142.232.179.364a.933.933 0 0 1-.179-.364zM23.313 19.367l.065-.097-.065.097zM.762 19.987l.107.054-.107-.054zM.915 20.084l.1.061-.1-.061zM22.496 20.197l.097-.061-.097.061zM1.119 20.209c.128.042.254.094.364.174a.786.786 0 0 1-.364-.174zM1.49 20.389c.058-.036.109-.025.152.035a.127.127 0 0 1-.152-.035zM21.959 20.416c.048-.05.102-.059.161-.025-.047.046-.101.054-.161.025zM21.779 20.471c.037-.064.085-.076.145-.036l-.017.036h-.128z"/>
    <path fill="#1a1919" d="M1.88 3.58l.071-.008c.413-.026.827-.015 1.241-.018h17.223c.413.002.827-.009 1.24.019l.069.008c.049.054.103.062.16.027l.029.025c.047.051.101.058.161.022l.124.066.107.037c.08.046.16.092.24.141l.1.062.037.042.107.049c.267.226.473.517.633.825l.037.104.069.127.016.113.025.028c-.03.059-.02.114.03.16a.814.814 0 0 1 .013.068c.034 4.23.003 8.462.016 12.692.002.146-.007.292-.021.438l-.008.032c-.053.046-.062.099-.026.159l-.064.171a6.096 6.096 0 0 0-.03.109 6.992 6.992 0 0 1-.102.191l-.065.097c-.17.309-.397.606-.719.768l-.097.061a2.97 2.97 0 0 1-.376.194c-.059-.034-.113-.025-.161.025l-.035.019c-.061-.04-.109-.028-.145.036H1.781a3.995 3.995 0 0 0-.096-.042l-.042-.005c-.042-.059-.093-.071-.152-.035l-.008-.005a1.285 1.285 0 0 0-.364-.174 3.56 3.56 0 0 1-.103-.064l-.1-.061-.045-.043-.107-.054c-.207-.175-.364-.401-.502-.632a1.095 1.095 0 0 0-.179-.364A16.66 16.66 0 0 1 0 18.792V5.352c.065-.031.076-.078.035-.142l.023-.034.02-.113c.059-.133.123-.263.2-.386l.067-.098c.061-.103.132-.2.22-.282l.064-.103.083-.081.102-.067a.949.949 0 0 1 .194-.132l.098-.062c.092-.057.188-.107.287-.15l.112-.025.028-.004a.14.14 0 0 0 .156-.047l.033-.008c.061.025.114.012.159-.037zm.201.158C1.067 3.794.213 4.695.128 5.691.124 9.867.13 14.043.125 18.22c-.008 1.157 1.062 2.182 2.221 2.122 6.335-.002 12.669.004 19.004-.003 1.076.006 2.031-.916 2.113-1.976.002-4.115 0-8.23.001-12.344.071-.875-.488-1.746-1.279-2.104-.373-.184-.8-.198-1.208-.195H2.815c-.245.002-.491-.011-.735.019z"/>
    <path fill="#1a1919" d="M2.079 4.111c.244-.042.491-.023.737-.027 6.147.001 12.295-.001 18.442.001.912-.012 1.77.734 1.835 1.65.006 4.145.002 8.291.005 12.435-.006.928-.8 1.796-1.746 1.801-6.21.003-12.42.002-18.63.004-.38.006-.778-.001-1.129-.157-.596-.256-1.053-.856-1.096-1.507C.492 14.213.496 10.116.492 6.017c-.069-.911.665-1.83 1.587-1.906zm.052.664c-.549.059-.995.599-.966 1.148.001 4.098-.001 8.197-.001 12.295.013.585.547 1.096 1.134 1.084l18.678.001c.156.001.312.004.467-.018.56-.048 1.016-.604.981-1.16-.002-4.1.002-8.2.001-12.299-.024-.572-.541-1.072-1.117-1.067-6.227-.002-12.454-.001-18.68-.003-.166-.001-.332-.004-.497.02z"/>
    <path fill="#1a1919" d="M12.98 10.269c1.067-1.577 2.132-3.156 3.204-4.729 1.07 1.578 2.14 3.157 3.206 4.738.22.302-.122.776-.481.66-.502-.126-.992-.294-1.49-.432-.008 2.597.016 5.195-.008 7.791-.956-.006-1.91.001-2.865-.001a.2.2 0 0 1-.123-.045c-2.311-1.56-4.617-3.128-6.934-4.68-.17.496-.339.992-.512 1.486-.167.33-.702.323-.828-.035-.657-1.786-1.312-3.574-1.967-5.36 1.904.058 3.81.102 5.713.172.362-.004.568.498.295.741-.4.349-.839.65-1.252.985 2 1.367 4 2.735 6.007 4.091.003-1.712.002-3.424.001-5.136-.513.124-1.008.32-1.523.434-.355.08-.666-.387-.444-.679z"/>
    <path fill="#cdcdcd" d="M1.393 3.702l.112-.025-.112.025z"/>
    <path fill="#dadada" d="M22.196 3.721l.107.037-.107-.037z"/>
    <path fill="#d9d9d9" d="M23.421 4.88l.037.017v.087l-.037-.104z"/>
    <path fill="#c9c8c8" d="M.058 5.177l.02-.113-.02.113z"/>
    <path fill="#cfcfcf" d="M23.528 5.111l.016.113-.016-.113z"/>
    <path fill="#c8c8c8" d="M23.48 19.079z"/>
    <path fill="#bfbfbf" d="M1.684 20.428l.096.042h-.083l-.013-.042z"/>
</svg>
