<svg xmlns="http://www.w3.org/2000/svg" width="24" height="24">
    <path fill="#fffffe" d="M1.83 3.529h.3l.023.013c-.104.04-.236.086-.336.009l.013-.023zM21.47 3.529h.297l.018.02c-.097.082-.232.032-.337-.004l.022-.016zM1.626 3.607a.135.135 0 0 1 .16-.023c-.045.051-.099.059-.16.023zM1.891 3.733c.275-.047.553-.035.831-.036H20.93c.323 0 .655-.012.968.088.927.267 1.629 1.214 1.563 2.185-.004 4.131.003 8.262-.004 12.393a2.213 2.213 0 0 1-1.305 1.782c-.381.177-.81.18-1.222.176-6.227-.004-12.454.005-18.68-.004-1.09.016-2.064-.929-2.128-2.005V5.971C.044 4.926.859 3.908 1.891 3.735zm.289.343c-.956.028-1.753.95-1.693 1.894.003 4.1.001 8.199.004 12.298.037.753.628 1.436 1.355 1.618.41.099.834.062 1.251.068 6.086-.002 12.172.001 18.258-.005.953-.008 1.745-.892 1.738-1.825-.003-4.13 0-8.26-.005-12.39-.054-.939-.944-1.702-1.876-1.67-6.344.008-12.69-.016-19.033.012zM1.06 3.868l.096-.065-.096.065zM22.499 3.852zM.811 4.015zM.334 4.587l.056-.104-.056.104zM23.214 4.53l.059.1-.059-.1zM.232 4.726zM23.286 4.649a.993.993 0 0 1 .229.455 4.033 4.033 0 0 1-.229-.455z"/>
    <path fill="#fffffe" d="M2.034 4.77c.241-.049.489-.033.735-.035 6.179.001 12.357 0 18.536.003.583-.004 1.107.508 1.117 1.088l-.003 12.395c-.025.668-.702 1.156-1.348 1.062-6.258-.003-12.516-.001-18.774-.003-.597.015-1.139-.515-1.137-1.11.001-4.083.003-8.165.001-12.248a1.141 1.141 0 0 1 .873-1.153zm3.398 1.515c.556 2.159 1.118 4.314 1.678 6.472.073.308.444.474.726.347.163-.067.248-.233.322-.382.228-.5.459-.999.686-1.499 2.558 2.237 5.1 4.493 7.66 6.728.635-.726 1.275-1.446 1.908-2.172-2.548-2.249-5.106-4.484-7.65-6.738.475-.293.947-.591 1.42-.887.172-.109.356-.271.34-.495a.537.537 0 0 0-.501-.533c-2.196-.283-4.393-.562-6.589-.841zM.044 5.156c-.019-.092.033-.175.088-.244a.253.253 0 0 1-.088.244zM23.562 5.252c.054.04.068.093.04.158-.049-.044-.064-.096-.04-.158zM23.557 18.795a.137.137 0 0 1 .046-.159c.025.066.009.119-.046.159zM0 18.693c.065.037.076.085.034.145L0 18.819v-.127zM.28 19.37l.066.099-.066-.099zM.666 19.887l.103.061c-.026-.016-.078-.045-.103-.061zM22.686 20.039l.107-.049-.107.049zM.869 20.04l.102.057-.102-.057zM22.549 20.145zM1.076 20.166c.159.058.316.124.455.222a1.348 1.348 0 0 1-.455-.222zM1.54 20.394c.056-.042.109-.035.155.022a.137.137 0 0 1-.155-.022zM21.868 20.418c.045-.05.099-.061.159-.032-.044.049-.097.061-.159.032zM1.725 20.446c.069-.078.179-.026.247.025h-.229l-.018-.025zM21.629 20.471c.049-.055.136-.086.2-.033l-.015.033h-.185z"/>
    <path fill="#323131" d="M2.13 3.529l19.318.016c-.263.053-.533.03-.8.032H2.956c-.268-.001-.539.02-.804-.033l-.023-.013z"/>
    <path fill="#1a1919" d="M1.786 3.584l.03-.032c.1.077.232.03.336-.009.265.053.536.033.804.033h17.692c.267-.001.536.022.8-.032.104.037.24.086.337.004l.03.035c.043.052.096.061.159.028l.028.025.114.018a3.581 3.581 0 0 1 .483.26c.251.149.452.378.616.617l.059.1.013.019c.067.156.143.308.229.455l.005.011.039.106.003.032c-.023.062-.009.114.04.158l.006.064c-.008 4.359.001 8.718-.004 13.076l-.001.086a.137.137 0 0 0-.046.159l-.006.029-.026.112c-.166.397-.403.772-.733 1.054l-.107.049-.038.041a3.504 3.504 0 0 1-.483.266 4.42 4.42 0 0 0-.113.018l-.026.023c-.06-.029-.113-.018-.159.032l-.039.019c-.064-.053-.15-.022-.2.033H1.971c-.068-.051-.177-.103-.247-.025l-.03-.03c-.047-.056-.098-.064-.155-.022l-.009-.006a1.958 1.958 0 0 0-.455-.222L.97 20.1l-.102-.057-.1-.093c-.026-.016-.078-.045-.103-.061-.111-.136-.224-.27-.32-.418l-.066-.099a3.374 3.374 0 0 1-.202-.386l-.019-.114-.026-.031c.042-.06.032-.109-.034-.145V5.264l.045-.09-.001-.016a.256.256 0 0 0 .088-.244c.032-.062.066-.124.1-.186a5.55 5.55 0 0 1 .066-.097l.037-.042.056-.104c.11-.181.26-.332.421-.468l.102-.062c.048-.029.097-.058.146-.085l.096-.065c.062-.035.126-.067.188-.1l.111-.03c.056-.023.114-.045.172-.066.061.036.114.028.16-.023zm.105.149C.86 3.905.045 4.924.122 5.969V18.31c.064 1.076 1.037 2.022 2.128 2.005 6.227.009 12.454.001 18.68.004.412.004.841.001 1.222-.176a2.21 2.21 0 0 0 1.305-1.782c.006-4.131 0-8.262.004-12.393.066-.971-.636-1.918-1.563-2.185-.313-.1-.644-.088-.968-.088H2.722c-.277.001-.556-.011-.831.036z"/>
    <path fill="#1a1919" d="M2.18 4.076c6.343-.029 12.688-.005 19.033-.012.932-.032 1.822.731 1.876 1.67.005 4.129.002 8.26.005 12.39.006.933-.786 1.818-1.738 1.825-6.086.006-12.172.002-18.258.005-.417-.006-.841.03-1.251-.068-.727-.182-1.317-.865-1.355-1.618C.489 14.169.491 10.07.488 5.97c-.061-.944.737-1.866 1.693-1.894zm-.146.694c-.514.107-.908.629-.873 1.153.002 4.083 0 8.165-.001 12.248-.001.596.54 1.125 1.137 1.11 6.258.002 12.516 0 18.774.003.646.093 1.323-.394 1.348-1.062l.003-12.395c-.011-.581-.534-1.093-1.117-1.088-6.179-.003-12.357-.001-18.536-.003-.246.002-.493-.015-.735.035z"/>
    <path fill="#1a1919" d="M5.432 6.285c2.196.278 4.393.558 6.589.841a.538.538 0 0 1 .501.533c.016.224-.169.385-.34.495-.473.296-.944.594-1.42.887 2.543 2.253 5.103 4.489 7.65 6.738-.634.726-1.273 1.446-1.908 2.172-2.56-2.236-5.101-4.491-7.66-6.728-.227.5-.458.999-.686 1.499-.073.149-.159.315-.322.382-.282.127-.654-.039-.726-.347-.559-2.157-1.121-4.314-1.678-6.472z"/>
    <path fill="#d0d0d0" d="M21.815 3.583c.061-.028.113-.019.159.028-.062.033-.116.024-.159-.028z"/>
    <path fill="#dbdbdb" d="M22.002 3.636l.114.018-.114-.018z"/>
    <path fill="#c2c1c1" d="M1.343 3.702l.111-.03-.111.03z"/>
    <path fill="#c3c3c3" d="M23.52 5.114l.039.106-.039-.106z"/>
    <path fill="#dadada" d="M0 5.177l.045-.005-.045.09v-.085z"/>
    <path fill="#aaa9a9" d="M23.608 5.473l.044.054v13.019l-.048.004c.005-4.359-.004-8.718.004-13.076z"/>
    <path fill="#dcdbdb" d="M23.525 18.935l.026-.112-.026.112z"/>
    <path fill="#c6c6c6" d="M.059 18.87l.019.114-.019-.114z"/>
    <path fill="#c7c7c7" d="M22.052 20.363z"/>
</svg>
