<svg xmlns="http://www.w3.org/2000/svg" width="24" height="24">
    <path fill="#fffffe" d="M2.05 3.529h19.604l.052.041c-.43-.024-.86-.014-1.291-.016H3.333c-.446.002-.892-.008-1.338.018l.055-.042zM1.769 3.607c.045-.044.099-.052.16-.025-.049.054-.102.062-.16.025zM21.773 3.58c.063-.028.116-.016.159.037-.061.025-.114.013-.159-.037zM1.58 3.654c.048-.043.102-.049.16-.02-.048.051-.102.058-.16.02zM21.965 3.625c.064-.027.116-.013.156.042-.062.023-.114.008-.156-.042zM2.04 3.748c.21-.027.423-.036.635-.031l18.349.001c.411-.002.841.008 1.219.188.8.352 1.356 1.233 1.283 2.111-.001 4.113.001 8.226-.001 12.34-.079 1.067-1.045 1.995-2.128 1.982-6.147.005-12.294.001-18.441.002-.41-.005-.831.03-1.23-.091-.937-.27-1.625-1.244-1.539-2.219.001-4.004.001-8.009-.001-12.013C.1 4.942.964 3.878 2.038 3.75zm.089.366c-.827.088-1.537.837-1.572 1.668C.556 9.911.556 14.041.554 18.17c.006.928.8 1.796 1.746 1.801 6.225.004 12.45.002 18.676.004.364.006.745-.008 1.083-.157.608-.261 1.076-.884 1.097-1.553.001-4.145.001-8.291.003-12.435-.026-.933-.866-1.761-1.808-1.742-6.132-.006-12.264-.001-18.395-.003-.276.006-.554-.019-.827.03zM22.547 3.853l.099.061a2.647 2.647 0 0 0-.099-.061zM1.004 3.967l.099-.065-.099.065zM.859 4.06zM22.842 4.047l.099.067-.099-.067zM23.02 4.194l.064.1-.064-.1zM23.305 4.578l.066.097-.066-.097z"/>
    <path fill="#fffffe" d="M2.178 4.775c.149-.026.3-.018.45-.018 6.227.001 12.453-.003 18.679-.001.615-.037 1.189.505 1.178 1.12-.001 4.114.001 8.228.001 12.341-.013.586-.547 1.096-1.134 1.084l-18.679.002c-.232.004-.469.001-.695-.064-.449-.164-.784-.632-.754-1.115.001-4.084-.001-8.166-.001-12.25-.002-.529.426-1.03.953-1.099zm5.29.763c-1.069 1.579-2.141 3.158-3.207 4.739-.22.302.121.776.48.66.502-.126.992-.294 1.49-.433.006 2.597-.012 5.195.006 7.792.94-.004 1.881-.001 2.822-.001.135.015.229-.098.336-.161 2.255-1.522 4.506-3.049 6.764-4.567.173.496.34.993.514 1.488.166.33.701.323.827-.035.657-1.787 1.312-3.575 1.967-5.362-1.904.059-3.81.102-5.713.173-.362-.004-.569.498-.295.742.401.348.84.652 1.254.985-2.003 1.364-4.002 2.734-6.009 4.091-.003-1.713-.001-3.427-.001-5.14.512.131 1.009.321 1.524.438.355.08.666-.387.443-.678a2068.939 2068.939 0 0 0-3.204-4.732zM23.619 5.209l.033.018v.121c-.068-.028-.079-.074-.033-.138zM.054 5.411c-.03-.062-.02-.116.03-.16.03.059.02.113-.03.16zM0 5.528l.037-.052C.007 9.707.035 13.94.023 18.171c-.001.148.008.295.019.442L0 18.564V5.528zM.054 18.642c.052.046.06.099.025.157-.045-.047-.054-.099-.025-.157zM23.389 19.357c.04-.132.099-.257.18-.368a1.01 1.01 0 0 1-.18.368zM.275 19.272l.064.097-.064-.097zM22.784 20.04zM22.639 20.144zM1.055 20.132l.098.062-.098-.062zM22.17 20.385c.109-.083.237-.133.366-.177a.84.84 0 0 1-.366.177zM1.532 20.392c.059-.034.112-.026.162.023a.13.13 0 0 1-.162-.023zM22.01 20.42c.044-.059.095-.068.152-.03a.128.128 0 0 1-.152.03zM1.727 20.436c.06-.041.109-.03.148.035h-.129l-.019-.035zM21.828 20.471c.036-.064.083-.076.144-.037l-.018.037h-.127z"/>
    <path fill="#1a1919" d="M1.928 3.582l.066-.01c.445-.026.892-.016 1.338-.018h17.082c.431.002.861-.008 1.291.016l.068.01a.13.13 0 0 0 .159.037l.033.008c.042.051.095.066.156.042l.026.013.113.019c.098.047.195.096.288.152l.099.061c.068.039.133.084.196.133l.099.067.08.079.064.1c.086.085.159.181.22.284l.066.097c.077.124.142.254.203.388l.018.114.026.032c-.045.064-.035.111.033.138v13.447l-.082.195a1.19 1.19 0 0 0-.18.368c-.138.23-.294.453-.498.629l-.107.054a1.776 1.776 0 0 1-.047.042 5.43 5.43 0 0 1-.1.062c-.035.02-.069.042-.104.064a1.278 1.278 0 0 0-.366.177l-.008.006c-.056-.039-.107-.029-.152.03l-.038.013c-.061-.04-.109-.028-.144.037H1.873c-.039-.064-.088-.076-.148-.035l-.035-.023c-.049-.049-.103-.056-.162-.023a3.396 3.396 0 0 1-.379-.196l-.098-.062c-.32-.16-.546-.457-.715-.764l-.064-.097a11.79 11.79 0 0 1-.103-.193l-.029-.11c-.023-.056-.044-.113-.065-.169.035-.059.027-.112-.025-.157l-.011-.028a5.464 5.464 0 0 1-.019-.442C.032 13.937.004 9.705.034 5.474l.016-.065c.049-.047.059-.101.03-.16l.025-.028.016-.113.068-.126.038-.107c.163-.304.363-.594.629-.818l.106-.054.04-.039.099-.065c.08-.049.163-.096.244-.143l.108-.037.124-.068c.059.037.113.03.16-.02l.029-.026c.057.037.11.029.16-.025zm.112.166C.966 3.876.102 4.94.188 6.016l.001 12.013c-.086.976.601 1.95 1.539 2.219.398.121.82.086 1.23.091 6.147-.001 12.294.003 18.441-.002 1.082.013 2.048-.914 2.128-1.982l.001-12.34c.073-.877-.482-1.759-1.283-2.111-.378-.18-.808-.19-1.219-.188L2.677 3.715a4.215 4.215 0 0 0-.635.031z"/>
    <path fill="#1a1919" d="M2.129 4.114c.273-.049.551-.025.827-.03 6.132.002 12.264-.004 18.395.003.942-.019 1.782.809 1.808 1.742l-.003 12.435c-.02.669-.488 1.292-1.097 1.553-.337.15-.719.164-1.083.157-6.226-.002-12.451 0-18.676-.004-.947-.005-1.74-.873-1.746-1.801C.555 14.04.555 9.91.557 5.781c.035-.831.745-1.581 1.572-1.668zm.049.661c-.527.069-.955.57-.953 1.099.001 4.084.002 8.166.001 12.25-.03.484.305.951.754 1.115.225.065.462.066.695.064l18.679-.002c.587.013 1.12-.498 1.134-1.084 0-4.114-.002-8.228-.001-12.341.011-.616-.563-1.156-1.178-1.12-6.227-.002-12.453.001-18.679.001-.15.001-.301-.008-.45.018z"/>
    <path fill="#1a1919" d="M7.468 5.538c1.07 1.576 2.137 3.153 3.204 4.732.222.292-.089.76-.443.678-.515-.116-1.012-.307-1.524-.438-.001 1.713-.002 3.427.001 5.14 2.007-1.357 4.007-2.727 6.009-4.091-.414-.333-.853-.637-1.254-.985-.274-.244-.067-.745.295-.742 1.904-.071 3.809-.114 5.713-.173-.656 1.787-1.31 3.575-1.967 5.362-.126.358-.661.365-.827.035-.174-.495-.341-.992-.514-1.488-2.257 1.518-4.509 3.045-6.764 4.567-.107.063-.201.176-.336.161-.941-.001-1.882-.004-2.822.001-.018-2.597 0-5.195-.006-7.792-.498.139-.989.307-1.49.433-.359.116-.7-.358-.48-.66C5.329 8.697 6.4 7.118 7.47 5.539z"/>
    <path fill="#cdcdcd" d="M22.147 3.681z"/>
    <path fill="#dadada" d="M1.348 3.759l.108-.037-.108.037z"/>
    <path fill="#d9d9d9" d="M.192 4.985l.038-.107-.038.107z"/>
    <path fill="#c9c8c8" d="M23.574 5.063z"/>
    <path fill="#cfcfcf" d="M.107 5.224l.016-.113-.016.113z"/>
    <path fill="#c8c8c8" d="M.143 18.969l.029.11-.029-.11z"/>
</svg>
