<svg xmlns="http://www.w3.org/2000/svg" width="24" height="24">
    <path fill="#fffffe" d="M1.89 3.529h.285l.023.01c-.097.054-.234.092-.325.006l.018-.016zM21.522 3.529h.291l.017.018c-.096.082-.232.047-.331-.009l.023-.008zM1.53 3.654a.648.648 0 0 1 .313-.083.284.284 0 0 1-.313.083zM21.865 3.582a.137.137 0 0 1 .16.026c-.061.036-.114.028-.16-.026zM1.941 3.739c.164-.032.332-.039.5-.041H20.93c.364.001.737-.018 1.087.099.911.277 1.582 1.219 1.513 2.173-.004 4.129.002 8.257-.003 12.386a2.208 2.208 0 0 1-1.324 1.796c-.34.153-.719.17-1.086.169-6.258-.004-12.516.004-18.774-.004-1.098.028-2.087-.919-2.152-2.004C.19 14.199.192 10.084.19 5.969c-.071-1.037.734-2.04 1.749-2.231zm.333.336c-.937.035-1.77.902-1.715 1.848.001 4.036 0 8.072-.002 12.108-.037.772.463 1.549 1.193 1.817.268.083.551.116.831.105 6.054-.001 12.107.001 18.162.002.296-.003.596.018.889-.037.87-.114 1.59-.959 1.53-1.84-.001-4.036 0-8.072.003-12.107.048-.794-.503-1.571-1.254-1.819a3.112 3.112 0 0 0-.793-.088c-6.281.009-12.563-.014-18.844.012zM22.492 3.801l.097.062-.097-.062zM1.055 3.909l.1-.059-.1.059zM22.732 3.952l.102.059-.102-.059zM23.267 4.489l.051.104-.051-.104zM.375 4.633l.059-.099-.059.099zM23.36 4.634l.059.1-.059-.1zM.136 5.099c.044-.16.112-.317.222-.443a2.91 2.91 0 0 1-.222.443z"/>
    <path fill="#fffffe" d="M2.125 4.765c.212-.044.429-.026.643-.029l18.114-.002c.292.003.595-.023.877.073.426.164.745.606.731 1.067-.002 4.098 0 8.196.001 12.294.001.596-.54 1.125-1.137 1.11-6.322.001-12.644.004-18.965.001-.604.028-1.162-.505-1.158-1.108L1.228 5.873a1.14 1.14 0 0 1 .896-1.11zm9.468 2.369c-.46.028-.637.708-.232.942.5.337 1.02.644 1.53.966-2.545 2.251-5.103 4.489-7.651 6.736.634.727 1.274 1.447 1.908 2.173 2.559-2.237 5.102-4.492 7.66-6.73.227.5.458 1 .686 1.5.073.15.16.314.322.382.282.126.653-.038.726-.346.56-2.157 1.121-4.314 1.679-6.472-2.209.283-4.42.556-6.628.849zM23.528 4.913c.049.069.086.15.082.238-.07-.055-.126-.15-.082-.238zM.047 5.409c-.025-.066-.008-.119.049-.156.019.063.004.115-.049.156zM.048 18.637a.136.136 0 0 1 .048.157c-.057-.038-.073-.09-.048-.157zM23.615 18.834c-.04-.06-.027-.107.037-.143v.129l-.037.013zM23.311 19.463l.065-.097-.065.097zM22.876 19.948l.104-.054-.104.054zM.865 19.996l.108.044-.108-.044zM22.677 20.099l.103-.054-.103.054zM1.012 20.089l.099.061-.099-.061zM22.124 20.384c.138-.09.289-.159.445-.215a1.36 1.36 0 0 1-.445.215zM1.628 20.381c.062-.025.114-.012.157.041-.064.025-.116.011-.157-.041zM21.954 20.417c.044-.054.097-.062.158-.028a.133.133 0 0 1-.158.028zM1.826 20.437c.061-.054.149-.026.193.034H1.84l-.015-.034zM21.68 20.471c.065-.056.179-.102.245-.023l-.02.023h-.224z"/>
    <path fill="#323131" d="M2.175 3.529l19.325.008c-.264.058-.536.04-.804.039H3.004c-.269.001-.541.021-.806-.037l-.023-.01z"/>
    <path fill="#1a1919" d="M1.842 3.57l.03-.025c.091.087.228.048.325-.006.265.058.537.039.805.037h17.692c.268.002.54.019.804-.039.099.056.234.09.331.009l.035.035c.045.054.098.062.16.026.058.021.116.042.173.066l.112.03.184.098.097.062.143.088.102.059c.167.138.316.296.433.479l.051.104.042.041.059.1.108.179c-.044.088.012.183.082.238l.002.023.04.102v13.417c-.064.035-.076.083-.037.143l-.021.036-.019.114a5.75 5.75 0 0 1-.199.381l-.065.097a5.14 5.14 0 0 1-.332.431l-.104.054-.095.096-.103.054-.108.071a2.03 2.03 0 0 0-.445.215l-.012.005c-.061-.035-.114-.026-.158.028l-.03.031c-.066-.08-.18-.034-.245.023H2.019c-.044-.059-.133-.088-.193-.034l-.042-.015c-.042-.053-.095-.066-.157-.041l-.029-.013-.113-.022a5.34 5.34 0 0 1-.375-.196l-.099-.061-.039-.049-.108-.044a2.806 2.806 0 0 1-.738-1.06 3.66 3.66 0 0 1-.03-.112l-.001-.031c.019-.064.004-.116-.048-.157l-.009-.056C.056 14.22.04 9.859.046 5.497v-.088a.134.134 0 0 0 .049-.156L.09 5.221l.04-.107.005-.015c.088-.14.16-.29.222-.443a.459.459 0 0 1 .017-.023l.059-.099c.167-.243.37-.468.623-.625l.1-.059c.123-.069.248-.133.375-.197a.286.286 0 0 0 .313-.083zm.099.169C.925 3.93.12 4.933.192 5.97c.002 4.115 0 8.229.001 12.344.064 1.085 1.054 2.032 2.152 2.004 6.258.008 12.516.001 18.774.004.366.001.746-.016 1.086-.169a2.212 2.212 0 0 0 1.324-1.796c.005-4.129-.001-8.257.003-12.386.069-.954-.603-1.897-1.513-2.173-.35-.117-.724-.099-1.087-.099H2.443a2.796 2.796 0 0 0-.5.041z"/>
    <path fill="#1a1919" d="M2.274 4.075c6.28-.026 12.563-.002 18.844-.012.267-.005.534.025.793.088.75.248 1.302 1.025 1.254 1.819-.003 4.036-.004 8.072-.003 12.107.06.882-.659 1.727-1.53 1.84-.294.054-.593.034-.889.037-6.054-.001-12.107-.003-18.162-.002a2.486 2.486 0 0 1-.831-.105C1.02 19.58.52 18.803.557 18.03c.002-4.036.004-8.072.002-12.108-.056-.946.776-1.813 1.715-1.848zm-.149.69a1.14 1.14 0 0 0-.896 1.11c.002 4.099.002 8.198.003 12.298-.004.604.555 1.136 1.158 1.108 6.321.004 12.643.001 18.965-.001.597.016 1.139-.514 1.137-1.11-.001-4.098-.003-8.197-.001-12.294.014-.462-.306-.904-.731-1.067-.282-.097-.584-.071-.877-.073l-18.114.002c-.215.003-.432-.016-.643.029z"/>
    <path fill="#1a1919" d="M11.593 7.134c2.207-.294 4.419-.566 6.628-.849-.558 2.158-1.118 4.316-1.679 6.472-.073.308-.443.472-.726.346-.162-.068-.248-.232-.322-.382-.228-.5-.459-.999-.686-1.5-2.557 2.238-5.101 4.492-7.66 6.73-.634-.726-1.275-1.446-1.908-2.173 2.548-2.248 5.106-4.485 7.651-6.736-.51-.321-1.03-.63-1.53-.966-.406-.234-.229-.913.232-.942z"/>
    <path fill="#c2c1c1" d="M22.197 3.673z"/>
    <path fill="#c3c3c3" d="M.091 5.221l.04-.107-.04.107z"/>
    <path fill="#dadada" d="M23.612 5.173l.04.016v.085a10.96 10.96 0 0 1-.04-.102z"/>
    <path fill="#aaa9a9" d="M0 5.5l.047-.004C.041 9.857.058 14.218.039 18.58L0 18.501V5.5z"/>
    <path fill="#dcdbdb" d="M.097 18.824z"/>
    <path fill="#c6c6c6" d="M23.575 18.985l.019-.114-.019.114z"/>
    <path fill="#c7c7c7" d="M1.486 20.346l.113.022-.113-.022z"/>
</svg>
