<?xml version="1.0" encoding="UTF-8" standalone="no"?>
<!-- Created with Inkscape (http://www.inkscape.org/) -->

<svg
   xmlns:dc="http://purl.org/dc/elements/1.1/"
   xmlns:cc="http://creativecommons.org/ns#"
   xmlns:rdf="http://www.w3.org/1999/02/22-rdf-syntax-ns#"
   xmlns:svg="http://www.w3.org/2000/svg"
   xmlns="http://www.w3.org/2000/svg"
   xmlns:sodipodi="http://sodipodi.sourceforge.net/DTD/sodipodi-0.dtd"
   xmlns:inkscape="http://www.inkscape.org/namespaces/inkscape"
   width="602mm"
   height="452mm"
   viewBox="0 0 602 451.99998"
   version="1.1"
   id="svg823"
   inkscape:version="0.92.2 (5c3e80d, 2017-08-06)"
   sodipodi:docname="66.svg">
  <defs
     id="defs817" />
  <sodipodi:namedview
     id="base"
     pagecolor="#ffffff"
     bordercolor="#666666"
     borderopacity="1.0"
     inkscape:pageopacity="0.0"
     inkscape:pageshadow="2"
     inkscape:zoom="0.24609375"
     inkscape:cx="1467.2027"
     inkscape:cy="758.41852"
     inkscape:document-units="mm"
     inkscape:current-layer="layer1"
     showgrid="false"
     inkscape:window-width="1920"
     inkscape:window-height="1057"
     inkscape:window-x="-8"
     inkscape:window-y="-8"
     inkscape:window-maximized="1"
     inkscape:snap-global="false"
     inkscape:measure-start="0,0"
     inkscape:measure-end="0,0" />
  <metadata
     id="metadata820">
    <rdf:RDF>
      <cc:Work
         rdf:about="">
        <dc:format>image/svg+xml</dc:format>
        <dc:type
           rdf:resource="http://purl.org/dc/dcmitype/StillImage" />
        <dc:title></dc:title>
      </cc:Work>
    </rdf:RDF>
  </metadata>
  <g
     inkscape:label="Layer 1"
     inkscape:groupmode="layer"
     id="layer1"
     transform="translate(0,155)">
    <rect
       ry="50"
       rx="50"
       y="-154"
       x="1"
       height="450"
       width="600"
       id="rect1370"
       style="opacity:1;fill:#000000;fill-opacity:1;fill-rule:nonzero;stroke:none;stroke-width:0.05714786;stroke-linecap:square;stroke-linejoin:round;stroke-miterlimit:10;stroke-dasharray:none;stroke-opacity:1;paint-order:stroke fill markers" />
    <rect
       style="opacity:1;fill:#ff2d05;fill-opacity:1;fill-rule:nonzero;stroke:none;stroke-width:0;stroke-linecap:square;stroke-linejoin:miter;stroke-miterlimit:10;stroke-dasharray:none;stroke-opacity:1;paint-order:fill markers stroke"
       id="rect826"
       width="570"
       height="420"
       x="16"
       y="-139"
       rx="35"
       ry="35" />
    <path
       inkscape:connector-curvature="0"
       id="path13833"
       d="m 555.99957,-118.99999 h -15 v 104.9999 h 15 z"
       style="opacity:1;fill:#000000;fill-opacity:1;fill-rule:nonzero;stroke:none;stroke-width:0.14486843;stroke-linecap:square;stroke-linejoin:round;stroke-miterlimit:1.41400003;stroke-dasharray:none;stroke-opacity:1;paint-order:stroke fill markers" />
    <rect
       rx="16.499985"
       y="-88.999939"
       x="510.99963"
       height="74.999931"
       width="32.999969"
       id="rect13835"
       style="opacity:1;fill:#000000;fill-opacity:1;fill-rule:nonzero;stroke:none;stroke-width:0.17540255;stroke-linecap:square;stroke-linejoin:round;stroke-miterlimit:1.41400003;stroke-dasharray:none;stroke-opacity:1;paint-order:stroke fill markers"
       ry="16.5" />
    <rect
       style="opacity:1;fill:#ff2d05;fill-opacity:1;fill-rule:nonzero;stroke:none;stroke-width:0.09160101;stroke-linecap:square;stroke-linejoin:round;stroke-miterlimit:1.41400003;stroke-dasharray:none;stroke-opacity:1;paint-order:stroke fill markers"
       id="rect13837"
       width="14.999987"
       height="44.999962"
       x="525.99963"
       y="-73.999939"
       rx="7.4999933"
       ry="7.5" />
    <path
       style="opacity:1;fill:#000000;fill-opacity:1;fill-rule:nonzero;stroke:none;stroke-width:0.03258768;stroke-linecap:square;stroke-linejoin:round;stroke-miterlimit:10;stroke-dasharray:none;stroke-opacity:1;paint-order:stroke fill markers"
       d="m 420.99967,-118.99987 h 15 V -14 h -15 z"
       id="rect29426"
       inkscape:connector-curvature="0"
       sodipodi:nodetypes="ccccc" />
    <path
       style="opacity:1;fill:#000000;fill-opacity:1;fill-rule:nonzero;stroke:none;stroke-width:0.10361577;stroke-linecap:square;stroke-linejoin:round;stroke-miterlimit:10;stroke-dasharray:none;stroke-opacity:1;paint-order:stroke fill markers"
       d="M 310.75007,121 295.74964,83.50006 310.75007,46.00013 H 295.74964 L 288.25,64.75 280.75,46.00013 h -15 l 15,37.49993 -15,37.49994 h 15 l 7.5,-18.75 7.49964,18.75 z"
       id="path5587"
       inkscape:connector-curvature="0"
       sodipodi:nodetypes="ccccccccccccc" />
    <path
       style="opacity:1;fill:#000000;fill-opacity:1;fill-rule:nonzero;stroke:none;stroke-width:0.07305785;stroke-linecap:square;stroke-linejoin:round;stroke-miterlimit:1.41400003;stroke-dasharray:none;stroke-opacity:1;paint-order:stroke fill markers"
       d="M 325.74997,121 V 45.99992 h 14.9997 V 121 Z m 0,-90 V 16.00048 h 14.9997 V 31 Z"
       id="rect13728"
       inkscape:connector-curvature="0"
       sodipodi:nodetypes="cccccccccc" />
    <path
       style="opacity:1;fill:#000000;fill-opacity:1;stroke:none;stroke-width:45.48177338;stroke-linecap:square;stroke-linejoin:round;stroke-miterlimit:4;stroke-dasharray:none;stroke-opacity:1;paint-order:stroke fill markers"
       d="m 208.75,16 h 45.00001 V 31 H 223.75 v 27 h 30.00001 V 73 H 223.75 v 33 h 30.00001 v 15 H 208.75 Z"
       id="rect852-0"
       inkscape:connector-curvature="0"
       sodipodi:nodetypes="ccccccccccccc" />
    <path
       style="opacity:1;fill:#000000;fill-opacity:1;fill-rule:nonzero;stroke:none;stroke-width:2.07173038;stroke-linecap:square;stroke-linejoin:round;stroke-miterlimit:10;stroke-dasharray:none;stroke-opacity:1;paint-order:markers stroke fill"
       d="M 68.49992,-118.99978 C 56.03492,-118.99978 46,-108.96487 46,-96.49987 V -36.4999 C 46,-24.03491 56.03492,-14 68.49992,-14 h 15.00012 c 12.465,0 22.49991,-10.03491 22.49991,-22.4999 V -51.5 H 90.99984 v 15.0001 c 0,4.15499 -3.3448,7.4998 -7.4998,7.4998 H 68.49992 c -4.155,0 -7.4998,-3.34481 -7.4998,-7.4998 v -59.99997 c 0,-4.155 3.3448,-7.50031 7.4998,-7.50031 h 15.00012 c 4.155,0 7.4998,3.34531 7.4998,7.50031 V -81.5 h 15.00011 v -14.99987 c 0,-12.465 -10.03491,-22.49991 -22.49991,-22.49991 z"
       id="rect2157"
       inkscape:connector-curvature="0"
       sodipodi:nodetypes="ssssssccssssssssccsss" />
    <path
       inkscape:connector-curvature="0"
       style="opacity:1;fill:#000000;fill-opacity:1;fill-rule:nonzero;stroke:none;stroke-width:0.29215583;stroke-linecap:square;stroke-linejoin:round;stroke-miterlimit:1.41400003;stroke-dasharray:none;stroke-opacity:1;paint-order:markers stroke fill"
       d="m 181,-14 h 15 v -75.00001 h -15 z"
       id="path2473" />
    <path
       style="opacity:1;fill:#000000;fill-opacity:1;fill-rule:nonzero;stroke:none;stroke-width:0.44877225;stroke-linecap:square;stroke-linejoin:round;stroke-miterlimit:1.41400003;stroke-dasharray:none;stroke-opacity:1;paint-order:markers stroke fill"
       d="m 226,-14 v -58.49986 c 0,-9.141 -7.3592,-16.50015 -16.5002,-16.50015 -9.141,0 -16.4997,7.35915 -16.4997,16.50015 V -14 h 2.9997 v -52.50024 c 0,-4.155 3.345,-7.49992 7.5,-7.49992 4.155,0 7.5003,3.34492 7.5003,7.49992 V -14 Z"
       id="path2475"
       inkscape:connector-curvature="0"
       sodipodi:nodetypes="csssccssscc" />
    <path
       style="opacity:1;fill:#000000;fill-opacity:1;fill-rule:nonzero;stroke:none;stroke-width:20.15773773;stroke-linecap:square;stroke-linejoin:miter;stroke-miterlimit:8;stroke-dasharray:none;stroke-opacity:1;paint-order:markers stroke fill"
       d="m 323.50017,-89.00008 c -12.465,0 -22.50017,10.03516 -22.50017,22.50015 v 30.00016 C 301,-24.03478 311.03517,-14 323.50017,-14 c 12.465,0 22.4998,-10.03478 22.4998,-22.49977 h -14.9999 c 0,4.15493 -3.3449,7.49993 -7.4999,7.49993 -4.155,0 -7.5003,-3.345 -7.5003,-7.49993 v -7.50037 h 30.0001 v -22.49979 c 0,-12.46499 -10.0348,-22.50015 -22.4998,-22.50015 z m 0,15.00023 c 4.155,0 7.4999,3.34492 7.4999,7.49992 v 7.49992 h -15.0002 v -7.49992 c 0,-4.155 3.3453,-7.49992 7.5003,-7.49992 z"
       id="path2532"
       inkscape:connector-curvature="0"
       sodipodi:nodetypes="ssssccssccssssccss" />
    <path
       style="opacity:1;fill:#000000;fill-opacity:1;fill-rule:nonzero;stroke:none;stroke-width:0.14681463;stroke-linecap:square;stroke-linejoin:round;stroke-miterlimit:10;stroke-dasharray:none;stroke-opacity:1;paint-order:stroke fill markers"
       d="m 375.99987,-88.99968 c -8.31,0 -14.9999,6.68985 -14.9999,14.99986 v 7.49993 h 14.9999 v -4.49973 c 0,-1.662 1.3382,-3.0002 3.0002,-3.0002 h 8.9998 c 1.662,0 3.0003,1.3382 3.0003,3.0002 v 4.4354 l -21.4271,17.97874 c -5.4344,4.56002 -8.573,11.29138 -8.5731,18.38552 v 1.19999 c 10e-5,8.30993 6.6901,15.00001 15,14.99997 h 9.0001 c 3.324,0 5.9996,-2.67593 5.9996,-6 0,3.32407 2.6764,6 6.0003,6 h 15 c -3.324,4e-5 -5.9996,-2.67596 -5.9996,-6 v -53.99982 c -10e-5,-8.31001 -6.6904,-14.99986 -15.0004,-14.99986 z"
       id="rect815-2"
       inkscape:connector-curvature="0"
       sodipodi:nodetypes="ssccsssscccccscscssss" />
    <path
       style="opacity:1;fill:#ff2d05;fill-opacity:1;fill-rule:nonzero;stroke:none;stroke-width:0.23576777;stroke-linecap:square;stroke-linejoin:round;stroke-miterlimit:1.41400003;stroke-dasharray:none;stroke-opacity:1;paint-order:stroke fill markers"
       d="m 379.37497,-41.93865 c -2.1398,1.79553 -3.375,4.44535 -3.375,7.2387 v 2.70021 c 0,1.662 1.338,2.99979 3,2.99979 l 9,3e-5 c 1.6621,0 3,-1.33782 3,-2.99984 V -51.6942 Z"
       id="path7367-2"
       inkscape:connector-curvature="0"
       sodipodi:nodetypes="cscssccc" />
    <path
       sodipodi:nodetypes="ssssccssccssssccss"
       inkscape:connector-curvature="0"
       id="path2245"
       d="m 473.50017,-89.00008 c -12.465,0 -22.5002,10.03516 -22.5002,22.50015 v 30.00016 c 0,12.46499 10.0352,22.49977 22.5002,22.49977 12.465,0 22.4998,-10.03478 22.4998,-22.49977 h -14.9999 c 0,4.15493 -3.3449,7.49993 -7.4999,7.49993 -4.155,0 -7.5003,-3.345 -7.5003,-7.49993 v -7.50037 h 30.0001 v -22.49979 c 0,-12.46499 -10.0348,-22.50015 -22.4998,-22.50015 z m 0,15.00023 c 4.155,0 7.4999,3.34492 7.4999,7.49992 v 7.49992 h -15.0002 v -7.49992 c 0,-4.155 3.3453,-7.49992 7.5003,-7.49992 z"
       style="opacity:1;fill:#000000;fill-opacity:1;fill-rule:nonzero;stroke:none;stroke-width:20.15773773;stroke-linecap:square;stroke-linejoin:miter;stroke-miterlimit:8;stroke-dasharray:none;stroke-opacity:1;paint-order:markers stroke fill" />
    <rect
       style="opacity:1;fill:#000000;fill-opacity:1;fill-rule:nonzero;stroke:none;stroke-width:1.90811563;stroke-linecap:square;stroke-linejoin:round;stroke-miterlimit:10;stroke-dasharray:none;stroke-opacity:1;paint-order:markers stroke fill"
       id="rect2247"
       width="45"
       height="75"
       x="121"
       y="-89"
       rx="16.499874"
       ry="16.5" />
    <rect
       ry="3"
       rx="3"
       y="-74"
       x="136"
       height="45"
       width="15"
       id="rect2262"
       style="opacity:1;fill:#ff2d05;fill-opacity:1;fill-rule:nonzero;stroke:none;stroke-width:0.8533352;stroke-linecap:square;stroke-linejoin:round;stroke-miterlimit:10;stroke-dasharray:none;stroke-opacity:1;paint-order:markers stroke fill" />
    <path
       style="opacity:1;fill:#000000;fill-opacity:1;fill-rule:nonzero;stroke:none;stroke-width:2.94313192;stroke-linecap:square;stroke-linejoin:round;stroke-miterlimit:10;stroke-dasharray:none;stroke-opacity:1;paint-order:markers stroke fill"
       d="M 263.49992,-89.00006 C 251.03492,-89.00006 241,-78.96515 241,-66.50015 V -36.4999 C 241,-24.03491 251.03492,-14 263.49992,-14 c 12.465,0 22.49991,-10.03491 22.49991,-22.4999 h -14.9996 c 0,4.15499 -3.34531,7.4998 -7.50031,7.4998 -4.155,0 -7.4998,-3.34481 -7.4998,-7.4998 v -30.00025 c 0,-4.155 3.3448,-7.4998 7.4998,-7.4998 4.155,0 7.50031,3.3448 7.50031,7.4998 h 14.9996 c 0,-12.465 -10.03491,-22.49991 -22.49991,-22.49991 z"
       id="rect2282"
       inkscape:connector-curvature="0"
       sodipodi:nodetypes="sssssssssssss" />
    <path
       sodipodi:nodetypes="cccccssccsscccccc"
       inkscape:connector-curvature="0"
       id="path8990-2"
       d="m 363.24997,16 v 30.00002 h -7.5 v 15.00001 h 7.5 v 45.00011 c 0,8.31001 6.6898,14.99986 14.9999,14.99986 h 15.0001 v -14.99986 h -11.9999 c -1.662,0 -3.0002,-1.33815 -3.0002,-3.00023 V 61.00003 h 15.0001 V 46.00002 h -15.0001 V 16 Z"
       style="opacity:1;fill:#000000;fill-opacity:1;fill-rule:nonzero;stroke:none;stroke-width:12.83233929;stroke-linecap:square;stroke-linejoin:miter;stroke-miterlimit:8;stroke-dasharray:none;stroke-opacity:1;paint-order:markers stroke fill" />
    <path
       inkscape:connector-curvature="0"
       id="path13833-4"
       d="m 450.99998,151.00019 h -14.9999 v 104.99973 h 14.9999 z"
       style="opacity:1;fill:#000000;fill-opacity:1;fill-rule:nonzero;stroke:none;stroke-width:0.14486821;stroke-linecap:square;stroke-linejoin:round;stroke-miterlimit:1.41400003;stroke-dasharray:none;stroke-opacity:1;paint-order:stroke fill markers" />
    <rect
       rx="16.499962"
       y="181.00018"
       x="405.99997"
       height="74.999825"
       width="32.999924"
       id="rect13835-1"
       style="opacity:1;fill:#000000;fill-opacity:1;fill-rule:nonzero;stroke:none;stroke-width:0.1754023;stroke-linecap:square;stroke-linejoin:round;stroke-miterlimit:1.41400003;stroke-dasharray:none;stroke-opacity:1;paint-order:stroke fill markers"
       ry="16.5" />
    <rect
       style="opacity:1;fill:#ff2d05;fill-opacity:1;fill-rule:nonzero;stroke:none;stroke-width:0.09160089;stroke-linecap:square;stroke-linejoin:round;stroke-miterlimit:1.41400003;stroke-dasharray:none;stroke-opacity:1;paint-order:stroke fill markers"
       id="rect13837-0"
       width="14.999966"
       height="44.999897"
       x="420.99997"
       y="196.00012"
       rx="7.4999828"
       ry="7.5" />
    <path
       sodipodi:nodetypes="ccccc"
       inkscape:connector-curvature="0"
       id="path2279"
       d="m 173.5,150.99998 h 15 l -22.5,105 h -15 z"
       style="opacity:1;fill:#000000;fill-opacity:1;fill-rule:nonzero;stroke:none;stroke-width:0.41370198;stroke-linecap:square;stroke-linejoin:round;stroke-miterlimit:1.41400003;stroke-dasharray:none;stroke-opacity:1;paint-order:markers stroke fill" />
    <path
       style="opacity:1;fill:#000000;fill-opacity:1;fill-rule:nonzero;stroke:none;stroke-width:0.41370198;stroke-linecap:square;stroke-linejoin:round;stroke-miterlimit:1.41400003;stroke-dasharray:none;stroke-opacity:1;paint-order:markers stroke fill"
       d="m 188.5,150.99998 h -15 l 22.5,105 h 15 z"
       id="path2281"
       inkscape:connector-curvature="0"
       sodipodi:nodetypes="ccccc" />
    <rect
       y="226"
       x="158.50002"
       height="15"
       width="45"
       id="rect2283"
       style="opacity:1;fill:#000000;fill-opacity:1;fill-rule:nonzero;stroke:none;stroke-width:0.57709873;stroke-linecap:square;stroke-linejoin:round;stroke-miterlimit:1.41400003;stroke-dasharray:none;stroke-opacity:1;paint-order:markers stroke fill" />
    <path
       style="opacity:1;fill:#000000;fill-opacity:1;fill-rule:nonzero;stroke:none;stroke-width:20.15773773;stroke-linecap:square;stroke-linejoin:miter;stroke-miterlimit:8;stroke-dasharray:none;stroke-opacity:1;paint-order:markers stroke fill"
       d="m 308.5002,180.9999 c -12.465,0 -22.5002,10.03516 -22.5002,22.50015 v 30.00016 c 0,12.46499 10.0352,22.49977 22.5002,22.49977 12.46498,0 22.49978,-10.03478 22.49978,-22.49977 h -14.9999 c 0,4.15492 -3.34488,7.49992 -7.49988,7.49992 -4.155,0 -7.5003,-3.345 -7.5003,-7.49992 v -7.50038 h 30.00008 v -22.49978 c 0,-12.46499 -10.0348,-22.50015 -22.49978,-22.50015 z m 0,15.00023 c 4.155,0 7.49988,3.34492 7.49988,7.49992 v 7.49992 H 300.9999 v -7.49992 c 0,-4.155 3.3453,-7.49992 7.5003,-7.49992 z"
       id="path2294"
       inkscape:connector-curvature="0"
       sodipodi:nodetypes="ssssccssccssssccss" />
    <path
       style="opacity:1;fill:#000000;fill-opacity:1;fill-rule:nonzero;stroke:none;stroke-width:0.35125595;stroke-linecap:square;stroke-linejoin:round;stroke-miterlimit:1.41400003;stroke-dasharray:none;stroke-opacity:1;paint-order:markers stroke fill"
       d="m 226,150.99998 h 15 v 105 h -15 z"
       id="rect2874"
       inkscape:connector-curvature="0" />
    <path
       style="opacity:1;fill:#000000;fill-opacity:1;fill-rule:nonzero;stroke:none;stroke-width:0.35708445;stroke-linecap:square;stroke-linejoin:round;stroke-miterlimit:1.41400003;stroke-dasharray:none;stroke-opacity:1;paint-order:markers stroke fill"
       d="m 270.9999,255.99994 v -58.4998 c 0,-9.141 -7.3591,-16.50016 -16.5001,-16.50016 -9.141,0 -16.4998,7.35916 -16.4998,16.50016 v 58.4998 h 2.9998 v -52.50018 c 0,-4.15499 3.345,-7.49993 7.5,-7.49993 4.155,0 7.5003,3.34494 7.5003,7.49993 v 52.50018 z"
       id="rect2886"
       inkscape:connector-curvature="0"
       sodipodi:nodetypes="csssccssscc" />
    <path
       style="opacity:1;fill:#000000;fill-opacity:1;fill-rule:nonzero;stroke:none;stroke-width:0.14681463;stroke-linecap:square;stroke-linejoin:round;stroke-miterlimit:10;stroke-dasharray:none;stroke-opacity:1;paint-order:stroke fill markers"
       d="m 360.99988,181.0003 c -8.31,0 -14.9999,6.68985 -14.9999,14.99986 v 7.49993 h 14.9999 v -4.49973 c 0,-1.662 1.3382,-3.0002 3.0002,-3.0002 h 8.9998 c 1.662,0 3.0003,1.3382 3.0003,3.0002 v 4.4354 l -21.4271,17.97874 c -5.4344,4.56002 -8.573,11.29138 -8.5731,18.38552 v 1.19999 c 1e-4,8.30993 6.6901,15.00001 15,14.99997 h 9.0001 c 3.324,0 5.9996,-2.67593 5.9996,-6 0,3.32407 2.6764,6 6.0003,6 h 15 c -3.324,4e-5 -5.9996,-2.67596 -5.9996,-6 v -53.99982 c -1e-4,-8.31001 -6.6904,-14.99986 -15.0004,-14.99986 z"
       id="rect815-2-1"
       inkscape:connector-curvature="0"
       sodipodi:nodetypes="ssccsssscccccscscssss" />
    <path
       style="opacity:1;fill:#ff2d05;fill-opacity:1;fill-rule:nonzero;stroke:none;stroke-width:0.23576777;stroke-linecap:square;stroke-linejoin:round;stroke-miterlimit:1.41400003;stroke-dasharray:none;stroke-opacity:1;paint-order:stroke fill markers"
       d="m 364.37498,228.06133 c -2.1398,1.79553 -3.375,4.44535 -3.375,7.2387 v 2.70021 c 0,1.662 1.338,2.99979 3,2.99979 l 9,3e-5 c 1.6621,0 3,-1.33782 3,-2.99984 v -19.69444 z"
       id="path7367-2-5"
       inkscape:connector-curvature="0"
       sodipodi:nodetypes="cscssccc" />
  </g>
</svg>
