<?xml version="1.0" encoding="UTF-8" standalone="no"?>
<!-- Created with Inkscape (http://www.inkscape.org/) -->

<svg
   xmlns:dc="http://purl.org/dc/elements/1.1/"
   xmlns:cc="http://creativecommons.org/ns#"
   xmlns:rdf="http://www.w3.org/1999/02/22-rdf-syntax-ns#"
   xmlns:svg="http://www.w3.org/2000/svg"
   xmlns="http://www.w3.org/2000/svg"
   xmlns:sodipodi="http://sodipodi.sourceforge.net/DTD/sodipodi-0.dtd"
   xmlns:inkscape="http://www.inkscape.org/namespaces/inkscape"
   id="svg17624"
   version="1.1"
   inkscape:version="0.48.2 r9819"
   width="213.78906"
   height="213.78906"
   xml:space="preserve"
   sodipodi:docname="AA.svg"><metadata
     id="metadata17630"><rdf:RDF><cc:Work
         rdf:about=""><dc:format>image/svg+xml</dc:format><dc:type
           rdf:resource="http://purl.org/dc/dcmitype/StillImage" /><dc:title /></cc:Work></rdf:RDF></metadata><defs
     id="defs17628"><inkscape:perspective
       sodipodi:type="inkscape:persp3d"
       inkscape:vp_x="0 : 0.5 : 1"
       inkscape:vp_y="0 : 1000 : 0"
       inkscape:vp_z="1 : 0.5 : 1"
       inkscape:persp3d-origin="0.5 : 0.33333333 : 1"
       id="perspective17632" /><clipPath
       clipPathUnits="userSpaceOnUse"
       id="clipPath17642"><path
         d="m -2,710 501,0 0,-711 -501,0 0,711 z"
         id="path17644"
         inkscape:connector-curvature="0" /></clipPath><clipPath
       clipPathUnits="userSpaceOnUse"
       id="clipPath17648"><path
         d="m 0,708.06 498,0 0,-708 -498,0 0,708 z"
         id="path17650"
         inkscape:connector-curvature="0" /></clipPath><clipPath
       clipPathUnits="userSpaceOnUse"
       id="clipPath17798"><path
         d="m -2,710 501,0 0,-711 -501,0 0,711 z"
         id="path17800"
         inkscape:connector-curvature="0" /></clipPath><clipPath
       clipPathUnits="userSpaceOnUse"
       id="clipPath17804"><path
         d="m 0,708.06 498,0 0,-708 -498,0 0,708 z"
         id="path17806"
         inkscape:connector-curvature="0" /></clipPath><clipPath
       id="Clip0"><path
         inkscape:connector-curvature="0"
         d="m 0,0 212.597,0 0,269.292 L 0,269.292 0,0 z"
         transform="translate(0.923828,0.879883)"
         id="path7" /></clipPath><clipPath
       id="Clip0-8"><path
         inkscape:connector-curvature="0"
         d="m 0,0 170.079,0 0,113.386 L 0,113.386 0,0 z"
         transform="translate(0.0986328,0.822266)"
         id="path7-8" /></clipPath><clipPath
       id="Clip0-1"><path
         inkscape:connector-curvature="0"
         d="m 0,0 287.009,0 0,159.449 L 0,159.449 0,0 z"
         transform="translate(0.396484,0.267578)"
         id="path7-7" /></clipPath></defs><sodipodi:namedview
     pagecolor="#ffffff"
     bordercolor="#666666"
     borderopacity="1"
     objecttolerance="10"
     gridtolerance="10"
     guidetolerance="10"
     inkscape:pageopacity="0"
     inkscape:pageshadow="2"
     inkscape:window-width="1280"
     inkscape:window-height="1004"
     id="namedview17626"
     showgrid="false"
     inkscape:zoom="1.0011299"
     inkscape:cx="162.69395"
     inkscape:cy="55.684258"
     inkscape:window-x="-8"
     inkscape:window-y="-8"
     inkscape:window-maximized="1"
     inkscape:current-layer="g17634"
     fit-margin-top="0"
     fit-margin-left="0"
     fit-margin-right="0"
     fit-margin-bottom="0"
     showguides="true"
     inkscape:guide-bbox="true" /><g
     id="g17634"
     inkscape:groupmode="layer"
     inkscape:label="GG1999P002"
     transform="matrix(1.25,0,0,-1.25,460.74219,-37.851562)"><path
       inkscape:connector-curvature="0"
       style="fill:#ffffff;fill-rule:nonzero;stroke:#000000;stroke-width:0.95999998;stroke-miterlimit:4;stroke-opacity:1;stroke-dasharray:none"
       d="m -368.12207,-47.75878 c 0,9.39355 7.61523,17.0078 17.0088,17.0078 l 136.0632,0 c 9.393,0 17.008,-7.61425 17.008,-17.0078 l 0,-136.0632 c 0,-9.393 -7.615,-17.008 -17.008,-17.008 l -136.0632,0 c -9.39357,0 -17.0088,7.615 -17.0088,17.008 l 0,136.0632 z"
       id="path11" /><path
       inkscape:connector-curvature="0"
       style="fill:#c0111e;fill-opacity:1;fill-rule:nonzero;stroke:none"
       d="m -365.28711,-47.758764 c 0,7.8281 6.3457,14.1738 14.1728,14.1738 l 136.0642,0 c 7.828,0 14.173,-6.3457 14.173,-14.1738 l 0,-136.063196 c 0,-7.828 -6.345,-14.173 -14.173,-14.173 l -136.0642,0 c -7.8271,0 -14.1728,6.345 -14.1728,14.173 l 0,136.063196 z"
       id="path13" /><path
       inkscape:connector-curvature="0"
       style="fill:#ffffff;fill-rule:nonzero;stroke:none"
       d="m -361.03516,-47.758798 c 0,5.4795 4.44146,9.92189 9.92086,9.92189 l 136.06414,0 c 5.479,0 9.921,-4.44239 9.921,-9.92189 l 0,-136.063112 c 0,-5.479 -4.442,-9.921 -9.921,-9.921 l -136.06414,0 c -5.4794,0 -9.92086,4.442 -9.92086,9.921 l 0,136.063112 z"
       id="path15" /><path
       inkscape:connector-curvature="0"
       style="fill:#000000;fill-rule:evenodd;stroke:none"
       d="m -328.085,-175.9135 c 4.376,0 7.5508,1.883 9.5235,5.647 1.5429,2.948 2.3135,6.962 2.3135,12.042 0,5.147 -1.0098,9.331 -3.0274,12.552 -2.1318,3.401 -5.0683,5.101 -8.8096,5.101 -7.9824,0 -11.9736,-5.885 -11.9736,-17.653 0,-6.01 1.1104,-10.523 3.333,-13.538 2.041,-2.768 4.9209,-4.151 8.6406,-4.151 z m 0,5.374 c -4.4453,0 -6.6679,4.106 -6.6679,12.315 0,4.286 0.5674,7.403 1.7011,9.353 1.0655,1.861 2.7217,2.789 4.9668,2.789 4.2178,0 6.3262,-4.046 6.3262,-12.142 0,-4.309 -0.5215,-7.461 -1.5644,-9.457 -1.0205,-1.904 -2.6075,-2.858 -4.7618,-2.858 z"
       id="path29" /><path
       inkscape:connector-curvature="0"
       style="fill:#000000;fill-rule:nonzero;stroke:none"
       d="m -308.3906,-141.2505 0,-34.016 5.2724,0 0,21.974 12.9258,-21.974 4.5576,0 0,34.016 -5.374,0 0,-22.145 -12.9258,22.145 -4.456,0 z"
       id="path31" /><path
       inkscape:connector-curvature="0"
       style="fill:#000000;fill-rule:nonzero;stroke:none"
       d="m -277.7764,-141.2505 0,-34.016 20.7489,0 0,5 -15.5448,0 0,29.016 -5.2041,0 z"
       id="path33" /><path
       inkscape:connector-curvature="0"
       style="fill:#000000;fill-rule:nonzero;stroke:none"
       d="m -254.9855,-141.2505 11.94,-19.389 0,-14.627 5.272,0 0,14.627 11.701,19.389 -6.26,0 -8.197,-13.199 -8.095,13.199 -6.361,0 z"
       id="path35" /><path
       inkscape:connector-curvature="0"
       style="fill:#000000;fill-rule:nonzero;stroke:none"
       d="m -263.9365,-69.4043 2.187,4.4307 2.151,0.4013 1.029,5.584 c 0,0 -9.168,0.6494 -16.6336,0.7022 -1.128,0.0078 -2.0928,-0.7803 -2.1758,-1.9043 -0.1387,-1.8877 2.1211,-2.6973 4.0615,-3.4209 2.168,-0.8076 5.2629,-1.6026 5.2629,-1.6026 l -0.641,-1.5097 -21.8416,0 0,1.2695 -4.0606,2.3184 c 0,0 -0.7236,0.3759 -0.7216,0.7939 0.002,0.46 0.3457,0.7588 0.8818,0.7842 l 6.6553,0 0,5.2949 -8.5948,0 c -3.1386,-0.2422 -5.4814,-2.7334 -5.5292,-5.8818 -0.0352,-2.2998 0.871,-3.961 2.8232,-5.1768 l 0,-1.6504 -4.957,-13.4834 c -2.0879,0.9746 -4.3789,1.5196 -6.8164,1.5196 -8.8428,0 -16.0098,-7.168 -16.0098,-16.0098 0,-8.8418 7.167,-16.0098 16.0098,-16.0098 8.8418,0 16.0087,7.168 16.0087,16.0098 0,4.2842 -1.6826,8.1748 -4.4179,11.0478 l 1.3681,3.587 12.2403,-11.8086 c -0.7969,-3.4219 1.6855,-6.96 5.1748,-7.375 2.5752,-0.3067 4.6465,0.9277 5.9463,3.1718 l 3.2959,0 c 0.7949,-8.0986 7.6247,-14.6328 15.9317,-14.6328 8.842,0 16.01,7.168 16.01,16.0098 0,8.8418 -7.168,16.0098 -16.01,16.0098 -1.081,0 -2.134,-0.1075 -3.153,-0.3125 l -5.475,11.8437 z"
       id="path17" /><path
       inkscape:connector-curvature="0"
       style="fill:#ffffff;fill-rule:nonzero;stroke:none"
       d="m -302.2539,-89.5244 c 1.7158,-1.9912 2.7559,-4.585 2.7559,-7.4209 0,-6.2735 -5.086,-11.3584 -11.3584,-11.3584 -6.2735,0 -11.3594,5.0849 -11.3594,11.3584 0,6.2734 5.0859,11.3584 11.3594,11.3584 1.458,0 2.833,-0.2744 4.1328,-0.7754 l -5.4815,-7.8106 c -0.8838,-1.04 -0.6553,-2.7031 0.4756,-3.4667 0.9873,-0.6661 2.2227,-0.5254 3.0342,0.3466 l 6.4414,7.7686 z"
       id="path19" /><path
       inkscape:connector-curvature="0"
       style="fill:#ffffff;fill-rule:nonzero;stroke:none"
       d="m -294.2197,-72.0518 23.1689,0 -8.123,-17.5468 -3.1631,-0.21 -13.5918,13.1055 1.709,4.6513 z"
       id="path21" /><path
       inkscape:connector-curvature="0"
       style="fill:#ffffff;fill-rule:nonzero;stroke:none"
       d="m -270.8311,-93.0088 c 0.6856,2.7129 1.7295,4.833 3.9316,7.1113 1.171,1.211 1.945,1.8164 3.403,2.6602 l -2.758,6.2334 c -0.075,0.2617 -0.278,0.4209 -0.549,0.4307 -0.245,0.0087 -0.431,-0.0987 -0.545,-0.3155 l -7.0128,-15.1728 c -0.1524,-0.333 -0.3037,-0.6221 -0.2198,-0.791 0.0694,-0.1416 0.2774,-0.168 0.5069,-0.1563 l 3.2431,0 z"
       id="path23" /><path
       inkscape:connector-curvature="0"
       style="fill:#ffffff;fill-rule:nonzero;stroke:none"
       d="m -256.4855,-85.6475 c 0.387,0.0401 0.779,0.0606 1.177,0.0606 6.273,0 11.358,-5.085 11.358,-11.3584 0,-6.2735 -5.085,-11.3584 -11.358,-11.3584 -5.742,0 -10.508,4.457 -11.251,9.9892 l 10.212,-0.0078 c 1.463,0 2.764,0.043 3.606,1.2735 0.812,1.1875 0.6,2.1836 -0.02,3.4912 l -3.724,7.9101 z"
       id="path25" /><path
       inkscape:connector-curvature="0"
       style="fill:#ffffff;fill-rule:nonzero;stroke:none"
       d="m -265.9705,-93.0215 c 0.834,2.2666 2.37,4.1924 4.344,5.5166 l 2.281,-4.7676 c 0.097,-0.1992 0.161,-0.3632 0.047,-0.5429 -0.112,-0.1758 -0.267,-0.1992 -0.496,-0.1934 l -6.176,-0.0127 z"
       id="path27" /></g></svg>