<?xml version="1.0" encoding="UTF-8" standalone="no"?>
<svg
   xmlns:dc="http://purl.org/dc/elements/1.1/"
   xmlns:cc="http://creativecommons.org/ns#"
   xmlns:rdf="http://www.w3.org/1999/02/22-rdf-syntax-ns#"
   xmlns:svg="http://www.w3.org/2000/svg"
   xmlns="http://www.w3.org/2000/svg"
   xmlns:sodipodi="http://sodipodi.sourceforge.net/DTD/sodipodi-0.dtd"
   xmlns:inkscape="http://www.inkscape.org/namespaces/inkscape"
   id="Nederlands_verkeersbord_F7"
   width="307.875"
   height="410.23749"
   viewBox="0 0 307.875 410.23749"
   version="1.1"
   inkscape:version="0.48.2 r9819"
   sodipodi:docname="AJAX1.svg">
  <metadata
     id="metadata9">
    <rdf:RDF>
      <cc:Work
         rdf:about="">
        <dc:format>image/svg+xml</dc:format>
        <dc:type
           rdf:resource="http://purl.org/dc/dcmitype/StillImage" />
        <dc:title />
      </cc:Work>
    </rdf:RDF>
  </metadata>
  <defs
     id="defs7" />
  <sodipodi:namedview
     pagecolor="#ffffff"
     bordercolor="#666666"
     borderopacity="1"
     objecttolerance="10"
     gridtolerance="10"
     guidetolerance="10"
     inkscape:pageopacity="0"
     inkscape:pageshadow="2"
     inkscape:window-width="1280"
     inkscape:window-height="1004"
     id="namedview5"
     showgrid="false"
     fit-margin-top="0.3"
     fit-margin-left="0"
     fit-margin-right="0"
     fit-margin-bottom="0"
     inkscape:zoom="1.2727732"
     inkscape:cx="181.45218"
     inkscape:cy="97.594237"
     inkscape:window-x="-8"
     inkscape:window-y="-8"
     inkscape:window-maximized="1"
     inkscape:current-layer="Nederlands_verkeersbord_F7" />
  <path
     inkscape:connector-curvature="0"
     d="m 31.329805,409.24275 245.263905,0 c 16.8335,0 30.2894,-13.45597 30.2894,-30.28948 l 0,-347.31989 c 0,-16.83351 -13.4559,-30.32284 -30.2894,-30.32284 l -245.263905,0 c -16.8377,0 -30.326999,13.48933 -30.326999,30.32284 l 0,347.31989 c 0,16.83351 13.489299,30.28948 30.326999,30.28948 z"
     style="fill:#ffffff;fill-opacity:1;fill-rule:evenodd;stroke:#000000;stroke-width:2;stroke-linecap:butt;stroke-linejoin:miter;stroke-miterlimit:8.52033329;stroke-opacity:1;stroke-dasharray:none"
     id="path5403" />
  <path
     inkscape:connector-curvature="0"
     d="m 31.329805,404.06385 245.263905,0 c 13.9938,0 25.1064,-11.1167 25.1064,-25.11058 l 0,-347.31573 c 0,-13.99387 -11.1126,-25.1481 -25.1064,-25.1481 l -245.263905,0 c -13.9939,0 -25.143899,11.15423 -25.143899,25.1481 l 0,347.31573 c 0,13.99388 11.149999,25.11058 25.143899,25.11058"
     style="fill:#000000;fill-opacity:1;fill-rule:evenodd;stroke:none"
     id="path5407" />
  <path
     inkscape:connector-curvature="0"
     d="m 31.329805,393.95624 245.263905,0 c 8.2729,0 15.0363,-6.7259 15.0363,-14.9988 l 0,-347.3199 c 0,-8.31042 -6.7634,-15.03631 -15.0363,-15.03631 l -245.263905,0 c -8.3104,0 -15.0363,6.72589 -15.0363,15.03631 l 0,347.3199 c 0,8.2729 6.7259,14.9988 15.0363,14.9988"
     style="fill:#ffffff;fill-opacity:1;fill-rule:evenodd;stroke:none"
     id="path5411" />
  <path
     inkscape:connector-curvature="0"
     d="m 124.02881,105.70166 53.0941,0 -17.8759,49.96679 -4.641,0.28789 -34.968,-40.43462 4.3908,-9.8199 z m -20.7198,46.62261 -16.837705,26.40322 c -2.8396,4.13645 -15.5366,-2.84382 -11.9048,-8.81497 l 15.5409,-25.36078 c -2.3392,-1.29263 -5.1831,-1.29263 -8.5648,-1.29263 -16.5458,0 -30.0351,13.99387 -30.0351,30.28947 0,17.0837 13.4893,30.57303 30.0351,30.57303 16.8377,0 30.327005,-13.48933 30.327005,-30.57303 0,-7.77251 -2.8396,-15.54087 -8.5606,-21.22431 z m 92.4863,27.44567 28.7425,0 c 2.8397,0 9.3154,-4.13645 8.0227,-6.22136 l -15.0363,-29.78492 c 2.3351,-0.50455 5.4666,-0.75891 8.3063,-0.75891 16.5833,0 30.5438,13.45597 30.5438,30.03929 0,16.83351 -13.9605,30.28948 -30.5438,30.28948 -13.9897,0 -26.691,-10.10761 -30.0352,-23.56358 z m 8.7775,-28.23793 7.268,12.94725 -15.0405,0 c 1.0466,-5.17891 3.8862,-9.81572 7.7725,-12.94725 z m 7.268,-19.67732 -12.7013,-33.92139 c 1.2968,-3.63606 3.3817,-6.4757 4.4242,-8.81496 0.5045,-0.79226 1.2968,-1.79719 2.0515,-1.79719 1.2927,-0.79227 3.3818,0 4.1365,-1.58453 l 2.0891,-12.6637 -2.0891,-2.0849 -39.1003,0 c -1.8014,0 -4.1364,2.84381 -3.3483,4.67853 3.5985,3.59437 10.3619,8.77326 16.0454,10.86233 1.0424,0.79227 0.7922,4.13645 -0.5046,4.13645 l -48.9577,0 -0.7922,-4.13645 -11.4045,-7.77252 1.0425,-2.83963 18.3847,0 0,-13.48933 -26.1531,0 c -12.4093,0 -19.172705,11.40443 -8.0227,22.80468 2.3393,2.58944 6.9803,4.92871 5.6835,9.06516 l -14.998805,37.55745 0,1.29264 c -4.9287,-2.0849 -10.362,-3.38172 -16.083,-3.38172 -23.5594,0 -43.2367,19.71486 -43.2367,43.78297 0,24.35168 19.6773,44.029 43.2367,44.029 24.606105,0 43.783005,-19.67732 43.783005,-44.029 0,-12.70122 -5.4333,-24.60603 -13.9939,-32.62873 l 2.5895,-13.45597 30.8274,38.31219 c -2.3393,23.56357 23.8513,31.33192 31.6196,13.99387 l 5.9378,0 c 3.3817,20.97412 21.2577,37.05291 43.5245,37.05291 24.0681,0 43.4953,-19.71486 43.4953,-43.77881 0,-24.10149 -19.4272,-43.52861 -43.4953,-43.52861 -4.9246,0 -10.3578,0.25018 -13.9897,2.33926 z m -28.9969,32.62457 -5.721,0 -2.8396,-3.6319 17.0879,-44.029 7.0136,21.51203 c -8.3104,6.97609 -13.4893,16.33315 -15.5409,26.14887"
     style="fill:#000000;fill-opacity:1;fill-rule:evenodd;stroke:none"
     id="path5415" />
  <path
     inkscape:connector-curvature="0"
     d="m 59.038205,348.12589 c -19.056,0 -23.3217,-18.147 -23.3217,-40.35122 0,-22.20422 4.9995,-40.35122 23.3217,-40.35122 18.3221,0 23.3217,18.147 23.3217,40.35122 0,22.20422 -4.2657,40.35122 -23.3217,40.35122 z m 0,-10.73308 c 9.8616,0 12.0299,-13.32253 12.0299,-29.61814 0,-16.29144 -2.5895,-29.68486 -12.0299,-29.68486 -9.4405,0 -12.0299,13.39342 -12.0299,29.68486 0,16.29561 2.1683,29.61814 12.0299,29.61814"
     style="fill:#000000;fill-opacity:1;fill-rule:evenodd;stroke:none"
     id="path5419" />
  <path
     inkscape:connector-curvature="0"
     d="m 101.73281,267.42345 11.2252,0 21.7121,46.64346 0,-46.64346 11.1876,0 0,80.70244 -8.5981,0 -24.3016,-52.69384 0,52.69384 -11.2252,0 0,-80.70244"
     style="fill:#000000;fill-opacity:1;fill-rule:evenodd;stroke:none"
     id="path5423" />
  <path
     inkscape:connector-curvature="0"
     d="m 170.96411,267.42345 10.9083,0 0,70.03608 29.443,0 0,10.66636 -40.3513,0 0,-80.70244"
     style="fill:#000000;fill-opacity:1;fill-rule:evenodd;stroke:none"
     id="path5427" />
  <path
     inkscape:connector-curvature="0"
     d="m 221.69821,267.42345 12.5177,0 12.7263,28.74248 12.5178,-28.74248 12.6594,0 -19.1977,44.05818 0,36.64426 -11.2918,0 0,-36.64426 -19.9317,-44.05818"
     style="fill:#000000;fill-opacity:1;fill-rule:evenodd;stroke:none"
     id="path5431" />
</svg>
