<?xml version="1.0" encoding="UTF-8" standalone="no"?>
<svg
   xmlns:dc="http://purl.org/dc/elements/1.1/"
   xmlns:cc="http://creativecommons.org/ns#"
   xmlns:rdf="http://www.w3.org/1999/02/22-rdf-syntax-ns#"
   xmlns:svg="http://www.w3.org/2000/svg"
   xmlns="http://www.w3.org/2000/svg"
   xmlns:sodipodi="http://sodipodi.sourceforge.net/DTD/sodipodi-0.dtd"
   xmlns:inkscape="http://www.inkscape.org/namespaces/inkscape"
   id="Nederlands_verkeersbord_F7"
   width="308.875"
   height="411.36249"
   viewBox="0 0 308.875 411.36249"
   version="1.1"
   inkscape:version="0.48.2 r9819"
   sodipodi:docname="AJAX1.svg">
  <metadata
     id="metadata9">
    <rdf:RDF>
      <cc:Work
         rdf:about="">
        <dc:format>image/svg+xml</dc:format>
        <dc:type
           rdf:resource="http://purl.org/dc/dcmitype/StillImage" />
        <dc:title />
      </cc:Work>
    </rdf:RDF>
  </metadata>
  <defs
     id="defs7" />
  <sodipodi:namedview
     pagecolor="#ffffff"
     bordercolor="#666666"
     borderopacity="1"
     objecttolerance="10"
     gridtolerance="10"
     guidetolerance="10"
     inkscape:pageopacity="0"
     inkscape:pageshadow="2"
     inkscape:window-width="1280"
     inkscape:window-height="1004"
     id="namedview5"
     showgrid="false"
     fit-margin-top="0.3"
     fit-margin-left="0"
     fit-margin-right="0"
     fit-margin-bottom="0"
     inkscape:zoom="1.2727732"
     inkscape:cx="307.2073"
     inkscape:cy="178.28551"
     inkscape:window-x="-8"
     inkscape:window-y="-8"
     inkscape:window-maximized="1"
     inkscape:current-layer="Nederlands_verkeersbord_F7" />
  <path
     inkscape:connector-curvature="0"
     d="m 31.464786,410.35628 245.901874,0 c 16.97944,0 30.49796,-13.51852 30.49796,-30.47295 l 0,-348.074639 c 0,-16.64169 -13.51852,-30.49379 -30.49796,-30.49379 l -245.901874,0 c -16.62082,0 -30.47294932,13.8521 -30.47294932,30.49379 l 0,348.074639 c 0,16.95443 13.85212932,30.47295 30.47294932,30.47295 z"
     style="fill:#ffffff;fill-opacity:1;fill-rule:evenodd;stroke:#000000;stroke-width:2;stroke-linecap:butt;stroke-linejoin:miter;stroke-miterlimit:8.52033329;stroke-opacity:1;stroke-dasharray:none"
     id="path3373" />
  <path
     inkscape:connector-curvature="0"
     d="m 31.464786,405.1607 245.901874,0 c 13.85209,0 24.93961,-11.42527 24.93961,-25.27737 l 0,-348.074639 c 0,-13.85209 -11.08752,-24.93961 -24.93961,-24.93961 l -245.901874,0 c -13.85207,0 -24.9187692,11.08752 -24.9187692,24.93961 l 0,348.074639 c 0,13.8521 11.0666992,25.27737 24.9187692,25.27737"
     style="fill:#000000;fill-opacity:1;fill-rule:evenodd;stroke:none"
     id="path3377" />
  <path
     inkscape:connector-curvature="0"
     d="m 31.464786,394.07318 245.901874,0 c 7.98518,0 14.21487,-6.22969 14.21487,-14.18985 l 0,-348.074639 c 0,-7.98518 -6.22969,-14.2107 -14.21487,-14.2107 l -245.901874,0 c -7.96013,0 -14.18982,6.22552 -14.18982,14.2107 l 0,348.074639 c 0,7.96016 6.22969,14.18985 14.18982,14.18985"
     style="fill:#ffffff;fill-opacity:1;fill-rule:evenodd;stroke:none"
     id="path3381" />
  <path
     inkscape:connector-curvature="0"
     d="m 124.3014,106.08129 53.32348,0 -18.18453,50.41297 -4.32826,0.16679 -35.50176,-40.69732 4.69107,-9.88244 z m -20.78236,47.11466 -17.146243,26.48244 c -2.76458,4.32825 -15.24899,-2.59779 -11.61708,-8.82748 l 15.58673,-25.44417 c -2.93554,-1.03411 -5.70012,-1.23009 -8.82748,-1.23009 -16.9586,0 -30.472951,13.85628 -30.472951,30.49797 0,16.78764 13.514351,30.47295 30.472991,30.47295 16.81262,0 30.472913,-13.68531 30.472913,-30.47295 0,-8.15197 -3.10233,-15.77855 -8.46888,-21.47867 z m 93.15351,27.34975 28.74248,0 c 3.12735,0 9.35288,-3.96965 8.31876,-6.22969 l -15.05299,-29.6098 c 2.4018,-0.52956 5.36236,-1.39271 7.96016,-1.39271 16.95443,0 30.81069,13.8521 30.81069,30.83156 0,16.78764 -13.85626,30.47295 -30.81069,30.47295 -14.21489,0 -26.67426,-10.22021 -29.96841,-24.07231 z m 8.65652,-28.38387 7.45979,13.3267 -15.25317,0 c 1.2301,-5.36236 4.16148,-9.86158 7.79338,-13.3267 z m 7.097,-19.91082 -12.45937,-33.96308 c 1.20507,-3.26913 3.46511,-6.39649 4.66601,-9.33203 0.36278,-0.52956 1.22593,-1.39272 1.73047,-1.56367 1.39688,-0.69636 3.46511,0 4.33242,-1.39273 l 2.09326,-12.63034 -1.90144,-2.59362 -39.6632,0 c -1.5595,0 -4.49506,3.46094 -3.12318,4.8328 3.62773,3.99052 10.0534,9.0193 15.94534,11.08753 1.20089,0.86731 0.50454,4.32825 -0.52958,4.32825 l -49.52061,0 -0.52956,-4.32825 -11.59623,-7.62659 1.20507,-2.93136 18.35132,0 0,-13.51852 -26.14468,0 c -12.81803,0 -19.047723,11.61708 -8.29795,22.87556 2.40601,2.40181 6.73427,4.83281 5.53336,9.33203 l -14.719453,37.75759 0,0.86733 c -5.02878,-1.90143 -10.72891,-2.93554 -16.2831,-2.93554 -24.076471,0 -43.628681,19.72318 -43.628681,44.15825 0,24.41422 19.55221,44.15826 43.628681,44.15826 24.601873,0 44.158303,-19.74404 44.158303,-44.15826 0,-13.18075 -5.36238,-24.93961 -14.36082,-32.89977 l 2.59779,-13.68531 31.34026,38.43311 c -2.59778,23.9055 23.54689,31.69888 31.86982,14.02305 l 5.86692,0 c 3.29415,21.47451 21.64547,37.75761 43.65372,37.75761 24.41005,0 44.32504,-20.08178 44.32504,-44.15825 0,-24.41005 -19.91499,-44.15826 -44.32504,-44.15826 -4.85783,0 -9.88662,0.52957 -14.21489,2.26421 z m -29.08022,33.23752 -5.72097,0 -2.5978,-3.99466 17.14625,-43.96646 6.93022,21.98323 c -7.96434,6.75925 -13.68531,15.92449 -15.7577,25.97789"
     style="fill:#000000;fill-opacity:1;fill-rule:evenodd;stroke:none"
     id="path3385" />
  <path
     inkscape:connector-curvature="0"
     d="m 37.882106,267.60294 10.99995,0 0,70.66988 29.726591,0 0,10.77896 -40.726541,0 0,-81.44884"
     style="fill:#000000;fill-opacity:1;fill-rule:evenodd;stroke:none"
     id="path3389" />
  <path
     inkscape:connector-curvature="0"
     d="m 109.66534,315.32638 11.55457,0 -6.16714,-22.05828 -5.3874,22.05828 z m -19.723154,33.7254 19.723154,-81.44884 11.55457,0 19.61477,81.44884 -11.39195,0 -5.44159,-22.22508 -16.2789,0 -5.5,22.22508 -12.280084,0"
     style="fill:#000000;fill-opacity:1;fill-rule:evenodd;stroke:none"
     id="path3393" />
  <path
     inkscape:connector-curvature="0"
     d="m 159.99909,267.60294 11.33354,0 21.8915,47.06044 0,-47.06044 11.33353,0 0,81.44884 -8.72324,0 -24.50179,-53.16922 0,53.16922 -11.33354,0 0,-81.44884"
     style="fill:#000000;fill-opacity:1;fill-rule:evenodd;stroke:none"
     id="path3397" />
  <path
     inkscape:connector-curvature="0"
     d="m 229.8934,267.60294 39.33379,0 0,12.11329 -27.61245,0 0,20.22356 16.44571,0 0,10.77895 -16.44571,0 0,26.83271 29.00517,0 0,11.50033 -40.72651,0 0,-81.44884"
     style="fill:#000000;fill-opacity:1;fill-rule:evenodd;stroke:none"
     id="path3401" />
</svg>
