<?xml version="1.0" encoding="UTF-8" standalone="no"?>
<!-- Created with Inkscape (http://www.inkscape.org/) -->

<svg
   xmlns:dc="http://purl.org/dc/elements/1.1/"
   xmlns:cc="http://creativecommons.org/ns#"
   xmlns:rdf="http://www.w3.org/1999/02/22-rdf-syntax-ns#"
   xmlns:svg="http://www.w3.org/2000/svg"
   xmlns="http://www.w3.org/2000/svg"
   xmlns:sodipodi="http://sodipodi.sourceforge.net/DTD/sodipodi-0.dtd"
   xmlns:inkscape="http://www.inkscape.org/namespaces/inkscape"
   id="svg17624"
   version="1.1"
   inkscape:version="0.48.2 r9819"
   width="213.78906"
   height="213.82812"
   xml:space="preserve"
   sodipodi:docname="AA.svg"><metadata
     id="metadata17630"><rdf:RDF><cc:Work
         rdf:about=""><dc:format>image/svg+xml</dc:format><dc:type
           rdf:resource="http://purl.org/dc/dcmitype/StillImage" /><dc:title /></cc:Work></rdf:RDF></metadata><defs
     id="defs17628"><inkscape:perspective
       sodipodi:type="inkscape:persp3d"
       inkscape:vp_x="0 : 0.5 : 1"
       inkscape:vp_y="0 : 1000 : 0"
       inkscape:vp_z="1 : 0.5 : 1"
       inkscape:persp3d-origin="0.5 : 0.33333333 : 1"
       id="perspective17632" /><clipPath
       clipPathUnits="userSpaceOnUse"
       id="clipPath17642"><path
         d="m -2,710 501,0 0,-711 -501,0 0,711 z"
         id="path17644"
         inkscape:connector-curvature="0" /></clipPath><clipPath
       clipPathUnits="userSpaceOnUse"
       id="clipPath17648"><path
         d="m 0,708.06 498,0 0,-708 -498,0 0,708 z"
         id="path17650"
         inkscape:connector-curvature="0" /></clipPath><clipPath
       clipPathUnits="userSpaceOnUse"
       id="clipPath17798"><path
         d="m -2,710 501,0 0,-711 -501,0 0,711 z"
         id="path17800"
         inkscape:connector-curvature="0" /></clipPath><clipPath
       clipPathUnits="userSpaceOnUse"
       id="clipPath17804"><path
         d="m 0,708.06 498,0 0,-708 -498,0 0,708 z"
         id="path17806"
         inkscape:connector-curvature="0" /></clipPath><clipPath
       id="Clip0"><path
         inkscape:connector-curvature="0"
         d="m 0,0 212.597,0 0,269.292 L 0,269.292 0,0 z"
         transform="translate(0.923828,0.879883)"
         id="path7" /></clipPath><clipPath
       id="Clip0-8"><path
         inkscape:connector-curvature="0"
         d="m 0,0 170.079,0 0,113.386 L 0,113.386 0,0 z"
         transform="translate(0.0986328,0.822266)"
         id="path7-8" /></clipPath><clipPath
       id="Clip0-1"><path
         inkscape:connector-curvature="0"
         d="m 0,0 287.009,0 0,159.449 L 0,159.449 0,0 z"
         transform="translate(0.396484,0.267578)"
         id="path7-7" /></clipPath></defs><sodipodi:namedview
     pagecolor="#ffffff"
     bordercolor="#666666"
     borderopacity="1"
     objecttolerance="10"
     gridtolerance="10"
     guidetolerance="10"
     inkscape:pageopacity="0"
     inkscape:pageshadow="2"
     inkscape:window-width="1280"
     inkscape:window-height="1004"
     id="namedview17626"
     showgrid="false"
     inkscape:zoom="1.0011299"
     inkscape:cx="163.12364"
     inkscape:cy="55.996757"
     inkscape:window-x="-8"
     inkscape:window-y="-8"
     inkscape:window-maximized="1"
     inkscape:current-layer="g17634"
     fit-margin-top="0"
     fit-margin-left="0"
     fit-margin-right="0"
     fit-margin-bottom="0"
     showguides="true"
     inkscape:guide-bbox="true" /><g
     id="g17634"
     inkscape:groupmode="layer"
     inkscape:label="GG1999P002"
     transform="matrix(1.25,0,0,-1.25,461.17187,-38.125)"><path
       inkscape:connector-curvature="0"
       style="fill:#ffffff;fill-rule:nonzero;stroke:#000000;stroke-width:0.95999998;stroke-miterlimit:4;stroke-opacity:1;stroke-dasharray:none"
       d="m -368.45117,-47.999988 c 0,9.39354 7.61426,17.0078 17.0078,17.0078 l 136.0632,0 c 9.392,0 17.008,-7.61426 17.008,-17.0078 l 0,-136.062202 c 0,-9.394 -7.616,-17.009 -17.008,-17.009 l -136.0632,0 c -9.39354,0 -17.0078,7.615 -17.0078,17.009 l 0,136.062202 z"
       id="path11" /><path
       inkscape:connector-curvature="0"
       style="fill:#c0111e;fill-opacity:1;fill-rule:nonzero;stroke:none"
       d="m -365.61621,-48.000048 c 0,7.82817 6.34473,14.1729 14.1729,14.1729 l 136.0631,0 c 7.827,0 14.173,-6.34473 14.173,-14.1729 l 0,-136.063102 c 0,-7.827 -6.346,-14.173 -14.173,-14.173 l -136.0631,0 c -7.82817,0 -14.1729,6.346 -14.1729,14.173 l 0,136.063102 z"
       id="path13-4" /><path
       inkscape:connector-curvature="0"
       style="fill:#ffffff;fill-rule:nonzero;stroke:none"
       d="m -361.36426,-48 c 0,5.4795 4.44141,9.9209 9.92091,9.9209 l 136.06309,0 c 5.479,0 9.922,-4.4414 9.922,-9.9209 l 0,-136.0621 c 0,-5.479 -4.443,-9.922 -9.922,-9.922 l -136.06309,0 c -5.4795,0 -9.92091,4.443 -9.92091,9.922 l 0,136.0621 z"
       id="path15" /><path
       inkscape:connector-curvature="0"
       style="fill:#000000;fill-rule:nonzero;stroke:none"
       d="m -264.26675,-69.6465 2.188,4.4317 2.151,0.4003 1.029,5.584 c 0,0 -9.168,0.6504 -16.6345,0.7022 -1.1269,0.0078 -2.0917,-0.7793 -2.1748,-1.9043 -0.1396,-1.8877 2.1211,-2.6963 4.0606,-3.4199 2.168,-0.8086 5.2637,-1.6036 5.2637,-1.6036 l -0.6407,-1.5087 -21.8418,0 0,1.2685 -4.0615,2.3184 c 0,0 -0.7236,0.3759 -0.7207,0.7949 0.002,0.46 0.3457,0.7578 0.8809,0.7842 l 6.6562,0 0,5.2949 -8.5947,0 c -3.1397,-0.2422 -5.4814,-2.7344 -5.5293,-5.8818 -0.0352,-2.2998 0.8711,-3.962 2.8232,-5.1778 l 0,-1.6494 -4.958,-13.4844 c -2.0869,0.9746 -4.3779,1.5196 -6.8164,1.5196 -8.8418,0 -16.0097,-7.168 -16.0097,-16.0098 0,-8.8418 7.1679,-16.0098 16.0097,-16.0098 8.8418,0 16.0098,7.168 16.0098,16.0098 0,4.2842 -1.6826,8.1748 -4.418,11.0479 l 1.3682,3.5878 12.2402,-11.8086 c -0.7969,-3.4228 1.6856,-6.9599 5.1748,-7.3759 2.5742,-0.3057 4.6465,0.9287 5.9463,3.1718 l 3.2949,0 c 0.7959,-8.0976 7.6246,-14.6328 15.9326,-14.6328 8.842,0 16.01,7.168 16.01,16.0098 0,8.8418 -7.168,16.0098 -16.01,16.0098 -1.082,0 -2.135,-0.1075 -3.153,-0.3116 l -5.476,11.8428 z"
       id="path17" /><path
       inkscape:connector-curvature="0"
       style="fill:#ffffff;fill-rule:nonzero;stroke:none"
       d="m -302.58395,-89.7666 c 1.7168,-1.9902 2.7558,-4.584 2.7558,-7.4209 0,-6.2734 -5.0849,-11.3584 -11.3584,-11.3584 -6.2734,0 -11.3584,5.085 -11.3584,11.3584 0,6.2734 5.085,11.3584 11.3584,11.3584 1.459,0 2.833,-0.2744 4.1338,-0.7754 l -5.4824,-7.8096 c -0.8828,-1.041 -0.6543,-2.7031 0.4766,-3.4668 0.9863,-0.667 2.2216,-0.5254 3.0332,0.3457 l 6.4414,7.7686 z"
       id="path19" /><path
       inkscape:connector-curvature="0"
       style="fill:#ffffff;fill-rule:nonzero;stroke:none"
       d="m -294.54885,-72.2939 23.169,0 -8.1241,-17.5459 -3.1621,-0.211 -13.5918,13.1055 1.709,4.6514 z"
       id="path21" /><path
       inkscape:connector-curvature="0"
       style="fill:#ffffff;fill-rule:nonzero;stroke:none"
       d="m -271.16015,-93.251 c 0.6855,2.7129 1.7285,4.834 3.9304,7.1123 1.171,1.211 1.946,1.8164 3.404,2.6602 l -2.758,6.2334 c -0.074,0.2617 -0.278,0.4209 -0.55,0.4297 -0.245,0.0088 -0.43,-0.0977 -0.545,-0.3155 l -7.0117,-15.1718 c -0.1533,-0.333 -0.3037,-0.6231 -0.2207,-0.792 0.0694,-0.1407 0.2774,-0.167 0.5069,-0.1553 l 3.2441,-9.6e-4 z"
       id="path23" /><path
       inkscape:connector-curvature="0"
       style="fill:#ffffff;fill-rule:nonzero;stroke:none"
       d="m -256.81475,-85.8887 c 0.387,0.0401 0.78,0.0596 1.177,0.0596 6.273,0 11.358,-5.085 11.358,-11.3584 0,-6.2734 -5.085,-11.3584 -11.358,-11.3584 -5.742,0 -10.508,4.458 -11.252,9.9902 l 10.212,-0.0088 c 1.463,0 2.765,0.043 3.606,1.2745 0.813,1.1865 0.601,2.1836 -0.02,3.4902 l -3.723,7.9111 z"
       id="path25" /><path
       inkscape:connector-curvature="0"
       style="fill:#ffffff;fill-rule:nonzero;stroke:none"
       d="m -266.30075,-93.2627 c 0.835,2.2656 2.37,4.1924 4.345,5.5156 l 2.28,-4.7666 c 0.099,-0.2002 0.161,-0.3642 0.048,-0.5439 -0.112,-0.1748 -0.267,-0.1983 -0.496,-0.1924 l -6.177,-0.0127 z"
       id="path27" /><path
       inkscape:connector-curvature="0"
       style="fill:#000000;fill-rule:nonzero;stroke:none"
       d="m -338.82915,-141.5085 0,-34.016 20.7491,0 0,5 -15.5449,0 0,29.016 -5.2042,0 z"
       id="path29" /><path
       inkscape:connector-curvature="0"
       style="fill:#000000;fill-rule:evenodd;stroke:none"
       d="m -302.53415,-141.5085 -11.5313,-33.983 5.6807,0 3.1289,9.593 10.8848,0 3.3339,-9.593 5.5108,0 -11.6338,33.983 -5.374,0 z m 6.1562,-18.948 -6.9394,0 3.4023,10.137 3.5371,-10.137 z"
       id="path31" /><path
       inkscape:connector-curvature="0"
       style="fill:#000000;fill-rule:nonzero;stroke:none"
       d="m -279.30175,-141.5085 0,-34.016 5.2725,0 0,21.974 12.9255,-21.974 4.558,0 0,34.016 -5.374,0 0,-22.145 -12.926,22.145 -4.456,0 z"
       id="path33" /><path
       inkscape:connector-curvature="0"
       style="fill:#000000;fill-rule:nonzero;stroke:none"
       d="m -248.68775,-141.5085 0,-34.016 20.749,0 0,5.306 -15.476,0 0,9.593 9.931,0 0,5.306 -9.931,0 0,8.368 14.217,0 0,5.443 -19.49,0 z"
       id="path35" /></g></svg>