<?xml version="1.0" encoding="UTF-8" standalone="no"?>
<svg
   xmlns:dc="http://purl.org/dc/elements/1.1/"
   xmlns:cc="http://creativecommons.org/ns#"
   xmlns:rdf="http://www.w3.org/1999/02/22-rdf-syntax-ns#"
   xmlns:svg="http://www.w3.org/2000/svg"
   xmlns="http://www.w3.org/2000/svg"
   xmlns:sodipodi="http://sodipodi.sourceforge.net/DTD/sodipodi-0.dtd"
   xmlns:inkscape="http://www.inkscape.org/namespaces/inkscape"
   width="73.832726"
   height="74.382195"
   viewBox="0 0 208.3724 209.92307"
   version="1.1"
   id="svg2"
   inkscape:version="0.48.2 r9819"
   sodipodi:docname="AJAX1.svg">
  <metadata
     id="metadata62">
    <rdf:RDF>
      <cc:Work
         rdf:about="">
        <dc:format>image/svg+xml</dc:format>
        <dc:type
           rdf:resource="http://purl.org/dc/dcmitype/StillImage" />
        <dc:title></dc:title>
      </cc:Work>
    </rdf:RDF>
  </metadata>
  <defs
     id="defs60" />
  <sodipodi:namedview
     pagecolor="#ffffff"
     bordercolor="#666666"
     borderopacity="1"
     objecttolerance="10"
     gridtolerance="10"
     guidetolerance="10"
     inkscape:pageopacity="0"
     inkscape:pageshadow="2"
     inkscape:window-width="1280"
     inkscape:window-height="1004"
     id="namedview58"
     showgrid="false"
     fit-margin-top="0"
     fit-margin-left="0"
     fit-margin-right="0"
     fit-margin-bottom="0"
     inkscape:zoom="5.6568543"
     inkscape:cx="42.3603"
     inkscape:cy="30.329495"
     inkscape:window-x="-8"
     inkscape:window-y="-8"
     inkscape:window-maximized="1"
     inkscape:current-layer="svg2" />
  <!-- draw the bicycle -->
  <!-- RIGHT -->
  <!-- LANE -->
  <!-- ONLY -->
  <path
     d="M 205.06365,96.734305 112.38538,3.3787052 c -4.45558,-4.512029 -11.90978,-4.497918 -16.375938,0 L 3.3488124,96.734305 c -4.45559,4.483805 -4.47323,11.987395 -0.004,16.474725 l 92.6676796,93.35561 c 4.448528,4.46264 11.930948,4.49086 16.372418,0.007 l 92.67874,-93.36266 c 4.80131,-4.82952 4.00403,-11.54289 0,-16.474725"
     style="fill:#ffd033;fill-opacity:1;fill-rule:nonzero;stroke:none"
     id="path3448"
     inkscape:connector-curvature="0" />
  <path
     d="m 202.99637,111.12059 -92.68179,93.3556 c -3.33022,3.34786 -8.88648,3.34081 -12.230808,0 L 5.4231424,111.12059 c -3.32317,-3.36197 -3.34786,-8.94292 -0.004,-12.304895 L 98.086832,5.4459832 c 3.319638,-3.31964 8.918218,-3.333751 12.227278,0 l 92.67474,93.3697118 c 3.31611,3.347865 3.32669,8.964085 0.007,12.304895"
     style="fill:#000000;fill-opacity:1;fill-rule:evenodd;stroke:none"
     id="path3452"
     inkscape:connector-curvature="0" />
  <path
     d="m 199.55679,107.65631 c 1.43581,-1.4605 1.43581,-3.92994 0,-5.3975 L 106.86794,8.9173172 c -1.44639,-1.439334 -3.88761,-1.474612 -5.33047,0 L 8.8627324,102.25881 c -1.43581,1.50283 -1.46403,3.90172 0.004,5.3975 l 92.6747276,93.3556 c 1.45345,1.4605 3.85939,1.45345 5.32695,0 l 92.68885,-93.3556"
     style="fill:#ffd033;fill-opacity:1;fill-rule:evenodd;stroke:none"
     id="path3456"
     inkscape:connector-curvature="0" />
  <path
     d="m 149.94564,81.24383 c 0,4.134557 -0.97719,7.507113 -2.8328,9.359196 -0.86784,0.874889 -1.83798,1.202973 -3.47134,1.202973 l -4.90008,0 0,-21.12081 5.54567,0 c 1.31233,0 2.39183,0.543278 3.15736,1.312334 1.524,1.629833 2.50119,5.111751 2.50119,9.246307 m 5.00945,0 c 0,-6.092473 -1.84856,-10.992558 -5.11881,-13.821836 -1.62631,-1.305278 -2.82575,-1.629833 -5.98311,-1.629833 l -10.00831,0 0,31.0127 9.46503,0 1.74272,0 c 1.62631,-0.109361 3.26673,-0.652639 4.45912,-1.739195 3.48544,-2.719917 5.44336,-7.616474 5.44336,-13.821836 m -35.80343,1.848556 -6.1983,0 3.15383,-8.706557 3.04447,8.706557 z m 10.01184,13.712475 -10.65742,-31.0127 -4.90008,0 -10.66448,31.0127 5.22111,0 3.04448,-8.699502 9.6908,0 3.04448,8.699502 5.22111,0 z m -28.61381,0 0,-4.998862 -14.368638,0 0,-8.498418 9.03464,0 0,-5.00239 -9.03464,0 0,-7.620002 13.38439,0 0,-4.893028 -18.27742,0 0,31.0127 19.261668,0 z M 69.533462,81.24383 c 0,4.134557 -0.98072,7.507113 -2.82928,9.359196 -0.86783,0.874889 -1.85208,1.202973 -3.48544,1.202973 l -4.89303,0 0,-21.12081 5.54566,0 c 1.31234,0 2.39889,0.543278 3.16089,1.312334 1.52048,1.629833 2.5012,5.111751 2.5012,9.246307 m 5.00239,0 c 0,-6.092473 -1.84856,-10.992558 -5.11175,-13.821836 -1.63336,-1.305278 -2.82928,-1.629833 -5.98664,-1.629833 l -10.01184,0 0,31.0127 9.47209,0 1.73919,0 c 1.63336,-0.109361 3.26673,-0.652639 4.46264,-1.739195 3.48192,-2.719917 5.43631,-7.616474 5.43631,-13.821836"
     style="fill:#000000;fill-opacity:1;fill-rule:evenodd;stroke:none"
     id="path3460"
     inkscape:connector-curvature="0" />
  <path
     d="m 136.13086,132.73176 c 0,4.13456 -0.97719,7.51064 -2.8328,9.35567 -0.86784,0.87489 -1.84503,1.19944 -3.48545,1.19944 l -4.89303,0 0,-21.11022 5.54567,0 c 1.31233,0 2.39889,0.54327 3.15736,1.3088 1.53106,1.62984 2.50825,5.11175 2.50825,9.24631 m 5.00239,0 c 0,-6.096 -1.84855,-10.98903 -5.11175,-13.82184 -1.63336,-1.30175 -2.83281,-1.63336 -5.99017,-1.63336 l -10.00478,0 0,31.01623 9.4615,0 1.74273,0 c 1.63336,-0.10583 3.26672,-0.64911 4.46616,-1.74625 3.47839,-2.71286 5.43631,-7.61295 5.43631,-13.81478 m -28.40214,15.56103 0,-31.01623 -4.90009,0 0,19.80848 -11.310058,-19.80848 -4.90008,0 0,31.01623 4.90008,0 0,-21.00439 11.863918,21.00439 4.34623,0 z m -26.221978,0 0,-5.00592 -14.36511,0 0,-8.48783 9.03111,0 0,-5.00592 -9.03111,0 0,-7.61647 13.38791,0 0,-4.90009 -18.28094,0 0,31.01623 19.25814,0 z"
     style="fill:#000000;fill-opacity:1;fill-rule:evenodd;stroke:none"
     id="path3464"
     inkscape:connector-curvature="0" />
</svg>
