<?xml version="1.0" encoding="UTF-8" standalone="no"?>
<!-- Generator: Adobe Illustrator 14.0.0, SVG Export Plug-In  -->

<svg
   xmlns:dc="http://purl.org/dc/elements/1.1/"
   xmlns:cc="http://creativecommons.org/ns#"
   xmlns:rdf="http://www.w3.org/1999/02/22-rdf-syntax-ns#"
   xmlns:svg="http://www.w3.org/2000/svg"
   xmlns="http://www.w3.org/2000/svg"
   xmlns:sodipodi="http://sodipodi.sourceforge.net/DTD/sodipodi-0.dtd"
   xmlns:inkscape="http://www.inkscape.org/namespaces/inkscape"
   version="1.1"
   x="0px"
   y="0px"
   width="608.80005"
   height="608.80005"
   viewBox="0 -0.321 608.80007 608.80011"
   enable-background="new 0 -0.321 144 120"
   xml:space="preserve"
   id="svg2"
   inkscape:version="0.91 r13725"
   sodipodi:docname="Drawing.svg"><metadata
     id="metadata44"><rdf:RDF><cc:Work
         rdf:about=""><dc:format>image/svg+xml</dc:format><dc:type
           rdf:resource="http://purl.org/dc/dcmitype/StillImage" /><dc:title></dc:title></cc:Work></rdf:RDF></metadata><sodipodi:namedview
     pagecolor="#ffffff"
     bordercolor="#666666"
     borderopacity="1"
     objecttolerance="10"
     gridtolerance="10"
     guidetolerance="10"
     inkscape:pageopacity="0"
     inkscape:pageshadow="2"
     inkscape:window-width="1920"
     inkscape:window-height="1057"
     id="namedview42"
     showgrid="false"
     fit-margin-top="0.4"
     fit-margin-left="0.4"
     fit-margin-right="0.4"
     fit-margin-bottom="0.4"
     inkscape:zoom="0.64163393"
     inkscape:cx="754.66758"
     inkscape:cy="213.07071"
     inkscape:window-x="-8"
     inkscape:window-y="-8"
     inkscape:window-maximized="1"
     inkscape:current-layer="svg2"
     showguides="true" /><defs
     id="defs4" /><path
     inkscape:connector-curvature="0"
     d="m 608.40007,544.0789 c 0,35.34236 -28.65776,64.00021 -64.00009,64.00021 l -479.999921,0 c -35.35651,0 -64.00008947,-28.65785 -64.00008947,-64.00021 l 0,-479.99976 c 0,-35.34236 28.64357947,-64.00013996 64.00008947,-64.00013996 l 479.999921,0 c 35.34233,0 64.00009,28.65777996 64.00009,64.00013996 z"
     style="fill:#000000;fill-opacity:1;fill-rule:nonzero;stroke:none;stroke-width:4.00000095;stroke-miterlimit:4;stroke-dasharray:none;stroke-opacity:1"
     id="path4234"
     sodipodi:nodetypes="sssssssss" /><path
     inkscape:connector-curvature="0"
     d="m 604.40003,544.07894 c 0,33.13346 -26.86665,60.00019 -60.00008,60.00019 l -479.999881,0 c -33.14673,0 -60.0000795,-26.86673 -60.0000795,-60.00019 l 0,-479.99976 c 0,-33.13346 26.8533495,-60.00013 60.0000795,-60.00013 l 479.999881,0 c 33.13343,0 60.00008,26.86667 60.00008,60.00013 z"
     style="fill:#ffffff;fill-opacity:1;fill-rule:nonzero;stroke:none;stroke-width:4.00000095;stroke-miterlimit:4;stroke-dasharray:none;stroke-opacity:1"
     id="path4245"
     sodipodi:nodetypes="sssssssss" /><circle
     r="294.00003"
     cy="304.07901"
     cx="304.3999"
     id="circle4247"
     style="fill:#c0111e;fill-opacity:1;stroke:none;stroke-width:25;stroke-linejoin:miter;stroke-miterlimit:4;stroke-dasharray:none;stroke-dashoffset:0;stroke-opacity:1" /><rect
     style="fill:#ffffff;fill-opacity:1;stroke:none;stroke-width:0.60000002;stroke-linejoin:miter;stroke-miterlimit:4;stroke-dasharray:none;stroke-dashoffset:0;stroke-opacity:1"
     id="rect4233"
     width="492.00006"
     height="120.00002"
     x="58.399998"
     y="-364.07907"
     transform="scale(1,-1)" /><path
     d="m 237.256,99.87035 11.81963,0 34.09442,58.26105 0,-58.26105 14.23042,0 0,89.49264 -12.07911,0 -34.1028,-57.80901 0,57.80901 -13.96256,0 0,-89.49264 z m 107.58201,91.20866 c -18.61674,0 -31.59153,-13.61098 -31.59153,-46.55023 0,-32.31143 11.90332,-46.44978 31.59153,-46.44978 20.40811,0 31.33205,20.4081 31.33205,46.44978 0,22.37524 -5.90981,46.55023 -31.33205,46.55023 z m 0,-14.15509 c 11.27552,0 16.73331,-9.30838 16.73331,-32.39514 0,-21.11963 -5.3657,-31.95149 -16.73331,-31.95149 -11.54338,0 -17.5369,8.85635 -17.5369,31.95149 0,22.10738 6.35347,32.39514 17.5369,32.39514"
     style="fill:#ffffff;fill-opacity:1;fill-rule:evenodd;stroke:none"
     id="path4871"
     inkscape:connector-curvature="0" /><path
     d="m 125.38198,405.0791 53.28451,0 0,14.87374 -38.87177,0 0,22.87598 27.15544,0 0,14.50842 -27.15544,0 0,26.23345 42.31622,0 0,14.50842 -56.72896,0 0,-93.00001 z m 73.93378,0 12.273,0 35.42734,60.53873 0,-60.53873 14.79546,0 0,93.00001 -12.56005,0 -35.43603,-60.07772 0,60.07772 -14.49972,0 0,-93.00001 z m 77.64787,0 56.72895,0 0,13.6734 -21.29292,0 0,79.32661 -14.03873,0 0,-79.32661 -21.3973,0 0,-13.6734 z m 86.03283,14.49972 0,22.79771 20.0839,0 c 6.41912,0 11.25532,-6.33221 11.25532,-12.18603 0,-5.86251 -5.76683,-10.61168 -11.81208,-10.61168 l -19.52714,0 z m -14.23008,-14.49972 34.59232,0 c 13.67339,0 25.01571,12.28171 25.01571,26.22475 0,11.52497 -6.04525,17.85719 -13.84737,22.87599 l 16.73506,43.89927 -15.25645,0 -15.06503,-40.74187 -17.94416,0 0,40.74187 -14.23008,0 0,-93.00001 z m 73.37711,0 17.3005,0 22.04097,36.07969 22.22362,-36.07969 17.01339,0 -31.89583,53.00617 0,39.99384 -14.22138,0 0,-39.99384 -32.46127,-53.00617"
     style="fill:#ffffff;fill-opacity:1;fill-rule:evenodd;stroke:none"
     id="path4873"
     inkscape:connector-curvature="0" /></svg>