<?xml version="1.0" encoding="UTF-8" standalone="no"?>
<!-- Created with Inkscape (http://www.inkscape.org/) -->

<svg
   xmlns:dc="http://purl.org/dc/elements/1.1/"
   xmlns:cc="http://creativecommons.org/ns#"
   xmlns:rdf="http://www.w3.org/1999/02/22-rdf-syntax-ns#"
   xmlns:svg="http://www.w3.org/2000/svg"
   xmlns="http://www.w3.org/2000/svg"
   xmlns:sodipodi="http://sodipodi.sourceforge.net/DTD/sodipodi-0.dtd"
   xmlns:inkscape="http://www.inkscape.org/namespaces/inkscape"
   id="svg17624"
   version="1.1"
   inkscape:version="0.48.4 r9939"
   width="200.2"
   height="200.2"
   xml:space="preserve"
   sodipodi:docname="AJAX.svg"><metadata
     id="metadata17630"><rdf:RDF><cc:Work
         rdf:about=""><dc:format>image/svg+xml</dc:format><dc:type
           rdf:resource="http://purl.org/dc/dcmitype/StillImage" /><dc:title /></cc:Work></rdf:RDF></metadata><defs
     id="defs17628"><inkscape:perspective
       sodipodi:type="inkscape:persp3d"
       inkscape:vp_x="0 : 0.5 : 1"
       inkscape:vp_y="0 : 1000 : 0"
       inkscape:vp_z="1 : 0.5 : 1"
       inkscape:persp3d-origin="0.5 : 0.33333333 : 1"
       id="perspective17632" /><clipPath
       clipPathUnits="userSpaceOnUse"
       id="clipPath17642"><path
         d="m -2,710 501,0 0,-711 -501,0 0,711 z"
         id="path17644"
         inkscape:connector-curvature="0" /></clipPath><clipPath
       clipPathUnits="userSpaceOnUse"
       id="clipPath17648"><path
         d="m 0,708.06 498,0 0,-708 -498,0 0,708 z"
         id="path17650"
         inkscape:connector-curvature="0" /></clipPath><clipPath
       clipPathUnits="userSpaceOnUse"
       id="clipPath17798"><path
         d="m -2,710 501,0 0,-711 -501,0 0,711 z"
         id="path17800"
         inkscape:connector-curvature="0" /></clipPath><clipPath
       clipPathUnits="userSpaceOnUse"
       id="clipPath17804"><path
         d="m 0,708.06 498,0 0,-708 -498,0 0,708 z"
         id="path17806"
         inkscape:connector-curvature="0" /></clipPath><clipPath
       id="Clip0"><path
         inkscape:connector-curvature="0"
         d="m 0,0 212.597,0 0,269.292 L 0,269.292 0,0 z"
         transform="translate(0.923828,0.879883)"
         id="path7" /></clipPath></defs><sodipodi:namedview
     pagecolor="#ffffff"
     bordercolor="#666666"
     borderopacity="1"
     objecttolerance="10"
     gridtolerance="10"
     guidetolerance="10"
     inkscape:pageopacity="0"
     inkscape:pageshadow="2"
     inkscape:window-width="1280"
     inkscape:window-height="1001"
     id="namedview17626"
     showgrid="false"
     inkscape:zoom="2.3322272"
     inkscape:cx="105.21153"
     inkscape:cy="86.910364"
     inkscape:window-x="-8"
     inkscape:window-y="-8"
     inkscape:window-maximized="1"
     inkscape:current-layer="g17634"
     fit-margin-top="0.1"
     fit-margin-left="0.1"
     fit-margin-right="0.1"
     fit-margin-bottom="0.1"
     showguides="true"
     inkscape:guide-bbox="true" /><g
     id="g17634"
     inkscape:groupmode="layer"
     inkscape:label="GG1999P002"
     transform="matrix(1.25,0,0,-1.25,160.49062,77.404678)"><path
       sodipodi:nodetypes="sssss"
       inkscape:connector-curvature="0"
       id="path3787"
       d="m 31.6875,-18.156349 c 0,44.18241 -35.816846,80.000091 -80.000009,80.000091 -44.183435,0 -79.999991,-35.817587 -79.999991,-80.000001 0,-44.18334 35.816556,-80 79.999991,-80 44.183163,0 80.000009,35.81656 80.000009,79.9999 z"
       style="fill:#006f3e;fill-opacity:1;fill-rule:nonzero;stroke:none" /><path
       style="fill:#ffffff;fill-rule:nonzero;stroke:none"
       d="m -112.3109,-2.1570588 127.996848,0 0,-31.9983992 -127.996848,0 z"
       id="path13"
       inkscape:connector-curvature="0"
       sodipodi:nodetypes="ccccc" /><path
       style="fill:#006f3e;fill-opacity:1;fill-rule:nonzero;stroke:none"
       d="m -102.1525,-7.9407339 0,-20.4307231 7.784638,0 0,2.492568 -5.231044,0 0,7.354871 3.228404,0 0,2.513325 -3.228404,0 0,5.537034 4.964564,0 0,2.5329251 -7.518158,0 z"
       id="path19"
       inkscape:connector-curvature="0" /><path
       style="fill:#006f3e;fill-opacity:1;fill-rule:nonzero;stroke:none"
       d="m -91.303682,-7.9407339 0,-20.4307231 2.553588,0 0,12.095141 3.799913,-12.095141 2.206381,0 0,20.4307231 -2.512266,0 0,-10.8694721 -3.494028,10.8694721 -2.553588,0 z"
       id="path21"
       inkscape:connector-curvature="0" /><path
       style="fill:#006f3e;fill-opacity:1;fill-rule:nonzero;stroke:none"
       d="m -79.555764,-7.9407339 0,-2.5122641 2.654878,0 0,-17.918459 2.59472,0 0,17.918459 2.534174,0 0,2.5122641 -7.783772,0 z"
       id="path23"
       inkscape:connector-curvature="0" /><path
       style="fill:#006f3e;fill-opacity:1;fill-rule:evenodd;stroke:none"
       d="m -64.478909,-16.215296 -1.675035,0 0,5.762298 1.675035,0 c 0.531437,0 0.974461,-0.348172 1.328111,-1.042694 0.299835,-0.598707 0.449751,-1.252864 0.449751,-1.961413 0,-0.598707 -0.170098,-1.198476 -0.511255,-1.797183 -0.380559,-0.640993 -0.803402,-0.961008 -1.266607,-0.961008 z m 2.32948,-1.695885 c 1.293516,0.953511 1.940274,2.39127 1.940274,4.311462 0,2.05617 -0.468971,3.561491 -1.409798,4.5150029 -0.73517,0.7630399 -1.701943,1.1439822 -2.900319,1.1439822 l -4.107344,0 0,-20.4307231 2.472672,0 0,9.561251 1.511663,0 2.043101,-9.561251 2.534176,0 -2.084425,10.460276 z"
       id="path25"
       inkscape:connector-curvature="0" /><path
       style="fill:#006f3e;fill-opacity:1;fill-rule:nonzero;stroke:none"
       d="m -57.001299,-7.9407339 4.290897,-11.1350951 0,-9.295628 2.492853,0 0,9.295628 4.065058,11.1350951 -2.716766,0 -2.615861,-7.2121641 -2.798453,7.2121641 -2.717728,0 z"
       id="path27"
       inkscape:connector-curvature="0" /><path
       inkscape:connector-curvature="0"
       style="fill:#006f3e;fill-opacity:1;fill-rule:evenodd;stroke:none"
       d="m -33.427058,-25.857594 c -0.812101,0 -1.381986,0.747095 -1.709585,2.239205 -0.235495,1.140047 -0.353935,2.928085 -0.353935,5.36342 0,2.540677 0.104926,4.361287 0.314709,5.461831 0.301194,1.61062 0.8839,2.41593 1.748811,2.41593 0.811478,0 1.36175,-0.80531 1.650054,-2.41593 0.182962,-1.087376 0.274443,-2.907293 0.274443,-5.461831 0,-2.632851 -0.08524,-4.420195 -0.255038,-5.36342 -0.262661,-1.49211 -0.818478,-2.239205 -1.669459,-2.239205 z m 0,-2.513648 c 1.623719,-0.01386 2.743668,0.64106 3.359085,1.964069 0.668089,1.440132 1.002133,4.158227 1.002133,8.152204 0,3.404895 -0.216228,5.815281 -0.648683,7.229771 -0.641753,2.0687177 -1.879519,3.0971827 -3.712535,3.0840147 -1.951871,-0.01247 -3.241823,-1.04787 -3.870547,-3.1034197 -0.40612,-1.350038 -0.608487,-3.7528 -0.608487,-7.210366 0,-3.313414 0.248385,-5.696771 0.745847,-7.150764 0.66802,-1.964763 1.912646,-2.953035 3.733187,-2.965509 z"
       id="path43" /><path
       inkscape:connector-curvature="0"
       style="fill:#006f3e;fill-opacity:1;fill-rule:nonzero;stroke:none"
       d="m -25.333831,-8.3334393 0,-19.6455437 2.456126,0 0,11.629868 3.653003,-11.629868 2.122082,0 0,19.6455437 -2.416623,0 0,-10.4517037 -3.358462,10.4517037 -2.456126,0 z"
       id="path45" /><path
       inkscape:connector-curvature="0"
       style="fill:#006f3e;fill-opacity:1;fill-rule:nonzero;stroke:none"
       d="m -13.390016,-8.3334393 0,-19.6455437 7.484808,0 0,2.396525 -5.009277,0 0,17.2490187 -2.475531,0 z"
       id="path47" /><path
       inkscape:connector-curvature="0"
       style="fill:#006f3e;fill-opacity:1;fill-rule:nonzero;stroke:none"
       d="m -4.903768,-8.3334393 4.125654,-10.7074347 0,-8.938109 2.396525,0 0,8.938109 3.909426,10.7074347 -2.612059,0 -2.515035,-6.9352297 -2.691066,6.9352297 -2.613445,0 z"
       id="path49" /></g></svg>