<svg xmlns="http://www.w3.org/2000/svg" xmlns:xlink="http://www.w3.org/1999/xlink" width="300" height="52" viewBox="0 0 300 52">
  <defs>
    <rect id="exit_sign_one_lane_right-a" width="300" height="52" rx="6"/>
  </defs>
  <g fill="none" fill-rule="evenodd">
    <use fill="#FFD11E" xlink:href="#exit_sign_one_lane_right-a"/>
    <rect width="298" height="50" x="1" y="1" stroke="#000" stroke-width="2" rx="6"/>
    <path fill="#000" d="M59.7610681,27.6757812 L48.5110681,27.6757812 L48.5110681,35.2929688 L61.7141931,35.2929688 L61.7141931,40 L42.6516931,40 L42.6516931,11.5625 L61.6751306,11.5625 L61.6751306,16.3085938 L48.5110681,16.3085938 L48.5110681,23.0859375 L59.7610681,23.0859375 L59.7610681,27.6757812 Z M73.7798553,25.1757812 L77.3345428,18.8671875 L83.369699,18.8671875 L77.354074,29.21875 L83.6236053,40 L77.5689178,40 L73.7993865,33.359375 L70.0493865,40 L63.9751678,40 L70.244699,29.21875 L64.2486053,18.8671875 L70.3032928,18.8671875 L73.7798553,25.1757812 Z M92.9939549,40 L87.3298924,40 L87.3298924,18.8671875 L92.9939549,18.8671875 L92.9939549,40 Z M86.9978611,13.3984375 C86.9978611,12.5520791 87.2810614,11.8554715 87.8474705,11.3085938 C88.4138796,10.761716 89.1853563,10.4882812 90.1619236,10.4882812 C91.1254701,10.4882812 91.8936916,10.761716 92.4666111,11.3085938 C93.0395307,11.8554715 93.3259861,12.5520791 93.3259861,13.3984375 C93.3259861,14.2578168 93.0362755,14.9609348 92.4568455,15.5078125 C91.8774155,16.0546902 91.1124492,16.328125 90.1619236,16.328125 C89.2113981,16.328125 88.4464318,16.0546902 87.8670018,15.5078125 C87.2875718,14.9609348 86.9978611,14.2578168 86.9978611,13.3984375 Z M105.352586,13.671875 L105.352586,18.8671875 L108.965867,18.8671875 L108.965867,23.0078125 L105.352586,23.0078125 L105.352586,33.5546875 C105.352586,34.3359414 105.502324,34.8958316 105.801805,35.234375 C106.101285,35.5729184 106.674196,35.7421875 107.520555,35.7421875 C108.145558,35.7421875 108.698938,35.696615 109.180711,35.6054688 L109.180711,39.8828125 C108.073934,40.2213559 106.934623,40.390625 105.762742,40.390625 C101.804389,40.390625 99.7861799,38.3919471 99.7080545,34.3945312 L99.7080545,23.0078125 L96.622117,23.0078125 L96.622117,18.8671875 L99.7080545,18.8671875 L99.7080545,13.671875 L105.352586,13.671875 Z M202.273158,26.4257812 C202.273158,29.2252744 201.778372,31.679677 200.788783,33.7890625 C199.799195,35.898448 198.383194,37.5260359 196.540736,38.671875 C194.698279,39.8177141 192.58567,40.390625 190.202846,40.390625 C187.846063,40.390625 185.74322,39.8242244 183.894252,38.6914062 C182.045284,37.5585881 180.613007,35.9407657 179.597377,33.8378906 C178.581747,31.7350155 178.067429,29.3164199 178.054408,26.5820312 L178.054408,25.1757812 C178.054408,22.3762881 178.558961,19.91212 179.56808,17.7832031 C180.5772,15.6542862 182.002967,14.020188 183.845424,12.8808594 C185.687881,11.7415308 187.79398,11.171875 190.163783,11.171875 C192.533587,11.171875 194.639686,11.7415308 196.482143,12.8808594 C198.3246,14.020188 199.750367,15.6542862 200.759486,17.7832031 C201.768606,19.91212 202.273158,22.3697777 202.273158,25.15625 L202.273158,26.4257812 Z M196.335658,25.1367188 C196.335658,22.154933 195.801809,19.8893307 194.734096,18.3398438 C193.666382,16.7903568 192.14296,16.015625 190.163783,16.015625 C188.197628,16.015625 186.680716,16.7805913 185.613002,18.3105469 C184.545288,19.8405024 184.004929,22.0833186 183.991908,25.0390625 L183.991908,26.4257812 C183.991908,29.3294416 184.525757,31.5820232 185.593471,33.1835938 C186.661184,34.7851643 188.197627,35.5859375 190.202846,35.5859375 C192.169001,35.5859375 193.679403,34.8144608 194.734096,33.2714844 C195.788789,31.7285079 196.322637,29.4791814 196.335658,26.5234375 L196.335658,25.1367188 Z M212.30757,18.8671875 L212.483352,21.3085938 C213.993776,19.4205635 216.018495,18.4765625 218.55757,18.4765625 C220.797165,18.4765625 222.463815,19.134108 223.55757,20.4492188 C224.651326,21.7643295 225.211216,23.7304557 225.237258,26.3476562 L225.237258,40 L219.592727,40 L219.592727,26.484375 C219.592727,25.2864523 219.332313,24.4173204 218.811477,23.8769531 C218.290641,23.3365858 217.424764,23.0664062 216.21382,23.0664062 C214.625271,23.0664062 213.433877,23.7434828 212.639602,25.0976562 L212.639602,40 L206.99507,40 L206.99507,18.8671875 L212.30757,18.8671875 Z M236.424014,40 L230.759951,40 L230.759951,10 L236.424014,10 L236.424014,40 Z M249.915457,32.0117188 L253.821707,18.8671875 L259.876395,18.8671875 L251.380301,43.28125 L250.911551,44.3945312 C249.648524,47.1549617 247.565211,48.5351562 244.661551,48.5351562 C243.841234,48.5351562 243.007909,48.4114596 242.161551,48.1640625 L242.161551,43.8867188 L243.020926,43.90625 C244.08864,43.90625 244.886158,43.7434912 245.413504,43.4179688 C245.940851,43.0924463 246.354258,42.5520871 246.653738,41.796875 L247.317801,40.0585938 L239.915457,18.8671875 L245.989676,18.8671875 L249.915457,32.0117188 Z"/>
    <path fill="#000" fill-rule="nonzero" d="M149.238247,29.744969 L158.002823,30.7846827 C160.12634,31.6221811 161.796749,30.521276 160.599735,28.4748083 L147.216173,10.2866406 C146.005633,8.5711198 144.984452,8.5711198 143.780675,10.2866406 L130.403876,28.4748083 C129.200099,30.521276 130.870509,31.615427 133.000787,30.7846827 L141.765364,29.744969 L141.765364,41.5839537 C141.765364,42.6885232 142.660794,43.5839537 143.765364,43.5839537 L147.238247,43.5839537 C148.342817,43.5839537 149.238247,42.6885232 149.238247,41.5839537 L149.238247,29.744969 Z" transform="rotate(45 145.5 26.292)"/>
  </g>
</svg>
