<svg xmlns="http://www.w3.org/2000/svg" xmlns:xlink="http://www.w3.org/1999/xlink" width="300" height="52" viewBox="0 0 300 52">
  <defs>
    <rect id="exit_sign_one_lane_straight-a" width="300" height="52" rx="6"/>
  </defs>
  <g fill="none" fill-rule="evenodd">
    <use fill="#FFD11E" xlink:href="#exit_sign_one_lane_straight-a"/>
    <rect width="298" height="50" x="1" y="1" stroke="#000" stroke-width="2" rx="6"/>
    <g fill="#000" transform="translate(41 10)">
      <path d="M159.534784 16.4257812C159.534784 19.2252744 159.039997 21.679677 158.050409 23.7890625 157.06082 25.898448 155.644819 27.5260359 153.802362 28.671875 151.959905 29.8177141 149.847296 30.390625 147.464471 30.390625 145.107688 30.390625 143.004845 29.8242244 141.155877 28.6914062 139.30691 27.5585881 137.874632 25.9407657 136.859002 23.8378906 135.843372 21.7350155 135.329055 19.3164199 135.316034 16.5820312L135.316034 15.1757812C135.316034 12.3762881 135.820586 9.91212002 136.829705 7.78320312 137.838825 5.65428623 139.264592 4.02018799 141.107049 2.88085938 142.949506 1.74153076 145.055605 1.171875 147.425409 1.171875 149.795212 1.171875 151.901311 1.74153076 153.743768 2.88085938 155.586225 4.02018799 157.011992 5.65428623 158.021112 7.78320312 159.030231 9.91212002 159.534784 12.3697777 159.534784 15.15625L159.534784 16.4257812zM153.597284 15.1367187C153.597284 12.154933 153.063435 9.88933066 151.995721 8.33984375 150.928007 6.79035684 149.404585 6.015625 147.425409 6.015625 145.459253 6.015625 143.942341 6.78059131 142.874627 8.31054688 141.806914 9.84050244 141.266555 12.0833186 141.253534 15.0390625L141.253534 16.4257812C141.253534 19.3294416 141.787382 21.5820232 142.855096 23.1835937 143.92281 24.7851643 145.459253 25.5859375 147.464471 25.5859375 149.430627 25.5859375 150.941028 24.8144608 151.995721 23.2714844 153.050414 21.7285079 153.584263 19.4791814 153.597284 16.5234375L153.597284 15.1367187zM169.569196 8.8671875L169.744977 11.3085938C171.255401 9.42056348 173.280121 8.4765625 175.819196 8.4765625 178.05879 8.4765625 179.72544 9.13410801 180.819196 10.4492188 181.912951 11.7643295 182.472841 13.7304557 182.498883 16.3476562L182.498883 30 176.854352 30 176.854352 16.484375C176.854352 15.2864523 176.593938 14.4173204 176.073102 13.8769531 175.552266 13.3365858 174.686389 13.0664062 173.475446 13.0664062 171.886896 13.0664062 170.695502 13.7434828 169.901227 15.0976562L169.901227 30 164.256696 30 164.256696 8.8671875 169.569196 8.8671875zM193.685639 30L188.021577 30 188.021577 0 193.685639 0 193.685639 30zM207.177083 22.0117188L211.083333 8.8671875 217.13802 8.8671875 208.641926 33.28125 208.173176 34.3945312C206.910149 37.1549617 204.826837 38.5351562 201.923176 38.5351562 201.10286 38.5351562 200.269535 38.4114596 199.423176 38.1640625L199.423176 33.8867188 200.282551 33.90625C201.350265 33.90625 202.147783 33.7434912 202.675129 33.4179688 203.202476 33.0924463 203.615883 32.5520871 203.915364 31.796875L204.579426 30.0585938 197.177083 8.8671875 203.251301 8.8671875 207.177083 22.0117188zM17.109375 17.6757812L5.859375 17.6757812 5.859375 25.2929688 19.0625 25.2929688 19.0625 30 0 30 0 1.5625 19.0234375 1.5625 19.0234375 6.30859375 5.859375 6.30859375 5.859375 13.0859375 17.109375 13.0859375 17.109375 17.6757812zM31.1281621 15.1757812L34.6828496 8.8671875 40.7180059 8.8671875 34.7023809 19.21875 40.9719121 30 34.9172246 30 31.1476934 23.359375 27.3976934 30 21.3234746 30 27.5930059 19.21875 21.5969121 8.8671875 27.6515996 8.8671875 31.1281621 15.1757812zM50.3422618 30L44.6781993 30 44.6781993 8.8671875 50.3422618 8.8671875 50.3422618 30zM44.346168 3.3984375C44.346168 2.5520791 44.6293683 1.85547148 45.1957774 1.30859375 45.7621865.761716016 46.5336632.48828125 47.5102305.48828125 48.473777.48828125 49.2419985.761716016 49.814918 1.30859375 50.3878376 1.85547148 50.674293 2.5520791 50.674293 3.3984375 50.674293 4.2578168 50.3845824 4.96093477 49.8051524 5.5078125 49.2257224 6.05469023 48.4607561 6.328125 47.5102305 6.328125 46.559705 6.328125 45.7947386 6.05469023 45.2153087 5.5078125 44.6358787 4.96093477 44.346168 4.2578168 44.346168 3.3984375zM62.7008927 3.671875L62.7008927 8.8671875 66.3141739 8.8671875 66.3141739 13.0078125 62.7008927 13.0078125 62.7008927 23.5546875C62.7008927 24.3359414 62.8506308 24.8958316 63.1501114 25.234375 63.4495921 25.5729184 64.022503 25.7421875 64.8688614 25.7421875 65.4938646 25.7421875 66.0472444 25.696615 66.5290177 25.6054688L66.5290177 29.8828125C65.4222413 30.2213559 64.2829298 30.390625 63.1110489 30.390625 59.1526958 30.390625 57.1344868 28.3919471 57.0563614 24.3945312L57.0563614 13.0078125 53.9704239 13.0078125 53.9704239 8.8671875 57.0563614 8.8671875 57.0563614 3.671875 62.7008927 3.671875z"/>
    </g>
    <path fill="#000" fill-rule="nonzero" d="M147.238247,29.744969 L156.002823,30.7846827 C158.12634,31.6221811 159.796749,30.521276 158.599735,28.4748083 L145.216173,10.2866406 C144.005633,8.5711198 142.984452,8.5711198 141.780675,10.2866406 L128.403876,28.4748083 C127.200099,30.521276 128.870509,31.615427 131.000787,30.7846827 L139.765364,29.744969 L139.765364,41.5839537 C139.765364,42.6885232 140.660794,43.5839537 141.765364,43.5839537 L145.238247,43.5839537 C146.342817,43.5839537 147.238247,42.6885232 147.238247,41.5839537 L147.238247,29.744969 Z" transform="matrix(1 0 0 -1 0 52.584)"/>
  </g>
</svg>
