<svg xmlns="http://www.w3.org/2000/svg" width="46" height="46" viewBox="0 0 46 46">
  <g fill="none" fill-rule="evenodd">
    <rect width="46" height="46" fill="#FFF" rx="3"/>
    <path fill="#000" fill-rule="nonzero" d="M32.8270792,29.2141779 L32.8270792,17.5064734 C34.0731176,17.0682967 34.8511068,15.8272893 34.7025418,14.5148339 C34.5539769,13.2023786 33.5182727,12.1666744 32.2058173,12.0181094 C30.8933619,11.8695445 29.6523546,12.6475336 29.2141779,13.8935721 L17.5064734,13.8935721 C17.0682967,12.6475336 15.8272893,11.8695445 14.5148339,12.0181094 C13.2023786,12.1666744 12.1666744,13.2023786 12.0181094,14.5148339 C11.8695445,15.8272893 12.6475336,17.0682967 13.8935721,17.5064734 L13.8935721,29.2141779 C12.6475336,29.6523546 11.8695445,30.8933619 12.0181094,32.2058173 C12.1666744,33.5182727 13.2023786,34.5539769 14.5148339,34.7025418 C15.8272893,34.8511068 17.0682967,34.0731176 17.5064734,32.8270792 L29.2141779,32.8270792 C29.6523546,34.0731176 30.8933619,34.8511068 32.2058173,34.7025418 C33.5182727,34.5539769 34.5539769,33.5182727 34.7025418,32.2058173 C34.8511068,30.8933619 34.0731176,29.6523546 32.8270792,29.2141779 Z M30.9337285,29.2141779 C30.1310041,29.4994217 29.4994217,30.1310041 29.2141779,30.9337285 L17.5064734,30.9337285 C17.2212296,30.1310041 16.5896472,29.4994217 15.7869228,29.2141779 L15.7869228,17.5064734 C16.5896472,17.2212296 17.2212296,16.5896472 17.5064734,15.7869228 L29.2141779,15.7869228 C29.4994217,16.5896472 30.1310041,17.2212296 30.9337285,17.5064734 L30.9337285,29.2141779 Z" transform="rotate(34 23.36 23.36)"/>
  </g>
</svg>
