<svg xmlns="http://www.w3.org/2000/svg" width="50" height="50" viewBox="0 0 50 50">
  <g fill="none">
    <path fill="#FFFEFF" d="M5,0 L45,0 C47.7614237,-4.4408921e-16 50,2.23857625 50,5 L50,45 C50,47.7614237 47.7614237,50 45,50 L5,50 C2.23857625,50 3.33066907e-16,47.7614237 0,45 L0,5 C-4.4408921e-16,2.23857625 2.23857625,5.55111512e-16 5,0 Z"/>
    <path fill="#000" d="M5,2 C3.34314575,2 2,3.34314575 2,5 L2,45 C2,46.6568542 3.34314575,48 5,48 L45,48 C46.6568542,48 48,46.6568542 48,45 L48,5 C48,3.34314575 46.6568542,2 45,2 L5,2 Z"/>
    <path fill="#FFF" d="M5,4 C4.44771525,4 4,4.44771525 4,5 L4,45 C4,45.5522847 4.44771525,46 5,46 L45,46 C45.5522847,46 46,45.5522847 46,45 L46,5 C46,4.44771525 45.5522847,4 45,4 L5,4 Z"/>
    <path fill="#000" d="M16.12,20.5 L13.54,20.5 L13.54,32.58 L11.58,32.58 L11.58,20.5 L9,20.5 L9,18.58 L16.12,18.58 L16.12,20.5 Z M25,27.3 C25,27.6200016 24.9933334,27.846666 24.98,27.98 L19.48,27.98 C19.6000006,29.9666766 20.259994,30.96 21.46,30.96 C22.1666702,30.96 22.7999972,30.7000026 23.36,30.18 L24.54,31.4 C23.6999958,32.333338 22.6600062,32.8 21.42,32.8 C20.1933272,32.8 19.2400034,32.3066716 18.56,31.32 C17.89333,30.3733286 17.56,29.0600084 17.56,27.38 C17.56,25.5933244 17.9066632,24.2133382 18.6,23.24 C19.2533366,22.3199954 20.1533276,21.86 21.3,21.86 C22.3933388,21.86 23.27333,22.3066622 23.94,23.2 C24.6466702,24.1733382 25,25.5399912 25,27.3 Z M23.04,26.32 C23.0133332,25.519996 22.8433349,24.8766691 22.53,24.39 C22.2166651,23.9033309 21.793336,23.66 21.26,23.66 C20.2466616,23.66 19.6600008,24.5466578 19.5,26.32 L23.04,26.32 Z M34.06,32.58 L31.88,32.58 L30.92,30.36 C30.8399996,30.1733324 30.6066686,29.5733384 30.22,28.56 C29.953332,29.2666702 29.7000012,29.886664 29.46,30.42 L28.5,32.58 L26.32,32.58 L29,27.1 L26.54,22.08 L28.7,22.08 L29.46,23.84 C29.8066684,24.6533374 30.046666,25.2533314 30.18,25.64 C30.3266674,25.1866644 30.5733316,24.5666706 30.92,23.78 L31.66,22.08 L33.84,22.08 L31.4,27.1 L34.06,32.58 Z M40.12,30.54 L39.9,32.32 C39.4066642,32.6400016 38.8333366,32.8 38.18,32.8 C36.8333266,32.8 36.16,31.9066756 36.16,30.12 L36.16,23.88 L35.02,23.88 L35.02,22.08 L36.16,22.08 L36.16,19.02 L38.08,18 L38.08,22.08 L40.1,22.08 L40.1,23.88 L38.08,23.88 L38.08,29.94 C38.08,30.6333368 38.346664,30.98 38.88,30.98 C39.3600024,30.98 39.7733316,30.8333348 40.12,30.54 Z"/>
  </g>
</svg>
