<?xml version="1.0" encoding="utf-8"?>
<!-- Generator: Adobe Illustrator 16.0.0, SVG Export Plug-In . SVG Version: 6.00 Build 0)  -->
<!DOCTYPE svg PUBLIC "-//W3C//DTD SVG 1.1//EN" "http://www.w3.org/Graphics/SVG/1.1/DTD/svg11.dtd">
<svg version="1.1" id="Layer_1" xmlns="http://www.w3.org/2000/svg" xmlns:xlink="http://www.w3.org/1999/xlink" x="0px" y="0px"
	 width="563.715px" height="439.07px" viewBox="0 0 563.715 439.07" enable-background="new 0 0 563.715 439.07"
	 xml:space="preserve">
<g>
	<g>
		<path fill-rule="evenodd" clip-rule="evenodd" d="M33.428,439.07C15.032,439.07,0,424.044,0,405.647C0,302.701,0,136.545,0,33.428
			C0,15.032,15.032,0,33.428,0c169.98,0,326.693,0,496.852,0c18.396,0,33.435,15.032,33.435,33.428c0,102.94,0,269.097,0,372.219
			c0,18.396-15.038,33.423-33.435,33.423C360.307,439.07,203.584,439.07,33.428,439.07"/>
		<path fill-rule="evenodd" clip-rule="evenodd" fill="#FDD607" d="M33.428,422.266c-9.198,0-16.803-7.429-16.803-16.618
			c0-102.946,0-269.103,0-372.219c0-9.201,7.604-16.806,16.803-16.806c169.98,0,326.693,0,496.852,0
			c9.205,0,16.63,7.604,16.63,16.806c0,102.94,0,269.097,0,372.219c0,9.189-7.425,16.618-16.63,16.618
			C360.307,422.266,203.584,422.266,33.428,422.266"/>
		<path fill-rule="evenodd" clip-rule="evenodd" fill="#FFFFFF" d="M304.852,422.266c81.748,0,140.479,0,225.519,0
			c9.204,0,16.63-7.429,16.63-16.618c0-103.122,0-269.279,0-372.219c0-9.201-7.426-16.806-16.63-16.806
			c-85.086,0-143.816,0-225.519,0V422.266z"/>
		<g>
			<g>
				<path fill-rule="evenodd" clip-rule="evenodd" fill="#1B1719" d="M442.633,196.839c2.358,5.762,8.532,11.938,14.303,16.753
					c5.899,4.755,13.104,7.685,15.006,8.274c1.904,0.554,8.718,2.059,9.57,2.059c0.762,0,1.914,1.151,2.666,1.151
					c0.825,0,2.449-1.151,2.943-3.209c0.535-2.1,2.09-8.562-1.082-9.118c-3.19-0.473-3.396,0.844-3.396,0.844
					s-4.064-1.03-4.807-1.874c-0.863-0.784-7.224-4.002-9.128-6.071c-1.894-2.102-6.266-6.645-8.252-10.146
					c-2.356-4.283-4.549-11.01-5.876-13.659c-1.337-2.664-4.458-8.243-6.638-10.157c-2.172-1.79-7.206-6.356-7.481-6.554
					c-0.205-0.256-0.205-2.738,0.275-3.026c0.569-0.298,5.58-2.933,6.64-5.32c1.052-2.345,2.458-3.479,2.458-7.954
					c0-4.539-4.27-14.12-14.404-14.12c-10.148,0-13.574,7.688-13.574,13.287c0,7.84,5.041,9.662,3.714,11.452
					c-0.863,1.153-3.5,1.062-6.638,1.329c-3.23,0.287-10.434,3.229-14.139,6.75c-3.705,3.499-10.62,11.465-12.802,15.644
					c-2.184,4.26-6.153,12.215-7.669,17.926c-1.615,5.58-2.189,9.015-2.189,11.176c0,2.101-0.559,4.547-0.559,4.547
					s-2.94,1.802-2.94,3.707c0,1.891,3.22,4.742,4.825,5.596c1.721,0.833,5.31,2.162,6.349,2.162c1.06,0,4.837-1.606,4.837-4.074
					c0-2.453-1.604-6.062-1.604-8.131c0-2.194,2.471-11.013,3.52-12.916c1.037-1.801,5.311-8.531,6.351-9.57
					c1.039-1.062,2.652-2.378,2.652-2.378c0.178,7.494-0.864,25.419-2.377,30.542c-1.614,5.119-8.818,19.451-11.854,24.269
					c-3.499,5.875-11.465,17.925-15.644,22.773c-4.177,4.806-10.248,10.217-11.195,10.793c-0.967,0.66-0.671,1.999,0,3.233
					c0.668,1.225,8.242,16.302,8.626,16.302c0.285,0,11.854,2.282,12.531,2.282c0.647,0,1.236-2.006,0-2.654
					c-1.328-0.678-2.654-0.863-2.654-0.863c-1.143-4.539-2.284-9.18-3.52-13.842c0,0,9.684-8.901,11.568-11.207
					c1.892-2.182,12.141-12.4,14.036-15.23c1.883-2.872,8.335-11.897,9.281-14.138c0.865-2.204,5.136-9.202,5.136-9.202
					s4.446,3.776,6.071,6.072c1.513,2.202,8.614,14.962,10.229,17.834c1.626,2.831,7.698,16.97,8.646,20.181
					c0.844,3.138,10.887,30.05,10.887,30.05s23.598-10.218,24.564-10.909c0.948-0.648,2.274-3.128,0-3.128
					c-2.283,0-16.599-1.957-16.599-1.957s-0.937-7.975-1.317-10.269c-0.298-2.262-3.777-18.195-5.045-21.075
					c-1.315-2.812-7.388-16.921-8.714-18.525c-1.329-1.563-5.773-13.782-6.638-16.629c-0.958-2.832-2.657-10.52-2.657-13.749
					C438.927,209.042,440.534,200.615,442.633,196.839"/>
			</g>
			<g>
				<rect x="316.769" y="116.895" width="22.684" height="21.9"/>
				<rect x="316.769" y="163.041" width="22.684" height="21.909"/>
				<rect x="316.769" y="209.195" width="22.684" height="21.909"/>
				<rect x="316.769" y="23.332" width="22.684" height="21.9"/>
				<rect x="316.769" y="69.478" width="22.684" height="21.908"/>
				<rect x="316.769" y="115.632" width="22.684" height="21.909"/>
				<rect x="316.769" y="254.569" width="22.684" height="21.899"/>
				<rect x="316.769" y="254.569" width="22.684" height="21.899"/>
				<rect x="316.769" y="300.713" width="22.684" height="21.91"/>
				<rect x="316.769" y="346.868" width="22.684" height="21.91"/>
				<rect x="316.769" y="392.241" width="22.684" height="21.902"/>
				<rect x="316.769" y="392.241" width="22.684" height="21.9"/>
			</g>
			<g>
				<rect x="512.399" y="118.307" width="22.684" height="21.9"/>
				<rect x="512.399" y="164.453" width="22.684" height="21.909"/>
				<rect x="512.399" y="210.608" width="22.684" height="21.908"/>
				<rect x="512.399" y="24.744" width="22.684" height="21.9"/>
				<rect x="512.399" y="70.891" width="22.684" height="21.908"/>
				<rect x="512.399" y="117.045" width="22.684" height="21.909"/>
				<rect x="512.399" y="255.982" width="22.684" height="21.899"/>
				<rect x="512.399" y="255.982" width="22.684" height="21.899"/>
				<rect x="512.399" y="302.126" width="22.684" height="21.909"/>
				<rect x="512.399" y="348.281" width="22.684" height="21.908"/>
				<rect x="512.399" y="393.654" width="22.684" height="21.901"/>
				<rect x="512.399" y="393.654" width="22.684" height="21.9"/>
			</g>
		</g>
	</g>
	<path fill-rule="evenodd" clip-rule="evenodd" d="M167.993,323.3l31.712-31.712l-2.597,0.006
		c-70.379,0-78.082,31.077-78.082,55.109l-0.013,63.748H87.19c0,0,0-54.446,0-63.753c0-34.799,22.172-86.497,110.26-86.933
		l2.256-0.001l-31.766-31.871l47.789,0.004l47.726,47.727l-47.737,47.737L167.993,323.3"/>
	<g>
		<g>
			<defs>
				<polyline id="SVGID_1_" points="262.274,209.5 262.274,29.634 58.59,29.634 58.59,209.5 				"/>
			</defs>
			<clipPath id="SVGID_2_">
				<use xlink:href="#SVGID_1_"  overflow="visible"/>
			</clipPath>
			<polyline clip-path="url(#SVGID_2_)" fill-rule="evenodd" clip-rule="evenodd" fill="#FFFFFF" points="210.363,37.284 
				251.792,37.284 161.055,198.246 69.059,37.284 210.363,37.284 			"/>
			<path clip-path="url(#SVGID_2_)" fill-rule="evenodd" clip-rule="evenodd" fill="#E4051E" d="M72.024,29.634
				c-4.794,0-9.198,2.559-11.586,6.733c-2.469,4.169-2.469,9.315,0,13.488l88.324,152.926c2.413,4.161,6.847,6.719,11.667,6.719
				c4.827,0,9.285-2.579,11.679-6.765l88.369-152.88c2.399-4.173,2.399-9.319,0-13.488c-2.458-4.174-6.918-6.733-11.709-6.733
				H72.024 M240.932,47.627H79.913l80.516,139.359L240.932,47.627z"/>
		</g>
		<g id="XMLID_20_">
			<g>
				<path d="M201.064,81.856c-3.928,0-7.856,0-11.785,0c0,4.549,0,9.096,0,13.643c4.471,0,8.942,0,13.413,0c0,2.37,0,4.738,0,7.111
					c-6.779,0-13.558,0-20.338,0c0-15.877,0-31.754,0-47.628c-0.001-0.037-0.003-0.069,0.025-0.073c6.771,0,13.542,0,20.313,0
					c0,2.179,0,4.356,0,6.54c-4.471,0-8.941,0-13.413,0c0,4.563,0,9.128,0,13.696c3.88,0.054,7.865,0.005,11.785,0.022
					C201.064,77.399,201.064,79.627,201.064,81.856z"/>
				<path d="M173.54,124.256c-0.039-0.291-0.202-0.648-0.315-0.97c-1.667-4.754-3.271-9.667-4.884-14.41
					c-0.031-0.005-0.031-0.074,0-0.074c1.434,0,2.867,0,4.301,0c0.986,3.355,1.979,6.704,2.964,10.06
					c1.019-3.339,2.016-6.697,3.012-10.06c1.451,0,2.901,0,4.351,0c0.033,0.159-0.074,0.298-0.122,0.438
					c-1.582,4.652-3.21,9.319-4.86,14.02c-0.115,0.328-0.295,0.655-0.34,0.949c-0.067,0.436,0,0.972,0,1.458
					c0,3.365,0,6.791,0,10.18c-1.369,0-2.738,0-4.107,0c0-3.378,0-6.743,0-10.157C173.54,125.212,173.601,124.698,173.54,124.256z"
					/>
				<path d="M157.092,135.847c-2.322,0.016-1.793,0.016-3.911,0c1.973-8.889,4.242-18.336,6.219-27.221l3.062,0.031
					c0.431,0.282,5.067,22.777,5.968,27.189c-1.941,0-4.112,0-4.112,0s-0.618-2.421-0.957-3.889c-0.193,0.007-3.783,0.075-4.859,0
					C157.699,133.947,157.487,134.61,157.092,135.847z M159.4,127.756c1.061,0,2.122,0,3.183,0
					c-0.438-2.686-0.897-5.356-1.604-7.775C160.385,122.502,159.737,124.975,159.4,127.756z"/>
				<path d="M163.975,102.611c-3.195-15.883-6.388-31.765-9.597-47.628c-0.002-0.037-0.005-0.069,0.024-0.073
					c2.422,0,4.843,0,7.265,0c0.197,0.645,0.255,1.331,0.365,1.99c1.654,9.974,3.305,20.116,4.957,30.117
					c1.827-10.678,3.613-21.405,5.418-32.107c2.47,0,4.94,0,7.411,0c-3.264,15.907-6.541,31.8-9.816,47.701
					C167.993,102.611,165.984,102.611,163.975,102.611z"/>
				<path d="M145.216,54.984c-0.001-0.037-0.004-0.07,0.024-0.074c2.325,0,4.648,0,6.975,0c0,15.899,0,31.799,0,47.701
					c-2.334,0-4.667,0-6.999,0C145.216,86.73,145.216,70.856,145.216,54.984z"/>
				<path d="M137.648,135.83l-3.737-26.929h4.034l1.579,10.883l2.017-11.029h3.791l1.773,11.08c0,0,1.263-7.373,1.871-11.08
					c0.887,0,4.416-0.025,4.416-0.025c-1.342,8.623-4.424,27.1-4.424,27.1h-3.836c0,0-1.667-11.237-1.792-11.768
					c-0.658,3.863-1.232,7.895-1.879,11.768H137.648z"/>
				<path d="M116.532,95.917c-0.081-0.338-0.493-30.92-0.413-31.854c0.364-4.208,1.762-7.412,5.005-8.748
					c0.348-0.141,0.665-0.367,1.021-0.483c1.155-0.387,2.571-0.497,4.033-0.56c2.479-0.109,5.385-0.099,7.582,0.341
					c1.762,0.352,3.213,0.953,4.107,2.42c0.794,1.067,1.666,2.305,2.04,4.115c0.179,0.874,0.193,1.857,0.243,2.893
					c0.047,1.007,0.139,2.082,0.071,3.06c-0.039,0.589-0.237,1.219-0.874,1.286c-0.107,0.036-4.174,0.015-5.2-0.043
					c-0.145-0.188-0.228-0.438-0.292-0.709c0.005-0.108,0.07-3.963-0.947-4.809c-0.76-0.638-1.344-0.716-1.555-0.755
					c-0.241-0.042-6.123,0.348-6.422,0.376c-0.967,0.103-0.89,0.403-1.378,0.985c-0.284,0.343,0.05,30.268,0.34,30.615
					c0.345,0.409,0.875,0.853,1.58,0.923c1.207,0.117,2.438,0.162,3.863,0.097c1.306-0.06,3.118-0.271,3.572-1.191
					c0.063-0.129,0.186-0.237,0.234-0.585c0.212-0.721,0.392-1.74,0.445-2.89c0.034-0.694,0.074-1.409,0.074-2.187
					c0-0.254,0.055-0.506,0.024-0.705c-0.021-0.155-0.107-4.151-0.145-5.636c-1.462,0.032-2.893-0.133-4.399-0.074
					c-0.212,0.008-0.492,0.058-0.631,0.025c-0.086-0.02-0.375-0.3-0.414-0.441c-0.036-0.129,0.008-0.41,0-0.58
					c-0.02-0.527-0.145-5.555-0.145-5.663c0-0.367,0.246-0.726,0.485-0.897c0.729-0.523,11.555-0.133,11.833-0.121
					c0.243,0.197,0.181,0.604,0.194,0.948c0.028,0.699,0.17,26.606,0.17,26.606s-0.355,0.499-0.461,0.825
					c-0.962,0.042-5.979,0.053-5.979,0.053s-0.166-1.016-0.144-1.804c-0.152,0.087-0.232,0.242-0.34,0.366
					c-0.782,0.902-1.824,1.595-3.231,1.922c-0.825,0.188-1.746,0.171-2.722,0.216c-0.979,0.048-1.973,0.071-2.866,0.024
					c-2.837-0.153-4.875-0.979-6.246-2.601c-0.449-0.531-0.717-1.158-1.092-1.845c-0.162-0.296-0.32-0.542-0.437-0.874
					C116.889,97.328,116.711,96.655,116.532,95.917z"/>
			</g>
			<g>
			</g>
		</g>
	</g>
</g>
</svg>
