<?xml version="1.0" encoding="utf-8"?>
<!-- Generator: Adobe Illustrator 15.0.0, SVG Export Plug-In . SVG Version: 6.00 Build 0)  -->
<!DOCTYPE svg PUBLIC "-//W3C//DTD SVG 1.1//EN" "http://www.w3.org/Graphics/SVG/1.1/DTD/svg11.dtd">
<svg version="1.1" id="Layer_1" xmlns="http://www.w3.org/2000/svg" xmlns:xlink="http://www.w3.org/1999/xlink" x="0px" y="0px"
	 width="907.09px" height="694.49px" viewBox="0 0 907.09 694.49" enable-background="new 0 0 907.09 694.49" xml:space="preserve">
<path d="M43.796,688.478c-21.227,0-38.572-17.338-38.572-38.564c0-118.783,0-486.616,0-605.597
	c0-21.229,17.345-38.571,38.572-38.571c196.13,0,623.153,0,819.49,0c21.228,0,38.579,17.344,38.579,38.571
	c0,118.777,0,486.609,0,605.597c0,21.228-17.353,38.564-38.579,38.564C667.163,688.478,240.13,688.478,43.796,688.478"/>
<path fill="#FDD607" d="M43.796,669.088c-10.614,0-19.388-8.571-19.388-19.175c0-118.783,0-486.616,0-605.597
	c0-10.617,8.774-19.393,19.388-19.393c196.13,0,623.153,0,819.49,0c10.621,0,19.188,8.774,19.188,19.393
	c0,118.776,0,486.609,0,605.597c0,10.604-8.566,19.175-19.188,19.175C667.163,669.088,240.13,669.088,43.796,669.088"/>
<g enable-background="new    ">
	<path d="M105.609,67.5h32.764c11.816,0,22.057,6.303,30.723,18.906c5.729,9.023,8.594,17.582,8.594,25.674v25.996l-0.967,0.967
		h-26.533c-0.932,0-1.396-2.828-1.396-8.486v-19.98c0-5.729-2.865-9.811-8.594-12.246l-3.76-0.967h-27.93
		c-6.947,0-10.42,3.008-10.42,9.023l-0.537,114.619c1.432,8.881,6.803,13.32,16.113,13.32h25.137c6.945,0,10.42-3.473,10.42-10.42
		v-31.26l0.967-0.967h8.057l18.906,0.43l0.537,0.537v40.176c0,5.945-4.764,13.07-14.287,21.377
		c-9.311,6.947-16.078,10.42-20.303,10.42h-31.26c-12.82,0-24.063-4.727-33.73-14.18c-5.658-8.02-8.486-16.721-8.486-26.104V104.023
		c0-12.531,6.016-23.273,18.047-32.227C94.186,68.933,100.166,67.5,105.609,67.5z"/>
	<path d="M255.678,68.252c0.572,0,2.434,8.773,5.586,26.318c18.547,82.5,30.938,139.041,37.168,169.619l-0.43,0.43h-25.889
		c-0.789,0-3.152-9.273-7.09-27.822h-36.738c-4.799,17.332-7.771,26.605-8.916,27.822h-28.252l43.828-196.367H255.678z
		 M245.795,148.281l-11.387,58.867H258.9l-11.709-58.867H245.795z"/>
	<path d="M310.248,67.177h27.822l0.967,0.967V225.41c0,4.727,3.473,8.523,10.42,11.387l3.76,0.43h40.605
		c9.166,0,13.75-4.727,13.75-14.18V68.144l0.859-0.967h28.359l0.967,0.967v155.869c0,18.621-7.699,31.045-23.096,37.275
		c-6.947,2.221-12.641,3.33-17.08,3.33h-50.059c-17.475,0-29.578-8.342-36.309-25.029c-1.289-3.867-1.934-7.805-1.934-11.816V68.144
		L310.248,67.177z"/>
	<path d="M450.971,67.177h86.26l0.859,0.967v28.252l-0.859,0.967h-26.963v166.289l-0.859,0.967h-30.186l-0.967-0.967V97.363h-27.285
		l-0.967-0.967V68.144L450.971,67.177z"/>
	<path d="M550.658,67.5h24.492l0.967,0.967v195.186l-0.967,0.967h-24.492l-0.967-0.967V68.467L550.658,67.5z"/>
	<path d="M660.98,68.681c7.232,0,15.826,3.76,25.781,11.279c7.805,8.021,11.709,17.402,11.709,28.145v111.504
		c0,19.551-9.061,33.768-27.178,42.646c-4.297,1.576-8.523,2.363-12.676,2.363h-25.781c-10.742,0-21.664-3.438-32.764-10.313
		c-8.451-10.455-12.676-19.658-12.676-27.607V108.535c0-19.621,10.313-32.906,30.938-39.854H660.98z M618.334,112.724v108.818
		c0,5.229,2.506,8.809,7.52,10.742l2.793,0.43h29.541c4.869,0,7.842-3.258,8.916-9.775l0.43-46.406v-27.178l0.537-37.061
		c-1.219-8.449-5.156-12.676-11.816-12.676c0-0.572-1.541-0.895-4.619-0.967h-21.592c-5.156,0-8.916,3.617-11.279,10.85
		L618.334,112.724z"/>
	<path d="M712.865,67.607h25.889c1.145,1.219,10.42,20.555,27.822,58.008l30.186,62.197V68.574l0.967-0.967h25.889l0.967,0.967
		v195.078l-0.967,0.967h-26.426c-0.717,0-8.416-15.396-23.096-46.191l-34.375-70.684h-0.537v115.908l-0.859,0.967h-25.459
		l-0.967-0.967V68.574L712.865,67.607z"/>
</g>
<g enable-background="new    ">
	<path d="M57.374,364.369h14.239l0.532,0.531v42.186h31.669V364.9l0.532-0.531h14.476l0.532,0.531v109.187l-0.532,0.532h-15.303
		l-0.532-0.532v-50.635H71.613v50.635l-0.532,0.532H57.374l-0.532-0.532V364.9L57.374,364.369z"/>
	<path d="M126.442,366.436h47.385l0.532,0.532v15.185l-0.532,0.531h-30.605v26.47h30.605l0.532,0.532v15.716l-0.532,0.473h-30.605
		v32.496h30.605l0.532,0.532v15.184l-0.532,0.532h-47.385l-0.532-0.532V366.969L126.442,366.436z"/>
	<path d="M216.604,366.614c0.315,0,1.339,4.825,3.072,14.476c10.201,45.376,17.016,76.475,20.443,93.293l-0.236,0.236h-14.239
		c-0.434,0-1.734-5.101-3.9-15.303h-20.207c-2.639,9.533-4.274,14.634-4.904,15.303h-15.539l24.106-108.005H216.604z
		 M211.169,410.632l-6.263,32.378h13.471l-6.44-32.378H211.169z"/>
	<path d="M261.626,366.436c0.354,0,2.6,8.98,6.735,26.942l9.276,39.822c0.354,0,2.6-8.96,6.735-26.883l9.572-39.882h15.539
		l0.295,0.236h0.236l-24.047,107.946h-15.539c-0.473,0-2.029-6.124-4.667-18.375l-19.675-89.571l0.236-0.236H261.626z"/>
	<path d="M351.138,474.619h-15.303v-46.263l-20.797-61.27h16.13l12.408,42.067l12.585-42.067h16.307l-21.33,61.27V474.619z"/>
	<path d="M427.179,366.436c0.354,0,2.6,8.98,6.735,26.942l9.276,39.822c0.354,0,2.6-8.96,6.735-26.883l9.572-39.882h15.539
		l0.295,0.236h0.236l-24.047,107.946h-15.539c-0.473,0-2.029-6.124-4.667-18.375l-19.675-89.571l0.236-0.236H427.179z"/>
	<path d="M481.123,366.436h47.385l0.531,0.532v15.185l-0.531,0.531h-30.605v26.47h30.605l0.531,0.532v15.716l-0.531,0.473h-30.605
		v32.496h30.605l0.531,0.532v15.184l-0.531,0.532h-47.385l-0.532-0.532V366.969L481.123,366.436z"/>
	<path d="M536.308,364.369h14.238l0.532,0.531v42.186h31.669V364.9l0.531-0.531h14.476l0.532,0.531v109.187l-0.532,0.532h-15.303
		l-0.531-0.532v-50.635h-31.374v50.635l-0.531,0.532h-13.707l-0.532-0.532V364.9L536.308,364.369z"/>
	<path d="M605.376,366.2h13.471l0.531,0.532v107.354l-0.531,0.532h-13.471l-0.532-0.532V366.732L605.376,366.2z"/>
	<path d="M645.375,366.2h18.021c6.499,0,12.132,3.467,16.898,10.399c3.15,4.963,4.727,9.67,4.727,14.12v14.299l-0.532,0.531h-14.594
		c-0.512,0-0.768-1.556-0.768-4.667v-10.99c0-3.15-1.576-5.396-4.727-6.735l-2.068-0.531h-15.361c-3.821,0-5.731,1.654-5.731,4.963
		l-0.296,63.042c0.788,4.885,3.742,7.326,8.863,7.326h13.825c3.82,0,5.731-1.909,5.731-5.73v-17.193l0.531-0.532h4.432l10.398,0.236
		l0.296,0.296v22.097c0,3.271-2.62,7.189-7.858,11.758c-5.121,3.821-8.843,5.731-11.167,5.731h-17.193
		c-7.051,0-13.234-2.6-18.552-7.799c-3.112-4.411-4.668-9.197-4.668-14.357v-66.174c0-6.893,3.309-12.801,9.926-17.726
		C639.092,366.989,642.381,366.2,645.375,366.2z"/>
	<path d="M692.938,366.2h14.002l0.532,0.532v91.284h25.643l0.531,0.532v15.538l-0.531,0.532h-40.177l-0.532-0.532V366.732
		L692.938,366.2z"/>
	<path d="M740.205,366.436h47.385l0.531,0.532v15.185l-0.531,0.531h-30.605v26.47h30.605l0.531,0.532v15.716l-0.531,0.473h-30.605
		v32.496h30.605l0.531,0.532v15.184l-0.531,0.532h-47.385l-0.532-0.532V366.969L740.205,366.436z"/>
	<path d="M818.55,366.436h2.896c8.192,0,14.968,5.908,20.324,17.726c0.709,2.048,1.063,3.88,1.063,5.494v8.863l-0.531,0.531h-14.83
		l-0.532-0.531v-7.563c0-4.174-2.088-6.263-6.263-6.263c-4.963,0-8.174,3.132-9.631,9.395v0.769c0,5.593,6.677,13.766,20.03,24.52
		c7.838,6.578,11.757,14.83,11.757,24.756v3.899c0,11.306-5.042,19.655-15.125,25.052c-2.876,1.024-5.574,1.536-8.095,1.536h-2.067
		c-8.075,0-14.771-4.687-20.089-14.062c-1.733-4.057-2.6-9.197-2.6-15.421v-4.668l0.532-0.532h15.361l0.532,0.532v10.162
		c0,1.772,1.397,3.072,4.194,3.899c5.317,0,9.04-3.032,11.167-9.099l0.531-3.663c0-2.56-4.175-7.858-12.525-15.894
		c-12.171-12.446-18.257-19.144-18.257-20.089c-0.513-2.638-0.768-6.893-0.768-12.762c0-13.471,6.341-22.156,19.024-26.056
		L818.55,366.436z"/>
</g>
<g enable-background="new    ">
	<path d="M66.797,506.023h47.444l0.473,0.531v15.539l-0.473,0.532h-14.83v91.461l-0.473,0.532H82.336l-0.532-0.532v-91.461H66.797
		l-0.532-0.532v-15.539L66.797,506.023z"/>
	<path d="M121.627,506.023h15.303l0.532,0.531v86.499c0,2.6,1.91,4.688,5.731,6.263l2.068,0.236h22.334
		c5.042,0,7.563-2.6,7.563-7.799v-85.199l0.473-0.531h15.598l0.532,0.531v85.73c0,10.242-4.234,17.075-12.703,20.502
		c-3.821,1.222-6.953,1.832-9.395,1.832h-27.533c-9.611,0-16.268-4.588-19.97-13.767c-0.709-2.127-1.063-4.293-1.063-6.499v-87.799
		L121.627,506.023z"/>
	<path d="M200.208,506.673h36.396c7.72,0,13.136,3.271,16.248,9.809l0.295,1.536v35.391c0,7.012-3.368,11.758-10.103,14.239
		l-0.236,0.236v0.236l10.339,46.263l-0.295,0.236h-17.016c-0.552,0-2.541-7.917-5.967-23.752l-5.14-21.684l-7.208,0.473v44.431
		l-0.532,0.532h-16.78l-0.532-0.532V507.205L200.208,506.673z M217.225,524.22v27.415c11.541,0,17.312-0.433,17.312-1.3
		c0.866-0.866,1.477-2.087,1.832-3.663l-0.295-1.005c-0.354-12.722-0.867-19.084-1.536-19.084c-1.379-1.574-2.836-2.363-4.372-2.363
		H217.225z"/>
	<path d="M259.352,506.26h14.239c0.629,0.67,5.731,11.305,15.303,31.905l16.603,34.209v-65.583l0.532-0.531h14.239l0.532,0.531
		v107.296l-0.532,0.532h-14.535c-0.394,0-4.629-8.469-12.703-25.406l-18.907-38.877h-0.295v63.751l-0.473,0.532h-14.003
		l-0.532-0.532V506.791L259.352,506.26z"/>
	<path d="M328.302,506.2h13.471l0.532,0.532v107.354l-0.532,0.532h-13.471l-0.532-0.532V506.732L328.302,506.2z"/>
	<path d="M349.041,506.26h14.239c0.629,0.67,5.731,11.305,15.303,31.905l16.603,34.209v-65.583l0.532-0.531h14.239l0.532,0.531
		v107.296l-0.532,0.532h-14.535c-0.394,0-4.629-8.469-12.703-25.406l-18.907-38.877h-0.295v63.751l-0.473,0.532h-14.003
		l-0.532-0.532V506.791L349.041,506.26z"/>
	<path d="M441.861,505.432h17.608c8.271,1.615,14.219,4.076,17.843,7.385c3.309,3.349,4.963,8.686,4.963,16.012v7.858l-0.532,0.532
		h-16.248l-0.531-0.532v-6.026c0-4.333-1.931-6.795-5.79-7.386h-17.548c-3.19,0-5.376,2.541-6.558,7.622v49.63
		c0,8.863,2.265,13.925,6.794,15.185h12.584c6.146,0,9.218-4.628,9.218-13.884V566.88h-13.944l-0.532-0.532v-15.775l0.532-0.531
		h32.023l0.532,0.531v62.215l-0.532,0.532h-17.311l-0.532-0.532v-3.427c-4.885,3.507-10.576,5.259-17.075,5.259h-7.563
		c-10.32,0-17.233-4.55-20.738-13.648c-0.709-2.757-1.063-5.022-1.063-6.795v-63.278c0-7.799,2.541-14.613,7.622-20.443
		C429.847,507.107,435.44,505.432,441.861,505.432z"/>
	<path d="M557.488,506.614c0.314,0,1.338,4.825,3.072,14.476c10.201,45.376,17.016,76.475,20.442,93.293l-0.236,0.236h-14.239
		c-0.434,0-1.733-5.101-3.899-15.303h-20.206c-2.64,9.533-4.274,14.634-4.904,15.303h-15.539l24.106-108.005H557.488z
		 M552.052,550.632l-6.263,32.378h13.472l-6.44-32.378H552.052z"/>
	<path d="M587.503,504.369h14.238l0.532,0.531v42.186h31.669V504.9l0.531-0.531h14.476l0.532,0.531v109.187l-0.532,0.532h-15.303
		l-0.531-0.532v-50.635h-31.374v50.635l-0.531,0.532h-13.707l-0.532-0.532V504.9L587.503,504.369z"/>
	<path d="M656.572,506.436h47.385l0.531,0.532v15.185l-0.531,0.531h-30.605v26.47h30.605l0.531,0.532v15.716l-0.531,0.473h-30.605
		v32.496h30.605l0.531,0.532v15.184l-0.531,0.532h-47.385l-0.532-0.532V506.969L656.572,506.436z"/>
	<path d="M746.734,506.614c0.314,0,1.338,4.825,3.072,14.476c10.201,45.376,17.016,76.475,20.442,93.293l-0.236,0.236h-14.239
		c-0.434,0-1.733-5.101-3.899-15.303h-20.206c-2.64,9.533-4.274,14.634-4.904,15.303h-15.539l24.106-108.005H746.734z
		 M741.298,550.632l-6.263,32.378h13.472l-6.44-32.378H741.298z"/>
	<path d="M776.748,506.614h34.682c6.814,0,13.904,4.136,21.271,12.407c1.692,3.033,2.54,5.712,2.54,8.035v65.288
		c0,5.83-2.226,11.01-6.676,15.539c-5.161,4.49-10.518,6.735-16.071,6.735h-35.745l-0.532-0.532V507.145L776.748,506.614z
		 M793.055,522.921v75.096l17.075,0.532c4.333-1.379,6.499-3.092,6.499-5.141c0.866-1.575,1.3-3.742,1.3-6.499V529.42
		c0-3.427-2.679-5.592-8.035-6.499H793.055z"/>
</g>
</svg>
