<?xml version="1.0" encoding="UTF-8" standalone="no"?>
<!-- Created with Inkscape (http://www.inkscape.org/) -->

<svg
   xmlns:dc="http://purl.org/dc/elements/1.1/"
   xmlns:cc="http://creativecommons.org/ns#"
   xmlns:rdf="http://www.w3.org/1999/02/22-rdf-syntax-ns#"
   xmlns:svg="http://www.w3.org/2000/svg"
   xmlns="http://www.w3.org/2000/svg"
   xmlns:sodipodi="http://sodipodi.sourceforge.net/DTD/sodipodi-0.dtd"
   xmlns:inkscape="http://www.inkscape.org/namespaces/inkscape"
   width="91.599998cm"
   height="91.599998cm"
   viewBox="0 0 915.99996 915.99996"
   version="1.1"
   id="svg827"
   inkscape:version="0.92.2 (5c3e80d, 2017-08-06)"
   sodipodi:docname="99.svg">
  <defs
     id="defs821" />
  <sodipodi:namedview
     id="base"
     pagecolor="#ffffff"
     bordercolor="#666666"
     borderopacity="1.0"
     inkscape:pageopacity="0.0"
     inkscape:pageshadow="2"
     inkscape:zoom="0.125"
     inkscape:cx="1761.8032"
     inkscape:cy="1310.4299"
     inkscape:document-units="cm"
     inkscape:current-layer="layer1"
     showgrid="false"
     units="cm"
     fit-margin-top="0"
     fit-margin-left="0"
     fit-margin-right="0"
     fit-margin-bottom="0"
     inkscape:window-width="1920"
     inkscape:window-height="1057"
     inkscape:window-x="-8"
     inkscape:window-y="-8"
     inkscape:window-maximized="1"
     showguides="false"
     inkscape:snap-global="false" />
  <metadata
     id="metadata824">
    <rdf:RDF>
      <cc:Work
         rdf:about="">
        <dc:format>image/svg+xml</dc:format>
        <dc:type
           rdf:resource="http://purl.org/dc/dcmitype/StillImage" />
        <dc:title></dc:title>
      </cc:Work>
    </rdf:RDF>
  </metadata>
  <g
     inkscape:label="Layer 1"
     inkscape:groupmode="layer"
     id="layer1"
     transform="translate(-650.59393,1456.6475)">
    <circle
       style="opacity:1;fill:#000000;fill-opacity:1;fill-rule:nonzero;stroke:none;stroke-width:23.99999809;stroke-miterlimit:4;stroke-dasharray:none;stroke-opacity:1"
       id="path6665"
       cx="1108.5939"
       cy="-998.64752"
       r="456" />
    <circle
       r="450"
       cy="-998.64752"
       cx="1108.5939"
       id="circle6667"
       style="opacity:1;fill:#ffffff;fill-opacity:1;fill-rule:nonzero;stroke:none;stroke-width:120;stroke-miterlimit:4;stroke-dasharray:none;stroke-opacity:1" />
    <circle
       style="opacity:1;fill:#003f87;fill-opacity:1;fill-rule:nonzero;stroke:none;stroke-width:119.99999237;stroke-miterlimit:4;stroke-dasharray:none;stroke-opacity:1"
       id="circle6669"
       cx="1108.5939"
       cy="-998.64752"
       r="390" />
    <path
       style="opacity:1;fill:#ffffff;fill-opacity:1;fill-rule:nonzero;stroke:none;stroke-width:36;stroke-linecap:square;stroke-linejoin:miter;stroke-miterlimit:4;stroke-dasharray:none;stroke-opacity:1"
       d="m 1108.5938,-625.64752 252.0001,-372.99998 -252.0002,-372.9999 -251.99971,372.99991 z m 226.659,-373.0035 -226.6589,335.4935 -226.65983,-335.49004 226.65823,-335.49204 z"
       id="rect828"
       inkscape:connector-curvature="0"
       sodipodi:nodetypes="cccccccccc" />
    <path
       style="color:#000000;font-style:normal;font-variant:normal;font-weight:normal;font-stretch:normal;font-size:medium;line-height:normal;font-family:sans-serif;font-variant-ligatures:normal;font-variant-position:normal;font-variant-caps:normal;font-variant-numeric:normal;font-variant-alternates:normal;font-feature-settings:normal;text-indent:0;text-align:start;text-decoration:none;text-decoration-line:none;text-decoration-style:solid;text-decoration-color:#000000;letter-spacing:normal;word-spacing:normal;text-transform:none;writing-mode:lr-tb;direction:ltr;text-orientation:mixed;dominant-baseline:auto;baseline-shift:baseline;text-anchor:start;white-space:normal;shape-padding:0;clip-rule:nonzero;display:inline;overflow:visible;visibility:visible;opacity:1;isolation:auto;mix-blend-mode:normal;color-interpolation:sRGB;color-interpolation-filters:linearRGB;solid-color:#000000;solid-opacity:1;vector-effect:none;fill:#ffffff;fill-opacity:1;fill-rule:nonzero;stroke:none;stroke-width:0.10000001;stroke-linecap:square;stroke-linejoin:miter;stroke-miterlimit:10;stroke-dasharray:none;stroke-dashoffset:0;stroke-opacity:1;color-rendering:auto;image-rendering:auto;shape-rendering:auto;text-rendering:auto;enable-background:accumulate"
       d="m 1102.777,-1148.6406 -4.3825,0.1923 -4.3826,0.3813 -4.3888,0.6325 -4.3827,0.8263 -4.3236,1.1487 -4.2541,1.2651 -4.1948,1.5937 -4.1951,1.8401 -4.0664,2.034 -4.0725,2.2897 -3.9378,2.6075 -3.8151,2.8603 -3.7486,3.0463 -3.6866,3.3686 -3.4973,3.6867 -3.3641,3.8788 -3.3036,4.2538 -3.1114,4.4462 -2.9238,4.8291 -2.7952,5.0787 -2.6711,5.339 -2.4975,5.9237 48.5917,16.661 1.5053,-3.299 1.4587,-2.7888 1.5177,-2.5905 1.5178,-2.2789 1.5177,-2.0867 1.5177,-1.8339 1.5176,-1.6464 1.4527,-1.4526 1.4542,-1.3301 1.4526,-1.1952 2.9067,-1.9566 2.9642,-1.5176 3.0354,-1.2014 3.1579,-0.9442 3.2803,-0.5674 3.5393,-0.2573 3.6043,0.063 3.7904,0.3812 3.7904,0.755 3.8618,1.1425 3.7269,1.4543 3.6089,1.7687 3.4169,2.0217 3.1578,2.279 2.8478,2.4678 2.5254,2.589 2.1503,2.6541 1.7625,2.713 1.3892,2.7129 1.0773,2.7781 0.8217,2.9051 0.4389,2.9657 0.1286,3.2214 -0.063,1.7643 -0.1939,1.8339 -0.2526,1.9565 -0.4387,2.1503 -0.5689,2.2091 -0.7612,2.409 -0.9488,2.5255 -1.2015,2.7238 -0.01,0.018 -0.4899,0.9845 -0.8154,1.1255 -0.9116,0.9752 -0.014,0.01 -2.2728,1.6463 -2.6431,1.3179 -3.0293,1.079 -1.7053,0.4386 -1.7625,0.3162 -1.8992,0.2529 -1.9565,0.1224 -2.1501,0.064 h -2.2154 l -2.4028,-0.1224 -2.4727,-0.3164 -2.6588,-0.3177 -2.9594,-0.5087 v 48.26125 0 h 3.5097 l 3.3517,0.1225 3.1641,0.31619 3.0401,0.38141 2.9702,0.63243 2.7844,0.69774 2.7238,0.8201 2.5904,0.94872 2.4665,1.07275 2.3379,1.19992 2.2153,1.33008 2.0851,1.39529 2.0277,1.51772 1.8929,1.5766 1.7038,1.70381 1.6463,1.77664 1.5178,1.82768 1.3889,1.89751 1.3302,1.96266 1.1363,2.08049 1.0077,2.09132 0.9504,2.14554 1.5176,4.42907 1.0124,4.61669 0.5689,4.6757 v 2.82454 2.48978 l -0.3922,4.395 h 0.029 l -1.5937,6.78859 -1.6463,4.30048 -2.1503,4.23523 -2.5905,4.04935 -3.0989,3.92523 -3.5455,3.66806 -3.9254,3.41671 -4.1717,2.97036 -4.4942,2.59509 -4.6818,2.15023 -4.7454,1.71148 -2.468,0.63249 -2.4014,0.5039 -4.8104,0.69758 -2.3316,0.12256 h -2.4089 l -3.0339,-0.12256 -2.9192,-0.18749 -2.7827,-0.3164 -2.5951,-0.44483 -2.5316,-0.50395 -2.3441,-0.5689 -2.2726,-0.63249 -2.1502,-0.69764 -3.9842,-1.64637 -3.6106,-1.83388 -3.2865,-2.08516 -3.099,-2.27424 -2.8416,-2.59515 -2.6542,-2.78271 -2.468,-3.10057 -2.2788,-3.409 -2.0278,-3.67419 -1.8975,-3.98415 -1.5829,-4.24309 -1.4355,-4.70511 -46.6739,12.29844 1.1363,4.04636 1.2651,3.87414 1.3363,3.81366 1.5224,3.68501 1.6526,3.68648 1.7177,3.62144 1.9038,3.49116 2.0324,3.36883 2.1625,3.364 2.2215,3.24633 2.42,3.11139 2.5363,3.04623 2.6076,2.92379 2.7951,2.85878 2.8586,2.6726 3.0525,2.60139 3.1114,2.47881 3.2401,2.35484 3.3702,2.22 3.4975,2.03391 3.6214,1.96897 3.744,1.84474 3.8787,1.65257 3.9376,1.52392 4.0664,1.33634 4.195,1.20616 4.3175,1.01384 4.4477,0.89138 4.5765,0.76118 4.6337,0.51 4.7639,0.37982 4.7454,0.18298 h 0.1411 l 0.1534,0.008 4.809,-0.065 4.8926,-0.25739 4.8927,-0.56737 4.7639,-0.76731 4.7702,-1.014 4.6989,-1.27279 4.6399,-1.52231 4.5702,-1.71772 4.4477,-1.9037 4.3888,-2.16262 4.254,-2.28516 4.13,-2.54248 4.0028,-2.72984 3.8726,-2.92394 3.75,-3.05238 3.5626,-3.24019 3.4276,-3.42757 3.3036,-3.55785 3.0479,-3.74845 2.9237,-3.81528 2.7363,-4.00126 2.4789,-4.19505 2.2851,-4.25387 2.0975,-4.38891 1.8386,-4.44777 1.6526,-4.63984 1.3363,-4.70037 1.1425,-4.76878 0.8263,-4.89261 0.6388,-4.95612 0.2511,-5.08016 0.065,-5.08655 -0.2526,-4.6988 -0.3798,-4.70499 -0.6387,-4.57027 -0.8262,-4.51125 -1.0141,-4.51287 -1.2075,-4.38251 -1.3348,-4.25864 -1.5891,-4.25397 -1.7812,-4.13142 -1.9037,-4.00126 -2.0976,-3.94387 -2.2913,-3.81362 -2.4773,-3.68647 -2.6664,-3.5564 -2.7952,-3.4912 -2.8447,-3.2229 2.9269,-5.2322 2.6014,-5.2741 2.2912,-5.2087 1.9688,-5.209 1.5876,-5.0848 1.3364,-5.0803 1.0138,-4.9578 0.6976,-4.9561 0.3859,-4.8339 0.1226,-4.7639 -0.1226,-4.705 -0.3859,-4.5764 -0.6976,-4.5113 -0.8914,-4.3888 -1.1425,-4.3175 -1.4,-4.195 -1.5874,-4.0726 -1.8401,-4.0028 -2.0388,-3.8787 -2.2215,-3.6851 -2.4138,-3.6214 -2.5424,-3.4973 -2.8013,-3.3688 -2.9176,-3.2402 -3.0525,-3.0477 -3.2401,-2.9239 -3.3687,-2.7951 -3.4927,-2.6061 -3.5626,-2.4788 -3.7441,-2.2851 -3.8151,-2.1626 -3.9361,-1.9689 -4.009,-1.7813 -4.0663,-1.5875 -4.1238,-1.4587 -4.2601,-1.2077 -4.2601,-1.0836 -4.3175,-0.8263 -4.3191,-0.6978 -4.3889,-0.4449 -4.3825,-0.2572 z"
       id="path14619"
       inkscape:connector-curvature="0"
       sodipodi:nodetypes="ccccccccccccccccccccccccccccccccccccccccccccccccccccccccccccccccccccccccccccccccccccccccccccccccccccccccccccccccccccccccccccccccccccccccccccccccccccccccccccccccccccccccccccccccccccccccccccccccccccccccccccccccccccccccccccccccccccccccccccccccccccccccccccccccccccccccccccccccccc" />
  </g>
</svg>
