<svg xmlns="http://www.w3.org/2000/svg" width="425" height="425" viewBox="0 0 425 425">
  <g fill="none">
    <rect width="424.2" height="424.2" fill="#000" rx="23.1"/>
    <rect width="420" height="420" x="2.1" y="2.1" fill="#FFF" rx="21"/>
    <rect width="392" height="392" x="16.1" y="16.1" fill="#003F87" rx="7"/>
    <path fill="#FFF" d="M212.10021 30.1L108.5 184.1 212.10021 338.1 315.70007 184.100066 212.10021 30.1zM212.10021 67.717909L290.388 184.10001 212.09993 300.481937 133.81179 184.099856 212.10021 67.717909zM49.9745365 340.683749C51.3521029 340.683749 52.4611192 341.792766 52.4611192 343.170345L52.4611192 348.143537C52.4611192 349.521116 51.3521029 350.630126 49.9745365 350.630126 48.5969687 350.630126 47.4879538 349.521116 47.4879538 348.143537L47.4879538 343.170345C47.4879538 341.792766 48.5969687 340.683749 49.9745365 340.683749zM54.1718548 350.431172C54.0326395 350.435393 53.6260004 350.453173 53.3762152 350.497483 53.4610566 350.646121 53.4590021 350.761068 53.4556855 350.887243 53.4401035 351.229368 53.3364629 351.558361 53.3364629 351.558361 53.163264 352.222941 52.7095786 353.065272 52.4942082 353.415083 52.1548713 353.969875 51.5419114 354.780811 50.8033316 355.470689 48.9267891 357.181958 47.1297869 357.559475 45.8825507 357.676221 46.3618967 357.919996 46.8051374 358.491742 46.8250307 359.150708L46.8250307 379.939602C46.8061307 381.853892 45.2341134 382.368252 44.1726761 382.359964 43.1112367 382.368224 41.5390528 381.853892 41.5201556 379.939602L41.5203208 367.021613C42.9138017 366.640316 44.5682405 364.81053 45.149272 363.634775 46.2137284 361.700276 46.0576718 360.014207 46.0576718 360.014207 46.0477248 358.413167 45.4374186 357.071953 45.0910201 356.645688 45.0910201 356.645688 44.2802283 355.322961 42.4165511 354.584727 40.8663822 353.959641 39.515637 353.962294 39.2094227 353.947048 36.783446 353.963918 35.4109847 354.661048 34.5344811 355.432329 33.4215532 356.459726 32.9000007 357.868749 32.9000007 359.205168 32.9036407 359.875887 33.1620863 360.626434 33.2945718 360.876152 33.4581555 361.171118 33.7510418 361.843538 34.7070171 362.58705 35.6698223 363.336876 36.8170978 363.706287 37.6974143 363.734133 37.6974143 363.734133 38.0245831 363.758353 38.4401409 363.697593 38.4401409 363.697593 38.7206603 363.670433 39.1364169 363.515306 39.1364169 363.515306 40.0445507 363.214131 40.5156416 362.235454 40.8428769 361.565155 40.8756327 360.963785 40.8471532 360.644123 40.8018002 360.325287 40.7104901 359.936857 40.3299106 359.510137 39.8832539 359.029874 39.2535514 358.636957 38.3539723 358.615089 37.8042714 358.628669 37.6816664 358.679489 37.3357327 358.805244 37.1846811 357.853895 37.9958712 357.447979 37.9958712 357.447979 38.5532959 357.118181 39.2159208 357.143031 39.2159208 357.143031 39.8163808 357.128751 40.3830231 357.36183 40.3830231 357.36183 41.2336015 357.683053 41.9723822 358.413832 42.2263779 359.563232 42.587993 361.124155 41.9803377 362.338599 41.9803377 362.338599 41.4877624 363.67821 40.1865835 364.618758 39.1364169 365.073541 37.5474568 365.726144 36.0467212 365.793736 34.8894994 365.802038L34.8893328 381.132199C34.8982858 383.928629 36.3613901 385.183617 36.3613901 385.183617 37.0686078 385.748419 37.7311326 386.195033 38.7536821 386.469958 39.6772985 386.782662 41.5055998 387.096633 44.1726761 387.099951 46.8397503 387.096451 48.6680516 386.782662 49.5917023 386.469958 50.6142175 386.195033 51.2765778 385.748419 51.9837934 385.183617 51.9837934 385.183617 53.4470664 383.928629 53.4558836 381.132199L53.4558836 360.576328C53.4558836 359.910138 53.3917706 359.618203 53.1971482 359.164036 52.9069149 358.604435 52.4553512 358.105832 51.5659172 357.758303 53.082169 357.684936 53.9692482 357.376166 54.5763729 357.115115 55.9338479 356.478304 56.5546982 355.645675 56.8507667 355.152364 57.1674915 354.614589 57.3647277 354.00505 57.3680422 353.361953 57.3647522 352.839018 57.295301 352.356116 56.9237732 351.737393 56.5067559 351.146005 56.2422833 350.996716 55.8428381 350.782572 55.181175 350.467873 54.7238433 350.431172 54.1718548 350.431172L54.1718548 350.431172zM116.449179 353.945529C114.612414 353.945529 113.133734 355.424188 113.133734 357.260939L113.133734 382.126808C113.133734 383.44579 113.65769 384.710751 114.590355 385.643408 115.52302 386.576065 116.787986 387.1 118.106968 387.1 119.425944 387.1 120.6909 386.576052 121.623558 385.643396 122.556215 384.71074 123.080167 383.445784 123.080167 382.126808 123.07742 380.021592 121.749422 378.146179 119.764582 377.444501L119.764582 357.260939C119.764582 355.424188 118.285937 353.945529 116.449179 353.945529L116.449179 353.945529zM99.871912 353.945529C102.618572 353.945529 104.845125 356.172117 104.845125 358.918728L104.845125 383.784429C104.841625 385.920136 102.668762 387.099335 101.330754 387.1 99.70191 387.0944 98.720237 385.943243 98.081613 385.289744 96.808817 383.780418 93.46456 377.161323 92.750378 375.827466 92.292613 374.940839 91.437794 373.389219 89.99193 371.384755 89.644345 370.905584 88.573716 369.50375 87.896571 368.672724 87.516156 368.161052 87.386551 368.041373 87.273263 367.770928 87.473484 367.556154 88.153583 367.027297 89.196226 367.034906 89.666353 367.041206 90.143578 367.123554 90.880468 367.452645 91.412727 367.686018 92.347451 368.22002 93.43999 369.249615 94.30274 370.048119 95.425806 371.285229 96.417258 372.744106 97.014736 373.662583 97.588113 374.498838 98.214298 375.960081L98.214298 363.601903C96.229175 362.900111 94.901107 361.024272 94.89872 358.918728 94.898685 356.172117 97.125308 353.945529 99.871912 353.945529L99.871912 353.945529zM139.457549 340.020674C139.185466 340.024174 138.738075 340.049234 138.661887 340.053994 132.890436 340.405695 130.237597 344.118082 129.710224 348.309374 139.4029 346.92217 148.828085 349.373542 153.914229 350.630224 152.728576 348.143005 149.339036 343.566041 145.624416 341.545939 144.685226 341.049982 143.159422 340.204116 140.31969 340.053994 140.218253 340.047694 139.734322 340.020674 139.457549 340.020674L139.457549 340.020674zM139.159258 343.767144C141.08192 343.797944 142.025254 344.160852 142.428244 344.277703 144.351641 344.916215 145.378415 345.738547 146.121619 346.353203 144.214483 345.595117 141.860663 345.249058 139.358191 345.126481 138.655258 345.089171 135.870931 345.036412 134.517579 345.305513 135.120328 344.683143 136.409077 343.825167 139.159258 343.767144L139.159258 343.767144zM142.773799 353.945424C142.773799 353.945424 146.230784 353.951024 148.608943 354.63505 151.390078 355.518933 153.913683 357.413581 153.913683 363.228628L153.913683 383.784331C153.913683 385.621075 152.43487 387.099972 150.598112 387.099972 148.761347 387.099972 147.282702 385.621075 147.282702 383.784331L147.282898 362.565588C147.239428 359.563715 145.321778 359.056138 143.702055 359.018037L139.922517 359.018037C138.30278 359.056187 136.385305 359.56375 136.341877 362.565588L136.341716 376.623072C136.782065 376.171117 137.498193 375.51766 138.34765 373.904398 138.34765 373.904398 138.702172 373.222549 139.026622 372.253441 138.165712 371.511711 137.66985 370.432306 137.667992 369.295941 137.668009 368.258349 138.080209 367.263261 138.813913 366.529588 139.547616 365.795915 140.542721 365.383755 141.580313 365.383781 143.740916 365.383828 145.492417 367.135338 145.492452 369.295941 145.492176 369.394404 145.488183 369.492822 145.480482 369.590984 145.446532 370.48795 145.432182 370.61479 145.094621 371.80577 144.737313 372.995686 144.033575 374.401748 144.033575 374.401748 141.229242 380.21823 136.620281 385.163716 136.620281 385.163716 135.891105 386.036742 135.223585 386.508472 134.750399 386.768382 134.27505 386.989127 133.875098 387.10322 133.026306 387.099972 131.189541 387.093602 129.710903 385.621075 129.710903 383.784331L129.710903 363.228628C129.710903 357.413581 132.234508 355.518933 135.015615 354.63505 137.393767 353.950737 140.850787 353.945424 140.850787 353.945424L142.773799 353.945424zM165.351935 353.945361C162.513806 353.945361 160.213039 356.246191 160.213039 359.084306 160.216539 361.345999 161.695723 363.340411 163.859983 363.997032L163.859983 383.784303C163.859983 385.621047 165.338649 387.100001 167.175393 387.100001 168.01673 387.084012 168.619766 386.892891 169.49625 385.873145 170.810913 384.308176 171.531234 383.596346 172.811646 382.62406 173.387403 382.218375 175.395248 380.742992 177.784845 380.336299L177.784845 381.132122C177.784845 384.29461 180.251876 386.907899 183.4091 387.089955 186.566359 387.271997 189.317527 384.959463 189.680995 381.817926 190.044498 378.676417 187.894105 375.79682 184.778741 375.253102L184.415875 375.197522 184.415875 357.260939C184.415875 355.424188 182.93702 353.945361 181.100262 353.945361 179.263504 353.945361 177.784845 355.424188 177.784845 357.260939L177.784845 374.998603C176.134882 375.056073 173.502427 375.611166 170.49081 378.148344L170.490971 359.084243C170.490943 356.246051 168.190113 353.945361 165.351935 353.945361L165.351935 353.945361zM184.415875 380.137534C184.965207 380.137562 185.410477 380.582909 185.410449 381.132276 185.410414 381.681538 184.965144 382.126843 184.415875 382.126871L184.415875 380.137534zM210.940415 369.72705L210.940415 382.126808C210.940415 384.873454 208.713862 387.1 205.967216 387.1 203.220605 387.1 200.993989 384.873454 200.994024 382.126808 200.997524 380.0216 202.324773 378.146188 204.309595 377.444529L204.309595 370.622217C204.313095 369.291391 203.61565 367.907043 200.231521 366.961966 196.551635 366.145997 192.602333 366.46435 191.094169 366.710099 191.035369 365.844486 191.047759 364.720713 191.047759 364.720713 191.059379 362.037963 191.640897 358.824606 193.123231 356.863122 194.996683 354.434647 198.012969 353.961146 199.774015 353.945529 202.756988 353.951129 205.466492 355.113332 206.995047 355.304859 208.35437 355.49962 209.314896 355.260689 209.852531 354.018469 210.27111 354.633622 210.924917 355.370638 210.940415 357.062041 210.798847 358.725213 209.614244 359.66798 209.614244 359.66798 208.271133 360.817618 206.90222 360.68914 206.90222 360.68914 205.559291 360.765601 202.54423 358.851248 199.449089 358.984997 196.914438 359.19534 196.605703 361.161934 196.518238 362.113381 198.861257 362.138651 201.181582 362.165601 204.183553 362.930379 208.086522 363.974968 210.90839 366.116814 210.940415 369.72705L210.940415 369.72705zM230.500368 353.945438C228.487868 353.942029 227.538556 354.03998 226.60141 354.177684 222.824035 354.752517 221.301066 356.385897 220.261846 357.420112 219.958431 357.726894 218.980041 358.889251 218.167026 360.31114 219.005038 360.08448 220.802106 360.695216 221.581787 362.154674 220.129532 362.58369 219.227897 363.979357 219.227897 364.621285L219.227897 381.961118C219.227932 384.799247 221.52865 387.1 224.366786 387.1 227.20495 387.1 229.505766 384.799303 229.505801 381.961118 229.505801 379.698088 228.024307 377.701744 225.858724 377.044794L225.858724 364.720846C225.858724 363.628755 227.678465 362.507656 228.59725 362.499368 228.035276 361.266304 227.366118 360.785117 226.780477 360.430567 227.06033 360.091641 228.230268 358.997667 230.500368 358.965173 233.071874 358.965173 235.142061 360.295964 235.142061 361.949056L235.142061 383.784604C235.142061 385.621341 236.620727 387.1 238.457464 387.1 240.294222 387.1 241.772916 385.621341 241.772916 383.784604L241.772916 360.908072C241.772916 355.653641 235.30402 353.945438 230.500368 353.945438L230.500368 353.945438zM271.943511 353.945452C273.780283 353.945452 275.258935 355.424188 275.258935 357.260939L275.258935 383.784429C275.258935 385.62118 273.780283 387.1 271.943511 387.1 270.892951 387.1 269.979654 386.451926 269.352825 385.858368 266.094444 382.364416 262.859877 380.535288 260.008483 379.806133L260.008483 381.132045C260.008483 384.294533 257.541459 386.907829 254.384235 387.089885 251.227004 387.271934 248.475808 384.959428 248.11234 381.817891 247.748872 378.676389 249.89923 375.79675 253.014622 375.253025L253.377495 375.197445 253.377495 364.000847C251.211723 363.343981 249.730572 361.347567 249.730054 359.084334 249.730075 356.246212 252.030807 353.945452 254.868915 353.945452 257.707037 353.945452 260.007783 356.246212 260.007818 359.084334L260.007818 375.098059C262.579947 375.292701 265.820128 376.6637 268.627618 378.811321L268.627786 357.260869C268.627786 355.424118 270.106431 353.945452 271.943182 353.945452L271.943511 353.945452zM253.377495 380.137464C252.828156 380.137499 252.382872 380.582874 252.382942 381.132248 252.38297 381.681503 252.828226 382.126773 253.377495 382.126808L253.377495 380.137464zM297.803982 361.173183L297.803982 381.961118C297.803982 384.799247 295.503236 387.1 292.665114 387.1 289.826915 387.1 287.526071 384.799303 287.526043 381.961118 287.526043 379.698088 289.007572 377.701744 291.173176 377.044794L291.173176 361.173183C291.164286 360.922079 290.85567 359.384179 289.037952 358.567419 287.81578 357.989562 286.449716 357.927906 286.027518 357.917595 284.628344 357.881405 284.085473 358.0269 283.242561 358.355242 281.872577 358.934877 280.937398 359.793616 280.603456 360.148894 280.047481 360.784389 279.943986 361.030796 279.834275 361.372298 279.634649 361.325888 278.57172 360.597356 278.574396 359.349865 278.574396 359.349865 278.599321 358.590036 279.19108 357.572796 279.289647 357.412482 279.747482 356.720126 280.570304 356.087473 281.24824 355.558154 282.371257 354.895639 284.250449 354.403224 285.118162 354.201946 286.248375 353.947454 288.089732 353.945683 289.461291 353.956953 292.58173 354.104352 295.217944 356.021155 297.788967 357.919121 297.792712 360.505999 297.803982 361.173183L297.803982 361.173183zM316.503124 353.945662C314.802292 353.970232 313.540367 354.184635 312.889262 354.330319 311.170202 354.703944 309.930642 355.17181 308.59913 355.994611 307.945463 356.44763 307.533541 356.788439 307.127079 357.280959 306.74945 357.730296 306.349792 358.378069 306.192124 359.170896 306.132834 359.503711 306.125484 359.709917 306.125834 359.880367 306.125834 360.063711 306.125603 360.396421 306.22487 360.808672 306.323143 361.312357 306.486845 361.661433 306.623044 362.002319 306.880917 361.397358 307.237805 361.017734 307.929433 360.510381 308.529718 360.108798 308.953113 359.902284 309.242353 359.760793 310.921821 359.012227 311.871966 358.826426 313.267234 358.573992 314.155835 358.431297 315.598815 358.308881 317.000355 358.520792 317.846956 358.659126 318.922387 358.901711 319.937975 359.581677 321.323933 360.582537 321.66267 361.715984 321.754762 361.968985 321.88842 362.322345 321.999412 362.892936 322.006776 363.06312L322.006776 371.649852C320.400507 369.221601 318.641827 367.880359 316.834686 366.908794 314.811434 365.837507 313.259709 365.648479 312.557756 365.61574 312.122608 365.59012 311.7219 365.59586 311.297798 365.64906 310.776872 365.719277 309.990478 365.872367 309.076481 366.411472 306.43991 367.934749 306.106934 370.702024 306.092605 371.649901L306.092605 381.961062C306.092605 384.799177 308.393365 387.099965 311.231487 387.099965 314.069686 387.099965 316.370488 384.799247 316.370523 381.961062 316.370523 379.698025 314.889015 377.701709 312.723432 377.044731L312.723432 371.948367C312.736312 371.574175 312.777892 371.317128 312.84953 371.119469 312.925879 370.917267 313.063002 370.682088 313.340202 370.595694 313.434198 370.565104 313.599083 370.556634 313.718167 370.575814 314.474013 370.722093 315.080087 371.265006 315.707294 371.789166 319.816098 375.857454 321.929195 381.249491 322.006776 383.453007L322.006776 383.784352C322.006776 385.621096 323.485428 387.099965 325.322193 387.099965 327.158937 387.099965 328.637624 385.621096 328.637624 383.784352L328.637624 362.565847C328.475777 358.513239 325.703196 355.921727 322.205716 354.80767 322.205716 354.80767 320.142095 353.997315 317.033577 353.945662L316.503124 353.945662zM356.208804 350.431144C356.069588 350.435393 355.662937 350.453173 355.413163 350.497483 355.498003 350.646121 355.495945 350.761068 355.492634 350.887243 355.477024 351.229368 355.37341 351.558361 355.37341 351.558361 355.200195 352.222941 354.746532 353.065272 354.531156 353.415083 354.191817 353.969875 353.578855 354.780811 352.840278 355.470689 350.963739 357.181958 349.166727 357.559475 347.919488 357.676221 348.398848 357.919996 348.842074 358.491742 348.861975 359.150708L348.861975 379.939602C348.843075 381.853892 347.271064 382.368252 346.209612 382.359964 345.148181 382.368224 343.575995 381.853892 343.557095 379.939602L343.557263 367.021613C344.950746 366.640316 346.605189 364.81053 347.186217 363.634775 348.250665 361.700276 348.094614 360.014207 348.094614 360.014207 348.084674 358.413167 347.474379 357.071953 347.127963 356.645688 347.127963 356.645688 346.317167 355.322961 344.453494 354.584727 342.903323 353.959641 341.552575 353.962294 341.246367 353.947048 338.820391 353.963918 337.447915 354.661048 336.571424 355.432329 335.458494 356.459726 334.936938 357.868749 334.936938 359.205168 334.941138 359.875887 335.199032 360.626434 335.331507 360.876152 335.495097 361.171118 335.787991 361.843538 336.743953 362.58705 337.706754 363.336876 338.85404 363.706287 339.73436 363.734133 339.73436 363.734133 340.061519 363.758353 340.477081 363.697593 340.477081 363.697593 340.757599 363.670433 341.173357 363.515306 341.173357 363.515306 342.081488 363.214131 342.552581 362.235454 342.879824 361.565155 342.912577 360.963785 342.884101 360.644123 342.838741 360.325287 342.747433 359.936857 342.36685 359.510137 341.920201 359.029874 341.290488 358.636957 340.390918 358.615089 339.841215 358.628669 339.718603 358.679489 339.372684 358.805244 339.221624 357.853895 340.032805 357.447979 340.032805 357.447979 340.590243 357.118181 341.252863 357.143031 341.252863 357.143031 341.853316 357.128751 342.419973 357.36183 342.419973 357.36183 343.27055 357.683053 344.009323 358.413832 344.263318 359.563232 344.624938 361.124155 344.017275 362.338599 344.017275 362.338599 343.524713 363.67821 342.223525 364.618758 341.173357 365.073541 339.584406 365.726144 338.083669 365.793736 336.926436 365.802038L336.926282 381.132199C336.935172 383.928629 338.398326 385.183617 338.398326 385.183617 339.10555 385.748419 339.768079 386.195033 340.790618 386.469958 341.71424 386.782662 343.542542 387.096633 346.209612 387.099951 348.876696 387.096451 350.704984 386.782662 351.628648 386.469958 352.651152 386.195033 353.313527 385.748419 354.02073 385.183617 354.02073 385.183617 355.48401 383.928629 355.49283 381.132199L355.49283 360.576307C355.49283 359.91011 355.42864 359.618182 355.234089 359.164008 354.943855 358.604407 354.492292 358.105804 353.602872 357.758282 355.119114 357.684908 356.006189 357.376138 356.613327 357.115087 357.970795 356.478276 358.591632 355.645647 358.887704 355.152336 359.204433 354.614561 359.401672 354.005022 359.404997 353.361925 359.401497 352.83899 359.332246 352.356088 358.960721 351.737365 358.543703 351.145984 358.279222 350.996695 357.879788 350.782551 357.218127 350.467845 356.760789 350.431144 356.208804 350.431144L356.208804 350.431144zM366.9309 353.945361C364.092785 353.945361 361.792039 356.246191 361.792039 359.084306 361.795539 361.345999 363.274709 363.340411 365.438948 363.997032L365.438948 383.784303C365.438948 385.621047 366.9176 387.100001 368.754358 387.100001 369.595681 387.084012 370.198724 386.892891 371.075201 385.873145 372.389878 384.308176 373.110192 383.596346 374.390618 382.62406 374.966368 382.218375 376.974206 380.742992 379.36381 380.336299L379.36381 381.132122C379.36381 384.29461 381.830834 386.907899 384.9881 387.089955 388.145331 387.271997 390.896478 384.959463 391.259988 381.817926 391.623463 378.676417 389.473105 375.79682 386.357713 375.253102L385.99484 375.197522 385.99484 357.260939C385.99484 355.424188 384.515971 353.945361 382.679255 353.945361 380.842469 353.945361 379.36381 355.424188 379.36381 357.260939L379.36381 374.998603C377.713847 375.056073 375.081392 375.611166 372.069761 378.148344L372.069964 359.084243C372.069929 356.246051 369.769078 353.945361 366.9309 353.945361L366.9309 353.945361zM385.99484 380.137534C386.544165 380.137562 386.989456 380.582909 386.989393 381.132276 386.989358 381.681538 386.544095 382.126843 385.99484 382.126871L385.99484 380.137534zM66.8832283 365.54952C69.721379 365.549443 72.02223 367.850231 72.022258 370.688423 72.022258 372.951418 70.540855 374.947699 68.3753483 375.604733L68.3753483 379.209173C68.4071983 382.036921 72.106076 382.222253 72.851156 382.193084 73.596271 382.222344 77.295176 382.036921 77.327005 379.209173L77.327005 362.698273C77.267015 360.309628 74.901393 359.037791 71.160215 358.984927 70.233415 358.972047 68.4090953 359.162944 67.1485283 359.515415 67.1485283 359.515415 65.2429813 359.939594 63.6341573 360.941049 62.9881483 361.358858 62.199998 361.958079 61.7443589 362.718125 61.2176677 362.322989 60.8390762 361.764844 60.816035 361.00736 60.819325 359.812495 61.4765704 358.932854 62.075902 358.189237 62.5695063 357.700896 63.2642213 356.799457 65.5571203 355.603192 67.4008993 354.681341 69.687093 354.031174 72.088534 353.952095L72.585856 353.945795C79.898924 354.13966 83.785555 357.933653 83.957825 361.239816L83.957825 380.46932C83.957825 384.95618 79.102359 387.100336 73.348373 387.100336L72.353771 387.100336C66.5997913 387.100336 61.7444919 384.95618 61.7444919 380.46932L61.744326 370.688759C61.7443589 367.850637 64.0451133 365.549884 66.8832283 365.549856L66.8832283 365.54952z"/>
  </g>
</svg>
