<svg xmlns="http://www.w3.org/2000/svg" width="24" height="24">
    <path fill="#fff" d="M.759 0h.828C1.08.121.674.588.691 1.12c-.003 7.001 0 14.003-.002 21.005.004.304-.024.612.031.914.101.498.582.883 1.091.869 6.667.001 13.334-.001 20.001.001.343-.006.713.046 1.027-.128a1.14 1.14 0 0 0 .596-1.026c-.001-7.212.002-14.424-.001-21.636.016-.526-.38-.976-.869-1.12h.81a.575.575 0 0 0 .187.246v23.388a3.087 3.087 0 0 1-.348.366H.913a2.708 2.708 0 0 1-.413-.462V.345C.583.228.666.109.759-.001z"/>
    <path fill="#fff" d="M5.538 2.286a3.382 3.382 0 0 1 3.308-.002c.492.239 1.028.424 1.582.414-.008 1.059.006 2.119-.008 3.177.002.236-.261.307-.446.351-.931.236-1.852.522-2.786.739-.934-.223-1.856-.505-2.788-.741-.181-.044-.436-.119-.432-.349-.012-1.059 0-2.118-.007-3.177.552.009 1.086-.175 1.577-.412zm-.834 1.19c.091.122.183.242.275.363.368-.209.912-.374 1.268-.075.134.327-.316.314-.516.31l-.001.457c.298-.051.823.065.659.473-.399.409-1.123.232-1.523-.106-.107.11-.214.219-.32.33a1.77 1.77 0 0 0 1.98.299c.447-.259.477-.948.041-1.236.226-.269.23-.696-.06-.922-.527-.412-1.294-.262-1.803.107zm2.52 1.258l.002.449h1.766c-.001.159.001.318.001.476l.462-.004-.002-.471.309-.003-.001-.452-.309-.002V3.166l-.458-.002c-.592.521-1.185 1.041-1.771 1.569zM14.567 1.851h4.551l-.156.933h1.199c-.222 1.398-.446 2.794-.672 4.191h-5.293c-.225-1.397-.449-2.794-.671-4.191l1.198-.001-.156-.933zm.855 2.151c.046.585.716.863 1.232.739a2.346 2.346 0 0 1-.649.807c.068.121.136.241.206.361.604-.441 1.029-1.153 1.036-1.911a.84.84 0 0 0-.473-.774c-.553-.313-1.414.097-1.351.778zm2.809-.768c-.404.187-.591.739-.33 1.114.233.369.709.466 1.114.391a2.399 2.399 0 0 1-.649.81l.205.359c.646-.473 1.106-1.269 1.021-2.085-.096-.6-.858-.878-1.361-.589zm-4.077.13l-.002.308.246.006.001 2.181h.433c0-.9.001-1.801-.001-2.701-.249-.025-.463.104-.678.207z"/>
    <path fill="#fff" d="M16.144 3.586c.279-.115.714.071.673.414-.102.416-.786.441-.946.054-.079-.201.079-.414.273-.468zM18.518 3.582c.276-.106.695.077.662.41-.093.418-.772.451-.942.073-.09-.207.078-.433.281-.483zM7.896 4.732c.362-.324.729-.643 1.094-.963.004.321.002.643.002.965-.366-.001-.731.001-1.096-.002zM3.382 8.588l.502-.001c.104.576.188 1.156.299 1.73.146-.573.267-1.152.402-1.729l.484-.003c.147.577.271 1.16.421 1.737.106-.576.187-1.158.283-1.736l.494.001c-.16.908-.326 1.816-.486 2.724h-.517c-.146-.604-.287-1.208-.438-1.811-.151.602-.286 1.208-.432 1.811h-.516l-.496-2.724zM17.254 8.748c.162-.07.324-.139.487-.207.003.924.001 1.848.001 2.771h-.488V8.748zM7.273 9.473c.346-.162.756-.279 1.125-.118.256.103.374.387.384.647.019.439.002.878.008 1.317-.371-.069-.735.022-1.102.021-.541-.038-.765-.802-.376-1.151.289-.248.694-.179 1.04-.132-.11-.424-.595-.312-.89-.173a75.56 75.56 0 0 1-.19-.412zm.388 1c-.134.078-.135.29-.006.374.207.142.461.031.676-.028l.001-.327c-.216-.048-.462-.142-.671-.018zM9.67 9.325l.488.001c.16.446.316.893.479 1.338.164-.446.315-.896.479-1.341l.483.002c-.234.663-.471 1.324-.707 1.987h-.515c-.237-.662-.472-1.324-.708-1.987zM13.009 11.306c-.831-.352-.753-1.845.176-2.001.641-.086.974.622.949 1.164-.414.004-.828-.004-1.241.006.048.368.457.584.737.29.108.094.215.19.322.286-.237.249-.608.406-.942.254zm-.092-1.22c.248.008.496.008.744.001a.374.374 0 0 0-.744-.001zM15.086 9.323c.178.009.379-.04.53.082.225-.139.496-.125.727-.009l-.15.454c-.205-.129-.535-.102-.598.171-.051.427-.008.861-.022 1.291l-.488-.001V9.322zM18.65 9.324c.166 0 .332.002.498.004.191.454.386.908.582 1.36.175-.453.343-.909.518-1.363h.495c-.347.905-.674 1.818-1.03 2.719-.161.05-.333.021-.499.027l.284-.758c-.283-.663-.568-1.325-.849-1.989zM6.16 13.911c.495-.44 1.302-.296 1.752.146l-.355.321c-.261-.205-.619-.333-.942-.205-.187.058-.228.361-.027.429.377.162.822.152 1.163.401.364.277.384.912-.005 1.177-.586.424-1.461.281-1.919-.268l.379-.304c.318.369 1.121.527 1.338-.001-.079-.436-.684-.357-1.008-.514-.536-.081-.774-.811-.375-1.182zM9.118 14.555c.445-.224 1.186-.346 1.441.202.158.533.048 1.102.079 1.651a2.456 2.456 0 0 1-.506-.053c-.26.073-.549.126-.804.007-.443-.19-.497-.929-.065-1.161.289-.166.633-.1.945-.057-.119-.419-.597-.327-.893-.17l-.198-.419zm.383 1.009c-.147.091-.109.326.043.391.203.1.429.005.633-.046l.003-.336c-.219-.048-.473-.143-.679-.008zM15.036 14.494c.229-.143.504-.132.741-.015l-.148.449c-.205-.108-.518-.104-.596.158-.063.434-.009.877-.027 1.315-.163-.003-.326-.003-.489-.005.006-.663-.003-1.326.006-1.989.144 0 .288 0 .431-.002l.082.088zM17.016 16.297c-.667-.474-.511-1.789.361-1.91.63-.068.948.63.926 1.164-.413.006-.826-.001-1.239.005.048.373.453.581.74.296l.316.281c-.269.311-.764.432-1.104.164zm.075-1.127c.246.008.493.007.74.001-.08-.157-.167-.391-.39-.347-.201-.008-.275.199-.35.346zM11.519 14.409l.494-.001c.197.453.389.908.586 1.361.177-.452.344-.908.519-1.361.164 0 .329-.001.494.001l-1.032 2.745-.494-.002c.071-.322.389-.655.188-.985-.256-.584-.502-1.172-.753-1.758zM10.351 19.045c1.211-.259 2.434-.462 3.652-.683.176-.065.278.14.214.284-.269 1.195-.525 2.393-.802 3.586-.015.162-.262.207-.33.057-.277-.441-.52-.904-.791-1.349-.543.534-1.077 1.077-1.616 1.615-.266-.262-.526-.53-.793-.792l1.618-1.617c-.413-.264-.844-.501-1.251-.775-.148-.089-.063-.318.099-.325z"/>
    <path fill="#036f53" d="M1.587 0h20.979c.489.144.885.594.869 1.12.003 7.211.001 14.424.001 21.636a1.14 1.14 0 0 1-.596 1.026c-.314.174-.684.122-1.027.128-6.667-.002-13.334 0-20.001-.001a1.113 1.113 0 0 1-1.091-.869c-.055-.302-.027-.61-.031-.914C.692 15.124.689 8.122.692 1.121c-.017-.532.389-.999.896-1.12zm3.951 2.286c-.491.237-1.025.422-1.577.413.007 1.059-.006 2.118.007 3.177-.003.231.252.306.432.349.933.236 1.854.518 2.788.741.934-.216 1.855-.503 2.786-.739.184-.044.447-.116.446-.351.013-1.059 0-2.119.008-3.177-.554.009-1.09-.176-1.582-.414a3.377 3.377 0 0 0-3.308.002zm9.029-.435l.156.933-1.198.001c.222 1.398.446 2.794.671 4.191h5.293c.226-1.397.449-2.794.672-4.191h-1.199l.156-.933h-4.551zM3.382 8.588l.496 2.724h.516c.146-.603.281-1.209.432-1.811.151.603.292 1.207.438 1.811h.517c.161-.908.326-1.816.486-2.724l-.494-.001c-.096.578-.177 1.159-.283 1.736-.149-.577-.273-1.16-.421-1.737l-.484.003c-.135.576-.256 1.156-.402 1.729-.111-.574-.196-1.154-.299-1.73l-.502.001zm13.872.16v2.564h.488c-.001-.924.002-1.848-.001-2.771-.163.068-.325.137-.487.207zm-9.981.725l.19.412c.295-.14.78-.251.89.173-.346-.048-.751-.116-1.04.132-.389.348-.166 1.113.376 1.151.367.001.731-.089 1.102-.021-.006-.439.011-.879-.008-1.317-.01-.26-.128-.544-.384-.647-.369-.161-.779-.044-1.125.118zm2.397-.148c.236.663.47 1.326.708 1.988h.515c.236-.663.473-1.324.707-1.987l-.483-.002c-.164.445-.316.895-.479 1.341-.164-.445-.319-.892-.479-1.338l-.488-.001zm3.339 1.981c.334.152.704-.006.942-.254-.107-.096-.214-.192-.322-.286-.28.294-.689.078-.737-.29.414-.01.828-.003 1.241-.006.025-.543-.308-1.251-.949-1.164-.928.156-1.006 1.649-.176 2.001zm2.077-1.983v1.989l.487.001c.014-.43-.029-.864.022-1.291.063-.273.393-.299.598-.171l.15-.454c-.232-.116-.503-.131-.727.009-.151-.123-.352-.074-.53-.082zm3.564.001c.281.664.566 1.326.849 1.989-.096.252-.191.505-.284.758.166-.006.338.023.499-.027.356-.901.683-1.814 1.03-2.719h-.495c-.175.454-.343.91-.518 1.363-.196-.453-.391-.906-.582-1.36a41.505 41.505 0 0 0-.498-.004zM6.16 13.911c-.399.371-.161 1.101.375 1.182.324.156.929.078 1.008.514-.217.528-1.019.37-1.338.001l-.379.304c.458.549 1.332.693 1.919.268.389-.264.369-.9.005-1.177-.34-.249-.786-.239-1.162-.401-.2-.069-.159-.371.027-.429.323-.128.682 0 .942.205l.355-.321c-.45-.441-1.257-.586-1.752-.146zm2.958.644l.198.419c.295-.157.774-.249.893.17-.312-.043-.656-.109-.945.057-.432.232-.378.971.065 1.161.255.119.544.066.804-.007.166.039.336.048.506.053-.032-.548.078-1.117-.079-1.651-.255-.548-.996-.426-1.441-.202zm5.918-.061a7.074 7.074 0 0 0-.082-.088c-.144.002-.288.002-.431.002-.009.663.001 1.326-.006 1.989.163.003.326.003.489.005.018-.438-.035-.881.027-1.315.078-.262.391-.266.596-.158l.148-.449c-.237-.117-.513-.128-.741.015zm1.98 1.803c.34.269.835.147 1.104-.164l-.316-.281c-.288.286-.692.078-.74-.296.413-.006.826.001 1.239-.005.021-.534-.296-1.233-.926-1.164-.872.121-1.028 1.436-.361 1.91zm-5.497-1.888c.251.586.498 1.174.753 1.758.201.33-.117.663-.188.985l.494.002 1.032-2.745-.494-.001c-.175.453-.341.909-.519 1.361-.197-.453-.389-.908-.586-1.361l-.494.001zm-1.168 4.636c-.161.007-.247.236-.099.325.406.274.837.511 1.251.775l-1.618 1.617c.267.262.528.53.793.792.539-.537 1.073-1.081 1.616-1.615.271.446.513.908.791 1.349.068.151.315.105.33-.057.277-1.192.533-2.391.803-3.586.063-.144-.038-.349-.214-.284-1.218.221-2.441.423-3.652.682z"/>
    <path fill="#036f53" d="M12.917 10.086a.374.374 0 0 1 .744.001c-.248.006-.496.006-.744-.001zM7.661 10.473c.208-.124.454-.03.671.018l-.001.327c-.215.059-.469.171-.676.028-.129-.084-.129-.296.006-.374zM17.091 15.17c.075-.147.149-.354.35-.346.223-.044.31.189.39.347a13.04 13.04 0 0 1-.74-.001zM9.501 15.564c.206-.135.46-.04.679.008l-.003.336c-.203.051-.429.146-.633.046-.153-.064-.19-.299-.043-.391z"/>
    <path fill="#221f1f" opacity=".66" d="M23.376 0h.187v.246A.58.58 0 0 1 23.376 0z"/>
    <path fill="#231f20" d="M4.704 3.476c.509-.369 1.276-.519 1.803-.107.29.226.286.652.06.922.436.288.406.976-.041 1.236a1.77 1.77 0 0 1-1.98-.299c.106-.111.213-.22.32-.33.4.338 1.124.515 1.523.106.164-.408-.361-.524-.659-.473l.001-.457c.201.004.651.018.516-.31-.356-.299-.901-.134-1.268.075-.092-.121-.184-.241-.275-.363zM15.422 4.002c-.063-.681.798-1.091 1.351-.778a.838.838 0 0 1 .473.774c-.007.757-.432 1.469-1.036 1.911l-.206-.361c.273-.219.496-.492.649-.807-.516.124-1.186-.154-1.232-.739zm.722-.416c-.193.054-.351.267-.273.468.16.387.844.361.946-.054.041-.342-.394-.529-.673-.414zM18.231 3.234c.504-.289 1.266-.011 1.361.589.085.816-.375 1.612-1.021 2.085a41.758 41.758 0 0 1-.205-.359c.271-.221.496-.494.649-.81-.405.076-.881-.022-1.114-.391-.261-.376-.074-.927.33-1.114zm.287.348c-.203.05-.371.276-.281.483.171.378.849.345.942-.073.033-.333-.386-.516-.662-.41zM7.224 4.734c.586-.528 1.179-1.047 1.771-1.569l.458.002v1.561l.309.002.001.452-.309.003.002.471c-.154.003-.308.003-.462.004l-.001-.476H7.227l-.002-.449zm.672-.002c.366.003.731.001 1.096.002 0-.322.002-.644-.002-.965-.366.32-.732.639-1.094.963zM14.154 3.364c.214-.104.428-.232.678-.207.002.901.001 1.801.001 2.701H14.4c0-.727.001-1.454-.001-2.181l-.246-.006.002-.308z"/>
    <path fill="#292626" opacity=".8" d="M.5 23.538c.123.167.256.327.413.462H.774a3.168 3.168 0 0 1-.274-.294v-.168z"/>
    <path fill="#272424" opacity=".82" d="M23.214 24c.126-.112.243-.235.348-.366v.179a.263.263 0 0 0-.184.187h-.164z"/>
    <path fill="#020202" opacity=".05" d="M23.378 24a.265.265 0 0 1 .184-.187V24h-.184z"/>
</svg>
