<svg xmlns="http://www.w3.org/2000/svg" width="24" height="24">
    <path fill="#fff" d="M0 3.529h.988C.419 3.767.176 4.363 0 4.908V3.529zM23.373 3.529h.779v.628c-.222-.252-.475-.479-.779-.628zM.344 5.24c.009-.906.848-1.565 1.71-1.595 6.757-.007 13.515.002 20.274-.004.876-.044 1.735.704 1.714 1.598-.004 4.583-.007 9.167.001 13.75.015.679-.522 1.275-1.147 1.481H1.6c-.746-.195-1.282-.944-1.259-1.71C.347 14.254.34 9.747.345 5.24zm1.299-1.216c-.56.105-.971.655-.954 1.219-.002 4.582 0 9.164-.002 13.746.022.538.419 1.18 1.026 1.14 6.986-.004 13.973-.004 20.959 0 .534.016 1.044-.493 1.027-1.027-.004-4.659-.002-9.319-.001-13.978.023-.716-.712-1.188-1.372-1.14-6.893.03-13.794-.048-20.682.039z"/>
    <path fill="#fff" d="M6.988 6.616c2.368.169 4.729.457 7.093.691.295-.038.561.087.803.243-.004.252-.004.505-.004.757-.496.436-1.148.767-1.602 1.189.548.6 1.321 1.037 1.944 1.589.473.431 1.147.737 1.361 1.381.031 1.98.004 3.963.013 5.946h-3.09c-.08-1.592.168-3.222-.138-4.789-.746-.488-1.401-1.099-2.116-1.629-.293.611-.451 1.289-.809 1.865-.376.431-1.02.057-1.11-.425-.788-2.271-1.563-4.544-2.344-6.817zM0 19.325c.116.457.376.86.751 1.146H0v-1.146zM23.81 20.471c.083-.179.204-.335.342-.475v.475h-.342z"/>
    <path fill="#231f20" d="M.988 3.529h22.385c.304.148.558.376.779.628v15.839c-.138.14-.26.296-.342.475h-.915c.625-.206 1.162-.803 1.147-1.481-.008-4.583-.006-9.167-.001-13.75.022-.894-.838-1.641-1.714-1.598-6.758.007-13.516-.002-20.274.004-.862.03-1.701.689-1.71 1.595-.004 4.506.002 9.013-.004 13.52-.023.766.512 1.516 1.259 1.71H.749a2.074 2.074 0 0 1-.751-1.146V4.909c.175-.546.419-1.141.988-1.379z"/>
    <path fill="#006f51" d="M1.643 4.024c6.889-.087 13.789-.009 20.682-.039.659-.048 1.394.425 1.372 1.14-.001 4.659-.004 9.319.001 13.978.017.534-.493 1.043-1.027 1.027-6.986-.004-13.973-.004-20.959 0-.606.04-1.004-.602-1.026-1.14.002-4.582 0-9.164.002-13.746-.016-.564.395-1.114.954-1.219zm5.345 2.592c.782 2.272 1.556 4.545 2.344 6.817.09.482.735.856 1.11.425.359-.576.516-1.254.809-1.865.716.53 1.37 1.14 2.116 1.629.307 1.567.059 3.197.138 4.789h3.09c-.009-1.983.018-3.965-.013-5.946-.214-.643-.888-.949-1.361-1.381-.623-.552-1.396-.989-1.944-1.589.453-.422 1.105-.753 1.602-1.189 0-.252 0-.505.004-.757-.243-.156-.508-.28-.803-.243-2.365-.234-4.727-.522-7.093-.691z"/>
</svg>
