<svg xmlns="http://www.w3.org/2000/svg" width="24" height="24">
    <path fill="#fff" d="M1.28 0h21.481l-.004.05c-.389-.047-.781-.038-1.171-.037H3.172c-.653.011-1.31-.033-1.96.046L1.28 0zM1.399.23c.244-.043.492-.032.739-.032C8.873.201 15.609.195 22.345.201c.81-.021 1.528.712 1.498 1.519.003 6.877.003 13.753 0 20.629.017.801-.692 1.512-1.493 1.497-6.877.007-13.753.004-20.63.001-.81.031-1.546-.692-1.523-1.504C.191 15.471.194 8.598.195 1.726.171 1.022.703.353 1.398.231zm.075.494a.996.996 0 0 0-.775.996c-.002 6.877-.001 13.753 0 20.63-.018.545.484 1.025 1.027.994 6.872 0 13.745.003 20.617-.001.537.019 1.015-.465.998-.999V1.726c.037-.572-.496-1.077-1.063-1.023C15.344.718 8.407.675 1.475.725zM0 1.241h.053c-.079.641-.032 1.288-.044 1.931L.008 21.655c-.006.379-.001.759.042 1.137L0 22.706V1.241z"/>
    <path fill="#fff" d="M3.961 2.109c1.299-.043 2.602-.005 3.902-.019.019 2.39.003 4.779.008 7.17 2.739.008 5.479.003 8.218.002.003-2.39.001-4.781.001-7.171 1.3-.001 2.599.002 3.899-.001.003 6.617.001 13.233.001 19.85-1.3-.002-2.601.01-3.901-.007.001-2.899.003-5.798-.001-8.697-2.739-.003-5.478-.002-8.217 0-.003 2.901.001 5.803-.002 8.704-1.299.001-2.599.003-3.897-.001C3.96 15.33 3.983 8.72 3.96 2.111zM.072 22.83c.09.063.106.139.048.224a.199.199 0 0 1-.048-.224z"/>
    <path fill="#d8d8d9" d="M1.014.109l.167-.025-.167.025z"/>
    <path fill="#2b2e34" d="M1.181.084l.032-.026c.65-.079 1.307-.034 1.96-.046h18.414c.39-.001.782-.01 1.171.037.604.097 1.072.601 1.243 1.172v21.634c-.16.547-.601.99-1.152 1.144H1.219c-.495-.125-.876-.498-1.099-.946.058-.086.042-.161-.048-.224l-.021-.039a8.808 8.808 0 0 1-.042-1.137L.01 3.17c.012-.643-.034-1.29.044-1.931C.135.724.555.316 1.015.107l.167-.025zm.218.146C.704.352.171 1.021.196 1.725.195 8.597.192 15.471.198 22.342c-.023.812.712 1.535 1.523 1.504 6.877.003 13.753.006 20.63-.001.801.015 1.51-.696 1.493-1.497.003-6.876.003-13.752 0-20.629.03-.808-.688-1.54-1.498-1.519C15.61.194 8.874.2 2.139.197c-.247.001-.495-.01-.739.032z"/>
    <path fill="#005598" d="M1.474.724C8.406.674 15.343.717 22.277.702c.568-.054 1.101.451 1.063 1.023v20.618c.017.534-.461 1.019-.998.999-6.872.004-13.744.001-20.617.001-.543.03-1.045-.45-1.027-.994-.001-6.877-.002-13.753 0-20.63a.997.997 0 0 1 .775-.996zm2.487 1.385c.023 6.609 0 13.219.012 19.828 1.299.005 2.598.003 3.897.001.003-2.901-.001-5.803.002-8.704 2.739-.002 5.478-.003 8.217 0 .004 2.899.002 5.799.001 8.697 1.3.017 2.601.005 3.901.007.001-6.617.003-13.233-.001-19.85-1.3.003-2.599.001-3.899.001-.001 2.39.002 4.781-.001 7.171-2.739.001-5.479.006-8.218-.002-.006-2.39.01-4.78-.008-7.17-1.3.014-2.603-.024-3.902.019z"/>
</svg>
