<svg xmlns="http://www.w3.org/2000/svg" width="24" height="24">
    <path fill="#7f7c7d" d="M1.467 0h.463l.238.185C1.263.394.519 1.071.322 1.992a48.916 48.916 0 0 1-.245-.336C.228.911.852.382 1.467 0z"/>
    <path fill="#262223" d="M1.929 0h20.449l-.234.185c-6.657.039-13.319.041-19.976 0L1.93 0z"/>
    <path fill="#7c7a7b" d="M22.378 0h.303c.659.198 1.137.737 1.476 1.311v.347l-.16.358A2.477 2.477 0 0 0 22.144.185L22.378 0z"/>
    <path fill="#fff" d="M2.168.185c6.657.041 13.319.039 19.976 0a2.475 2.475 0 0 1 1.853 1.831c-.144 6.598-.003 13.203-.069 19.802.019 1.128-1.001 2.077-2.119 2.014-6.38.016-12.761.002-19.14.008-.765.033-1.595-.27-1.995-.958-.483-.852-.307-1.87-.334-2.805C.332 14.049.367 8.021.323 1.992.521 1.071 1.264.394 2.169.185zm-.237.508C1.206.877.697 1.612.748 2.354.75 8.837.743 15.319.751 21.802c-.041.871.729 1.666 1.605 1.633 6.482.013 12.965 0 19.446.005.916.083 1.79-.706 1.743-1.635.011-6.485.002-12.969.005-19.453.082-.954-.794-1.807-1.741-1.718C15.183.673 8.548.556 1.931.692z"/>
    <path fill="#fff" d="M11.071 2.919c.231-1.15 2.061-1.034 2.187.118.102 2.124.006 4.256.028 6.381-.045.24.21.342.364.455 2.726 1.62 5.443 3.253 8.165 4.88.005.692.006 1.384-.003 2.075-2.846-.863-5.678-1.771-8.525-2.631.006 1.489-.036 2.98.014 4.467.478.665 1.283 1.035 1.846 1.636.116.552.034 1.126.049 1.688-1.046-.251-2.053-.681-3.115-.844-.999.24-1.962.607-2.957.867.013-.569-.064-1.15.045-1.71.552-.602 1.362-.973 1.82-1.642.056-1.485.008-2.976.019-4.463-2.849.867-5.68 1.787-8.529 2.656a73.918 73.918 0 0 1-.027-2.107c2.827-1.694 5.68-3.351 8.483-5.079.221-2.22-.063-4.513.136-6.748z"/>
    <path fill="#006e51" d="M1.931.693C8.547.557 15.183.674 21.809.635c.947-.089 1.823.764 1.741 1.718-.003 6.483.006 12.968-.005 19.453.047.929-.827 1.718-1.743 1.635-6.482-.005-12.965.008-19.446-.005-.875.033-1.645-.762-1.605-1.633C.743 15.32.749 8.838.748 2.355.696 1.613 1.206.877 1.931.694zm9.14 2.226c-.199 2.235.085 4.529-.136 6.748-2.803 1.729-5.656 3.385-8.483 5.079-.002.703.008 1.405.027 2.107 2.849-.869 5.68-1.788 8.529-2.656-.011 1.487.038 2.977-.019 4.463-.458.67-1.267 1.04-1.82 1.642-.11.56-.033 1.14-.045 1.71.994-.26 1.958-.627 2.957-.867 1.062.163 2.069.593 3.115.844-.014-.562.067-1.136-.049-1.688-.563-.601-1.368-.971-1.846-1.636-.05-1.487-.008-2.979-.014-4.467 2.847.86 5.68 1.768 8.525 2.631.009-.692.008-1.384.003-2.075-2.722-1.627-5.438-3.26-8.165-4.88-.154-.113-.409-.215-.364-.455-.022-2.126.074-4.257-.028-6.381-.125-1.151-1.956-1.267-2.187-.118z"/>
    <path fill="#b8b6b7" d="M.077 1.656l.245.336C.366 8.02.331 14.048.339 20.077c.027.935-.149 1.953.334 2.805.4.689 1.23.991 1.995.958 6.38-.006 12.761.008 19.14-.008 1.118.063 2.138-.886 2.119-2.014.066-6.599-.075-13.205.069-19.802.041-.089.121-.268.16-.358v20.995A2.554 2.554 0 0 1 22.947 24H1.328c-.946-.516-1.421-1.617-1.327-2.668C.05 14.775-.098 8.204.076 1.657z"/>
</svg>
