<svg xmlns="http://www.w3.org/2000/svg" width="24" height="24">
    <path fill="#fff" d="M0 3.529h.753A2.987 2.987 0 0 0 0 4.161v-.632zM23.147 3.529h1.006V4.91c-.176-.549-.421-1.158-1.006-1.381zM.111 5.238c-.02-.894.838-1.639 1.714-1.597 6.721.004 13.441.004 20.161.001.896-.017 1.813.648 1.821 1.597.007 4.506-.001 9.014.004 13.521.022.768-.512 1.514-1.261 1.71H1.239c-.611-.222-1.145-.805-1.127-1.48.006-4.583.004-9.168 0-13.752zm1.304-1.213c-.523.097-.972.549-.958 1.1.001 4.659.002 9.319 0 13.978-.016.534.49 1.042 1.024 1.026 6.987-.002 13.974-.002 20.96 0 .608.04 1.003-.599 1.024-1.139-.001-4.582.001-9.165-.001-13.748.032-.731-.652-1.329-1.369-1.257-6.892.031-13.794-.05-20.681.04z"/>
    <path fill="#fff" d="M10.072 7.304c2.364-.232 4.725-.515 7.093-.694-.779 2.274-1.556 4.549-2.344 6.82-.092.482-.735.86-1.11.426-.359-.577-.519-1.254-.808-1.866-.716.532-1.374 1.142-2.12 1.631-.3 1.569-.059 3.196-.136 4.788h-3.09l-.001-5.73c-.015-.608.582-.95.994-1.291.776-.661 1.639-1.22 2.382-1.921a17.42 17.42 0 0 1-1.659-1.16c0-.256 0-.51-.004-.767.246-.143.512-.258.805-.236zM23.412 20.471a2.15 2.15 0 0 0 .74-1.149v1.149h-.74zM0 19.997c.138.138.26.294.342.474H0v-.474z"/>
    <path fill="#231f20" d="M.753 3.529h22.393c.585.222.83.831 1.006 1.381v14.411a2.161 2.161 0 0 1-.74 1.149h-.862c.749-.196 1.283-.942 1.261-1.71-.006-4.506.002-9.014-.004-13.521-.008-.949-.925-1.614-1.821-1.597-6.721.002-13.441.002-20.161-.001C.949 3.599.092 4.344.111 5.238c.004 4.585.006 9.169 0 13.752-.017.676.516 1.258 1.127 1.48H.342A1.673 1.673 0 0 0 0 19.996V4.16c.217-.247.466-.468.753-.632z"/>
    <path fill="#036f51" d="M1.415 4.025c6.887-.09 13.789-.009 20.681-.04.716-.072 1.401.527 1.369 1.257.002 4.582 0 9.165.001 13.748-.022.54-.416 1.179-1.024 1.139-6.986-.002-13.973-.002-20.96 0-.534.016-1.04-.491-1.024-1.026.002-4.659.001-9.319 0-13.978-.013-.551.435-1.003.958-1.1zm8.657 3.279c-.292-.023-.558.092-.805.236.004.256.004.512.004.767.534.416 1.081.81 1.659 1.16-.743.7-1.606 1.259-2.382 1.921-.412.341-1.009.683-.994 1.291l.001 5.73h3.09c.078-1.592-.164-3.219.136-4.788.746-.488 1.403-1.099 2.12-1.631.289.613.45 1.289.808 1.866.376.434 1.019.056 1.11-.426.788-2.271 1.565-4.545 2.344-6.82-2.368.179-4.729.462-7.093.694z"/>
</svg>
