<?xml version="1.0" encoding="UTF-8" standalone="no"?>
<!-- Generator: Adobe Illustrator 14.0.0, SVG Export Plug-In  -->

<svg
   xmlns:dc="http://purl.org/dc/elements/1.1/"
   xmlns:cc="http://creativecommons.org/ns#"
   xmlns:rdf="http://www.w3.org/1999/02/22-rdf-syntax-ns#"
   xmlns:svg="http://www.w3.org/2000/svg"
   xmlns="http://www.w3.org/2000/svg"
   xmlns:sodipodi="http://sodipodi.sourceforge.net/DTD/sodipodi-0.dtd"
   xmlns:inkscape="http://www.inkscape.org/namespaces/inkscape"
   version="1.1"
   x="0px"
   y="0px"
   width="452.90005"
   height="752.90015"
   viewBox="0 -0.321 452.90009 752.90031"
   enable-background="new 0 -0.321 144 120"
   xml:space="preserve"
   id="svg2"
   inkscape:version="0.92.2 (5c3e80d, 2017-08-06)"
   sodipodi:docname="Philippines_road_sign_R2-3P_R.svg"><metadata
     id="metadata44"><rdf:RDF><cc:Work
         rdf:about=""><dc:format>image/svg+xml</dc:format><dc:type
           rdf:resource="http://purl.org/dc/dcmitype/StillImage" /><dc:title></dc:title></cc:Work></rdf:RDF></metadata><sodipodi:namedview
     pagecolor="#ffffff"
     bordercolor="#666666"
     borderopacity="1"
     objecttolerance="10"
     gridtolerance="10"
     guidetolerance="10"
     inkscape:pageopacity="0"
     inkscape:pageshadow="2"
     inkscape:window-width="1366"
     inkscape:window-height="705"
     id="namedview42"
     showgrid="false"
     fit-margin-top="1.45"
     fit-margin-left="1.45"
     fit-margin-right="1.45"
     fit-margin-bottom="1.45"
     inkscape:zoom="0.74414062"
     inkscape:cx="501.21625"
     inkscape:cy="307.47687"
     inkscape:window-x="-4"
     inkscape:window-y="-4"
     inkscape:window-maximized="1"
     inkscape:current-layer="g1151" /><defs
     id="defs4" /><g
     id="g1059"><g
       id="g1038"><g
         id="g979"><g
           id="g1151"><g
             id="g102"><path
               inkscape:connector-curvature="0"
               d="m 1.95,691.10846 c 0,32.8685 26.62823,59.5207 59.46761,59.5207 h 330.06476 c 32.8526,0 59.4677,-26.6522 59.4677,-59.5207 V 61.14949 c 0,-32.86822 -26.6151,-59.52049 -59.4677,-59.52049 H 61.41761 C 28.57823,1.629 1.95,28.28127 1.95,61.14949 Z"
               style="fill:#ffffff;fill-opacity:1;fill-rule:nonzero;stroke:#000000;stroke-width:1;stroke-opacity:1"
               id="path4911"
               sodipodi:nodetypes="sssssssss" /><path
               sodipodi:nodetypes="sssssssss"
               id="path4913"
               style="fill:#000000;fill-opacity:1;fill-rule:nonzero;stroke:none"
               d="m 441.45007,60.7286 c 0,-27.39001 -22.2095,-49.59978 -49.5996,-49.59978 H 61.049811 c -27.40112,0 -49.59981,22.20977 -49.59981,49.59978 v 630.80106 c 0,27.3898 22.19869,49.5997 49.59981,49.5997 H 391.85047 c 27.3901,0 49.5996,-22.2099 49.5996,-49.5997 z"
               inkscape:connector-curvature="0" /><path
               inkscape:connector-curvature="0"
               d="m 26.449871,60.72885 c 0,-19.10672 15.4932,-34.60004 34.60014,-34.60004 H 391.85007 c 19.1147,0 34.6001,15.49332 34.6001,34.60004 v 630.80001 c 0,19.1069 -15.4854,34.6005 -34.6001,34.6005 H 61.050011 c -19.10694,0 -34.60014,-15.4936 -34.60014,-34.6005 z"
               style="fill:#ffffff;fill-opacity:1;fill-rule:nonzero;stroke:none"
               id="path4915"
               sodipodi:nodetypes="sssssssss" /><path
               sodipodi:nodetypes="sssss"
               inkscape:connector-curvature="0"
               style="fill:#084597;fill-opacity:1;stroke:none"
               d="m 41.449982,226.12905 c 0,-102.17274 82.827308,-185.000038 185.000018,-185.000038 102.17271,0 185.00005,82.827298 185.00005,185.000038 0,102.17275 -82.82734,185.00004 -185.00005,185.00004 -102.1727,0 -185.000018,-82.82729 -185.000018,-185.00004 z"
               id="path14622-1" /><path
               sodipodi:nodetypes="ccccc"
               inkscape:connector-curvature="0"
               id="rect3917"
               d="m 121.79817,104.03523 209.30366,209.30366 -17.442,17.44195 L 104.35619,121.4772 Z"
               style="fill:#ffffff;fill-opacity:1;stroke:none" /><path
               sodipodi:nodetypes="ccccccc"
               inkscape:connector-curvature="0"
               id="path4085"
               d="m 339.82284,287.17594 -2e-5,52.32592 -52.32591,-2e-5 -24.66403,-24.66402 52.32588,-2e-5 4e-5,-52.3259 z"
               style="fill:#ffffff;fill-opacity:1;stroke:none" /><text
               id="text29"
               y="570.38361"
               x="469.77551"
               style="font-style:normal;font-variant:normal;font-weight:normal;font-stretch:normal;font-size:74.66666412px;line-height:1.25;font-family:ClearviewHwy-1B;-inkscape-font-specification:'ClearviewHwy-1B, Normal';font-variant-ligatures:normal;font-variant-caps:normal;font-variant-numeric:normal;font-feature-settings:normal;text-align:start;letter-spacing:0px;word-spacing:0px;writing-mode:lr-tb;text-anchor:start;fill:#000000;fill-opacity:1;stroke:none"
               xml:space="preserve"><tspan
                 y="639.45026"
                 x="469.77551"
                 id="tspan27"
                 sodipodi:role="line" /></text>
<g
               id="g39"><g
                 transform="translate(-393.42184,73.391096)"
                 id="g80"><path
                   inkscape:connector-curvature="0"
                   id="path41"
                   style="font-style:normal;font-variant:normal;font-weight:normal;font-stretch:normal;font-size:medium;line-height:1.25;font-family:ClearviewHwy-2B;-inkscape-font-specification:ClearviewHwy-2B;font-variant-ligatures:normal;font-variant-caps:normal;font-variant-numeric:normal;font-feature-settings:normal;text-align:start;letter-spacing:0px;word-spacing:0px;writing-mode:lr-tb;text-anchor:start;fill:#000000;fill-opacity:1;stroke:none"
                   d="m 549.8565,489.18805 -14.63466,-31.136 -4.40533,7.31733 v 23.81867 h -12.39467 v -74.66666 h 12.39467 v 32.62933 h 0.672 l 16.87466,-32.62933 h 14.26133 l -18.89066,33.59999 20.75733,41.06667 z" /><path
                   inkscape:connector-curvature="0"
                   id="path43"
                   style="font-style:normal;font-variant:normal;font-weight:normal;font-stretch:normal;font-size:medium;line-height:1.25;font-family:ClearviewHwy-2B;-inkscape-font-specification:ClearviewHwy-2B;font-variant-ligatures:normal;font-variant-caps:normal;font-variant-numeric:normal;font-feature-settings:normal;text-align:start;letter-spacing:0px;word-spacing:0px;writing-mode:lr-tb;text-anchor:start;fill:#000000;fill-opacity:1;stroke:none"
                   d="m 577.92184,489.18805 v -74.66666 h 33.67466 v 10.67733 h -21.28 v 19.712 h 19.04 v 10.752 h -19.04 v 23.072 h 22.02667 v 10.45333 z" /><path
                   inkscape:connector-curvature="0"
                   id="path45"
                   style="font-style:normal;font-variant:normal;font-weight:normal;font-stretch:normal;font-size:medium;line-height:1.25;font-family:ClearviewHwy-2B;-inkscape-font-specification:ClearviewHwy-2B;font-variant-ligatures:normal;font-variant-caps:normal;font-variant-numeric:normal;font-feature-settings:normal;text-align:start;letter-spacing:0px;word-spacing:0px;writing-mode:lr-tb;text-anchor:start;fill:#000000;fill-opacity:1;stroke:none"
                   d="m 628.81767,489.18805 v -74.66666 h 33.67466 v 10.67733 h -21.28 v 19.712 h 19.04 v 10.752 h -19.04 v 23.072 H 663.239 v 10.45333 z" /><path
                   inkscape:connector-curvature="0"
                   id="path47"
                   style="font-style:normal;font-variant:normal;font-weight:normal;font-stretch:normal;font-size:medium;line-height:1.25;font-family:ClearviewHwy-2B;-inkscape-font-specification:ClearviewHwy-2B;font-variant-ligatures:normal;font-variant-caps:normal;font-variant-numeric:normal;font-feature-settings:normal;text-align:start;letter-spacing:0px;word-spacing:0px;writing-mode:lr-tb;text-anchor:start;fill:#000000;fill-opacity:1;stroke:none"
                   d="m 709.65483,437.74272 q 0,-3.73334 -0.52267,-6.34667 -0.448,-2.688 -1.64267,-4.33067 -1.12,-1.64266 -3.06133,-2.38933 -1.86667,-0.74667 -4.77867,-0.74667 -1.71733,0 -3.584,0.224 -1.86666,0.14934 -3.95733,0.29867 v 27.25333 h 7.168 q 3.21067,0 5.22667,-0.74666 2.016,-0.74667 3.136,-2.38934 1.19466,-1.71733 1.568,-4.33066 0.448,-2.688 0.448,-6.496 z m 12.69333,0.224 q 0,12.24533 -5.376,18.06933 -5.30133,5.74933 -16.8,5.74933 h -8.064 v 27.40267 H 679.7135 v -74.29333 q 2.31466,-0.224 4.48,-0.448 2.24,-0.224 4.48,-0.37333 2.23999,-0.14934 4.62933,-0.224 2.464,-0.0747 5.30133,-0.0747 5.67467,0 10.08,1.344 4.48,1.26933 7.46667,4.18133 3.06133,2.83733 4.62933,7.46667 1.568,4.62933 1.568,11.2 z" /></g><g
                 transform="translate(-418.42184,98.788436)"
                 id="g74"><path
                   inkscape:connector-curvature="0"
                   id="path49"
                   style="font-style:normal;font-variant:normal;font-weight:normal;font-stretch:normal;font-size:medium;line-height:1.25;font-family:ClearviewHwy-2B;-inkscape-font-specification:ClearviewHwy-2B;font-variant-ligatures:normal;font-variant-caps:normal;font-variant-numeric:normal;font-feature-settings:normal;text-align:start;letter-spacing:0px;word-spacing:0px;writing-mode:lr-tb;text-anchor:start;fill:#000000;fill-opacity:1;stroke:none"
                   d="m 549.25917,529.88138 q 0,-2.464 -0.448,-4.77867 -0.448,-2.31466 -1.71733,-4.032 -1.19467,-1.792 -3.36,-2.83733 -2.16534,-1.12 -5.67467,-1.12 -1.71733,0 -3.584,0.14934 -1.792,0.0747 -3.65866,0.37333 v 24.71466 h 8.51199 q 5.22667,0 7.54134,-2.83733 2.38933,-2.912 2.38933,-9.632 z m -0.224,52.64 -6.57067,-26.432 q -0.52266,-1.94133 -1.12,-2.83733 -0.59733,-0.896 -2.09066,-0.896 h -8.43733 v 30.16533 h -12.39467 v -74.29333 q 2.688,-0.29867 5.00267,-0.52267 2.38933,-0.224 4.704,-0.29866 2.31466,-0.14934 4.704,-0.224 2.38933,-0.0747 5.00266,-0.0747 11.49867,0 17.77067,5.45067 6.272,5.376 6.272,16.35199 0,7.98934 -2.76267,12.61867 -2.76267,4.62933 -7.46667,6.72 v 0.14933 q 0.82134,0.29867 1.26934,1.344 0.52266,0.97067 0.896,2.24 l 8.288,30.53867 z" /><path
                   inkscape:connector-curvature="0"
                   id="path51"
                   style="font-style:normal;font-variant:normal;font-weight:normal;font-stretch:normal;font-size:medium;line-height:1.25;font-family:ClearviewHwy-2B;-inkscape-font-specification:ClearviewHwy-2B;font-variant-ligatures:normal;font-variant-caps:normal;font-variant-numeric:normal;font-feature-settings:normal;text-align:start;letter-spacing:0px;word-spacing:0px;writing-mode:lr-tb;text-anchor:start;fill:#000000;fill-opacity:1;stroke:none"
                   d="M 579.23434,582.52138 V 507.85472 H 591.629 v 74.66666 z" /><path
                   inkscape:connector-curvature="0"
                   id="path53"
                   style="font-style:normal;font-variant:normal;font-weight:normal;font-stretch:normal;font-size:medium;line-height:1.25;font-family:ClearviewHwy-2B;-inkscape-font-specification:ClearviewHwy-2B;font-variant-ligatures:normal;font-variant-caps:normal;font-variant-numeric:normal;font-feature-settings:normal;text-align:start;letter-spacing:0px;word-spacing:0px;writing-mode:lr-tb;text-anchor:start;fill:#000000;fill-opacity:1;stroke:none"
                   d="m 659.151,548.99605 q 0,3.88266 -0.29866,7.98933 -0.224,4.10667 -1.04534,7.98933 -0.74666,3.808 -2.31466,7.24267 -1.49334,3.43467 -4.032,6.048 -2.53867,2.53867 -6.272,4.032 -3.73334,1.49333 -8.88534,1.49333 -5.07733,0 -9.03466,-1.64266 -3.88267,-1.64267 -6.79467,-4.48 -2.912,-2.83734 -4.85333,-6.57067 -1.94133,-3.808 -3.136,-8.064 -1.19467,-4.33067 -1.71733,-8.81067 -0.52267,-4.55466 -0.52267,-8.96 0,-4.33066 0.52267,-8.88533 0.59733,-4.62933 1.792,-8.88533 1.26933,-4.256 3.28533,-8.064 2.09067,-3.808 5.07733,-6.64533 2.98667,-2.83734 6.944,-4.48 4.032,-1.64267 9.25867,-1.64267 5.6,0 10.15466,2.38933 4.55467,2.31467 8.512,6.34667 l -6.944,9.184 q -1.344,-1.49334 -2.61333,-2.83734 -1.19467,-1.344 -2.61333,-2.31466 -1.344,-0.97067 -2.98667,-1.49333 -1.64267,-0.59734 -3.73333,-0.59734 -3.21067,0 -5.52534,1.41867 -2.24,1.41866 -3.808,3.808 -1.49333,2.31466 -2.38933,5.30133 -0.896,2.912 -1.41866,6.048 -0.448,3.06133 -0.59734,6.048 -0.0747,2.912 -0.0747,5.152 0,2.31467 0.0747,5.376 0.14934,3.06133 0.52267,6.272 0.448,3.136 1.26933,6.19733 0.896,3.06134 2.38933,5.45067 1.49334,2.38933 3.73334,3.88267 2.31466,1.41866 5.6,1.41866 2.76266,0 4.62933,-0.97066 1.86667,-1.04534 2.98667,-2.688 1.12,-1.71734 1.64266,-3.88267 0.52267,-2.16533 0.672,-4.48 0.224,-2.38933 0.14934,-4.704 0,-2.38933 0,-4.40533 H 637.423 v -10.528 h 21.728 z" /><path
                   inkscape:connector-curvature="0"
                   id="path55"
                   style="font-style:normal;font-variant:normal;font-weight:normal;font-stretch:normal;font-size:medium;line-height:1.25;font-family:ClearviewHwy-2B;-inkscape-font-specification:ClearviewHwy-2B;font-variant-ligatures:normal;font-variant-caps:normal;font-variant-numeric:normal;font-feature-settings:normal;text-align:start;letter-spacing:0px;word-spacing:0px;writing-mode:lr-tb;text-anchor:start;fill:#000000;fill-opacity:1;stroke:none"
                   d="m 709.92433,582.52138 v -33.67467 h -19.712 v 33.67467 h -12.39466 v -74.66666 h 12.39466 v 29.19466 h 19.712 V 507.85472 H 722.319 v 74.66666 z" /><path
                   inkscape:connector-curvature="0"
                   id="path57"
                   style="font-style:normal;font-variant:normal;font-weight:normal;font-stretch:normal;font-size:medium;line-height:1.25;font-family:ClearviewHwy-2B;-inkscape-font-specification:ClearviewHwy-2B;font-variant-ligatures:normal;font-variant-caps:normal;font-variant-numeric:normal;font-feature-settings:normal;text-align:start;letter-spacing:0px;word-spacing:0px;writing-mode:lr-tb;text-anchor:start;fill:#000000;fill-opacity:1;stroke:none"
                   d="m 762.78482,518.53205 v 63.98933 h -12.39466 v -63.98933 h -13.81334 v -10.67733 h 40.02134 v 10.67733 z" /></g></g></g></g></g></g></g></svg>