<?xml version="1.0" encoding="UTF-8" standalone="no"?>
<!-- Created with Inkscape (http://www.inkscape.org/) -->

<svg
   xmlns:dc="http://purl.org/dc/elements/1.1/"
   xmlns:cc="http://creativecommons.org/ns#"
   xmlns:rdf="http://www.w3.org/1999/02/22-rdf-syntax-ns#"
   xmlns:svg="http://www.w3.org/2000/svg"
   xmlns="http://www.w3.org/2000/svg"
   xmlns:sodipodi="http://sodipodi.sourceforge.net/DTD/sodipodi-0.dtd"
   xmlns:inkscape="http://www.inkscape.org/namespaces/inkscape"
   id="svg17624"
   version="1.1"
   inkscape:version="0.48.4 r9939"
   width="199.99969"
   height="399.99976"
   xml:space="preserve"
   sodipodi:docname="AJAX1.svg"><metadata
     id="metadata17630"><rdf:RDF><cc:Work
         rdf:about=""><dc:format>image/svg+xml</dc:format><dc:type
           rdf:resource="http://purl.org/dc/dcmitype/StillImage" /><dc:title /></cc:Work></rdf:RDF></metadata><defs
     id="defs17628"><inkscape:perspective
       sodipodi:type="inkscape:persp3d"
       inkscape:vp_x="0 : 0.5 : 1"
       inkscape:vp_y="0 : 1000 : 0"
       inkscape:vp_z="1 : 0.5 : 1"
       inkscape:persp3d-origin="0.5 : 0.33333333 : 1"
       id="perspective17632" /><clipPath
       clipPathUnits="userSpaceOnUse"
       id="clipPath17642"><path
         d="m -2,710 501,0 0,-711 -501,0 0,711 z"
         id="path17644"
         inkscape:connector-curvature="0" /></clipPath><clipPath
       clipPathUnits="userSpaceOnUse"
       id="clipPath17648"><path
         d="m 0,708.06 498,0 0,-708 -498,0 0,708 z"
         id="path17650"
         inkscape:connector-curvature="0" /></clipPath><clipPath
       clipPathUnits="userSpaceOnUse"
       id="clipPath17798"><path
         d="m -2,710 501,0 0,-711 -501,0 0,711 z"
         id="path17800"
         inkscape:connector-curvature="0" /></clipPath><clipPath
       clipPathUnits="userSpaceOnUse"
       id="clipPath17804"><path
         d="m 0,708.06 498,0 0,-708 -498,0 0,708 z"
         id="path17806"
         inkscape:connector-curvature="0" /></clipPath><clipPath
       id="Clip0"><path
         inkscape:connector-curvature="0"
         d="m 0,0 212.597,0 0,269.292 L 0,269.292 0,0 z"
         transform="translate(0.923828,0.879883)"
         id="path7" /></clipPath></defs><sodipodi:namedview
     pagecolor="#ffffff"
     bordercolor="#666666"
     borderopacity="1"
     objecttolerance="10"
     gridtolerance="10"
     guidetolerance="10"
     inkscape:pageopacity="0"
     inkscape:pageshadow="2"
     inkscape:window-width="1280"
     inkscape:window-height="1004"
     id="namedview17626"
     showgrid="false"
     inkscape:zoom="2.3322272"
     inkscape:cx="105.53271"
     inkscape:cy="383.30751"
     inkscape:window-x="-8"
     inkscape:window-y="-8"
     inkscape:window-maximized="1"
     inkscape:current-layer="g17634"
     fit-margin-top="0"
     fit-margin-left="0"
     fit-margin-right="0"
     fit-margin-bottom="0"
     showguides="true"
     inkscape:guide-bbox="true" /><g
     id="g17634"
     inkscape:groupmode="layer"
     inkscape:label="GG1999P002"
     transform="matrix(1.25,0,0,-1.25,160.39056,277.30443)"><path
       style="fill:#999999;fill-opacity:1;stroke:none"
       d="m -128.31242,-85.166249 c 0,-7.17661 5.81335,-12.99002 12.99002,-12.99002 l 134.01971,0 c 7.17665,0 12.98999,5.81341 12.98999,12.98999 l -10e-6,294.019769 c 0,7.17667 -5.81332,12.99001 -12.99,12.99001 l -134.01976,4e-5 c -7.17664,0 -12.98998,-5.81338 -12.98998,-12.99001 z"
       id="rect3154"
       inkscape:connector-curvature="0"
       sodipodi:nodetypes="sssssssss" /><path
       sodipodi:nodetypes="sssss"
       inkscape:connector-curvature="0"
       id="path3787"
       d="m -128.3125,-18.156349 c 0,44.18241 35.816846,80.000091 80.000009,80.000091 44.183435,0 79.999991,-35.817587 79.999991,-80.000001 0,-44.18334 -35.816556,-80 -79.999991,-80 -44.183163,0 -80.000009,35.81656 -80.000009,79.9999 z"
       style="fill:#ffffff;fill-opacity:1;fill-rule:nonzero;stroke:none" /><path
       style="fill:#0069b3;fill-opacity:1;fill-rule:nonzero;stroke:none"
       d="m -121.9125,-18.156349 c 0,40.64782 32.951502,73.600087 73.600012,73.600087 40.64876,0 73.599988,-32.952177 73.599988,-73.599997 0,-40.64868 -32.951228,-73.6 -73.599988,-73.6 -40.64851,0 -73.600012,32.95123 -73.600012,73.59991 z"
       id="path3789"
       inkscape:connector-curvature="0"
       sodipodi:nodetypes="sssss" /><path
       inkscape:connector-curvature="0"
       style="fill:#ffffff;fill-rule:nonzero;stroke:none"
       d="m -75.295628,-15.768059 c -0.530034,1.26548 -1.663002,2.26195 -3.109684,2.54971 -2.309983,0.45993 -4.555703,-1.03997 -5.015025,-3.35068 l -10.147237,-46.8418 46.842248,10.14679 c 2.310309,0.45973 3.810604,2.70504 3.350687,5.01502 -0.287964,1.44688 -1.28471,2.58012 -2.549787,3.10975 l -9.92933,4.35441 60.340016,60.34002 -15.087337,15.087334 -60.340205,-60.339824 z"
       id="path3791"
       sodipodi:nodetypes="cccccccccccc" /><path
       style="fill:#ffffff;fill-opacity:1;fill-rule:nonzero;stroke:none"
       d="m -128.3125,141.84362 c 0,44.18242 35.816846,80.0001 80.000009,80.0001 44.183435,0 79.999991,-35.81759 79.999991,-80 0,-44.183343 -35.816556,-79.999997 -79.999991,-79.999997 -44.183163,0 -80.000009,35.816556 -80.000009,79.999897 z"
       id="path3793"
       inkscape:connector-curvature="0"
       sodipodi:nodetypes="sssss" /><path
       sodipodi:nodetypes="sssss"
       inkscape:connector-curvature="0"
       id="path3795"
       d="m -121.9125,141.84363 c 0,40.64782 32.951502,73.60008 73.600012,73.60008 40.64876,0 73.599988,-32.95218 73.599988,-73.59999 0,-40.64868 -32.951228,-73.600001 -73.599988,-73.600001 -40.64851,0 -73.600012,32.951231 -73.600012,73.599911 z"
       style="fill:#0069b3;fill-opacity:1;fill-rule:nonzero;stroke:none" /><path
       sodipodi:nodetypes="cccccccccccc"
       id="path3797"
       d="m -75.295628,144.23191 c -0.530034,1.26548 -1.663002,2.26195 -3.109684,2.54972 -2.309983,0.45992 -4.555703,-1.03997 -5.015025,-3.35068 l -10.147237,-46.841798 46.842248,10.146788 c 2.310309,0.45972 3.810604,2.70504 3.350687,5.01502 -0.287964,1.44688 -1.28471,2.58012 -2.549787,3.10975 l -9.92933,4.35441 60.340016,60.34002 -15.087337,15.08733 -60.340205,-60.33982 z"
       style="fill:#ffffff;fill-rule:nonzero;stroke:none"
       inkscape:connector-curvature="0" /></g></svg>