<?xml version="1.0" encoding="UTF-8" standalone="no"?>
<!-- Generator: Adobe Illustrator 14.0.0, SVG Export Plug-In  -->

<svg
   xmlns:dc="http://purl.org/dc/elements/1.1/"
   xmlns:cc="http://creativecommons.org/ns#"
   xmlns:rdf="http://www.w3.org/1999/02/22-rdf-syntax-ns#"
   xmlns:svg="http://www.w3.org/2000/svg"
   xmlns="http://www.w3.org/2000/svg"
   xmlns:sodipodi="http://sodipodi.sourceforge.net/DTD/sodipodi-0.dtd"
   xmlns:inkscape="http://www.inkscape.org/namespaces/inkscape"
   version="1.1"
   x="0px"
   y="0px"
   width="452.90005"
   height="752.90015"
   viewBox="0 -0.321 452.90009 752.90031"
   enable-background="new 0 -0.321 144 120"
   xml:space="preserve"
   id="svg2"
   inkscape:version="0.92.2 (5c3e80d, 2017-08-06)"
   sodipodi:docname="Philippines_road_sign_R2-3P_L.svg"><metadata
     id="metadata44"><rdf:RDF><cc:Work
         rdf:about=""><dc:format>image/svg+xml</dc:format><dc:type
           rdf:resource="http://purl.org/dc/dcmitype/StillImage" /><dc:title></dc:title></cc:Work></rdf:RDF></metadata><sodipodi:namedview
     pagecolor="#ffffff"
     bordercolor="#666666"
     borderopacity="1"
     objecttolerance="10"
     gridtolerance="10"
     guidetolerance="10"
     inkscape:pageopacity="0"
     inkscape:pageshadow="2"
     inkscape:window-width="1366"
     inkscape:window-height="705"
     id="namedview42"
     showgrid="false"
     fit-margin-top="1.45"
     fit-margin-left="1.45"
     fit-margin-right="1.45"
     fit-margin-bottom="1.45"
     inkscape:zoom="0.37207031"
     inkscape:cx="806.46862"
     inkscape:cy="576.06386"
     inkscape:window-x="-4"
     inkscape:window-y="-4"
     inkscape:window-maximized="1"
     inkscape:current-layer="g979" /><defs
     id="defs4" /><g
     id="g1059"><g
       id="g1038"><g
         id="g979"><g
           id="g161"><g
             id="g1151"><g
               id="g137"><g
                 id="g102"><path
                   inkscape:connector-curvature="0"
                   d="m 1.95,691.10846 c 0,32.8685 26.62823,59.5207 59.46761,59.5207 h 330.06476 c 32.8526,0 59.4677,-26.6522 59.4677,-59.5207 V 61.14949 c 0,-32.86822 -26.6151,-59.52049 -59.4677,-59.52049 H 61.41761 C 28.57823,1.629 1.95,28.28127 1.95,61.14949 Z"
                   style="fill:#ffffff;fill-opacity:1;fill-rule:nonzero;stroke:#000000;stroke-width:1;stroke-opacity:1"
                   id="path4911"
                   sodipodi:nodetypes="sssssssss" /><path
                   sodipodi:nodetypes="sssssssss"
                   id="path4913"
                   style="fill:#000000;fill-opacity:1;fill-rule:nonzero;stroke:none"
                   d="m 441.45007,60.7286 c 0,-27.39001 -22.2095,-49.59978 -49.5996,-49.59978 H 61.049811 c -27.40112,0 -49.59981,22.20977 -49.59981,49.59978 v 630.80106 c 0,27.3898 22.19869,49.5997 49.59981,49.5997 H 391.85047 c 27.3901,0 49.5996,-22.2099 49.5996,-49.5997 z"
                   inkscape:connector-curvature="0" /><path
                   inkscape:connector-curvature="0"
                   d="m 26.449871,60.72885 c 0,-19.10672 15.4932,-34.60004 34.60014,-34.60004 H 391.85007 c 19.1147,0 34.6001,15.49332 34.6001,34.60004 v 630.80001 c 0,19.1069 -15.4854,34.6005 -34.6001,34.6005 H 61.050011 c -19.10694,0 -34.60014,-15.4936 -34.60014,-34.6005 z"
                   style="fill:#ffffff;fill-opacity:1;fill-rule:nonzero;stroke:none"
                   id="path4915"
                   sodipodi:nodetypes="sssssssss" /><path
                   sodipodi:nodetypes="sssss"
                   inkscape:connector-curvature="0"
                   style="fill:#084597;fill-opacity:1;stroke:none"
                   d="m 41.449982,226.12905 c 0,-102.17274 82.827308,-185.000038 185.000018,-185.000038 102.17271,0 185.00005,82.827298 185.00005,185.000038 0,102.17275 -82.82734,185.00004 -185.00005,185.00004 -102.1727,0 -185.000018,-82.82729 -185.000018,-185.00004 z"
                   id="path14622-1" /><path
                   sodipodi:nodetypes="ccccc"
                   inkscape:connector-curvature="0"
                   id="rect3917"
                   d="M 339.82283,121.4772 130.51917,330.78086 113.07722,313.33886 322.38086,104.03522 Z"
                   style="fill:#ffffff;fill-opacity:1;stroke:none" /><path
                   sodipodi:nodetypes="ccccccc"
                   inkscape:connector-curvature="0"
                   id="path4085"
                   d="m 156.68212,339.50187 -52.32592,-2e-5 2e-5,-52.32591 24.66402,-24.66403 2e-5,52.32588 52.3259,4e-5 z"
                   style="fill:#ffffff;fill-opacity:1;stroke:none" /><text
                   id="text29"
                   y="570.38361"
                   x="469.77551"
                   style="font-style:normal;font-variant:normal;font-weight:normal;font-stretch:normal;font-size:74.66666412px;line-height:1.25;font-family:ClearviewHwy-1B;-inkscape-font-specification:'ClearviewHwy-1B, Normal';font-variant-ligatures:normal;font-variant-caps:normal;font-variant-numeric:normal;font-feature-settings:normal;text-align:start;letter-spacing:0px;word-spacing:0px;writing-mode:lr-tb;text-anchor:start;fill:#000000;fill-opacity:1;stroke:none"
                   xml:space="preserve"><tspan
                     y="639.45026"
                     x="469.77551"
                     id="tspan27"
                     sodipodi:role="line" /></text>
<g
                   id="g39"><g
                     transform="translate(-393.42184,73.391096)"
                     id="g80"><path
                       inkscape:connector-curvature="0"
                       id="path41"
                       style="font-style:normal;font-variant:normal;font-weight:normal;font-stretch:normal;font-size:medium;line-height:1.25;font-family:ClearviewHwy-2B;-inkscape-font-specification:ClearviewHwy-2B;font-variant-ligatures:normal;font-variant-caps:normal;font-variant-numeric:normal;font-feature-settings:normal;text-align:start;letter-spacing:0px;word-spacing:0px;writing-mode:lr-tb;text-anchor:start;fill:#000000;fill-opacity:1;stroke:none"
                       d="m 549.8565,489.18805 -14.63466,-31.136 -4.40533,7.31733 v 23.81867 h -12.39467 v -74.66666 h 12.39467 v 32.62933 h 0.672 l 16.87466,-32.62933 h 14.26133 l -18.89066,33.59999 20.75733,41.06667 z" /><path
                       inkscape:connector-curvature="0"
                       id="path43"
                       style="font-style:normal;font-variant:normal;font-weight:normal;font-stretch:normal;font-size:medium;line-height:1.25;font-family:ClearviewHwy-2B;-inkscape-font-specification:ClearviewHwy-2B;font-variant-ligatures:normal;font-variant-caps:normal;font-variant-numeric:normal;font-feature-settings:normal;text-align:start;letter-spacing:0px;word-spacing:0px;writing-mode:lr-tb;text-anchor:start;fill:#000000;fill-opacity:1;stroke:none"
                       d="m 577.92184,489.18805 v -74.66666 h 33.67466 v 10.67733 h -21.28 v 19.712 h 19.04 v 10.752 h -19.04 v 23.072 h 22.02667 v 10.45333 z" /><path
                       inkscape:connector-curvature="0"
                       id="path45"
                       style="font-style:normal;font-variant:normal;font-weight:normal;font-stretch:normal;font-size:medium;line-height:1.25;font-family:ClearviewHwy-2B;-inkscape-font-specification:ClearviewHwy-2B;font-variant-ligatures:normal;font-variant-caps:normal;font-variant-numeric:normal;font-feature-settings:normal;text-align:start;letter-spacing:0px;word-spacing:0px;writing-mode:lr-tb;text-anchor:start;fill:#000000;fill-opacity:1;stroke:none"
                       d="m 628.81767,489.18805 v -74.66666 h 33.67466 v 10.67733 h -21.28 v 19.712 h 19.04 v 10.752 h -19.04 v 23.072 H 663.239 v 10.45333 z" /><path
                       inkscape:connector-curvature="0"
                       id="path47"
                       style="font-style:normal;font-variant:normal;font-weight:normal;font-stretch:normal;font-size:medium;line-height:1.25;font-family:ClearviewHwy-2B;-inkscape-font-specification:ClearviewHwy-2B;font-variant-ligatures:normal;font-variant-caps:normal;font-variant-numeric:normal;font-feature-settings:normal;text-align:start;letter-spacing:0px;word-spacing:0px;writing-mode:lr-tb;text-anchor:start;fill:#000000;fill-opacity:1;stroke:none"
                       d="m 709.65483,437.74272 q 0,-3.73334 -0.52267,-6.34667 -0.448,-2.688 -1.64267,-4.33067 -1.12,-1.64266 -3.06133,-2.38933 -1.86667,-0.74667 -4.77867,-0.74667 -1.71733,0 -3.584,0.224 -1.86666,0.14934 -3.95733,0.29867 v 27.25333 h 7.168 q 3.21067,0 5.22667,-0.74666 2.016,-0.74667 3.136,-2.38934 1.19466,-1.71733 1.568,-4.33066 0.448,-2.688 0.448,-6.496 z m 12.69333,0.224 q 0,12.24533 -5.376,18.06933 -5.30133,5.74933 -16.8,5.74933 h -8.064 v 27.40267 H 679.7135 v -74.29333 q 2.31466,-0.224 4.48,-0.448 2.24,-0.224 4.48,-0.37333 2.23999,-0.14934 4.62933,-0.224 2.464,-0.0747 5.30133,-0.0747 5.67467,0 10.08,1.344 4.48,1.26933 7.46667,4.18133 3.06133,2.83733 4.62933,7.46667 1.568,4.62933 1.568,11.2 z" /></g></g></g><g
                 aria-label="LEFT"
                 style="font-style:normal;font-variant:normal;font-weight:normal;font-stretch:normal;font-size:74.66666412px;line-height:1.25;font-family:ClearviewHwy-1B;-inkscape-font-specification:'ClearviewHwy-1B, Normal';font-variant-ligatures:normal;font-variant-caps:normal;font-variant-numeric:normal;font-feature-settings:normal;text-align:start;letter-spacing:0px;word-spacing:0px;writing-mode:lr-tb;text-anchor:start;fill:#000000;fill-opacity:1;stroke:none"
                 id="text106"><path
                   d="M 130,682.57916 V 607.9125 h 12.39467 v 64.13866 H 161.808 v 10.528 z"
                   style="font-style:normal;font-variant:normal;font-weight:normal;font-stretch:normal;font-family:ClearviewHwy-2B;-inkscape-font-specification:ClearviewHwy-2B"
                   id="path108" /><path
                   d="M 177.54167,682.57916 V 607.9125 h 33.67466 v 10.67733 h -21.28 v 19.712 h 19.04 v 10.752 h -19.04 v 23.072 H 211.963 v 10.45333 z"
                   style="font-style:normal;font-variant:normal;font-weight:normal;font-stretch:normal;font-family:ClearviewHwy-2B;-inkscape-font-specification:ClearviewHwy-2B"
                   id="path110" /><path
                   d="m 240.83217,618.58983 v 19.86133 h 18.51733 v 10.90134 h -18.51733 v 33.22666 H 228.4375 V 607.9125 h 32.928 v 10.67733 z"
                   style="font-style:normal;font-variant:normal;font-weight:normal;font-stretch:normal;font-family:ClearviewHwy-2B;-inkscape-font-specification:ClearviewHwy-2B"
                   id="path112" /><path
                   d="m 296.488,618.58983 v 63.98933 H 284.09334 V 618.58983 H 270.28 V 607.9125 h 40.02133 v 10.67733 z"
                   style="font-style:normal;font-variant:normal;font-weight:normal;font-stretch:normal;font-family:ClearviewHwy-2B;-inkscape-font-specification:ClearviewHwy-2B"
                   id="path114" /></g></g></g></g></g></g></g></svg>