<?xml version="1.0" encoding="UTF-8" standalone="no"?>
<!-- Created with Inkscape (http://www.inkscape.org/) -->

<svg
   xmlns:dc="http://purl.org/dc/elements/1.1/"
   xmlns:cc="http://creativecommons.org/ns#"
   xmlns:rdf="http://www.w3.org/1999/02/22-rdf-syntax-ns#"
   xmlns:svg="http://www.w3.org/2000/svg"
   xmlns="http://www.w3.org/2000/svg"
   xmlns:sodipodi="http://sodipodi.sourceforge.net/DTD/sodipodi-0.dtd"
   xmlns:inkscape="http://www.inkscape.org/namespaces/inkscape"
   width="606mm"
   height="1206mm"
   viewBox="0 0 606 1206"
   version="1.1"
   id="svg823"
   inkscape:version="0.92.2 (5c3e80d, 2017-08-06)"
   sodipodi:docname="Singapore Template 2.svg">
  <defs
     id="defs817" />
  <sodipodi:namedview
     id="base"
     pagecolor="#ffffff"
     bordercolor="#666666"
     borderopacity="1.0"
     inkscape:pageopacity="0.0"
     inkscape:pageshadow="2"
     inkscape:zoom="0.125"
     inkscape:cx="1794.0006"
     inkscape:cy="1716.3127"
     inkscape:document-units="mm"
     inkscape:current-layer="layer1"
     showgrid="false"
     inkscape:window-width="1920"
     inkscape:window-height="1057"
     inkscape:window-x="-8"
     inkscape:window-y="-8"
     inkscape:window-maximized="1"
     inkscape:snap-global="false"
     showguides="false" />
  <metadata
     id="metadata820">
    <rdf:RDF>
      <cc:Work
         rdf:about="">
        <dc:format>image/svg+xml</dc:format>
        <dc:type
           rdf:resource="http://purl.org/dc/dcmitype/StillImage" />
        <dc:title></dc:title>
      </cc:Work>
    </rdf:RDF>
  </metadata>
  <g
     inkscape:label="Layer 1"
     inkscape:groupmode="layer"
     id="layer1"
     transform="translate(0,909)">
    <rect
       style="opacity:1;fill:#000000;fill-opacity:1;fill-rule:nonzero;stroke:none;stroke-width:0.09378856;stroke-linecap:square;stroke-linejoin:round;stroke-miterlimit:10;stroke-dasharray:none;stroke-opacity:1;paint-order:stroke fill markers"
       id="rect1368"
       width="604"
       height="1204"
       x="1"
       y="-908"
       rx="52"
       ry="52" />
    <rect
       ry="50"
       rx="50"
       y="-906"
       x="3"
       height="1200"
       width="600"
       id="rect1370"
       style="opacity:1;fill:#ffffff;fill-opacity:1;fill-rule:nonzero;stroke:none;stroke-width:0.09332207;stroke-linecap:square;stroke-linejoin:round;stroke-miterlimit:10;stroke-dasharray:none;stroke-opacity:1;paint-order:stroke fill markers" />
    <rect
       style="opacity:1;fill:#0046aa;fill-opacity:1;fill-rule:nonzero;stroke:none;stroke-width:0;stroke-linecap:square;stroke-linejoin:miter;stroke-miterlimit:10;stroke-dasharray:none;stroke-opacity:1;paint-order:fill markers stroke"
       id="rect826"
       width="570"
       height="1170"
       x="18"
       y="-891"
       rx="35"
       ry="35" />
    <path
       style="opacity:1;fill:#ffffff;fill-opacity:1;stroke:none;stroke-width:3.36828089;stroke-linejoin:bevel;stroke-miterlimit:10;stroke-dasharray:none;stroke-opacity:1"
       d="m 167,-812.9996 h 20 v 119.9997 h 39.9999 V -673 H 167 Z"
       id="rect815"
       inkscape:connector-curvature="0"
       sodipodi:nodetypes="ccccccc" />
    <path
       style="opacity:1;fill:#ffffff;fill-opacity:1;fill-rule:nonzero;stroke:none;stroke-width:26.87697983;stroke-linecap:square;stroke-linejoin:miter;stroke-miterlimit:8;stroke-dasharray:none;stroke-opacity:1;paint-order:markers stroke fill"
       d="m 273.0003,-773.0001 c -16.62,0 -30.0003,13.3802 -30.0003,30.0002 v 40.0002 c 0,16.62 13.3803,29.9997 30.0003,29.9997 16.62,0 29.9997,-13.3797 29.9997,-29.9997 h -19.9998 c 0,5.5399 -4.4599,9.9999 -9.9999,9.9999 -5.54,0 -10.0005,-4.46 -10.0005,-9.9999 v -10.0005 H 303 v -29.9997 c 0,-16.62 -13.3797,-30.0002 -29.9997,-30.0002 z m 0,20.0003 c 5.54,0 9.9999,4.4599 9.9999,9.9999 V -733 h -20.0004 v -9.9999 c 0,-5.54 4.4605,-9.9999 10.0005,-9.9999 z"
       id="rect8931"
       inkscape:connector-curvature="0"
       sodipodi:nodetypes="ssssccssccssssccss" />
    <path
       style="opacity:1;fill:#ffffff;fill-opacity:1;fill-rule:nonzero;stroke:none;stroke-width:17.10977364;stroke-linecap:square;stroke-linejoin:miter;stroke-miterlimit:8;stroke-dasharray:none;stroke-opacity:1;paint-order:markers stroke fill"
       d="m 333,-673 v -80 h -10 v -20 h 10 v -20.0002 C 333,-804.0802 341.9198,-813 352.9998,-813 H 373 v 19.9998 h -15.9999 c -2.216,0 -4.0003,1.7843 -4.0003,4.0003 V -773 H 373 v 20 h -20.0002 v 80 z"
       id="rect8976"
       inkscape:connector-curvature="0"
       sodipodi:nodetypes="cccccssccsscccccc" />
    <path
       sodipodi:nodetypes="cccccssccsscccccc"
       inkscape:connector-curvature="0"
       id="path8990"
       d="m 399,-812.9999 v 40 h -10 v 20 h 10 v 60.0001 c 0,11.08 8.9198,19.9998 19.9998,19.9998 H 439 v -19.9998 h -15.9999 c -2.216,0 -4.0003,-1.7842 -4.0003,-4.0003 v -55.9998 H 439 v -20 h -20.0002 v -40 z"
       style="opacity:1;fill:#ffffff;fill-opacity:1;fill-rule:nonzero;stroke:none;stroke-width:17.10977364;stroke-linecap:square;stroke-linejoin:miter;stroke-miterlimit:8;stroke-dasharray:none;stroke-opacity:1;paint-order:markers stroke fill" />
    <path
       style="opacity:1;fill:#ffffff;fill-opacity:1;stroke:none;stroke-width:24.27579308;stroke-linecap:round;stroke-linejoin:miter;stroke-miterlimit:4;stroke-dasharray:none;stroke-opacity:1"
       d="m 221,-575 h -20 v 120 h -20 v -120 h -20 v -20 h 60 z"
       id="rect819"
       inkscape:connector-curvature="0"
       sodipodi:nodetypes="ccccccccc" />
    <path
       style="opacity:1;fill:#ffffff;fill-opacity:1;fill-rule:nonzero;stroke:none;stroke-width:16.48843765;stroke-linecap:square;stroke-linejoin:miter;stroke-miterlimit:8;stroke-dasharray:none;stroke-opacity:1;paint-order:markers stroke fill"
       d="m 317,-455.0001 v -100.0001 h 19.9998 v 11.9998 c 0,-6.648 5.3518,-11.9998 11.9998,-11.9998 h 18.0005 v 19.9998 h -18.0005 c -6.648,0 -11.9998,5.3524 -11.9998,12.0004 v 67.9999 z"
       id="rect9694"
       inkscape:connector-curvature="0" />
    <path
       style="opacity:1;fill:#ffffff;fill-opacity:1;fill-rule:nonzero;stroke:none;stroke-width:0.10852979;stroke-linecap:square;stroke-linejoin:round;stroke-miterlimit:10;stroke-dasharray:none;stroke-opacity:1;paint-order:stroke fill markers"
       d="M 413,-119.00038 433,-19 h 20.0004 L 463.0002,-75.000004 473,-19 h 20.0004 l 20,-100.00038 h -20 l -10,44.000376 L 473,-119.00038 H 453.0004 L 443,-75.000004 433,-119.00038 Z"
       id="rect2940"
       inkscape:connector-curvature="0"
       sodipodi:nodetypes="cccccccccccccc" />
    <path
       inkscape:connector-curvature="0"
       id="path13833"
       d="M 503,59.000274 H 483.0001 V 198.99991 H 503 Z"
       style="opacity:1;fill:#ffffff;fill-opacity:1;fill-rule:nonzero;stroke:none;stroke-width:0.19315763;stroke-linecap:square;stroke-linejoin:round;stroke-miterlimit:1.41400003;stroke-dasharray:none;stroke-opacity:1;paint-order:stroke fill markers" />
    <rect
       rx="21.99995"
       y="99.000229"
       x="442.99997"
       height="99.999771"
       width="43.999901"
       id="rect13835"
       style="opacity:1;fill:#ffffff;fill-opacity:1;fill-rule:nonzero;stroke:none;stroke-width:0.23386975;stroke-linecap:square;stroke-linejoin:round;stroke-miterlimit:1.41400003;stroke-dasharray:none;stroke-opacity:1;paint-order:stroke fill markers"
       ry="22" />
    <rect
       style="opacity:1;fill:#0046aa;fill-opacity:1;fill-rule:nonzero;stroke:none;stroke-width:0.12213452;stroke-linecap:square;stroke-linejoin:round;stroke-miterlimit:1.41400003;stroke-dasharray:none;stroke-opacity:1;paint-order:stroke fill markers"
       id="rect13837"
       width="19.999954"
       height="59.999863"
       x="462.99997"
       y="119.00017"
       rx="9.9999771"
       ry="10" />
    <path
       sodipodi:nodetypes="ssssccssccssssccss"
       inkscape:connector-curvature="0"
       id="path843"
       d="m 306.0003,-337.0001 c -16.62,0 -30.0003,13.3802 -30.0003,30.0002 v 40.0002 c 0,16.62 13.3803,29.9997 30.0003,29.9997 16.62,0 29.9997,-13.3797 29.9997,-29.9997 h -19.9998 c 0,5.5399 -4.4599,9.9999 -9.9999,9.9999 -5.54,0 -10.0005,-4.46 -10.0005,-9.9999 v -10.0005 H 336 v -29.9997 c 0,-16.62 -13.3797,-30.0002 -29.9997,-30.0002 z m 0,20.0003 c 5.54,0 9.9999,4.4599 9.9999,9.9999 V -297 h -20.0004 v -9.9999 c 0,-5.54 4.4605,-9.9999 10.0005,-9.9999 z"
       style="opacity:1;fill:#ffffff;fill-opacity:1;fill-rule:nonzero;stroke:none;stroke-width:26.87697983;stroke-linecap:square;stroke-linejoin:miter;stroke-miterlimit:8;stroke-dasharray:none;stroke-opacity:1;paint-order:markers stroke fill" />
    <path
       inkscape:connector-curvature="0"
       id="path845"
       d="m 210,-237 v -100.0001 h 19.9998 v 11.9998 c 0,-6.648 5.3518,-11.9998 11.9998,-11.9998 h 18.0005 v 19.9998 h -18.0005 c -6.648,0 -11.9998,5.3524 -11.9998,12.0004 V -237 Z"
       style="opacity:1;fill:#ffffff;fill-opacity:1;fill-rule:nonzero;stroke:none;stroke-width:16.48843765;stroke-linecap:square;stroke-linejoin:miter;stroke-miterlimit:8;stroke-dasharray:none;stroke-opacity:1;paint-order:markers stroke fill" />
    <path
       style="opacity:1;fill:#ffffff;fill-opacity:1;fill-rule:nonzero;stroke:none;stroke-width:26.87697983;stroke-linecap:square;stroke-linejoin:miter;stroke-miterlimit:8;stroke-dasharray:none;stroke-opacity:1;paint-order:markers stroke fill"
       d="m 386.0003,-337.0001 c -16.62,0 -30.0003,13.3802 -30.0003,30.0002 v 40.0002 c 0,16.62 13.3803,29.9997 30.0003,29.9997 16.62,0 29.9997,-13.3797 29.9997,-29.9997 h -19.9998 c 0,5.5399 -4.4599,9.9999 -9.9999,9.9999 -5.54,0 -10.0005,-4.46 -10.0005,-9.9999 v -10.0005 H 416 v -29.9997 c 0,-16.62 -13.3797,-30.0002 -29.9997,-30.0002 z m 0,20.0003 c 5.54,0 9.9999,4.4599 9.9999,9.9999 V -297 h -20.0004 v -9.9999 c 0,-5.54 4.4605,-9.9999 10.0005,-9.9999 z"
       id="path874"
       inkscape:connector-curvature="0"
       sodipodi:nodetypes="ssssccssccssssccss" />
    <path
       style="opacity:1;fill:#ffffff;fill-opacity:1;fill-rule:nonzero;stroke:none;stroke-width:0.69789904;stroke-linecap:square;stroke-linejoin:round;stroke-miterlimit:1.41400003;stroke-dasharray:none;stroke-opacity:1;paint-order:markers stroke fill"
       d="m 140.0002,-376.99977 c -16.62,0 -30.0002,13.37973 -30.0002,29.99972 v 80.0003 c 0,16.61998 13.3802,29.9997 30.0002,29.9997 H 160 c 5.54,0 9.9999,-4.4599 9.9999,-9.9999 v 9.9999 h 19.9999 v -84.00003 h -39.9997 v 19.99981 h 19.9998 v 34.00052 c 0,5.53997 -4.4599,9.9999 -9.9999,9.9999 h -19.9998 c -5.54,0 -10.0004,-4.45993 -10.0004,-9.9999 v -80.0003 c 0,-5.54 4.4604,-9.9999 10.0004,-9.9999 H 160 c 5.54,0 9.9999,4.4599 9.9999,9.9999 v 9.99991 h 19.9999 v -9.99991 c 0,-16.61999 -13.3798,-29.99972 -29.9998,-29.99972 z"
       id="rect876"
       inkscape:connector-curvature="0" />
    <path
       inkscape:connector-curvature="0"
       style="opacity:1;fill:#ffffff;fill-opacity:1;fill-rule:nonzero;stroke:none;stroke-width:0.38954106;stroke-linecap:square;stroke-linejoin:round;stroke-miterlimit:1.41400003;stroke-dasharray:none;stroke-opacity:1;paint-order:markers stroke fill"
       d="m 436,-237 h 20 v -100 h -20 z"
       id="rect2170" />
    <path
       style="opacity:1;fill:#ffffff;fill-opacity:1;fill-rule:nonzero;stroke:none;stroke-width:0.59836298;stroke-linecap:square;stroke-linejoin:round;stroke-miterlimit:1.41400003;stroke-dasharray:none;stroke-opacity:1;paint-order:markers stroke fill"
       d="m 496,-237 v -77.9998 C 496,-327.1878 486.1878,-337 473.9998,-337 c -12.188,0 -21.9997,9.8122 -21.9997,22.0002 V -237 h 3.9997 v -70.0003 c 0,-5.54 4.46,-9.9999 10,-9.9999 5.54,0 10.0004,4.4599 10.0004,9.9999 V -237 Z"
       id="rect2181"
       inkscape:connector-curvature="0"
       sodipodi:nodetypes="csssccssscc" />
    <path
       style="opacity:1;fill:#ffffff;fill-opacity:1;fill-rule:nonzero;stroke:none;stroke-width:16.48843765;stroke-linecap:square;stroke-linejoin:miter;stroke-miterlimit:8;stroke-dasharray:none;stroke-opacity:1;paint-order:markers stroke fill"
       d="m 193,-19 v -100.0001 h 19.9998 v 11.9998 c 0,-6.648 5.3518,-11.9998 11.9998,-11.9998 h 18.0005 v 19.999796 h -18.0005 c -6.648,0 -11.9998,5.3524 -11.9998,12.0004 V -19 Z"
       id="path2228"
       inkscape:connector-curvature="0" />
    <path
       inkscape:connector-curvature="0"
       id="path2248"
       d="m 263,-19 v -100.0001 h 19.9998 v 11.9998 c 0,-6.648 5.3518,-11.9998 11.9998,-11.9998 h 18.0005 v 19.999796 h -18.0005 c -6.648,0 -11.9998,5.3524 -11.9998,12.0004 V -19 Z"
       style="opacity:1;fill:#ffffff;fill-opacity:1;fill-rule:nonzero;stroke:none;stroke-width:16.48843765;stroke-linecap:square;stroke-linejoin:miter;stroke-miterlimit:8;stroke-dasharray:none;stroke-opacity:1;paint-order:markers stroke fill" />
    <path
       style="opacity:1;fill:#ffffff;fill-opacity:1;fill-rule:nonzero;stroke:none;stroke-width:0.55160266;stroke-linecap:square;stroke-linejoin:round;stroke-miterlimit:1.41400003;stroke-dasharray:none;stroke-opacity:1;paint-order:markers stroke fill"
       d="m 123,-159 h 20 L 113,-19 H 93 Z"
       id="rect2250"
       inkscape:connector-curvature="0"
       sodipodi:nodetypes="ccccc" />
    <path
       sodipodi:nodetypes="ccccc"
       inkscape:connector-curvature="0"
       id="path2253"
       d="m 143,-159 h -20 l 30,140 h 20 z"
       style="opacity:1;fill:#ffffff;fill-opacity:1;fill-rule:nonzero;stroke:none;stroke-width:0.55160266;stroke-linecap:square;stroke-linejoin:round;stroke-miterlimit:1.41400003;stroke-dasharray:none;stroke-opacity:1;paint-order:markers stroke fill" />
    <rect
       style="opacity:1;fill:#ffffff;fill-opacity:1;fill-rule:nonzero;stroke:none;stroke-width:0.76946497;stroke-linecap:square;stroke-linejoin:round;stroke-miterlimit:1.41400003;stroke-dasharray:none;stroke-opacity:1;paint-order:markers stroke fill"
       id="rect2255"
       width="60"
       height="20"
       x="103"
       y="-59.000011" />
    <rect
       style="opacity:1;fill:#ffffff;fill-opacity:1;fill-rule:nonzero;stroke:none;stroke-width:0.63574922;stroke-linecap:square;stroke-linejoin:round;stroke-miterlimit:1.41400003;stroke-dasharray:none;stroke-opacity:1;paint-order:markers stroke fill"
       id="rect2266"
       width="60"
       height="100"
       x="333"
       y="-119.00002"
       rx="22"
       ry="22" />
    <rect
       ry="4"
       rx="4"
       y="-99.000015"
       x="353"
       height="60"
       width="20"
       id="rect2268"
       style="opacity:1;fill:#0046aa;fill-opacity:1;fill-rule:nonzero;stroke:none;stroke-width:0.28431571;stroke-linecap:square;stroke-linejoin:round;stroke-miterlimit:1.41400003;stroke-dasharray:none;stroke-opacity:1;paint-order:markers stroke fill" />
    <path
       sodipodi:nodetypes="ccccc"
       inkscape:connector-curvature="0"
       id="path2279"
       d="m 133,58.999994 h 20 L 123,198.99999 h -20 z"
       style="opacity:1;fill:#ffffff;fill-opacity:1;fill-rule:nonzero;stroke:none;stroke-width:0.55160266;stroke-linecap:square;stroke-linejoin:round;stroke-miterlimit:1.41400003;stroke-dasharray:none;stroke-opacity:1;paint-order:markers stroke fill" />
    <path
       style="opacity:1;fill:#ffffff;fill-opacity:1;fill-rule:nonzero;stroke:none;stroke-width:0.55160266;stroke-linecap:square;stroke-linejoin:round;stroke-miterlimit:1.41400003;stroke-dasharray:none;stroke-opacity:1;paint-order:markers stroke fill"
       d="m 153,58.999994 h -20 l 30,139.999996 h 20 z"
       id="path2281"
       inkscape:connector-curvature="0"
       sodipodi:nodetypes="ccccc" />
    <rect
       y="158.99997"
       x="112.99998"
       height="20"
       width="60"
       id="rect2283"
       style="opacity:1;fill:#ffffff;fill-opacity:1;fill-rule:nonzero;stroke:none;stroke-width:0.76946497;stroke-linecap:square;stroke-linejoin:round;stroke-miterlimit:1.41400003;stroke-dasharray:none;stroke-opacity:1;paint-order:markers stroke fill" />
    <path
       style="opacity:1;fill:#ffffff;fill-opacity:1;fill-rule:nonzero;stroke:none;stroke-width:26.87697983;stroke-linecap:square;stroke-linejoin:miter;stroke-miterlimit:8;stroke-dasharray:none;stroke-opacity:1;paint-order:markers stroke fill"
       d="m 313.0003,98.99989 c -16.62,0 -30.0003,13.3802 -30.0003,30.0002 v 40.0002 c 0,16.62 13.3803,29.9997 30.0003,29.9997 16.62,0 29.9997,-13.3797 29.9997,-29.9997 h -19.9998 c 0,5.5399 -4.4599,9.9999 -9.9999,9.9999 -5.54,0 -10.0005,-4.46 -10.0005,-9.9999 v -10.0005 H 343 v -29.9997 c 0,-16.62 -13.3797,-30.0002 -29.9997,-30.0002 z m 0,20.0003 c 5.54,0 9.9999,4.4599 9.9999,9.9999 v 9.9999 h -20.0004 v -9.9999 c 0,-5.54 4.4605,-9.9999 10.0005,-9.9999 z"
       id="path2294"
       inkscape:connector-curvature="0"
       sodipodi:nodetypes="ssssccssccssssccss" />
    <path
       style="opacity:1;fill:#ffffff;fill-opacity:1;fill-rule:nonzero;stroke:none;stroke-width:0.46834129;stroke-linecap:square;stroke-linejoin:round;stroke-miterlimit:1.41400003;stroke-dasharray:none;stroke-opacity:1;paint-order:markers stroke fill"
       d="m 203,58.999994 h 20 V 198.99999 h -20 z"
       id="rect2874"
       inkscape:connector-curvature="0" />
    <path
       style="opacity:1;fill:#ffffff;fill-opacity:1;fill-rule:nonzero;stroke:none;stroke-width:0.47611263;stroke-linecap:square;stroke-linejoin:round;stroke-miterlimit:1.41400003;stroke-dasharray:none;stroke-opacity:1;paint-order:markers stroke fill"
       d="M 262.9999,198.99994 V 121.0002 c 0,-12.188 -9.8122,-22.00021 -22.0002,-22.00021 -12.188,0 -21.9997,9.81221 -21.9997,22.00021 v 77.99974 h 3.9998 V 128.9997 c 0,-5.53999 4.4599,-9.9999 9.9999,-9.9999 5.54,0 10.0004,4.45991 10.0004,9.9999 v 70.00024 z"
       id="rect2886"
       inkscape:connector-curvature="0"
       sodipodi:nodetypes="csssccssscc" />
    <path
       id="path2933"
       d="m 385,-455 h 20 v -100 h -20 z"
       style="opacity:1;fill:#ffffff;fill-opacity:1;fill-rule:nonzero;stroke:none;stroke-width:0.38954106;stroke-linecap:square;stroke-linejoin:round;stroke-miterlimit:1.41400003;stroke-dasharray:none;stroke-opacity:1;paint-order:markers stroke fill"
       inkscape:connector-curvature="0" />
    <path
       sodipodi:nodetypes="csssccssscc"
       inkscape:connector-curvature="0"
       id="path2935"
       d="m 445,-455 v -77.9998 C 445,-545.1878 435.1878,-555 422.9998,-555 c -12.188,0 -21.9997,9.8122 -21.9997,22.0002 V -455 h 3.9997 v -70.0003 c 0,-5.54 4.46,-9.9999 10,-9.9999 5.54,0 10.0004,4.4599 10.0004,9.9999 V -455 Z"
       style="opacity:1;fill:#ffffff;fill-opacity:1;fill-rule:nonzero;stroke:none;stroke-width:0.59836298;stroke-linecap:square;stroke-linejoin:round;stroke-miterlimit:1.41400003;stroke-dasharray:none;stroke-opacity:1;paint-order:markers stroke fill" />
    <path
       inkscape:connector-curvature="0"
       style="opacity:1;fill:#ffffff;fill-opacity:1;fill-rule:nonzero;stroke:none;stroke-width:0.38954106;stroke-linecap:square;stroke-linejoin:round;stroke-miterlimit:1.41400003;stroke-dasharray:none;stroke-opacity:1;paint-order:markers stroke fill"
       d="m 297,-555 h -20 v 100 h 20 z"
       id="path2946" />
    <path
       style="opacity:1;fill:#ffffff;fill-opacity:1;fill-rule:nonzero;stroke:none;stroke-width:0.59836298;stroke-linecap:square;stroke-linejoin:round;stroke-miterlimit:1.41400003;stroke-dasharray:none;stroke-opacity:1;paint-order:markers stroke fill"
       d="m 237,-555 v 77.9998 c 0,12.188 9.8122,22.0002 22.0002,22.0002 12.188,0 21.9997,-9.8122 21.9997,-22.0002 V -555 h -3.9997 v 70.0003 c 0,5.54 -4.46,9.9999 -10,9.9999 -5.54,0 -10.0004,-4.4599 -10.0004,-9.9999 V -555 Z"
       id="path2948"
       inkscape:connector-curvature="0"
       sodipodi:nodetypes="csssccssscc" />
    <path
       style="opacity:1;fill:#ffffff;fill-opacity:1;fill-rule:nonzero;stroke:none;stroke-width:0.19575283;stroke-linecap:square;stroke-linejoin:round;stroke-miterlimit:10;stroke-dasharray:none;stroke-opacity:1;paint-order:stroke fill markers"
       d="m 382.9998,99.00042 c -11.08,0 -19.9998,8.9198 -19.9998,19.99981 v 9.99991 h 19.9998 v -5.99964 c 0,-2.21601 1.7843,-4.00027 4.0003,-4.00027 h 11.9998 c 2.216,0 4.0003,1.78426 4.0003,4.00027 v 5.91386 l -28.5694,23.97166 c -7.2459,6.08002 -11.4307,15.05517 -11.4308,24.51402 v 1.59999 c 10e-5,11.07991 8.9201,20.00002 20,19.99996 h 12.0001 c 4.432,0 7.9995,-3.56791 7.9995,-8 0,4.43209 3.5685,8 8.0004,8 h 20 c -4.432,6e-5 -7.9995,-3.56794 -7.9995,-8 L 423,119.00023 c -10e-5,-11.08001 -8.9198,-19.99981 -19.9998,-19.99981 z"
       id="rect815-2"
       inkscape:connector-curvature="0"
       sodipodi:nodetypes="ssccsssscccccscscssss" />
    <path
       style="opacity:1;fill:#0046aa;fill-opacity:1;fill-rule:nonzero;stroke:none;stroke-width:0.31435701;stroke-linecap:square;stroke-linejoin:round;stroke-miterlimit:1.41400003;stroke-dasharray:none;stroke-opacity:1;paint-order:stroke fill markers"
       d="m 387.5,161.74845 c -2.8531,2.39404 -4.5,5.92714 -4.5,9.6516 v 3.60028 c 0,2.216 1.784,3.99972 4,3.99972 l 12,4e-5 c 2.2161,1e-5 4,-1.78376 4,-3.99978 v -26.25924 z"
       id="path7367"
       inkscape:connector-curvature="0"
       sodipodi:nodetypes="cscssccc" />
  </g>
</svg>
