<svg xmlns="http://www.w3.org/2000/svg" width="900" height="900" viewBox="0 0 900 900">
  <g fill="none">
    <circle cx="450" cy="450" r="450" fill="#AF1E2D"/>
    <circle cx="450" cy="450" r="390" fill="#FFF"/>
    <path fill="#000" d="M662,131 L773.7719,288.48175 C783.6303,303.38548 769.3207,322.41599 752.2659,317.08301 L704,302.00004 L704,766.00004 L620,766.00004 L620,740 C619.999847,616.315144 533.301661,512.879737 417.362071,487.150426 L431.083,531.26582 C436.4161,548.32062 417.3855,562.63032 402.4817,552.77192 L245,441.00002 L402.4817,329.22812 C417.3854,319.36972 436.4159,333.67932 431.083,350.73412 L415.35616,401.283229 C496.620594,414.222131 568.370588,455.703143 620.007938,515.128069 L620,302.00004 L571.7342,317.08304 C554.6794,322.41616 540.3697,303.38556 550.2281,288.48178 L662,131 Z" transform="matrix(-1 0 0 1 1022 0)"/>
  </g>
</svg>
