<svg xmlns="http://www.w3.org/2000/svg" width="900" height="900" viewBox="0 0 900 900">
  <g fill="none">
    <circle cx="450" cy="450" r="450" fill="#AF1E2D"/>
    <circle cx="450" cy="450" r="390" fill="#FFF"/>
    <path fill="#000" d="M540,131 L651.7719,288.48175 C661.6303,303.38548 647.3207,322.41599 630.2659,317.08301 L582,302.00004 L582,766.00004 L498,766.00004 L498,740.00004 C497.999847,616.315144 411.301661,512.879737 295.362071,487.150426 L309.083,531.26582 C314.4161,548.32062 295.3855,562.63032 280.4817,552.77192 L123,441.00002 L280.4817,329.22812 C295.3854,319.36972 314.4159,333.67932 309.083,350.73412 L293.35616,401.283229 C374.620138,414.222059 446.369782,455.702677 498.007068,515.127068 L498,302.00004 L449.7342,317.08304 C432.6794,322.41616 418.3697,303.38556 428.2281,288.48178 L540,131 Z"/>
  </g>
</svg>
