<?xml version="1.0" encoding="UTF-8" standalone="no"?>
<!-- Generator: Adobe Illustrator 14.0.0, SVG Export Plug-In  -->

<svg
   xmlns:dc="http://purl.org/dc/elements/1.1/"
   xmlns:cc="http://creativecommons.org/ns#"
   xmlns:rdf="http://www.w3.org/1999/02/22-rdf-syntax-ns#"
   xmlns:svg="http://www.w3.org/2000/svg"
   xmlns="http://www.w3.org/2000/svg"
   xmlns:sodipodi="http://sodipodi.sourceforge.net/DTD/sodipodi-0.dtd"
   xmlns:inkscape="http://www.inkscape.org/namespaces/inkscape"
   version="1.1"
   x="0px"
   y="0px"
   width="452.90005"
   height="752.90015"
   viewBox="0 -0.321 452.90009 752.90031"
   enable-background="new 0 -0.321 144 120"
   xml:space="preserve"
   id="svg2"
   inkscape:version="0.92.2 (5c3e80d, 2017-08-06)"
   sodipodi:docname="Philippines_road_sign_R2-5P_R.svg"><metadata
     id="metadata44"><rdf:RDF><cc:Work
         rdf:about=""><dc:format>image/svg+xml</dc:format><dc:type
           rdf:resource="http://purl.org/dc/dcmitype/StillImage" /><dc:title></dc:title></cc:Work></rdf:RDF></metadata><sodipodi:namedview
     pagecolor="#ffffff"
     bordercolor="#666666"
     borderopacity="1"
     objecttolerance="10"
     gridtolerance="10"
     guidetolerance="10"
     inkscape:pageopacity="0"
     inkscape:pageshadow="2"
     inkscape:window-width="1366"
     inkscape:window-height="705"
     id="namedview42"
     showgrid="false"
     fit-margin-top="1.45"
     fit-margin-left="1.45"
     fit-margin-right="1.45"
     fit-margin-bottom="1.45"
     inkscape:zoom="0.74414062"
     inkscape:cx="375.83616"
     inkscape:cy="410.80093"
     inkscape:window-x="-4"
     inkscape:window-y="-4"
     inkscape:window-maximized="1"
     inkscape:current-layer="g296" /><defs
     id="defs4" /><g
     id="g1059"><g
       id="g1038"><g
         id="g979"><g
           id="g161"><g
             id="g1151"><g
               id="g137"><g
                 id="g102"><g
                   id="g296"><g
                     id="g320"><path
                       inkscape:connector-curvature="0"
                       d="m 1.95,691.10846 c 0,32.8685 26.62823,59.5207 59.46761,59.5207 h 330.06476 c 32.8526,0 59.4677,-26.6522 59.4677,-59.5207 V 61.14949 c 0,-32.86822 -26.6151,-59.52049 -59.4677,-59.52049 H 61.41761 C 28.57823,1.629 1.95,28.28127 1.95,61.14949 Z"
                       style="fill:#ffffff;fill-opacity:1;fill-rule:nonzero;stroke:#000000;stroke-width:1;stroke-opacity:1"
                       id="path4911"
                       sodipodi:nodetypes="sssssssss" /><path
                       sodipodi:nodetypes="sssssssss"
                       id="path4913"
                       style="fill:#000000;fill-opacity:1;fill-rule:nonzero;stroke:none"
                       d="m 441.45007,60.7286 c 0,-27.39001 -22.2095,-49.59978 -49.5996,-49.59978 H 61.049811 c -27.40112,0 -49.59981,22.20977 -49.59981,49.59978 v 630.80106 c 0,27.3898 22.19869,49.5997 49.59981,49.5997 H 391.85047 c 27.3901,0 49.5996,-22.2099 49.5996,-49.5997 z"
                       inkscape:connector-curvature="0" /><path
                       inkscape:connector-curvature="0"
                       d="m 26.449871,60.72885 c 0,-19.10672 15.4932,-34.60004 34.60014,-34.60004 H 391.85007 c 19.1147,0 34.6001,15.49332 34.6001,34.60004 v 630.80001 c 0,19.1069 -15.4854,34.6005 -34.6001,34.6005 H 61.050011 c -19.10694,0 -34.60014,-15.4936 -34.60014,-34.6005 z"
                       style="fill:#ffffff;fill-opacity:1;fill-rule:nonzero;stroke:none"
                       id="path4915"
                       sodipodi:nodetypes="sssssssss" /><path
                       sodipodi:nodetypes="sssss"
                       inkscape:connector-curvature="0"
                       style="fill:#084597;fill-opacity:1;stroke:none"
                       d="m 411.45005,226.12905 c 0,-102.17274 -82.82731,-185.000038 -185.00002,-185.000038 -102.17271,0 -185.000048,82.827298 -185.000048,185.000038 0,102.17275 82.827338,185.00004 185.000048,185.00004 102.1727,0 185.00002,-82.82729 185.00002,-185.00004 z"
                       id="path14622-1" /><text
                       id="text29"
                       y="570.38361"
                       x="469.77551"
                       style="font-style:normal;font-variant:normal;font-weight:normal;font-stretch:normal;font-size:74.66666412px;line-height:1.25;font-family:ClearviewHwy-1B;-inkscape-font-specification:'ClearviewHwy-1B, Normal';font-variant-ligatures:normal;font-variant-caps:normal;font-variant-numeric:normal;font-feature-settings:normal;text-align:start;letter-spacing:0px;word-spacing:0px;writing-mode:lr-tb;text-anchor:start;fill:#000000;fill-opacity:1;stroke:none"
                       xml:space="preserve"><tspan
                         y="639.45026"
                         x="469.77551"
                         id="tspan27"
                         sodipodi:role="line" /></text>
<path
                       inkscape:connector-curvature="0"
                       style="fill:#ffffff;stroke:none"
                       d="m 342.15961,149.80915 v 24.66667 H 224.99295 c -37.49333,0 -67.83333,30.34 -67.83333,67.83333 v 111 h -24.66665 v -111 c 0,-51.06 41.43999,-92.5 92.49999,-92.5 z"
                       id="path4165" /><path
                       style="fill:#ffffff;fill-opacity:1;stroke:none;stroke-width:10.20000076;stroke-miterlimit:4;stroke-dasharray:none;stroke-opacity:1"
                       d="m 329.82603,125.14261 37,36.99993 -37,37.00018 -34.88396,-6e-5 36.99999,-37.00006 -36.99999,-37.00012 z"
                       id="path4167"
                       inkscape:connector-curvature="0"
                       sodipodi:nodetypes="ccccccc" /><g
                       id="g235"
                       transform="translate(-519.862)"><g
                         transform="translate(95,16.950116)"
                         id="g220"><path
                           inkscape:connector-curvature="0"
                           id="path177"
                           style="font-style:normal;font-variant:normal;font-weight:normal;font-stretch:normal;font-size:medium;line-height:1.25;font-family:ClearviewHwy-2B;-inkscape-font-specification:ClearviewHwy-2B;font-variant-ligatures:normal;font-variant-caps:normal;font-variant-numeric:normal;font-feature-settings:normal;text-align:start;letter-spacing:0px;word-spacing:0px;writing-mode:lr-tb;text-anchor:start;fill:#000000;fill-opacity:1;stroke:none"
                           d="m 601.74199,483.2077 h -0.74666 l -7.01867,33.89866 h 15.30667 z m 13.51467,62.42133 -4.256,-17.77067 h -18.96533 l -4.10667,17.77067 H 574.862 l 18.81599,-74.89067 h 15.75467 l 19.264,74.89067 z" /><path
                           inkscape:connector-curvature="0"
                           id="path179"
                           style="font-style:normal;font-variant:normal;font-weight:normal;font-stretch:normal;font-size:medium;line-height:1.25;font-family:ClearviewHwy-2B;-inkscape-font-specification:ClearviewHwy-2B;font-variant-ligatures:normal;font-variant-caps:normal;font-variant-numeric:normal;font-feature-settings:normal;text-align:start;letter-spacing:0px;word-spacing:0px;writing-mode:lr-tb;text-anchor:start;fill:#000000;fill-opacity:1;stroke:none"
                           d="m 642.83199,545.62903 v -74.66667 h 12.39467 v 64.13867 h 19.41333 v 10.528 z" /><path
                           inkscape:connector-curvature="0"
                           id="path181"
                           style="font-style:normal;font-variant:normal;font-weight:normal;font-stretch:normal;font-size:medium;line-height:1.25;font-family:ClearviewHwy-2B;-inkscape-font-specification:ClearviewHwy-2B;font-variant-ligatures:normal;font-variant-caps:normal;font-variant-numeric:normal;font-feature-settings:normal;text-align:start;letter-spacing:0px;word-spacing:0px;writing-mode:lr-tb;text-anchor:start;fill:#000000;fill-opacity:1;stroke:none"
                           d="m 690.37365,545.62903 v -74.66667 h 12.39467 v 64.13867 h 19.41333 v 10.528 z" /></g></g><g
                       id="g215"
                       transform="translate(-524.862,42.347456)"><g
                         id="g229"><path
                           inkscape:connector-curvature="0"
                           id="path183"
                           style="font-style:normal;font-variant:normal;font-weight:normal;font-stretch:normal;font-size:medium;line-height:1.25;font-family:ClearviewHwy-2B;-inkscape-font-specification:ClearviewHwy-2B;font-variant-ligatures:normal;font-variant-caps:normal;font-variant-numeric:normal;font-feature-settings:normal;text-align:start;letter-spacing:0px;word-spacing:0px;writing-mode:lr-tb;text-anchor:start;fill:#000000;fill-opacity:1;stroke:none"
                           d="m 601.06999,574.97303 v 63.98933 H 588.67533 V 574.97303 H 574.862 v -10.67734 h 40.02133 v 10.67734 z" /><path
                           inkscape:connector-curvature="0"
                           id="path185"
                           style="font-style:normal;font-variant:normal;font-weight:normal;font-stretch:normal;font-size:medium;line-height:1.25;font-family:ClearviewHwy-2B;-inkscape-font-specification:ClearviewHwy-2B;font-variant-ligatures:normal;font-variant-caps:normal;font-variant-numeric:normal;font-feature-settings:normal;text-align:start;letter-spacing:0px;word-spacing:0px;writing-mode:lr-tb;text-anchor:start;fill:#000000;fill-opacity:1;stroke:none"
                           d="m 659.96099,586.32236 q 0,-2.464 -0.448,-4.77867 -0.448,-2.31466 -1.71733,-4.032 -1.19467,-1.792 -3.36,-2.83733 -2.16533,-1.12 -5.67467,-1.12 -1.71733,0 -3.584,0.14933 -1.792,0.0747 -3.65866,0.37334 v 24.71466 h 8.512 q 5.22666,0 7.54133,-2.83733 2.38933,-2.912 2.38933,-9.632 z m -0.224,52.64 -6.57066,-26.432 q -0.52267,-1.94133 -1.12,-2.83733 -0.59734,-0.896 -2.09067,-0.896 h -8.43733 v 30.16533 h -12.39467 v -74.29333 q 2.688,-0.29867 5.00267,-0.52267 2.38933,-0.224 4.704,-0.29867 2.31466,-0.14933 4.704,-0.224 2.38933,-0.0747 5.00266,-0.0747 11.49867,0 17.77067,5.45066 6.272,5.376 6.272,16.352 0,7.98934 -2.76267,12.61867 -2.76267,4.62933 -7.46667,6.72 v 0.14933 q 0.82134,0.29867 1.26934,1.344 0.52266,0.97067 0.896,2.24 l 8.288,30.53867 z" /><path
                           inkscape:connector-curvature="0"
                           id="path187"
                           style="font-style:normal;font-variant:normal;font-weight:normal;font-stretch:normal;font-size:medium;line-height:1.25;font-family:ClearviewHwy-2B;-inkscape-font-specification:ClearviewHwy-2B;font-variant-ligatures:normal;font-variant-caps:normal;font-variant-numeric:normal;font-feature-settings:normal;text-align:start;letter-spacing:0px;word-spacing:0px;writing-mode:lr-tb;text-anchor:start;fill:#000000;fill-opacity:1;stroke:none"
                           d="m 710.09615,576.54103 h -0.74667 l -7.01866,33.89866 h 15.30666 z m 13.51467,62.42133 -4.256,-17.77067 h -18.96534 l -4.10666,17.77067 h -13.06667 l 18.816,-74.89067 h 15.75467 l 19.264,74.89067 z" /><path
                           inkscape:connector-curvature="0"
                           id="path189"
                           style="font-style:normal;font-variant:normal;font-weight:normal;font-stretch:normal;font-size:medium;line-height:1.25;font-family:ClearviewHwy-2B;-inkscape-font-specification:ClearviewHwy-2B;font-variant-ligatures:normal;font-variant-caps:normal;font-variant-numeric:normal;font-feature-settings:normal;text-align:start;letter-spacing:0px;word-spacing:0px;writing-mode:lr-tb;text-anchor:start;fill:#000000;fill-opacity:1;stroke:none"
                           d="m 763.58082,574.97303 v 19.86133 h 18.51733 v 10.90133 h -18.51733 v 33.22667 h -12.39467 v -74.66667 h 32.928 v 10.67734 z" /><path
                           inkscape:connector-curvature="0"
                           id="path191"
                           style="font-style:normal;font-variant:normal;font-weight:normal;font-stretch:normal;font-size:medium;line-height:1.25;font-family:ClearviewHwy-2B;-inkscape-font-specification:ClearviewHwy-2B;font-variant-ligatures:normal;font-variant-caps:normal;font-variant-numeric:normal;font-feature-settings:normal;text-align:start;letter-spacing:0px;word-spacing:0px;writing-mode:lr-tb;text-anchor:start;fill:#000000;fill-opacity:1;stroke:none"
                           d="m 812.14332,574.97303 v 19.86133 h 18.51733 v 10.90133 h -18.51733 v 33.22667 h -12.39467 v -74.66667 h 32.928 v 10.67734 z" /><path
                           inkscape:connector-curvature="0"
                           id="path193"
                           style="font-style:normal;font-variant:normal;font-weight:normal;font-stretch:normal;font-size:medium;line-height:1.25;font-family:ClearviewHwy-2B;-inkscape-font-specification:ClearviewHwy-2B;font-variant-ligatures:normal;font-variant-caps:normal;font-variant-numeric:normal;font-feature-settings:normal;text-align:start;letter-spacing:0px;word-spacing:0px;writing-mode:lr-tb;text-anchor:start;fill:#000000;fill-opacity:1;stroke:none"
                           d="m 848.31115,638.96236 v -74.66667 h 12.39467 v 74.66667 z" /><path
                           inkscape:connector-curvature="0"
                           id="path195"
                           style="font-style:normal;font-variant:normal;font-weight:normal;font-stretch:normal;font-size:medium;line-height:1.25;font-family:ClearviewHwy-2B;-inkscape-font-specification:ClearviewHwy-2B;font-variant-ligatures:normal;font-variant-caps:normal;font-variant-numeric:normal;font-feature-settings:normal;text-align:start;letter-spacing:0px;word-spacing:0px;writing-mode:lr-tb;text-anchor:start;fill:#000000;fill-opacity:1;stroke:none"
                           d="m 925.98782,630.15169 q -1.568,2.016 -3.65867,3.808 -2.09067,1.792 -4.704,3.21067 -2.53867,1.41867 -5.6,2.24 -2.98667,0.82133 -6.42133,0.82133 -7.46667,0 -12.544,-3.21066 -5.00267,-3.21067 -8.064,-8.58667 -3.06134,-5.376 -4.40534,-12.32 -1.26933,-7.01867 -1.26933,-14.56 0,-6.944 1.344,-13.81333 1.344,-6.944 4.48,-12.39467 3.136,-5.45067 8.288,-8.81067 5.152,-3.43466 12.768,-3.43466 5.89867,0 10.37867,2.61333 4.55466,2.53867 8.81066,7.31733 l -7.616,8.736 q -1.344,-1.86666 -2.61333,-3.28533 -1.26933,-1.49333 -2.688,-2.53867 -1.344,-1.04533 -2.98667,-1.568 -1.568,-0.59733 -3.50933,-0.59733 -3.73333,0 -6.42133,2.16533 -2.61334,2.16534 -4.256,5.89867 -1.64267,3.73333 -2.38934,8.81067 -0.74666,5.07733 -0.74666,10.90133 0,2.76267 0.14933,5.89867 0.224,3.136 0.74667,6.272 0.59733,3.06133 1.568,5.97333 0.97066,2.83733 2.53866,5.07733 1.568,2.16534 3.808,3.50934 2.24,1.26933 5.30134,1.26933 4.18133,0 7.24266,-2.16533 3.136,-2.24 5.97334,-6.19734 z" /></g></g></g></g></g></g></g></g></g></g></g></svg>