<?xml version="1.0" encoding="UTF-8" standalone="no"?>
<!-- Created with Inkscape (http://www.inkscape.org/) -->

<svg
   xmlns:dc="http://purl.org/dc/elements/1.1/"
   xmlns:cc="http://creativecommons.org/ns#"
   xmlns:rdf="http://www.w3.org/1999/02/22-rdf-syntax-ns#"
   xmlns:svg="http://www.w3.org/2000/svg"
   xmlns="http://www.w3.org/2000/svg"
   xmlns:sodipodi="http://sodipodi.sourceforge.net/DTD/sodipodi-0.dtd"
   xmlns:inkscape="http://www.inkscape.org/namespaces/inkscape"
   id="svg17624"
   version="1.1"
   inkscape:version="0.48.4 r9939"
   width="201.60001"
   height="201.59999"
   xml:space="preserve"
   sodipodi:docname="AJAX1.svg"><metadata
     id="metadata17630"><rdf:RDF><cc:Work
         rdf:about=""><dc:format>image/svg+xml</dc:format><dc:type
           rdf:resource="http://purl.org/dc/dcmitype/StillImage" /><dc:title /></cc:Work></rdf:RDF></metadata><defs
     id="defs17628"><inkscape:perspective
       sodipodi:type="inkscape:persp3d"
       inkscape:vp_x="0 : 0.5 : 1"
       inkscape:vp_y="0 : 1000 : 0"
       inkscape:vp_z="1 : 0.5 : 1"
       inkscape:persp3d-origin="0.5 : 0.33333333 : 1"
       id="perspective17632" /><clipPath
       clipPathUnits="userSpaceOnUse"
       id="clipPath17642"><path
         d="m -2,710 501,0 0,-711 -501,0 0,711 z"
         id="path17644"
         inkscape:connector-curvature="0" /></clipPath><clipPath
       clipPathUnits="userSpaceOnUse"
       id="clipPath17648"><path
         d="m 0,708.06 498,0 0,-708 -498,0 0,708 z"
         id="path17650"
         inkscape:connector-curvature="0" /></clipPath><clipPath
       clipPathUnits="userSpaceOnUse"
       id="clipPath17798"><path
         d="m -2,710 501,0 0,-711 -501,0 0,711 z"
         id="path17800"
         inkscape:connector-curvature="0" /></clipPath><clipPath
       clipPathUnits="userSpaceOnUse"
       id="clipPath17804"><path
         d="m 0,708.06 498,0 0,-708 -498,0 0,708 z"
         id="path17806"
         inkscape:connector-curvature="0" /></clipPath><clipPath
       id="Clip0"><path
         inkscape:connector-curvature="0"
         d="m 0,0 212.597,0 0,269.292 L 0,269.292 0,0 z"
         transform="translate(0.923828,0.879883)"
         id="path7" /></clipPath></defs><sodipodi:namedview
     pagecolor="#ffffff"
     bordercolor="#666666"
     borderopacity="1"
     objecttolerance="10"
     gridtolerance="10"
     guidetolerance="10"
     inkscape:pageopacity="0"
     inkscape:pageshadow="2"
     inkscape:window-width="1280"
     inkscape:window-height="1004"
     id="namedview17626"
     showgrid="false"
     inkscape:zoom="3.2651524"
     inkscape:cx="95.561651"
     inkscape:cy="90.576262"
     inkscape:window-x="-8"
     inkscape:window-y="-8"
     inkscape:window-maximized="1"
     inkscape:current-layer="g17634"
     fit-margin-top="0.8"
     fit-margin-left="0.8"
     fit-margin-right="0.8"
     fit-margin-bottom="0.8"
     showguides="true"
     inkscape:guide-bbox="true" /><g
     id="g17634"
     inkscape:groupmode="layer"
     inkscape:label="GG1999P002"
     transform="matrix(1.25,0,0,-1.25,161.19062,78.104678)"><path
       style="fill:#ffffff;fill-opacity:1;fill-rule:nonzero;stroke:#000000;stroke-opacity:1;stroke-width:1.20000000000000000;stroke-miterlimit:4;stroke-dasharray:none"
       d="m -128.3125,-18.156354 c 0,44.182415 35.816846,80.000096 80.000009,80.000096 44.183435,0 79.999991,-35.817587 79.999991,-79.999998 0,-44.183344 -35.816556,-79.999998 -79.999991,-79.999998 -44.183163,0 -80.000009,35.816556 -80.000009,79.9999 z"
       id="path11"
       inkscape:connector-curvature="0"
       sodipodi:nodetypes="sssss" /><path
       sodipodi:nodetypes="sssss"
       inkscape:connector-curvature="0"
       id="path3067"
       d="m -121.9125,-18.15635 c 0,40.647822 32.951502,73.600088 73.600012,73.600088 40.64876,0 73.599988,-32.95218 73.599988,-73.599998 0,-40.648676 -32.951228,-73.599998 -73.599988,-73.599998 -40.64851,0 -73.600012,32.951232 -73.600012,73.599908 z"
       style="fill:#0069b3;fill-opacity:1;fill-rule:nonzero;stroke:none" /><path
       inkscape:connector-curvature="0"
       style="fill:#ffffff;fill-rule:nonzero;stroke:none"
       d="m -40.312706,-28.823956 0,-47.999421 -15.99987,0 0,47.999421 c 0,5.885163 -4.76709,10.65677 -10.64943,10.66693 l -13.35038,0 2.95627,-7.575479 c 0.3905,-0.951838 0.31787,-2.080911 -0.29671,-3.001419 -0.98119,-1.468965 -2.96831,-1.863977 -4.43727,-0.882885 l -30.222144,19.460659 30.222144,19.4605636 c 1.46896,0.9820364 3.45608,0.586079 4.43727,-0.882882 0.61458,-0.919571 0.68721,-2.049585 0.29671,-3.001329 l -2.95627,-7.574629 63.99958,0 -2.95617,7.574629 c -0.39041,0.951744 -0.31797,2.081758 0.29633,3.001329 0.98157,1.468961 2.96746,1.8649184 4.43784,0.882882 L 15.68732,-10.15615 -14.534806,-29.616809 c -1.47038,-0.981092 -3.45627,-0.58608 -4.43784,0.882885 -0.6143,0.920508 -0.68674,2.049581 -0.29633,3.001419 l 2.95617,7.575479 -13.33344,0 c -5.90399,-0.01195 -10.66646,-4.782708 -10.66646,-10.66693 z"
       id="path15" /></g></svg>