<svg xmlns="http://www.w3.org/2000/svg" width="577" height="577" viewBox="0 0 577 577">
  <g fill="none" transform="translate(1 1)">
    <circle cx="287.438" cy="287.438" r="286.969" fill="#FFF" stroke="#000" stroke-linecap="round" stroke-linejoin="round" stroke-width="2"/>
    <circle cx="287.438" cy="287.438" r="273.982" fill="#000064"/>
    <path fill="#FFF" d="M22.8339101,165.784476 C17.28576,164.968332 12.8976467,162.718104 10.7283875,159.576703 C7.83552365,155.387451 7.9895385,158.244783 7.9895385,108.764225 L7.9895385,63.3573372 L4.11526595,60.4435631 C1.98441762,58.8409838 0.232294616,57.3766453 0.221630328,57.189487 C0.21101286,57.0023256 3.06878804,52.4667762 6.57224097,47.1104928 L12.9421554,37.3717975 L19.5914834,41.8013129 C23.2486171,44.2375525 26.3108826,46.2879885 26.3965248,46.3578443 C26.482167,46.4277 25.078386,48.6984971 23.2770146,51.4040559 C20.175923,56.0617132 19.9476999,56.2880004 18.9843507,55.6601793 C18.4247492,55.2954888 15.8011264,53.6097089 13.1540706,51.914 L8.34124013,48.830893 L6.94863706,50.3894882 C6.18270615,51.2467158 5.55603399,52.1134447 5.55603399,52.3155527 C5.55603399,52.5176607 8.18421848,54.7184054 11.3964429,57.2060978 L17.2368519,61.729161 L17.2387253,108.299529 C17.2405987,153.289687 17.2721123,154.921694 18.1706889,156.395337 C21.0131366,161.056841 27.4116421,162.835285 36.2066776,161.408352 C43.1173316,160.287126 44.0053172,158.628704 44.0053172,146.843119 L44.0053172,138.592661 L46.6902749,137.812111 C48.2618714,137.355222 49.9794022,137.16426 50.8322336,137.3516 C53.5274669,137.943561 53.7402595,138.526748 53.7300399,145.292355 C53.7019954,163.023062 51.3170805,165.303076 32.0811486,165.988551 C28.6012411,166.112569 24.4399489,166.020742 22.8338383,165.784476 L22.8339101,165.784476 Z M367.904709,164.911755 C365.792894,164.359073 364.40983,163.530252 363.549349,162.301742 C362.93575,161.425681 362.79434,159.600339 362.79434,152.555847 C362.79434,141.327067 363.490868,139.485926 368.752076,136.807847 C372.92681,134.682762 376.922572,134.023359 385.669293,134.015974 C400.015057,134.003844 405.739525,136.323824 407.563024,142.888509 C407.832013,143.856898 408.053323,148.767876 408.05479,153.801779 L408.057913,162.954339 L405.318698,164.208389 L402.579484,165.462439 L400.330006,164.531113 L398.080528,163.599786 L397.837206,152.990943 L397.593852,142.3821 L395.834828,140.771199 C393.95444,139.049269 389.094638,137.59205 385.232324,137.59205 C382.535635,137.59205 378.477427,138.507421 376.307599,139.605074 C373.59252,140.978584 372.833577,142.473022 372.800325,146.511435 L372.771911,149.963382 L374.962065,150.341683 C380.042023,151.219118 381.625416,153.174816 381.131402,157.961526 C380.805244,161.121504 379.706123,162.811524 377.192778,164.017459 C375.138352,165.003208 370.105853,165.487761 367.904896,164.911755 L367.904709,164.911755 Z M204.011986,91.3060626 L203.886569,61.5679024 L191.314106,54.5099996 L178.741643,47.4520937 L171.054105,52.5744682 L163.366564,57.6968365 L149.314167,52.8814145 L135.261769,48.0659894 L133.432028,49.8894575 L131.602281,51.7129193 L135.29713,54.5570437 C137.329294,56.121309 138.809725,57.552404 138.586972,57.7372487 C138.364225,57.9220965 136.815981,59.2295757 135.146427,60.642758 C133.476877,62.0559372 131.885957,63.1372009 131.611049,63.0455669 C130.947814,62.8244908 122.410423,56.1400773 122.38442,55.8215253 C122.373296,55.6850392 126.482945,51.458912 131.516958,46.4301198 L140.669721,37.2868735 L153.283645,42.6913873 C160.221301,45.6638673 166.232014,48.00837 166.640792,47.9013867 C167.049566,47.7944003 170.941442,45.3813283 175.289409,42.5389961 L183.194801,37.3711262 L198.651042,46.2783905 L214.107282,55.185661 L214.232359,88.114945 L214.357437,121.044229 L209.24742,121.044229 L204.137401,121.044229 L204.011986,91.3060626 Z M247.081256,120.685412 L244.526078,120.506659 L244.508843,102.889189 C244.494761,88.5332583 244.362808,85.046463 243.796019,84.0549723 C241.905546,80.7479354 243.726329,78.4070421 247.878707,78.8060313 C250.749006,79.0818324 252.857448,80.4917675 254.076132,82.9503099 C254.825926,84.462932 255.014821,86.1807906 255.152119,92.7357745 L255.318654,100.686531 L257.314702,102.623629 C261.829073,107.004671 273.016083,111.984839 278.423073,112.020527 C280.745363,112.035826 281.658612,111.822509 282.505511,111.066845 C284.627442,109.173561 284.92222,107.546925 284.92222,97.7310236 C284.92222,89.360724 284.842882,88.4774343 284.070513,88.2492612 C283.602039,88.1108767 280.301369,87.3196862 276.735644,86.4910621 C269.244738,84.7502856 258.482336,81.0771594 253.465814,78.5492483 C246.610582,75.0947815 244.282721,70.3216639 244.282721,59.7199366 C244.282721,53.8742665 244.344199,53.5063694 245.853743,50.3192859 C250.164226,41.2185905 262.391903,35.2563579 273.567548,36.8059982 C281.193698,37.8634573 286.611897,40.4571245 290.923576,45.1142572 C294.627744,49.1152024 295.825311,52.3001003 295.77501,58.0164843 C295.715686,64.7634724 293.373975,69.6240213 288.921979,72.2410591 C286.929094,73.4125393 286.111201,73.5909051 282.732066,73.5909051 C279.481416,73.5909051 278.394004,73.3726203 276.146774,72.2689571 C272.106238,70.2845426 270.692856,68.5754046 270.425429,65.3502413 C270.141547,61.9273474 270.543359,60.4053427 272.115418,58.9484042 C273.171918,57.9692592 273.879312,57.7749133 276.354346,57.7838213 C279.359645,57.7946245 283.462128,59.1694179 283.462128,60.1657138 C283.462128,60.4370687 283.914834,60.9013769 284.468172,61.1975043 C285.920552,61.9748067 287.662121,60.6780558 288.378913,58.285588 C289.715955,53.8229979 286.072203,48.3071014 280.298559,46.0534958 C275.932271,44.3492162 269.167844,44.3892725 265.431994,46.1415266 C256.974975,50.1081949 253.438328,58.5613017 256.274797,68.028589 C257.977659,73.7122355 265.517311,78.0252694 278.351759,80.6576628 C282.884748,81.5873939 294.41093,83.5679586 295.289926,83.568174 C295.504586,83.5682271 295.614086,90.5385455 295.533249,99.0577644 L295.386281,114.547267 L294.169543,116.342853 C292.590771,118.6727 289.893896,119.950292 285.070749,120.653283 C277.881069,121.701166 272.951014,119.669689 261.115347,110.78212 L254.746785,105.999876 L254.746785,113.522052 L254.746785,121.044229 L252.191607,120.954181 C250.786258,120.904692 248.486598,120.783734 247.08125,120.685412 L247.081256,120.685412 Z M433.365936,91.6742657 C433.365936,64.3035136 433.307986,62.254954 432.514229,61.5793551 C431.127199,60.3987703 407.654571,45.6056141 407.168363,45.6056141 C406.923073,45.6056141 404.499744,47.0562862 401.783229,48.8293319 C398.360007,51.0636228 396.984499,52.2213022 397.301602,52.6012609 C397.553261,52.9027774 399.965163,54.9015983 402.661383,57.0430813 L407.563618,60.9366873 L407.445531,85.0283722 L407.327476,109.120045 L405.817583,111.796906 C403.058417,116.68865 398.442405,119.159158 390.258359,120.124361 C384.722105,120.777302 377.415119,120.159831 372.420088,118.61706 C367.228414,117.013497 363.47588,113.598237 362.315438,109.420662 C362.027247,108.383052 361.825264,100.007969 361.823672,89.0280217 C361.820549,68.4067586 361.748986,67.860558 358.80835,66.0496011 C352.277792,62.0278081 342.381276,62.2560156 337.793615,66.5341888 L335.782464,68.4096842 L335.782464,81.9510603 L335.782464,95.4924363 L338.459295,95.7826625 C341.96863,96.1631458 345.037999,97.7649945 346.072518,99.7558441 C347.024546,101.587955 347.105633,106.149903 346.244183,109.415698 C345.221123,113.294185 343.576127,115.453022 339.635474,118.0887 C336.115772,120.442807 335.793486,120.557271 332.699794,120.552151 C330.915355,120.549029 328.63403,120.411053 327.630234,120.245133 L325.80508,119.943454 L325.80508,96.2804827 L325.80508,72.6175052 L327.203287,69.663347 C328.970023,65.9288015 331.010305,63.5989925 333.81871,62.1091353 C335.032545,61.4652061 336.025662,60.8111574 336.025662,60.6556906 C336.025662,60.500227 334.985335,59.885454 333.713831,59.2895274 C332.442328,58.6936008 330.910703,57.8348557 330.310187,57.3812008 L329.218404,56.5563798 L335.591409,46.9830708 L341.964415,37.4097556 L350.554176,41.8241901 C355.278564,44.2521307 359.304488,46.3771964 359.500694,46.5465669 C359.696932,46.7159342 358.434483,48.9824163 356.695318,51.5831961 L353.533154,56.3118831 L345.692344,52.3857113 L337.851566,48.4595457 L336.451922,49.8004868 C335.682113,50.5380109 335.052246,51.3070422 335.052246,51.50945 C335.052246,51.7118577 338.173227,53.5099163 341.987739,55.5051309 L348.923231,59.1327993 L354.279545,59.336178 C358.78053,59.5070753 360.089003,59.7470071 362.473583,60.8387087 C366.633111,62.7430075 368.885087,64.73855 370.433947,67.8926586 L371.798152,70.6707022 L371.923014,89.4086797 C371.991705,99.7145669 372.164838,108.658097 372.307747,109.283217 C372.882754,111.798436 377.923464,114.818066 383.17849,115.795322 C388.284426,116.744883 394.425068,114.613367 396.140535,111.296023 C396.750106,110.117252 396.863228,106.25753 396.863228,86.6426259 L396.863228,63.3868119 L391.968143,58.4749975 L387.073058,53.5631894 L400.337999,45.6096794 C407.633714,41.2352512 413.833524,37.665171 414.115376,37.6761647 C414.397228,37.6871553 421.143539,41.6880724 429.10715,46.5670712 L443.586518,55.4379854 L443.586518,88.2411025 L443.586518,121.044229 L438.476149,121.044229 L433.36578,121.044229 L433.365936,91.6742657 Z M339.051787,112.07548 C339.588389,111.024131 340.143351,108.885184 340.285073,107.322305 C340.585909,104.004564 339.709567,102.549599 337.410475,102.549599 L336.025818,102.549599 L336.025818,109.19548 L336.025818,115.841377 L337.051002,114.914234 C337.614862,114.404296 338.515215,113.12686 339.051787,112.07548 Z M69.8005263,120.259339 C59.8427219,119.043663 52.3404657,115.246761 49.8885832,110.181853 C48.9032966,108.146504 48.8723949,107.40208 48.8723949,85.7001745 L48.8723949,63.3176712 L45.4894606,60.745829 C43.6288493,59.3313197 41.8608119,57.8779156 41.5604881,57.5160477 C41.1345844,57.0028689 42.4232516,54.7139155 47.4171799,47.1132436 L53.8199193,37.3683848 L60.4717983,41.7996112 C64.1303276,44.2367844 67.1937422,46.2879885 67.2793813,46.3578443 C67.3650266,46.4277 65.9640869,48.6942258 64.1661906,51.3945641 L60.8972867,56.304274 L59.1434745,55.2412634 C58.1788733,54.6566021 55.7174708,53.1397462 53.6736853,51.8704655 L49.9577083,49.5626876 L48.4438217,51.4465164 L46.9299382,53.330339 L53.0115217,57.521721 L59.0931114,61.7130998 L59.0931114,85.0198702 C59.0931114,98.7444923 59.2853466,108.83226 59.5606949,109.556483 C60.2266709,111.308138 64.1552937,114.022842 67.8537233,115.287039 C73.4100351,117.186286 78.9646735,116.56969 84.2612111,113.465726 C88.1585982,111.181715 88.0338396,112.041821 88.1917011,86.3682049 L88.3316031,63.6163495 L85.0831565,61.30312 C83.2965131,60.0308388 81.2965557,58.5454247 80.6388071,58.0021935 L79.4428948,57.0145027 L85.869573,47.2004751 L92.2962544,37.3864412 L98.9346387,41.8086378 C102.585756,44.2408466 105.617216,46.2621045 105.671223,46.300328 C105.72523,46.3385327 104.449202,48.5931312 102.835607,51.3105049 L99.9018002,56.2511851 L94.7068504,53.0567798 C91.849631,51.2998515 89.2665766,49.6679411 88.9667367,49.4303073 C88.6099457,49.1475403 87.9792926,49.5780994 87.1416076,50.6763641 C86.4376298,51.5993229 85.8720584,52.5333504 85.8847818,52.7519786 C85.8975209,52.9706036 88.6899552,54.913382 92.0902154,57.0692651 L98.2725156,60.9890549 L98.2725156,84.8112053 L98.2725156,108.633368 L96.922067,111.383292 C94.9299685,115.439846 91.9165018,117.486623 85.5321341,119.119473 C81.9340779,120.039684 73.1906826,120.673203 69.8005263,120.259339 L69.8005263,120.259339 Z M128.691311,97.2842253 C128.691311,71.3535418 128.751959,70.7774107 131.864325,67.1413027 C133.993525,64.6538164 138.379166,62.4262791 143.292332,61.336838 C148.844088,60.1058027 160.348973,60.24602 165.403071,61.6063226 C172.289487,63.4597868 176.579793,66.8045883 177.825881,71.2913701 C178.140852,72.4254604 178.330368,81.9877038 178.332066,96.830864 L178.334876,120.557521 L173.23699,120.557521 L168.139204,120.557521 L168.00496,94.9680765 L167.870715,69.3786223 L166.086598,67.7438674 C162.508365,64.4651906 154.210319,63.1878325 148.322851,65.0094084 C143.958283,66.3597946 141.384733,67.8754484 140.021492,69.8983611 L138.912024,71.5447029 L138.912024,96.0511105 L138.912024,120.557521 L133.801668,120.557521 L128.691311,120.557521 L128.691311,97.2842253 Z M411.335197,30.9922882 C406.853601,29.8617324 402.308529,26.3223977 400.010561,22.1736074 C398.725663,19.8538366 398.567486,19.1120663 398.572579,15.4301694 C398.579881,10.4459765 399.588954,8.12717364 403.275606,4.62480728 C406.565661,1.49920856 410.083114,0.176017859 415.133816,0.163803591 C418.493279,0.156025623 419.497263,0.365642804 422.234073,1.64635742 C425.982921,3.40065355 428.707055,5.95457671 430.141325,9.05955561 C431.586836,12.1889355 431.567696,18.6097032 430.103202,21.8427785 C428.678829,24.9872922 425.473452,28.3129007 422.433402,29.8002414 C419.560396,31.2058739 414.38527,31.7617286 411.335197,30.9922882 L411.335197,30.9922882 Z M418.278214,21.4918668 C424.327091,18.4319992 422.842957,9.01130322 416.193969,8.2618613 C411.973306,7.78613786 408.584898,10.5996604 408.169255,14.9250524 C407.821896,18.5403189 409.291824,20.7944365 412.798224,22.0234424 C414.697284,22.6890686 416.199652,22.5433373 418.278214,21.4918668 L418.278214,21.4918668 Z M261.5606,15.1868218 L261.5606,4.23605303 L265.697557,4.23605303 L269.834498,4.23605303 L269.834498,15.1868218 L269.834498,26.1375874 L265.697557,26.1375874 L261.5606,26.1375874 L261.5606,15.1868218 Z" transform="translate(62.786 164.122)"/>
    <path fill="#FFF" d="M382.94732,421.55023 C374.7151,420.22485 367.23829,412.70645 364.79458,403.29646 C363.76819,399.3442 363.76747,390.33073 364.79358,386.15629 C366.55018,379.00735 371.23826,372.81701 377.12838,369.86892 C386.62952,365.11344 400.2392,366.9209 406.21983,373.73245 C407.78898,375.51961 410.00431,379.94987 410.45336,382.19871 L410.74313,383.64989 L407.40915,383.64989 L404.07516,383.64989 L403.57156,381.969 C401.86703,376.27981 395.22927,372.57313 387.5427,373.0181 C379.35997,373.4918 373.15543,379.11379 371.07713,387.93776 C370.09836,392.09338 370.42844,399.76002 371.74649,403.48404 C374.18592,410.37649 378.61833,414.43326 385.26769,415.85929 C395.54461,418.0633 404.90638,411.43139 405.62119,401.44081 L405.8398,398.38481 L397.74258,398.38481 L389.64536,398.38481 L389.64536,395.48248 L389.64536,392.58015 L400.58493,392.58015 L411.52448,392.58015 L411.52448,406.66977 L411.52448,420.75939 L409.41169,420.62338 L407.29889,420.48722 L406.72142,417.80816 C405.82823,413.66435 405.95725,413.73585 403.40373,415.96959 C397.6721,420.98348 390.90101,422.83072 382.94766,421.55024 L382.94732,421.55023 Z M81.99758,394.14294 L81.99758,368.02193 L85.12318,368.02193 L88.24876,368.02193 L88.24876,380.97082 C88.24876,388.0927 88.40075,393.9197 88.58654,393.9197 C88.77231,393.9197 94.7487,388.0927 101.8674,380.97082 L114.81052,368.02193 L119.05177,368.02193 L123.29305,368.02193 L112.69186,378.63004 C106.8612,384.46449 102.09066,389.37896 102.09066,389.55104 C102.09066,389.72316 106.90128,396.70397 112.78093,405.06396 L123.47118,420.26395 L119.53183,420.26395 L115.59249,420.26395 L106.32515,406.82569 L97.05783,393.38741 L92.65329,397.77543 L88.24876,402.16342 L88.24876,411.21369 L88.24876,420.26395 L85.12318,420.26395 L81.99758,420.26395 L81.99758,394.14294 Z M130.66749,394.14294 L130.66749,368.02193 L148.52801,368.02193 L166.38853,368.02193 L166.38853,370.92427 L166.38853,373.8266 L151.65359,373.8266 L136.91867,373.8266 L136.91867,382.31036 L136.91867,390.79409 L151.20708,390.79409 L165.49551,390.79409 L165.49551,393.69644 L165.49551,396.59876 L151.20708,396.59876 L136.91867,396.59876 L136.91867,405.52903 L136.91867,414.45928 L152.32338,414.45928 L167.72806,414.45928 L167.72806,417.36163 L167.72806,420.26395 L149.19778,420.26395 L130.66749,420.26395 L130.66749,394.14294 Z M178.44438,394.14294 L178.44438,368.02193 L196.3049,368.02193 L214.16542,368.02193 L214.16542,370.92427 L214.16542,373.8266 L199.43048,373.8266 L184.69556,373.8266 L184.69556,382.31036 L184.69556,390.79409 L198.98397,390.79409 L213.2724,390.79409 L213.2724,393.69644 L213.2724,396.59876 L198.98397,396.59876 L184.69556,396.59876 L184.69556,405.52903 L184.69556,414.45928 L200.10025,414.45928 L215.50495,414.45928 L215.50495,417.36163 L215.50495,420.26395 L196.97467,420.26395 L178.44438,420.26395 L178.44438,394.14294 Z M226.22126,394.10314 L226.22126,367.94245 L239.50502,368.11644 C251.95567,368.27951 252.94619,368.35268 255.29855,369.28292 C258.43963,370.52507 260.83378,372.81911 262.33939,376.02935 C263.36787,378.22233 263.50366,379.06677 263.49281,383.20328 C263.48151,387.39168 263.3546,388.13278 262.29961,390.15257 C260.88828,392.8545 258.1298,395.45501 255.29925,396.75201 C253.42532,397.61069 252.27951,397.71267 242.85387,397.85977 L232.47245,398.02177 L232.47245,409.14281 L232.47245,420.26386 L229.34685,420.26386 L226.22126,420.26386 L226.22126,394.10314 Z M252.25586,391.06603 C255.54055,389.43447 257.45727,385.37192 256.85071,381.32706 C256.44204,378.60192 255.00342,376.54184 252.54825,375.16604 C250.63573,374.09431 250.19532,374.04397 241.51434,373.90521 L232.47245,373.76065 L232.47245,382.97262 L232.47245,392.18457 L241.51434,392.04747 C249.30649,391.92919 250.79113,391.79361 252.25586,391.06606 L252.25586,391.06603 Z M295.43077,394.14283 L295.43077,368.02186 L308.26802,368.02486 C315.3285,368.02586 322.38357,368.23566 323.94594,368.48917 C331.55033,369.72308 335.32384,374.16512 335.30735,381.86339 C335.30335,384.29532 335.04773,386.25057 334.59911,387.30622 C333.69781,389.42709 330.61443,392.77057 328.90802,393.47738 C328.17744,393.77999 327.59061,394.1539 327.60395,394.30829 C327.61655,394.46266 328.57171,395.1918 329.72489,395.92855 C333.03689,398.04454 333.8073,400.06922 334.27096,407.87588 C334.65423,414.32904 335.23769,416.79107 336.66405,417.97399 C337.07048,418.31103 337.40299,418.96406 337.40299,419.42516 C337.40299,420.1825 337.0189,420.26351 333.42805,420.26351 L329.45312,420.26351 L328.91032,418.81235 C328.61177,418.0142 328.22047,414.14628 328.04075,410.21697 C327.70023,402.77173 327.43146,401.53531 325.77329,399.78633 C323.80498,397.71018 322.48821,397.49133 311.9661,397.49133 L302.12846,397.49133 L302.12846,408.8774 L302.12846,420.26351 L298.77962,420.26351 L295.43077,420.26351 L295.43077,394.14283 Z M323.15735,391.00215 C326.91102,389.67778 328.47273,387.25519 328.47273,382.75675 C328.47273,379.47592 327.71863,377.52408 325.84049,375.94374 C323.65372,374.1037 321.82405,373.83166 311.61686,373.82899 L302.12846,373.82599 L302.12846,382.75623 L302.12846,391.68649 L311.67236,391.68649 C319.10792,391.68649 321.64505,391.53513 323.15735,391.00164 L323.15735,391.00215 Z M347.67279,394.14283 L347.67279,368.02186 L351.02163,368.02186 L354.37048,368.02186 L354.37048,394.14288 L354.37048,420.26389 L351.02163,420.26389 L347.67279,420.26389 L347.67279,394.14283 Z M422.68697,394.14283 L422.68697,368.02186 L425.81256,368.02186 L428.93815,368.02186 L428.93815,379.18469 L428.93815,390.34752 L442.55679,390.34752 L456.17544,390.34752 L456.17544,379.18469 L456.17544,368.02186 L459.30102,368.02186 L462.42662,368.02186 L462.42662,394.14288 L462.42662,420.26389 L459.30102,420.26389 L456.17544,420.26389 L456.17544,408.20804 L456.17544,396.15218 L442.55679,396.15218 L428.93815,396.15218 L428.93815,408.20804 L428.93815,420.26389 L425.81256,420.26389 L422.68697,420.26389 L422.68697,394.14283 Z M486.98483,397.04516 L486.98483,373.82655 L478.50108,373.82655 L470.01734,373.82655 L470.01734,370.92422 L470.01734,368.02188 L490.33367,368.02188 L510.65002,368.02188 L510.65002,370.92422 L510.65002,373.82655 L502.16627,373.82655 L493.68253,373.82655 L493.68253,397.04522 L493.68253,420.26391 L490.33367,420.26391 L486.98483,420.26391 L486.98483,397.04516 Z"/>
  </g>
</svg>
