<svg xmlns="http://www.w3.org/2000/svg" width="900" height="900" viewBox="0 0 900 900">
  <g fill="none">
    <circle cx="450" cy="450" r="450" fill="#AF1E2D"/>
    <circle cx="450" cy="450" r="390" fill="#FFF"/>
    <path fill="#000" d="M129 306.99543L285.4617 249.08793C296.0326 245.35793 305.7885 256.35713 300.8235 266.40713L263.982 341.00283 261.0842 424.14963C260.6917 435.34893 246.8946 440.41053 239.3528 432.12213L129 306.99543zM771 306.99534L614.5383 249.08784C603.9674 245.35784 594.2115 256.35704 599.1765 266.40714L636.018 341.00274 638.9158 424.14954C639.3083 435.34894 653.1054 440.41054 660.6472 432.12214L771 306.99534z"/>
    <path fill="#000" d="M472.0001,582.00019 C472.0001,423.4944 343.5058,295.00013 185,295.00013 L185,366.99988 C303.7415,366.99966 400.0006,463.25869 400.0004,582.00019 L400.0001,725.00013 L472.0001,725.00013 L472.0001,582.00019 Z"/>
    <path fill="#000" d="M428,582.00019 C428,423.4944 556.4943,295.00013 715.0001,295.00013 L715.0001,366.99988 C596.2586,366.99966 499.9995,463.25869 499.9997,582.00019 L500,725.00013 L428,725.00013 L428,582.00019 Z"/>
  </g>
</svg>
