<?xml version="1.0" encoding="UTF-8" standalone="no"?>
<!-- Created with Inkscape (http://www.inkscape.org/) -->

<svg
   xmlns:dc="http://purl.org/dc/elements/1.1/"
   xmlns:cc="http://creativecommons.org/ns#"
   xmlns:rdf="http://www.w3.org/1999/02/22-rdf-syntax-ns#"
   xmlns:svg="http://www.w3.org/2000/svg"
   xmlns="http://www.w3.org/2000/svg"
   xmlns:sodipodi="http://sodipodi.sourceforge.net/DTD/sodipodi-0.dtd"
   xmlns:inkscape="http://www.inkscape.org/namespaces/inkscape"
   id="svg17624"
   version="1.1"
   inkscape:version="0.48.4 r9939"
   width="200.2"
   height="200.2"
   xml:space="preserve"
   sodipodi:docname="AJAX1.svg"><metadata
     id="metadata17630"><rdf:RDF><cc:Work
         rdf:about=""><dc:format>image/svg+xml</dc:format><dc:type
           rdf:resource="http://purl.org/dc/dcmitype/StillImage" /><dc:title></dc:title></cc:Work></rdf:RDF></metadata><defs
     id="defs17628"><inkscape:perspective
       sodipodi:type="inkscape:persp3d"
       inkscape:vp_x="0 : 0.5 : 1"
       inkscape:vp_y="0 : 1000 : 0"
       inkscape:vp_z="1 : 0.5 : 1"
       inkscape:persp3d-origin="0.5 : 0.33333333 : 1"
       id="perspective17632" /><clipPath
       clipPathUnits="userSpaceOnUse"
       id="clipPath17642"><path
         d="m -2,710 501,0 0,-711 -501,0 0,711 z"
         id="path17644"
         inkscape:connector-curvature="0" /></clipPath><clipPath
       clipPathUnits="userSpaceOnUse"
       id="clipPath17648"><path
         d="m 0,708.06 498,0 0,-708 -498,0 0,708 z"
         id="path17650"
         inkscape:connector-curvature="0" /></clipPath><clipPath
       clipPathUnits="userSpaceOnUse"
       id="clipPath17798"><path
         d="m -2,710 501,0 0,-711 -501,0 0,711 z"
         id="path17800"
         inkscape:connector-curvature="0" /></clipPath><clipPath
       clipPathUnits="userSpaceOnUse"
       id="clipPath17804"><path
         d="m 0,708.06 498,0 0,-708 -498,0 0,708 z"
         id="path17806"
         inkscape:connector-curvature="0" /></clipPath><clipPath
       id="Clip0"><path
         inkscape:connector-curvature="0"
         d="m 0,0 212.597,0 0,269.292 L 0,269.292 0,0 z"
         transform="translate(0.923828,0.879883)"
         id="path7" /></clipPath></defs><sodipodi:namedview
     pagecolor="#ffffff"
     bordercolor="#666666"
     borderopacity="1"
     objecttolerance="10"
     gridtolerance="10"
     guidetolerance="10"
     inkscape:pageopacity="0"
     inkscape:pageshadow="2"
     inkscape:window-width="1280"
     inkscape:window-height="1004"
     id="namedview17626"
     showgrid="false"
     inkscape:zoom="2.3322272"
     inkscape:cx="92.132605"
     inkscape:cy="135.13004"
     inkscape:window-x="-8"
     inkscape:window-y="-8"
     inkscape:window-maximized="1"
     inkscape:current-layer="g17634"
     fit-margin-top="0.1"
     fit-margin-left="0.1"
     fit-margin-right="0.1"
     fit-margin-bottom="0.1"
     showguides="true"
     inkscape:guide-bbox="true" /><g
     id="g17634"
     inkscape:groupmode="layer"
     inkscape:label="GG1999P002"
     transform="matrix(1.25,0,0,-1.25,160.49062,77.404677)"><path
       inkscape:connector-curvature="0"
       id="path3787"
       d="m 26.362708,-18.156258 c 0,-41.237761 -33.4383964,-74.6752 -74.6752,-74.6752 -41.237671,0 -74.675208,33.437439 -74.675208,74.6752 0,41.237506 33.437537,74.6752 74.675208,74.6752 41.2368069,0 74.6752,-33.437694 74.6752,-74.6752 z"
       style="fill:#ffffff;fill-opacity:1;fill-rule:nonzero;stroke:none"
       sodipodi:nodetypes="sssss" /><path
       style="fill:#000000;fill-opacity:1;stroke:none"
       d="m -78.314896,50.364484 60.004684,0 -30.002342,-30.002342 z"
       id="rect3833"
       inkscape:connector-curvature="0"
       sodipodi:nodetypes="cccc" /><path
       sodipodi:nodetypes="cccc"
       inkscape:connector-curvature="0"
       id="path3922"
       d="m -78.314896,-86.677 60.004684,0 -30.002342,30.002342 z"
       style="fill:#000000;fill-opacity:1;stroke:none" /><path
       inkscape:connector-curvature="0"
       id="path3938"
       d="m 31.6875,-18.156258 c 0,44.183163 -35.8175848,80 -80,80 -44.183344,0 -80,-35.816837 -80,-80 0,-44.183432 35.816656,-80 80,-80 44.1824112,0 80,35.816568 80,80 z m -13.325,0 c 0,-36.819824 -29.856031,-66.675 -66.675,-66.675 -36.819744,0 -66.675,29.855176 -66.675,66.675 0,36.819596 29.855256,66.675 66.675,66.675 36.818972,0 66.675,-29.855404 66.675,-66.675 z"
       style="fill:#c0111e;fill-opacity:1;fill-rule:nonzero;stroke:none" /><path
       inkscape:connector-curvature="0"
       style="fill:#000000;fill-rule:nonzero;stroke:none"
       d="m 5.004523,-38.15929 0,11.82354 c 0,3.18369 -0.248384,4.754 -0.992608,5.99434 -1.11492,2.06736 -3.307136,3.18369 -5.99424,3.18369 -2.48012,0 -4.175552,-0.82693 -5.663056,-2.77018 -1.1168,1.90195 -2.85364,2.811581 -5.250952,2.811581 -2.02568,0 -3.390872,-0.620221 -4.961168,-2.191361 l 0,1.819241 -4.341152,0 0,-20.670851 4.341152,0 0,11.74084 c 0,1.653951 0.20604,2.60488 0.826064,3.3905 0.662376,0.950931 1.819632,1.571151 2.935504,1.571151 0.992608,0 2.026616,-0.45482 2.605248,-1.281751 0.537232,-0.74422 0.661424,-1.405829 0.661424,-3.555789 l 0,-11.864951 4.548128,0 0,11.864951 c 0,1.901949 0.123264,2.604769 0.620032,3.266389 0.701888,0.99138 1.860088,1.611511 3.017352,1.611511 1.281456,0 2.315464,-0.620131 2.81036,-1.652911 0.290728,-0.62022 0.37352,-1.48844 0.37352,-3.22499 l 0,-11.86495 4.4644,0 z"
       id="path19" /><path
       inkscape:connector-curvature="0"
       style="fill:#000000;fill-rule:evenodd;stroke:none"
       d="m -82.096916,-7.7040296 0,-14.5613604 -11.00189,0 11.00189,14.5613604 z m -0.36025,9.60152 -19.202174,-26.4433294 0,-3.720271 19.562424,0 0,-9.840492 6.20104,0 0,9.840492 3.84061,0 0,6.00072 -3.84061,0 0,24.1628804 -6.56129,0 z"
       id="path21" /><path
       inkscape:connector-curvature="0"
       style="fill:#000000;fill-rule:evenodd;stroke:none"
       d="m -43.294583,1.8974904 c -5.120553,-3.57416 -9.001623,-8.30782 -11.641393,-14.2020494 -2.1877,-4.82738 -3.28107,-9.74762 -3.28107,-14.76158 0,-3.17362 1.49304,-5.960743 4.48104,-8.360879 2.85383,-2.293832 6.02746,-3.440744 9.52068,-3.440744 2.747333,0 5.427473,1.026496 8.041473,3.08132 3.09412,2.400152 4.63996,5.372992 4.63996,8.920623 0,3.599829 -1.359544,6.640229 -4.08042,9.121 -2.61306,2.346609 -5.66721,3.519949 -9.160543,3.519949 -1.52062,0 -2.96042,-0.25356 -4.32119,-0.759829 0.48059,1.89368 1.84042,4.13368 4.08052,6.7202004 1.707113,1.97356 3.453823,3.654129 5.240893,5.041529 l -3.51995,5.12046 z m -1.640123,-34.4445324 c -1.73382,0 -3.32058,0.560664 -4.76123,1.680663 -1.44074,1.12 -2.16014,2.426579 -2.16014,3.92058 0,1.599659 0.63941,3.053189 1.92031,4.359769 1.30648,1.33414 2.9337,2.000271 4.88073,2.000271 2.000183,0 3.746893,-0.666131 5.240893,-2.000271 1.49306,-1.30658 2.24,-2.76011 2.24,-4.359769 0,-1.520631 -0.78741,-2.840941 -2.36034,-3.961031 -1.57302,-1.092444 -3.2407,-1.640212 -5.000223,-1.640212 z"
       id="path23" /><path
       inkscape:connector-curvature="0"
       style="fill:#000000;fill-rule:nonzero;stroke:none"
       d="m -62.217516,-18.14723 c 0,1.560151 -1.30017,2.900691 -2.86032,2.900691 -1.64001,0 -2.96042,-1.27996 -2.96042,-2.88056 0,-1.640011 1.30102,-2.940191 2.92091,-2.940191 1.59966,0 2.89983,1.30018 2.89983,2.92006 z"
       id="path25" /></g></svg>