<?xml version="1.0" encoding="UTF-8" standalone="no"?>
<!-- Created with Inkscape (http://www.inkscape.org/) -->

<svg
   xmlns:dc="http://purl.org/dc/elements/1.1/"
   xmlns:cc="http://creativecommons.org/ns#"
   xmlns:rdf="http://www.w3.org/1999/02/22-rdf-syntax-ns#"
   xmlns:svg="http://www.w3.org/2000/svg"
   xmlns="http://www.w3.org/2000/svg"
   xmlns:sodipodi="http://sodipodi.sourceforge.net/DTD/sodipodi-0.dtd"
   xmlns:inkscape="http://www.inkscape.org/namespaces/inkscape"
   width="599.98352"
   height="600.01678"
   id="svg3783"
   version="1.1"
   inkscape:version="0.92.3 (2405546, 2018-03-11)"
   sodipodi:docname="Indonesia_road_sign_(Mandatory)_4(60).svg">
  <defs
     id="defs3785">
    <clipPath
       clipPathUnits="userSpaceOnUse"
       id="clipPath3681">
      <path
         inkscape:connector-curvature="0"
         d="M 149.91,410.16 H 271.2 V 523.17 H 149.91 Z"
         id="path3683"
         style="clip-rule:evenodd" />
    </clipPath>
    <clipPath
       clipPathUnits="userSpaceOnUse"
       id="clipPath3691">
      <path
         inkscape:connector-curvature="0"
         d="M 0,0 H 162.04 V 161.75 H 0 Z"
         id="path3693" />
    </clipPath>
  </defs>
  <sodipodi:namedview
     id="base"
     pagecolor="#ffffff"
     bordercolor="#666666"
     borderopacity="1.0"
     inkscape:pageopacity="0.0"
     inkscape:pageshadow="2"
     inkscape:zoom="0.85625"
     inkscape:cx="444.28308"
     inkscape:cy="324.65497"
     inkscape:document-units="px"
     inkscape:current-layer="layer1"
     showgrid="true"
     fit-margin-top="0"
     fit-margin-left="0"
     fit-margin-right="0"
     fit-margin-bottom="0"
     inkscape:window-width="1600"
     inkscape:window-height="838"
     inkscape:window-x="-8"
     inkscape:window-y="-8"
     inkscape:window-maximized="1">
    <inkscape:grid
       type="xygrid"
       id="grid20231" />
  </sodipodi:namedview>
  <metadata
     id="metadata3788">
    <rdf:RDF>
      <cc:Work
         rdf:about="">
        <dc:format>image/svg+xml</dc:format>
        <dc:type
           rdf:resource="http://purl.org/dc/dcmitype/StillImage" />
        <dc:title></dc:title>
      </cc:Work>
    </rdf:RDF>
  </metadata>
  <g
     inkscape:label="Layer 1"
     inkscape:groupmode="layer"
     id="layer1"
     transform="translate(-34.067993,25.135534)">
    <ellipse
       style="fill:#ffffff;fill-opacity:1;fill-rule:nonzero;stroke:#000000;stroke-width:0.48227718;stroke-miterlimit:4;stroke-dasharray:none;stroke-opacity:1"
       id="path3791"
       transform="matrix(2.0393343,0,0,2.1082309,-35.910827,-636.47256)"
       cx="181.41733"
       cy="432.27969"
       rx="146.86165"
       ry="142.06224" />
    <ellipse
       transform="matrix(1.9065563,0,0,1.9709672,-11.822597,-577.13626)"
       id="path4561"
       style="fill:#0033cc;fill-opacity:1;fill-rule:nonzero;stroke:none"
       cx="181.41733"
       cy="432.27969"
       rx="146.86165"
       ry="142.06224" />
    <path
       inkscape:connector-curvature="0"
       d="m 137.15334,273.76954 c 0,-19.7157 0.91731,-39.4314 2.77972,-59.16951 1.84851,-19.71569 5.36485,-37.57185 10.53514,-53.56844 5.18417,-15.97419 12.35583,-28.99103 21.52891,-38.98332 9.15917,-10.01468 21.07027,-15.0108 35.69158,-15.0108 4.0862,0 8.06119,0.44808 11.95279,1.34424 3.89161,0.89617 7.8666,1.94917 11.95279,3.13659 0.73663,0.60491 2.12649,1.50108 4.16958,2.68851 2.04308,1.18742 4.16958,2.46446 6.39335,3.80871 2.22378,1.34425 4.16958,2.77813 5.8374,4.2568 1.66783,1.47868 2.50175,2.84534 2.50175,4.03276 v 0.89616 l -11.67481,38.58005 c 0,0.31365 -0.27797,0.44808 -0.83392,0.44808 -1.66783,0 -3.53024,-1.0306 -5.55942,-3.13659 -2.0292,-2.0836 -3.79433,-3.58467 -5.28147,-4.48084 -5.9347,-3.58467 -11.8694,-5.37702 -17.79021,-5.37702 -7.04658,0 -12.92569,2.30764 -17.6512,6.9453 -4.73942,4.61527 -8.53375,10.68681 -11.39685,18.14741 -2.86312,7.4606 -4.9479,16.04142 -6.25437,25.72003 -1.29257,9.72343 -1.9458,19.49165 -1.9458,29.3495 v 8.4912 c 0.9173,-1.18742 1.70953,-2.53169 2.36276,-4.01036 0.65323,-1.47868 1.44545,-2.97975 2.37667,-4.45843 4.44755,-6.25078 9.03408,-10.77643 13.77349,-13.62176 4.73942,-2.84534 10.15987,-4.23439 16.30305,-4.23439 4.98959,0 9.72902,0.67213 14.19046,2.01637 4.44755,1.34425 9.08968,3.49506 13.92639,6.49722 1.29257,2.97976 3.0577,5.37702 5.28146,7.16934 2.22379,1.79235 4.18348,3.87593 5.85131,6.27319 6.30996,9.27534 10.67412,20.76869 13.07858,34.50246 2.40446,13.73378 3.62754,27.17631 3.62754,40.32757 0,13.15127 -1.11189,25.69763 -3.33566,37.63907 -2.22378,11.96383 -5.47605,22.56102 -9.72903,31.81395 -4.28075,9.25295 -9.68732,17.0272 -16.28913,23.30039 -6.57405,6.27316 -14.13488,10.30593 -22.66861,12.09826 h -9.72903 c -12.80059,0 -23.37743,-4.12237 -31.71657,-12.32231 -8.33916,-8.19994 -14.8715,-19.04358 -19.59702,-32.48609 -4.73942,-13.44253 -8.03339,-28.767 -9.8819,-45.95103 -1.86241,-17.18402 -2.77972,-34.74891 -2.77972,-52.67227 z m 36.91465,41.11171 c 0,7.16934 0.45866,14.11464 1.40376,20.8359 0.91733,6.72127 2.50175,12.7704 4.72554,18.14742 2.22376,5.377 5.11467,9.6338 8.64491,12.77039 3.53024,3.13658 7.8805,4.70487 13.09247,4.70487 5.18418,0 9.52053,-1.6355 12.95349,-4.92892 3.43296,-3.27102 6.21267,-7.61742 8.36696,-12.99444 2.12648,-5.377 3.66922,-11.49336 4.58653,-18.37145 0.9312,-6.87809 1.40376,-13.89059 1.40376,-21.05994 0,-7.16934 -0.45866,-14.11465 -1.40376,-20.8359 -0.91731,-6.72127 -2.46005,-12.54636 -4.58653,-17.47528 -2.14039,-4.92894 -4.9201,-8.87207 -8.36696,-11.87423 -3.43296,-2.97977 -7.65812,-4.48084 -12.67551,-4.48084 -4.83671,0 -9.00629,1.56829 -12.53653,4.70488 -3.53024,3.13658 -6.44895,7.25895 -8.77001,12.3223 -2.32107,5.06337 -4.0445,10.97807 -5.15637,17.69933 -1.11189,6.72127 -1.68175,13.66656 -1.68175,20.83591 z"
       id="path20183"
       style="fill:#ffffff;stroke-width:17.64615822" />
    <path
       inkscape:connector-curvature="0"
       d="m 283.50652,355.93998 c -0.32941,-1.53353 -0.83619,-4.34502 -1.52033,-8.36475 -0.67149,-4.01973 -1.17825,-6.64533 -1.50766,-7.90005 0,-0.30206 -0.0887,-0.69706 -0.26606,-1.16177 -0.16471,-0.48795 -0.25339,-0.85971 -0.25339,-1.16177 -1.84973,-13.61597 -3.12934,-26.5581 -3.80082,-38.80318 -0.68415,-12.22184 -1.01355,-25.32663 -1.01355,-39.26789 0,-12.08242 0.17736,-23.63044 0.50677,-34.6208 0.32941,-10.99035 1.34296,-22.39895 3.028,-34.17932 0.34207,-1.85884 0.77283,-4.25208 1.2796,-7.20299 0.50677,-2.95089 1.00089,-5.9018 1.52033,-8.82946 0.49411,-2.92766 1.17826,-6.59886 2.01444,-10.92065 l 0.50676,-0.92942 6.06865,-19.51777 c 1.34296,-2.48619 2.57189,-5.1118 3.67413,-7.90005 1.08956,-2.78825 2.33117,-5.41385 3.67413,-7.90004 3.38273,-5.27444 6.4994,-9.36388 9.36269,-12.31478 2.86328,-2.95091 6.23334,-6.11093 10.12285,-9.54977 l 0.26606,-0.46471 0.25339,-0.48794 c 3.88951,-1.85883 7.38626,-3.09032 10.50293,-3.71767 3.12935,-0.62736 6.6261,-0.929409 10.51561,-0.929409 6.74013,0 13.32822,1.556759 19.75161,4.647079 6.41071,3.09031 12.32733,8.82947 17.71183,17.19422 l 8.61519,15.82333 c 0.83618,1.53354 1.59635,3.55502 2.28049,6.04122 0.67148,2.48619 1.43165,4.48444 2.28049,6.04121 5.23247,16.72951 8.72923,34.38845 10.50291,53.00003 1.77372,18.61158 2.66057,37.50199 2.66057,56.69446 0,16.42745 -0.59546,32.62255 -1.77371,48.58529 -1.19093,15.96275 -3.5474,31.53049 -7.09483,46.70323 -0.34209,1.55678 -1.06423,4.27532 -2.15381,8.1324 -1.10223,3.88032 -1.82439,6.29681 -2.1538,7.20299 -0.17736,0.30206 -0.50676,1.16177 -1.01355,2.5559 -0.50677,1.41736 -1.05155,2.78825 -1.64702,4.20561 -0.59546,1.39412 -1.14025,2.78825 -1.64702,4.18238 -0.50678,1.39412 -0.76017,2.25384 -0.76017,2.55589 0,0.30207 -0.0887,0.69707 -0.26605,1.16178 -0.17737,0.4647 -0.25339,0.85971 -0.25339,1.16177 -6.7528,13.03508 -13.5436,22.23631 -20.38507,27.65017 -6.82881,5.41385 -15.13994,8.1324 -24.93339,8.1324 -8.94461,0 -17.38243,-2.88119 -25.31347,-8.59711 -7.93105,-5.71592 -14.59517,-15.10303 -20.005,-28.11488 -0.1647,0 -0.25339,-0.13941 -0.25339,-0.46471 v -0.92942 c -0.17737,-0.32529 -0.25338,-0.62735 -0.25338,-0.92941 -0.34208,-0.92942 -0.93754,-2.71854 -1.78639,-5.34415 -0.84886,-2.6256 -1.73571,-5.32092 -2.66058,-8.1324 -0.92487,-2.8115 -1.82439,-5.41386 -2.66056,-7.90005 -0.83619,-2.4862 -1.39364,-4.20562 -1.72304,-5.13504 z m 22.7289,-95.63705 c 0,7.76064 0.17737,17.12452 0.50678,28.11488 0.3294,11.0136 1.17826,21.91102 2.53388,32.76196 1.33029,10.85095 3.42074,20.70277 6.19533,29.53225 2.77461,8.82946 6.61344,14.94037 11.5165,18.35599 0.67148,0.62735 1.68503,1.32442 3.04065,2.09119 1.33029,0.76677 2.10313,1.16177 2.2805,1.16177 h 11.37713 c 1.84973,0 3.76281,-0.99913 5.70123,-3.02061 1.93842,-2.02149 3.57277,-3.95002 4.94107,-5.80886 3.8895,-5.87856 6.87948,-13.01184 8.98261,-21.3766 2.11578,-8.36476 3.63612,-17.19422 4.54832,-26.48839 0.93753,-9.29418 1.48231,-18.751 1.65968,-28.34724 0.16471,-9.59623 0.25339,-18.58834 0.25339,-26.9531 0,-9.92153 -0.21538,-21.3766 -0.63347,-34.36521 -0.41809,-13.03508 -1.64702,-25.32662 -3.67413,-36.94434 -2.0271,-11.61772 -5.14377,-21.44631 -9.36269,-29.50901 -4.21891,-8.06269 -10.13552,-12.08242 -17.71182,-12.08242 h -2.53389 c -0.3294,0 -1.05156,0.30206 -2.1538,0.92942 -1.08956,0.62736 -2.33117,1.23148 -3.66145,1.85883 -1.533,0.92942 -3.12935,1.85883 -4.81438,2.78825 -4.56098,6.20387 -8.1591,13.49979 -10.769,21.84131 -2.60989,8.34152 -4.5103,17.26393 -5.70122,26.72075 -1.17826,9.45683 -1.88775,19.21571 -2.14113,29.27665 -0.26606,10.03771 -0.38009,19.8663 -0.38009,29.46253 z"
       id="path20171"
       style="stroke-width:17.15748024;fill:#ffffff" />
    <path
       inkscape:connector-curvature="0"
       d="m 435.03234,121.38305 v 59.44314 l 0.86526,-0.72105 c 0.76431,-1.05273 1.49257,-2.11267 2.16314,-3.17261 0.57684,-0.86525 1.18252,-1.78098 1.80262,-2.73998 0.6201,-0.9662 1.18252,-1.73051 1.65841,-2.30735 0.18747,-0.18747 0.45426,-0.64894 0.79315,-1.36999 0.33168,-0.72105 0.64894,-1.17531 0.93736,-1.36999 l 10.09466,-14.86078 c 0.47589,-1.24742 1.21857,-2.40109 2.23525,-3.46103 1.00947,-1.05994 1.85309,-2.11267 2.52366,-3.17261 h 20.04512 v 0.28842 c 0,0.0937 -0.0505,0.21631 -0.14421,0.36052 -0.0937,0.14421 -0.14421,0.26679 -0.14421,0.36053 l -10.6715,15.43762 c -0.4831,0.28842 -0.77152,0.67057 -0.86526,1.15368 -0.10094,0.4831 -0.38936,0.86525 -0.86525,1.15367 l -9.80625,13.70711 v 0.43263 c 0.57684,1.05994 1.10321,2.06941 1.58631,3.0284 0.47589,0.77152 0.93736,1.61514 1.36999,2.52366 0.43263,0.91573 0.79315,1.61515 1.08157,2.09104 0.0937,0.10095 0.28842,0.38937 0.57684,0.86526 0.28842,0.4831 0.43262,0.77152 0.43262,0.86525 0.28842,0.48311 0.72105,1.25463 1.29789,2.30736 0.57684,1.05272 1.18252,2.19198 1.80262,3.38892 0.62731,1.20415 1.22578,2.35782 1.80262,3.46103 0.57683,1.1032 1.00946,1.85309 1.29788,2.24245 0.38216,0.28842 0.57684,0.76431 0.57684,1.4421 l 10.95992,20.77337 c 0.76431,0.77152 1.15367,1.68004 1.15367,2.73998 h -19.9009 c -0.67058,-1.24741 -1.29789,-2.40109 -1.87472,-3.46103 -0.4759,-0.95899 -0.98784,-1.94682 -1.5142,-2.95629 -0.52637,-1.00947 -0.93737,-1.89636 -1.22578,-2.66788 -0.0937,-0.18747 -0.28842,-0.59847 -0.57684,-1.22578 -0.28842,-0.6201 -0.43263,-0.98783 -0.43263,-1.08157 -0.19468,-0.38215 -0.67778,-1.34836 -1.44209,-2.88419 -0.76432,-1.53583 -1.58631,-3.1726 -2.45157,-4.90312 -0.86525,-1.73051 -1.68004,-3.36729 -2.45156,-4.90312 -0.77152,-1.53583 -1.25462,-2.50203 -1.44209,-2.88419 -0.4831,-1.05273 -0.9662,-2.28572 -1.4421,-3.67734 -0.47589,-1.39162 -1.24741,-2.37946 -2.30735,-2.95629 l -7.83778,10.08745 v 23.50614 h -17.3484 V 121.37584 h 17.68729 z"
       id="path20139"
       style="fill:#ffffff;stroke-width:7.21047306" />
    <path
       inkscape:connector-curvature="0"
       d="m 503.65353,148.81252 0.96658,7.45646 c 0.8285,-0.73874 1.60867,-1.54652 2.34741,-2.42335 0.73874,-0.87682 1.47058,-1.68461 2.21622,-2.42335 1.84341,-1.74674 3.89394,-2.85831 6.15159,-3.31398 2.25765,-0.45568 4.63267,-0.69042 7.12506,-0.69042 3.22423,0 6.1792,0.36592 8.84419,1.10466 2.67881,0.73875 5.11597,2.34741 7.33219,4.8398 0.37283,0.46258 0.75946,1.15299 1.17371,2.07815 0.41424,0.91825 0.85611,1.5189 1.31178,1.79507 1.47058,-1.93316 2.94807,-3.54872 4.42555,-4.83289 1.47058,-1.29798 3.01711,-2.30598 4.62577,-3.04472 1.61557,-0.73875 3.36231,-1.24275 5.25404,-1.51891 1.88483,-0.27617 4.02511,-0.41425 6.42775,-0.41425 4.05273,0 7.48408,0.43496 10.29406,1.31178 2.80998,0.87683 5.59925,2.92045 8.36091,6.14468 0.55233,0.73874 1.03562,1.65699 1.44986,2.76165 0.41425,1.10467 0.89754,1.79508 1.44987,2.07124 0.45568,1.56724 0.94587,3.27256 1.44987,5.10906 0.504,1.8365 0.75945,3.59015 0.75945,5.24714 v 54.81191 h -16.61134 v -47.06547 c 0,-1.93316 -0.15879,-3.8456 -0.48329,-5.73043 -0.31759,-1.88483 -0.86992,-3.61086 -1.65699,-5.1781 -0.78707,-1.56724 -1.88483,-2.83069 -3.31398,-3.79727 -1.42916,-0.96658 -3.24494,-1.44987 -5.45427,-1.44987 -2.29907,0 -4.48768,0.57304 -6.55892,1.72603 -2.07124,1.15299 -3.47969,2.8307 -4.21152,5.03311 -0.27617,0.64209 -0.60066,1.54653 -0.96658,2.69262 -0.37283,1.15299 -0.55233,1.77436 -0.55233,1.86411 v 51.89837 H 528.6603 v -49.2817 c 0,-1.74675 -0.20712,-3.45207 -0.62137,-5.10216 -0.41425,-1.65699 -1.03562,-3.15518 -1.87102,-4.48768 -0.8354,-1.3325 -1.94006,-2.39574 -3.32089,-3.1759 -1.38082,-0.78017 -3.03782,-1.17371 -4.97788,-1.17371 -2.49239,0 -4.90884,0.69042 -7.26314,2.07124 -2.35431,1.38083 -3.80418,3.40374 -4.35651,6.06874 -0.0967,0.46257 -0.18641,1.0149 -0.27617,1.65699 -0.0967,0.64208 -0.20712,1.29107 -0.3452,1.93316 -0.14499,0.64208 -0.30379,1.47058 -0.48329,2.47858 v 48.99863 h -16.93584 v -76.06283 h 15.44454 z"
       id="path20143"
       style="stroke-width:6.90413237;fill:#ffffff" />
  </g>
</svg>
