<?xml version="1.0" encoding="UTF-8" standalone="no"?>
<!-- Generator: Adobe Illustrator 14.0.0, SVG Export Plug-In . SVG Version: 6.00 Build 43363)  -->

<svg
   xmlns:dc="http://purl.org/dc/elements/1.1/"
   xmlns:cc="http://creativecommons.org/ns#"
   xmlns:rdf="http://www.w3.org/1999/02/22-rdf-syntax-ns#"
   xmlns:svg="http://www.w3.org/2000/svg"
   xmlns="http://www.w3.org/2000/svg"
   xmlns:sodipodi="http://sodipodi.sourceforge.net/DTD/sodipodi-0.dtd"
   xmlns:inkscape="http://www.inkscape.org/namespaces/inkscape"
   version="1.1"
   id="Calque_1"
   x="0px"
   y="0px"
   width="450.40009"
   height="450.40002"
   viewBox="0 0 450.40007 450.40003"
   enable-background="new 0 0 79.356 79.25"
   xml:space="preserve"
   inkscape:version="0.92.2 (5c3e80d, 2017-08-06)"
   sodipodi:docname="Philippines_road_sign_R4-3_(40).svg"><metadata
     id="metadata23"><rdf:RDF><cc:Work
         rdf:about=""><dc:format>image/svg+xml</dc:format><dc:type
           rdf:resource="http://purl.org/dc/dcmitype/StillImage" /><dc:title /></cc:Work></rdf:RDF></metadata><defs
     id="defs21" /><sodipodi:namedview
     pagecolor="#ffffff"
     bordercolor="#666666"
     borderopacity="1"
     objecttolerance="10"
     gridtolerance="10"
     guidetolerance="10"
     inkscape:pageopacity="0"
     inkscape:pageshadow="2"
     inkscape:window-width="1366"
     inkscape:window-height="705"
     id="namedview19"
     showgrid="false"
     fit-margin-top="0.2"
     fit-margin-left="0.2"
     fit-margin-right="0.2"
     fit-margin-bottom="0.2"
     inkscape:zoom="0.7444795"
     inkscape:cx="345.7344"
     inkscape:cy="167.9771"
     inkscape:window-x="-4"
     inkscape:window-y="-4"
     inkscape:window-maximized="1"
     inkscape:current-layer="Calque_1"
     showguides="true"
     inkscape:guide-bbox="true" /><g
     id="g859"><path
       sodipodi:nodetypes="sssss"
       inkscape:connector-curvature="0"
       style="fill:#084597;fill-opacity:1;stroke:none"
       d="m 225.20013,450.20002 c 124.26401,0 224.99994,-100.73593 224.99994,-225 C 450.20007,100.93592 349.46415,0.2 225.20013,0.2 100.9359,0.2 0.19998948,100.93592 0.19998948,225.20002 c 0,124.26407 100.73591052,225 225.00014052,225 z"
       id="path2998" /><g
       transform="translate(-2.499998)"
       id="text820"
       style="font-style:normal;font-variant:normal;font-weight:normal;font-stretch:normal;font-size:74.66666412px;line-height:1.25;font-family:ClearviewHwy-1B;-inkscape-font-specification:'ClearviewHwy-1B, Normal';font-variant-ligatures:normal;font-variant-caps:normal;font-variant-numeric:normal;font-feature-settings:normal;text-align:start;letter-spacing:0px;word-spacing:0px;writing-mode:lr-tb;text-anchor:start;fill:#ffffff;fill-opacity:1;stroke:none"
       aria-label="40"><path
         inkscape:connector-curvature="0"
         id="path832"
         style="font-style:normal;font-variant:normal;font-weight:normal;font-stretch:normal;font-size:192px;font-family:ClearviewHwy-2B;-inkscape-font-specification:ClearviewHwy-2B;fill:#ffffff;fill-opacity:1"
         d="m 151.044,131.80402 -39.744,86.016 h 40.32 l 0.192,-86.016 z m 31.68,112.896 v 39.936 H 150.66 v -39.936 H 89.411998 l -6.912,-24.96 L 147.972,92.636017 h 34.752 V 217.82002 h 20.352 v 26.88 z" /><path
         inkscape:connector-curvature="0"
         id="path834"
         style="font-style:normal;font-variant:normal;font-weight:normal;font-stretch:normal;font-size:192px;font-family:ClearviewHwy-2B;-inkscape-font-specification:ClearviewHwy-2B;fill:#ffffff;fill-opacity:1"
         d="m 331.782,188.82802 q 0,-15.552 -1.344,-28.8 -1.152,-13.44 -4.608,-23.232 -3.264,-9.792 -9.024,-15.36 -5.76,-5.568 -14.976,-5.568 -9.216,0 -14.976,5.568 -5.76,5.568 -9.216,15.36 -3.264,9.792 -4.416,23.232 -1.152,13.248 -1.152,28.8 0,15.36 1.152,28.608 1.344,13.248 4.608,23.04 3.264,9.792 9.024,15.36 5.76,5.568 14.976,5.568 9.216,0 14.976,-5.568 5.76,-5.568 9.024,-15.36 3.456,-9.792 4.608,-23.04 1.344,-13.248 1.344,-28.608 z m 32.832,-1.152 q 0,20.544 -3.264,38.784 -3.264,18.048 -10.752,31.872 -7.488,13.632 -19.584,21.696 -11.904,7.872 -29.184,7.872 -17.28,0 -29.184,-7.872 -11.904,-8.064 -19.392,-21.696 -7.296,-13.824 -10.56,-31.872 -3.264,-18.24 -3.264,-38.784 0,-21.12 3.648,-38.976 3.84,-18.048 11.52,-31.104 7.68,-13.248 19.392,-20.544003 11.904,-7.488 27.84,-7.488 16.128,0 27.84,7.488 11.904,7.296003 19.584,20.544003 7.872,13.056 11.52,31.104 3.84,17.856 3.84,38.976 z" /></g><g
       id="text839"
       style="font-style:normal;font-variant:normal;font-weight:normal;font-stretch:normal;font-size:74.66666412px;line-height:1.25;font-family:ClearviewHwy-1B;-inkscape-font-specification:'ClearviewHwy-1B, Normal';font-variant-ligatures:normal;font-variant-caps:normal;font-variant-numeric:normal;font-feature-settings:normal;text-align:start;letter-spacing:0px;word-spacing:0px;writing-mode:lr-tb;text-anchor:start;fill:#ffffff;fill-opacity:1;stroke:none"
       aria-label="min."><path
         id="path841"
         style="font-style:normal;font-variant:normal;font-weight:normal;font-stretch:normal;font-size:48px;font-family:ClearviewHwy-2B;-inkscape-font-specification:ClearviewHwy-2B;fill:#ffffff;fill-opacity:1"
         d="m 206.71999,349.38403 v -22.944 q 0,-2.208 -0.096,-4.128 -0.048,-1.92 -0.528,-3.312 -0.432,-1.392 -1.44,-2.208 -0.96,-0.816 -2.736,-0.816 -1.632,0 -2.736,0.672 -1.056,0.624 -1.728,1.824 -0.672,1.2 -0.96,2.88 -0.288,1.632 -0.288,3.648 v 24.384 h -7.872 v -22.944 q 0,-2.16 -0.096,-4.08 -0.048,-1.92 -0.48,-3.312 -0.432,-1.44 -1.392,-2.256 -0.96,-0.816 -2.736,-0.816 -1.68,0 -2.784,0.672 -1.104,0.624 -1.776,1.824 -0.624,1.2 -0.912,2.88 -0.288,1.632 -0.288,3.648 v 24.384 h -7.872 v -39.216 h 7.248 l 0.336,3.84 h 0.144 q 1.536,-2.448 3.504,-3.504 1.968,-1.104 4.848,-1.104 2.976,0 5.088,1.152 2.112,1.152 3.312,4.176 0.864,-1.632 1.872,-2.64 1.008,-1.056 2.16,-1.632 1.2,-0.624 2.496,-0.816 1.344,-0.24 2.832,-0.24 2.928,0 4.944,0.912 2.064,0.912 3.36,2.832 1.296,1.92 1.872,4.896 0.576,2.976 0.576,7.056 v 24.288 z" /><path
         id="path843"
         style="font-style:normal;font-variant:normal;font-weight:normal;font-stretch:normal;font-size:48px;font-family:ClearviewHwy-2B;-inkscape-font-specification:ClearviewHwy-2B;fill:#ffffff;fill-opacity:1"
         d="m 235.73374,300.18403 q 0,1.968 -1.296,3.168 -1.296,1.2 -3.408,1.2 -2.352,0 -3.648,-1.2 -1.248,-1.2 -1.248,-3.168 0,-2.016 1.248,-3.216 1.296,-1.2 3.648,-1.2 2.16,0 3.408,1.2 1.296,1.2 1.296,3.216 z m -8.736,49.2 v -39.216 h 7.872 v 39.216 z" /><path
         id="path845"
         style="font-style:normal;font-variant:normal;font-weight:normal;font-stretch:normal;font-size:48px;font-family:ClearviewHwy-2B;-inkscape-font-specification:ClearviewHwy-2B;fill:#ffffff;fill-opacity:1"
         d="m 266.20999,349.38403 v -22.32 q 0,-2.256 -0.048,-4.224 0,-2.016 -0.48,-3.504 -0.432,-1.488 -1.488,-2.352 -1.008,-0.864 -3.024,-0.864 -1.824,0 -3.024,0.72 -1.152,0.672 -1.824,1.92 -0.672,1.248 -0.96,2.976 -0.24,1.728 -0.24,3.84 v 23.808 h -7.872 v -39.216 h 7.056 l 0.528,3.84 h 0.096 q 1.44,-2.496 3.6,-3.552 2.208,-1.056 5.136,-1.056 3.216,0 5.232,1.152 2.064,1.104 3.216,3.264 1.152,2.16 1.536,5.376 0.432,3.168 0.432,7.248 v 22.944 z" /><path
         id="path847"
         style="font-style:normal;font-variant:normal;font-weight:normal;font-stretch:normal;font-size:48px;font-family:ClearviewHwy-2B;-inkscape-font-specification:ClearviewHwy-2B;fill:#ffffff;fill-opacity:1"
         d="m 294.01924,345.35203 q 0,2.208 -1.296,3.552 -1.248,1.296 -3.072,1.296 -1.968,0 -3.264,-1.248 -1.296,-1.296 -1.296,-3.6 0,-2.208 1.296,-3.408 1.344,-1.248 3.264,-1.248 1.824,0 3.072,1.248 1.296,1.248 1.296,3.408 z" /></g></g></svg>