<svg xmlns="http://www.w3.org/2000/svg" width="577" height="577" viewBox="0 0 577 577">
  <g fill="none" transform="translate(1 1)">
    <circle cx="287.438" cy="287.438" r="286.969" fill="#FFF" stroke="#000" stroke-linecap="round" stroke-linejoin="round" stroke-width="2"/>
    <circle cx="287.438" cy="287.438" r="273.982" fill="#000064"/>
    <path fill="#FFF" d="M227.035185,117.762997 C140.380164,117.20559 129.374847,170.776882 110.069018,237.41306 C87.5191121,251.841669 77.5863938,250.311784 78.2958171,289.1438 L79.359602,347.339954 C79.66057,363.814204 81.6250313,367.251995 94.0082515,373.863144 L93.476989,412.255861 C93.1682406,434.553618 104.995163,443.595524 119.844807,443.595524 C134.669015,443.595524 146.051904,436.996269 146.212626,412.255861 L146.46322,373.681463 C152.10391,373.501348 179.107245,374.161352 179.107245,374.161352 C190.268544,379.540215 210.33289,388.545625 210.33289,388.545625 L352.059295,388.545625 C355.62831,388.545625 369.850212,381.008102 383.647051,374.107476 C383.647051,374.107476 410.290752,373.388779 416.303605,373.932057 L415.677114,412.255861 C415.272695,436.993485 427.220751,443.595524 442.044933,443.595524 C456.894583,443.595524 468.412751,434.555754 468.412751,412.255861 L468.412751,373.658907 C480.795981,367.047758 483.519058,360.631928 483.716713,344.156119 L484.468501,281.479293 C484.752582,257.792647 474.301725,251.337748 452.917081,237.055953 C427.758999,156.745212 415.173091,117.470249 339.12598,118.036147 C335.385959,118.063977 331.498836,118.434412 327.436883,118.408284 L227.035185,117.762997 Z M286.805078,137.624065 L331.583011,137.624065 C402.720492,137.624065 410.476032,189.442876 421.440843,228.706063 C376.295398,223.394939 332.367888,221.444988 286.554484,222.813272 L286.805078,137.624065 Z M218.458495,137.750616 L275.930421,138.103958 L275.575829,223.529981 C230.174273,221.758099 185.119797,224.486564 140.188276,228.825099 C151.473242,193.362114 166.562016,137.430601 218.458495,137.750616 Z M280.767673,243.081104 L288.111884,243.081303 C310.287385,243.330531 332.095483,257.819174 332.095483,257.819174 L331.386292,333.85282 L230.504699,334.56201 L230.85804,258.173766 C230.85804,258.173766 251.704428,243.922777 275.019502,242.904299 L280.767673,243.081104 Z M147.924204,242.992599 C150.966544,242.992599 153.73989,242.995807 156.005955,242.995165 C166.016621,242.993241 189.632321,243.41366 189.632321,243.41366 C201.069393,246.872332 209.03699,248.93185 216.835884,251.402697 L216.236953,256.270544 C209.154133,253.965038 188.564779,248.044693 188.564779,248.044693 C166.775594,247.193635 139.770513,248.00402 119.671896,247.508414 L119.765867,243.282095 C127.254448,243.022988 138.797193,242.992599 147.924204,242.992599 L147.924204,242.992599 Z M441.880791,242.998962 L441.790573,247.943293 C423.788837,247.927319 373.970249,247.78166 373.970249,247.78166 C368.493649,248.960719 351.906015,254.255381 346.513583,255.839603 L346.125157,251.119609 C351.043242,249.148699 372.482955,243.077948 372.482955,243.077948 C395.270942,243.11721 428.899849,242.996083 441.880791,242.998962 Z M437.799817,262.150889 C451.149189,262.150889 457.83881,270.364089 457.83881,283.713512 C457.83881,297.037512 451.39979,304.08705 438.050417,304.08705 C424.675577,304.08705 415.695905,296.912215 415.695905,283.588215 C415.695905,270.238792 424.424976,262.150889 437.799817,262.150889 Z M125.991952,262.237348 C139.366806,262.237348 146.391805,270.422981 146.391805,283.772405 C146.391805,297.096404 138.899439,304.538128 125.524586,304.538128 C112.175168,304.538128 104.186247,297.096404 104.186247,283.772405 C104.186247,270.422981 112.642535,262.237348 125.991952,262.237348 Z M455.377946,351.982412 L456.12974,360.313506 L106.513045,360.564106 L105.876527,352.310695 L455.377946,351.982412 Z"/>
  </g>
</svg>
