<?xml version="1.0" encoding="UTF-8" standalone="no"?>
<!-- Created with Inkscape (http://www.inkscape.org/) -->

<svg
   xmlns:dc="http://purl.org/dc/elements/1.1/"
   xmlns:cc="http://creativecommons.org/ns#"
   xmlns:rdf="http://www.w3.org/1999/02/22-rdf-syntax-ns#"
   xmlns:svg="http://www.w3.org/2000/svg"
   xmlns="http://www.w3.org/2000/svg"
   xmlns:sodipodi="http://sodipodi.sourceforge.net/DTD/sodipodi-0.dtd"
   xmlns:inkscape="http://www.inkscape.org/namespaces/inkscape"
   width="600"
   height="600"
   id="svg3783"
   version="1.1"
   inkscape:version="0.48.5 r10040"
   sodipodi:docname="New document 3">
  <defs
     id="defs3785">
    <clipPath
       clipPathUnits="userSpaceOnUse"
       id="clipPath3681">
      <path
         inkscape:connector-curvature="0"
         d="m 149.91,410.16 121.29,0 0,113.01 -121.29,0 0,-113.01 z"
         clip-rule="evenodd"
         id="path3683" />
    </clipPath>
    <clipPath
       clipPathUnits="userSpaceOnUse"
       id="clipPath3691">
      <path
         inkscape:connector-curvature="0"
         d="m 0,0 162.04,0 0,161.75 L 0,161.75 0,0 z"
         id="path3693" />
    </clipPath>
  </defs>
  <sodipodi:namedview
     id="base"
     pagecolor="#ffffff"
     bordercolor="#666666"
     borderopacity="1.0"
     inkscape:pageopacity="0.0"
     inkscape:pageshadow="2"
     inkscape:zoom="0.2140625"
     inkscape:cx="180"
     inkscape:cy="231.21595"
     inkscape:document-units="px"
     inkscape:current-layer="layer1"
     showgrid="false"
     fit-margin-top="0"
     fit-margin-left="0"
     fit-margin-right="0"
     fit-margin-bottom="0"
     inkscape:window-width="854"
     inkscape:window-height="453"
     inkscape:window-x="125"
     inkscape:window-y="109"
     inkscape:window-maximized="0" />
  <metadata
     id="metadata3788">
    <rdf:RDF>
      <cc:Work
         rdf:about="">
        <dc:format>image/svg+xml</dc:format>
        <dc:type
           rdf:resource="http://purl.org/dc/dcmitype/StillImage" />
        <dc:title></dc:title>
      </cc:Work>
    </rdf:RDF>
  </metadata>
  <g
     inkscape:label="Layer 1"
     inkscape:groupmode="layer"
     id="layer1"
     transform="translate(-34.059755,25.127158)">
    <path
       sodipodi:type="arc"
       style="fill:#ffffff;fill-opacity:1;fill-rule:nonzero;stroke:#000000;stroke-width:0.48227718;stroke-miterlimit:4;stroke-opacity:1;stroke-dasharray:none"
       id="path3791"
       sodipodi:cx="181.41733"
       sodipodi:cy="432.27969"
       sodipodi:rx="146.86165"
       sodipodi:ry="142.06224"
       d="m 328.27898,432.27969 c 0,78.45881 -65.7522,142.06224 -146.86165,142.06224 -81.10945,0 -146.861651,-63.60343 -146.861651,-142.06224 0,-78.45881 65.752201,-142.06224 146.861651,-142.06224 81.10945,0 146.86165,63.60343 146.86165,142.06224 z"
       transform="matrix(2.0393343,0,0,2.1082309,-35.910827,-636.47256)" />
    <path
       transform="matrix(1.9065563,0,0,1.9709672,-11.822597,-577.13626)"
       d="m 328.27898,432.27969 a 146.86165,142.06224 0 1 1 -293.723301,0 146.86165,142.06224 0 1 1 293.723301,0 z"
       sodipodi:ry="142.06224"
       sodipodi:rx="146.86165"
       sodipodi:cy="432.27969"
       sodipodi:cx="181.41733"
       id="path4561"
       style="fill:#0033cc;fill-opacity:1;fill-rule:nonzero;stroke:none"
       sodipodi:type="arc" />
    <g
       transform="matrix(5.3089314,0,0,-5.4067006,292.86692,2802.8242)"
       id="g3677">
      <g
         id="g4715">
        <path
           inkscape:connector-curvature="0"
           d="m -0.94289849,494.10423 c 1.04419,0.0349 1.84736,0.73346 2.40950999,2.11657 0.36118,1.07575 0.68231,2.19342 1.92746,2.68938 0.96339,0.18162 1.48548,0.6217 1.08425,1.55775 -0.90366,1.95591 -2.34908,3.11548 -4.59766999,3.1574 -3.01171001,-0.27942 -4.65810001,-1.87908 -4.91880001,-4.8339 0.0401,-2.51474 1.40537,-4.07249 4.09525001,-4.6872 z"
           style="fill:#fefefe;fill-opacity:1;fill-rule:evenodd;stroke:none"
           id="path3709" />
        <path
           inkscape:connector-curvature="0"
           d="m 42.079712,458.71619 c 0,5.4088 -4.41286,9.82008 -9.83759,9.82008 -1.66537,0 -3.23236,-0.41913 -4.61665,-1.15818 l 3.55559,-5.38854 c 0.33729,0.12015 0.70269,0.17953 1.06106,0.17953 1.9113,0 3.45721,-1.55635 3.45721,-3.45289 0,-1.89583 -1.54591,-3.43262 -3.45721,-3.43262 -1.90428,0 -3.45019,1.53679 -3.45019,3.43262 0,0.91858 0.35837,1.75683 0.9416,2.35548 l -3.49235,5.42835 c -2.32589,-1.79594 -3.83666,-4.62992 -3.83666,-7.78383 0,-5.38853 4.41989,-9.79911 9.8376,-9.79911 5.42473,0 9.83759,4.41058 9.83759,9.79911 z m -24.61226,20.4777 c -1.08424,1.55635 -2.16778,3.112 -3.23235,4.64879 -0.38156,0.32132 -0.74274,0.51691 -1.02381,-0.0978 -0.76312,-0.8592 -1.48548,-1.09671 -2.12773,0 -0.34151,0.81729 -1.1650505,0.83825 -2.2289205,0.49596 -2.75031,-0.75442 -5.48094,-1.53678 -8.23124999,-2.31216 -0.2614,-0.021 -0.54248,0 -0.80317,0.30037 -0.82285001,0.53787 -1.62602001,1.07575 -2.42919001,1.61363 -1.38569,-2.11658 -2.79106,-4.24992 -4.17605,-6.3651 0.10048,0.37861 9.43636,-1.5773 9.43636,-1.8162 0.82284,-0.19979 1.42504,-0.12015 1.92676,0.0992 1.7272,0.93814 3.4537,1.87627 5.18019,2.83466 2.6898805,1.55635 5.2399305,1.61642 7.7091605,0.59865 z m -2.08767,-7.6043 c -2.36946,-0.0398 -4.75859,-0.0796 -7.1273405,-0.11945 -0.28107,0.0796 -0.56215,-0.0203 -0.84322,-0.27942 -0.30145,-0.49946 -0.62258,-0.99821 -0.94371,-1.49697 -0.12016,-0.27942 -0.0197,-0.45894 0.28108,-0.53927 1.16434,0.0398 2.30902,0.0601 3.4529905,0.0803 1.4658,0 2.08838,-0.57909 1.90779,-1.6765 -0.16091,-1.71701 -0.3415,-3.43332 -0.50242,-5.12938 0.0604,-0.39956 0.28108,-0.41912 0.66263,-0.0398 1.22478,2.7739 2.42919,5.56806 3.65397,8.34196 0.0604,0.33949 0.3415,0.75861 -0.54177,0.85851 z m -12.5682305,-9.93953 -0.20097,1.93635 -1.28451,-2.07606 1.48548,0.13971 z m -11.9056,6.76606 -0.84322,-1.31745 c 3.05176,-2.47423 4.75858,-6.36649 4.49718,-10.27831 0.28108,-0.0398 0.54248,-0.0796 0.82355,-0.11945 0.0801,4.98967 -1.22478,9.02094 -4.47751,11.71521 z m -2.8908495,-4.23106 -2.38913,-3.53251 c 0.64226,-0.7188 1.04419,-1.63668 1.1243,-2.65446 1.42575,-0.21933 2.87117,-0.43938 4.3165995,-0.65872 0.10048,2.535 -1.1046295,5.22927 -3.0517695,6.84569 z m 2.6301495,-9.20047 c -1.4454195,0.21934 -2.9112195,0.45894 -4.3770195,0.67829 -0.74274,-1.4369 -2.24859,-2.43511 -3.97509,-2.43511 -2.46924,0 -4.47681,2.01598 -4.47681,4.47065 0,2.45537 2.00757,4.4511 4.47681,4.4511 0.50172,0 0.98376,-0.0803 1.44542,-0.2396 l 2.40951,3.47244 c -1.14468,0.53927 -2.50999,0.87806 -3.81488,0.87806 -4.79793,0 -8.7133,-3.89156 -8.7133,-8.68145 0,-4.78989 3.91537,-8.70171 8.7133,-8.68215 3.87531,0 7.2482,2.69427 8.3120595,6.08777 z m 54.7862705,3.71204 c 0,-7.20474 -5.90256,-13.07247 -13.12616,-13.07247 -7.23063,0 -13.11141,5.86773 -13.11141,13.07247 0,4.23106 2.05114,8.02343 5.17809,10.39847 -0.66052,0.93744 -0.21783,0.21934 -2.28373,3.21328 -2.97446,-2.35547 -4.54005,-5.26908 -4.76139,-8.96157 -0.0597,-1.27762 -1.2044,-2.41485 -1.30489,-1.8162 -0.6022,3.55278 0.5221,7.225 4.85766,11.09701 -0.0422,1.5766 -0.62117,2.07536 -1.72579,1.49697 -2.77069,-6.2673 -5.54067,-12.55416 -8.29169,-18.84102 -0.24102,-0.57839 -0.74274,-0.87807 -1.5255305,-0.91788 -4.6581,-0.0203 -9.29581999,-0.0601 -13.95322,-0.0999 -0.40193,0.0601 -0.78349,0.11945 -1.18473,0.17952 -1.38499,-5.20901 -6.1836295,-9.06076 -11.8655395,-9.08102 -6.74578,0 -12.2464,5.48843 -12.2464,12.21467 0,6.72554 5.50062,12.21467 12.2464,12.21467 2.02795,0 4.03552,-0.51902 5.82245,-1.4376 l 0.94371,1.31745 c -0.20097,0.12015 -0.40194,0.21934 -0.6022,0.31923 -5.19988,2.55456 -10.11867,2.69427 -14.77677,0.39958 -0.50172,0.2794 -1.00344,0.53857 -1.50586,0.81798 2.22892,1.5766 4.97923,2.61463 8.29169,3.13365 0.0604,0.61891 0.14054,1.25737 0.20097,1.89584 0.18059,0.63846 0.54177,0.87806 1.12429,0.71879 1.36532,-0.33949 2.75031,-0.67898 4.13601,-1.01777 0.24102,7.38497 1.64639,14.2097 7.2875495,19.16235 0.56215,0.39817 1.00414,0.39817 1.30488,0 1.08425,-0.74045 2.16849,-1.48091 3.25273,-2.22136 0.96339,-0.73346 1.22479001,-1.47392 1.40538001,-2.21437 0.72236,-1.57171 1.42504,-3.15041 2.12772999,-4.75007 3.61391,0.53787 7.22782,0.81729 10.8213505,0.81729 1.78693,-0.0978 2.63015,-0.91509 3.35321,-1.8162 2.42919,-3.48921 4.83869,-6.98191 7.27069,-10.47461 3.80855,2.57412 8.62897,3.55208 13.87101,1.29719 0.98376,-0.41912 0.16161,-1.65694 -1.1243,-1.1973 -4.11774,1.4369 -7.9544,1.39708 -11.92457,-1.11766 2.10806,-3.15391 1.46159,-2.19551 2.22751,-3.35299 1.92536,1.07714 4.11774,1.69605 6.46471,1.69605 7.2236,0 13.12616,-5.86773 13.12616,-13.07248 z"
           style="fill:#fefefe;fill-opacity:1;fill-rule:evenodd;stroke:none"
           id="path3711" />
        <path
           inkscape:connector-curvature="0"
           d="m 21.505082,477.59703 c 0.31621,-0.17953 0.59729,-0.19978 0.86431,-0.0398 0.51998,0.89833 0.71674,1.81622 0.73782,2.75435 0.0843,0.91788 -0.0562,1.81271 -0.54107,2.67191 -0.23891,0.36324 -0.60431,0.41913 -1.06106,0.13971 -1.08635,-0.61472 -1.54801,-1.53679 -1.70822,-2.61254 0.0998,-1.47671 0.64225,-2.47423 1.70822,-2.91361 z"
           style="fill:#fefefe;fill-opacity:1;fill-rule:evenodd;stroke:none"
           id="path3713" />
      </g>
    </g>
  </g>
</svg>
