<svg xmlns="http://www.w3.org/2000/svg" width="604" height="554" viewBox="0 0 604 554">
  <g fill="none" fill-rule="evenodd">
    <path fill="#000" fill-rule="nonzero" d="M52,0 L552,0 C580.718807,-5.27555926e-15 604,23.281193 604,52 L604,502 C604,530.718807 580.718807,554 552,554 L52,554 C23.281193,554 3.51703951e-15,530.718807 0,502 L0,52 C-3.51703951e-15,23.281193 23.281193,5.27555926e-15 52,0 Z"/>
    <path fill="#FFF" fill-rule="nonzero" d="M52,2 L552,2 C579.614237,2 602,24.3857625 602,52 L602,502 C602,529.614237 579.614237,552 552,552 L52,552 C24.3857625,552 2,529.614237 2,502 L2,52 C2,24.3857625 24.3857625,2 52,2 Z"/>
    <path fill="#000" d="M343.1463,266.145638 L343.146303,266.145638 C300.661343,266.187371 266.186903,231.78043 266.144903,189.2954 C266.123153,167.17337 275.626263,146.11268 292.227603,131.49143 L279.165603,109.72143 L279.165602,109.721431 C257.259592,130.303111 244.929862,159.088371 245.145602,189.145531 L245.145602,189.285531 L245.145602,189.285504 C245.131391,196.929084 238.942489,203.123944 231.298902,203.145504 L152.810002,203.145504 L152.810001,203.145513 C145.048471,244.929213 104.884081,272.509633 63.1001008,264.748103 C21.3164008,256.986573 -6.2640192,216.822183 1.4975108,175.038203 C9.2590408,133.254503 49.4234308,105.674083 91.2074108,113.435613 C96.8022518,114.474882 102.264541,116.131558 107.494101,118.375247 L122.376801,96.0515474 L122.376802,96.051548 C108.571402,88.263698 92.9933219,84.161838 77.1428019,84.141048 L34.9328019,84.141048 L34.9328023,84.141048 C31.0668073,84.1406238 27.9331453,81.006273 27.9335723,77.140278 C27.9337248,75.750246 28.347721,74.391728 29.1228023,73.237848 L36.9866023,61.530348 L36.9866003,61.5303509 C42.1872153,53.7861109 50.9030203,49.1403509 60.2315003,49.1403509 L143.1745,49.1403509 L143.1745,49.1403509 C145.518674,49.1402318 147.707301,50.3135089 149.0048,52.2658509 L168.1099,81.0155509 L168.109901,81.0155517 C169.407561,82.9676277 171.59616,84.1406247 173.940201,84.1403517 L204.110201,84.1403517 L204.1102,84.1403517 C206.4531,84.1403912 208.64067,82.9683067 209.9384,81.0176517 L229.068,52.2630517 L229.068001,52.2630511 C230.365598,50.3125991 232.552853,49.1405471 234.895501,49.1403511 L283.430001,49.1403511 L270.743201,28.1403511 L246.593201,28.1403511 L246.5932,28.1403511 C238.63875,28.1407433 231.36687,23.6468201 227.8094,16.5322511 L224.679,10.2714511 L224.679,10.2714517 C222.949741,6.81376675 224.350905,2.60890175 227.808588,0.879691748 C228.780769,0.393484348 229.852819,0.140379748 230.9398,0.140379748 L296.2498,0.140379748 L296.249801,0.140379748 C303.630111,0.140379748 310.468481,4.01509675 314.262201,10.3456797 L338.170001,50.2449797 L338.170001,50.2449792 C341.427892,55.6802412 343.148814,61.8980892 343.149101,68.2349792 L343.149101,77.4007792 L343.149101,77.4007954 C343.192231,81.0066704 340.454577,84.0391054 336.863087,84.3636814 L336.863089,84.3636813 C324.826799,85.2249823 313.075199,88.4326553 302.270489,93.8059813 L316.232689,117.076781 L316.232696,117.076779 C356.051286,102.194289 400.395096,122.408952 415.277796,162.227549 C430.160286,202.046139 409.945623,246.389949 370.127026,261.272649 C361.498336,264.497689 352.360816,266.145638 343.149096,266.145638 L343.1463,266.145638 Z M114.8371,157.8458 L103.3025,175.146304 L124.092501,175.146304 L124.092501,175.146304 C122.208689,168.813061 119.060103,162.927594 114.837101,157.8458 L114.8371,157.8458 Z M77.1456,203.1463 L77.1455995,203.1463 C69.4136095,203.147844 63.1443395,196.881083 63.1427995,189.1491 C63.1422472,186.382476 63.9614215,183.677718 65.4968925,181.3763 L91.5473925,142.3016 L91.5473886,142.301599 C65.6804986,134.337979 38.2554086,148.851401 30.2917186,174.718319 C22.3280986,200.585209 36.8415206,228.010299 62.7084386,235.973989 C88.5753286,243.937609 116.000419,229.424187 123.964109,203.557269 C124.006584,203.419304 124.048449,203.281152 124.089704,203.142816 L77.1456,203.1463 Z M144.6396,113.1445 L130.7684,133.9492 L130.7684,133.949202 C142.217672,145.057782 149.921802,159.457272 152.810002,175.146345 L174.171907,175.146345 L174.171907,175.146345 C171.38226,151.802955 161.007077,130.020635 144.639607,113.1445 L144.6396,113.1445 Z M392.145214,189.1456 L392.145214,189.145084 C392.240307,162.178774 370.457152,140.240914 343.490842,140.145268 C339.281644,140.130682 335.088182,140.660134 331.014812,141.720763 L354.852612,181.450663 L354.852612,181.450663 C358.390559,187.091382 357.594792,194.422993 352.929012,199.173263 L352.929012,199.173262 C347.389856,204.572817 338.522312,204.459655 333.122722,198.920503 C332.365119,198.143314 331.700427,197.280704 331.142009,196.350033 L307.013009,156.134333 L307.013012,156.13433 C288.766252,176.10218 290.161492,207.08124 310.129363,225.328 C330.097213,243.57476 361.076273,242.17952 379.323033,222.211649 C387.577013,213.179129 392.151023,201.384199 392.145214,189.148479 L392.145214,189.1456 Z" transform="translate(89 141)"/>
  </g>
</svg>
