<?xml version="1.0" encoding="UTF-8" standalone="no"?>
<!-- Generator: Adobe Illustrator 12.0.1, SVG Export Plug-In . SVG Version: 6.00 Build 51448)  -->

<svg
   xmlns:dc="http://purl.org/dc/elements/1.1/"
   xmlns:cc="http://creativecommons.org/ns#"
   xmlns:rdf="http://www.w3.org/1999/02/22-rdf-syntax-ns#"
   xmlns:svg="http://www.w3.org/2000/svg"
   xmlns="http://www.w3.org/2000/svg"
   xmlns:sodipodi="http://sodipodi.sourceforge.net/DTD/sodipodi-0.dtd"
   xmlns:inkscape="http://www.inkscape.org/namespaces/inkscape"
   version="1.0"
   id="Layer_1"
   width="213.78125"
   height="213.8125"
   viewBox="0 0 213.78124 213.8125"
   style="overflow:visible"
   xml:space="preserve"
   sodipodi:version="0.32"
   inkscape:version="0.48.2 r9819"
   sodipodi:docname="AJAX1.svg"
   inkscape:output_extension="org.inkscape.output.svg.inkscape"><metadata
   id="metadata2461"><rdf:RDF><cc:Work
       rdf:about=""><dc:format>image/svg+xml</dc:format><dc:type
         rdf:resource="http://purl.org/dc/dcmitype/StillImage" /></cc:Work></rdf:RDF></metadata><defs
   id="defs2459"><inkscape:perspective
     sodipodi:type="inkscape:persp3d"
     inkscape:vp_x="0 : 66.555 : 1"
     inkscape:vp_y="0 : 1000 : 0"
     inkscape:vp_z="133.05701 : 66.555 : 1"
     inkscape:persp3d-origin="66.528503 : 44.37 : 1"
     id="perspective2463" /></defs><sodipodi:namedview
   inkscape:window-height="1004"
   inkscape:window-width="1280"
   inkscape:pageshadow="2"
   inkscape:pageopacity="0.0"
   guidetolerance="10.0"
   gridtolerance="10.0"
   objecttolerance="10.0"
   borderopacity="1.0"
   bordercolor="#666666"
   pagecolor="#ffffff"
   id="base"
   showgrid="false"
   inkscape:zoom="1.8706333"
   inkscape:cx="159.79705"
   inkscape:cy="85.032499"
   inkscape:window-x="-8"
   inkscape:window-y="-8"
   inkscape:current-layer="Layer_1"
   fit-margin-top="0"
   fit-margin-left="0"
   fit-margin-right="0"
   fit-margin-bottom="0"
   inkscape:window-maximized="1" />








<path
   inkscape:connector-curvature="0"
   style="fill:#ffffff;fill-rule:nonzero;stroke:#000000;stroke-width:1.20000005;stroke-miterlimit:4;stroke-opacity:1;stroke-dasharray:none"
   d="M 0.58859488,14.775185 C 0.58859488,6.947998 6.9338074,0.60156 14.76097,0.60156 l 184.25265,0 c 7.82749,0 14.1725,6.346438 14.1725,14.173625 l 0,184.251375 c 0,7.82875 -6.34501,14.17375 -14.1725,14.17375 l -184.25265,0 c -7.8271626,0 -14.17237512,-6.345 -14.17237512,-14.17375 l 0,-184.251375 z"
   id="path11" /><path
   inkscape:connector-curvature="0"
   style="fill:#000000;fill-rule:nonzero;stroke:none"
   d="m 4.1310724,14.775123 c 0,-5.870338 4.759525,-10.629863 10.6298996,-10.629863 l 184.252588,0 c 5.87004,0 10.63,4.759525 10.63,10.629863 l 0,184.251387 c 0,5.8725 -4.75997,10.63 -10.63,10.63 l -184.252588,0 c -5.8703746,0 -10.6298996,-4.7575 -10.6298996,-10.63 l 0,-184.251387 z"
   id="path13" /><path
   inkscape:connector-curvature="0"
   style="fill:#ffffff;fill-rule:nonzero;stroke:none"
   d="m 9.4460224,14.775125 c 0,-2.935775 2.3803626,-5.314925 5.3149496,-5.314925 l 184.252558,0 c 2.935,0 5.315,2.37915 5.315,5.314925 l 0,184.251325 c 0,2.93625 -2.38,5.315 -5.315,5.315 l -184.252558,0 c -2.934587,0 -5.3149496,-2.37875 -5.3149496,-5.315 l 0,-184.251325 z"
   id="path15" /><path
   inkscape:connector-curvature="0"
   style="fill:#000000;fill-rule:nonzero;stroke:none"
   d="m 64.190847,40.48438 0,53.149375 8.237375,0 0,-34.334625 20.1965,34.334625 7.12275,0 0,-53.149375 -8.398375,0 0,34.599625 -20.1965,-34.599625 -6.96175,0 z"
   id="path17" /><path
   inkscape:connector-curvature="0"
   style="fill:#000000;fill-rule:evenodd;stroke:none"
   d="m 130.99871,94.643255 c 6.83878,0 11.79876,-2.940625 14.88125,-8.822 2.41,-4.606875 3.61502,-10.877625 3.61502,-18.815875 0,-8.04325 -1.5775,-14.580125 -4.73001,-19.611875 -3.33125,-5.314875 -7.92,-7.972375 -13.76625,-7.972375 -12.47311,0 -18.70848,9.195625 -18.70848,27.58425 0,9.389625 1.73587,16.441625 5.20874,21.1535 3.18851,4.32375 7.68851,6.484375 13.49974,6.484375 z m 0,-8.397125 c -6.9445,0 -10.4175,-6.413625 -10.4175,-19.24075 0,-6.69675 0.88501,-11.568625 2.6575,-14.6155 1.66501,-2.90525 4.25125,-4.357875 7.76,-4.357875 6.59004,0 9.885,6.32325 9.885,18.973375 0,6.732125 -0.81375,11.65775 -2.445,14.776625 -1.59375,2.976 -4.07498,4.464125 -7.44,4.464125 z"
   id="path19" /><path
   inkscape:connector-curvature="0"
   style="fill:#000000;fill-rule:nonzero;stroke:none"
   d="m 39.564472,120.20851 0,53.149 32.420625,0 0,-8.29 -24.182125,0 0,-14.98875 15.51875,0 0,-8.2925 -15.51875,0 0,-13.07376 22.21675,0 0,-8.50399 -30.45525,0 z"
   id="path21" /><path
   inkscape:connector-curvature="0"
   style="fill:#000000;fill-rule:nonzero;stroke:none"
   d="m 91.810472,146.03876 -13.02125,27.31875 9.194375,0 8.29225,-17.645 9.194393,17.645 8.87575,0 -13.23376,-27.31875 12.33038,-25.83025 -9.1955,0 -7.971263,15.78649 -7.441375,-15.78649 -9.567875,0 12.543875,25.83025 z"
   id="path23" /><path
   inkscape:connector-curvature="0"
   style="fill:#000000;fill-rule:nonzero;stroke:none"
   d="m 123.8601,173.35751 8.34361,0 0,-53.149 -8.34361,0 0,53.149 z"
   id="path25" /><path
   inkscape:connector-curvature="0"
   style="fill:#000000;fill-rule:nonzero;stroke:none"
   d="m 141.71746,120.20851 0,7.81274 12.225,0 0,45.33626 8.025,0 0,-45.33626 12.17126,0 0,-7.81274 -32.42125,0 z"
   id="path27" /></svg>