<?xml version="1.0" encoding="UTF-8" standalone="no"?>
<!-- Generator: Adobe Illustrator 14.0.0, SVG Export Plug-In  -->

<svg
   xmlns:dc="http://purl.org/dc/elements/1.1/"
   xmlns:cc="http://creativecommons.org/ns#"
   xmlns:rdf="http://www.w3.org/1999/02/22-rdf-syntax-ns#"
   xmlns:svg="http://www.w3.org/2000/svg"
   xmlns="http://www.w3.org/2000/svg"
   xmlns:sodipodi="http://sodipodi.sourceforge.net/DTD/sodipodi-0.dtd"
   xmlns:inkscape="http://www.inkscape.org/namespaces/inkscape"
   version="1.1"
   x="0px"
   y="0px"
   width="86.187477"
   height="128.93747"
   viewBox="0 -0.321 86.187481 128.9375"
   enable-background="new 0 -0.321 144 120"
   xml:space="preserve"
   id="svg2"
   inkscape:version="0.48.2 r9819"
   sodipodi:docname="AJAX1.svg"><metadata
   id="metadata44"><rdf:RDF><cc:Work
       rdf:about=""><dc:format>image/svg+xml</dc:format><dc:type
         rdf:resource="http://purl.org/dc/dcmitype/StillImage" /><dc:title /></cc:Work></rdf:RDF></metadata><sodipodi:namedview
   pagecolor="#ffffff"
   bordercolor="#666666"
   borderopacity="1"
   objecttolerance="10"
   gridtolerance="10"
   guidetolerance="10"
   inkscape:pageopacity="0"
   inkscape:pageshadow="2"
   inkscape:window-width="1280"
   inkscape:window-height="1004"
   id="namedview42"
   showgrid="false"
   fit-margin-top="0"
   fit-margin-left="0"
   fit-margin-right="0"
   fit-margin-bottom="0"
   inkscape:zoom="2.6802662"
   inkscape:cx="97.534236"
   inkscape:cy="70.325216"
   inkscape:window-x="-8"
   inkscape:window-y="-8"
   inkscape:window-maximized="1"
   inkscape:current-layer="svg2" />
<defs
   id="defs4">
</defs>


















<path
   inkscape:connector-curvature="0"
   d="m 11.026852,0.0332 64.125016,0 c 5.88625,0 10.6875,4.80125 10.6875,10.6875 l 0,106.87503 c 0,5.88625 -4.80125,10.68625 -10.6875,10.68625 l -64.125016,0 c -5.8862524,0 -10.68750331,-4.8 -10.68750331,-10.68625 l 0,-106.87503 c 0,-5.8125 4.87375091,-10.6875 10.68750331,-10.6875"
   style="fill:#ffffff;stroke:#000000;stroke-width:0.70000017;stroke-linecap:butt;stroke-linejoin:miter;stroke-miterlimit:4;stroke-opacity:1;stroke-dasharray:none"
   id="path3219" /><path
   inkscape:connector-curvature="0"
   d="m 11.060477,2.7047 64.056261,0 c 4.415,0.0175 8.0225,3.6425 8.05125,8.05 l 0,106.80628 c -0.0288,4.41 -3.63625,8.0275 -8.05125,8.05 l -64.056261,0 c -4.4037514,-0.0225 -8.0337524,-3.64 -8.0487524,-8.05 l 0,-106.80628 c 0.015,-4.4075 3.645001,-8.0325 8.0487524,-8.05"
   style="fill:#bf2519;fill-opacity:1;fill-rule:evenodd;stroke:none"
   id="path3231" /><path
   inkscape:connector-curvature="0"
   d="m 11.100102,5.82558 63.977516,0 c 2.75,0.0162 4.95375,2.2175 4.96875,4.96875 l 0,106.72753 c -0.015,2.7375 -2.21875,4.97 -4.96875,4.9675 l -63.977516,0 c -2.7487514,0.002 -4.9537514,-2.23 -4.9687514,-4.9675 l 0,-106.72753 c 0.015,-2.75125 2.22,-4.9525 4.9687514,-4.96875"
   style="fill:#ffffff;fill-opacity:1;fill-rule:evenodd;stroke:none"
   id="path3235" /><path
   inkscape:connector-curvature="0"
   d="m 70.626488,113.0986 -44.635008,0 0.891251,3.3625 c 0.02125,0.0225 0.0425,0.0363 0.04875,0.065 0.02125,0.0425 0.03625,0.0863 0.05125,0.135 -0.0225,0.1925 -0.065,0.37125 -0.18625,0.5275 -0.2125,0.2925 -0.505001,0.37875 -0.855001,0.3625 -0.11375,-0.006 -0.24875,-0.0337 -0.34125,-0.1 l -10.196252,-7.025 10.196252,-6.9325 c 0.14125,-0.0987 0.24125,-0.1475 0.42,-0.185 0.29875,-0.0625 0.626251,0.17125 0.797501,0.41375 0.1,0.1425 0.15,0.2925 0.165,0.47 -0.015,0.0575 -0.015,0.12125 -0.04375,0.1775 -0.01375,0.0437 -0.035,0.08 -0.05625,0.115 l -0.891251,3.27 44.635008,0 0,5.34375 z"
   style="fill:#bf2519;fill-opacity:1;fill-rule:evenodd;stroke:none"
   id="path3239" /><path
   inkscape:connector-curvature="0"
   d="m 53.600738,71.97671 -2.30625,-5.1675 -2.13625,0 3.4375,7.795 0,6.45501 2.00875,0 0,-6.45501 3.43875,-7.795 -2.13625,0 -2.30625,5.1675 z"
   style="fill:#bf2519;fill-opacity:1;fill-rule:evenodd;stroke:none"
   id="path3243" /><path
   inkscape:connector-curvature="0"
   d="m 40.956618,71.50796 4.27125,9.55126 1.51625,0 0,-14.25001 -2.00875,0 0,8.52125 -3.77875,-8.52125 -2.00876,0 0,14.25001 2.00876,0 0,-9.55126 z"
   style="fill:#bf2519;fill-opacity:1;fill-rule:evenodd;stroke:none"
   id="path3247" /><path
   inkscape:connector-curvature="0"
   d="m 61.259988,87.52423 0,-1.98625 -6.5575,0 0,14.25 7.1125,0 0,-1.99 -5.105,0 0,-4.69875 2.88375,0 0,-1.985 -2.88375,0 0,-3.59 4.55,0 z"
   style="fill:#bf2519;fill-opacity:1;fill-rule:evenodd;stroke:none"
   id="path3251" /><path
   inkscape:connector-curvature="0"
   d="m 50.531868,85.5376 -2.00875,0 -2.605,8.01 -2.60625,-8.01 -2.0075,0 0,14.25 2.0075,0 0,-8.0125 2.60625,8.0125 2.605,-8.0125 0,8.0125 2.00875,0 0,-14.25 z"
   style="fill:#bf2519;fill-opacity:1;fill-rule:evenodd;stroke:none"
   id="path3255" /><path
   inkscape:connector-curvature="0"
   d="m 37.132483,85.53735 -2.006251,0 0,14.25 2.006251,0 0,-14.25 z"
   style="fill:#bf2519;fill-opacity:1;fill-rule:evenodd;stroke:none"
   id="path3257" /><path
   inkscape:connector-curvature="0"
   d="m 31.551732,87.43922 0,-1.90125 -7.112502,0 0,1.90125 2.585001,0 0,12.34875 2.00625,0 0,-12.34875 2.521251,0 z"
   style="fill:#bf2519;fill-opacity:1;fill-rule:evenodd;stroke:none"
   id="path3261" /><path
   inkscape:connector-curvature="0"
   d="m 77.957988,44.85259 c -0.28875,-2.69125 -1.73,-4.19625 -4.06875,-4.19625 -2.02,0 -3.26875,0.89625 -3.97375,2.81875 -0.73625,1.98625 -0.96125,3.87625 -0.96125,8.20125 0,4.3575 0.225,6.24875 0.8975,8.23375 0.705,1.98625 1.9225,2.825 4.0375,2.825 1.89,0 3.33125,-0.93375 3.74875,-2.44 0.19125,-0.6725 0.32,-1.79375 0.32,-2.7875 l 0,-5.47875 -3.87625,0 0,2.78875 1.21625,0 0,2.81875 c 0,1.47375 -0.54375,2.30625 -1.50625,2.30625 -0.9275,0 -1.4725,-0.705 -1.69625,-2.115 -0.28875,-1.79375 -0.385,-3.235 -0.385,-6.15125 0,-2.9475 0.0962,-4.38875 0.41625,-6.11875 0.25625,-1.40875 0.865,-2.115 1.82625,-2.115 0.7375,0 1.2175,0.5125 1.345,1.41 l 2.66,0 z"
   style="fill:#bf2519;fill-opacity:1;fill-rule:evenodd;stroke:none"
   id="path3265" /><path
   inkscape:connector-curvature="0"
   d="m 66.534108,41.00734 -2.65875,0 0,10.66875 -3.685,-10.66875 -2.65875,0 0,21.375 2.65875,0 0,-12.6925 4.10125,12.6925 2.2425,0 0,-21.375 z"
   style="fill:#bf2519;fill-opacity:1;fill-rule:evenodd;stroke:none"
   id="path3269" /><path
   inkscape:connector-curvature="0"
   d="m 55.111238,41.00734 -2.65875,0 0,21.375 2.65875,0 0,-21.375 z"
   style="fill:#bf2519;fill-opacity:1;fill-rule:evenodd;stroke:none"
   id="path3271" /><path
   inkscape:connector-curvature="0"
   d="m 47.020488,48.37671 3.46125,-7.37 -3.04625,0 -3.29875,6.82625 0,-6.82625 -2.66,0 0,21.37625 2.66,0 0,-8.015 0.99375,-2.11375 2.8175,10.12875 2.88375,0 -3.81125,-14.00625 z"
   style="fill:#bf2519;fill-opacity:1;fill-rule:evenodd;stroke:none"
   id="path3275" /><path
   inkscape:connector-curvature="0"
   d="m 31.758107,20.2902 6.408751,14.32626 2.275,0 0,-21.37501 -3.0125,0 0,12.7825 -5.671251,-12.7825 -3.010001,0 0,21.37501 3.010001,0 0,-14.32626 z"
   style="fill:#bf2519;fill-opacity:1;fill-rule:evenodd;stroke:none"
   id="path3279" /><path
   inkscape:connector-curvature="0"
   d="m 51.142238,15.86883 c -1.28125,0 -2.11375,0.80125 -2.62875,2.595 -0.47875,1.66625 -0.64,3.07625 -0.64,5.47875 0,2.33875 0.16125,3.71625 0.64,5.3825 0.515,1.82625 1.31625,2.65875 2.62875,2.65875 1.25,0 2.0825,-0.8325 2.595,-2.62625 0.48,-1.69875 0.64,-3.0125 0.64,-5.44625 0,-2.40375 -0.16,-3.81375 -0.64,-5.38375 -0.545,-1.8575 -1.345,-2.65875 -2.595,-2.65875 m 0,-2.98 c 2.435,0 3.87625,1.0575 4.965,3.6525 0.865,2.0825 1.185,4.10125 1.185,7.37 0,3.29875 -0.32,5.34875 -1.185,7.43125 -1.0575,2.53126 -2.5625,3.62626 -4.965,3.62626 -2.4675,0 -3.94125,-1.095 -4.99875,-3.65751 -0.865,-2.0825 -1.185,-4.1325 -1.185,-7.4 0,-3.26875 0.3525,-5.4475 1.2175,-7.46625 1.09,-2.49875 2.56375,-3.55625 4.96625,-3.55625"
   style="fill:#bf2519;fill-opacity:1;fill-rule:evenodd;stroke:none"
   id="path3283" /><path
   inkscape:connector-curvature="0"
   d="m 32.713857,49.59397 1.73,0 c 1.440001,0 1.891251,-0.64 1.891251,-2.66 0,-2.43375 -0.51375,-3.13875 -2.308751,-3.13875 l -1.3125,0 0,5.79875 z m 4.165001,2.115 2.11375,10.67375 -2.72375,0 -2.337501,-10.00125 -1.2175,0 0,10.00125 -2.660001,0 0,-21.375 4.068751,0 c 3.267501,0 4.935001,2.01875 4.935001,5.95875 0,2.435 -0.61125,3.74875 -2.17875,4.7425"
   style="fill:#bf2519;fill-opacity:1;fill-rule:evenodd;stroke:none"
   id="path3287" /><path
   inkscape:connector-curvature="0"
   d="m 23.91623,53.91947 -1.1525,-5.63875 -1.153751,5.63875 2.306251,0 z m 0.5775,2.7875 -3.460001,0 -1.1525,5.67625 -2.787501,0 4.292501,-21.37625 2.755001,0 4.293751,21.37625 -2.788751,0 -1.1525,-5.67625 z"
   style="fill:#bf2519;fill-opacity:1;fill-rule:evenodd;stroke:none"
   id="path3291" /><path
   inkscape:connector-curvature="0"
   d="m 11.051227,50.26722 1.41,0 c 1.635,0 2.210001,-0.80125 2.210001,-3.04375 0,-2.37125 -0.705001,-3.4275 -2.210001,-3.4275 l -1.41,0 0,6.47125 z m 0,2.7875 0,9.3275 -2.6575014,0 0,-21.375 4.0675014,0 c 1.2175,0 2.275001,0.32125 2.947501,0.86625 1.2175,0.9925 1.9875,3.04375 1.9875,5.3175 0,3.52375 -1.9875,5.86375 -4.935001,5.86375 l -1.41,0 z"
   style="fill:#bf2519;fill-opacity:1;fill-rule:evenodd;stroke:none"
   id="path3295" /><path
   inkscape:connector-curvature="0"
   d="m 33.074607,75.15972 -1.00375,-4.1225 -1.00375,4.1225 2.0075,0 z m 0.49,1.98625 -2.968751,0 -0.96,3.91376 -2.00875,0 3.481251,-14.25126 1.94375,0 3.481251,14.25126 -2.006251,0 -0.9625,-3.91376 z"
   style="fill:#bf2519;fill-opacity:1;fill-rule:evenodd;stroke:none"
   id="path3299" /></svg>