<?xml version="1.0" encoding="UTF-8" standalone="no"?>
<!-- Generator: Adobe Illustrator 14.0.0, SVG Export Plug-In  -->

<svg
   xmlns:dc="http://purl.org/dc/elements/1.1/"
   xmlns:cc="http://creativecommons.org/ns#"
   xmlns:rdf="http://www.w3.org/1999/02/22-rdf-syntax-ns#"
   xmlns:svg="http://www.w3.org/2000/svg"
   xmlns="http://www.w3.org/2000/svg"
   xmlns:sodipodi="http://sodipodi.sourceforge.net/DTD/sodipodi-0.dtd"
   xmlns:inkscape="http://www.inkscape.org/namespaces/inkscape"
   version="1.1"
   x="0px"
   y="0px"
   width="86.218727"
   height="128.93747"
   viewBox="0 -0.321 86.218731 128.9375"
   enable-background="new 0 -0.321 144 120"
   xml:space="preserve"
   id="svg2"
   inkscape:version="0.48.2 r9819"
   sodipodi:docname="MUTCD R7-5.svg"><metadata
   id="metadata44"><rdf:RDF><cc:Work
       rdf:about=""><dc:format>image/svg+xml</dc:format><dc:type
         rdf:resource="http://purl.org/dc/dcmitype/StillImage" /><dc:title></dc:title></cc:Work></rdf:RDF></metadata><sodipodi:namedview
   pagecolor="#ffffff"
   bordercolor="#666666"
   borderopacity="1"
   objecttolerance="10"
   gridtolerance="10"
   guidetolerance="10"
   inkscape:pageopacity="0"
   inkscape:pageshadow="2"
   inkscape:window-width="1280"
   inkscape:window-height="1004"
   id="namedview42"
   showgrid="false"
   fit-margin-top="0"
   fit-margin-left="0"
   fit-margin-right="0"
   fit-margin-bottom="0"
   inkscape:zoom="3.7904688"
   inkscape:cx="29.000333"
   inkscape:cy="74.843774"
   inkscape:window-x="-8"
   inkscape:window-y="-8"
   inkscape:window-maximized="1"
   inkscape:current-layer="svg2" />
<defs
   id="defs4">
</defs>


















<path
   inkscape:connector-curvature="0"
   d="m 11.046506,0.03044 64.12501,0 c 5.88625,0 10.68751,4.80125 10.68751,10.6875 l 0,106.87503 c 0,5.88625 -4.80126,10.68625 -10.68751,10.68625 l -64.12501,0 c -5.8862524,0 -10.68750208,-4.8 -10.68750208,-10.68625 l 0,-106.87503 c 0,-5.8125 4.87499968,-10.6875 10.68750208,-10.6875"
   style="fill:#ffffff;fill-opacity:1;fill-rule:nonzero;stroke:#000000;stroke-width:0.70000017;stroke-linecap:butt;stroke-linejoin:miter;stroke-miterlimit:4;stroke-opacity:1;stroke-dasharray:none"
   id="path3081" /><path
   d="m 11.089682,2.6941002 64.056265,0 c 4.415001,0.0175 8.022502,3.6425009 8.050002,8.0487518 l 0,106.807528 c -0.0275,4.41 -3.635001,8.02625 -8.050002,8.05 l -64.056265,0 c -4.4050012,-0.0238 -8.035002,-3.64 -8.050002,-8.05 l 0,-106.807528 c 0.015,-4.4062509 3.6450008,-8.0312518 8.050002,-8.0487518"
   style="fill:#bf2519;fill-opacity:1;fill-rule:evenodd;stroke:none"
   id="path3565"
   inkscape:connector-curvature="0" /><path
   d="m 11.129682,5.8141009 63.976265,0 c 2.751251,0.01625 4.952501,2.2187505 4.968751,4.9700011 l 0,106.726278 c -0.01625,2.7375 -2.2175,4.97 -4.968751,4.96875 l -63.976265,0 c -2.7487507,0.001 -4.9550013,-2.23125 -4.9700013,-4.96875 l 0,-106.726278 C 6.1734307,8.0328514 8.3809313,5.8316009 11.129682,5.8141009"
   style="fill:#ffffff;fill-opacity:1;fill-rule:evenodd;stroke:none"
   id="path3569"
   inkscape:connector-curvature="0" /><path
   d="m 31.828436,20.402723 6.407502,14.326254 2.275,0 0,-21.375005 -3.0125,0 0,12.783753 -5.670002,-12.783753 -3.0125,0 0,21.375005 3.0125,0 0,-14.326254 z"
   style="fill:#bf2519;fill-opacity:1;fill-rule:evenodd;stroke:none"
   id="path3573"
   inkscape:connector-curvature="0" /><path
   d="m 77.988446,44.809106 c -0.28625,-2.692501 -1.73,-4.197501 -4.067501,-4.197501 -2.01875,0 -3.267501,0.89625 -3.973751,2.81875 -0.73625,1.987501 -0.96,3.877501 -0.96,8.202502 0,4.357501 0.22375,6.247502 0.89625,8.233752 0.70375,1.986251 1.922501,2.825001 4.037501,2.825001 1.890001,0 3.330001,-0.935 3.747501,-2.441251 0.19375,-0.6725 0.32,-1.79375 0.32,-2.78625 l 0,-5.478752 -3.876251,0 0,2.786251 1.217501,0 0,2.820001 c 0,1.47375 -0.543751,2.30625 -1.506251,2.30625 -0.9275,0 -1.47375,-0.70375 -1.6975,-2.11375 -0.2875,-1.793751 -0.38375,-3.236251 -0.38375,-6.151252 0,-2.947501 0.09625,-4.388751 0.41625,-6.118751 0.25625,-1.411251 0.86375,-2.116251 1.82625,-2.116251 0.73625,0 1.217501,0.51375 1.345001,1.411251 l 2.65875,0 z"
   style="fill:#bf2519;fill-opacity:1;fill-rule:evenodd;stroke:none"
   id="path3577"
   inkscape:connector-curvature="0" /><path
   d="m 66.443444,40.964104 -2.6575,0 0,10.668752 -3.685001,-10.668752 -2.660001,0 0,21.375005 2.660001,0 0,-12.693753 4.100001,12.693753 2.2425,0 0,-21.375005 z"
   style="fill:#bf2519;fill-opacity:1;fill-rule:evenodd;stroke:none"
   id="path3581"
   inkscape:connector-curvature="0" /><path
   d="m 54.896944,40.963977 -2.657501,0 0,21.375005 2.657501,0 0,-21.375005 z"
   style="fill:#bf2519;fill-opacity:1;fill-rule:evenodd;stroke:none"
   id="path3583"
   inkscape:connector-curvature="0" /><path
   d="m 46.684689,48.332855 3.461251,-7.368751 -3.045001,0 -3.301251,6.823751 0,-6.823751 -2.65625,0 0,21.375005 2.65625,0 0,-8.015002 0.995,-2.115001 2.818751,10.130003 2.885001,0 -3.813751,-14.006254 z"
   style="fill:#bf2519;fill-opacity:1;fill-rule:evenodd;stroke:none"
   id="path3587"
   inkscape:connector-curvature="0" /><path
   d="m 73.873445,76.810362 -3.545001,0 0,1.987501 1.537501,0 0,0.98125 c 0,1.47625 -0.49125,2.1575 -1.516251,2.1575 -1.06875,0 -1.77375,-0.7475 -2.03,-2.1125 -0.1925,-1.09125 -0.3,-2.350001 -0.3,-3.567501 0,-1.71 0.23625,-3.312501 0.59875,-4.016251 0.36375,-0.6625 0.91875,-1.025 1.6025,-1.025 0.940001,0 1.600001,0.64125 1.645001,1.58 l 2.0075,0 c -0.085,-2.09375 -1.60125,-3.566251 -3.631251,-3.566251 -1.58,0 -3.01125,1.067501 -3.525,2.583751 -0.447501,1.34625 -0.640001,2.820001 -0.640001,4.783751 0,1.88 0.29875,3.887501 0.747501,4.913751 0.70375,1.622501 1.90125,2.437501 3.58875,2.437501 1.387501,0 2.518751,-0.72875 3.075001,-1.967501 0.27625,-0.64125 0.385,-1.2175 0.385,-2.20125 l 0,-2.968751 z"
   style="fill:#bf2519;fill-opacity:1;fill-rule:evenodd;stroke:none"
   id="path3591"
   inkscape:connector-curvature="0" /><path
   d="m 58.008442,74.161611 4.272502,9.551253 1.51625,0 0,-14.250004 -2.008751,0 0,8.523752 -3.780001,-8.523752 -2.00875,0 0,14.250004 2.00875,0 0,-9.551253 z"
   style="fill:#bf2519;fill-opacity:1;fill-rule:evenodd;stroke:none"
   id="path3595"
   inkscape:connector-curvature="0" /><path
   d="m 53.719443,69.462733 -2.00875,0 0,14.250004 2.00875,0 0,-14.250004 z"
   style="fill:#bf2519;fill-opacity:1;fill-rule:evenodd;stroke:none"
   id="path3597"
   inkscape:connector-curvature="0" /><path
   inkscape:connector-curvature="0"
   style="fill:#bf2519;fill-opacity:1;fill-rule:evenodd;stroke:none"
   d="m 41.625001,69.452423 0,14.250004 3.40625,0 0.468751,0 c 0.7475,0 1.4225,-0.21875 1.9375,-0.625 1.345,-1.132501 2,-3.211251 2,-6.500002 0,-1.11125 -0.12125,-2.347501 -0.3125,-3.437501 -0.27875,-1.43125 -0.865,-2.55875 -1.65625,-3.156251 -0.51125,-0.40625 -1.10625,-0.53125 -2.281251,-0.53125 l -3.5625,0 z m 2.03125,2.000001 1.65625,0 c 0.876251,0 1.418751,0.43375 1.781251,1.4375 0.23625,0.61875 0.40625,2.177501 0.40625,3.781251 0,1.10875 -0.07125,2.103751 -0.21875,3.000001 -0.0875,0.5775 -0.33625,1.135 -0.71875,1.5625 -0.32,0.3625 -0.6525,0.5 -1.250001,0.5 l -1.65625,0 0,-10.281252 z"
   id="path3601" /><path
   inkscape:connector-curvature="0"
   style="fill:#bf2519;fill-opacity:1;fill-rule:evenodd;stroke:none"
   d="m 34.531249,69.452423 -3.500001,14.250004 2.031251,0 0.9375,-3.906251 2.968751,0 0.96875,3.906251 2,0 -3.468751,-14.250004 -1.9375,0 z m 0.96875,4.250001 1,4.125001 -2.03125,0 1.03125,-4.125001 z"
   id="path3605" /><path
   inkscape:connector-curvature="0"
   style="fill:#bf2519;fill-opacity:1;fill-rule:evenodd;stroke:none"
   d="m 25.249997,69.233673 c -1.602501,0 -2.586251,0.71 -3.312501,2.375001 -0.5775,1.345 -0.8125,2.790001 -0.8125,4.968751 0,2.177501 0.23625,3.548751 0.8125,4.937501 0.70625,1.708751 1.66875,2.437501 3.312501,2.437501 1.6025,0 2.60625,-0.71875 3.312501,-2.406251 0.57625,-1.3875 0.8125,-2.76875 0.8125,-4.968751 0,-2.17875 -0.23625,-3.517501 -0.8125,-4.906251 -0.726251,-1.730001 -1.690001,-2.437501 -3.312501,-2.437501 z m 0,1.968751 c 0.8325,0 1.3875,0.5425 1.75,1.78125 0.32,1.045 0.40625,1.991251 0.40625,3.593751 0,1.62375 -0.08625,2.491251 -0.40625,3.625001 -0.34125,1.195 -0.9175,1.75 -1.75,1.75 -0.875,0 -1.407501,-0.56375 -1.750001,-1.78125 -0.32,-1.11125 -0.40625,-2.002501 -0.40625,-3.562501 0,-1.60125 0.08625,-2.545001 0.40625,-3.656251 0.3425,-1.19375 0.896251,-1.75 1.750001,-1.75 z"
   id="path3609" /><path
   d="m 14.350932,69.46286 -2.007501,0 0,14.250004 7.112501,0 0,-1.903751 -5.105,0 0,-12.346253 z"
   style="fill:#bf2519;fill-opacity:1;fill-rule:evenodd;stroke:none"
   id="path3613"
   inkscape:connector-curvature="0" /><path
   d="m 61.314692,89.262865 0,-1.9875 -6.556251,0 0,14.250005 7.112501,0 0,-1.990003 -5.105001,0 0,-4.698751 2.883751,0 0,-1.985 -2.883751,0 0,-3.588751 4.548751,0 z"
   style="fill:#bf2519;fill-opacity:1;fill-rule:evenodd;stroke:none"
   id="path3617"
   inkscape:connector-curvature="0" /><path
   d="m 46.57719,91.974116 4.272501,9.551254 1.515,0 0,-14.250005 -2.005,0 0,8.523752 -3.782501,-8.523752 -2.007501,0 0,14.250005 2.007501,0 0,-9.551254 z"
   style="fill:#bf2519;fill-opacity:1;fill-rule:evenodd;stroke:none"
   id="path3621"
   inkscape:connector-curvature="0" /><path
   inkscape:connector-curvature="0"
   style="fill:#bf2519;fill-opacity:1;fill-rule:evenodd;stroke:none"
   d="m 38.0625,87.046178 c -1.602501,0 -2.555001,0.71 -3.281251,2.375 -0.5775,1.345 -0.8125,2.790001 -0.8125,4.968751 0,2.177501 0.205,3.548751 0.78125,4.937501 0.70625,1.70875 1.66875,2.4375 3.312501,2.4375 1.6025,0 2.60625,-0.74875 3.312501,-2.4375 0.5775,-1.38625 0.8125,-2.7375 0.8125,-4.937501 0,-2.17875 -0.235,-3.518751 -0.8125,-4.906251 -0.726251,-1.73 -1.688751,-2.4375 -3.312501,-2.4375 z m 0,1.96875 c 0.8325,0 1.385,0.5425 1.75,1.78125 0.32,1.045001 0.40625,1.991251 0.40625,3.593751 0,1.623751 -0.08625,2.491251 -0.40625,3.625001 -0.34375,1.195 -0.9175,1.750001 -1.75,1.750001 -0.875,0 -1.408751,-0.563751 -1.750001,-1.781251 -0.32,-1.11125 -0.40625,-2.00125 -0.40625,-3.562501 0,-1.60125 0.08625,-2.545 0.40625,-3.656251 0.34125,-1.19375 0.896251,-1.75 1.750001,-1.75 z"
   id="path3625" /><path
   d="m 32.159686,88.60024 0,-1.325 -7.262501,0 0,1.9875 4.698751,0 -5.232501,10.038752 0,2.223748 7.796251,0 0,-1.989998 -5.703751,0 5.703751,-10.935002 z"
   style="fill:#bf2519;fill-opacity:1;fill-rule:evenodd;stroke:none"
   id="path3629"
   inkscape:connector-curvature="0" /><path
   d="m 60.479692,117.49037 c -0.10625,0.0713 -0.27125,0.1 -0.39875,0.1 -0.34875,0 -0.65,-0.0838 -0.84875,-0.38375 -0.10125,-0.155 -0.1275,-0.3225 -0.13375,-0.5075 -0.0012,-0.0275 -0.0125,-0.0413 -0.015,-0.07 -0.0038,-0.0425 0.0075,-0.0862 0.015,-0.12875 l 0.99,-3.36374 -34.071258,0 0.89125,3.36374 c 0.02,0.0225 0.04125,0.0362 0.05,0.0637 0.02,0.0438 0.035,0.0863 0.04875,0.135 -0.02125,0.19375 -0.06375,0.37 -0.18625,0.52875 -0.21125,0.2925 -0.505,0.3775 -0.85375,0.3625 -0.11375,-0.006 -0.24875,-0.035 -0.3425,-0.1 l -10.195002,-7.025 10.195002,-6.9325 c 0.14375,-0.1 0.24375,-0.14875 0.42,-0.18375 0.30125,-0.065 0.6275,0.17 0.79875,0.4125 0.1,0.14125 0.15,0.2925 0.16375,0.46875 -0.01375,0.0575 -0.01375,0.1225 -0.0425,0.1775 -0.015,0.045 -0.03625,0.0787 -0.05625,0.115 l -0.89125,3.27 34.071258,0 -0.99,-3.27 c -0.0075,-0.0425 -0.015,-0.0925 -0.015,-0.135 0,-0.0575 0.0125,-0.1075 0.015,-0.1575 0.005,-0.1625 0.03625,-0.30375 0.12,-0.4475 0.15875,-0.27 0.5425,-0.5175 0.87,-0.4275 0.14375,0.0387 0.27125,0.1 0.39125,0.1775 l 10.196252,6.9325 -10.196252,7.025 z"
   style="fill:#bf2519;fill-opacity:1;fill-rule:evenodd;stroke:none"
   id="path3633"
   inkscape:connector-curvature="0" /><path
   d="m 10.990932,50.222856 1.41,0 c 1.633751,0 2.210001,-0.80125 2.210001,-3.043751 0,-2.37 -0.705,-3.427501 -2.210001,-3.427501 l -1.41,0 0,6.471252 z m 0,2.7875 0,9.328753 -2.6587508,0 0,-21.375005 4.0687508,0 c 1.2175,0 2.275001,0.32 2.947501,0.865 1.2175,0.9925 1.9875,3.043751 1.9875,5.318751 0,3.523751 -1.9875,5.862501 -4.935001,5.862501 l -1.41,0 z"
   style="fill:#bf2519;fill-opacity:1;fill-rule:evenodd;stroke:none"
   id="path3653"
   inkscape:connector-curvature="0" /><path
   d="m 23.337183,53.875357 -1.1525,-5.638752 -1.15375,5.638752 2.30625,0 z m 0.57625,2.7875 -3.45875,0 -1.153751,5.676252 -2.78875,0 4.295001,-21.375005 2.755,0 4.293751,21.375005 -2.7875,0 -1.155001,-5.676252 z"
   style="fill:#bf2519;fill-opacity:1;fill-rule:evenodd;stroke:none"
   id="path3657"
   inkscape:connector-curvature="0" /><path
   d="m 32.255936,49.550356 1.730001,0 c 1.44125,0 1.89125,-0.641251 1.89125,-2.660001 0,-2.433751 -0.51375,-3.138751 -2.3075,-3.138751 l -1.313751,0 0,5.798752 z m 4.165001,2.11375 2.115001,10.675003 -2.723751,0 -2.33875,-10.002503 -1.217501,0 0,10.002503 -2.66,0 0,-21.375005 4.070001,0 c 3.267501,0 4.933751,2.0175 4.933751,5.958751 0,2.435001 -0.60875,3.748751 -2.178751,4.741251"
   style="fill:#bf2519;fill-opacity:1;fill-rule:evenodd;stroke:none"
   id="path3661"
   inkscape:connector-curvature="0" /><path
   d="m 51.21219,15.981473 c -1.2825,0 -2.115001,0.800001 -2.627501,2.595001 -0.48,1.66625 -0.64,3.075001 -0.64,5.478752 0,2.33875 0.16,3.71625 0.64,5.382501 0.5125,1.82625 1.312501,2.658751 2.627501,2.658751 1.24875,0 2.08125,-0.832501 2.595001,-2.627501 0.48,-1.697501 0.64,-3.011251 0.64,-5.446251 0,-2.402501 -0.16,-3.811252 -0.64,-5.382502 -0.545001,-1.85875 -1.346251,-2.658751 -2.595001,-2.658751 m 0,-2.98 c 2.43375,0 3.876251,1.0575 4.966251,3.652501 0.86375,2.0825 1.185,4.10125 1.185,7.368752 0,3.3 -0.32125,5.351251 -1.185,7.433751 -1.05875,2.531251 -2.563751,3.625001 -4.966251,3.625001 -2.467501,0 -3.940001,-1.09375 -4.998751,-3.657501 -0.86375,-2.0825 -1.185001,-4.133751 -1.185001,-7.401251 0,-3.267502 0.352501,-5.446252 1.217501,-7.465003 1.08875,-2.49875 2.5625,-3.55625 4.966251,-3.55625"
   style="fill:#bf2519;fill-opacity:1;fill-rule:evenodd;stroke:none"
   id="path3665"
   inkscape:connector-curvature="0" /></svg>