<svg xmlns="http://www.w3.org/2000/svg" width="206" height="274" viewBox="0 0 206 274">
  <g fill="none" fill-rule="evenodd" transform="translate(1 1)">
    <path fill="#FFF" fill-rule="nonzero" stroke="#000" d="M203.729995,254.66375 C203.729995,264.00125 196.089995,271.64125 186.752495,271.64125 L16.977495,271.64125 C7.64,271.64125 0,264.00125 0,254.66375 L0,16.97875 C0,7.64 7.64,0 16.977495,0 L186.752495,0 C196.089995,0 203.729995,7.64 203.729995,16.97875 L203.729995,254.66375 Z"/>
    <path fill="#000" fill-rule="nonzero" d="M187.24512,3.74539 L17.47012,3.74539 C10.466375,3.74539 4.736375,9.47539 4.736375,16.47914 L4.736375,254.16414 C4.736375,261.16789 10.466375,266.89789 17.47012,266.89789 L187.24512,266.89789 C194.24887,266.89789 199.97887,261.16789 199.97887,254.16414 L199.97887,16.47914 C199.97887,9.47539 194.24887,3.74539 187.24512,3.74539 L187.24512,3.74539 Z M192.90512,254.16414 C192.90512,257.27664 190.35762,259.82289 187.24512,259.82289 L17.47012,259.82289 C14.357625,259.82289 11.810125,257.27664 11.810125,254.16414 L11.810125,16.47914 C11.810125,13.36664 14.357625,10.81914 17.47012,10.81914 L187.24512,10.81914 C190.35762,10.81914 192.90512,13.36664 192.90512,16.47914 L192.90512,254.16414 Z"/>
    <g fill="#000" fill-rule="nonzero" transform="translate(51 23)">
      <path d="M26.2218186,36.4018561 C23.9349559,39.3814015 20.8281095,40.8424242 16.66525,40.8424242 C11.0958301,40.8424242 7.69525817,38.6217045 5.2912549,33.7725379 C3.64953922,30.4418939 2.4772598,25.1832576 2.4772598,20.5092045 C2.4772598,13.9646591 4.11897549,8.12231061 6.81583007,4.44056818 C9.10181863,1.3442803 12.38525,1.84741111e-13 16.9581013,1.84741111e-13 C27.9221046,1.84741111e-13 30.5603889,11.6864394 30.5603889,20.5092045 C30.5603889,26.7026515 28.9772435,32.8960985 26.2218186,36.4018561 M16.9581013,6.36943182 C13.4403889,6.36943182 11.7995474,7.77121212 10.3921127,11.2185985 C9.45411438,13.5560606 8.86753758,17.1785606 8.86753758,20.5092045 C8.86753758,24.6579167 9.74696569,28.9225 11.2715408,31.4350758 C12.5023905,33.4806818 14.1441062,34.4738636 16.66525,34.4738636 C19.5963856,34.4738636 21.4146863,32.9544697 22.7626765,29.5070833 C23.5835343,27.4039773 24.2872516,23.5471212 24.2872516,20.5092045 C24.2872516,15.9518939 23.290683,6.36943182 16.9581013,6.36943182"/>
      <polygon points="61.87 40.141 46.744 13.439 46.744 40.141 40.47 40.141 40.47 .701 46.744 .701 61.167 25.885 61.167 .701 67.381 .701 67.381 40.141 61.87 40.141"/>
      <polygon points="77.353 40.141 77.353 .701 100.688 .701 100.688 6.953 83.627 6.953 83.627 16.594 95.118 16.594 95.118 22.963 83.627 22.963 83.627 33.773 101.919 33.773 101.919 40.141 77.353 40.141"/>
      <polygon points="29.314 91.417 23.745 91.417 17.53 66.117 11.373 91.417 5.862 91.417 0 51.977 6.39 51.977 9.439 72.72 14.481 51.977 20.578 51.977 25.679 72.72 28.786 51.977 35.119 51.977 29.314 91.417"/>
      <path d="M65.5029733,91.4168036 L61.6329651,80.3733188 L49.2632756,80.3733188 L45.3932674,91.4168036 L38.7092641,91.4168036 L52.3115517,51.9770309 L58.584689,51.9770309 L72.1869765,91.4168036 L65.5029733,91.4168036 L65.5029733,91.4168036 Z M55.5364128,62.9029021 L51.4906939,74.0047582 L59.4055468,74.0047582 L55.5364128,62.9029021 Z"/>
      <polygon points="92.648 74.239 92.648 91.417 86.375 91.417 86.375 74.239 72.48 51.977 79.985 51.977 89.424 67.169 99.04 51.977 106.368 51.977 92.648 74.239"/>
    </g>
    <circle cx="101.5" cy="192.5" r="61.5" fill="#C31926"/>
    <path fill="#FFF" fill-rule="nonzero" d="M106.570341,200.729041 L82.5202995,200.729041 L83.6003434,210.053047 C83.6984674,210.351016 83.7516491,210.669404 83.7516491,211.000648 C83.7516491,212.657627 82.4213577,214 80.7809647,214 C80.1585142,214 79.5810059,213.807152 79.1038688,213.476664 L50,193 L79.1038688,172.523336 C79.5810059,172.193604 80.1585142,172 80.7809647,172 C82.4213577,172 83.7516491,173.343129 83.7516491,174.999352 C83.7516491,175.330596 83.6984974,175.648984 83.6003434,175.946953 L82.5202995,185.270959 L106.570341,185.270959 L122.050041,185.270959 L120.969997,175.946953 C120.871843,175.648984 120.818691,175.330596 120.818691,174.999352 C120.818691,173.343129 122.148983,172 123.789376,172 C124.411826,172 124.989335,172.193604 125.466472,172.523336 L154.570341,193 L125.466472,213.476664 C124.989335,213.807152 124.411826,214 123.789376,214 C122.148983,214 120.818691,212.657627 120.818691,211.000648 C120.818691,210.669404 120.871873,210.351016 120.969997,210.053047 L122.050041,200.729041 L106.570341,200.729041 Z"/>
  </g>
</svg>
