<?xml version="1.0" encoding="UTF-8" standalone="no"?>
<!-- Created with Inkscape (http://www.inkscape.org/) -->

<svg
   xmlns:dc="http://purl.org/dc/elements/1.1/"
   xmlns:cc="http://creativecommons.org/ns#"
   xmlns:rdf="http://www.w3.org/1999/02/22-rdf-syntax-ns#"
   xmlns:svg="http://www.w3.org/2000/svg"
   xmlns="http://www.w3.org/2000/svg"
   xmlns:sodipodi="http://sodipodi.sourceforge.net/DTD/sodipodi-0.dtd"
   xmlns:inkscape="http://www.inkscape.org/namespaces/inkscape"
   width="2170"
   height="2710"
   id="svg3562"
   version="1.1"
   inkscape:version="0.48.2 r9819"
   sodipodi:docname="AJAX1.svg">
  <defs
     id="defs3564">
    <inkscape:perspective
       sodipodi:type="inkscape:persp3d"
       inkscape:vp_x="0 : 526.18109 : 1"
       inkscape:vp_y="0 : 1000 : 0"
       inkscape:vp_z="744.09448 : 526.18109 : 1"
       inkscape:persp3d-origin="372.04724 : 350.78739 : 1"
       id="perspective3570" />
    <inkscape:perspective
       id="perspective3595"
       inkscape:persp3d-origin="301.91901 : 198.427 : 1"
       inkscape:vp_z="603.83801 : 297.6405 : 1"
       inkscape:vp_y="0 : 1000 : 0"
       inkscape:vp_x="0 : 297.6405 : 1"
       sodipodi:type="inkscape:persp3d" />
    <inkscape:perspective
       id="perspective3615"
       inkscape:persp3d-origin="0.5 : 0.33333333 : 1"
       inkscape:vp_z="1 : 0.5 : 1"
       inkscape:vp_y="0 : 1000 : 0"
       inkscape:vp_x="0 : 0.5 : 1"
       sodipodi:type="inkscape:persp3d" />
    <inkscape:perspective
       id="perspective4061"
       inkscape:persp3d-origin="0.5 : 0.33333333 : 1"
       inkscape:vp_z="1 : 0.5 : 1"
       inkscape:vp_y="0 : 1000 : 0"
       inkscape:vp_x="0 : 0.5 : 1"
       sodipodi:type="inkscape:persp3d" />
    <inkscape:perspective
       id="perspective4872"
       inkscape:persp3d-origin="263 : 175.33333 : 1"
       inkscape:vp_z="526 : 263 : 1"
       inkscape:vp_y="0 : 1000 : 0"
       inkscape:vp_x="0 : 263 : 1"
       sodipodi:type="inkscape:persp3d" />
    <inkscape:perspective
       id="perspective4933"
       inkscape:persp3d-origin="0.5 : 0.33333333 : 1"
       inkscape:vp_z="1 : 0.5 : 1"
       inkscape:vp_y="0 : 1000 : 0"
       inkscape:vp_x="0 : 0.5 : 1"
       sodipodi:type="inkscape:persp3d" />
    <inkscape:perspective
       id="perspective4966"
       inkscape:persp3d-origin="0.5 : 0.33333333 : 1"
       inkscape:vp_z="1 : 0.5 : 1"
       inkscape:vp_y="0 : 1000 : 0"
       inkscape:vp_x="0 : 0.5 : 1"
       sodipodi:type="inkscape:persp3d" />
    <inkscape:perspective
       id="perspective3614"
       inkscape:persp3d-origin="0.5 : 0.33333333 : 1"
       inkscape:vp_z="1 : 0.5 : 1"
       inkscape:vp_y="0 : 1000 : 0"
       inkscape:vp_x="0 : 0.5 : 1"
       sodipodi:type="inkscape:persp3d" />
    <inkscape:perspective
       id="perspective3653"
       inkscape:persp3d-origin="0.5 : 0.33333333 : 1"
       inkscape:vp_z="1 : 0.5 : 1"
       inkscape:vp_y="0 : 1000 : 0"
       inkscape:vp_x="0 : 0.5 : 1"
       sodipodi:type="inkscape:persp3d" />
    <inkscape:perspective
       id="perspective3701"
       inkscape:persp3d-origin="0.5 : 0.33333333 : 1"
       inkscape:vp_z="1 : 0.5 : 1"
       inkscape:vp_y="0 : 1000 : 0"
       inkscape:vp_x="0 : 0.5 : 1"
       sodipodi:type="inkscape:persp3d" />
    <inkscape:perspective
       id="perspective4525"
       inkscape:persp3d-origin="0.5 : 0.33333333 : 1"
       inkscape:vp_z="1 : 0.5 : 1"
       inkscape:vp_y="0 : 1000 : 0"
       inkscape:vp_x="0 : 0.5 : 1"
       sodipodi:type="inkscape:persp3d" />
    <inkscape:perspective
       id="perspective4729"
       inkscape:persp3d-origin="301.91901 : 198.427 : 1"
       inkscape:vp_z="603.83801 : 297.6405 : 1"
       inkscape:vp_y="0 : 1000 : 0"
       inkscape:vp_x="0 : 297.6405 : 1"
       sodipodi:type="inkscape:persp3d" />
    <inkscape:perspective
       id="perspective4759"
       inkscape:persp3d-origin="0.5 : 0.33333333 : 1"
       inkscape:vp_z="1 : 0.5 : 1"
       inkscape:vp_y="0 : 1000 : 0"
       inkscape:vp_x="0 : 0.5 : 1"
       sodipodi:type="inkscape:persp3d" />
    <inkscape:perspective
       id="perspective4793"
       inkscape:persp3d-origin="0.5 : 0.33333333 : 1"
       inkscape:vp_z="1 : 0.5 : 1"
       inkscape:vp_y="0 : 1000 : 0"
       inkscape:vp_x="0 : 0.5 : 1"
       sodipodi:type="inkscape:persp3d" />
  </defs>
  <sodipodi:namedview
     id="base"
     pagecolor="#ffffff"
     bordercolor="#666666"
     borderopacity="1.0"
     inkscape:pageopacity="0.0"
     inkscape:pageshadow="2"
     inkscape:zoom="0.21834447"
     inkscape:cx="652.09367"
     inkscape:cy="925.66054"
     inkscape:document-units="px"
     inkscape:current-layer="layer1"
     showgrid="false"
     inkscape:window-width="1280"
     inkscape:window-height="1004"
     inkscape:window-x="-8"
     inkscape:window-y="-8"
     inkscape:window-maximized="1"
     fit-margin-top="0"
     fit-margin-left="0"
     fit-margin-right="0"
     fit-margin-bottom="0" />
  <metadata
     id="metadata3567">
    <rdf:RDF>
      <cc:Work
         rdf:about="">
        <dc:format>image/svg+xml</dc:format>
        <dc:type
           rdf:resource="http://purl.org/dc/dcmitype/StillImage" />
        <dc:title></dc:title>
      </cc:Work>
    </rdf:RDF>
  </metadata>
  <g
     inkscape:label="Livello 1"
     inkscape:groupmode="layer"
     id="layer1"
     transform="translate(167.375,1955.9375)">
    <g
       display="none"
       id="Layer_1_1_"
       style="display:none"
       transform="translate(-179.26841,166.65141)">
      <path
         id="path3574"
         enable-background="new    "
         d=""
         display="inline"
         style="fill:none;display:inline"
         inkscape:connector-curvature="0" />
    </g>
    <g
       display="none"
       id="Layer_3"
       transform="translate(-859.87637,144.75832)"
       style="display:none">
      <line
         y2="395.00101"
         x2="154.05701"
         y1="342.67899"
         x1="207.533"
         display="inline"
         id="line7934"
         style="fill:none;display:inline" />
    </g>
    <path
       inkscape:connector-curvature="0"
       style="fill:#ffffff;fill-rule:nonzero;stroke:#000000;stroke-width:10;stroke-miterlimit:4;stroke-opacity:1;stroke-dasharray:none"
       d="m 1997.636,614.06415 c 0,74.5625 -60.4375,135 -135,135 l -1889.99996,0 c -74.55937,0 -135,-60.4375 -135,-135 l 0,-2429.99995 c 0,-74.5594 60.44063,-135 135,-135 l 1889.99996,0 c 74.5625,0 135,60.4406 135,135 z"
       id="path11"
       sodipodi:nodetypes="sssssssss" />
    <path
       inkscape:connector-curvature="0"
       style="fill:#000000;fill-rule:nonzero;stroke:none"
       d="m -27.36396,715.31415 c -55.83013,0 -101.25,-45.425 -101.25,-101.25 l 0,-2429.99995 c 0,-55.8301 45.41987,-101.25 101.25,-101.25 l 1889.99996,0 c 55.825,0 101.25,45.4199 101.25,101.25 l 0,2429.99995 c 0,55.825 -45.425,101.25 -101.25,101.25 l -1889.99996,0 z"
       id="path13" />
    <path
       inkscape:connector-curvature="0"
       style="fill:#ffffff;fill-rule:nonzero;stroke:none"
       d="m -27.36396,659.06415 c -24.81325,0 -45,-20.1875 -45,-45 l 0,-2429.99995 c 0,-24.8133 20.18675,-45 45,-45 l 1889.99996,0 c 24.8125,0 45,20.1867 45,45 l 0,2429.99995 c 0,24.8125 -20.1875,45 -45,45 l -1889.99996,0 z"
       id="path15" />
    <path
       style="fill:#000000;fill-rule:nonzero;stroke:none"
       d="m 1044.611,-330.9358 -206.54246,-365.6875 0,365.6875 -85.26875,0 0,-540 85.26875,0 197.06496,344.85 0,-344.85 85.265,0 0,540 -75.7875,0 z"
       id="path17"
       inkscape:connector-curvature="0" />
    <path
       style="fill:#000000;fill-rule:nonzero;stroke:none"
       d="m 516.24229,-751.567 c -17.095,-28.4213 -37.98875,-39.7875 -70.27625,-41.6838 -41.79,-1.895 -68.37875,18.9463 -87.37,66.315 -13.29875,32.2125 -20.89375,81.475 -20.89375,126.95 0,56.8375 11.39375,115.575 32.285,149.6875 17.1,28.4125 39.8875,41.675 74.0775,41.675 39.8875,0 64.5775,-20.8375 83.57375,-68.2 11.39625,-28.425 20.89125,-81.475 20.89125,-123.1625 0,-60.6375 -11.39625,-115.5787 -32.2875,-151.5812 z m 58.87875,369.4687 c -30.3925,41.6875 -74.07625,60.6375 -131.05625,60.6375 -75.975,0 -123.46,-30.3125 -155.75,-96.625 -22.7875,-45.4875 -37.98375,-117.475 -37.98375,-181.9 0,-89.05 22.79125,-168.6325 58.88,-219.7912 32.29,-41.6863 75.97375,-60.6313 138.6525,-60.6313 68.37875,0 115.86125,30.3163 150.05125,96.6338 22.7875,47.365 36.08625,115.5762 36.08625,183.7887 0,85.2625 -20.89375,170.525 -58.88,217.8875 z"
       id="path19"
       inkscape:connector-curvature="0" />
    <path
       style="fill:#000000;fill-rule:nonzero;stroke:none"
       d="m 1249.9985,-330.9358 0,-540 317.9125,0 0,85.2625 -232.75,0 0,132.6375 157.0625,0 0,87.15 -157.0625,0 0,147.7875 249.775,0 0,87.1625 -334.9375,0 z"
       id="path21"
       inkscape:connector-curvature="0" />
    <path
       style="fill:#000000;fill-rule:nonzero;stroke:none"
       d="m 583.86854,434.0642 -76.02125,0 -85.5325,-346.7375 -83.63125,346.7375 -76.025,0 -79.8275,-540 87.43,0 41.81375,284.2125 68.4225,-284.2125 83.63125,0 70.32375,284.2125 41.8175,-284.2125 87.43,0 -79.83125,540 z"
       id="path23"
       inkscape:connector-curvature="0" />
    <path
       style="fill:#000000;fill-rule:nonzero;stroke:none"
       d="m 1463.911,199.1142 0,234.95 -85.7,0 0,-234.95 -190.4375,-305.05 102.8375,0 129.5,208.425 131.4,-208.425 100.925,0 -188.525,305.05 z"
       id="path25"
       inkscape:connector-curvature="0" />
    <path
       style="fill:#000000;fill-rule:nonzero;stroke:none"
       d="m 926.68854,43.7517 -55.26625,151.575 108.62625,0 -53.36,-151.575 z m 137.20746,390.3125 -53.3575,-151.575 -169.60621,0 -53.35875,151.575 -91.47375,0 186.75625,-540 85.75625,0 186.76121,540 -91.4775,0 z"
       id="path27"
       inkscape:connector-curvature="0" />
    <path
       style="fill:#000000;fill-rule:nonzero;stroke:none"
       d="m 990.41229,-1095.9345 -206.54375,-365.685 0,365.685 -85.26875,0 0,-540.0013 85.26875,0 197.06625,344.8438 0,-344.8438 85.26871,0 0,540.0013 -75.79121,0 z"
       id="path29"
       inkscape:connector-curvature="0" />
    <path
       style="fill:#000000;fill-rule:nonzero;stroke:none"
       d="m 1432.661,-1527.937 c -13.2625,-13.2638 -32.2125,-22.7388 -54.95,-22.7388 l -96.6375,0 0,367.5825 85.275,0 c 28.425,0 45.475,-5.6812 60.625,-20.84 32.225,-32.2112 49.275,-90.9525 49.275,-162.9537 0,-71.9963 -17.05,-132.6288 -43.5875,-161.05 z m 36.0125,401.6875 c -20.85,18.9487 -49.275,28.4225 -77.7,30.315 -5.675,0 -17.05,0 -30.3125,0 l -164.85,0 0,-540.0013 174.325,0 c 54.95,0 75.7875,5.6825 104.2125,28.4213 56.85,49.2625 89.0625,134.5275 89.0625,240.6275 0,108.0037 -34.1125,193.27 -94.7375,240.6375 z"
       id="path31"
       inkscape:connector-curvature="0" />
    <path
       style="fill:#000000;fill-rule:nonzero;stroke:none"
       d="m 271.86229,-1095.9345 0,-540.0013 317.90375,0 0,85.2625 -232.7525,0 0,132.6325 157.06375,0 0,87.1588 -157.06375,0 0,147.7887 249.785,0 0,87.1588 -334.93625,0 z"
       id="path33"
       inkscape:connector-curvature="0" />
  </g>
</svg>
