<svg xmlns="http://www.w3.org/2000/svg" width="964" height="324" viewBox="0 0 964 324">
  <g fill="none">
    <rect width="963.2" height="323.2" fill="#000" rx="17.6"/>
    <rect width="960" height="320" x="1.6" y="1.6" fill="#FFF" rx="16"/>
    <rect width="937.6" height="297.6" x="12.8" y="12.8" fill="#003F87" rx="4.8"/>
    <path fill="#FFF" d="M909.6,161.602274 L720.623424,31.3108288 C713.251792,26.4458688 703.56196,26.9915488 696.783176,32.6534688 C690.0044,38.3153888 687.741464,47.7530688 691.215608,55.8733088 L709.599984,98.8028264 L61.6,98.8028264 L61.6,224.40228 L709.599984,224.40228 L691.215608,267.32724 C687.740248,275.44772 690.002664,284.88636 696.781768,290.54892 C703.560864,296.2114 713.25152,296.75708 720.623424,291.89132 L909.6,161.602274 Z"/>
    <path fill="#000" d="M99.810672 145.241858C96.311736 145.241858 93.49496 148.058658 93.49496 151.557618L93.49496 198.925968C93.49496 201.438569 94.4930468 203.848269 96.2697221 205.624949 98.0463973 207.401629 100.456095 208.399728 102.968696 208.399728 105.481297 208.399728 107.890995 207.401629 109.66767 205.624949 111.444345 203.848269 112.442432 201.438569 112.442432 198.925968 112.437203 194.915618 109.907424 191.343032 106.126384 190.006368L106.126384 151.557618C106.126384 148.058658 103.309616 145.241858 99.810672 145.241858L99.810672 145.241858zM143.639648 114.926178C143.121368 114.934178 142.269088 114.980578 142.123968 114.989378 131.1296 115.659378 126.076064 122.731298 125.07144 130.715538 143.53556 128.072898 161.49012 132.742658 171.178992 135.136658 168.920384 130.398578 162.463456 121.679618 155.387256 117.831458 153.598152 116.886658 150.691552 115.275298 145.281984 114.989378 145.088744 114.978178 144.166896 114.926178 143.639648 114.926178L143.639648 114.926178zM143.07144 122.063058C146.734016 122.121458 148.531032 122.813058 149.298696 123.035618 152.96268 124.251938 154.918632 125.818498 156.334392 126.989378 152.701416 125.545218 148.217472 124.886018 143.45036 124.652498 142.111344 124.581298 136.807312 124.480898 134.229232 124.993538 135.377448 123.807938 137.832456 122.173538 143.07144 122.063058L143.07144 122.063058zM149.957976 145.241778C149.957976 145.241778 156.54336 145.252178 161.073664 146.555458 166.3716 148.239218 171.178976 151.848418 171.178976 162.925858L171.178976 202.083568C171.178976 205.582448 168.36188 208.399702 164.862952 208.399702 161.364008 208.399702 158.54724 205.582448 158.54724 202.083568L158.547568 161.662738C158.464816 155.944338 154.811768 154.977458 151.726264 154.904818L144.526408 154.904818C141.440904 154.977618 137.788176 155.944418 137.70544 161.662738L137.70512 188.441648C138.543984 187.580688 139.908184 186.335888 141.526344 183.262688 141.526344 183.262688 142.201696 181.963808 142.819752 180.11772 141.179751 178.704756 140.235153 176.648531 140.231616 174.4838 140.231647 172.507232 141.016871 170.611633 142.414544 169.214018 143.812217 167.816402 145.707848 167.031257 147.684416 167.031306 151.800285 167.031375 155.136839 170.367931 155.136904 174.4838 155.136405 174.671352 155.128826 174.858819 155.114184 175.0458 155.049544 176.75452 155.02216 176.99612 154.379152 179.26492 153.698504 181.531648 152.357912 184.210128 152.357912 184.210128 147.015784 195.290288 138.235904 204.711248 138.235904 204.711248 136.84688 206.374288 135.575256 207.272928 134.673872 207.768048 133.768376 208.188528 133.00644 208.405888 131.389544 208.399702 127.890608 208.388368 125.07384 205.582448 125.07384 202.083568L125.07384 162.925858C125.07384 151.848418 129.881216 148.239218 135.17908 146.555458 139.709392 145.251858 146.29484 145.241778 146.29484 145.241778L149.957976 145.241778zM192.96828 145.241698C187.5618 145.241698 183.178944 149.624498 183.178944 155.030978 183.182944 159.339458 186.003384 163.138658 190.1262 164.389539L190.1262 202.083408C190.1262 205.582368 192.942968 208.399667 196.441912 208.399667 198.0446 208.369088 199.193368 208.005168 200.863008 206.062608 203.367408 203.081408 204.73956 201.725408 207.17872 199.873248 208.275504 199.100448 212.100344 196.289888 216.652456 195.515168L216.652456 197.031088C216.652448 203.055568 221.352016 208.033728 227.366416 208.380528 233.380808 208.727328 238.621656 204.322048 239.314088 198.337568 240.006488 192.353168 235.910136 186.867648 229.975464 185.831888L229.2842 185.726048 229.2842 151.557698C229.2842 148.058738 226.467096 145.241698 222.968168 145.241698 219.469224 145.241698 216.652456 148.058738 216.652456 151.557698L216.652456 185.347168C213.509328 185.456528 208.494584 186.514128 202.757624 191.347328L202.757952 155.030978C202.757888 149.624418 198.374888 145.241698 192.96828 145.241698L192.96828 145.241698zM229.2842 195.136528C230.33068 195.136608 231.178936 195.984928 231.178824 197.031408 231.17876 198.077728 230.330544 198.926048 229.2842 198.926128L229.2842 195.136528zM279.812312 175.305L279.812312 198.925968C279.812312 204.158208 275.570816 208.399728 270.338592 208.399728 265.106408 208.399728 260.8648 204.158208 260.864856 198.925968 260.871256 194.915648 263.399888 191.343088 267.180888 190.006448L267.180888 177.0102C267.187288 174.47508 265.858928 171.83796 259.41236 170.03764 252.402296 168.48324 244.879072 169.08972 242.006096 169.5578 241.894232 167.90892 241.917664 165.768189 241.917664 165.768189 241.939744 160.657618 243.04756 154.536338 245.871344 150.799778 249.4402 146.173618 255.186096 145.271618 258.540784 145.241858 264.223208 145.252258 269.384712 147.466498 272.296536 147.831378 274.886016 148.202338 276.715744 147.747298 277.739912 145.380818 278.537272 146.552658 279.782744 147.956658 279.812312 151.178738 279.542624 154.346978 277.285992 156.142898 277.285992 156.142898 274.727416 158.332898 272.119696 158.088178 272.119696 158.088178 269.561496 158.233778 263.817928 154.587058 257.921832 154.841858 253.093424 155.242498 252.505304 158.988818 252.338696 160.801298 256.802056 160.849298 261.222144 160.900658 266.94076 162.357618 274.375752 164.347539 279.751296 168.42764 279.812312 175.305L279.812312 175.305zM317.073184 145.241612C313.239424 145.233858 311.431048 145.421778 309.64584 145.684098 302.45008 146.779138 299.548936 149.890658 297.569248 151.860818 296.991192 152.445218 295.127408 154.659458 293.578648 157.368098 295.175072 156.936258 298.598408 158.099698 300.083664 160.879938 297.317192 161.697218 295.599568 164.355859 295.599568 165.578739L295.599568 198.610368C295.59964 204.016848 299.982432 208.399728 305.388912 208.399728 310.795504 208.399728 315.178512 204.017008 315.178576 198.610368 315.176976 194.299328 312.356376 190.496448 308.230992 189.245008L308.230992 165.768429C308.230992 163.687938 311.697536 161.552338 313.4478 161.536578 312.377272 159.187618 311.10256 158.270978 309.986904 157.595618 310.520016 156.949938 312.748696 154.866018 317.073184 154.804098 321.971712 154.804098 325.91536 157.339138 325.91536 160.488258L325.91536 202.083968C325.91536 205.582928 328.732136 208.399728 332.231096 208.399728 335.73004 208.399728 338.546872 205.582928 338.546872 202.083968L338.546872 158.505218C338.546872 148.495778 326.22388 145.241612 317.073184 145.241612L317.073184 145.241612zM360.336616 145.241538C354.93 145.241538 350.54692 149.624338 350.54692 155.030898 350.54692 159.341938 353.36912 163.144818 357.49452 164.396259L357.49452 202.083648C357.49452 205.582608 360.311296 208.399968 363.810224 208.399968L363.810224 208.399968C367.309168 208.399968 370.125936 205.582928 370.125936 202.083968L370.125936 190.968288C370.180896 189.761408 371.086376 185.223248 375.051928 178.55132 377.60508 174.02492 382.992624 166.870986 386.09196 163.747138 386.3096 163.527458 387.422696 162.427698 387.961432 161.915538 388.0856 161.795058 388.16656 161.717138 388.31524 161.631218 388.4828 161.542098 388.616944 161.533858 388.732016 161.600018 388.841024 161.656818 389.068272 161.778898 389.073072 162.168418L389.073072 202.083888C389.073072 205.582848 391.88984 208.399968 395.388784 208.399968 398.887712 208.399968 401.704488 205.582848 401.704488 202.083888L401.704488 153.452818C401.650168 151.580018 401.538888 145.266978 396.557192 145.242178 394.807728 145.269378 392.691752 145.947778 389.489848 148.021218 384.807336 151.245778 381.6036 155.081058 377.856192 159.768178L370.125936 170.12612 370.125936 155.031218C370.12588 149.624658 365.743112 145.241538 360.336616 145.241538L360.336616 145.241538zM430.125664 158.820898L430.125664 202.083968C430.125664 205.582848 432.942464 208.399728 436.441424 208.399728 439.940384 208.399728 442.757184 205.582848 442.757184 202.083968L442.757184 158.820898C442.743584 150.072818 434.361264 145.223058 425.767776 145.242043L424.662512 145.242043C419.76204 145.242043 415.529272 146.703858 412.883592 148.368338 412.005392 148.931138 411.008752 149.708258 410.167816 150.673618 409.318592 151.561378 408.028088 153.790418 408.020448 155.536818 408.028688 157.032898 408.719104 157.999778 409.308864 158.593618 409.5728 158.892898 409.982448 159.235538 410.319392 159.326258 410.272032 159.198578 410.376192 158.999938 410.445704 158.833618 410.802992 158.085938 411.308752 157.293858 412.296232 156.357858 413.277384 155.349778 415.099552 154.170818 415.86464 153.844178 417.19228 153.280178 418.156 152.751618 420.866728 152.757858 422.813504 152.723458 425.142192 153.154818 426.500384 153.831538 427.741664 154.447458 429.976944 155.750098 430.125664 158.820898zM473.072864 145.241858C478.305024 145.241858 482.546544 149.483458 482.546544 154.715618L482.546544 202.083648C482.546544 206.152128 478.400704 208.398448 475.851824 208.399728 472.748944 208.390128 470.878944 206.196128 469.662384 204.951248 467.237744 202.076048 460.867104 189.467008 459.506624 186.926048 458.634624 185.237088 457.006224 182.281248 454.251904 178.46284 453.589744 177.55004 451.550224 174.87964 450.260384 173.2966 449.535664 172.32188 449.288784 172.09388 449.072944 171.57868 449.454384 171.16956 450.749984 170.16212 452.736144 170.1766 453.631664 170.1878 454.540784 170.34548 455.944544 170.97236 456.958464 171.41692 458.739104 172.43412 460.820304 174.39548 462.463824 175.9166 464.603184 178.27324 466.491904 181.052368 467.629984 182.801968 468.722224 184.395008 469.915184 187.178608L469.915184 163.636818C466.133584 162.299938 463.603664 158.726578 463.599104 154.715618 463.599024 149.483458 467.840624 145.241858 473.072864 145.241858zM570.209584 112.399698C573.428544 112.399698 576.020064 114.991458 576.020064 118.210498L576.020064 135.136738C566.331184 132.742738 548.376624 128.072978 529.912464 130.715618 530.917104 122.731378 535.970624 115.659458 546.965024 114.989458 547.110144 114.980658 547.962384 114.926258 548.480704 114.926258 549.007984 114.926258 549.929824 114.978258 550.123024 114.989458 555.532624 115.275458 558.439184 116.886738 560.228304 117.831538 561.653744 118.606738 563.053104 119.581698 564.399024 120.679858L564.399024 118.210498C564.399024 114.991458 566.990544 112.399698 570.209584 112.399698zM547.912464 122.063058C542.673504 122.173538 540.218464 123.807938 539.070304 124.993538 541.648384 124.480898 546.952384 124.581458 548.291424 124.652498 553.058544 124.886018 557.542464 125.545218 561.175424 126.989378 559.759664 125.818498 557.803744 124.251938 554.139744 123.035618 553.372064 122.813058 551.575024 122.121778 547.912464 122.063058L547.912464 122.063058zM628.44096 145.241858C631.93992 145.241858 634.75672 148.058658 634.75672 151.557618L634.75672 195.136368C634.75672 197.808528 633.83792 202.508448 630.17136 205.241728 626.06128 208.299008 618.97496 208.399728 615.17768 208.399728L611.38848 208.399728C607.59112 208.399728 600.504864 208.299008 596.394704 205.241728 592.728144 202.508448 591.809424 197.808528 591.809424 195.136368L591.809424 182.379008C591.809424 181.242768 592.296144 178.34644 593.678864 176.79572 593.678864 176.79572 594.810544 175.21204 598.125104 174.07372 594.810544 172.9354 593.678864 171.3514 593.678864 171.3514 592.296144 169.80068 591.809424 166.904666 591.809424 165.768429L591.809424 155.031218C591.809424 149.624738 596.192224 145.241858 601.598704 145.241858 607.00536 145.241858 611.3884 149.624578 611.38848 155.031218 611.38848 159.342178 608.5664 163.144978 604.441184 164.396579L604.441184 166.399629C604.519584 168.19924 605.952704 170.42788 607.59888 171.6422 609.21776 172.76572 611.69896 173.32508 613.192 173.34716 613.59288 173.34764 613.91768 173.67276 613.91752 174.07372 613.9176 174.47468 613.59288 174.7994 613.192 174.79988 611.69896 174.82228 609.21776 175.38172 607.59888 176.50524 605.952704 177.71956 604.519504 179.9478 604.441184 181.747488L604.440864 195.136368C604.440864 198.245728 608.4436 200.203568 613.28304 200.189088 618.12248 200.203488 622.1252 198.245728 622.1252 195.136368L622.1252 151.557618C622.12528 148.058658 624.94208 145.241858 628.44096 145.241858L628.44096 145.241858zM677.704 159.010258L677.704 198.610368C677.704 204.016848 673.3212 208.399728 667.91472 208.399728 662.50808 208.399728 658.12504 204.017008 658.12496 198.610368 658.12496 194.299328 660.94728 190.496448 665.07255 189.245008L665.07255 159.010258C665.05576 158.531938 664.46776 155.602258 661.00512 154.046418 658.67696 152.945618 656.07464 152.828178 655.2704 152.808498 652.60504 152.739698 651.57088 153.016738 649.96512 153.642178 647.35536 154.746338 645.57392 156.382178 644.93776 157.058978 643.87872 158.269618 643.68152 158.738978 643.47248 159.389538 643.09224 159.301138 641.06744 157.913378 641.07255 155.536898 641.07255 155.536898 641.11976 154.089458 642.24728 152.151618 642.43504 151.846258 643.3072 150.527378 644.87464 149.322178 646.16608 148.313858 648.30536 147.051778 651.88512 146.113778 653.53808 145.730338 655.69104 145.245538 659.1988 145.242178 661.8116 145.263778 667.75584 145.544418 672.77768 149.195858 677.67536 152.811378 677.68256 157.739298 677.704 159.010258zM504.651744 145.241858C501.152784 145.241858 498.335984 148.058658 498.335984 151.557618L498.335984 198.925968C498.335984 201.438574 499.334074 203.848277 501.110755 205.624957 502.887435 207.401638 505.297138 208.399728 507.809744 208.399728 510.32235 208.399728 512.732053 207.401638 514.508733 205.624957 516.285414 203.848277 517.283504 201.438574 517.283504 198.925968 517.278271 194.91561 514.748476 191.343022 510.967424 190.006368L510.967424 151.557618C510.967424 148.058658 508.150704 145.241858 504.651744 145.241858L504.651744 145.241858z"/>
    <path fill="#000" d="M504.651744 145.241858C501.152784 145.241858 498.335984 148.058658 498.335984 151.557618L498.335984 198.925968C498.335984 201.438574 499.334074 203.848277 501.110755 205.624957 502.887435 207.401638 505.297138 208.399728 507.809744 208.399728 510.32235 208.399728 512.732053 207.401638 514.508733 205.624957 516.285414 203.848277 517.283504 201.438574 517.283504 198.925968 517.278271 194.91561 514.748476 191.343022 510.967424 190.006368L510.967424 151.557618C510.967424 148.058658 508.150704 145.241858 504.651744 145.241858L504.651744 145.241858zM554.799024 145.241778C554.799024 145.241778 561.384384 145.252178 565.914704 146.555458 571.212624 148.239218 576.020064 151.848418 576.020064 162.925858L576.020064 202.083568C576.020064 205.582448 573.202944 208.399702 569.703984 208.399702 566.205024 208.399702 563.388304 205.582448 563.388304 202.083568L563.388624 161.662738C563.305904 155.944338 559.652864 154.977458 556.567344 154.904818L549.367424 154.904818C546.281984 154.977618 542.629264 155.944418 542.546464 161.662738L542.546144 188.441648C543.385024 187.580688 544.749264 186.335888 546.367424 183.262688 546.367424 183.262688 547.042704 181.963808 547.660784 180.11772 546.020804 178.704745 545.076227 176.648522 545.072704 174.4838 545.072735 172.507232 545.857959 170.611633 547.255632 169.214018 548.653305 167.816402 550.548936 167.031257 552.525504 167.031306 556.64137 167.031379 559.977919 170.367934 559.977984 174.4838 559.977592 174.671348 559.97012 174.858815 559.955584 175.0458 559.890784 176.75452 559.863504 176.99612 559.220544 179.26492 558.539904 181.531648 557.199264 184.210128 557.199264 184.210128 551.857184 195.290288 543.077264 204.711248 543.077264 204.711248 541.688224 206.374288 540.416624 207.272928 539.515264 207.768048 538.609744 208.188528 537.847824 208.405888 536.230944 208.399702 532.731984 208.388368 529.915184 205.582448 529.915184 202.083568L529.915184 162.925858C529.915184 151.848418 534.722624 148.239218 540.020464 146.555458 544.550784 145.251858 551.136224 145.241778 551.136224 145.241778L554.799024 145.241778z"/>
  </g>
</svg>
