<?xml version="1.0" encoding="UTF-8" standalone="no"?>
<!-- Generator: Adobe Illustrator 14.0.0, SVG Export Plug-In  -->

<svg
   xmlns:dc="http://purl.org/dc/elements/1.1/"
   xmlns:cc="http://creativecommons.org/ns#"
   xmlns:rdf="http://www.w3.org/1999/02/22-rdf-syntax-ns#"
   xmlns:svg="http://www.w3.org/2000/svg"
   xmlns="http://www.w3.org/2000/svg"
   xmlns:sodipodi="http://sodipodi.sourceforge.net/DTD/sodipodi-0.dtd"
   xmlns:inkscape="http://www.inkscape.org/namespaces/inkscape"
   version="1.1"
   x="0px"
   y="0px"
   width="452.90005"
   height="752.90015"
   viewBox="0 -0.321 452.90009 752.90031"
   enable-background="new 0 -0.321 144 120"
   xml:space="preserve"
   id="svg2"
   inkscape:version="0.92.2 (5c3e80d, 2017-08-06)"
   sodipodi:docname="Philippines_road_sign_R2-1P.svg"><metadata
     id="metadata44"><rdf:RDF><cc:Work
         rdf:about=""><dc:format>image/svg+xml</dc:format><dc:type
           rdf:resource="http://purl.org/dc/dcmitype/StillImage" /><dc:title></dc:title></cc:Work></rdf:RDF></metadata><sodipodi:namedview
     pagecolor="#ffffff"
     bordercolor="#666666"
     borderopacity="1"
     objecttolerance="10"
     gridtolerance="10"
     guidetolerance="10"
     inkscape:pageopacity="0"
     inkscape:pageshadow="2"
     inkscape:window-width="1366"
     inkscape:window-height="705"
     id="namedview42"
     showgrid="false"
     fit-margin-top="1.45"
     fit-margin-left="1.45"
     fit-margin-right="1.45"
     fit-margin-bottom="1.45"
     inkscape:zoom="0.52618688"
     inkscape:cx="467.66848"
     inkscape:cy="470.67732"
     inkscape:window-x="-4"
     inkscape:window-y="-4"
     inkscape:window-maximized="1"
     inkscape:current-layer="svg2" /><defs
     id="defs4" /><g
     id="g1059"><g
       id="g1038"><g
         id="g979"><path
           inkscape:connector-curvature="0"
           d="m 1.95,691.10846 c 0,32.8685 26.62823,59.5207 59.46761,59.5207 h 330.06476 c 32.8526,0 59.4677,-26.6522 59.4677,-59.5207 V 61.14949 c 0,-32.86822 -26.6151,-59.52049 -59.4677,-59.52049 H 61.41761 C 28.57823,1.629 1.95,28.28127 1.95,61.14949 Z"
           style="fill:#ffffff;fill-opacity:1;fill-rule:nonzero;stroke:#000000;stroke-width:1;stroke-opacity:1"
           id="path4911"
           sodipodi:nodetypes="sssssssss" /><path
           sodipodi:nodetypes="sssssssss"
           id="path4913"
           style="fill:#000000;fill-opacity:1;fill-rule:nonzero;stroke:none"
           d="m 441.45007,60.7286 c 0,-27.39001 -22.2095,-49.59978 -49.5996,-49.59978 H 61.049811 c -27.40112,0 -49.59981,22.20977 -49.59981,49.59978 v 630.80106 c 0,27.3898 22.19869,49.5997 49.59981,49.5997 H 391.85047 c 27.3901,0 49.5996,-22.2099 49.5996,-49.5997 z"
           inkscape:connector-curvature="0" /><path
           inkscape:connector-curvature="0"
           d="m 26.449871,60.72885 c 0,-19.10672 15.4932,-34.60004 34.60014,-34.60004 H 391.85007 c 19.1147,0 34.6001,15.49332 34.6001,34.60004 v 630.80001 c 0,19.1069 -15.4854,34.6005 -34.6001,34.6005 H 61.050011 c -19.10694,0 -34.60014,-15.4936 -34.60014,-34.6005 z"
           style="fill:#ffffff;fill-opacity:1;fill-rule:nonzero;stroke:none"
           id="path4915"
           sodipodi:nodetypes="sssssssss" /><path
           sodipodi:nodetypes="sssss"
           inkscape:connector-curvature="0"
           style="fill:#084597;fill-opacity:1;stroke:none"
           d="m 41.449982,226.12905 c 0,-102.17274 82.827308,-185.000038 185.000018,-185.000038 102.17271,0 185.00005,82.827298 185.00005,185.000038 0,102.17275 -82.82734,185.00004 -185.00005,185.00004 -102.1727,0 -185.000018,-82.82729 -185.000018,-185.00004 z"
           id="path14622-1" /><path
           sodipodi:nodetypes="ccccc"
           inkscape:connector-curvature="0"
           id="rect3917"
           d="M 214.11668,386.46241 V 90.462326 l 24.66668,4e-5 V 386.46241 Z"
           style="fill:#ffffff;fill-opacity:1;stroke:none" /><path
           sodipodi:nodetypes="ccccccc"
           inkscape:connector-curvature="0"
           id="path4085"
           d="m 189.45,102.79565 37.00002,-37.000005 37,37.000025 v 34.8802 l -37,-36.99997 -37.00002,36.99997 z"
           style="fill:#ffffff;fill-opacity:1;stroke:none" /><text
           id="text29"
           y="570.38361"
           x="469.77551"
           style="font-style:normal;font-variant:normal;font-weight:normal;font-stretch:normal;font-size:74.66666412px;line-height:1.25;font-family:ClearviewHwy-1B;-inkscape-font-specification:'ClearviewHwy-1B, Normal';font-variant-ligatures:normal;font-variant-caps:normal;font-variant-numeric:normal;font-feature-settings:normal;text-align:start;letter-spacing:0px;word-spacing:0px;writing-mode:lr-tb;text-anchor:start;fill:#000000;fill-opacity:1;stroke:none"
           xml:space="preserve"><tspan
             y="639.45026"
             x="469.77551"
             id="tspan27"
             sodipodi:role="line" /></text>
</g><g
         id="g1018"
         transform="translate(499.00843,-8.5149835)"><path
           d="m -296.97376,569.82477 -24.93867,-48.53333 h -0.224 v 48.53333 h -11.872 V 495.1581 h 12.32 l 23.81867,47.78667 h 0.224 V 495.1581 h 11.872 v 74.66667 z"
           style="font-style:normal;font-variant:normal;font-weight:normal;font-stretch:normal;font-size:medium;line-height:1.25;font-family:ClearviewHwy-2B;-inkscape-font-specification:ClearviewHwy-2B;font-variant-ligatures:normal;font-variant-caps:normal;font-variant-numeric:normal;font-feature-settings:normal;text-align:start;letter-spacing:0px;word-spacing:0px;writing-mode:lr-tb;text-anchor:start;fill:#000000;fill-opacity:1;stroke:none"
           id="path987"
           inkscape:connector-curvature="0" /><path
           d="m -225.45943,532.3421 q 0,-6.272 -0.74667,-11.424 -0.672,-5.22666 -2.38933,-8.88533 -1.64267,-3.65867 -4.40533,-5.67467 -2.76267,-2.016 -6.944,-2.016 -4.032,0 -6.79467,2.09067 -2.76267,2.016 -4.48,5.74933 -1.64267,3.73334 -2.38933,8.88534 -0.672,5.152 -0.672,11.27466 0,6.42134 0.672,11.648 0.74666,5.152 2.38933,8.88534 1.71733,3.73333 4.55467,5.74933 2.83733,2.016 7.09333,2.016 4.032,0 6.72,-2.09067 2.76267,-2.09066 4.33067,-5.824 1.64266,-3.73333 2.31466,-8.96 0.74667,-5.22666 0.74667,-11.424 z m 12.84267,0.0747 q 0,8.288 -1.568,15.38133 -1.568,7.09334 -4.85334,12.24534 -3.28533,5.15199 -8.43733,8.13866 -5.152,2.912 -12.32,2.912 -7.168,0 -12.39467,-2.912 -5.152,-2.912 -8.512,-8.064 -3.28533,-5.22666 -4.85333,-12.32 -1.568,-7.09333 -1.568,-15.38133 0,-8.21333 1.568,-15.232 1.568,-7.01867 4.85333,-12.17067 3.36,-5.152 8.512,-8.064 5.152,-2.98666 12.39467,-2.98666 7.168,0 12.32,2.98666 5.152,2.912 8.43733,8.064 3.28534,5.152 4.85334,12.17067 1.568,7.01867 1.568,15.232 z"
           style="font-style:normal;font-variant:normal;font-weight:normal;font-stretch:normal;font-size:medium;line-height:1.25;font-family:ClearviewHwy-2B;-inkscape-font-specification:ClearviewHwy-2B;font-variant-ligatures:normal;font-variant-caps:normal;font-variant-numeric:normal;font-feature-settings:normal;text-align:start;letter-spacing:0px;word-spacing:0px;writing-mode:lr-tb;text-anchor:start;fill:#000000;fill-opacity:1;stroke:none"
           id="path989"
           inkscape:connector-curvature="0" /></g><g
         id="g1014"
         transform="translate(420.72843,18.151716)"><path
           d="m -314.52043,599.16877 v 63.98933 h -12.39467 v -63.98933 h -13.81333 v -10.67734 h 40.02133 v 10.67734 z"
           style="font-style:normal;font-variant:normal;font-weight:normal;font-stretch:normal;font-size:medium;line-height:1.25;font-family:ClearviewHwy-2B;-inkscape-font-specification:ClearviewHwy-2B;font-variant-ligatures:normal;font-variant-caps:normal;font-variant-numeric:normal;font-feature-settings:normal;text-align:start;letter-spacing:0px;word-spacing:0px;writing-mode:lr-tb;text-anchor:start;fill:#000000;fill-opacity:1;stroke:none"
           id="path991"
           inkscape:connector-curvature="0" /><path
           d="m -241.1441,632.9181 q 0,7.616 -0.97067,13.51467 -0.97066,5.824 -3.50933,9.856 -2.464,3.95733 -6.86933,6.04799 -4.40534,2.09067 -11.27467,2.09067 -6.86933,0 -11.27466,-2.09067 -4.40534,-2.09066 -6.944,-6.04799 -2.53867,-4.032 -3.50934,-9.856 -0.97066,-5.89867 -0.97066,-13.51467 v -44.42667 h 12.39466 v 47.18934 q 0,4.62933 0.448,8.064 0.448,3.36 1.568,5.6 1.19467,2.16533 3.21067,3.28533 2.09066,1.04533 5.22666,1.04533 3.06134,0 5.00267,-1.04533 1.94133,-1.12 3.06133,-3.36 1.12,-2.24 1.568,-5.6 0.448,-3.36 0.448,-7.98933 v -47.18934 h 12.39467 z"
           style="font-style:normal;font-variant:normal;font-weight:normal;font-stretch:normal;font-size:medium;line-height:1.25;font-family:ClearviewHwy-2B;-inkscape-font-specification:ClearviewHwy-2B;font-variant-ligatures:normal;font-variant-caps:normal;font-variant-numeric:normal;font-feature-settings:normal;text-align:start;letter-spacing:0px;word-spacing:0px;writing-mode:lr-tb;text-anchor:start;fill:#000000;fill-opacity:1;stroke:none"
           id="path993"
           inkscape:connector-curvature="0" /><path
           d="m -189.4211,610.5181 q 0,-2.464 -0.448,-4.77867 -0.448,-2.31466 -1.71734,-4.032 -1.19466,-1.792 -3.36,-2.83733 -2.16533,-1.12 -5.67466,-1.12 -1.71734,0 -3.584,0.14933 -1.792,0.0747 -3.65867,0.37334 v 24.71466 h 8.512 q 5.22667,0 7.54133,-2.83733 2.38934,-2.912 2.38934,-9.632 z m -0.224,52.64 -6.57067,-26.432 q -0.52267,-1.94133 -1.12,-2.83733 -0.59733,-0.896 -2.09067,-0.896 h -8.43733 v 30.16533 h -12.39467 v -74.29333 q 2.688,-0.29867 5.00267,-0.52267 2.38933,-0.224 4.704,-0.29867 2.31467,-0.14933 4.704,-0.224 2.38933,-0.0747 5.00267,-0.0747 11.49866,0 17.77066,5.45066 6.272,5.376 6.272,16.352 0,7.98934 -2.76266,12.61867 -2.76267,4.62933 -7.46667,6.72 v 0.14933 q 0.82133,0.29867 1.26933,1.344 0.52267,0.97067 0.896,2.24 l 8.288,30.53867 z"
           style="font-style:normal;font-variant:normal;font-weight:normal;font-stretch:normal;font-size:medium;line-height:1.25;font-family:ClearviewHwy-2B;-inkscape-font-specification:ClearviewHwy-2B;font-variant-ligatures:normal;font-variant-caps:normal;font-variant-numeric:normal;font-feature-settings:normal;text-align:start;letter-spacing:0px;word-spacing:0px;writing-mode:lr-tb;text-anchor:start;fill:#000000;fill-opacity:1;stroke:none"
           id="path995"
           inkscape:connector-curvature="0" /><path
           d="m -122.41128,663.1581 -24.93866,-48.53333 h -0.224 v 48.53333 h -11.872 v -74.66667 h 12.32 l 23.81866,47.78667 h 0.224 v -47.78667 h 11.872 v 74.66667 z"
           style="font-style:normal;font-variant:normal;font-weight:normal;font-stretch:normal;font-size:medium;line-height:1.25;font-family:ClearviewHwy-2B;-inkscape-font-specification:ClearviewHwy-2B;font-variant-ligatures:normal;font-variant-caps:normal;font-variant-numeric:normal;font-feature-settings:normal;text-align:start;letter-spacing:0px;word-spacing:0px;writing-mode:lr-tb;text-anchor:start;fill:#000000;fill-opacity:1;stroke:none"
           id="path997"
           inkscape:connector-curvature="0" /><path
           d="m -54.032945,641.8781 q 0.07467,10.37867 -5.450666,16.50133 -5.525334,6.048 -16.8,6.048 -5.824,0 -10.752,-1.71733 -4.927999,-1.71734 -9.258666,-4.55467 l 3.957333,-10.752 q 3.434667,2.83734 7.242667,4.928 3.882666,2.016 8.511999,2.016 5.002667,0 7.84,-2.83733 2.912,-2.912 2.912,-7.91467 0,-3.36 -1.194667,-5.67466 -1.194666,-2.31467 -2.986666,-4.032 -1.792,-1.792 -9.706666,-6.12267 -8.586667,-4.55467 -11.498667,-9.184 -2.837333,-4.704 -2.837333,-11.05067 0,-8.96 5.674667,-14.48533 5.749333,-5.6 14.559999,-5.6 5.077333,0 9.184,1.344 4.181333,1.344 8.063999,3.95733 l -2.911999,10.528 q -3.210667,-2.688 -6.346667,-4.18133 -3.061333,-1.568 -6.944,-1.568 -4.106666,0 -6.794666,2.38933 -2.688,2.31467 -2.688,7.09334 0,3.50933 2.613333,6.048 2.613333,2.53866 8.810667,5.6 2.911999,1.568 5.898666,3.43466 2.986667,1.792 5.376,4.48 2.464,2.61334 3.957333,6.34667 1.568,3.65867 1.568,8.96 z"
           style="font-style:normal;font-variant:normal;font-weight:normal;font-stretch:normal;font-size:medium;line-height:1.25;font-family:ClearviewHwy-2B;-inkscape-font-specification:ClearviewHwy-2B;font-variant-ligatures:normal;font-variant-caps:normal;font-variant-numeric:normal;font-feature-settings:normal;text-align:start;letter-spacing:0px;word-spacing:0px;writing-mode:lr-tb;text-anchor:start;fill:#000000;fill-opacity:1;stroke:none"
           id="path999"
           inkscape:connector-curvature="0" /></g></g></g></svg>