<svg xmlns="http://www.w3.org/2000/svg" width="412" height="272" viewBox="0 0 412 272">
  <g fill="none">
    <path fill="#C31926" d="M411.729995,254.66375 C411.729995,264.00125 404.089995,271.64125 394.752495,271.64125 L16.977495,271.64125 C7.64,271.64125 0,264.00125 0,254.66375 L0,16.97875 C0,7.64 7.64,0 16.977495,0 L394.752495,0 C404.089995,0 411.729995,7.64 411.729995,16.97875 L411.729995,254.66375 Z"/>
    <path fill="#FFF" d="M384 195.343345L127.405005 195.343345 137.436748 225.313364C137.756339 226.271121 137.929552 227.294512 137.929552 228.359226 137.929552 233.685231 133.596776 238 128.253995 238 126.226666 238 124.345714 237.380132 122.791672 236.317848L28 170.5 122.791672 104.682152C124.345714 103.622299 126.226666 103 128.253995 103 133.596776 103 137.929552 107.3172 137.929552 112.640774 137.929552 113.705488 137.756437 114.728879 137.436748 115.686636L127.405005 145.656655 384 145.656655 384 195.343345zM81.9525 79.22875C78.6825 83.50375 74.24 85.6 68.2875 85.6 60.32375 85.6 55.46125 82.41375 52.02375 75.45625 49.67625 70.6775 48 63.1325 48 56.42625 48 47.03625 50.3475 38.65375 54.20375 33.37125 57.4725 28.92875 62.1675 27 68.70625 27 84.38375 27 88.15625 43.7675 88.15625 56.42625 88.15625 65.3125 85.8925 74.19875 81.9525 79.22875zM68.70625 36.13875C63.67625 36.13875 61.33 38.15 59.3175 43.09625 57.97625 46.45 57.1375 51.6475 57.1375 56.42625 57.1375 62.37875 58.395 68.4975 60.575 72.1025 62.335 75.0375 64.6825 76.4625 68.2875 76.4625 72.47875 76.4625 75.07875 74.2825 77.00625 69.33625 78.18 66.31875 79.18625 60.785 79.18625 56.42625 79.18625 49.8875 77.76125 36.13875 68.70625 36.13875zM132.92663 84.59398L111.29663 46.28148 111.29663 84.59398 102.32663 84.59398 102.32663 28.00648 111.29663 28.00648 131.92038 64.13898 131.92038 28.00648 140.80663 28.00648 140.80663 84.59398 132.92663 84.59398zM155.38238 84.79487L155.38238 28.20737 188.74863 28.20737 188.74863 37.17737 164.35238 37.17737 164.35238 51.00987 180.78363 51.00987 180.78363 60.14737 164.35238 60.14737 164.35238 75.65737 190.50863 75.65737 190.50863 84.79487 155.38238 84.79487zM254.29863 84.79487L246.33488 84.79487 237.44863 48.49487 228.64488 84.79487 220.76488 84.79487 212.38238 28.20737 221.51988 28.20737 225.87863 57.96862 233.08863 28.20737 241.80738 28.20737 249.10113 57.96862 253.54363 28.20737 262.59863 28.20737 254.29863 84.79487zM305.69488 84.79487L300.16113 68.94987 282.47363 68.94987 276.93988 84.79487 267.38238 84.79487 286.83238 28.20737 295.80238 28.20737 315.25238 84.79487 305.69488 84.79487zM291.44363 43.88362L285.65863 59.81237 296.97613 59.81237 291.44363 43.88362zM345.22113 60.14737L345.22113 84.79487 336.25113 84.79487 336.25113 60.14737 316.38238 28.20737 327.11363 28.20737 340.60988 50.00362 354.35988 28.20737 364.83863 28.20737 345.22113 60.14737z"/>
  </g>
</svg>
