<svg xmlns="http://www.w3.org/2000/svg" width="206" height="273" viewBox="0 0 206 273">
  <g fill="none" transform="translate(1)">
    <path fill="#FFF" stroke="#000" d="M204.22262,255.16413 C204.22262,264.50163 196.58262,272.14163 187.24512,272.14163 L17.47012,272.14163 C8.132625,272.14163 0.492625,264.50163 0.492625,255.16413 L0.492625,17.47913 C0.492625,8.14038 8.132625,0.50038 17.47012,0.50038 L187.24512,0.50038 C196.58262,0.50038 204.22262,8.14038 204.22262,17.47913 L204.22262,255.16413 Z"/>
    <path fill="#000" d="M187.24512,4.74539 L17.47012,4.74539 C10.466375,4.74539 4.736375,10.47539 4.736375,17.47914 L4.736375,255.16414 C4.736375,262.16789 10.466375,267.89789 17.47012,267.89789 L187.24512,267.89789 C194.24887,267.89789 199.97887,262.16789 199.97887,255.16414 L199.97887,17.47914 C199.97887,10.47539 194.24887,4.74539 187.24512,4.74539 L187.24512,4.74539 Z M192.90512,255.16414 C192.90512,258.27664 190.35762,260.82289 187.24512,260.82289 L17.47012,260.82289 C14.357625,260.82289 11.810125,258.27664 11.810125,255.16414 L11.810125,17.47914 C11.810125,14.36664 14.357625,11.81914 17.47012,11.81914 L187.24512,11.81914 C190.35762,11.81914 192.90512,14.36664 192.90512,17.47914 L192.90512,255.16414 Z"/>
    <path fill="#000" d="M170.26688 222.66539L86.79438 222.66539 91.93438 238.07664C92.09813 238.56914 92.18688 239.09539 92.18688 239.64289 92.18688 242.38164 89.96688 244.60039 87.22938 244.60039 86.19063 244.60039 85.22688 244.28164 84.43063 243.73539L35.86188 209.89039 84.43063 176.04539C85.22688 175.50039 86.19063 175.18039 87.22938 175.18039 89.96688 175.18039 92.18688 177.40039 92.18688 180.13789 92.18688 180.68539 92.09818 181.21164 91.93438 181.70414L86.79438 197.11539 170.26688 197.11539 170.26688 222.66539zM65.57012 80.02138C62.30012 84.29638 57.85762 86.39263 51.90512 86.39263 43.94137 86.39263 39.07887 83.20638 35.64137 76.24888 33.29387 71.47013 31.61762 63.92513 31.61762 57.21888 31.61762 47.82888 33.96512 39.44638 37.82137 34.16388 41.09012 29.72138 45.78512 27.79263 52.32387 27.79263 68.00137 27.79263 71.77387 44.56013 71.77387 57.21888 71.77387 66.10513 69.51012 74.99138 65.57012 80.02138M52.32387 36.93138C47.29387 36.93138 44.94762 38.94263 42.93512 43.88888 41.59387 47.24263 40.75512 52.44013 40.75512 57.21888 40.75512 63.17138 42.01262 69.29013 44.19262 72.89513 45.95262 75.83013 48.30012 77.25513 51.90512 77.25513 56.09637 77.25513 58.69637 75.07513 60.62387 70.12888 61.79762 67.11138 62.80387 61.57763 62.80387 57.21888 62.80387 50.68013 61.37887 36.93138 52.32387 36.93138"/>
    <polygon fill="#000" points="116.544 85.387 94.914 47.074 94.914 85.387 85.944 85.387 85.944 28.799 94.914 28.799 115.538 64.932 115.538 28.799 124.424 28.799 124.424 85.387 116.544 85.387"/>
    <polygon fill="#000" points="138.684 85.387 138.684 28.799 172.05 28.799 172.05 37.769 147.654 37.769 147.654 51.602 164.085 51.602 164.085 60.739 147.654 60.739 147.654 76.249 173.81 76.249 173.81 85.387 138.684 85.387"/>
    <polygon fill="#000" points="69.992 158.956 62.028 158.956 53.142 122.656 44.338 158.956 36.458 158.956 28.075 102.368 37.213 102.368 41.572 132.13 48.782 102.368 57.5 102.368 64.794 132.13 69.237 102.368 78.292 102.368 69.992 158.956"/>
    <path fill="#000" d="M121.7385,158.95587 L116.20475,143.11087 L98.51725,143.11087 L92.9835,158.95587 L83.426,158.95587 L102.876,102.36837 L111.846,102.36837 L131.296,158.95587 L121.7385,158.95587 L121.7385,158.95587 Z M107.48725,118.04462 L101.70225,133.97337 L113.01975,133.97337 L107.48725,118.04462 Z"/>
    <polygon fill="#000" points="160.554 134.309 160.554 158.956 151.584 158.956 151.584 134.309 131.715 102.369 142.446 102.369 155.943 124.165 169.693 102.369 180.171 102.369 160.554 134.309"/>
  </g>
</svg>
