<svg xmlns="http://www.w3.org/2000/svg" width="604" height="554" viewBox="0 0 604 554">
  <g fill="none" fill-rule="evenodd">
    <path fill="#000" fill-rule="nonzero" d="M52,0 L552,0 C580.718807,-5.27555926e-15 604,23.281193 604,52 L604,502 C604,530.718807 580.718807,554 552,554 L52,554 C23.281193,554 3.51703951e-15,530.718807 0,502 L0,52 C-3.51703951e-15,23.281193 23.281193,5.27555926e-15 52,0 Z"/>
    <path fill="#FFF" fill-rule="nonzero" d="M52,2 L552,2 C579.614237,2 602,24.3857625 602,52 L602,502 C602,529.614237 579.614237,552 552,552 L52,552 C24.3857625,552 2,529.614237 2,502 L2,52 C2,24.3857625 24.3857625,2 52,2 Z"/>
    <path fill="#000" d="M475.47162,304.172336 L469.60414,340.068284 L469.60414,340.068281 C468.547826,346.551616 462.960221,351.313244 456.40549,351.315794 L421.931113,351.315794 L421.931112,351.315794 C419.475662,351.270292 417.231336,349.91422 416.044884,347.759215 L416.044884,347.759216 C407.686788,333.348024 392.312355,324.478856 375.680261,324.473689 L348.934112,324.473689 L348.934112,324.473689 C345.238744,324.471466 342.244856,321.467366 342.247071,317.763833 C342.247071,317.763608 342.247071,317.763384 342.247071,317.763159 L342.247071,210.394734 L342.247071,210.394667 C342.244521,206.69114 345.238142,203.686764 348.93351,203.684207 C348.933734,203.684207 348.933958,203.684207 348.934182,203.684207 L449.730573,203.684207 L449.730572,203.684207 C456.279371,203.687954 461.862992,208.441943 462.925205,214.918299 L475.461647,291.092171 L475.461648,291.092178 C476.176064,295.422561 476.179458,299.840826 475.47169,304.172336 L475.47162,304.172336 Z M438.845901,233.334675 L438.8459,233.334675 C438.581069,231.716163 437.186099,230.527695 435.549586,230.52632 L372.337075,230.52632 L372.337075,230.52632 C370.489666,230.528541 368.993221,232.030095 368.993221,233.881583 L368.993221,267.434216 L368.993221,267.434218 C368.993221,269.285706 370.489666,270.78726 372.337075,270.789481 L400.378182,270.789481 L400.378182,270.789481 C406.565378,270.792389 411.841095,275.283487 412.844988,281.402179 L412.844988,281.402178 C413.109943,283.021441 414.506035,284.210533 416.143312,284.210533 L443.281831,284.210533 L443.281832,284.210533 C445.130808,284.208632 446.628163,282.704886 446.62627,280.851828 C446.62627,280.669754 446.611108,280.487998 446.581496,280.30836 L438.845901,233.334675 Z M315.561184,364.736851 L250.81334,364.736851 L250.81334,364.736851 C249.217724,364.71926 247.858381,363.570749 247.57126,361.997614 L247.57126,361.997611 C246.076468,354.644618 242.838339,347.760021 238.130261,341.925084 L238.13026,341.925083 C237.27747,340.852748 237.453535,339.290598 238.523511,338.435925 C238.967354,338.081393 239.519208,337.890346 240.086759,337.894667 L322.258938,337.894667 L322.258938,337.894667 C325.956897,337.892517 328.95649,340.895118 328.958701,344.601241 C328.958701,344.602584 328.958701,344.603926 328.958701,344.605269 L328.958701,351.315795 L328.958701,351.315797 C328.958701,358.728043 322.963124,364.736851 315.567213,364.736851 C315.565204,364.736851 315.563194,364.736851 315.561185,364.736851 L315.561184,364.736851 Z M322.256928,324.473696 L134.695747,324.473696 L134.695747,324.473696 C130.997788,324.473696 128.000003,321.469288 128.000003,317.763165 C128.000003,317.763165 128.000003,317.763165 128.000003,317.763165 L128.000003,163.421054 L128.000003,163.421055 C128.000003,156.008808 133.995573,150.000001 141.391491,150.000001 C141.393724,150.000001 141.395956,150.000001 141.398189,150.000001 L315.561185,150.000001 L315.561185,150.000001 C322.957102,149.996667 328.955351,156.00277 328.9587,163.415017 C328.9587,163.41703 328.9587,163.419044 328.9587,163.421058 L328.9587,317.763169 L328.9587,317.76317 C328.9587,321.469293 325.960915,324.473696 322.262956,324.473696 C322.261617,324.473696 322.260277,324.473696 322.258937,324.473696 L322.256928,324.473696 Z M134.695747,337.894669 L163.286574,337.894669 L163.286574,337.894669 C164.654776,337.884151 165.772496,338.987158 165.783136,340.358387 C165.787447,340.927196 165.596821,341.480266 165.243068,341.925087 L165.243068,341.925087 C160.536261,347.760836 157.2983,354.645092 155.802069,361.997614 L155.802069,361.997614 C155.516019,363.570823 154.156831,364.719679 152.561329,364.736852 L141.396845,364.736852 L141.396846,364.736852 C134.000928,364.739816 128.002947,358.733413 128,351.321166 C128,351.319376 128,351.317586 128,351.315796 L128,344.60527 L128,344.605271 C128,340.899148 130.997785,337.894669 134.695744,337.894669 C134.695744,337.894669 134.695744,337.894669 134.695744,337.894669 L134.695747,337.894669 Z M201.600291,337.894726 L201.60029,337.894726 C220.090052,337.882144 235.089188,352.89398 235.101784,371.424562 C235.114349,389.955144 220.135583,404.987395 201.645822,405.000018 C183.15606,405.012612 168.156924,390.000776 168.144327,371.470193 C168.144327,371.462591 168.144327,371.454988 168.144327,371.447385 L168.144327,371.448903 C168.137945,352.923823 183.117218,337.901169 201.601421,337.894726 C201.601423,337.894726 201.601424,337.894726 201.601425,337.894726 L201.600291,337.894726 Z M375.795427,337.894726 L375.795429,337.894726 C394.28519,337.882886 409.283723,352.895322 409.295582,371.425904 C409.307408,389.956486 394.328043,404.988133 375.838281,405.000017 C357.34852,405.011869 342.349987,389.999434 342.338126,371.468851 C342.338126,371.461696 342.338126,371.45454 342.338126,371.447384 L342.338126,371.447562 C342.331744,352.923287 357.310414,337.90117 375.793882,337.894726 C375.795221,337.894726 375.796561,337.894726 375.797901,337.894726 L375.795427,337.894726 Z" transform="matrix(-1 0 0 1 604 0)"/>
  </g>
</svg>
