<?xml version="1.0" encoding="utf-8"?>
<!-- Generator: Adobe Illustrator 16.0.0, SVG Export Plug-In . SVG Version: 6.00 Build 0)  -->
<!DOCTYPE svg PUBLIC "-//W3C//DTD SVG 1.1//EN" "http://www.w3.org/Graphics/SVG/1.1/DTD/svg11.dtd">
<svg version="1.1" id="Layer_1" xmlns="http://www.w3.org/2000/svg" xmlns:xlink="http://www.w3.org/1999/xlink" x="0px" y="0px"
	 width="396.859px" height="396.998px" viewBox="0 0 396.859 396.998" enable-background="new 0 0 396.859 396.998"
	 xml:space="preserve">
<g>
	<path fill-rule="evenodd" clip-rule="evenodd" fill="#E94E1B" d="M0,368.617V198.499h396.859v170.118
		c0,15.66-12.57,28.334-28.137,28.381H28.369C12.707,396.998,0,384.301,0,368.617"/>
	<path fill-rule="evenodd" clip-rule="evenodd" fill="#FFE609" d="M0,198.499V28.367C0,12.707,12.707,0,28.369,0h340.354
		c15.566,0.045,28.137,12.742,28.137,28.367v170.132H0z"/>
</g>
<path fill-rule="evenodd" clip-rule="evenodd" fill="#0D7ABF" d="M76.558,207.97"/>
<g>
	<g>
		<path fill="#FFFFFF" d="M198.423,12.982c102.383,0,185.493,83.098,185.493,185.48c0,35.738-10.127,69.125-27.666,97.448
			l-0.058,0.086H40.671c-17.539-28.322-27.729-61.794-27.729-97.534C12.943,96.08,96.054,12.982,198.423,12.982"/>
		<path d="M356.219,295.997c-32.705,52.814-91.184,88.019-157.828,88.019c-66.632,0-125.045-35.117-157.75-87.931h315.521
			L356.219,295.997z"/>
	</g>
	<g>
		<path fill="#0D7ABF" d="M198.422,22.916c96.902,0,175.563,78.647,175.563,175.549c0,33.824-9.585,65.426-26.185,92.231
			l-0.055,0.083H49.117c-16.6-26.809-26.244-58.488-26.244-92.314C22.874,101.563,101.535,22.916,198.422,22.916"/>
		<path fill="#FFFFFF" d="M347.771,290.779c-30.954,49.985-86.301,83.305-149.377,83.305c-63.065,0-118.351-33.24-149.304-83.224
			h298.628L347.771,290.779z"/>
	</g>
	<rect x="42.896" y="285.817" fill="#FFFFFF" width="310.678" height="9.931"/>
	<rect x="49.089" y="295.997" width="298.682" height="9.931"/>
	<g>
		<path fill="#FFFFFF" d="M102.637,58.916H258.43c0.799,0.179,1.531,0.312,2.196,0.399c0.667,0.09,1.308,0.134,1.929,0.134h0.667
			l5.854,1.062c1.684,0.623,3.215,1.155,4.59,1.599c1.376,0.444,2.684,0.798,3.927,1.063c27.057,14.019,40.587,34.334,40.587,60.947
			c0,1.686-0.066,3.394-0.199,5.123c-0.134,1.729-0.289,3.482-0.467,5.257c-9.049,36.55-31.094,47.889-66.137,47.889
			c-1.862,0-3.748-0.043-5.655-0.133c-1.908-0.088-40.11-0.221-42.15-0.399h-65.271L138.3,285.967h-35.663L102.637,58.916z
			 M137.768,150.454h109.618c2.749,0,5.011,0.177,6.786,0.531c0.354-0.354,0.666-0.531,0.932-0.531h0.133l3.726-0.533l3.194-0.532
			c14.904-7.719,22.355-11.205,22.355-24.337c0-4.345-0.888-9.181-2.661-14.504c-4.081-7.097-9.228-12.596-15.437-16.501
			c-3.017-0.62-5.678-1.508-7.984-2.662h-2.66l-3.194-0.531H137.768V150.454z"/>
	</g>
	<g>
		<path d="M113.798,319.78l-0.203,0.151l-0.861,0.305l-0.203,0.102l-0.203,0.051c-0.245,0.143-0.464,0.244-0.659,0.304l-0.253,0.05
			l-0.101,0.102h-0.152l-0.102,0.102h-0.152l-0.101,0.102h-0.152l-0.102,0.102l-0.202,0.051l-0.558,0.203
			c-0.845-3.066-2.804-4.299-5.878-3.699c-2.381,0.92-3.547,2.693-3.496,5.32c-0.312,2.728,0.346,4.788,1.976,6.182
			c1.343,0.912,2.745,1.148,4.206,0.709c1.841-0.6,2.889-1.799,3.142-3.598c0.321,0.06,0.591,0.16,0.811,0.305
			c0.347,0.093,0.634,0.193,0.862,0.304l0.203,0.101l0.304,0.102l0.152,0.051l0.354,0.152l0.203,0.051l0.151,0.102
			c0.169,0.042,0.305,0.093,0.406,0.152l0.608,0.202c-1.351,3.749-3.868,5.776-7.55,6.081c-3.725,0.27-6.545-0.997-8.462-3.801
			c-2.044-3.605-2.348-7.17-0.912-10.691c1.452-3.354,3.851-5.244,7.195-5.676C108.993,313.497,112.235,315.507,113.798,319.78z"/>
		<path d="M128.122,323.276c0.118,0.151,0.202,0.304,0.253,0.456c0.727,2.939,0.372,5.523-1.064,7.752
			c-2.018,2.323-4.417,3.084-7.195,2.281c-2.922-0.996-4.51-3.074-4.764-6.232c-0.253-4.831,1.773-7.635,6.081-8.412
			C124.761,319.096,126.99,320.481,128.122,323.276z M119.204,326.772c-0.051,2.171,0.844,3.454,2.686,3.851
			c2.212-0.151,3.209-1.773,2.989-4.863c-0.262-2.137-1.343-3.219-3.243-3.243C119.795,323.311,118.984,324.729,119.204,326.772z"/>
		<path d="M131.501,319.679h0.253h0.203h0.253h0.203h0.253h0.659h0.203h0.861h0.406h0.354l0.051,9.07
			c0.887,1.706,2.17,2.077,3.851,1.114c0.507-0.405,0.861-0.878,1.064-1.418v-0.152v-1.014v-0.354v-0.354v-0.203v-0.254v-0.658
			v-0.203v-0.861v-0.151v-0.608v-0.203v-0.202v-0.151v-0.912v-0.659v-0.202v-0.861v-0.152v-0.608h1.013h0.253h0.152h0.202h0.203
			h0.202h0.203h0.861h0.152h0.608v13.833h-1.013h-0.253h-0.152h-0.202h-0.203h-0.202h-0.203h-0.861h-0.152h-0.608V332.6
			c-2.01,1.453-4.021,1.621-6.03,0.507c-0.912-0.583-1.588-1.274-2.026-2.077l-0.102-0.051l-0.051-0.152l-0.051-0.152
			c-0.076-0.168-0.126-0.304-0.152-0.404l-0.05-0.152c-0.161-0.523-0.262-0.945-0.304-1.268l-0.051-1.114v-0.354v-0.305v-0.861
			v-0.151v-0.608v-0.658v-0.203v-0.861v-0.152v-0.607v-0.558v-0.253v-0.659v-0.202v-0.861v-0.152v-0.608H131.501z"/>
		<path d="M160.621,327.584c-0.279,2.964-1.63,4.939-4.054,5.928c-2.222,0.693-4.164,0.406-5.827-0.861v5.017h-0.861h-0.203h-0.253
			h-0.659h-0.202H147.7h-0.152h-0.608v-0.405v-0.406v-0.404v-0.406v-0.354v-0.406v-0.354v-0.151v-0.254v-0.152v-0.203v-0.151v-1.013
			v-0.203v-0.912v-0.305v-0.354v-1.014v-0.406v-0.404v-0.406v-0.405v-1.013v-0.152v-0.152v-1.57v-0.355v-0.304v-0.354v-0.305v-0.253
			v-0.304v-0.203v-0.912v-0.557v-0.203v-0.203v-0.202v-0.202v-0.861v-0.152v-0.608h0.862h0.203h0.253h0.659h0.203h0.861h0.406h0.354
			v0.558c0.979-0.65,1.976-1.039,2.989-1.166C158.619,319.164,160.916,321.984,160.621,327.584z M150.892,324.239v0.151
			l-0.101,0.406l-0.102,0.354v2.888c0.414,1.436,1.309,2.247,2.686,2.433c1.554,0.11,2.567-0.498,3.04-1.824
			c0.473-1.427,0.49-2.778,0.051-4.054c-0.448-1.537-1.545-2.229-3.293-2.077C152.142,322.829,151.382,323.403,150.892,324.239z"/>
		<path d="M174.793,323.276c0.118,0.151,0.202,0.304,0.253,0.456c0.727,2.939,0.372,5.523-1.064,7.752
			c-2.018,2.323-4.417,3.084-7.195,2.281c-2.922-0.996-4.51-3.074-4.764-6.232c-0.253-4.831,1.773-7.635,6.081-8.412
			C171.432,319.096,173.661,320.481,174.793,323.276z M165.875,326.772c-0.051,2.171,0.844,3.454,2.686,3.851
			c2.212-0.151,3.209-1.773,2.989-4.863c-0.262-2.137-1.343-3.219-3.243-3.243C166.466,323.311,165.655,324.729,165.875,326.772z"/>
		<path d="M190.029,322.162l0.051,0.151l0.05,0.152l0.051,0.151c0.084,0.145,0.135,0.279,0.152,0.406l0.203,0.607v0.152
			c0.118,0.607,0.168,1.098,0.152,1.469v8.26h-1.014h-0.253h-0.152h-0.202h-0.203h-0.203h-0.203h-0.861h-0.152h-0.607v-0.152v-0.253
			v-0.151v-0.203V332.6v-1.014v-0.709v-0.557v-0.254v-0.152v-0.203v-0.151v-1.013v-0.203v-0.558v-0.507v-0.912v-0.152v-0.151v-0.202
			v-0.912v-0.203c-0.085-0.211-0.136-0.396-0.152-0.558c-0.405-0.71-0.946-1.165-1.621-1.368c-1.402-0.033-2.433,0.507-3.091,1.621
			l-0.101,0.355v8.715h-1.014h-0.253h-0.152h-0.203h-0.203h-0.203h-0.202h-0.861h-0.152h-0.608v-0.152v-0.253v-0.151v-0.203V332.6
			v-1.014v-0.354v-0.203v-0.254v-0.203v-0.252v-0.659v-0.203v-0.861v-0.151v-0.608v-0.354v-0.355v-0.304v-0.354v-0.305v-0.354
			v-0.305v-0.861v-0.305v-0.253v-0.304v-0.203v-0.912v-0.557v-0.203v-0.203v-0.202v-0.202v-0.861v-0.152v-0.608h1.013h0.253h0.152
			h0.203h0.202h0.203h0.203h0.861h0.152h0.608c-0.018,0.347,0,0.634,0.051,0.861c0.844-0.667,1.739-1.072,2.686-1.216
			C186.921,319.248,188.729,320.193,190.029,322.162z"/>
		<path d="M202.462,314.105h0.405h0.152h0.152h1.57h0.355h0.304h0.354h0.304h0.254h0.304h0.203h0.912h0.557h0.203h0.203h0.202h0.202
			h0.861h0.152h0.608h0.151l0.102,0.051h0.152l0.354,0.051l0.152,0.05l0.709,0.152c3.167,1.521,4.501,3.919,4.003,7.195
			c-1.132,3.876-3.716,5.565-7.752,5.067h-0.203h-0.558h-0.253h-0.152h-0.202h-0.152h-1.014v6.789h-0.658h-0.203h-0.912h-0.202
			h-0.203h-0.203h-0.861h-0.151h-0.608v-0.152v-0.202v-0.151v-0.203v-0.912v-0.405v-0.405v-0.152v-1.014v-0.202v-0.253v-0.203
			v-0.254v-0.658v-0.203v-0.861v-0.152v-0.607v-0.203v-0.253v-0.659v-0.202v-0.861v-0.152v-0.608v-0.354v-0.406v-0.405v-0.405
			v-0.152v-0.152v-1.57v-0.354v-0.304v-0.355v-0.304v-0.253v-0.305v-0.202v-0.912v-0.558v-0.203v-0.202v-0.202v-0.203v-0.861v-0.152
			v-0.607H202.462z M206.06,323.023h0.203h0.202h0.203h0.558h0.558h0.912h0.151h0.152h0.202h0.912h0.203
			c0.211-0.084,0.396-0.135,0.557-0.152c1.41-0.836,1.884-1.984,1.419-3.445c-0.312-0.727-0.802-1.233-1.469-1.521h-0.152
			c-0.523-0.151-0.997-0.202-1.419-0.151h-0.253h-0.203h-0.253h-0.659h-0.202h-0.861h-0.152h-0.608V323.023z"/>
		<path d="M228.846,320.844l0.051,0.102c0.135,0.17,0.236,0.338,0.304,0.507c0.178,0.263,0.296,0.499,0.354,0.71v0.202
			c0.102,0.329,0.152,0.616,0.152,0.861v4.966c-0.033,0.836,0,1.529,0.102,2.078c0.414,0.43,0.887,0.701,1.419,0.811l-0.102,0.152
			l-0.102,0.252l-0.101,0.203l-0.051,0.152l-0.051,0.152l-0.102,0.151l-0.203,0.507l-0.102,0.152l-0.05,0.152l-0.051,0.151
			l-0.051,0.102l-0.354,0.76c-1.504,0.009-2.635-0.464-3.396-1.419c-1.444,1.436-3.234,1.791-5.371,1.064
			c-1.968-0.541-3.116-1.74-3.445-3.598c0.017-2.728,1.3-4.315,3.851-4.764c0.135-0.084,0.271-0.135,0.406-0.151h0.151
			c0.051-0.034,0.102-0.051,0.152-0.051l0.151-0.051l0.912-0.151l0.406-0.051l0.151-0.051l0.861-0.051
			c0.456-0.067,0.828-0.084,1.115-0.051c0.126-1.883-0.904-2.525-3.091-1.926l-0.152,0.051l-0.405,0.051l-0.354,0.152l-0.152,0.051
			l-0.507,0.152c-0.262,0.177-0.498,0.295-0.709,0.354c-0.287,0.221-0.575,0.372-0.861,0.457l-0.354-0.659l-0.102-0.051
			l-0.051-0.151l-0.102-0.102l-0.051-0.152c-0.22-0.254-0.371-0.49-0.456-0.709c-0.135-0.127-0.22-0.262-0.253-0.406
			c-0.22-0.211-0.355-0.43-0.405-0.658l0.101-0.051l0.152-0.102l0.102-0.051c0.228-0.152,0.431-0.27,0.607-0.354
			c0.136-0.093,0.271-0.144,0.406-0.151l0.101-0.102c0.312-0.144,0.583-0.245,0.812-0.305l0.101-0.102h0.152
			c0.16-0.101,0.296-0.168,0.405-0.202h0.152c0.228-0.118,0.447-0.186,0.658-0.202c0.465-0.195,0.904-0.296,1.317-0.305l0.152-0.051
			C225.383,318.969,227.309,319.544,228.846,320.844z M225.502,327.482h-0.152c-0.203,0.059-0.372,0.093-0.507,0.102h-0.152
			c-0.05,0.033-0.101,0.051-0.151,0.051l-0.203,0.05h-0.152l-0.202,0.051l-0.304,0.051c-0.051,0.034-0.102,0.051-0.152,0.051
			l-0.203,0.051l-0.151,0.05c-0.474,0.119-0.845,0.237-1.115,0.355c-0.354,0.473-0.456,0.963-0.304,1.469
			c0.844,1.184,2.061,1.386,3.648,0.608l0.405-0.608l0.051-0.202v-0.202v-0.152v-0.254v-0.152v-0.202v-0.151v-1.014h-0.152
			L225.502,327.482z"/>
		<path d="M240.079,319.477h0.151h1.014v3.648c-1.951-0.254-3.353,0.371-4.205,1.874v0.152c-0.152,0.397-0.221,0.785-0.203,1.165
			v7.195h-0.861h-0.203h-0.253h-0.659h-0.202h-0.861h-0.152h-0.608v-0.152v-0.253v-0.151v-0.203V332.6v-1.014v-0.354v-1.014v-0.406
			v-0.404v-0.406v-0.405v-1.013v-0.152v-0.152v-1.57v-0.355v-0.304v-0.354v-0.305v-0.253v-0.304v-0.203v-0.912v-0.557v-0.203v-0.203
			v-0.202v-0.202v-0.861v-0.152v-0.608h0.861h0.203h0.254h0.658h0.203h0.861h0.152h0.607v1.317c0.895-0.903,1.908-1.428,3.04-1.57
			H240.079z"/>
		<path d="M244.775,314.207h0.203h0.253h0.659h0.202h0.861h0.405h0.355v10.285l0.202-0.202l0.202-0.203l0.152-0.202l0.102-0.102
			l0.102-0.051c0.127-0.169,0.244-0.305,0.354-0.405l0.102-0.051c0.169-0.236,0.354-0.423,0.558-0.558l0.151-0.152
			c0.169-0.236,0.354-0.422,0.558-0.557c0.109-0.16,0.229-0.279,0.354-0.355c0.11-0.16,0.229-0.277,0.354-0.354l0.051-0.102
			l0.102-0.051c0.127-0.169,0.245-0.305,0.354-0.406l0.152-0.101c0.033-0.06,0.067-0.093,0.102-0.102l0.05-0.101l0.102-0.102
			l0.102-0.051l0.051-0.102l0.102-0.051c0.127-0.169,0.244-0.304,0.354-0.405h0.304h0.659h0.202h0.912h0.558h0.203h0.202h0.203
			h0.202h0.861h0.405h0.355l-0.203,0.304l-0.253,0.203l-0.203,0.254l-0.659,0.658l-0.101,0.051
			c-0.169,0.228-0.338,0.396-0.507,0.506c-0.169,0.229-0.338,0.397-0.507,0.508l-0.051,0.101l-0.101,0.102l-0.102,0.102l-0.102,0.05
			c-0.034,0.06-0.068,0.094-0.102,0.102l-0.558,0.608l-0.507,0.456l-0.151,0.203l-0.152,0.102l-0.101,0.151l-0.152,0.102
			c-0.11,0.16-0.229,0.278-0.355,0.354c-0.236,0.33-0.473,0.582-0.709,0.76l0.051,0.152l0.102,0.051l0.202,0.354l0.051,0.102
			c0.118,0.151,0.203,0.287,0.254,0.405c0.253,0.338,0.438,0.625,0.558,0.861l0.202,0.305l0.151,0.303l0.203,0.203l0.051,0.102
			l0.405,0.709c0.076,0.085,0.127,0.17,0.152,0.254c0.177,0.203,0.312,0.389,0.405,0.557l0.152,0.254l0.101,0.152l0.051,0.102
			c0.118,0.16,0.203,0.295,0.254,0.404c0.126,0.152,0.211,0.305,0.253,0.457l0.152,0.151l0.102,0.152l0.101,0.202l0.102,0.102
			l0.051,0.152l0.202,0.354l0.102,0.051l0.051,0.151l0.203,0.355c0.219,0.236,0.371,0.473,0.456,0.709h-0.305h-1.57h-0.71h-0.151
			h-0.254h-0.151h-0.203h-0.152h-1.013l-0.507-0.76l-0.102-0.254c-0.245-0.27-0.414-0.523-0.507-0.76l-0.202-0.254l-0.102-0.252
			l-0.203-0.254l-0.102-0.203c-0.168-0.211-0.287-0.414-0.354-0.607l-0.152-0.203l-0.305-0.405l-0.101-0.151l-0.051-0.152
			l-0.102-0.152l-0.102-0.102c-0.16-0.329-0.329-0.6-0.507-0.811l-0.253,0.254c-0.118,0.16-0.22,0.278-0.304,0.354l-0.152,0.152
			l-0.102,0.102l-0.102,0.051c-0.16,0.229-0.329,0.414-0.506,0.558v3.851h-0.861h-0.203h-0.254h-0.658h-0.203h-0.861h-0.151h-0.608
			v-0.405v-1.013v-0.406v-0.152v-0.202v-0.912v-0.151v-1.014v-0.406v-0.202v-0.912v-0.151v-0.152v-1.57v-0.355v-0.152v-0.202v-0.912
			v-0.71v-0.151v-0.253v-0.152v-0.203v-0.152v-1.013v-0.862v-0.151v-0.608v-0.658v-0.203v-0.861v-0.152V317.5v-0.558v-0.253v-0.658
			v-0.203v-0.861v-0.152v-0.607H244.775z"/>
		<path d="M262.899,315.879c0.025,0.954-0.296,1.697-0.963,2.229c-1.528,0.609-2.609,0.237-3.243-1.114
			c-0.338-1.521,0.203-2.499,1.622-2.938C261.709,314.029,262.57,314.637,262.899,315.879z M259.707,319.729h0.203h0.253h0.659
			h0.203h0.861h0.404h0.355v13.833h-0.71h-0.558h-0.253h-0.151h-0.203h-0.152h-1.014h-0.151h-0.608v-0.152v-0.253v-0.151v-0.203
			v-0.152v-1.014v-0.354v-0.202v-0.254v-0.203v-0.253v-0.659v-0.202v-0.861v-0.151v-0.608v-0.354v-0.355v-0.304v-0.354v-0.305
			v-0.354v-0.305v-0.861v-0.305v-0.253v-0.304v-0.203v-0.912v-0.557v-0.203v-0.203v-0.202v-0.202v-0.861v-0.152v-0.608H259.707z"/>
		<path d="M277.781,322.162l0.051,0.151l0.051,0.152l0.051,0.151c0.084,0.145,0.135,0.279,0.151,0.406l0.203,0.607v0.152
			c0.118,0.607,0.169,1.098,0.151,1.469v8.26h-1.014h-0.253h-0.151h-0.203h-0.203h-0.202h-0.203h-0.861h-0.151h-0.608v-0.152v-0.253
			v-0.151v-0.203V332.6v-1.014v-0.709v-0.557v-0.254v-0.152v-0.203v-0.151v-1.013v-0.203v-0.558v-0.507v-0.912v-0.152v-0.151v-0.202
			v-0.912v-0.203c-0.085-0.211-0.136-0.396-0.152-0.558c-0.405-0.71-0.945-1.165-1.621-1.368c-1.402-0.033-2.433,0.507-3.091,1.621
			l-0.102,0.355v8.715h-1.014h-0.253h-0.152h-0.202h-0.203h-0.203h-0.202h-0.861h-0.152h-0.607v-0.152v-0.253v-0.151v-0.203V332.6
			v-1.014v-0.354v-0.203v-0.254v-0.203v-0.252v-0.659v-0.203v-0.861v-0.151v-0.608v-0.354v-0.355v-0.304v-0.354v-0.305v-0.354
			v-0.305v-0.861v-0.305v-0.253v-0.304v-0.203v-0.912v-0.557v-0.203v-0.203v-0.202v-0.202v-0.861v-0.152v-0.608h1.013h0.254h0.152
			h0.202h0.202h0.203h0.203h0.861h0.152h0.607c-0.018,0.347,0,0.634,0.051,0.861c0.844-0.667,1.739-1.072,2.686-1.216
			C274.673,319.248,276.48,320.193,277.781,322.162z"/>
		<path d="M289.926,320.338c0.06-0.254,0.076-0.473,0.051-0.659h0.861h0.203h0.254h0.658h0.203h0.861h0.151h0.608v13.327
			l-0.051,0.151c-0.009,0.431-0.076,0.802-0.203,1.114c-0.051,0.236-0.101,0.423-0.151,0.558l-0.102,0.102
			c-0.304,0.71-0.71,1.284-1.216,1.723l-0.152,0.102l-0.152,0.051c-0.084,0.109-0.186,0.194-0.304,0.253l-0.151,0.051
			c-0.034,0.043-0.068,0.059-0.102,0.051l-0.102,0.102l-0.152,0.051l-0.607,0.304c-3.514,0.861-6.689,0.473-9.526-1.165l0.051-0.203
			l0.456-0.709l0.051-0.152l0.051-0.102l0.051-0.102l0.101-0.202l0.102-0.152c0.186-0.278,0.321-0.515,0.405-0.709l0.051-0.102
			l0.102-0.101c0.109-0.236,0.211-0.423,0.304-0.559c0.312,0.11,0.565,0.246,0.76,0.406c1.866,0.827,3.708,1.063,5.523,0.709
			c0.152-0.127,0.304-0.211,0.456-0.254c0.109-0.16,0.229-0.278,0.354-0.354l0.051-0.102l0.202-0.355l0.102-0.354v-0.912
			c-2.373,1.014-4.535,0.929-6.485-0.253c-1.799-1.166-2.745-2.77-2.838-4.814c-0.186-4.535,1.689-7.068,5.625-7.6
			C287.68,319.392,288.896,319.679,289.926,320.338z M284.504,325.557c-0.262,1.402,0.076,2.517,1.014,3.344
			c0.896,0.533,1.808,0.668,2.736,0.406c1.419-0.321,1.993-1.773,1.723-4.357c-0.455-1.537-1.537-2.23-3.242-2.078
			C285.341,323.26,284.598,324.154,284.504,325.557z"/>
	</g>
</g>
<g>
	<path fill-rule="evenodd" clip-rule="evenodd" fill="#FFFFFF" d="M188.228,250.76L188.228,250.76c4.109,0,7.445,3.335,7.445,7.443
		c0,4.112-3.336,7.444-7.445,7.444c-4.108,0-7.445-3.332-7.445-7.444C180.783,254.095,184.119,250.76,188.228,250.76
		 M188.228,246.018L188.228,246.018c6.728,0,12.188,5.461,12.188,12.186c0,6.729-5.459,12.189-12.188,12.189
		c-6.728,0-12.188-5.461-12.188-12.189C176.039,251.479,181.5,246.018,188.228,246.018z M188.228,238.573L188.228,238.573
		c10.838,0,19.634,8.796,19.634,19.63c0,10.838-8.796,19.634-19.634,19.634c-10.837,0-19.632-8.796-19.632-19.634
		C168.596,247.369,177.39,238.573,188.228,238.573z"/>
	<path fill-rule="evenodd" clip-rule="evenodd" fill="#FFFFFF" d="M272.346,250.76L272.346,250.76c4.109,0,7.444,3.335,7.444,7.443
		c0,4.112-3.335,7.444-7.444,7.444s-7.446-3.332-7.446-7.444C264.899,254.095,268.236,250.76,272.346,250.76 M272.346,246.018
		L272.346,246.018c6.728,0,12.188,5.461,12.188,12.186c0,6.729-5.461,12.189-12.188,12.189c-6.729,0-12.189-5.461-12.189-12.189
		C260.156,251.479,265.617,246.018,272.346,246.018z M272.346,238.573L272.346,238.573c10.838,0,19.632,8.796,19.632,19.63
		c0,10.838-8.794,19.634-19.632,19.634c-10.839,0-19.635-8.796-19.635-19.634C252.711,247.369,261.507,238.573,272.346,238.573z"/>
	<path fill-rule="evenodd" clip-rule="evenodd" fill="#FFFFFF" d="M253.131,253.941c0.962-4.621,3.663-8.705,7.327-11.465
		c0.48-0.541,0.359-1.201-0.541-1.201h-8.046v12.666C251.871,254.723,252.892,254.903,253.131,253.941 M232.178,224.587
		l-15.37,8.884l12.489,5.042l8.345-8.466C235.18,228.548,233.857,227.289,232.178,224.587z M281.652,236.113
		c8.585,3.721,14.589,12.246,14.589,22.15h-7.984l-4.204-10.566l-13.209-5.701l-13.568,9.064v16.57h-16.992
		c-8.166,0.061-13.749,0.061-20.774,0.061c-6.964,0-9.187-4.863-9.187-9.488c0-12.186-10.027-22.211-22.214-22.211l-0.36,0.061
		v-8.166h4.923c3.963,0,10.147-2.102,12.608-5.881l10.147-15.611h-0.002c1.262-2.04,2.163-0.9,1.803,0.302l-4.144,17.229
		c-0.539,2.161,1.983,3.541,4.144,1.501l5.103-4.682l5.463-9.066v-1.08v-0.061c-0.019,0-0.04,0-0.059,0
		c-2.59,0-4.701-1.711-4.743-3.841v-6.065h-1.68c0.419-4.261,2.882-7.744,7.864-7.744c4.922,0,7.684,3.483,7.684,7.744
		c-0.059,3.843-0.839,3.783-1.498,4.983v2.763c0.659-0.061,1.379,0.061,2.52,0.541c1.083,0.42,5.223,2.04,6.125,2.581
		c0.9,0.54,1.26,0.599,2.401,1.802l9.728,10.145c2.16,2.221,2.34,4.622,2.34,6.783h19.635c2.7,0,3.602,1.621,3.602,4.922
		L281.652,236.113z"/>
</g>
</svg>
