<?xml version="1.0" encoding="UTF-8" standalone="no"?>
<!-- Created with Inkscape (http://www.inkscape.org/) -->

<svg
   xmlns:dc="http://purl.org/dc/elements/1.1/"
   xmlns:cc="http://creativecommons.org/ns#"
   xmlns:rdf="http://www.w3.org/1999/02/22-rdf-syntax-ns#"
   xmlns:svg="http://www.w3.org/2000/svg"
   xmlns="http://www.w3.org/2000/svg"
   xmlns:sodipodi="http://sodipodi.sourceforge.net/DTD/sodipodi-0.dtd"
   xmlns:inkscape="http://www.inkscape.org/namespaces/inkscape"
   width="606mm"
   height="1216mm"
   viewBox="0 0 606 1216"
   version="1.1"
   id="svg823"
   inkscape:version="0.92.2 (5c3e80d, 2017-08-06)"
   sodipodi:docname="Singapore_road_sign_-_Informatory_-_Mandatory_give_way_to_buses.svg">
  <defs
     id="defs817" />
  <sodipodi:namedview
     id="base"
     pagecolor="#ffffff"
     bordercolor="#666666"
     borderopacity="1.0"
     inkscape:pageopacity="0.0"
     inkscape:pageshadow="2"
     inkscape:zoom="0.11934092"
     inkscape:cx="1560.2388"
     inkscape:cy="1894.235"
     inkscape:document-units="mm"
     inkscape:current-layer="layer1"
     showgrid="false"
     inkscape:window-width="1920"
     inkscape:window-height="1057"
     inkscape:window-x="-8"
     inkscape:window-y="-8"
     inkscape:window-maximized="1"
     inkscape:snap-global="false"
     fit-margin-top="0"
     fit-margin-left="0"
     fit-margin-right="0"
     fit-margin-bottom="0"
     showguides="true"
     showborder="true"
     inkscape:measure-start="0,0"
     inkscape:measure-end="0,0" />
  <metadata
     id="metadata820">
    <rdf:RDF>
      <cc:Work
         rdf:about="">
        <dc:format>image/svg+xml</dc:format>
        <dc:type
           rdf:resource="http://purl.org/dc/dcmitype/StillImage" />
        <dc:title></dc:title>
      </cc:Work>
    </rdf:RDF>
  </metadata>
  <g
     inkscape:label="Layer 1"
     inkscape:groupmode="layer"
     id="layer1"
     transform="translate(-110.5,1474.4999)">
    <rect
       style="opacity:1;fill:#000000;fill-opacity:1;fill-rule:nonzero;stroke:none;stroke-width:0.08126824;stroke-linecap:square;stroke-linejoin:round;stroke-miterlimit:10;stroke-dasharray:none;stroke-opacity:1;paint-order:stroke fill markers"
       id="rect1368"
       width="604"
       height="904"
       x="111.5"
       y="-1473.4999"
       rx="52"
       ry="52" />
    <rect
       ry="50"
       rx="50"
       y="-1471.4999"
       x="113.5"
       height="900"
       width="600"
       id="rect1370"
       style="opacity:1;fill:#ffffff;fill-opacity:1;fill-rule:nonzero;stroke:none;stroke-width:0.08081928;stroke-linecap:square;stroke-linejoin:round;stroke-miterlimit:10;stroke-dasharray:none;stroke-opacity:1;paint-order:stroke fill markers" />
    <rect
       style="opacity:1;fill:#0046aa;fill-opacity:1;fill-rule:nonzero;stroke:none;stroke-width:0;stroke-linecap:square;stroke-linejoin:miter;stroke-miterlimit:10;stroke-dasharray:none;stroke-opacity:1;paint-order:fill markers stroke"
       id="rect826"
       width="560"
       height="860"
       x="133.50006"
       y="-1451.4999"
       rx="30"
       ry="30" />
    <path
       style="fill:#ffffff;fill-opacity:1;fill-rule:nonzero;stroke:none;stroke-width:8.5062542"
       d="m 618.5,-966.50033 55,99.99995 h -26 v 229.99995 h -58 v -229.99995 h -26 z"
       id="path6733"
       inkscape:connector-curvature="0"
       sodipodi:nodetypes="cccccccc" />
    <path
       d="m 533.5,-708.50043 v 72 h 10 v -72 z"
       style="fill:#ffffff;stroke:none;stroke-width:0.60459775;stroke-linecap:butt;stroke-linejoin:bevel;stroke-miterlimit:10;stroke-dasharray:none;stroke-opacity:1"
       id="path7725"
       inkscape:connector-curvature="0" />
    <path
       inkscape:connector-curvature="0"
       id="path7745"
       style="fill:#ffffff;stroke:none;stroke-width:0.60459775;stroke-linecap:butt;stroke-linejoin:bevel;stroke-miterlimit:10;stroke-dasharray:none;stroke-opacity:1"
       d="m 533.5,-808.50038 v 72 h 10 v -72 z" />
    <path
       inkscape:connector-curvature="0"
       id="path7747"
       style="fill:#ffffff;stroke:none;stroke-width:0.60459775;stroke-linecap:butt;stroke-linejoin:bevel;stroke-miterlimit:10;stroke-dasharray:none;stroke-opacity:1"
       d="m 533.5,-908.50038 v 72 h 10 v -72 z" />
    <path
       d="m 533.5,-1008.5002 v 71.99987 h 10 v -71.99987 z"
       style="fill:#ffffff;stroke:none;stroke-width:0.60459775;stroke-linecap:butt;stroke-linejoin:bevel;stroke-miterlimit:10;stroke-dasharray:none;stroke-opacity:1"
       id="path7749"
       inkscape:connector-curvature="0" />
    <path
       inkscape:connector-curvature="0"
       id="path7751"
       style="fill:#ffffff;stroke:none;stroke-width:0.60459775;stroke-linecap:butt;stroke-linejoin:bevel;stroke-miterlimit:10;stroke-dasharray:none;stroke-opacity:1"
       d="m 533.5,-1108.5002 v 72 h 10 v -72 z" />
    <path
       style="clip-rule:evenodd;fill:#ffffff;fill-rule:nonzero;stroke:none;stroke-width:1.60308719"
       d="m 334.50018,-1036.5002 c 129.60922,0.5287 150.19962,52.26177 150.19962,52.25977 L 498.5,-848.50035 v 160.00002 h -27.9999 v 26.9999 c 0,13.85 -11.15,25.0001 -25,25.0001 -13.85,0 -25.00002,-11.1501 -25.00002,-25.0001 v -26.9999 h -174.0003 v 26.9999 c 0,13.85 -11.15,25.0001 -25,25.0001 -13.85,0 -25,-11.1501 -25,-25.0001 v -26.9999 h -27.9998 v -160.00002 l 13.8002,-135.74008 c 0,0 20.5903,-51.73107 150.1996,-52.25977 z M 451.2,-960.50023 H 215.79988 c 0,0 -24.2634,111.99988 -9.3002,111.99988 H 460.5002 c 14.9632,0 -9.3002,-111.99988 -9.3002,-111.99988 z"
       id="path6496"
       inkscape:connector-curvature="0"
       sodipodi:nodetypes="cccccsssccsssccccccsscss" />
    <rect
       style="opacity:1;fill:#0046aa;fill-opacity:1;fill-rule:nonzero;stroke:none;stroke-width:0.57577121;stroke-linecap:square;stroke-linejoin:miter;stroke-miterlimit:10;stroke-dasharray:none;stroke-opacity:1;paint-order:markers stroke fill"
       id="rect7731"
       width="152.00002"
       height="18"
       x="257.5"
       y="-1004.5005"
       rx="9"
       ry="9" />
    <circle
       style="opacity:1;fill:#0046aa;fill-opacity:1;fill-rule:nonzero;stroke:none;stroke-width:0.85223931;stroke-linecap:square;stroke-linejoin:miter;stroke-miterlimit:10;stroke-dasharray:none;stroke-opacity:1;paint-order:markers stroke fill"
       id="path7760"
       cx="226"
       cy="-764.00037"
       r="27.5" />
    <circle
       r="27.5"
       cy="-764.00037"
       cx="441"
       id="circle7784"
       style="opacity:1;fill:#0046aa;fill-opacity:1;fill-rule:nonzero;stroke:none;stroke-width:0.85223931;stroke-linecap:square;stroke-linejoin:miter;stroke-miterlimit:10;stroke-dasharray:none;stroke-opacity:1;paint-order:markers stroke fill" />
    <path
       sodipodi:nodetypes="cccccccccccccccc"
       inkscape:connector-curvature="0"
       id="path850"
       d="m 313.4997,-1074.5 c 0,-31.4813 22.8948,-58.2876 53.9885,-63.2122 l 96.1031,-15.2208 c 74.8187,-11.8502 129.9089,-76.3524 129.9089,-152.1038 l -2e-4,-1.4631 h 59.00021 l -104.00001,-100 -104,100 H 503.5 l 5e-4,1.4631 c 1e-4,31.4813 -22.8947,58.2875 -53.9884,63.2122 l -96.1032,15.2208 c -74.8187,11.8502 -129.9088,76.3524 -129.9089,152.1038 v 8 h 90 z"
       style="opacity:1;fill:#ffffff;fill-opacity:1;fill-rule:nonzero;stroke:none;stroke-width:2.25732493;stroke-linecap:square;stroke-linejoin:miter;stroke-miterlimit:10;stroke-dasharray:none;stroke-opacity:1;paint-order:markers stroke fill" />
    <rect
       style="opacity:1;fill:#000000;fill-opacity:1;fill-rule:nonzero;stroke:none;stroke-width:0.04712739;stroke-linecap:square;stroke-linejoin:round;stroke-miterlimit:10;stroke-dasharray:none;stroke-opacity:1;paint-order:stroke fill markers"
       id="rect1368-9"
       width="604"
       height="304.00003"
       x="111.5"
       y="-563.49994"
       rx="52"
       ry="52" />
    <rect
       ry="50"
       rx="50"
       y="-561.49994"
       x="113.5"
       height="300"
       width="600"
       id="rect1370-7"
       style="opacity:1;fill:#ffffff;fill-opacity:1;fill-rule:nonzero;stroke:none;stroke-width:0.04666103;stroke-linecap:square;stroke-linejoin:round;stroke-miterlimit:10;stroke-dasharray:none;stroke-opacity:1;paint-order:stroke fill markers" />
    <rect
       style="opacity:1;fill:#0046aa;fill-opacity:1;fill-rule:nonzero;stroke:none;stroke-width:0;stroke-linecap:square;stroke-linejoin:miter;stroke-miterlimit:10;stroke-dasharray:none;stroke-opacity:1;paint-order:fill markers stroke"
       id="rect826-9"
       width="560"
       height="260"
       x="133.5"
       y="-541.49994"
       rx="30.000002"
       ry="30.000002" />
    <path
       style="opacity:1;fill:#ffffff;fill-opacity:1;stroke:none;stroke-width:0.10010263;stroke-linejoin:bevel;stroke-miterlimit:10;stroke-dasharray:none;stroke-opacity:1"
       d="m 380.357,-511.49968 11.4291,79.99981 h 11.4278 l 5.7146,-39.9993 5.7145,39.9993 h 11.4279 L 437.5,-511.49968 h -11.4291 l -5.7145,40.00051 -5.7134,-40.00051 h -11.4291 l -5.7133,40.00051 -5.7145,-40.00051 z"
       id="rect1760"
       inkscape:connector-curvature="0" />
    <path
       style="opacity:1;fill:#ffffff;fill-opacity:1;stroke:none;stroke-width:13.87188148;stroke-linecap:round;stroke-linejoin:miter;stroke-miterlimit:4;stroke-dasharray:none;stroke-opacity:1"
       d="m 605.07068,-500.07138 h -11.42849 v 68.57151 h -11.4287 v -68.57151 H 570.785 v -11.4285 h 34.28568 z"
       id="rect819"
       inkscape:connector-curvature="0"
       sodipodi:nodetypes="ccccccccc" />
    <path
       style="opacity:1;fill:#ffffff;fill-opacity:1;stroke:none;stroke-width:34.652668;stroke-linecap:square;stroke-linejoin:round;stroke-miterlimit:4;stroke-dasharray:none;stroke-opacity:1;paint-order:stroke fill markers"
       d="m 415.643,-391.49957 h 34.2856 v 11.4285 h -22.857 v 20.5714 h 22.857 v 11.4285 h -22.857 v 25.1428 h 22.857 v 11.4285 H 415.643 Z"
       id="rect852"
       inkscape:connector-curvature="0"
       sodipodi:nodetypes="ccccccccccccc" />
    <path
       style="opacity:1;fill:#ffffff;fill-opacity:1;fill-rule:nonzero;stroke:none;stroke-width:2.47508669;stroke-linecap:square;stroke-linejoin:round;stroke-miterlimit:4;stroke-dasharray:none;stroke-opacity:1;paint-order:stroke fill markers"
       d="m 156.5,-311.49987 h 22.8571 c 9.4971,0 17.1428,-7.6457 17.1428,-17.1428 v -13.7142 c 0,-9.4971 -7.6457,-17.1428 -17.1428,-17.1428 H 156.5 Z"
       id="rect5057"
       inkscape:connector-curvature="0"
       sodipodi:nodetypes="csssscc" />
    <path
       style="opacity:1;fill:#ffffff;fill-opacity:1;fill-rule:nonzero;stroke:none;stroke-width:3.35411382;stroke-linecap:square;stroke-linejoin:round;stroke-miterlimit:4;stroke-dasharray:none;stroke-opacity:1;paint-order:stroke fill markers"
       d="m 156.5,-348.07117 h 19.4285 c 9.4971,0 17.1428,-7.6457 17.1428,-17.1428 v -9.1428 c 0,-9.4971 -7.6457,-17.1428 -17.1428,-17.1428 H 156.5 Z"
       id="rect5060"
       inkscape:connector-curvature="0"
       sodipodi:nodetypes="csssscc" />
    <path
       style="opacity:1;fill:#0046aa;fill-opacity:1;fill-rule:nonzero;stroke:none;stroke-width:2.57339978;stroke-linecap:square;stroke-linejoin:round;stroke-miterlimit:4;stroke-dasharray:none;stroke-opacity:1;paint-order:stroke fill markers"
       d="m 167.9286,-322.92837 h 11.4285 c 3.1657,0 5.7143,-2.5486 5.7143,-5.7143 v -13.7142 c 0,-3.1657 -2.5486,-5.7143 -5.7143,-5.7143 h -11.4285 z"
       id="rect5063"
       inkscape:connector-curvature="0"
       sodipodi:nodetypes="csssscc" />
    <path
       style="opacity:1;fill:#0046aa;fill-opacity:1;fill-rule:nonzero;stroke:none;stroke-width:2.30632114;stroke-linecap:square;stroke-linejoin:round;stroke-miterlimit:4;stroke-dasharray:none;stroke-opacity:1;paint-order:stroke fill markers"
       d="m 167.9286,-380.07107 h 7.9999 c 3.1657,0 5.7143,2.5486 5.7143,5.7143 v 9.1428 c 0,3.1657 -2.5486,5.7143 -5.7143,5.7143 h -7.9999 z"
       id="rect5066"
       inkscape:connector-curvature="0"
       sodipodi:nodetypes="csssscc" />
    <path
       style="opacity:1;fill:#ffffff;fill-opacity:1;fill-rule:nonzero;stroke:none;stroke-width:3.63269472;stroke-linecap:square;stroke-linejoin:round;stroke-miterlimit:4;stroke-dasharray:none;stroke-opacity:1;paint-order:stroke fill markers"
       d="m 207.0716,-511.49988 c 9.4972,0 17.1424,7.6453 17.1424,17.1424 v 5.7145 h -11.4278 v -5.7145 c 0,-3.1657 -2.5489,-5.7133 -5.7146,-5.7133 h -11.4291 c -3.1657,0 -5.7133,2.5476 -5.7133,5.7133 v 45.71511 c 0,3.1658 2.5476,5.7134 5.7133,5.7134 h 11.4291 c 3.1657,0 5.7146,-2.5476 5.7146,-5.7134 v -19.429 h -11.4294 v -11.4286 h 22.8572 v 48.0001 h -11.4286 l -5e-4,-5.7145 c 0,3.1657 -2.5488,5.7145 -5.7146,5.7145 h -11.4279 c -9.4971,0 -17.1424,-7.6453 -17.1424,-17.1425 v -45.71511 c 0,-9.4971 7.6453,-17.1424 17.1424,-17.1424 z"
       id="rect5084"
       inkscape:connector-curvature="0"
       sodipodi:nodetypes="ssccsssssssscccccccssssss" />
    <path
       style="opacity:1;fill:#ffffff;fill-opacity:1;fill-rule:nonzero;stroke:none;stroke-width:0.12861632;stroke-linecap:square;stroke-linejoin:round;stroke-miterlimit:1.41400003;stroke-dasharray:none;stroke-opacity:1;paint-order:stroke fill markers"
       d="m 324.7857,-488.64288 c -9.4972,0 -17.1425,7.64641 -17.1425,17.14361 v 22.8569 c 0,9.4972 7.6453,17.1425 17.1425,17.1425 9.4971,0 17.1436,-7.6453 17.1436,-17.1425 h -11.4291 c 0,3.1658 -2.5488,5.7146 -5.7145,5.7146 -3.1657,0 -5.7134,-2.5488 -5.7134,-5.7146 v -5.7145 h 22.857 v -17.1436 c -8e-4,-9.4966 -7.6469,-17.14241 -17.1436,-17.14241 z m 0,11.42901 c 3.1657,0 5.7145,2.5488 5.7145,5.7146 v 5.7133 h -11.4279 v -5.7133 c 0,-3.1658 2.5477,-5.7146 5.7134,-5.7146 z"
       id="path13861"
       inkscape:connector-curvature="0"
       sodipodi:nodetypes="ssssccsscccsssccss" />
    <path
       style="opacity:1;fill:#ffffff;fill-opacity:1;fill-rule:nonzero;stroke:none;stroke-width:0.05566446;stroke-linecap:square;stroke-linejoin:round;stroke-miterlimit:1.41400003;stroke-dasharray:none;stroke-opacity:1;paint-order:stroke fill markers"
       d="m 235.6431,-431.49987 v -57.14321 h 11.4291 v 57.14321 z m 0,-68.57121 v -11.4288 h 11.4291 v 11.4288 z"
       id="rect13728"
       inkscape:connector-curvature="0"
       sodipodi:nodetypes="cccccccccc" />
    <path
       style="opacity:1;fill:#ffffff;fill-opacity:1;fill-rule:nonzero;stroke:none;stroke-width:0.1449274;stroke-linecap:square;stroke-linejoin:round;stroke-miterlimit:10;stroke-dasharray:none;stroke-opacity:1;paint-order:stroke fill markers"
       d="m 258.5003,-488.64288 14.2851,57.14301 h 11.4291 l 14.2864,-57.14301 h -11.4291 l -8.5718,34.28481 -8.5707,-34.28481 z"
       id="rect47"
       inkscape:connector-curvature="0" />
    <path
       style="opacity:1;fill:#ffffff;fill-opacity:1;fill-rule:nonzero;stroke:none;stroke-width:0.11185902;stroke-linecap:square;stroke-linejoin:round;stroke-miterlimit:10;stroke-dasharray:none;stroke-opacity:1;paint-order:stroke fill markers"
       d="m 458.07182,-488.64288 c -6.33142,0 -11.42912,5.09771 -11.42912,11.42911 v 5.7145 h 11.42912 v -3.4289 c 0,-1.2663 1.01931,-2.2856 2.28561,-2.2856 h 6.8567 c 1.2663,0 2.2856,1.0193 2.2856,2.2856 v 3.3793 l -16.32503,13.6981 c -4.1406,3.4743 -6.5319,8.6025 -6.532,14.0076 v 0.9142 c 1e-4,6.3314 5.0977,11.4291 11.42912,11.4291 h 6.85671 c 2.53259,0 4.5712,-2.0385 4.5712,-4.5712 0,2.5327 2.03859,4.5712 4.5711,4.5712 h 11.4291 c -2.53261,0 -4.5712,-2.0386 -4.5712,-4.5712 v -41.1427 c 0,-6.3314 -5.0976,-11.42911 -11.429,-11.42911 z"
       id="rect815"
       inkscape:connector-curvature="0" />
    <path
       style="opacity:1;fill:#0046aa;fill-opacity:1;fill-rule:nonzero;stroke:none;stroke-width:0.17963299;stroke-linecap:square;stroke-linejoin:round;stroke-miterlimit:1.41400003;stroke-dasharray:none;stroke-opacity:1;paint-order:stroke fill markers"
       d="m 460.64273,-452.78657 c -1.63031,1.368 -2.57141,3.3867 -2.57141,5.5149 v 2.0576 c 0,1.2663 1.0205,2.2856 2.28679,2.2856 h 6.85671 c 1.26629,0 2.2856,-1.0193 2.2856,-2.2856 v -15.0053 z"
       id="path7367"
       inkscape:connector-curvature="0"
       sodipodi:nodetypes="cscssccc" />
    <path
       style="opacity:1;fill:#ffffff;fill-opacity:1;fill-rule:nonzero;stroke:none;stroke-width:0.0614997;stroke-linecap:square;stroke-linejoin:round;stroke-miterlimit:10;stroke-dasharray:none;stroke-opacity:1;paint-order:stroke fill markers"
       d="m 532.35722,-488.64248 -17.56968,70.46871 c -1.39621,5.6001 -6.42642,9.5306 -12.1979,9.5309 h -10.23261 v -11.4291 h 9.75181 c 1.02647,-0.027 1.90878,-0.7363 2.15688,-1.7328 l 2.3785,-9.5425 -14.2861,-57.29561 11.4277,3e-4 8.57221,34.37901 8.57178,-34.37831 z"
       id="path10311"
       inkscape:connector-curvature="0"
       sodipodi:nodetypes="ccccccccccccc" />
    <path
       style="opacity:1;fill:#ffffff;fill-opacity:1;fill-rule:nonzero;stroke:none;stroke-width:0.08743536;stroke-linecap:square;stroke-linejoin:round;stroke-miterlimit:10;stroke-dasharray:none;stroke-opacity:1;paint-order:stroke fill markers"
       d="m 626.7848,-488.64278 c -6.9646,0 -12.5712,5.60661 -12.5712,12.57121 v 32.0004 c 0,6.9646 5.6066,12.5713 12.5712,12.5713 h 9.1435 c 6.9646,0 12.5713,-5.6067 12.5713,-12.5713 v -32.0004 c 0,-6.9646 -5.6067,-12.57121 -12.5713,-12.57121 z m 1.1434,11.42781 h 6.8567 c 1.2663,0 2.2856,1.0205 2.2856,2.2868 v 29.7136 c 0,1.2663 -1.0193,2.2856 -2.2856,2.2856 h -6.8567 c -1.2663,0 -2.28561,-1.0193 -2.28561,-2.2856 v -29.7136 c 0,-1.2663 1.01931,-2.2868 2.28561,-2.2868 z"
       id="rect32391"
       inkscape:connector-curvature="0" />
    <path
       sodipodi:nodetypes="ccccc"
       inkscape:connector-curvature="0"
       id="path6313"
       d="m 242.2143,-311.49987 h -11.4285 v -57.1427 h 11.4285 z"
       style="opacity:1;fill:#ffffff;fill-opacity:1;fill-rule:nonzero;stroke:none;stroke-width:0.11037569;stroke-linecap:square;stroke-linejoin:round;stroke-miterlimit:1.41400003;stroke-dasharray:none;stroke-opacity:1;paint-order:stroke fill markers" />
    <path
       style="opacity:1;fill:#ffffff;fill-opacity:1;fill-rule:nonzero;stroke:none;stroke-width:0.13363972;stroke-linecap:square;stroke-linejoin:round;stroke-miterlimit:1.41400003;stroke-dasharray:none;stroke-opacity:1;paint-order:stroke fill markers"
       d="m 220.4996,-311.49997 c 6.9646,0 12.5724,-5.6067 12.5724,-12.5712 v -44.5716 h -2.2867 v 40.0004 c 0,3.1657 -2.5476,5.7145 -5.7133,5.7145 -3.1657,0 -5.7146,-2.5488 -5.7146,-5.7145 v -40.0004 h -11.429 v 44.5716 c 0,6.9645 5.6067,12.5712 12.5712,12.5712 z"
       id="path6315"
       inkscape:connector-curvature="0" />
    <path
       sodipodi:nodetypes="ssssccsscccsssccss"
       inkscape:connector-curvature="0"
       id="path4559"
       d="m 316.4991,-368.64257 c -9.4971,0 -17.1424,7.6464 -17.1424,17.1435 v 22.8569 c 0,9.4971 7.6453,17.1423 17.1424,17.1423 9.4971,0 17.1435,-7.6452 17.1435,-17.1423 h -11.429 c 0,3.1657 -2.5488,5.7145 -5.7145,5.7145 -3.1657,0 -5.7133,-2.5488 -5.7133,-5.7145 v -5.7146 h 22.8568 v -17.1434 c -5e-4,-9.4966 -7.6468,-17.1424 -17.1435,-17.1424 z m 0,11.429 c 3.1657,0 5.7145,2.5488 5.7145,5.7145 v 5.7133 h -11.4278 v -5.7133 c 0,-3.1657 2.5476,-5.7145 5.7133,-5.7145 z"
       style="opacity:1;fill:#ffffff;fill-opacity:1;fill-rule:nonzero;stroke:none;stroke-width:0.12861563;stroke-linecap:square;stroke-linejoin:round;stroke-miterlimit:1.41400003;stroke-dasharray:none;stroke-opacity:1;paint-order:stroke fill markers" />
    <path
       style="opacity:1;fill:#ffffff;fill-opacity:1;fill-rule:nonzero;stroke:none;stroke-width:0.0789453;stroke-linecap:square;stroke-linejoin:round;stroke-miterlimit:10;stroke-dasharray:none;stroke-opacity:1;paint-order:stroke fill markers"
       d="m 459.07145,-311.49987 11.42899,-28.5713 -11.42899,-28.5714 h 11.42899 l 5.7145,14.2851 5.71331,-14.2851 h 11.4291 l -11.42791,28.5714 11.42791,28.5713 h -11.4291 l -5.71331,-14.2851 -5.7145,14.2851 z"
       id="path5587"
       inkscape:connector-curvature="0" />
    <path
       sodipodi:nodetypes="cccccccccc"
       inkscape:connector-curvature="0"
       id="path4571"
       d="m 504.78555,-311.49987 v -57.1429 h 11.42899 v 57.1429 z m 0,-68.5708 v -11.4288 h 11.42899 v 11.4288 z"
       style="opacity:1;fill:#ffffff;fill-opacity:1;fill-rule:nonzero;stroke:none;stroke-width:0.05566418;stroke-linecap:square;stroke-linejoin:round;stroke-miterlimit:1.41400003;stroke-dasharray:none;stroke-opacity:1;paint-order:stroke fill markers" />
    <path
       style="opacity:1;fill:#ffffff;fill-opacity:1;fill-rule:nonzero;stroke:none;stroke-width:0.09840222;stroke-linecap:square;stroke-linejoin:round;stroke-miterlimit:10;stroke-dasharray:none;stroke-opacity:1;paint-order:stroke fill markers"
       d="m 533.35695,-391.49977 v 22.857 h -5.71431 v 11.4286 h 5.71431 v 34.2853 c 0,6.3314 5.0976,11.429 11.429,11.429 h 11.42799 v -11.429 h -9.14239 c -1.2663,0 -2.2856,-1.0193 -2.2856,-2.2856 v -31.9997 h 11.42799 v -11.4286 h -11.42799 v -22.857 z"
       id="rect6308"
       inkscape:connector-curvature="0"
       sodipodi:nodetypes="cccccssccsscccccc" />
    <path
       style="opacity:1;fill:#ffffff;fill-opacity:1;fill-rule:nonzero;stroke:none;stroke-width:0.05566418;stroke-linecap:square;stroke-linejoin:round;stroke-miterlimit:1.41400003;stroke-dasharray:none;stroke-opacity:1;paint-order:stroke fill markers"
       d="m 567.64253,-311.49987 v -57.1429 h 11.42902 v 57.1429 z m 0,-68.5708 v -11.4288 h 11.42902 v 11.4288 z"
       id="path4579"
       inkscape:connector-curvature="0"
       sodipodi:nodetypes="cccccccccc" />
    <path
       style="opacity:1;fill:#ffffff;fill-opacity:1;fill-rule:nonzero;stroke:none;stroke-width:0.11037569;stroke-linecap:square;stroke-linejoin:round;stroke-miterlimit:1.41400003;stroke-dasharray:none;stroke-opacity:1;paint-order:stroke fill markers"
       d="m 590.49954,-368.64277 h 11.4286 v 57.1427 h -11.4286 z"
       id="path32376"
       inkscape:connector-curvature="0"
       sodipodi:nodetypes="ccccc" />
    <path
       inkscape:connector-curvature="0"
       id="path32378"
       d="m 612.21424,-368.64257 c -6.9646,0 -12.57239,5.6066 -12.57239,12.5712 v 44.5715 h 2.28679 v -40.0003 c 0,-3.1658 2.5476,-5.7146 5.71331,-5.7146 3.16569,0 5.7145,2.5488 5.7145,5.7146 v 40.0003 h 11.42899 v -44.5715 c 0,-6.9646 -5.6067,-12.5712 -12.5712,-12.5712 z"
       style="opacity:1;fill:#ffffff;fill-opacity:1;fill-rule:nonzero;stroke:none;stroke-width:0.13363972;stroke-linecap:square;stroke-linejoin:round;stroke-miterlimit:1.41400003;stroke-dasharray:none;stroke-opacity:1;paint-order:stroke fill markers" />
    <path
       style="opacity:1;fill:#ffffff;fill-opacity:1;fill-rule:nonzero;stroke:none;stroke-width:0.10045569;stroke-linecap:square;stroke-linejoin:round;stroke-miterlimit:1.41400003;stroke-dasharray:none;stroke-opacity:1;paint-order:stroke fill markers"
       d="m 670.49965,-368.64277 v 62.8564 c 0,9.4971 -7.64522,17.1435 -17.1423,17.1435 -9.49712,0 -17.1435,-7.6464 -17.1435,-17.1435 l 11.429,-1e-4 c 0,3.1657 2.54878,5.7145 5.7145,5.7145 3.16568,0 5.7133,-2.5488 5.7133,-5.7145 v -62.8563 z"
       id="rect846"
       inkscape:connector-curvature="0"
       sodipodi:nodetypes="csssssscc" />
    <rect
       style="opacity:1;fill:#ffffff;fill-opacity:1;fill-rule:nonzero;stroke:none;stroke-width:0.13363972;stroke-linecap:square;stroke-linejoin:round;stroke-miterlimit:1.41400003;stroke-dasharray:none;stroke-opacity:1;paint-order:stroke fill markers"
       id="rect851"
       width="25.142776"
       height="57.142677"
       x="-661.3562"
       y="311.50027"
       rx="12.571388"
       transform="scale(-1)" />
    <rect
       rx="5.7142673"
       y="322.92874"
       x="-659.07068"
       height="34.285603"
       width="11.428535"
       id="rect853"
       style="opacity:1;fill:#0046aa;fill-opacity:1;fill-rule:nonzero;stroke:none;stroke-width:0.06979109;stroke-linecap:square;stroke-linejoin:round;stroke-miterlimit:1.41400003;stroke-dasharray:none;stroke-opacity:1;paint-order:stroke fill markers"
       transform="scale(-1)" />
    <path
       sodipodi:nodetypes="ccccscccccscccccc"
       inkscape:connector-curvature="0"
       id="path4906"
       d="m 271.6152,-346.38997 12.0768,9.7795 c 2.6798,2.1698 4.2367,5.4334 4.2369,8.8813 v 4.8003 c 0,6.3314 -5.0976,11.429 -11.429,11.429 H 265.072 c -6.3314,0 -11.429,-5.0976 -11.4289,-11.429 l -1e-4,-5.7145 h 11.429 v 3.4289 c 10e-5,1.2663 1.0193,2.2856 2.2856,2.2856 h 6.8567 c 1.2663,0 2.2856,-1.0193 2.2856,-2.2856 l -1e-4,-1.4232 c 2e-4,-0.6896 -0.3111,-1.3424 -0.8469,-1.7765 l -11.2299,-9.0944 z"
       style="opacity:1;fill:#ffffff;fill-opacity:1;fill-rule:nonzero;stroke:none;stroke-width:3.11231494;stroke-linecap:square;stroke-linejoin:round;stroke-miterlimit:4;stroke-dasharray:none;stroke-opacity:1;paint-order:stroke fill markers" />
    <path
       sodipodi:nodetypes="cccsssscccssccccc"
       inkscape:connector-curvature="0"
       id="path4908"
       d="m 272.1947,-331.21517 -14.3148,-11.5929 c -2.6797,-2.1697 -4.2366,-5.4332 -4.2369,-8.8812 v -5.5259 c 1e-4,-6.3313 5.0976,-11.429 11.429,-11.429 h 11.4279 c 6.3314,0 11.429,5.0976 11.429,11.4291 v 5.7145 h -11.429 v -3.429 c 0,-1.2663 -1.0193,-2.2855 -2.2856,-2.2855 h -6.8567 c -1.2663,0 -2.2856,1.0192 -2.2856,2.2855 l 10e-5,2.1501 c 2e-4,0.6892 0.3113,1.3414 0.8468,1.7752 l 13.4679,10.9067 z"
       style="opacity:1;fill:#ffffff;fill-opacity:1;fill-rule:nonzero;stroke:none;stroke-width:3.11231494;stroke-linecap:square;stroke-linejoin:round;stroke-miterlimit:4;stroke-dasharray:none;stroke-opacity:1;paint-order:stroke fill markers" />
    <path
       style="opacity:1;fill:#ffffff;fill-opacity:1;fill-rule:nonzero;stroke:none;stroke-width:3.11231494;stroke-linecap:square;stroke-linejoin:round;stroke-miterlimit:4;stroke-dasharray:none;stroke-opacity:1;paint-order:stroke fill markers"
       d="m 363.0432,-346.38997 12.0768,9.7795 c 2.6799,2.1698 4.2367,5.4334 4.237,8.8813 v 4.8003 c 0,6.3314 -5.0977,11.429 -11.4291,11.429 H 356.5 c -6.3314,0 -11.429,-5.0976 -11.4289,-11.429 l -10e-5,-5.7145 H 356.5 v 3.4289 c 10e-5,1.2663 1.0193,2.2856 2.2856,2.2856 h 6.8567 c 1.2663,0 2.2856,-1.0193 2.2856,-2.2856 l -1e-4,-1.4232 c 2e-4,-0.6896 -0.3111,-1.3424 -0.8469,-1.7765 l -11.2299,-9.0944 z"
       id="path4952"
       inkscape:connector-curvature="0"
       sodipodi:nodetypes="ccccscccccscccccc" />
    <path
       style="opacity:1;fill:#ffffff;fill-opacity:1;fill-rule:nonzero;stroke:none;stroke-width:3.11231494;stroke-linecap:square;stroke-linejoin:round;stroke-miterlimit:4;stroke-dasharray:none;stroke-opacity:1;paint-order:stroke fill markers"
       d="m 363.6227,-331.21517 -14.3148,-11.5929 c -2.6797,-2.1697 -4.2366,-5.4332 -4.2369,-8.8812 v -5.5259 c 10e-5,-6.3313 5.0976,-11.429 11.429,-11.429 h 11.4279 c 6.3314,0 11.4291,5.0976 11.4291,11.4291 v 5.7145 h -11.4291 v -3.429 c 0,-1.2663 -1.0193,-2.2855 -2.2856,-2.2855 h -6.8567 c -1.2663,0 -2.2856,1.0192 -2.2856,2.2855 l 10e-5,2.1501 c 2e-4,0.6892 0.3113,1.3414 0.8468,1.7752 l 13.4679,10.9067 z"
       id="path4954"
       inkscape:connector-curvature="0"
       sodipodi:nodetypes="cccsssscccssccccc" />
  </g>
</svg>
