<svg xmlns="http://www.w3.org/2000/svg" width="900" height="900" viewBox="0 0 900 900">
  <g fill="none">
    <circle cx="450" cy="450" r="450" fill="#AF1E2D"/>
    <circle cx="450" cy="450" r="390" fill="#FFF"/>
    <path fill="#000" d="M188.09993 617.99998L364.23037 536.056C378.73337 527.59225 374.76117 505.63405 358.21227 502.78723L308.47306 493.50764 417.87837 304.0126C421.20237 298.2553 419.24347 290.9446 413.48617 287.6206L361.52417 257.6203C355.76687 254.2964 348.45607 256.2552 345.13195 262.0126L235.72688 451.50762 202.82111 413.0723C192.08114 400.1639 171.07882 407.703 171.00042 424.4948L188.09993 617.99998zM711.89697 617.99998L535.76687 536.056C521.26387 527.59225 525.23607 505.63405 541.78497 502.78723L591.52387 493.50764 482.11887 304.0126C478.79487 298.2553 480.75377 290.9446 486.51107 287.6206L538.47307 257.6203C544.23037 254.2964 551.54107 256.2552 554.86507 262.0126L664.27007 451.50762 697.17587 413.0723C707.91577 400.1639 728.91807 407.703 728.99647 424.4948L711.89697 617.99998z"/>
  </g>
</svg>
