<?xml version="1.0" encoding="UTF-8" standalone="no"?>
<svg
   xmlns:dc="http://purl.org/dc/elements/1.1/"
   xmlns:cc="http://creativecommons.org/ns#"
   xmlns:rdf="http://www.w3.org/1999/02/22-rdf-syntax-ns#"
   xmlns:svg="http://www.w3.org/2000/svg"
   xmlns="http://www.w3.org/2000/svg"
   xmlns:sodipodi="http://sodipodi.sourceforge.net/DTD/sodipodi-0.dtd"
   xmlns:inkscape="http://www.inkscape.org/namespaces/inkscape"
   width="89.999062"
   height="90.00563"
   viewBox="0 0 253.99739 254.01588"
   version="1.1"
   id="svg2"
   inkscape:version="0.48.2 r9819"
   sodipodi:docname="MUTCD W11-12P.svg">
  <metadata
     id="metadata62">
    <rdf:RDF>
      <cc:Work
         rdf:about="">
        <dc:format>image/svg+xml</dc:format>
        <dc:type
           rdf:resource="http://purl.org/dc/dcmitype/StillImage" />
        <dc:title></dc:title>
      </cc:Work>
    </rdf:RDF>
  </metadata>
  <defs
     id="defs60" />
  <sodipodi:namedview
     pagecolor="#ffffff"
     bordercolor="#666666"
     borderopacity="1"
     objecttolerance="10"
     gridtolerance="10"
     guidetolerance="10"
     inkscape:pageopacity="0"
     inkscape:pageshadow="2"
     inkscape:window-width="1280"
     inkscape:window-height="1004"
     id="namedview58"
     showgrid="false"
     fit-margin-top="0"
     fit-margin-left="0"
     fit-margin-right="0"
     fit-margin-bottom="0"
     inkscape:zoom="5.8194445"
     inkscape:cx="48.57182"
     inkscape:cy="61.338885"
     inkscape:window-x="-8"
     inkscape:window-y="-8"
     inkscape:window-maximized="1"
     inkscape:current-layer="svg2"
     showguides="true"
     inkscape:guide-bbox="true" />
  <!-- draw the bicycle -->
  <!-- RIGHT -->
  <!-- LANE -->
  <!-- ONLY -->
  <path
     inkscape:connector-curvature="0"
     d="M 3.63273,118.20263 118.18675,3.6379998 c 4.84716,-4.8507 12.77761,-4.8507 17.62478,0 L 250.36201,118.20263 c 4.84717,4.84364 4.84717,12.77408 0,17.62478 L 135.81153,250.37789 c -4.84717,4.8507 -12.77762,4.8507 -17.62478,0 L 3.63273,135.82741 c -4.84364,-4.8507 -4.84364,-12.78114 0,-17.62478"
     style="fill:#fecf33;fill-opacity:1;fill-rule:nonzero;stroke:none"
     id="path5867" />
  <path
     inkscape:connector-curvature="0"
     d="M 6.39569,120.02158 120.00778,6.4023998 c 3.84528,-3.8453 10.13531,-3.8453 13.98412,0 L 247.60047,120.02158 c 3.84528,3.84528 3.84528,10.13531 0,13.98058 L 133.9919,247.61426 c -3.84881,3.84528 -10.13884,3.84528 -13.98412,0 L 6.39569,134.00216 c -3.84528,-3.84527 -3.84528,-10.1353 0,-13.98058"
     style="fill:#000000;fill-opacity:1;fill-rule:evenodd;stroke:none"
     id="path5891" />
  <path
     inkscape:connector-curvature="0"
     d="M 9.94746,123.52184 123.50311,9.9520998 c 1.91911,-1.9227 5.06942,-1.9227 6.98853,0 L 244.04729,123.52184 c 1.92264,1.92264 1.92264,5.06589 0,6.985 L 130.49164,244.06602 c -1.91911,1.92264 -5.06942,1.92264 -6.98853,0 L 9.94746,130.50684 c -1.92264,-1.91911 -1.92264,-5.06236 0,-6.985"
     style="fill:#fecf33;fill-opacity:1;fill-rule:evenodd;stroke:none"
     id="path5895" />
  <path
     inkscape:connector-curvature="0"
     d="m 114.92637,43.134 c 6.53345,0 11.86039,5.3269 11.86039,11.8569 0,6.5334 -5.32694,11.8674 -11.86039,11.8674 -6.53344,0 -11.85686,-5.334 -11.85686,-11.8674 0,-6.53 5.32342,-11.8569 11.85686,-11.8569"
     style="fill:#000000;fill-opacity:1;fill-rule:evenodd;stroke:none"
     id="path5899" />
  <path
     inkscape:connector-curvature="0"
     d="m 79.01818,117.92712 24.87789,-16.58408 c 1.15005,-4.85775 5.91961,-26.43714 15.49047,-31.43254 9.47561,-6.2794 44.42531,19.4769 44.6264,19.685 l 0,37.55676 -7.5812,-1.31586 -2.95981,-29.97905 c -2.8575,-0.57856 -5.715,-1.15006 -8.56544,-1.72156 6.23711,16.129 8.53017,31.67239 4.93889,41.91353 l 15.15533,61.93367 -10.21291,7.24253 -22.06978,-57.31934 -10.21292,10.87261 -14.16403,43.15532 -13.51139,-4.94242 12.192,-45.46248 14.16403,-25.3612 -5.42925,-18.72897 -5.77144,7.52475 -27.0122,8.89706 -3.95464,-5.93373 z"
     style="fill:#000000;fill-opacity:1;fill-rule:evenodd;stroke:none"
     id="path5903" />
</svg>
