<?xml version="1.0" encoding="UTF-8" standalone="no"?>
<!-- Created with Inkscape (http://www.inkscape.org/) -->

<svg
   xmlns:dc="http://purl.org/dc/elements/1.1/"
   xmlns:cc="http://creativecommons.org/ns#"
   xmlns:rdf="http://www.w3.org/1999/02/22-rdf-syntax-ns#"
   xmlns:svg="http://www.w3.org/2000/svg"
   xmlns="http://www.w3.org/2000/svg"
   xmlns:sodipodi="http://sodipodi.sourceforge.net/DTD/sodipodi-0.dtd"
   xmlns:inkscape="http://www.inkscape.org/namespaces/inkscape"
   id="svg17624"
   version="1.1"
   inkscape:version="0.48.2 r9819"
   width="268.24219"
   height="297.82343"
   xml:space="preserve"
   sodipodi:docname="AJAX1.svg"><metadata
     id="metadata17630"><rdf:RDF><cc:Work
         rdf:about=""><dc:format>image/svg+xml</dc:format><dc:type
           rdf:resource="http://purl.org/dc/dcmitype/StillImage" /><dc:title /></cc:Work></rdf:RDF></metadata><defs
     id="defs17628"><inkscape:perspective
       sodipodi:type="inkscape:persp3d"
       inkscape:vp_x="0 : 0.5 : 1"
       inkscape:vp_y="0 : 1000 : 0"
       inkscape:vp_z="1 : 0.5 : 1"
       inkscape:persp3d-origin="0.5 : 0.33333333 : 1"
       id="perspective17632" /><clipPath
       clipPathUnits="userSpaceOnUse"
       id="clipPath17642"><path
         d="m -2,710 501,0 0,-711 -501,0 0,711 z"
         id="path17644"
         inkscape:connector-curvature="0" /></clipPath><clipPath
       clipPathUnits="userSpaceOnUse"
       id="clipPath17648"><path
         d="m 0,708.06 498,0 0,-708 -498,0 0,708 z"
         id="path17650"
         inkscape:connector-curvature="0" /></clipPath><clipPath
       clipPathUnits="userSpaceOnUse"
       id="clipPath17798"><path
         d="m -2,710 501,0 0,-711 -501,0 0,711 z"
         id="path17800"
         inkscape:connector-curvature="0" /></clipPath><clipPath
       clipPathUnits="userSpaceOnUse"
       id="clipPath17804"><path
         d="m 0,708.06 498,0 0,-708 -498,0 0,708 z"
         id="path17806"
         inkscape:connector-curvature="0" /></clipPath></defs><sodipodi:namedview
     pagecolor="#ffffff"
     bordercolor="#666666"
     borderopacity="1"
     objecttolerance="10"
     gridtolerance="10"
     guidetolerance="10"
     inkscape:pageopacity="0"
     inkscape:pageshadow="2"
     inkscape:window-width="1280"
     inkscape:window-height="1004"
     id="namedview17626"
     showgrid="false"
     inkscape:zoom="2"
     inkscape:cx="62.802206"
     inkscape:cy="185.16569"
     inkscape:window-x="-8"
     inkscape:window-y="-8"
     inkscape:window-maximized="1"
     inkscape:current-layer="g17634"
     fit-margin-top="0"
     fit-margin-left="0"
     fit-margin-right="0"
     fit-margin-bottom="0.05"
     showguides="true"
     inkscape:guide-bbox="true" /><g
     id="g17634"
     inkscape:groupmode="layer"
     inkscape:label="GG1999P002"
     transform="matrix(1.25,0,0,-1.25,65.117187,231.36719)"><path
       inkscape:connector-curvature="0"
       style="fill:#ffffff;stroke:#000000;stroke-width:2;stroke-linecap:butt;stroke-linejoin:miter;stroke-miterlimit:4;stroke-opacity:1;stroke-dasharray:none"
       d="m -51.090869,165.20041 c 0,10.43562 8.459814,18.89544 18.897116,18.89544 l 174.793773,0 c 10.43442,0 18.89562,-8.45982 18.89562,-18.89544 l 0,-198.415796 c 0,-10.436086 -8.4612,-18.895616 -18.89562,-18.895616 l -174.793773,0 c -10.437302,0 -18.897116,8.45953 -18.897116,18.895616 l 0,198.415796 z"
       id="path15" /><path
       id="path3764"
       d="m -41.643145,165.20037 c 0,5.21786 4.229898,9.44776 9.449358,9.44776 l 174.793717,0 c 5.21638,0 9.44614,-4.2299 9.44614,-9.44776 l 0,-198.415656 c 0,-5.218044 -4.22976,-9.447808 -9.44614,-9.447808 l -174.793717,0 c -5.21946,0 -9.449358,4.229764 -9.449358,9.447808 l 0,198.415656 z"
       style="fill:#0069b3;fill-rule:nonzero;stroke:none"
       inkscape:connector-curvature="0" /><path
       id="path3788"
       d="m 33.943532,94.338481 0,-113.381023 -28.3449215,0 0,113.381023 -13.4204198,-5.237375 c -2.8920057,-1.197767 -6.2073197,0.175822 -7.4067537,3.067829 -0.751959,1.818065 -0.493139,3.797121 0.52397,5.31887 L 19.771154,151.02799 54.245069,97.487805 c 1.017278,-1.521749 1.275929,-3.500805 0.524137,-5.31887 -1.197932,-2.892007 -4.513249,-4.265596 -7.405254,-3.067829 l -13.42042,5.237375 z"
       style="fill:#ffffff;fill-rule:nonzero;stroke:none"
       inkscape:connector-curvature="0" /><path
       style="font-size:medium;font-style:normal;font-variant:normal;font-weight:normal;font-stretch:normal;text-indent:0;text-align:start;text-decoration:none;line-height:normal;letter-spacing:normal;word-spacing:normal;text-transform:none;direction:ltr;block-progression:tb;writing-mode:lr-tb;text-anchor:start;baseline-shift:baseline;color:#000000;fill:#ffffff;fill-opacity:1;stroke:none;stroke-width:4.72407055;marker:none;visibility:visible;display:inline;overflow:visible;enable-background:accumulate;font-family:Sans;-inkscape-font-specification:Sans"
       d="M 102.4375,-23.40625 77.5,15.34375 77.46875,15.375 c -1.83781,2.793221 -1.064225,6.607464 1.71875,8.46875 1.749331,1.169712 3.899669,1.328059 5.71875,0.59375 l 0.03125,0 5.6875,-2.25 0,74.5 23.625,0 0,-74.5 5.6875,2.25 0.0312,0 c 1.81851,0.733858 3.96985,0.574405 5.71875,-0.59375 2.78628,-1.863676 3.56424,-5.674762 1.71875,-8.46875 l 0,-0.03125 -24.96875,-38.75 z"
       id="path3790"
       inkscape:connector-curvature="0"
       sodipodi:nodetypes="ccccccccccccccccc" /><path
       id="path3792"
       d="m 120.83987,22.242827 c 1.12493,0.460641 2.45818,0.375978 3.5448,-0.349814 1.7349,-1.160435 2.20154,-3.505637 1.04327,-5.240541 l -22.98406,-35.69468 -22.983714,35.69468 c -1.158768,1.734904 -0.691795,4.080106 1.043275,5.240541 1.085439,0.725792 2.420033,0.810455 3.544637,0.349814 l 8.946502,-3.490973 0,75.584961 18.89862,0 0,-75.584961 8.94667,3.490973 z"
       style="fill:#c0111e;fill-opacity:1;fill-rule:nonzero;stroke:none"
       inkscape:connector-curvature="0" /></g></svg>