<?xml version="1.0" encoding="UTF-8" standalone="no"?>
<!-- Created with Inkscape (http://www.inkscape.org/) -->

<svg
   xmlns:dc="http://purl.org/dc/elements/1.1/"
   xmlns:cc="http://creativecommons.org/ns#"
   xmlns:rdf="http://www.w3.org/1999/02/22-rdf-syntax-ns#"
   xmlns:svg="http://www.w3.org/2000/svg"
   xmlns="http://www.w3.org/2000/svg"
   xmlns:sodipodi="http://sodipodi.sourceforge.net/DTD/sodipodi-0.dtd"
   xmlns:inkscape="http://www.inkscape.org/namespaces/inkscape"
   width="600"
   height="600"
   id="svg2"
   version="1.1"
   inkscape:version="0.48.5 r10040"
   sodipodi:docname="Indonesia Prohibitory Road Sign 3a.svg">
  <defs
     id="defs4" />
  <sodipodi:namedview
     id="base"
     pagecolor="#ffffff"
     bordercolor="#666666"
     borderopacity="1.0"
     inkscape:pageopacity="0.0"
     inkscape:pageshadow="2"
     inkscape:zoom="0.38762169"
     inkscape:cx="521.3281"
     inkscape:cy="222.47961"
     inkscape:document-units="px"
     inkscape:current-layer="layer1"
     showgrid="false"
     fit-margin-top="0"
     fit-margin-left="0"
     fit-margin-right="0"
     fit-margin-bottom="0"
     inkscape:window-width="1024"
     inkscape:window-height="578"
     inkscape:window-x="-8"
     inkscape:window-y="-8"
     inkscape:window-maximized="1" />
  <metadata
     id="metadata7">
    <rdf:RDF>
      <cc:Work
         rdf:about="">
        <dc:format>image/svg+xml</dc:format>
        <dc:type
           rdf:resource="http://purl.org/dc/dcmitype/StillImage" />
        <dc:title></dc:title>
      </cc:Work>
    </rdf:RDF>
  </metadata>
  <g
     inkscape:label="Layer 1"
     inkscape:groupmode="layer"
     id="layer1"
     transform="translate(826.76309,-212.94573)">
    <flowRoot
       xml:space="preserve"
       id="flowRoot3847"
       style="font-size:40px;font-style:normal;font-variant:normal;font-weight:normal;font-stretch:normal;text-align:center;line-height:125%;letter-spacing:0px;word-spacing:0px;text-anchor:middle;fill:#000000;fill-opacity:1;stroke:none;font-family:Arial;-inkscape-font-specification:Arial"><flowRegion
         id="flowRegion3849"><rect
           id="rect3851"
           width="209.25385"
           height="76.790398"
           x="155.50056"
           y="285.47568" /></flowRegion><flowPara
         id="flowPara3853" /></flowRoot>    <path
       sodipodi:type="arc"
       style="fill:#bb1122;fill-opacity:1;fill-rule:nonzero;stroke:none"
       id="path2990"
       sodipodi:cx="-550.7948"
       sodipodi:cy="267.20129"
       sodipodi:rx="290.23145"
       sodipodi:ry="304.42053"
       d="m -260.56335,267.20129 c 0,168.12682 -129.94105,304.42054 -290.23145,304.42054 -160.2904,0 -290.23145,-136.29372 -290.23145,-304.42054 0,-168.126814 129.94105,-304.420528 290.23145,-304.420528 160.2904,0 290.23145,136.293714 290.23145,304.420528 z"
       transform="matrix(1.0336578,0,0,0.98547891,42.570253,249.6245)" />
    <path
       transform="matrix(0.82692625,0,0,0.78838313,-71.29641,302.28875)"
       d="m -260.56335,267.20129 a 290.23145,304.42053 0 1 1 -580.4629,0 290.23145,304.42053 0 1 1 580.4629,0 z"
       sodipodi:ry="304.42053"
       sodipodi:rx="290.23145"
       sodipodi:cy="267.20129"
       sodipodi:cx="-550.7948"
       id="path3760"
       style="fill:#ffffff;fill-opacity:1;fill-rule:nonzero;stroke:none"
       sodipodi:type="arc" />
    <path
       inkscape:connector-curvature="0"
       id="path3764"
       style="font-size:518.01556396px;font-style:normal;font-variant:normal;font-weight:normal;font-stretch:normal;text-align:center;line-height:125%;letter-spacing:0px;word-spacing:0px;writing-mode:lr-tb;text-anchor:middle;fill:#000000;fill-opacity:1;stroke:none;font-family:Roadgeek 2005 Series D;-inkscape-font-specification:Roadgeek 2005 Series D"
       d="m -408.65706,596.30096 c -0.83797,-33.31567 -9.36083,-57.69175 -25.5686,-73.1283 -16.20823,-15.4362 -35.07507,-26.39262 -56.60058,-32.86929 -21.52585,-6.47625 -40.68407,-12.93247 -57.4747,-19.36868 -16.79087,-6.43576 -26.18786,-17.31123 -28.191,-32.62645 -9e-5,-0.53934 -9e-5,-1.14369 0,-1.81304 -9e-5,-0.66883 -9e-5,-1.27317 0,-1.81302 0.58268,-13.5435 5.89227,-23.10507 15.92878,-28.68475 10.03631,-5.5791 21.30299,-8.27706 33.80007,-8.09388 0.94955,3e-4 2.15824,3e-4 3.62607,0 19.13379,1.72699 32.53725,6.95024 40.21042,15.66976 7.67282,8.72009 11.36363,13.68434 11.07246,14.89276 l 48.69283,-14.50425 c -8.55817,-21.76686 -21.09829,-38.96906 -37.6204,-51.60664 -16.52251,-12.63692 -36.96226,-19.09044 -61.3193,-19.36057 -31.70657,-0.3342 -57.52066,6.80999 -77.44233,21.43261 -19.92181,14.62328 -30.19564,38.73225 -30.82153,72.327 1.48924,28.2425 10.03638,48.81175 25.64144,61.7078 15.60494,12.89645 29.33217,21.163 41.18171,24.79968 23.83908,8.05088 45.96236,16.55485 66.36989,25.51194 20.4072,8.95738 31.26379,24.45447 32.56981,46.4913 -0.23761,14.82809 -5.20186,27.00128 -14.89276,36.51962 -9.69126,9.51846 -22.68463,14.43954 -38.98016,14.76326 -16.45772,-0.0971 -31.06988,-4.5649 -43.83652,-13.40348 -12.76684,-8.83845 -22.84642,-21.46491 -30.23876,-37.8794 l -52.3189,19.16633 c 11.74151,26.78543 28.27461,48.06694 49.59936,63.84459 21.32461,15.77768 46.92286,23.84998 76.79482,24.21692 14.871,-0.054 28.77089,-2.40659 41.6997,-7.05788 12.92845,-4.65128 24.2383,-11.27747 33.92959,-19.87858 10.94271,-9.93927 19.36034,-21.65921 25.25294,-35.15986 5.8921,-13.50054 8.87065,-28.19903 8.93565,-44.0955 z" />
    <rect
       style="fill:#bb1122;fill-opacity:1;fill-rule:nonzero;stroke:none"
       id="rect3762"
       width="550"
       height="60"
       x="-265.22964"
       y="-765.18512"
       transform="matrix(-0.70710678,-0.70710678,0.70710678,-0.70710678,0,0)" />
  </g>
</svg>
