<?xml version="1.0" encoding="UTF-8" standalone="no"?>
<!-- Generator: Adobe Illustrator 18.1.1, SVG Export Plug-In . SVG Version: 6.00 Build 0)  -->

<svg
   xmlns:dc="http://purl.org/dc/elements/1.1/"
   xmlns:cc="http://creativecommons.org/ns#"
   xmlns:rdf="http://www.w3.org/1999/02/22-rdf-syntax-ns#"
   xmlns:svg="http://www.w3.org/2000/svg"
   xmlns="http://www.w3.org/2000/svg"
   xmlns:sodipodi="http://sodipodi.sourceforge.net/DTD/sodipodi-0.dtd"
   xmlns:inkscape="http://www.inkscape.org/namespaces/inkscape"
   version="1.1"
   x="0px"
   y="0px"
   viewBox="0 0 600 600"
   enable-background="new 0 0 600 600"
   xml:space="preserve"
   id="svg58"
   sodipodi:docname="Philippines_road_sign_R6-2.svg"
   inkscape:version="0.92.2 (5c3e80d, 2017-08-06)"><metadata
     id="metadata64"><rdf:RDF><cc:Work
         rdf:about=""><dc:format>image/svg+xml</dc:format><dc:type
           rdf:resource="http://purl.org/dc/dcmitype/StillImage" /></cc:Work></rdf:RDF></metadata><defs
     id="defs62" /><sodipodi:namedview
     pagecolor="#ffffff"
     bordercolor="#666666"
     borderopacity="1"
     objecttolerance="10"
     gridtolerance="10"
     guidetolerance="10"
     inkscape:pageopacity="0"
     inkscape:pageshadow="2"
     inkscape:window-width="1366"
     inkscape:window-height="705"
     id="namedview60"
     showgrid="false"
     inkscape:zoom="0.39333333"
     inkscape:cx="529.39079"
     inkscape:cy="88.977189"
     inkscape:window-x="-4"
     inkscape:window-y="-4"
     inkscape:window-maximized="1"
     inkscape:current-layer="text68" /><g
     id="g28" /><g
     id="g30" /><g
     id="g32" /><g
     id="g34" /><g
     id="g36" /><g
     id="g38" /><g
     id="g40" /><g
     id="g42" /><g
     id="g44" /><g
     id="g46" /><g
     id="g48" /><g
     id="g50" /><g
     id="g52" /><g
     id="g54" /><g
     id="g56" /><g
     aria-label="2m"
     style="font-style:normal;font-variant:normal;font-weight:normal;font-stretch:normal;font-size:74.66666412px;line-height:1.25;font-family:ClearviewHwy-1B;-inkscape-font-specification:'ClearviewHwy-1B, Normal';font-variant-ligatures:normal;font-variant-caps:normal;font-variant-numeric:normal;font-feature-settings:normal;text-align:start;letter-spacing:0px;word-spacing:0px;writing-mode:lr-tb;text-anchor:start;fill:#000000;fill-opacity:1;stroke:none"
     id="text68"><g
       id="g979"><g
         id="g961"><g
           id="g944"><g
             id="g26"
             style=""><g
               id="g6"><circle
                 id="circle2"
                 r="300"
                 cy="300"
                 cx="300"
                 fill="#C31927" /><path
                 id="path4"
                 d="M300,550c-66.8,0-129.6-26-176.8-73.2S50,366.8,50,300s26-129.6,73.2-176.8S233.2,50,300,50    s129.6,26,176.8,73.2S550,233.2,550,300s-26,129.6-73.2,176.8S366.8,550,300,550z"
                 fill="#FFFFFF" /></g><g
               id="g24"><g
                 id="g12"><path
                   id="path8"
                   d="M110,300l-45.7,45.7C61.5,330.8,60,315.5,60,300s1.5-30.8,4.3-45.7L110,300z" /><path
                   id="path10"
                   d="M540,300c0,15.5-1.5,30.8-4.3,45.7L490,300l45.7-45.7C538.5,269.2,540,284.5,540,300z" /></g></g></g><g
             id="g920"><g
               id="g913"><g
                 id="g907"><g
                   id="g902"><path
                     inkscape:connector-curvature="0"
                     id="path895"
                     style="font-style:normal;font-variant:normal;font-weight:normal;font-stretch:normal;font-size:234.66667175px;font-family:ClearviewHwy-3B;-inkscape-font-specification:ClearviewHwy-3B;fill:#000000;fill-opacity:1"
                     d="M 159.36667,400 153.5,362.21867 q 23.70134,-23.46667 42.70934,-42.24 19.008,-19.008 32.14933,-34.96533 13.376,-16.19201 20.416,-30.03734 7.04,-13.84533 7.04,-26.98667 0,-6.336 -1.64266,-11.73333 -1.408,-5.632 -4.928,-9.62133 -3.28534,-4.224 -8.91734,-6.57067 -5.39733,-2.34667 -13.14133,-2.34667 -14.54934,0 -26.51734,7.04 -11.73333,7.04 -23.70133,20.416 l -22.05867,-31.68 q 8.91734,-8.21333 17.6,-14.08 8.91734,-6.10133 17.83467,-10.09066 9.152,-3.98934 19.008,-5.86667 9.856,-1.87733 20.88534,-1.87733 15.488,0 27.92533,4.224 12.672,3.98933 21.58933,12.20266 9.152,7.97867 14.08,19.94667 4.928,11.968 4.928,27.92533 0,15.488 -5.39733,30.272 -5.16267,14.784 -17.13067,30.97601 -11.73333,16.192 -30.74133,34.96533 -19.008,18.77333 -46.464,42.00533 l 100.672,-0.23466 V 400 Z" /><path
                     inkscape:connector-curvature="0"
                     id="path897"
                     style="font-size:120px;fill:#000000;fill-opacity:1"
                     d="m 441.62,400 v -57.72 q 0,-5.16 -0.48,-9.48 -0.36,-4.44 -1.8,-7.56 -1.44,-3.24 -4.32,-5.04 -2.76,-1.8 -7.56,-1.8 -8.16,0 -12.24,5.28 -4.08,5.16 -4.08,14.88 V 400 h -21.72 v -57.84 q 0,-5.16 -0.36,-9.48 -0.36,-4.44 -1.8,-7.56 -1.44,-3.24 -4.32,-4.92 -2.76,-1.8 -7.56,-1.8 -8.52,0 -12.6,5.4 -3.96,5.4 -3.96,14.76 V 400 H 337.1 v -98.04 h 19.68 l 1.32,10.44 h 0.36 q 3.6,-6.12 9,-9.24 5.52,-3.12 14.28,-3.12 8.16,0 14.16,3.12 6.12,3 9.48,10.56 5.16,-7.92 11.64,-10.8 6.48,-2.88 15,-2.88 8.64,0 14.52,2.52 6,2.52 9.72,7.56 3.72,5.04 5.4,12.48 1.68,7.44 1.68,17.28 V 400 Z" /></g></g></g></g></g></g></g></g></svg>