<svg xmlns="http://www.w3.org/2000/svg" width="577" height="577" viewBox="0 0 577 577">
  <g fill="none" fill-rule="evenodd" transform="translate(1 1)">
    <circle cx="287.438" cy="287.438" r="286.969" fill="#FFF" fill-rule="nonzero" stroke="#000" stroke-linecap="round" stroke-linejoin="round" stroke-width="2"/>
    <circle cx="287.438" cy="287.438" r="273.982" fill="#ED1C24" fill-rule="nonzero"/>
    <circle cx="287.438" cy="287.438" r="192.438" fill="#FFF" fill-rule="nonzero"/>
    <line x1="299.575" x2=".058" y1=".095" y2="299.612" fill="#000" stroke="#ED1C24" stroke-linecap="round" stroke-linejoin="round" stroke-width="44.278" transform="matrix(1 0 0 -1 133.118 446.972)"/>
    <g fill="#000" stroke="#ED1C24" stroke-linecap="round" stroke-linejoin="round" stroke-width="44.278" transform="matrix(1 0 0 -1 133.118 446.972)">
      <line x1="299.575" x2=".058" y1=".095" y2="299.612"/>
      <line x1="299.575" x2=".058" y1=".095" y2="299.612"/>
      <line x1="299.575" x2=".058" y1=".095" y2="299.612"/>
    </g>
    <rect width="298.812" height="120.683" x="142.999" y="231.677" fill="#FFF" fill-rule="nonzero"/>
    <g transform="translate(113.183 246.85)">
      <circle cx="30.182" cy="63.967" r="30.067" fill="#000"/>
      <circle cx="155.446" cy="64.786" r="30.067" fill="#000"/>
      <circle cx="285.459" cy="64.131" r="30.067" fill="#030303"/>
      <circle cx="30.345" cy="63.804" r="12.056" fill="#030303"/>
      <circle cx="29.69" cy="64.131" r="23.518" fill="#FFF"/>
      <circle cx="30.345" cy="63.804" r="12.056" fill="#030303"/>
      <circle cx="154.955" cy="63.64" r="24.009" fill="#FFF"/>
      <circle cx="155.2" cy="64.049" r="12.056" fill="#030303"/>
      <path fill="#000" fill-rule="nonzero" d="M84.7824545,66.444538 L84.8312572,73.0352573 L90.098102,72.9929719 L100.020007,72.9825674 L99.9908741,68.3871108 L89.5941318,68.4279323 L89.6207854,66.4445379 L144.64683,66.4445379 L144.64683,62.1453796 L125.361998,62.1453796 L131.324687,46.7269588 C141.236477,40.1514554 152.444472,36.9460885 164.537731,36.0424085 L164.565399,33.2331382 L173.766819,37.6906599 L180.878986,44.7233112 C183.214629,47.6469599 184.816683,50.9374036 185.918308,54.478062 C187.583924,60.1281231 186.720581,66.0943038 186.812794,71.9410402 L191.633989,53.996003 C190.983278,48.6431827 187.282342,44.4341967 184.312056,39.9512161 L176.577081,32.5375641 L164.624698,27.2117664 L164.66513,23.1062959 L178.720746,23.1612053 L209.639903,64.7516156 L249.506064,63.8261851 C250.408268,66.161758 253.807239,26.5148199 286.095742,28.5672917 C318.384258,30.619762 320.667999,65.0103921 320.667999,65.0103921 L349.152741,64.7794754 L358.672728,64.7898152 L358.918052,57.0071918 L349.192059,56.9258133 L349.393883,16.6259841 L253.631536,16.462394 C250.950261,30.8938832 238.144854,35.6885822 230.147746,36.4037874 C222.150637,37.1189941 205.841011,28.5399718 205.263277,16.1235119 L150.456786,16.7689017 L150.451394,12.4499983 L146.054262,12.3872975 L146.127475,16.6216526 L132.464126,16.5544319 L132.358728,22.9876778 L100.181855,23.1258672 L94.5398676,31.291372 C89.0020737,25.9024446 74.413392,16.5103007 52.8027331,26.0280255 L52.1080243,26.4043272 L56.5731628,8.00538075 L58.9896479,6.10280164 L71.7276441,14.9876211 L74.3669357,11.3811108 L58.489104,0.0462525493 L52.4030692,6.03979751 L50.4914963,15.2288793 L34.3538627,10.8584622 L34.5992794,27.7741749 L47.318663,25.3693793 L43.9155993,37.1026117 L33.6298199,54.1724388 L37.4836553,56.8593884 C37.4836553,56.8593884 47.5938655,39.5393834 47.5765136,39.5046794 L49.4637717,40.5796063 C49.6591771,40.9704156 64.7513175,44.8624456 81.4969045,42.0413541 L75.8714164,48.1120356 L75.7765097,58.6048343 L84.7824545,66.444538 Z"/>
      <circle cx="285.608" cy="64.321" r="24.009" fill="#FFF"/>
      <circle cx="285.145" cy="64.089" r="12.056" fill="#030303"/>
    </g>
  </g>
</svg>
