<svg xmlns="http://www.w3.org/2000/svg" width="560" height="560" viewBox="0 0 560 560">
  <g fill="none" fill-rule="evenodd">
    <circle cx="280" cy="280" r="280" fill="#F00A0A" fill-rule="nonzero"/>
    <circle cx="280" cy="280" r="211" fill="#FFF" fill-rule="nonzero"/>
    <path fill="#000" d="M309.780612,138.532151 C302.08818,140.628229 300.849037,142.699121 298.177011,157.922415 C294.576608,178.436557 292.329016,190.656498 292.132478,190.782431 C292.061925,190.827207 290.994683,191.238027 289.760019,191.694743 C287.142308,192.663584 283.748522,195.415072 282.720475,197.403128 C282.142059,198.52141 282.000752,201.232039 282.000752,211.272506 C282.000752,225.209608 281.852571,224.517819 285.717265,228.594677 L287.797995,230.789822 L287.949179,241.452676 L288.100922,252.115531 L289.704025,253.452655 C294.068744,257.092387 305.337502,256.763843 308.588504,252.90135 C309.813089,251.446688 309.815328,251.428218 309.815328,241.238871 C309.815328,231.842619 309.883081,231.033852 310.669234,231.038329 C311.139022,231.041128 316.024484,231.490567 321.526437,232.036275 C339.682996,233.838511 368.480621,233.834033 384.717711,232.026201 C386.864515,231.787209 390.323254,231.44747 392.402864,231.271165 L396.184687,230.950456 L396.184687,241.197453 C396.184687,251.431017 396.186367,251.446129 397.411512,252.90135 C400.662514,256.763843 411.931272,257.092387 416.29599,253.452655 L417.899094,252.115531 L418.050277,241.452676 L418.20202,230.789822 L420.282751,228.594677 C424.146885,224.517819 423.999256,225.209608 423.999256,211.272506 C423.999256,201.232039 423.857957,198.52141 423.279541,197.403128 C422.223497,195.361341 418.74964,192.582987 416.059696,191.628138 C414.496909,191.073475 413.640763,190.46676 413.505258,189.818067 C413.320478,188.93318 412.85629,186.343446 410.575101,173.478171 C410.170826,171.197951 408.957999,164.283971 407.879558,158.113832 C405.280325,143.240351 404.806057,142.260875 398.868472,139.484761 L395.940554,138.115734 L353.97598,138.020025 C321.744253,137.946704 311.493463,138.065361 309.780612,138.532151 M392.504213,147.768328 C399.267148,150.933994 399.370176,151.140524 402.24154,167.290682 C405.921454,187.988966 409.276044,186.022178 372.461782,184.751658 C355.780661,184.176286 350.009378,184.176286 333.424566,184.752218 C296.774926,186.025536 300.079682,187.941391 303.72208,167.529674 C306.588404,151.469628 306.511133,151.672799 310.694431,149.221871 C316.124713,146.041093 314.206924,146.171503 353.731847,146.295197 L389.597014,146.407696 L392.504213,147.768328 M377.642331,197.383538 C383.680706,197.913015 388.786223,198.347343 388.987241,198.349582 C389.188819,198.35182 389.35344,199.341371 389.35344,200.548645 L389.35344,202.74379 L353.000008,202.74379 L316.646575,202.74379 L316.646575,200.548645 C316.646575,198.796223 316.819036,198.346783 317.500481,198.319917 C317.970269,198.301447 322.636235,197.891187 327.869978,197.408725 C341.634381,196.139324 363.32079,196.12869 377.642331,197.383538 M305.833607,198.975886 C310.280077,201.917112 311.219094,208.651989 307.708841,212.42437 C302.216406,218.326412 291.697966,215.576043 290.453783,207.912065 C289.165365,199.977191 298.845018,194.35332 305.833607,198.975886 M411.618266,199.128125 C421.545972,207.159267 410.665811,221.03928 400.085217,213.840972 C393.98637,209.692472 395.110726,200.832973 402.111074,197.874396 C404.545126,196.846226 409.626006,197.515628 411.618266,199.128125 M389.35344,210.303665 L389.35344,213.474368 L353.000008,213.474368 L316.646575,213.474368 L316.646575,210.303665 L316.646575,207.133521 L353.000008,207.133521 L389.35344,207.133521 L389.35344,210.303665 M389.35344,220.318386 C389.35344,222.768195 390.455959,222.495621 375.690387,223.69338 C361.899667,224.811661 345.702332,225.012034 336.409037,224.17864 C333.188832,223.889835 327.479701,223.39338 323.721955,223.07547 L316.890708,222.497859 L316.740645,220.424729 L316.590581,218.351598 L352.972011,218.351598 L389.35344,218.351598 L389.35344,220.318386"/>
    <polygon fill="#F00A0A" fill-rule="nonzero" points="82.208 145.521 425.207 456.504 458.791 419.463 115.792 108.479"/>
  </g>
</svg>
