<?xml version="1.0" encoding="UTF-8" standalone="no"?>
<!-- Generator: Adobe Illustrator 18.1.1, SVG Export Plug-In . SVG Version: 6.00 Build 0)  -->

<svg
   xmlns:dc="http://purl.org/dc/elements/1.1/"
   xmlns:cc="http://creativecommons.org/ns#"
   xmlns:rdf="http://www.w3.org/1999/02/22-rdf-syntax-ns#"
   xmlns:svg="http://www.w3.org/2000/svg"
   xmlns="http://www.w3.org/2000/svg"
   xmlns:sodipodi="http://sodipodi.sourceforge.net/DTD/sodipodi-0.dtd"
   xmlns:inkscape="http://www.inkscape.org/namespaces/inkscape"
   version="1.0"
   x="0px"
   y="0px"
   viewBox="0 0 600 600"
   enable-background="new 0 0 600 600"
   xml:space="preserve"
   id="svg50"
   sodipodi:docname="Philippines_road_sign_R6-4.svg"
   inkscape:version="0.92.2 (5c3e80d, 2017-08-06)"><metadata
     id="metadata56"><rdf:RDF><cc:Work
         rdf:about=""><dc:format>image/svg+xml</dc:format><dc:type
           rdf:resource="http://purl.org/dc/dcmitype/StillImage" /></cc:Work></rdf:RDF></metadata><defs
     id="defs54" /><sodipodi:namedview
     pagecolor="#ffffff"
     bordercolor="#666666"
     borderopacity="1"
     objecttolerance="10"
     gridtolerance="10"
     guidetolerance="10"
     inkscape:pageopacity="0"
     inkscape:pageshadow="2"
     inkscape:window-width="1366"
     inkscape:window-height="705"
     id="namedview52"
     showgrid="false"
     inkscape:zoom="0.55625733"
     inkscape:cx="279.97632"
     inkscape:cy="240.35927"
     inkscape:window-x="-4"
     inkscape:window-y="-4"
     inkscape:window-maximized="1"
     inkscape:current-layer="svg50" /><g
     id="g921"><g
       id="g894"><g
         id="g18"><g
           id="g6"><circle
             fill="#C31927"
             cx="300"
             cy="300"
             r="300"
             id="circle2" /><path
             fill="#FFFFFF"
             d="M300,550c-66.8,0-129.6-26-176.8-73.2S50,366.8,50,300s26-129.6,73.2-176.8S233.2,50,300,50    s129.6,26,176.8,73.2S550,233.2,550,300s-26,129.6-73.2,176.8S366.8,550,300,550z"
             id="path4" /></g><g
           id="g16"><g
             id="g14"><path
               d="M358,203v-18.9h75.7V203h-26.8v97.1H385V203H358z"
               id="path12" /></g></g></g><g
         id="g20" /><g
         id="g22" /><g
         id="g24" /><g
         id="g26" /><g
         id="g28" /><g
         id="g30" /><g
         id="g32" /><g
         id="g34" /><g
         id="g36" /><g
         id="g38" /><g
         id="g40" /><g
         id="g42" /><g
         id="g44" /><g
         id="g46" /><g
         id="g48" /><g
         aria-label="5"
         style="font-style:normal;font-variant:normal;font-weight:normal;font-stretch:normal;font-size:74.66666412px;line-height:1.25;font-family:ClearviewHwy-1B;-inkscape-font-specification:'ClearviewHwy-1B, Normal';font-variant-ligatures:normal;font-variant-caps:normal;font-variant-numeric:normal;font-feature-settings:normal;text-align:start;letter-spacing:0px;word-spacing:0px;writing-mode:lr-tb;text-anchor:start;fill:#000000;fill-opacity:1;stroke:none"
         id="text60"><path
           d="m 336.832,351.47199 q 0,21.504 -5.888,38.912 -5.632,17.152 -16.896,29.184 -11.008,12.032 -27.392,18.432 -16.384,6.4 -37.888,6.4 -20.736,0 -37.888,-5.12 -17.152,-5.12 -33.28,-17.152 l 18.944,-35.328 q 11.52,8.96 23.296,14.336 12.032,5.12 26.112,5.12 23.296,0 34.048,-14.08 10.752,-14.08 10.752,-39.936 0,-25.088 -9.984,-38.144 -9.984,-13.056 -30.464,-13.056 -13.312,0 -23.296,5.888 -9.728,5.632 -17.664,17.408 l -29.184,-23.296 17.408,-117.248 H 322.24 v 40.448 h -87.808 l -9.472,54.784 0.768,0.768 q 8.192,-7.424 17.408,-10.752 9.472,-3.328 21.76,-3.328 33.792,0 52.736,22.016 19.2,22.016 19.2,63.744 z"
           style="font-style:normal;font-variant:normal;font-weight:normal;font-stretch:normal;font-size:256px;font-family:ClearviewHwy-3B;-inkscape-font-specification:ClearviewHwy-3B;fill:#000000;fill-opacity:1"
           id="path867" /></g></g></g></svg>