<?xml version="1.0" encoding="UTF-8" standalone="no"?>
<!-- Created with Inkscape (http://www.inkscape.org/) -->

<svg
   xmlns:dc="http://purl.org/dc/elements/1.1/"
   xmlns:cc="http://creativecommons.org/ns#"
   xmlns:rdf="http://www.w3.org/1999/02/22-rdf-syntax-ns#"
   xmlns:svg="http://www.w3.org/2000/svg"
   xmlns="http://www.w3.org/2000/svg"
   xmlns:sodipodi="http://sodipodi.sourceforge.net/DTD/sodipodi-0.dtd"
   xmlns:inkscape="http://www.inkscape.org/namespaces/inkscape"
   width="600"
   height="600"
   id="svg2"
   version="1.1"
   inkscape:version="0.48.5 r10040"
   sodipodi:docname="Indonesia Prohibitory Road Sign 3b.svg">
  <defs
     id="defs4" />
  <sodipodi:namedview
     id="base"
     pagecolor="#ffffff"
     bordercolor="#666666"
     borderopacity="1.0"
     inkscape:pageopacity="0.0"
     inkscape:pageshadow="2"
     inkscape:zoom="0.38762169"
     inkscape:cx="-257.47485"
     inkscape:cy="241.52372"
     inkscape:document-units="px"
     inkscape:current-layer="layer1"
     showgrid="false"
     fit-margin-top="0"
     fit-margin-left="0"
     fit-margin-right="0"
     fit-margin-bottom="0"
     inkscape:window-width="1024"
     inkscape:window-height="578"
     inkscape:window-x="-8"
     inkscape:window-y="-8"
     inkscape:window-maximized="1" />
  <metadata
     id="metadata7">
    <rdf:RDF>
      <cc:Work
         rdf:about="">
        <dc:format>image/svg+xml</dc:format>
        <dc:type
           rdf:resource="http://purl.org/dc/dcmitype/StillImage" />
        <dc:title></dc:title>
      </cc:Work>
    </rdf:RDF>
  </metadata>
  <g
     inkscape:label="Layer 1"
     inkscape:groupmode="layer"
     id="layer1"
     transform="translate(-581.08766,-278.18074)">
    <flowRoot
       xml:space="preserve"
       id="flowRoot3847"
       style="font-size:40px;font-style:normal;font-variant:normal;font-weight:normal;font-stretch:normal;text-align:center;line-height:125%;letter-spacing:0px;word-spacing:0px;text-anchor:middle;fill:#000000;fill-opacity:1;stroke:none;font-family:Arial;-inkscape-font-specification:Arial"><flowRegion
         id="flowRegion3849"><rect
           id="rect3851"
           width="209.25385"
           height="76.790398"
           x="155.50056"
           y="285.47568" /></flowRegion><flowPara
         id="flowPara3853" /></flowRoot>    <path
       sodipodi:type="arc"
       style="fill:#bb1122;fill-opacity:1;fill-rule:nonzero;stroke:none"
       id="path2990"
       sodipodi:cx="-550.7948"
       sodipodi:cy="267.20129"
       sodipodi:rx="290.23145"
       sodipodi:ry="304.42053"
       d="m -260.56335,267.20129 c 0,168.12682 -129.94105,304.42054 -290.23145,304.42054 -160.2904,0 -290.23145,-136.29372 -290.23145,-304.42054 0,-168.126814 129.94105,-304.420528 290.23145,-304.420528 160.2904,0 290.23145,136.293714 290.23145,304.420528 z"
       transform="matrix(1.0336578,0,0,0.98547891,1450.421,314.85951)" />
    <path
       transform="matrix(0.82692625,0,0,0.78838313,1336.5543,367.52376)"
       d="m -260.56335,267.20129 c 0,168.12682 -129.94105,304.42054 -290.23145,304.42054 -160.2904,0 -290.23145,-136.29372 -290.23145,-304.42054 0,-168.126814 129.94105,-304.420528 290.23145,-304.420528 160.2904,0 290.23145,136.293714 290.23145,304.420528 z"
       sodipodi:ry="304.42053"
       sodipodi:rx="290.23145"
       sodipodi:cy="267.20129"
       sodipodi:cx="-550.7948"
       id="path3760"
       style="fill:#ffffff;fill-opacity:1;fill-rule:nonzero;stroke:none"
       sodipodi:type="arc" />
    <text
       xml:space="preserve"
       style="font-size:528.83972168px;font-style:normal;font-variant:normal;font-weight:bold;font-stretch:normal;text-align:center;line-height:125%;letter-spacing:0px;word-spacing:0px;writing-mode:lr-tb;text-anchor:middle;fill:#000000;fill-opacity:1;stroke:none;font-family:Overpass;-inkscape-font-specification:Overpass Bold"
       x="874.94122"
       y="767.80566"
       id="text3783"
       sodipodi:linespacing="125%"
       transform="scale(1.0077473,0.99231225)"><tspan
         sodipodi:role="line"
         id="tspan3785"
         x="874.94122"
         y="767.80566"
         style="font-size:528.83972168px;font-style:normal;font-variant:normal;font-weight:normal;font-stretch:normal;text-align:center;line-height:125%;writing-mode:lr-tb;text-anchor:middle;font-family:Overpass;-inkscape-font-specification:Overpass" /></text>
    <path
       inkscape:connector-curvature="0"
       id="path2994"
       style="font-size:537.16998291px;font-style:normal;font-variant:normal;font-weight:bold;font-stretch:normal;text-align:center;line-height:125%;letter-spacing:0px;word-spacing:0px;writing-mode:lr-tb;text-anchor:middle;fill:#000000;fill-opacity:1;stroke:none;font-family:Roadgeek 2005 Series D;-inkscape-font-specification:Roadgeek 2005 Series D Bold"
       d="m 1026.034,499.26813 c -0.3584,-18.77805 -5.6853,-36.41489 -15.9806,-52.91057 -10.29589,-16.49506 -23.41161,-28.76027 -39.3472,-36.79567 -8.69555,-4.22981 -18.29733,-7.1842 -28.80537,-8.86319 -10.50845,-1.67828 -22.93033,-2.48402 -37.26568,-2.41723 l -123.54751,0 0,359.89926 56.93929,0 0,-156.85162 66.60822,0 c 13.93248,-0.0446 26.35436,-1.16371 37.26568,-3.35728 10.91091,-2.19325 20.51269,-5.1924 28.80537,-8.99747 15.93559,-7.46416 29.05131,-19.39365 39.3472,-35.78849 10.2953,-16.39444 15.6222,-34.367 15.9806,-53.91774 z m -58.01361,0 c -0.12333,7.76673 -2.16007,15.19747 -6.11024,22.29226 -3.95061,7.09525 -9.07603,12.37735 -15.37629,15.84631 -4.78991,2.36149 -9.57961,3.9506 -14.36912,4.76732 -4.78989,0.81716 -11.45966,1.19765 -20.00931,1.14148 l -74.1285,0 0,-88.09474 74.1285,0 c 8.54965,-0.0668 15.21942,0.33603 20.00931,1.20861 4.78951,0.87319 9.57921,2.61897 14.36912,5.23734 6.30026,3.91711 11.42568,9.24397 15.37629,15.9806 3.95015,6.7372 5.9869,13.94413 6.11024,21.62082 z" />
    <rect
       style="fill:#bb1122;fill-opacity:1;fill-rule:nonzero;stroke:none"
       id="rect3762"
       width="550"
       height="60"
       x="-1306.8586"
       y="184.18758"
       transform="matrix(-0.70710678,-0.70710678,0.70710678,-0.70710678,0,0)" />
  </g>
</svg>
