<?xml version="1.0" encoding="UTF-8" standalone="no"?>
<!-- Created with Inkscape (http://www.inkscape.org/) -->

<svg
   xmlns:dc="http://purl.org/dc/elements/1.1/"
   xmlns:cc="http://creativecommons.org/ns#"
   xmlns:rdf="http://www.w3.org/1999/02/22-rdf-syntax-ns#"
   xmlns:svg="http://www.w3.org/2000/svg"
   xmlns="http://www.w3.org/2000/svg"
   xmlns:sodipodi="http://sodipodi.sourceforge.net/DTD/sodipodi-0.dtd"
   xmlns:inkscape="http://www.inkscape.org/namespaces/inkscape"
   width="600"
   height="600"
   id="svg3796"
   version="1.1"
   inkscape:version="0.92.3 (2405546, 2018-03-11)"
   sodipodi:docname="Indonesia_road_sign_(Prohibitory) 2B3.svg">
  <defs
     id="defs3798" />
  <sodipodi:namedview
     id="base"
     pagecolor="#ffffff"
     bordercolor="#666666"
     borderopacity="1.0"
     inkscape:pageopacity="0.0"
     inkscape:pageshadow="2"
     inkscape:zoom="0.98994949"
     inkscape:cx="395.48731"
     inkscape:cy="315.74776"
     inkscape:document-units="px"
     inkscape:current-layer="layer1"
     showgrid="false"
     fit-margin-top="0"
     fit-margin-left="0"
     fit-margin-right="0"
     fit-margin-bottom="0"
     inkscape:window-width="1600"
     inkscape:window-height="838"
     inkscape:window-x="-8"
     inkscape:window-y="-8"
     inkscape:window-maximized="1" />
  <metadata
     id="metadata3801">
    <rdf:RDF>
      <cc:Work
         rdf:about="">
        <dc:format>image/svg+xml</dc:format>
        <dc:type
           rdf:resource="http://purl.org/dc/dcmitype/StillImage" />
        <dc:title></dc:title>
      </cc:Work>
    </rdf:RDF>
  </metadata>
  <g
     inkscape:label="Layer 1"
     inkscape:groupmode="layer"
     id="layer1"
     transform="translate(-774.28572,-669.50504)">
    <path
       sodipodi:type="arc"
       style="fill:#bb1122;fill-opacity:1;fill-rule:nonzero;stroke:none"
       id="path2990"
       sodipodi:cx="-550.7948"
       sodipodi:cy="267.20129"
       sodipodi:rx="290.23145"
       sodipodi:ry="304.42053"
       d="M -260.56335,267.20129 A 290.23145,304.42053 0 0 1 -550.7948,571.62183 290.23145,304.42053 0 0 1 -841.02625,267.20129 290.23145,304.42053 0 0 1 -550.7948,-37.219238 290.23145,304.42053 0 0 1 -260.56335,267.20129 Z"
       transform="matrix(1.0336578,0,0,0.98547891,1643.6191,706.18379)" />
    <path
       transform="matrix(0.82692625,0,0,0.78838313,1529.7524,758.84809)"
       d="M -260.56335,267.20129 A 290.23145,304.42053 0 0 1 -550.7948,571.62183 290.23145,304.42053 0 0 1 -841.02625,267.20129 290.23145,304.42053 0 0 1 -550.7948,-37.219238 290.23145,304.42053 0 0 1 -260.56335,267.20129 Z"
       sodipodi:ry="304.42053"
       sodipodi:rx="290.23145"
       sodipodi:cy="267.20129"
       sodipodi:cx="-550.7948"
       id="path3760"
       style="fill:#ffffff;fill-opacity:1;fill-rule:nonzero;stroke:none"
       sodipodi:type="arc" />
    <rect
       style="fill:#bb1122;fill-opacity:1;fill-rule:nonzero;stroke:none"
       id="rect3762"
       width="550"
       height="60"
       x="-1720.1783"
       y="44.091183"
       transform="matrix(-0.70710678,-0.70710678,0.70710678,-0.70710678,0,0)" />
    <path
       style="fill:#000000;stroke-width:0.82983834"
       d="m 1072.0908,825.04381 c -29.0463,-0.0804 -81.59384,1.75105 -92.94027,3.23955 -16.17726,2.12223 -16.8761,2.59421 -25.74506,17.35841 -8.01374,13.34055 -25.70463,48.14577 -25.70463,50.57194 0,0.22438 -0.79415,2.25356 -1.76318,4.50612 -1.27926,2.97372 -2.21916,4.09418 -3.43587,4.09418 -1.55161,0 -1.63793,-0.3664 -1.15877,-4.95074 0.46168,-4.41714 0.30642,-5.19778 -1.4398,-7.22787 l -1.95759,-2.27327 -9.80717,1.07601 c -12.34474,1.3541 -18.83035,3.33328 -22.45932,6.85059 -2.62481,2.54406 -2.79105,3.03356 -2.79105,8.31925 0,4.52833 0.28421,5.76908 1.4706,6.40402 2.73518,1.46382 11.34849,3.31474 19.64324,4.22123 4.53787,0.49592 8.36668,1.01757 8.50788,1.15877 0.14121,0.14121 -1.19909,1.78556 -2.97775,3.65532 -5.2963,5.56756 -7.22719,10.52991 -10.08436,25.91828 -1.61981,16.37922 -0.10197,32.90825 1.7728,48.95894 0,0 -1.00883,79.79186 1.81514,100.24316 0.31579,2.8018 1.03404,4.3648 2.63707,5.7437 h 0.004 c 2.13656,1.8379 2.70372,1.896 18.95991,1.8921 15.19648,0 17.00557,-0.1569 19.4315,-1.636 l 2.67749,-1.6305 0.22712,-12.6809 0.231,-12.6792 124.26747,-0.2097 124.2692,-0.2118 v 11.99 c 0,11.474 0.085,12.0888 1.9999,14.3172 l 1.9999,2.329 16.7945,0.2541 c 11.7141,0.1792 17.523,-0.042 19.2005,-0.7372 4.8732,-2.0186 4.8135,-1.4012 4.8314,-51.1342 0.012,-36.5776 0.2564,-46.7739 1.2454,-52.1136 1.6552,-8.93739 2.5697,-45.79953 1.3686,-55.18394 -1.2029,-9.39881 -4.3588,-17.23016 -9.0412,-22.43814 -2.0678,-2.29987 -3.6162,-4.32381 -3.4435,-4.49648 0.1726,-0.17266 4.033,-0.72865 8.581,-1.23577 14.1246,-1.57499 21.3059,-3.96096 22.4132,-7.44922 0.8146,-2.56695 -1.0489,-8.10414 -3.7728,-11.20655 -3.2544,-3.70658 -7.8619,-5.19113 -21.2985,-6.85829 -10.6709,-1.32402 -11.0319,-1.31798 -12.735,0.22328 -1.5294,1.38412 -1.7141,2.30596 -1.4359,7.22979 0.3143,5.56257 0.2885,5.6411 -1.6958,5.39925 -1.689,-0.20585 -2.4134,-1.31393 -4.51,-6.88332 -3.2417,-8.6107 -21.3176,-44.28214 -27.3927,-54.05595 -4.9405,-7.94856 -8.5672,-11.77158 -12.658,-13.3547 -7.1104,-2.75173 -54.5118,-5.16949 -104.0985,-5.30685 z m 24.3417,20.95984 c 31.692,0.0625 50.9414,0.79749 72.1863,2.5235 8.2377,0.66925 11.9176,1.30602 13.0583,2.26171 2.226,1.86474 27.3357,62.38508 27.337,65.88809 4e-4,1.10442 -6.0403,0.89952 -40.6609,-1.38975 -42.4383,-2.80625 -158.4662,-2.43776 -203.31192,0.64675 -26.12824,1.79708 -30.70351,1.98085 -30.70351,1.24154 0,-0.66555 6.19599,-17.57517 9.06804,-24.74798 0.8357,-2.08716 2.56067,-6.4102 3.83241,-9.60506 4.51218,-11.33549 12.14088,-29.06842 13.24305,-30.78628 2.58267,-4.02531 23.08722,-5.23755 99.57913,-5.8843 13.8639,-0.11721 25.8083,-0.16904 36.3721,-0.14822 z m 117.4841,116.10778 c 4.0622,0.0176 4.6849,0.41937 5.7169,1.45135 1.9369,1.93686 2.8998,6.9372 2.5081,13.00245 l -0.2656,4.11728 -8.712,1.06061 c -4.7923,0.58336 -10.9529,1.79868 -13.6915,2.70058 -2.7385,0.90189 -9.46,2.18357 -14.937,2.85067 -14.6278,1.78201 -29.0235,2.25246 -30.7323,1.00288 -1.2962,-0.94779 -1.2671,-1.47573 0.4081,-7.60511 2.9857,-10.92459 3.3512,-11.78826 5.6243,-13.27771 2.9933,-1.96125 22.2843,-4.23435 42.224,-4.97385 5.7449,-0.21306 9.4198,-0.33977 11.857,-0.32915 z m -268.17978,0.0289 c 2.36861,0.0259 5.29957,0.14036 8.93137,0.26756 20.259,0.70922 38.21115,2.68099 41.48466,4.55422 2.91201,1.66637 3.91335,3.4754 6.20005,11.2258 2.0416,6.91978 2.1517,10.08561 0.3792,10.76578 -0.722,0.27699 -2.1229,0.44779 -3.11251,0.3792 -0.98975,-0.069 -6.6534,-0.40212 -12.58677,-0.74114 -13.55506,-0.77433 -22.71533,-2.09791 -28.85176,-4.16727 -2.63231,-0.8877 -8.41988,-2.02844 -12.86194,-2.53698 -4.44205,-0.50855 -8.58833,-1.07215 -9.21431,-1.25309 -0.89017,-0.25725 -1.06278,-1.94682 -0.78536,-7.7495 0.41104,-8.59694 0.19363,-10.57426 8.23073,-10.73881 0.66975,-0.0137 1.3971,-0.0143 2.18664,-0.006 z"
       id="path9571"
       inkscape:connector-curvature="0" />
    <rect
       transform="matrix(-0.70710678,-0.70710678,0.70710678,-0.70710678,0,0)"
       y="44.091183"
       x="-1720.1783"
       height="60"
       width="550"
       id="rect19525"
       style="fill:#bb1122;fill-opacity:1;fill-rule:nonzero;stroke:none" />
  </g>
</svg>
