<?xml version="1.0" encoding="UTF-8" standalone="no"?>
<!-- Created with Inkscape (http://www.inkscape.org/) -->

<svg
   xmlns:dc="http://purl.org/dc/elements/1.1/"
   xmlns:cc="http://creativecommons.org/ns#"
   xmlns:rdf="http://www.w3.org/1999/02/22-rdf-syntax-ns#"
   xmlns:svg="http://www.w3.org/2000/svg"
   xmlns="http://www.w3.org/2000/svg"
   xmlns:sodipodi="http://sodipodi.sourceforge.net/DTD/sodipodi-0.dtd"
   xmlns:inkscape="http://www.inkscape.org/namespaces/inkscape"
   width="602mm"
   height="902mm"
   viewBox="0 0 602 902.00001"
   version="1.1"
   id="svg823"
   inkscape:version="0.92.2 (5c3e80d, 2017-08-06)"
   sodipodi:docname="Singapore Template 2.svg">
  <defs
     id="defs817" />
  <sodipodi:namedview
     id="base"
     pagecolor="#ffffff"
     bordercolor="#666666"
     borderopacity="1.0"
     inkscape:pageopacity="0.0"
     inkscape:pageshadow="2"
     inkscape:zoom="0.17029918"
     inkscape:cx="1276.8562"
     inkscape:cy="1860.0856"
     inkscape:document-units="mm"
     inkscape:current-layer="layer1"
     showgrid="false"
     inkscape:window-width="1920"
     inkscape:window-height="1057"
     inkscape:window-x="-8"
     inkscape:window-y="-8"
     inkscape:window-maximized="1"
     inkscape:snap-global="false"
     showguides="false"
     fit-margin-top="0"
     fit-margin-left="0"
     fit-margin-right="0"
     fit-margin-bottom="0" />
  <metadata
     id="metadata820">
    <rdf:RDF>
      <cc:Work
         rdf:about="">
        <dc:format>image/svg+xml</dc:format>
        <dc:type
           rdf:resource="http://purl.org/dc/dcmitype/StillImage" />
        <dc:title></dc:title>
      </cc:Work>
    </rdf:RDF>
  </metadata>
  <g
     inkscape:label="Layer 1"
     inkscape:groupmode="layer"
     id="layer1"
     transform="translate(-119.99969,605)">
    <rect
       ry="50"
       rx="50"
       y="-604"
       x="120.99969"
       height="900"
       width="600"
       id="rect1370"
       style="opacity:1;fill:#000000;fill-opacity:1;fill-rule:nonzero;stroke:none;stroke-width:0.08081928;stroke-linecap:square;stroke-linejoin:round;stroke-miterlimit:10;stroke-dasharray:none;stroke-opacity:1;paint-order:stroke fill markers" />
    <rect
       style="opacity:1;fill:#ffd219;fill-opacity:1;fill-rule:nonzero;stroke:none;stroke-width:0;stroke-linecap:square;stroke-linejoin:miter;stroke-miterlimit:10;stroke-dasharray:none;stroke-opacity:1;paint-order:fill markers stroke"
       id="rect826"
       width="570"
       height="870"
       x="135.99969"
       y="-589"
       rx="35"
       ry="35" />
    <path
       style="opacity:1;fill:#000000;fill-opacity:1;fill-rule:nonzero;stroke:none;stroke-width:45.48165512;stroke-linecap:square;stroke-linejoin:round;stroke-miterlimit:4;stroke-dasharray:none;stroke-opacity:1;paint-order:stroke fill markers"
       d="m 174.99969,-278.99976 h 44.9999 v 14.99996 h -29.9999 v 26.99993 h 29.9999 v 14.99996 h -29.9999 v 32.99992 h 29.9999 v 14.99996 h -44.9999 z"
       id="rect852"
       inkscape:connector-curvature="0"
       sodipodi:nodetypes="ccccccccccccc" />
    <path
       style="opacity:1;fill:#000000;fill-opacity:1;fill-rule:nonzero;stroke:none;stroke-width:53.64006424;stroke-linecap:square;stroke-linejoin:round;stroke-miterlimit:4;stroke-dasharray:none;stroke-opacity:1;paint-order:stroke fill markers"
       d="m 394.74969,-314 v -105 h -15 v 66 l -30,-66 h -15 v 105 h 15 v -66 l 30,66 z"
       id="rect855"
       inkscape:connector-curvature="0"
       sodipodi:nodetypes="ccccccccccc" />
    <path
       style="opacity:1;fill:#000000;fill-opacity:1;fill-rule:nonzero;stroke:none;stroke-width:0.13138433;stroke-linejoin:bevel;stroke-miterlimit:10;stroke-dasharray:none;stroke-opacity:1"
       d="m 253.74969,141 15,105 h 14.9997 l 7.5003,-52.5 7.5003,52.5 h 14.9996 l 15,-105 h -15 l -7.5,52.5 -7.4996,-52.5 h -15.0006 l -7.4997,52.5 -7.5,-52.5 z"
       id="rect1760"
       inkscape:connector-curvature="0"
       sodipodi:nodetypes="cccccccccccccc" />
    <path
       style="opacity:1;fill:#000000;fill-opacity:1;fill-rule:nonzero;stroke:none;stroke-width:0.22124141;stroke-linecap:square;stroke-linejoin:round;stroke-miterlimit:10;stroke-dasharray:none;stroke-opacity:1;paint-order:stroke fill markers"
       d="m 602.49969,-138.99973 h 14.9999 v 104.999728 h -14.9999 z"
       id="rect8214"
       inkscape:connector-curvature="0" />
    <path
       style="opacity:1;fill:#000000;fill-opacity:1;fill-rule:nonzero;stroke:none;stroke-width:0.07305783;stroke-linecap:square;stroke-linejoin:round;stroke-miterlimit:1.41400003;stroke-dasharray:none;stroke-opacity:1;paint-order:stroke fill markers"
       d="m 404.49969,-454 v -75.0001 h 15 V -454 Z m 0,-90 v -14.9995 h 15 V -544 Z"
       id="rect13728"
       inkscape:connector-curvature="0"
       sodipodi:nodetypes="cccccccccc" />
    <path
       style="opacity:1;fill:#000000;fill-opacity:1;fill-rule:nonzero;stroke:none;stroke-width:0.03258762;stroke-linecap:square;stroke-linejoin:round;stroke-miterlimit:10;stroke-dasharray:none;stroke-opacity:1;paint-order:stroke fill markers"
       d="m 494.49969,-558.9997 h 15 V -454 h -15 z"
       id="rect29426"
       inkscape:connector-curvature="0"
       sodipodi:nodetypes="ccccc" />
    <path
       style="opacity:1;fill:#000000;fill-opacity:1;fill-rule:nonzero;stroke:none;stroke-width:0.10361577;stroke-linecap:square;stroke-linejoin:round;stroke-miterlimit:10;stroke-dasharray:none;stroke-opacity:1;paint-order:stroke fill markers"
       d="m 276.99979,-174.00003 -15.0006,-37.49993 15.0006,-37.49994 h -15.0006 l -7.4995,18.74987 -7.4995,-18.74987 h -15.0006 l 15.0001,37.49994 -15.0001,37.49993 h 15.0006 l 7.4995,-18.75 7.4995,18.75 z"
       id="path5587"
       inkscape:connector-curvature="0"
       sodipodi:nodetypes="ccccccccccccc" />
    <path
       inkscape:connector-curvature="0"
       id="path13833"
       d="m 516.99959,-278.99988 h -14.9999 v 104.99973 h 14.9999 z"
       style="opacity:1;fill:#000000;fill-opacity:1;fill-rule:nonzero;stroke:none;stroke-width:0.14486818;stroke-linecap:square;stroke-linejoin:round;stroke-miterlimit:1.41400003;stroke-dasharray:none;stroke-opacity:1;paint-order:stroke fill markers" />
    <rect
       rx="16.499958"
       y="-248.99982"
       x="471.99979"
       height="74.999809"
       width="32.999916"
       id="rect13835"
       style="opacity:1;fill:#000000;fill-opacity:1;fill-rule:nonzero;stroke:none;stroke-width:0.17540225;stroke-linecap:square;stroke-linejoin:round;stroke-miterlimit:1.41400003;stroke-dasharray:none;stroke-opacity:1;paint-order:stroke fill markers"
       ry="16.5" />
    <rect
       style="opacity:1;fill:#ffd219;fill-opacity:1;fill-rule:nonzero;stroke:none;stroke-width:0.09160087;stroke-linecap:square;stroke-linejoin:round;stroke-miterlimit:1.41400003;stroke-dasharray:none;stroke-opacity:1;paint-order:stroke fill markers"
       id="rect13837"
       width="14.999962"
       height="44.999886"
       x="486.99966"
       y="-233.99988"
       rx="7.4999809"
       ry="7.5" />
    <path
       sodipodi:nodetypes="cccccccccc"
       inkscape:connector-curvature="0"
       id="path2157"
       d="m 531.99969,-174.00003 v -75.00011 h 15 v 75.00011 z m 0,-90 v -14.99955 h 15 v 14.99955 z"
       style="opacity:1;fill:#000000;fill-opacity:1;fill-rule:nonzero;stroke:none;stroke-width:0.07305785;stroke-linecap:square;stroke-linejoin:round;stroke-miterlimit:1.41400003;stroke-dasharray:none;stroke-opacity:1;paint-order:stroke fill markers" />
    <rect
       style="opacity:1;fill:#000000;fill-opacity:1;fill-rule:nonzero;stroke:none;stroke-width:0.17540225;stroke-linecap:square;stroke-linejoin:round;stroke-miterlimit:1.41400003;stroke-dasharray:none;stroke-opacity:1;paint-order:stroke fill markers"
       id="rect851"
       width="32.999916"
       height="74.999809"
       x="621.99976"
       y="-248.99985"
       rx="16.499958"
       ry="16.5" />
    <rect
       rx="7.4999809"
       y="-233.99991"
       x="636.99976"
       height="44.999886"
       width="14.999962"
       id="rect853"
       style="opacity:1;fill:#ffd219;fill-opacity:1;fill-rule:nonzero;stroke:none;stroke-width:0.09160087;stroke-linecap:square;stroke-linejoin:round;stroke-miterlimit:1.41400003;stroke-dasharray:none;stroke-opacity:1;paint-order:stroke fill markers"
       ry="7.5" />
    <path
       sodipodi:nodetypes="ccccc"
       inkscape:connector-curvature="0"
       id="path2194"
       d="m 360.99939,1.0000576 h 15 V 105.9998 h -15 z"
       style="opacity:1;fill:#000000;fill-opacity:1;fill-rule:nonzero;stroke:none;stroke-width:0.03258764;stroke-linecap:square;stroke-linejoin:round;stroke-miterlimit:10;stroke-dasharray:none;stroke-opacity:1;paint-order:stroke fill markers" />
    <path
       style="opacity:1;fill:#000000;fill-opacity:1;fill-rule:nonzero;stroke:none;stroke-width:0.14486822;stroke-linecap:square;stroke-linejoin:round;stroke-miterlimit:1.41400003;stroke-dasharray:none;stroke-opacity:1;paint-order:stroke fill markers"
       d="m 495.99969,0.99993763 h -15 V 105.9997 h 15 z"
       id="path2214"
       inkscape:connector-curvature="0" />
    <rect
       style="opacity:1;fill:#000000;fill-opacity:1;fill-rule:nonzero;stroke:none;stroke-width:0.17540231;stroke-linecap:square;stroke-linejoin:round;stroke-miterlimit:1.41400003;stroke-dasharray:none;stroke-opacity:1;paint-order:stroke fill markers"
       id="rect2216"
       width="32.999924"
       height="74.999832"
       x="450.9993"
       y="31.00009"
       rx="16.499962"
       ry="16.5" />
    <rect
       rx="7.4999828"
       y="46.000061"
       x="465.9993"
       height="44.999897"
       width="14.999966"
       id="rect2218"
       style="opacity:1;fill:#ffd219;fill-opacity:1;fill-rule:nonzero;stroke:none;stroke-width:0.09160089;stroke-linecap:square;stroke-linejoin:round;stroke-miterlimit:1.41400003;stroke-dasharray:none;stroke-opacity:1;paint-order:stroke fill markers"
       ry="7.5" />
    <path
       style="opacity:1;fill:#000000;fill-opacity:1;fill-rule:nonzero;stroke:none;stroke-width:0.07305783;stroke-linecap:square;stroke-linejoin:round;stroke-miterlimit:1.41400003;stroke-dasharray:none;stroke-opacity:1;paint-order:stroke fill markers"
       d="m 400.74929,246 v -75.0001 h 15 V 246 Z m 0,-90 v -15 h 15 v 15 z"
       id="path2228"
       inkscape:connector-curvature="0"
       sodipodi:nodetypes="cccccccccc" />
    <path
       style="opacity:1;fill:#000000;fill-opacity:1;fill-rule:nonzero;stroke:none;stroke-width:0.14730898;stroke-linecap:square;stroke-linejoin:round;stroke-miterlimit:1.41400003;stroke-dasharray:none;stroke-opacity:1;paint-order:stroke fill markers"
       d="m 437.49969,-138.99973 h 14.9999 v 59.999818 l 15,-29.999928 h 15 l -18.75,37.499908 18.75,37.4999 h -15 l -15,-29.99992 v 29.99995 h -14.9999 z"
       id="rect20112"
       inkscape:connector-curvature="0"
       sodipodi:nodetypes="cccccccccccc" />
    <path
       style="opacity:1;fill:#000000;fill-opacity:1;fill-rule:nonzero;stroke:none;stroke-width:2.09952378;stroke-linecap:square;stroke-linejoin:round;stroke-miterlimit:1.41400003;stroke-dasharray:none;stroke-opacity:1;paint-order:markers stroke fill"
       d="m 234.99969,-454 h 15 l -22.5,-105 h -15 z"
       id="rect2865"
       inkscape:connector-curvature="0"
       sodipodi:nodetypes="ccccc" />
    <path
       sodipodi:nodetypes="ccccc"
       inkscape:connector-curvature="0"
       id="path2868"
       d="m 249.99969,-454 h -15 l 22.5,-105 h 15 z"
       style="opacity:1;fill:#000000;fill-opacity:1;fill-rule:nonzero;stroke:none;stroke-width:2.09952378;stroke-linecap:square;stroke-linejoin:round;stroke-miterlimit:1.41400003;stroke-dasharray:none;stroke-opacity:1;paint-order:markers stroke fill" />
    <path
       style="opacity:1;fill:#000000;fill-opacity:1;fill-rule:nonzero;stroke:none;stroke-width:20.15771675;stroke-linecap:square;stroke-linejoin:miter;stroke-miterlimit:8;stroke-dasharray:none;stroke-opacity:1;paint-order:markers stroke fill"
       d="m 306.99989,-529 c -12.465,0 -22.5002,10.0351 -22.5002,22.5001 v 30.0001 c 0,12.465 10.0352,22.4998 22.5002,22.4998 12.465,0 22.4998,-10.0348 22.4998,-22.4998 h -14.9999 c 0,4.155 -3.3449,7.5 -7.4999,7.5 -4.155,0 -7.5004,-3.345 -7.5004,-7.5 v -7.5003 h 30.0002 v -22.4998 c 0,-12.465 -10.0348,-22.5001 -22.4998,-22.5001 z m 0,15.0002 c 4.155,0 7.4999,3.3449 7.4999,7.4999 V -499 h -15.0003 v -7.4999 c 0,-4.155 3.3454,-7.4999 7.5004,-7.4999 z"
       id="path874"
       inkscape:connector-curvature="0"
       sodipodi:nodetypes="ssssccssccssssccss" />
    <path
       style="opacity:1;fill:#000000;fill-opacity:1;fill-rule:nonzero;stroke:none;stroke-width:0.35125595;stroke-linecap:square;stroke-linejoin:round;stroke-miterlimit:1.41400003;stroke-dasharray:none;stroke-opacity:1;paint-order:markers stroke fill"
       d="m 344.49969,-559 h 15 v 105 h -15 z"
       id="rect2874-7"
       inkscape:connector-curvature="0" />
    <path
       style="opacity:1;fill:#000000;fill-opacity:1;fill-rule:nonzero;stroke:none;stroke-width:0.35708448;stroke-linecap:square;stroke-linejoin:round;stroke-miterlimit:1.41400003;stroke-dasharray:none;stroke-opacity:1;paint-order:markers stroke fill"
       d="m 389.49959,-454 v -58.4999 c 0,-9.141 -7.3591,-16.5001 -16.5001,-16.5001 -9.141,0 -16.4998,7.3591 -16.4998,16.5001 V -454 h 2.9999 v -52.5002 c 0,-4.155 3.3449,-7.5 7.4999,-7.5 4.155,0 7.5003,3.345 7.5003,7.5 V -454 Z"
       id="rect2886-1"
       inkscape:connector-curvature="0"
       sodipodi:nodetypes="csssccssscc" />
    <path
       style="opacity:1;fill:#000000;fill-opacity:1;fill-rule:nonzero;stroke:none;stroke-width:2.3562665;stroke-linecap:square;stroke-linejoin:round;stroke-miterlimit:10;stroke-dasharray:none;stroke-opacity:1;paint-order:markers stroke fill"
       d="m 456.99999,-529 c -12.4651,0 -22.5003,10.0349 -22.5003,22.4999 v 30.0002 c 0,12.4651 10.0352,22.4999 22.5003,22.4999 12.465,0 22.4998,-10.0348 22.4998,-22.4999 h -14.9999 c 0,4.155 -3.3449,7.5 -7.4999,7.5 -4.1551,0 -7.5004,-3.345 -7.5004,-7.5 v -30.0002 c 0,-4.155 3.3453,-7.4999 7.5004,-7.4999 4.155,0 7.4999,3.3449 7.4999,7.4999 h 14.9999 c 0,-12.465 -10.0348,-22.4999 -22.4998,-22.4999 z"
       id="rect2339"
       inkscape:connector-curvature="0"
       sodipodi:nodetypes="sssssssssssss" />
    <path
       sodipodi:nodetypes="ssssccssccssssccss"
       inkscape:connector-curvature="0"
       id="path2936"
       d="m 546.99989,-529 c -12.465,0 -22.5002,10.0351 -22.5002,22.5001 v 30.0001 c 0,12.465 10.0352,22.4998 22.5002,22.4998 12.465,0 22.4998,-10.0348 22.4998,-22.4998 h -14.9999 c 0,4.155 -3.3449,7.5 -7.4999,7.5 -4.155,0 -7.5004,-3.345 -7.5004,-7.5 v -7.5003 h 30.0002 v -22.4998 c 0,-12.465 -10.0348,-22.5001 -22.4998,-22.5001 z m 0,15.0002 c 4.155,0 7.4999,3.3449 7.4999,7.4999 V -499 h -15.0003 v -7.4999 c 0,-4.155 3.3454,-7.4999 7.5004,-7.4999 z"
       style="opacity:1;fill:#000000;fill-opacity:1;fill-rule:nonzero;stroke:none;stroke-width:20.15771675;stroke-linecap:square;stroke-linejoin:miter;stroke-miterlimit:8;stroke-dasharray:none;stroke-opacity:1;paint-order:markers stroke fill" />
    <path
       style="opacity:1;fill:#000000;fill-opacity:1;fill-rule:nonzero;stroke:none;stroke-width:0.17607446;stroke-linecap:square;stroke-linejoin:round;stroke-miterlimit:1.41400003;stroke-dasharray:none;stroke-opacity:1;paint-order:markers stroke fill"
       d="m 610.82839,-498.0394 13.0294,10.4015 c 3.5656,2.8464 5.6419,7.1607 5.6419,11.7229 v 6.9151 c 10e-5,8.3101 -6.6898,14.9999 -14.9998,14.9999 h -15.0003 c -8.31,0 -14.9999,-6.6899 -14.9999,-14.9999 v -7.4999 h 14.9999 v 4.4997 c 0,1.6621 1.3382,3.0002 3.0002,3.0002 h 8.9999 c 1.6619,0 3.0002,-1.3381 3.0002,-3.0002 l -4e-4,-2.4711 c 0,-0.9125 -0.4152,-1.7752 -1.1283,-2.3445 l -11.9012,-9.5007 z"
       id="path2529"
       inkscape:connector-curvature="0"
       sodipodi:nodetypes="csscssscccssccccc" />
    <path
       sodipodi:nodetypes="csscssscccssccccc"
       inkscape:connector-curvature="0"
       id="path2531"
       d="m 603.17139,-484.9586 -13.0298,-10.4011 c -3.5655,-2.8462 -5.6419,-7.1606 -5.6419,-11.7229 v -6.9175 c 0,-8.3101 6.6899,-14.9999 14.9999,-14.9999 h 15.0003 c 8.31,0 14.9998,6.6898 14.9998,14.9999 v 7.4999 h -14.9998 v -4.4997 c 0,-1.6621 -1.3382,-3.0002 -3.0002,-3.0002 h -8.9999 c -1.662,0 -3.0002,1.3381 -3.0002,3.0002 l 4e-4,2.4736 c 0,0.9124 0.4152,1.7752 1.1282,2.3444 l 11.9013,9.5007 z"
       style="opacity:1;fill:#000000;fill-opacity:1;fill-rule:nonzero;stroke:none;stroke-width:0.17607446;stroke-linecap:square;stroke-linejoin:round;stroke-miterlimit:1.41400003;stroke-dasharray:none;stroke-opacity:1;paint-order:markers stroke fill" />
    <rect
       ry="16.5"
       rx="16.5"
       y="-389.00003"
       x="409.74966"
       height="75"
       width="45"
       id="rect2633"
       style="opacity:1;fill:#000000;fill-opacity:1;fill-rule:nonzero;stroke:none;stroke-width:0.47681192;stroke-linecap:square;stroke-linejoin:round;stroke-miterlimit:1.41400003;stroke-dasharray:none;stroke-opacity:1;paint-order:markers stroke fill" />
    <rect
       style="opacity:1;fill:#ffd219;fill-opacity:1;fill-rule:nonzero;stroke:none;stroke-width:0.21323678;stroke-linecap:square;stroke-linejoin:round;stroke-miterlimit:1.41400003;stroke-dasharray:none;stroke-opacity:1;paint-order:markers stroke fill"
       id="rect2635"
       width="15"
       height="45"
       x="424.74966"
       y="-374.00003"
       rx="3"
       ry="3" />
    <path
       sodipodi:nodetypes="cccccssccsscccccc"
       inkscape:connector-curvature="0"
       id="path8990"
       d="m 477.24969,-419 v 30 h -7.5 v 15 h 7.5 v 45.0001 c 0,8.31 6.6898,14.9999 14.9998,14.9999 h 15.0002 v -14.9999 h -11.9999 c -1.662,0 -3.0003,-1.3381 -3.0003,-3.0002 V -374 h 15.0002 v -15 h -15.0002 v -30 z"
       style="opacity:1;fill:#000000;fill-opacity:1;fill-rule:nonzero;stroke:none;stroke-width:12.83234024;stroke-linecap:square;stroke-linejoin:miter;stroke-miterlimit:8;stroke-dasharray:none;stroke-opacity:1;paint-order:markers stroke fill" />
    <path
       sodipodi:nodetypes="sssssssssssss"
       inkscape:connector-curvature="0"
       id="path2988"
       d="m 314.49999,-249.00003 c -12.4651,0 -22.5003,10.03489 -22.5003,22.49994 v 30.0002 c 0,12.46503 10.0352,22.49986 22.5003,22.49986 12.465,0 22.4998,-10.03483 22.4998,-22.49986 h -14.9999 c 0,4.155 -3.3449,7.49994 -7.4999,7.49994 -4.1551,0 -7.5004,-3.34494 -7.5004,-7.49994 v -30.0002 c 0,-4.15502 3.3453,-7.49996 7.5004,-7.49996 4.155,0 7.4999,3.34494 7.4999,7.49996 h 14.9999 c 0,-12.46505 -10.0348,-22.49994 -22.4998,-22.49994 z"
       style="opacity:1;fill:#000000;fill-opacity:1;fill-rule:nonzero;stroke:none;stroke-width:2.3562665;stroke-linecap:square;stroke-linejoin:round;stroke-miterlimit:10;stroke-dasharray:none;stroke-opacity:1;paint-order:markers stroke fill" />
    <path
       sodipodi:nodetypes="ssssccssccssssccss"
       inkscape:connector-curvature="0"
       id="path2999"
       d="m 374.49989,-249.00003 c -12.465,0 -22.5002,10.03514 -22.5002,22.50013 v 30.00012 c 0,12.46499 10.0352,22.49975 22.5002,22.49975 12.465,0 22.4998,-10.03476 22.4998,-22.49975 h -14.9999 c 0,4.15492 -3.3449,7.49991 -7.4999,7.49991 -4.155,0 -7.5004,-3.34499 -7.5004,-7.49991 v -7.50037 h 30.0002 v -22.49975 c 0,-12.46499 -10.0348,-22.50013 -22.4998,-22.50013 z m 0,15.00021 c 4.155,0 7.4999,3.34492 7.4999,7.49992 v 7.49991 h -15.0003 v -7.49991 c 0,-4.155 3.3454,-7.49992 7.5004,-7.49992 z"
       style="opacity:1;fill:#000000;fill-opacity:1;fill-rule:nonzero;stroke:none;stroke-width:20.15771675;stroke-linecap:square;stroke-linejoin:miter;stroke-miterlimit:8;stroke-dasharray:none;stroke-opacity:1;paint-order:markers stroke fill" />
    <path
       style="opacity:1;fill:#000000;fill-opacity:1;fill-rule:nonzero;stroke:none;stroke-width:20.15771675;stroke-linecap:square;stroke-linejoin:miter;stroke-miterlimit:8;stroke-dasharray:none;stroke-opacity:1;paint-order:markers stroke fill"
       d="m 434.49989,-249.00003 c -12.465,0 -22.5002,10.03514 -22.5002,22.50013 v 30.00012 c 0,12.46499 10.0352,22.49975 22.5002,22.49975 12.465,0 22.4998,-10.03476 22.4998,-22.49975 h -14.9999 c 0,4.15492 -3.3449,7.49991 -7.4999,7.49991 -4.155,0 -7.5004,-3.34499 -7.5004,-7.49991 v -7.50037 h 30.0002 v -22.49975 c 0,-12.46499 -10.0348,-22.50013 -22.4998,-22.50013 z m 0,15.00021 c 4.155,0 7.4999,3.34492 7.4999,7.49992 v 7.49991 h -15.0003 v -7.49991 c 0,-4.155 3.3454,-7.49992 7.5004,-7.49992 z"
       id="path3019"
       inkscape:connector-curvature="0"
       sodipodi:nodetypes="ssssccssccssssccss" />
    <path
       id="path2601"
       d="m 561.99969,-174.00003 h 15 v -75 h -15 z"
       style="opacity:1;fill:#000000;fill-opacity:1;fill-rule:nonzero;stroke:none;stroke-width:0.29215583;stroke-linecap:square;stroke-linejoin:round;stroke-miterlimit:1.41400003;stroke-dasharray:none;stroke-opacity:1;paint-order:markers stroke fill"
       inkscape:connector-curvature="0" />
    <path
       sodipodi:nodetypes="csssccssscc"
       inkscape:connector-curvature="0"
       id="path2603"
       d="m 606.99969,-174.00003 v -58.49985 c 0,-9.14092 -7.3591,-16.50015 -16.5001,-16.50015 -9.141,0 -16.4998,7.35923 -16.4998,16.50015 v 58.49985 h 2.9998 v -52.50022 c 0,-4.155 3.345,-7.49993 7.5,-7.49993 4.155,0 7.5003,3.34493 7.5003,7.49993 v 52.50022 z"
       style="opacity:1;fill:#000000;fill-opacity:1;fill-rule:nonzero;stroke:none;stroke-width:0.44877228;stroke-linecap:square;stroke-linejoin:round;stroke-miterlimit:1.41400003;stroke-dasharray:none;stroke-opacity:1;paint-order:markers stroke fill" />
    <path
       style="opacity:1;fill:#000000;fill-opacity:1;fill-rule:nonzero;stroke:none;stroke-width:1.17194748;stroke-linecap:square;stroke-linejoin:round;stroke-miterlimit:10;stroke-dasharray:none;stroke-opacity:1;paint-order:markers stroke fill"
       d="m 621.99969,-166.49991 c 0,12.46499 10.0349,22.49991 22.4999,22.49991 12.465,0 22.5001,-10.03492 22.5001,-22.49991 V -249 h -15 v 82.50009 c 0,4.155 -3.3451,7.4998 -7.5001,7.4998 -4.155,0 -7.4998,-3.3448 -7.4998,-7.4998 z"
       id="rect2316"
       inkscape:connector-curvature="0"
       sodipodi:nodetypes="sssccssss" />
    <path
       style="opacity:1;fill:#000000;fill-opacity:1;fill-rule:nonzero;stroke:none;stroke-width:0.02500584;stroke-linecap:square;stroke-linejoin:round;stroke-miterlimit:10;stroke-dasharray:none;stroke-opacity:1;paint-order:stroke fill markers"
       d="m 182.49969,-138.99999 c -9.9721,-2e-5 -18,8.02795 -18,17.99997 v 12.00005 h 15.0001 v -7.50007 c 0,-4.15499 3.3448,-7.50008 7.4999,-7.50008 4.155,2e-5 7.5,3.34508 7.5,7.50008 v 8.59588 c 0,5.90663 -1.7437,11.681818 -5.0123,16.601578 l -21.2285,31.95135 c -2.4515,3.68987 -3.7592,8.02119 -3.7592,12.45122 v 12.90001 l 45.0002,-10e-6 v -14.99989 l -30.1094,-1.3e-4 22.5907,-34.00143 c 4.9031,-7.37973 7.5186,-16.0426 7.5187,-24.902648 v -13.09591 c 0,-9.97202 -8.0282,-17.99999 -18.0003,-17.99998 z"
       id="rect844"
       inkscape:connector-curvature="0"
       sodipodi:nodetypes="csccscsccccccccccscc" />
    <path
       style="opacity:1;fill:#000000;fill-opacity:1;fill-rule:nonzero;stroke:none;stroke-width:0.01688723;stroke-linecap:square;stroke-linejoin:round;stroke-miterlimit:10;stroke-dasharray:none;stroke-opacity:1;paint-order:stroke fill markers"
       d="m 269.49979,-139 v 15.0001 h -30 v 19.56314 c 3.1802,-2.84008 7.3812,-4.56328 12.0001,-4.56328 9.972,0 17.9999,8.02818 17.9999,18.000178 v 38.99993 c 0,9.97199 -8.0279,17.99993 -17.9999,17.99993 h -9 c -9.972,0 -18.0002,-8.02794 -18.0002,-17.99993 v -12.00004 h 15.0001 v 7.50006 c 0,4.155 3.3451,7.50006 7.5001,7.50006 4.155,0 7.4998,-3.34506 7.4998,-7.50006 v -28.50007 c 0,-4.155 -3.3448,-7.50005 -7.4998,-7.50005 -4.155,0 -7.5001,3.34505 -7.5001,7.50005 h -15.0001 V -139 Z"
       id="rect899"
       inkscape:connector-curvature="0"
       sodipodi:nodetypes="ccccssssssccssssscccc" />
    <rect
       style="opacity:1;fill:#000000;fill-opacity:1;fill-rule:nonzero;stroke:none;stroke-width:3.53825498;stroke-linecap:square;stroke-linejoin:round;stroke-miterlimit:1.41400003;stroke-dasharray:none;stroke-opacity:1;paint-order:markers stroke fill"
       id="rect3086"
       width="52.5"
       height="105"
       x="284.49933"
       y="-139.00003"
       rx="18"
       ry="18" />
    <rect
       ry="7.5"
       rx="7.5"
       y="-124.00003"
       x="299.49933"
       height="75"
       width="22.5"
       id="rect3088"
       style="opacity:1;fill:#ffd219;fill-opacity:1;fill-rule:nonzero;stroke:none;stroke-width:1.95765746;stroke-linecap:square;stroke-linejoin:round;stroke-miterlimit:1.41400003;stroke-dasharray:none;stroke-opacity:1;paint-order:markers stroke fill" />
    <rect
       ry="18"
       rx="18"
       y="-139.00003"
       x="354.99969"
       height="105"
       width="52.5"
       id="rect3108"
       style="opacity:1;fill:#000000;fill-opacity:1;fill-rule:nonzero;stroke:none;stroke-width:3.53825498;stroke-linecap:square;stroke-linejoin:round;stroke-miterlimit:1.41400003;stroke-dasharray:none;stroke-opacity:1;paint-order:markers stroke fill" />
    <rect
       style="opacity:1;fill:#ffd219;fill-opacity:1;fill-rule:nonzero;stroke:none;stroke-width:1.95765746;stroke-linecap:square;stroke-linejoin:round;stroke-miterlimit:1.41400003;stroke-dasharray:none;stroke-opacity:1;paint-order:markers stroke fill"
       id="rect3110"
       width="22.5"
       height="75"
       x="369.99969"
       y="-124.00003"
       rx="7.5"
       ry="7.5" />
    <rect
       ry="16.5"
       rx="16.499958"
       y="-108.99985"
       x="497.49969"
       height="74.999809"
       width="32.999916"
       id="rect3112"
       style="opacity:1;fill:#000000;fill-opacity:1;fill-rule:nonzero;stroke:none;stroke-width:0.17540225;stroke-linecap:square;stroke-linejoin:round;stroke-miterlimit:1.41400003;stroke-dasharray:none;stroke-opacity:1;paint-order:stroke fill markers" />
    <rect
       ry="7.5"
       style="opacity:1;fill:#ffd219;fill-opacity:1;fill-rule:nonzero;stroke:none;stroke-width:0.09160087;stroke-linecap:square;stroke-linejoin:round;stroke-miterlimit:1.41400003;stroke-dasharray:none;stroke-opacity:1;paint-order:stroke fill markers"
       id="rect3114"
       width="14.999962"
       height="44.999886"
       x="512.49969"
       y="-93.999908"
       rx="7.4999809" />
    <path
       sodipodi:nodetypes="sssccssss"
       inkscape:connector-curvature="0"
       id="path3116"
       d="m 497.49969,-26.499912 c 0,12.46499 10.0349,22.4999096 22.4999,22.4999096 12.465,0 22.5001,-10.0349196 22.5001,-22.4999096 V -109 h -15.0001 v 82.500088 c 0,4.155 -3.345,7.4998 -7.5,7.4998 -4.155,0 -7.4998,-3.3448 -7.4998,-7.4998 z"
       style="opacity:1;fill:#000000;fill-opacity:1;fill-rule:nonzero;stroke:none;stroke-width:1.17194748;stroke-linecap:square;stroke-linejoin:round;stroke-miterlimit:10;stroke-dasharray:none;stroke-opacity:1;paint-order:markers stroke fill" />
    <path
       inkscape:connector-curvature="0"
       style="opacity:1;fill:#000000;fill-opacity:1;fill-rule:nonzero;stroke:none;stroke-width:0.29215583;stroke-linecap:square;stroke-linejoin:round;stroke-miterlimit:1.41400003;stroke-dasharray:none;stroke-opacity:1;paint-order:markers stroke fill"
       d="m 632.49969,-34.000002 h 15 V -109 h -15 z"
       id="path3129" />
    <path
       style="opacity:1;fill:#000000;fill-opacity:1;fill-rule:nonzero;stroke:none;stroke-width:0.44877228;stroke-linecap:square;stroke-linejoin:round;stroke-miterlimit:1.41400003;stroke-dasharray:none;stroke-opacity:1;paint-order:markers stroke fill"
       d="m 677.49969,-34.000002 v -58.49986 c 0,-9.140908 -7.3592,-16.500138 -16.5002,-16.500138 -9.141,0 -16.4997,7.35923 -16.4997,16.500138 v 58.49986 h 2.9997 v -52.50023 c 0,-4.155 3.345,-7.49993 7.5,-7.49993 4.155,0 7.5003,3.34493 7.5003,7.49993 v 52.50023 z"
       id="path3131"
       inkscape:connector-curvature="0"
       sodipodi:nodetypes="csssccssscc" />
    <path
       style="opacity:1;fill:#000000;fill-opacity:1;fill-rule:nonzero;stroke:none;stroke-width:1.65026307;stroke-linecap:square;stroke-linejoin:round;stroke-miterlimit:10;stroke-dasharray:none;stroke-opacity:1;paint-order:markers stroke fill"
       d="M 225.99969,0.99998763 V 83.500048 c 0,12.465 10.035,22.499952 22.5,22.499952 h 15.0001 c 12.465,0 22.4999,-10.034952 22.4999,-22.499952 V 0.99998763 h -14.9999 V 83.500048 c 0,4.155 -3.345,7.5001 -7.5,7.5001 h -15.0001 c -4.155,0 -7.4998,-3.3451 -7.4998,-7.5001 V 0.99998763 Z"
       id="rect1056"
       inkscape:connector-curvature="0"
       sodipodi:nodetypes="cssssccsssscc" />
    <path
       id="path3158"
       d="m 300.99969,106 h 15 V 30.999988 h -15 z"
       style="opacity:1;fill:#000000;fill-opacity:1;fill-rule:nonzero;stroke:none;stroke-width:0.29215583;stroke-linecap:square;stroke-linejoin:round;stroke-miterlimit:1.41400003;stroke-dasharray:none;stroke-opacity:1;paint-order:markers stroke fill"
       inkscape:connector-curvature="0" />
    <path
       sodipodi:nodetypes="csssccssscc"
       inkscape:connector-curvature="0"
       id="path3160"
       d="M 345.99969,106 V 47.500138 c 0,-9.14092 -7.3591,-16.50015 -16.5001,-16.50015 -9.141,0 -16.4998,7.35923 -16.4998,16.50015 V 106 h 2.9998 V 53.499768 c 0,-4.155 3.345,-7.49993 7.5,-7.49993 4.155,0 7.5003,3.34493 7.5003,7.49993 V 106 Z"
       style="opacity:1;fill:#000000;fill-opacity:1;fill-rule:nonzero;stroke:none;stroke-width:0.44877228;stroke-linecap:square;stroke-linejoin:round;stroke-miterlimit:1.41400003;stroke-dasharray:none;stroke-opacity:1;paint-order:markers stroke fill" />
    <path
       style="opacity:1;fill:#000000;fill-opacity:1;fill-rule:nonzero;stroke:none;stroke-width:0.48458728;stroke-linecap:square;stroke-linejoin:miter;stroke-miterlimit:1.41400003;stroke-dasharray:none;stroke-opacity:1;paint-order:markers stroke fill"
       d="m 405.99989,106 c -8.31,0 -15.0002,-6.689851 -15.0002,-14.999842 v -0.99994 c 0,-7.22221 3.1951,-14.07458 8.7277,-18.71692 l 21.2723,-17.84953 v -4.43385 c 0,-1.662 -1.338,-2.9998 -3,-2.9998 h -9 c -1.662,0 -2.9998,1.3378 -2.9998,2.9998 v 4.5 h -15.0002 v -7.4998 c 0,-8.30999 6.6902,-15.00013 15.0002,-15.00013 h 14.9998 c 8.31,0 15.0001,6.69014 15.0001,15.00013 v 53.999992 c 0,3.324 2.6759,5.99989 5.9999,5.99989 h -14.9998 c -3.324,0 -5.9999,-2.67589 -5.9999,-5.99989 0,3.324 -2.6762,5.99989 -6.0002,5.99989 z"
       id="path2262"
       inkscape:connector-curvature="0"
       sodipodi:nodetypes="sssccssssccssssscsccs" />
    <path
       style="opacity:1;fill:#ffd219;fill-opacity:1;fill-rule:nonzero;stroke:none;stroke-width:0.76228386;stroke-linecap:square;stroke-linejoin:miter;stroke-miterlimit:1.41400003;stroke-dasharray:none;stroke-opacity:1;paint-order:markers stroke fill"
       d="m 409.37549,78.060798 c -2.1399,1.79551 -3.3757,4.44573 -3.3758,7.23909 v 2.70009 c 0,1.662 1.3381,3.00007 3.0001,3.00007 h 9 c 1.662,0 3.0001,-1.33807 3.0001,-3.00007 l -10e-5,-19.69297 z"
       id="path2264"
       inkscape:connector-curvature="0"
       sodipodi:nodetypes="ccsssscc" />
    <path
       style="opacity:1;fill:#000000;fill-opacity:1;fill-rule:nonzero;stroke:none;stroke-width:20.15771675;stroke-linecap:square;stroke-linejoin:miter;stroke-miterlimit:8;stroke-dasharray:none;stroke-opacity:1;paint-order:markers stroke fill"
       d="m 533.49989,30.999988 c -12.465,0 -22.5002,10.03514 -22.5002,22.50013 v 30.00013 c 0,12.46499 10.0352,22.499752 22.5002,22.499752 12.465,0 22.4998,-10.034762 22.4998,-22.499752 h -14.9998 c 0,4.15492 -3.345,7.49991 -7.5,7.49991 -4.155,0 -7.5003,-3.34499 -7.5003,-7.49991 v -7.50037 h 30.0001 v -22.49976 c 0,-12.46499 -10.0348,-22.50013 -22.4998,-22.50013 z m 0,15.00021 c 4.155,0 7.5,3.34492 7.5,7.49992 v 7.49991 h -15.0003 v -7.49991 c 0,-4.155 3.3453,-7.49992 7.5003,-7.49992 z"
       id="path3190"
       inkscape:connector-curvature="0"
       sodipodi:nodetypes="ssssccssccssssccss" />
    <path
       id="path3201"
       d="m 570.99969,106 h 15 V 30.999988 h -15 z"
       style="opacity:1;fill:#000000;fill-opacity:1;fill-rule:nonzero;stroke:none;stroke-width:0.29215583;stroke-linecap:square;stroke-linejoin:round;stroke-miterlimit:1.41400003;stroke-dasharray:none;stroke-opacity:1;paint-order:markers stroke fill"
       inkscape:connector-curvature="0" />
    <path
       sodipodi:nodetypes="csssccssscc"
       inkscape:connector-curvature="0"
       id="path3203"
       d="M 615.99969,106 V 47.500138 c 0,-9.14092 -7.3591,-16.50015 -16.5001,-16.50015 -9.141,0 -16.4998,7.35923 -16.4998,16.50015 V 106 h 2.9998 V 53.499768 c 0,-4.155 3.345,-7.49993 7.5,-7.49993 4.155,0 7.5003,3.34493 7.5003,7.49993 V 106 Z"
       style="opacity:1;fill:#000000;fill-opacity:1;fill-rule:nonzero;stroke:none;stroke-width:0.44877228;stroke-linecap:square;stroke-linejoin:round;stroke-miterlimit:1.41400003;stroke-dasharray:none;stroke-opacity:1;paint-order:markers stroke fill" />
    <path
       sodipodi:nodetypes="ssssccssccssssccss"
       inkscape:connector-curvature="0"
       id="path3215"
       d="m 363.24989,170.99999 c -12.4649,0 -22.5002,10.03514 -22.5002,22.50013 v 30.00013 c 0,12.46499 10.0353,22.49975 22.5002,22.49975 12.465,0 22.4998,-10.03476 22.4998,-22.49975 h -14.9998 c 0,4.15492 -3.345,7.49991 -7.5,7.49991 -4.155,0 -7.5003,-3.34499 -7.5003,-7.49991 v -7.50038 h 30.0001 v -22.49975 c 0,-12.46499 -10.0348,-22.50013 -22.4998,-22.50013 z m 0,15.00021 c 4.155,0 7.5,3.34492 7.5,7.49992 v 7.49991 h -15.0003 v -7.49991 c 0,-4.155 3.3453,-7.49992 7.5003,-7.49992 z"
       style="opacity:1;fill:#000000;fill-opacity:1;fill-rule:nonzero;stroke:none;stroke-width:20.15771675;stroke-linecap:square;stroke-linejoin:miter;stroke-miterlimit:8;stroke-dasharray:none;stroke-opacity:1;paint-order:markers stroke fill" />
    <rect
       ry="16.5"
       rx="16.499958"
       y="171.00012"
       x="430.74988"
       height="74.999809"
       width="32.999916"
       id="rect3226"
       style="opacity:1;fill:#000000;fill-opacity:1;fill-rule:nonzero;stroke:none;stroke-width:0.17540225;stroke-linecap:square;stroke-linejoin:round;stroke-miterlimit:1.41400003;stroke-dasharray:none;stroke-opacity:1;paint-order:stroke fill markers" />
    <rect
       ry="7.5"
       style="opacity:1;fill:#ffd219;fill-opacity:1;fill-rule:nonzero;stroke:none;stroke-width:0.09160087;stroke-linecap:square;stroke-linejoin:round;stroke-miterlimit:1.41400003;stroke-dasharray:none;stroke-opacity:1;paint-order:stroke fill markers"
       id="rect3228"
       width="14.999962"
       height="44.999886"
       x="445.74976"
       y="186.00006"
       rx="7.4999809" />
    <path
       sodipodi:nodetypes="sssccssss"
       inkscape:connector-curvature="0"
       id="path3230"
       d="m 430.74969,253.50009 c 0,12.46499 10.0349,22.49991 22.4999,22.49991 12.465,0 22.5001,-10.03492 22.5001,-22.49991 V 171 h -15 v 82.50009 c 0,4.155 -3.3451,7.4998 -7.5001,7.4998 -4.155,0 -7.4998,-3.3448 -7.4998,-7.4998 z"
       style="opacity:1;fill:#000000;fill-opacity:1;fill-rule:nonzero;stroke:none;stroke-width:1.17194748;stroke-linecap:square;stroke-linejoin:round;stroke-miterlimit:10;stroke-dasharray:none;stroke-opacity:1;paint-order:markers stroke fill" />
    <path
       inkscape:connector-curvature="0"
       id="path3243"
       d="m 490.74969,141 h 15 v 105 h -15 z"
       style="opacity:1;fill:#000000;fill-opacity:1;fill-rule:nonzero;stroke:none;stroke-width:0.35125595;stroke-linecap:square;stroke-linejoin:round;stroke-miterlimit:1.41400003;stroke-dasharray:none;stroke-opacity:1;paint-order:markers stroke fill" />
    <path
       sodipodi:nodetypes="csssccssscc"
       inkscape:connector-curvature="0"
       id="path3245"
       d="m 535.74969,246 v -58.49986 c 0,-9.141 -7.3592,-16.50015 -16.5002,-16.50015 -9.141,0 -16.4998,7.35915 -16.4998,16.50015 V 246 h 2.9999 v -52.50023 c 0,-4.15493 3.3449,-7.49993 7.4999,-7.49993 4.155,0 7.5003,3.345 7.5003,7.49993 V 246 Z"
       style="opacity:1;fill:#000000;fill-opacity:1;fill-rule:nonzero;stroke:none;stroke-width:0.35708448;stroke-linecap:square;stroke-linejoin:round;stroke-miterlimit:1.41400003;stroke-dasharray:none;stroke-opacity:1;paint-order:markers stroke fill" />
    <path
       style="opacity:1;fill:#000000;fill-opacity:1;fill-rule:nonzero;stroke:none;stroke-width:12.83234024;stroke-linecap:square;stroke-linejoin:miter;stroke-miterlimit:8;stroke-dasharray:none;stroke-opacity:1;paint-order:markers stroke fill"
       d="m 558.24979,141 v 30.00002 h -7.5001 v 15.00002 h 7.5001 v 45.0001 c 0,8.31 6.6898,14.99986 14.9998,14.99986 h 15.0002 v -14.99986 h -12 c -1.662,0 -3.0002,-1.33815 -3.0002,-3.00023 v -41.99987 h 15.0002 v -15.00002 h -15.0002 V 141 Z"
       id="path3257"
       inkscape:connector-curvature="0"
       sodipodi:nodetypes="cccccssccsscccccc" />
  </g>
</svg>
