<svg xmlns="http://www.w3.org/2000/svg" width="636" height="508" viewBox="0 0 636 508">
  <g fill="none">
    <path fill="#FFF" stroke="#000" stroke-width="1.051" d="M61.846091,0.525671 L574.153911,0.525671 C608.125426,0.525671 635.474336,34.159861 635.474336,75.938671 L635.474336,432.061331 C635.474336,473.840141 608.125426,507.474336 574.153911,507.474336 L61.846091,507.474336 C27.874581,507.474336 0.525671,473.840141 0.525671,432.061331 L0.525671,75.938671 C0.525671,34.159861 27.874581,0.525671 61.846091,0.525671 Z" transform="rotate(180 318 254)"/>
    <path fill="#000" d="M62.08618,20 L574.6557,20 C599.633445,20 619.741882,44.8035 619.741882,75.61322 L619.741882,431.66224 C619.741882,462.47196 599.633445,487.27546 574.6557,487.27546 L62.08618,487.27546 C37.10844,487.27546 17,462.47196 17,431.66224 L17,75.61322 C17,44.8035 37.10844,20 62.08618,20 Z" transform="rotate(180 318.37 253.638)"/>
    <path fill="#FFF" d="M61.736606,467.217736 C45.930726,467.217736 33.206138,451.509856 33.206138,431.998276 L33.206138,76.001816 C33.206138,56.490236 45.930726,40.782356 61.736606,40.782356 L574.263466,40.782356 C590.069346,40.782356 602.793936,56.490236 602.793936,76.001816 L602.793936,431.998276 C602.793936,451.509856 590.069346,467.217736 574.263466,467.217736 L61.736606,467.217736 Z"/>
    <path fill="#000" d="M172.6,170.72 C172.6,208.112 156.488,224.072 131.56,224.072 L108,224.072 L108,117.672 L132.016,117.672 C157.552,117.672 172.6,133.328 172.6,170.72 Z M153.144,171.024 C153.144,151.416 149.04,136.216 132.016,136.216 L127,136.216 L127,205.528 L132.016,205.528 C149.04,205.528 153.144,190.632 153.144,171.024 Z M255.44,170.72 C255.44,201.424 244.648,225.744 220.024,225.744 C195.248,225.744 184.76,201.576 184.76,171.024 C184.76,140.32 195.552,116 220.328,116 C244.952,116 255.44,140.168 255.44,170.72 Z M235.984,171.024 C235.984,148.376 231.272,135 220.024,135 C208.624,135 204.216,148.072 204.216,170.72 C204.216,193.368 208.928,206.744 220.328,206.744 C231.576,206.744 235.984,193.672 235.984,171.024 Z M369.288,224.072 L351.048,224.072 L331.44,176.648 C328.704,169.96 325.36,161.296 323.384,155.064 C323.536,161.6 323.688,172.544 323.688,179.232 L323.688,224.072 L306.36,224.072 L306.36,117.672 L325.512,117.672 L344.208,164.336 C346.792,170.72 350.592,180.6 352.568,186.528 C352.416,179.992 351.96,168.44 351.96,161.752 L351.96,117.672 L369.288,117.672 L369.288,224.072 Z M455.928,170.72 C455.928,201.424 445.136,225.744 420.512,225.744 C395.736,225.744 385.248,201.576 385.248,171.024 C385.248,140.32 396.04,116 420.816,116 C445.44,116 455.928,140.168 455.928,170.72 Z M436.472,171.024 C436.472,148.376 431.76,135 420.512,135 C409.112,135 404.704,148.072 404.704,170.72 C404.704,193.368 409.416,206.744 420.816,206.744 C432.064,206.744 436.472,193.672 436.472,171.024 Z M528.888,135.912 L506.848,135.912 L506.848,224.072 L487.848,224.072 L487.848,135.912 L465.808,135.912 L465.808,117.672 L528.888,117.672 L528.888,135.912 Z M193.424,392.072 L137.488,392.072 L137.488,285.672 L192.056,285.672 L192.056,303.912 L156.488,303.912 L156.488,326.408 L180.352,326.408 L180.352,344.344 L156.488,344.344 L156.488,373.832 L193.424,373.832 L193.424,392.072 Z M272.768,392.072 L254.528,392.072 L234.92,344.648 C232.184,337.96 228.84,329.296 226.864,323.064 C227.016,329.6 227.168,340.544 227.168,347.232 L227.168,392.072 L209.84,392.072 L209.84,285.672 L228.992,285.672 L247.688,332.336 C250.272,338.72 254.072,348.6 256.048,354.528 C255.896,347.992 255.44,336.44 255.44,329.752 L255.44,285.672 L272.768,285.672 L272.768,392.072 Z M349.528,303.912 L327.488,303.912 L327.488,392.072 L308.488,392.072 L308.488,303.912 L286.448,303.912 L286.448,285.672 L349.528,285.672 L349.528,303.912 Z M419.144,392.072 L363.208,392.072 L363.208,285.672 L417.776,285.672 L417.776,303.912 L382.208,303.912 L382.208,326.408 L406.072,326.408 L406.072,344.344 L382.208,344.344 L382.208,373.832 L419.144,373.832 L419.144,392.072 Z M498.032,392.072 L477.36,392.072 L460.792,351.64 L454.56,351.64 L454.56,392.072 L435.56,392.072 L435.56,285.672 L463.832,285.672 C484.504,285.672 497.728,296.768 497.728,318.808 C497.728,333.704 490.128,342.976 479.792,347.84 L498.032,392.072 Z M478.728,319.112 C478.728,309.536 474.32,304.216 462.92,304.216 L454.56,304.216 L454.56,333.856 L463.984,333.856 C473.712,333.856 478.728,328.84 478.728,319.112 Z"/>
  </g>
</svg>
