<svg xmlns="http://www.w3.org/2000/svg" width="601" height="601" viewBox="0 0 601 601">
  <g fill="none">
    <circle cx="300.2" cy="300.2" r="300" fill="#C31926"/>
    <rect width="500" height="100" x="50" y="250" fill="#FFF"/>
    <path fill="#FFF" d="M287.928 211.072L269.688 211.072 250.08 163.648C247.344 156.96 244 148.296 242.024 142.064 242.176 148.6 242.328 159.544 242.328 166.232L242.328 211.072 225 211.072 225 104.672 244.152 104.672 262.848 151.336C265.432 157.72 269.232 167.6 271.208 173.528 271.056 166.992 270.6 155.44 270.6 148.752L270.6 104.672 287.928 104.672 287.928 211.072zM374.568 157.72C374.568 188.424 363.776 212.744 339.152 212.744 314.376 212.744 303.888 188.576 303.888 158.024 303.888 127.32 314.68 103 339.456 103 364.08 103 374.568 127.168 374.568 157.72zM355.112 158.024C355.112 135.376 350.4 122 339.152 122 327.752 122 323.344 135.072 323.344 157.72 323.344 180.368 328.056 193.744 339.456 193.744 350.704 193.744 355.112 180.672 355.112 158.024zM170.936 500.4L115 500.4 115 394 169.568 394 169.568 412.24 134 412.24 134 434.736 157.864 434.736 157.864 452.672 134 452.672 134 482.16 170.936 482.16 170.936 500.4zM250.28 500.4L232.04 500.4 212.432 452.976C209.696 446.288 206.352 437.624 204.376 431.392 204.528 437.928 204.68 448.872 204.68 455.56L204.68 500.4 187.352 500.4 187.352 394 206.504 394 225.2 440.664C227.784 447.048 231.584 456.928 233.56 462.856 233.408 456.32 232.952 444.768 232.952 438.08L232.952 394 250.28 394 250.28 500.4zM327.04 412.24L305 412.24 305 500.4 286 500.4 286 412.24 263.96 412.24 263.96 394 327.04 394 327.04 412.24zM403.192 500.4L382.52 500.4 365.952 459.968 359.72 459.968 359.72 500.4 340.72 500.4 340.72 394 368.992 394C389.664 394 402.888 405.096 402.888 427.136 402.888 442.032 395.288 451.304 384.952 456.168L403.192 500.4zM383.888 427.44C383.888 417.864 379.48 412.544 368.08 412.544L359.72 412.544 359.72 442.184 369.144 442.184C378.872 442.184 383.888 437.168 383.888 427.44zM484.816 394L457.304 460.272 457.304 500.4 438.304 500.4 438.304 460.576 410.944 394 431.92 394 440.128 415.584C443.624 424.856 447.12 435.344 448.032 440.36 449.096 435.344 452.592 424.4 455.936 415.584L464.144 394 484.816 394z"/>
    <path fill="#000" d="M147.76,323.036 L139.096,323.036 L139.096,305.86 C139.096,299.552 139.172,293.7 139.248,289.748 C138.184,293.548 136.436,299.476 134.46,305.556 L128.304,324.404 L122.148,305.556 C120.172,299.552 118.424,293.548 117.36,289.748 C117.436,293.7 117.512,299.552 117.512,305.86 L117.512,323.036 L109,323.036 L109,269.836 L118.576,269.836 L124.884,289.52 C126.48,294.46 128,299.02 128.456,301.528 C128.988,298.868 130.508,294.232 132.028,289.52 L138.336,269.836 L147.76,269.836 L147.76,323.036 Z M191.08,296.36 C191.08,311.712 185.684,323.872 173.372,323.872 C160.984,323.872 155.74,311.788 155.74,296.512 C155.74,281.16 161.136,269 173.524,269 C185.836,269 191.08,281.084 191.08,296.36 Z M181.352,296.512 C181.352,285.188 178.996,278.5 173.372,278.5 C167.672,278.5 165.468,285.036 165.468,296.36 C165.468,307.684 167.824,314.372 173.524,314.372 C179.148,314.372 181.352,307.836 181.352,296.512 Z M227.56,278.956 L216.54,278.956 L216.54,323.036 L207.04,323.036 L207.04,278.956 L196.02,278.956 L196.02,269.836 L227.56,269.836 L227.56,278.956 Z M267.84,296.36 C267.84,311.712 262.444,323.872 250.132,323.872 C237.744,323.872 232.5,311.788 232.5,296.512 C232.5,281.16 237.896,269 250.284,269 C262.596,269 267.84,281.084 267.84,296.36 Z M258.112,296.512 C258.112,285.188 255.756,278.5 250.132,278.5 C244.432,278.5 242.228,285.036 242.228,296.36 C242.228,307.684 244.584,314.372 250.284,314.372 C255.908,314.372 258.112,307.836 258.112,296.512 Z M307.056,323.036 L296.72,323.036 L288.436,302.82 L285.32,302.82 L285.32,323.036 L275.82,323.036 L275.82,269.836 L289.956,269.836 C300.292,269.836 306.904,275.384 306.904,286.404 C306.904,293.852 303.104,298.488 297.936,300.92 L307.056,323.036 Z M297.404,286.556 C297.404,281.768 295.2,279.108 289.5,279.108 L285.32,279.108 L285.32,293.928 L290.032,293.928 C294.896,293.928 297.404,291.42 297.404,286.556 Z M345.208,310.268 C342.7,319.008 338.064,323.872 329.932,323.872 C318.152,323.872 312.68,311.788 312.68,296.512 C312.68,281.16 318.304,269 330.084,269 C339.128,269 343.08,274.776 345.132,282.452 L336.24,285.34 C334.872,280.476 333.428,278.5 329.932,278.5 C324.84,278.5 322.408,285.036 322.408,296.36 C322.408,307.684 324.916,314.372 330.084,314.372 C333.352,314.372 335.024,312.548 337,306.772 L345.208,310.268 Z M385.868,269.836 L372.112,302.972 L372.112,323.036 L362.612,323.036 L362.612,303.124 L348.932,269.836 L359.42,269.836 L363.524,280.628 C365.272,285.264 367.02,290.508 367.476,293.016 C368.008,290.508 369.756,285.036 371.428,280.628 L375.532,269.836 L385.868,269.836 Z M422.728,310.268 C420.22,319.008 415.584,323.872 407.452,323.872 C395.672,323.872 390.2,311.788 390.2,296.512 C390.2,281.16 395.824,269 407.604,269 C416.648,269 420.6,274.776 422.652,282.452 L413.76,285.34 C412.392,280.476 410.948,278.5 407.452,278.5 C402.36,278.5 399.928,285.036 399.928,296.36 C399.928,307.684 402.436,314.372 407.604,314.372 C410.872,314.372 412.544,312.548 414.52,306.772 L422.728,310.268 Z M456.244,323.036 L430.1,323.036 L430.1,269.836 L439.6,269.836 L439.6,313.764 L456.244,313.764 L456.244,323.036 Z M491.736,323.036 L463.768,323.036 L463.768,269.836 L491.052,269.836 L491.052,278.956 L473.268,278.956 L473.268,290.204 L485.2,290.204 L485.2,299.172 L473.268,299.172 L473.268,313.916 L491.736,313.916 L491.736,323.036 Z"/>
  </g>
</svg>
