<?xml version="1.0" encoding="UTF-8" standalone="no"?>
<!-- Created with Inkscape (http://www.inkscape.org/) -->

<svg
   xmlns:dc="http://purl.org/dc/elements/1.1/"
   xmlns:cc="http://creativecommons.org/ns#"
   xmlns:rdf="http://www.w3.org/1999/02/22-rdf-syntax-ns#"
   xmlns:svg="http://www.w3.org/2000/svg"
   xmlns="http://www.w3.org/2000/svg"
   xmlns:sodipodi="http://sodipodi.sourceforge.net/DTD/sodipodi-0.dtd"
   xmlns:inkscape="http://www.inkscape.org/namespaces/inkscape"
   width="702mm"
   height="702mm"
   viewBox="0 0 702 702.00001"
   version="1.1"
   id="svg8"
   inkscape:version="0.92.2 (5c3e80d, 2017-08-06)"
   sodipodi:docname="11.svg">
  <defs
     id="defs2" />
  <sodipodi:namedview
     id="base"
     pagecolor="#ffffff"
     bordercolor="#666666"
     borderopacity="1.0"
     inkscape:pageopacity="0.0"
     inkscape:pageshadow="2"
     inkscape:zoom="0.0875"
     inkscape:cx="1915.7611"
     inkscape:cy="-1277.7946"
     inkscape:document-units="mm"
     inkscape:current-layer="layer1"
     showgrid="false"
     inkscape:window-width="1920"
     inkscape:window-height="1057"
     inkscape:window-x="-8"
     inkscape:window-y="-8"
     inkscape:window-maximized="1"
     fit-margin-top="0"
     fit-margin-left="0"
     fit-margin-right="0"
     fit-margin-bottom="0"
     inkscape:snap-global="false" />
  <metadata
     id="metadata5">
    <rdf:RDF>
      <cc:Work
         rdf:about="">
        <dc:format>image/svg+xml</dc:format>
        <dc:type
           rdf:resource="http://purl.org/dc/dcmitype/StillImage" />
        <dc:title></dc:title>
      </cc:Work>
    </rdf:RDF>
  </metadata>
  <g
     inkscape:label="Layer 1"
     inkscape:groupmode="layer"
     id="layer1"
     transform="translate(-57.134914,666.45549)">
    <circle
       cy="-315.45554"
       cx="408.13492"
       id="circle817"
       style="opacity:1;fill:#ffffff;fill-opacity:1;fill-rule:nonzero;stroke:none;stroke-width:270.69851685;stroke-linecap:round;stroke-linejoin:round;stroke-miterlimit:4;stroke-dasharray:none;stroke-opacity:1;paint-order:stroke fill markers"
       r="300" />
    <path
       style="opacity:1;fill:#000000;fill-opacity:1;fill-rule:nonzero;stroke:none;stroke-width:7.5999999;stroke-linecap:butt;stroke-linejoin:miter;stroke-miterlimit:8;stroke-dasharray:none;stroke-opacity:1;paint-order:normal"
       d="m 690.61692,-457.93753 v 284.96404 L 548.13491,-315.45552 Z"
       id="rect839"
       inkscape:connector-curvature="0"
       sodipodi:nodetypes="cccc" />
    <g
       aria-label="3,5m"
       style="font-style:normal;font-variant:normal;font-weight:bold;font-stretch:normal;font-size:349.62573242px;line-height:0;font-family:Giaothong1;-inkscape-font-specification:'Giaothong1 Bold';letter-spacing:0px;word-spacing:0px;fill:#000000;fill-opacity:1;stroke:none;stroke-width:1.82096732"
       id="text930" />
    <path
       sodipodi:nodetypes="cccc"
       inkscape:connector-curvature="0"
       id="path853"
       d="m 125.65311,-457.93753 v 284.96404 l 142.48201,-142.48203 z"
       style="opacity:1;fill:#000000;fill-opacity:1;fill-rule:nonzero;stroke:none;stroke-width:7.5999999;stroke-linecap:butt;stroke-linejoin:miter;stroke-miterlimit:8;stroke-dasharray:none;stroke-opacity:1;paint-order:normal" />
    <path
       inkscape:connector-curvature="0"
       style="opacity:1;fill:#f00a0a;fill-opacity:1;fill-rule:nonzero;stroke:none;stroke-width:315.81491089;stroke-linecap:round;stroke-linejoin:round;stroke-miterlimit:4;stroke-dasharray:none;stroke-opacity:1;paint-order:stroke fill markers"
       d="M 408.1347,-665.45557 A 349.99998,349.99998 0 0 0 58.134914,-315.45532 349.99998,349.99998 0 0 0 408.1347,34.544507 349.99998,349.99998 0 0 0 758.13512,-315.45532 349.99998,349.99998 0 0 0 408.1347,-665.45557 Z m 0,100.00002 A 250,250 0 0 1 658.13502,-315.45532 250,250 0 0 1 408.1347,-65.455573 250,250 0 0 1 158.135,-315.45532 250,250 0 0 1 408.1347,-565.45555 Z"
       id="path866" />
    <g
       aria-label="3,2m"
       style="font-style:normal;font-variant:normal;font-weight:bold;font-stretch:normal;font-size:298.12316895px;line-height:0;font-family:Giaothong1;-inkscape-font-specification:'Giaothong1 Bold';letter-spacing:0px;word-spacing:0px;fill:#000000;fill-opacity:1;stroke:none;stroke-width:1.55272484"
       id="text912"
       transform="translate(204.96221,-20.360545)">
      <path
         d="m 127.18482,-252.10453 v 3.49363 q 0,2.18352 -0.14557,4.65817 -0.14557,2.47466 -1.16454,6.98726 -4.07591,14.26566 -15.72134,23.29088 -11.645436,8.87964 -26.493366,8.87964 -11.93657,0 -22.41747,-7.13283 -10.48089,-7.13283 -13.82895,-14.70236 -3.2025,-7.56953 -4.22147,-12.22771 -1.01898,-4.65817 -1.01898,-13.24668 v -11.64544 h 28.38575 v 9.17078 q 0,3.6392 0.14557,7.13283 0.14557,3.34806 3.05693,8.58851 3.05692,5.24045 10.77203,5.24045 7.7151,0 10.9176,-5.24045 3.34806,-5.24045 3.34806,-13.24668 v -30.71484 q 0,-7.42397 -3.6392,-10.33532 -3.49363,-3.05693 -6.98726,-3.6392 -3.34807,-0.72784 -7.2784,-0.72784 h -5.09488 v -25.03769 h 5.09488 q 17.90486,0 17.90486,-16.59475 v -23.87314 q 0,-4.22147 -0.43671,-6.11386 -0.4367,-1.89238 -3.63919,-5.96828 -3.05693,-4.0759 -9.60749,-4.0759 -7.42397,0 -11.06317,4.5126 -3.49363,4.51261 -3.49363,11.64544 v 14.55679 h -28.38575 v -14.55679 q 0,-18.77827 12.08214,-31.44268 12.08214,-12.66441 30.86041,-12.66441 10.48089,0 20.088376,5.38601 9.75305,5.24045 14.26566,12.51885 4.65817,7.13283 6.11385,13.24668 1.60125,6.11386 1.60125,12.95555 v 23.29087 q 0,19.36054 -17.03145,29.40473 9.46192,6.55055 13.24668,13.39225 3.78477,6.69612 3.78477,17.90486 z"
         style="fill:#000000;fill-opacity:1;stroke:none;stroke-width:1.55272484"
         id="path977"
         inkscape:connector-curvature="0" />
      <path
         d="m 143.1727,-185.49495 v -49.4931 h 28.38575 v 28.38575 z"
         style="fill:#000000;fill-opacity:1;stroke:none;stroke-width:1.55272484"
         id="path979"
         inkscape:connector-curvature="0" />
      <path
         d="m 256.83456,-204.79495 h -61.24095 v -18.9405 l 38.19667,-74.18361 q 2.52546,-5.15602 2.52546,-10.5225 v -10.73295 q 0,-4.31418 -3.05161,-7.36579 -2.94634,-3.05142 -7.2605,-3.05142 -3.89339,0 -7.05007,2.73582 -3.05159,2.63059 -3.05159,6.73437 v 12.73222 H 195.1727 v -10.31205 q 0,-8.41803 6.31356,-20.20316 6.41869,-11.89043 25.56956,-11.89043 12.10096,0 20.9398,9.25973 8.83894,9.25992 8.83894,21.36071 v 13.0479 q 0,4.52467 -1.26265,8.8389 -1.1576,4.31424 -3.47251,8.8389 l -32.40932,63.13499 h 37.14448 z"
         style="fill:#000000;fill-opacity:1;stroke:none;stroke-width:1.12240016"
         id="path981"
         inkscape:connector-curvature="0" />
      <path
         d="m 313.24383,-267.70275 q 2.76596,-3.47518 6.09929,-5.24822 3.33334,-1.84398 7.58866,-1.84398 7.09219,0 11.6312,5.03546 4.60993,4.96454 4.60993,12.12766 v 52.83688 h -13.97163 v -48.93617 q 0,-3.33333 -1.70213,-5.46099 -1.6312,-2.12766 -5.10638,-2.12766 -2.9078,0 -4.89362,2.2695 -1.9149,2.26951 -1.9149,5.31915 v 48.93617 h -13.97162 v -48.93617 q 0,-3.19149 -1.9149,-5.39007 -1.84397,-2.19858 -5.03546,-2.19858 -2.9078,0 -4.89362,2.2695 -1.91489,2.26951 -1.91489,5.31915 v 48.93617 h -13.97163 v -69.14894 h 13.97163 v 6.24114 q 4.75177,-7.0922 13.04965,-7.0922 3.9007,0 7.02127,1.84398 3.12057,1.77304 5.31915,5.24822 z"
         style="fill:#000000;fill-opacity:1;stroke:none;stroke-width:0.7565012"
         id="path983"
         inkscape:connector-curvature="0" />
    </g>
  </g>
</svg>
