<?xml version="1.0" encoding="UTF-8" standalone="no"?>
<!-- Created with Inkscape (http://www.inkscape.org/) -->

<svg
   xmlns:dc="http://purl.org/dc/elements/1.1/"
   xmlns:cc="http://creativecommons.org/ns#"
   xmlns:rdf="http://www.w3.org/1999/02/22-rdf-syntax-ns#"
   xmlns:svg="http://www.w3.org/2000/svg"
   xmlns="http://www.w3.org/2000/svg"
   xmlns:sodipodi="http://sodipodi.sourceforge.net/DTD/sodipodi-0.dtd"
   xmlns:inkscape="http://www.inkscape.org/namespaces/inkscape"
   width="702mm"
   height="702mm"
   viewBox="0 0 701.99998 702"
   version="1.1"
   id="svg8"
   inkscape:version="0.92.2 (5c3e80d, 2017-08-06)"
   sodipodi:docname="11.svg">
  <defs
     id="defs2" />
  <sodipodi:namedview
     id="base"
     pagecolor="#ffffff"
     bordercolor="#666666"
     borderopacity="1.0"
     inkscape:pageopacity="0.0"
     inkscape:pageshadow="2"
     inkscape:zoom="0.23368421"
     inkscape:cx="1387.2744"
     inkscape:cy="1126.4121"
     inkscape:document-units="mm"
     inkscape:current-layer="layer1"
     showgrid="false"
     inkscape:window-width="1920"
     inkscape:window-height="1057"
     inkscape:window-x="-8"
     inkscape:window-y="-8"
     inkscape:window-maximized="1"
     inkscape:measure-start="0,0"
     inkscape:measure-end="0,0"
     fit-margin-top="0"
     fit-margin-left="0"
     fit-margin-right="0"
     fit-margin-bottom="0"
     showguides="false"
     inkscape:snap-global="true" />
  <metadata
     id="metadata5">
    <rdf:RDF>
      <cc:Work
         rdf:about="">
        <dc:format>image/svg+xml</dc:format>
        <dc:type
           rdf:resource="http://purl.org/dc/dcmitype/StillImage" />
        <dc:title></dc:title>
      </cc:Work>
    </rdf:RDF>
  </metadata>
  <g
     inkscape:label="Layer 1"
     inkscape:groupmode="layer"
     id="layer1"
     transform="translate(-42.564505,571.69995)">
    <circle
       style="opacity:1;fill:#f00a0a;fill-opacity:1;fill-rule:nonzero;stroke:none;stroke-width:315.81494141;stroke-linecap:round;stroke-linejoin:round;stroke-miterlimit:4;stroke-dasharray:none;stroke-opacity:1;paint-order:stroke fill markers"
       id="path815"
       cx="393.56451"
       cy="-220.69995"
       r="350" />
    <circle
       cy="-220.69995"
       cx="393.56451"
       id="circle817"
       style="opacity:1;fill:#ffffff;fill-opacity:1;fill-rule:nonzero;stroke:none;stroke-width:225.58209229;stroke-linecap:round;stroke-linejoin:round;stroke-miterlimit:4;stroke-dasharray:none;stroke-opacity:1;paint-order:stroke fill markers"
       r="250" />
    <rect
       y="-217.76631"
       x="409.35056"
       height="680"
       width="50"
       id="rect818"
       style="opacity:1;fill:#f00a0a;fill-opacity:1;fill-rule:nonzero;stroke:none;stroke-width:72.09967804;stroke-linecap:round;stroke-linejoin:round;stroke-miterlimit:4;stroke-dasharray:none;stroke-opacity:1;paint-order:stroke fill markers"
       transform="rotate(-45)" />
    <path
       style="opacity:1;fill:#000000;fill-opacity:1;fill-rule:nonzero;stroke:none;stroke-width:143.72148132;stroke-linecap:round;stroke-linejoin:round;stroke-miterlimit:4;stroke-dasharray:none;stroke-opacity:1;paint-order:stroke fill markers"
       d="m 304.06448,-360.6999 c -9.2224,0.0371 -25.37913,6.9971 -28.19983,21.99969 l -17.19999,103.80038 c -9.75219,-0.0109 -22.56346,12.35734 -22.60016,19.19986 v 58.00008 c 2.6973,7.03447 7.80423,12.47419 13.20023,16.99999 v 46.999716 c 0,7.201979 10.74842,13.000241 24.09982,13.000241 13.3514,0 24.09982,-5.798262 24.09982,-13.000241 V -140.6999 c 32.7611,3.87885 64.91117,6.6125 96.10007,6.60011 31.1889,0.0124 63.33897,-2.72126 96.10008,-6.60011 v 46.999716 c 0,7.201979 10.74844,13.000241 24.09982,13.000241 13.3514,0 24.09983,-5.798262 24.09983,-13.000241 V -140.6999 c 5.39589,-4.5258 10.50293,-9.96552 13.20022,-16.99999 v -58.00008 c -0.037,-6.84252 -12.84745,-19.21065 -22.59966,-19.19986 l -17.19997,-103.80038 c -2.82072,-15.00259 -18.97785,-21.96262 -28.20035,-21.99969 z m 20.03547,18.89962 h 69.46449 69.4645 c 15.7598,0.0104 32.59069,9.12976 35.02008,20.99975 l 10.37973,62.00035 c 0.2391,1.53898 -0.76721,4.71965 -1.89963,6.49986 -2.3024,3.05767 -6.30739,4.80521 -12.20028,4.80022 -2.26011,0 -14.19966,-0.9002 -14.19966,-0.9002 -42.77781,-2.44998 -56.05604,-2.35004 -86.56475,-2.79983 -30.50859,0.44979 -43.78643,0.34985 -86.56422,2.79983 0,0 -11.94007,0.9002 -14.20017,0.9002 -5.8928,0.005 -9.89789,-1.74255 -12.20028,-4.80022 -1.13241,-1.78021 -2.13873,-4.96088 -1.89963,-6.49986 l 10.37973,-62.00035 c 2.4294,-11.86999 19.26028,-20.98935 35.02009,-20.99975 z m 42.56433,119.30021 h 53.80033 l 53.9998,4.80022 -0.0196,10.39988 H 312.66447 v -10.39988 z m -90.59965,1.99988 a 21.999999,21.999999 0 0 1 21.99969,22.0002 21.999999,21.999999 0 0 1 -21.99969,21.99969 21.999999,21.999999 0 0 1 -22.00021,-21.99969 21.999999,21.999999 0 0 1 22.00021,-22.0002 z m 235.00013,0 a 22,22 0 0 1 21.99968,22.0002 22,22 0 0 1 -21.99968,21.99969 22,22 0 0 1 -22.0002,-21.99969 22,22 0 0 1 22.0002,-22.0002 z M 312.68463,-196.7001 H 474.4644 v 15.20011 H 312.66447 Z m -0.0202,25.79998 h 161.78031 l 0.0196,10.39988 -53.9998,4.80022 h -53.80033 l -53.99981,-4.80022 z"
       id="rect10823"
       inkscape:connector-curvature="0" />
  </g>
</svg>
