<svg xmlns="http://www.w3.org/2000/svg" width="900" height="900" viewBox="0 0 900 900">
  <g fill="none">
    <circle cx="450" cy="450" r="450" fill="#AF1E2D"/>
    <circle cx="450" cy="450" r="390" fill="#FFF"/>
    <polygon fill="#000" points="198 450 103 545 103 355"/>
    <polygon fill="#000" points="702 450 797 545 797 355"/>
    <polygon fill="#000" points="190.001 555 191.959 542.364 194.272 530.619 197.12 519.763 200.323 509.975 203.882 500.898 207.797 492.534 211.891 485.059 216.162 478.297 220.789 472.068 225.416 466.729 230.221 461.924 235.204 457.653 240.543 453.915 246.06 450.534 258.162 444.305 270.086 438.432 275.603 435.229 280.764 431.847 285.391 427.932 289.306 423.483 292.509 418.5 293.221 417.076 293.934 414.941 295.001 410.492 295.357 406.22 294.645 401.949 293.399 398.034 291.441 394.297 288.95 390.737 285.925 387.534 282.365 384.509 278.45 382.017 274.179 380.059 269.73 378.28 265.102 377.212 260.475 376.5 255.67 376.5 250.865 377.034 246.238 378.28 241.611 380.237 237.34 382.729 233.425 386.11 229.687 390.381 226.484 395.364 223.814 401.237 222.569 404.619 222.035 406.398 221.856 406.8 190 397.856 190.178 397.322 190.712 395.898 191.602 393.229 193.738 388.068 196.051 383.085 198.543 378.458 201.39 374.186 204.238 370.271 210.466 363.331 217.407 357.458 224.704 352.831 232.534 349.449 240.543 346.958 248.729 345.534 256.916 345 265.28 345.534 273.288 346.78 281.297 348.915 288.949 351.941 296.246 355.678 303.009 360.127 309.238 365.11 314.577 370.805 319.382 377.034 323.119 383.797 325.966 391.093 327.746 398.924 328.28 406.932 328.28 410.847 327.924 414.051 327.034 419.924 325.789 425.441 324.187 430.424 322.229 434.873 319.916 438.966 317.424 442.703 314.577 446.085 308.526 451.958 301.585 456.941 294.289 461.212 286.814 464.949 272.043 472.068 265.28 475.983 259.229 480.432 254.068 484.703 249.619 488.619 246.06 492.178 243.212 495.381 240.899 498.585 239.119 501.61 236.628 508.017 235.204 515.314 234.492 519.407 234.136 521.542 330.772 521.542 330.772 555"/>
    <polygon fill="#000" points="424.003 397 420.94 475.763 441.923 483.255 443.697 480.937 445.169 478.934 447.838 476.136 450.507 473.871 453.309 472.138 456.379 470.672 459.581 469.472 463.05 468.805 464.784 468.672 466.786 468.672 469.591 468.805 472.257 469.204 477.197 470.802 481.731 473.067 485.601 476.266 488.936 480.129 491.473 484.529 493.342 489.462 494.274 494.791 494.144 500.524 493.209 505.722 491.206 510.385 488.405 514.652 484.934 518.382 480.796 521.582 475.986 524.25 470.911 526.386 465.431 527.987 459.818 529.055 453.94 529.453 448.193 529.32 442.58 528.517 437.103 527.185 432.028 525.183 427.277 522.61 414.62 544.661 418.301 546.839 422.185 548.712 426.07 550.452 430.093 551.791 438.396 553.797 446.97 554.868 455.678 555 464.249 554.197 472.688 552.59 480.861 550.051 488.63 546.703 495.73 542.556 499.081 540.147 502.162 537.604 505.11 534.929 507.79 531.983 510.207 528.904 512.348 525.559 514.36 522.214 515.967 518.596 517.174 514.849 518.247 510.832 518.788 506.815 519.185 502.611 519.201 502.611 519.201 502.534 518.935 494.244 517.729 486.481 515.853 479.255 513.172 472.566 509.821 466.543 505.801 461.187 501.379 456.37 496.285 452.353 490.79 449.005 484.894 446.33 478.594 444.454 472.16 443.384 465.326 443.118 458.492 443.517 451.39 444.856 444.438 447.127 444.262 447.127 445.061 422.425 509.696 422.425 509.696 397.006"/>
    <polygon fill="#000" points="603.214 509.238 607.566 509.98 612.237 511.147 617.225 512.951 622.214 515.178 627.309 517.83 632.298 521.012 634.633 522.71 635.27 523.134 635.695 523.558 635.801 523.558 635.801 438.908 636.544 436.362 638.03 434.134 639.941 432.119 642.276 430.633 644.824 429.573 647.477 429.148 650.025 429.254 652.572 430.103 654.907 431.376 657.03 433.179 658.729 435.195 660.108 437.635 660.851 439.862 660.851 456.411 660.958 517.724 660.958 533.105 660.851 540.743 660.851 543.819 660.639 544.456 659.684 547.002 658.198 549.335 656.287 551.457 654.058 553.048 651.723 554.321 649.176 554.852 647.902 554.958 647.053 554.852 645.248 554.427 643.338 553.685 641.533 552.73 638.349 550.078 636.757 548.487 636.438 548.063 635.589 547.108 633.785 545.198 631.662 543.183 629.22 541.273 624.019 537.349 618.394 533.742 612.662 530.666 610.008 529.499 607.354 528.438 604.913 527.695 603.745 527.483 603.215 527.377 603.108 527.377 603.215 527.589 603.321 528.014 603.639 530.984 603.639 534.06 603.215 536.924 602.365 539.788 601.198 542.334 599.606 544.88 597.801 547.108 595.785 549.123 593.449 550.821 590.902 552.2 588.142 553.366 585.276 554.003 582.198 554.321 579.226 554.215 576.36 553.897 573.812 553.154 571.371 552.2 569.142 551.033 567.231 549.654 565.427 547.956 563.835 546.047 562.455 544.032 561.287 541.91 560.332 539.576 559.589 537.03 559.058 534.484 558.846 531.832 558.846 529.287 559.165 526.741 559.801 524.301 560.757 521.967 561.818 519.846 563.198 517.83 564.79 516.027 566.595 514.33 568.505 512.844 570.628 511.678 572.857 510.617 575.192 509.874 577.634 509.344 578.059 509.132 578.165 508.389 578.165 465.746 578.059 465.533 577.634 465.321 574.449 463.942 571.584 462.033 569.248 459.593 567.338 456.835 565.958 453.547 565.215 449.728 565.109 447.712 565.215 445.591 565.533 443.575 566.17 441.56 567.019 439.65 568.081 437.847 569.354 436.044 570.84 434.558 572.539 433.073 574.343 431.906 576.254 430.846 578.271 429.997 580.5 429.467 582.729 429.148 585.064 429.042 587.293 429.254 589.522 429.785 591.645 430.421 593.662 431.376 595.466 432.437 597.165 433.71 598.651 435.195 600.03 436.892 601.092 438.695 602.047 440.605 602.684 442.726 603.109 444.848 603.215 447.182"/>
    <polygon fill="#FFF" points="578.164 528.332 576.89 528.544 575.829 529.181 574.98 530.029 574.449 531.09 574.237 532.257 574.449 533.53 574.98 534.591 575.829 535.439 576.89 535.97 578.164 536.182"/>
    <circle cx="376.5" cy="539.5" r="15.5" fill="#000"/>
    <circle cx="697.5" cy="542.5" r="12.5" fill="#000"/>
  </g>
</svg>
