<svg xmlns="http://www.w3.org/2000/svg" width="892" height="892" viewBox="0 0 892 892">
  <g fill="none">
    <circle cx="446.044" cy="446.044" r="445.055" fill="#AF1E2D"/>
    <circle cx="446.044" cy="446.044" r="385.714" fill="#FFF"/>
    <polygon fill="#000" points="527.155 160.22 542.845 160.819 558.234 163.534 573.018 167.759 586.596 174.096 593.235 178.017 599.571 182.543 605.605 187.674 611.339 193.406 616.77 199.742 621.899 206.683 626.727 214.226 630.951 222.372 634.874 231.425 638.797 240.779 641.814 251.339 644.832 262.202 646.944 273.969 649.055 286.642 650.565 299.919 651.463 314.101 651.762 328.886 651.762 344.575 651.164 359.663 649.952 373.844 648.444 387.422 646.633 400.095 644.22 411.863 641.504 423.028 638.184 433.588 634.564 443.243 630.642 452.295 626.417 460.744 621.891 468.288 616.762 475.529 611.632 481.866 605.899 487.598 600.166 493.029 593.829 497.555 580.856 505.099 566.975 510.832 552.19 514.453 536.5 516.264 520.81 516.264 505.119 515.366 490.033 512.65 475.852 508.425 462.574 502.39 456.238 498.467 450.204 493.941 444.47 488.812 439.039 483.079 433.91 476.743 429.082 469.501 424.556 461.656 420.332 452.906 416.711 443.552 413.392 432.992 410.375 421.827 407.961 409.757 405.848 396.784 404.34 382.903 403.129 367.817 402.53 351.824 402.231 334.927 402.829 318.031 403.428 302.642 404.936 287.857 406.747 274.279 408.859 261.606 411.575 250.14 414.591 239.278 418.212 229.321 422.135 219.966 426.359 211.819 430.885 204.276 435.713 197.336 441.144 191 446.576 185.568 452.61 180.74 458.646 176.516 464.982 172.896 478.56 167.162 493.043 163.24 508.13 160.826 523.82 160.227"/>
    <polygon fill="#FFF" points="527.155 217.55 535.604 218.149 543.448 219.959 551.293 222.977 558.535 227.201 565.476 233.235 571.51 240.477 577.243 249.529 582.07 260.391 585.993 272.763 589.312 287.247 591.424 303.54 592.636 321.945 592.935 331.903 592.935 342.765 592.636 353.327 592.037 362.982 591.439 372.336 590.227 381.388 587.511 397.077 583.89 410.958 579.667 422.725 574.538 432.38 568.804 440.527 562.468 447.166 555.528 451.994 548.287 455.615 540.441 458.028 532.294 458.926 523.846 459.226 515.397 458.627 507.552 457.119 500.008 454.403 493.069 450.48 486.43 444.748 480.396 437.807 475.266 428.755 470.74 417.592 468.629 410.953 467.119 404.014 465.611 396.47 464.102 388.021 463.19 378.969 462.278 369.314 461.679 359.054 461.38 347.891 461.08 335.821 461.38 324.657 461.679 314.096 462.591 304.441 463.504 295.389 464.715 286.638 465.927 278.793 467.738 271.552 471.659 258.577 476.185 247.714 481.616 238.964 487.652 231.723 494.289 226.291 501.531 222.368 509.075 219.653 517.222 218.144 525.368 217.546"/>
    <polygon fill="#000" points="325.78 160.221 325.78 516.264 269.406 516.264 269.406 231.429 240.329 231.429 240.329 185.168 243.703 184.865 246.869 184.563 249.884 184.035 252.823 183.508 255.536 182.754 258.174 182 260.586 181.096 262.922 180.116 265.108 179.061 267.143 177.855 269.027 176.649 270.761 175.292 272.343 173.936 273.775 172.504 275.057 170.996 276.187 169.414 277.167 167.756 277.996 166.097 278.674 164.364 279.202 162.63 279.579 160.822 279.654 160.369 279.673 160.22"/>
    <polygon fill="#000" points="408.256 551.879 412.066 552.181 415.266 552.943 418.009 554.162 420.295 555.686 422.124 557.667 423.648 559.8 424.562 562.086 425.016 564.677 425.167 567.268 424.865 570.011 424.103 572.601 422.884 575.192 422.122 576.411 421.661 577.023 421.812 577.326 422.273 577.477 425.625 579.001 429.892 579.915 434.769 580.369 440.103 580.218 445.894 579.606 451.837 578.234 458.085 576.253 464.181 573.663 470.277 570.31 476.067 566.195 481.401 561.319 483.992 558.576 486.43 555.68 488.868 552.023 489.02 551.871 489.171 552.023 489.783 553.547 491.002 556.29 491.764 559.033 492.376 561.623 492.527 564.214 492.527 566.652 492.225 569.091 491.764 571.377 490.087 575.796 487.497 579.758 484.297 583.415 480.335 586.768 475.763 589.664 470.734 592.102 465.248 594.236 459.456 596.064 453.361 597.283 447.265 598.198 441.017 598.5 434.921 598.5 428.825 598.046 422.882 597.132 417.396 595.609 412.215 593.627 407.491 591.189 403.223 588.294 399.719 584.788 396.823 580.826 395.757 578.54 394.842 576.254 394.08 573.664 393.929 572.444 393.777 572.142 393.777 571.991 393.626 570.772 393.626 568.486 393.777 566.2 394.996 561.933 395.911 559.952 397.13 557.971 398.502 556.295 400.025 554.923 401.702 553.704 403.683 552.789 405.664 552.177 407.797 551.875"/>
    <polyline fill="#000" points="334.27 765.372 332.343 765.133 330.536 764.775 328.608 764.052 326.8 763.088 323.547 760.678 322.222 759.112 321.137 757.425 320.173 755.738 319.689 753.81 319.569 752.846 319.569 752.003 319.45 750.196 319.45 658.261 319.815 654.647 320.179 651.273 320.902 648.02 321.625 645.128 322.589 642.477 323.794 640.067 324.999 637.778 328.011 633.802 331.505 630.669 335.361 628.139 339.819 626.091 344.518 624.645 349.458 623.56 352.109 623.202 352.711 623.081 353.076 623.081 353.315 623.32 353.799 623.559 355.244 624.403 357.413 625.608 362.474 628.62 367.534 631.512 369.583 632.717 371.149 633.681 371.872 634.039 372.111 633.919 373.196 633.316 374.882 632.353 377.051 631.027 379.461 629.581 384.642 626.569 386.932 625.123 388.739 624.039 390.064 623.316 390.428 623.077 390.547 623.077 395.366 623.921 399.945 625.005 404.283 626.572 408.259 628.62 411.874 631.029 415.127 634.042 417.898 637.657 420.067 641.873 421.874 646.814 422.958 652.356 423.323 655.489 423.323 752.966 423.204 754.894 422.72 756.701 421.877 758.388 420.913 759.954 419.587 761.4 418.142 762.605 416.575 763.689 414.888 764.533 413.081 765.135 411.274 765.374 409.466 765.495 407.539 765.255 405.731 764.653 403.803 763.93 400.429 761.641 398.863 760.315 397.538 758.749 396.333 757.062 395.49 755.255 395.006 753.327 394.887 752.843 394.887 713.684 395.006 700.189 395.006 651.993 394.641 649.824 393.437 647.896 392.593 646.932 391.268 646.209 390.545 645.97 390.306 645.849 390.185 645.849 388.017 646.934 385.968 647.898 381.028 650.428 375.967 652.838 373.919 653.802 371.75 654.886 371.511 654.886 370.427 654.402 366.572 652.474 364.041 651.269 358.86 648.739 356.571 647.654 353.438 646.088 353.074 645.968 352.953 645.968 351.146 646.452 349.82 647.777 348.856 649.584 348.254 651.994 348.015 655.007 347.894 655.729 347.894 719.95 348.015 719.95 348.859 719.107 351.51 716.216 353.919 712.962 356.209 709.468 358.136 705.612 359.703 701.275 357.775 699.347 356.209 697.178 355.004 694.768 354.16 692.117 353.801 689.346 353.683 688.623 353.683 687.418 354.042 684.888 354.765 682.478 355.728 680.189 357.053 678.141 358.741 676.333 360.548 674.767 362.596 673.441 364.886 672.357 367.295 671.634 369.826 671.395 372.356 671.395 374.765 671.879 377.055 672.602 379.103 673.686 380.91 675.012 382.598 676.578 384.164 678.385 385.369 680.434 386.453 682.603 387.176 684.892 387.66 687.302 387.899 689.591 387.66 692.121 387.296 694.772 386.573 697.664 385.608 700.676 384.404 703.809 381.512 710.436 377.898 717.183 374.041 723.81 369.945 730.317 365.848 736.341 361.993 741.763 360.065 744.173 358.378 746.342 356.932 748.149 355.486 749.837 352.956 752.848 350.667 755.499 348.618 757.789 346.69 759.837 344.883 761.403 343.076 762.849 341.268 763.813 339.34 764.657 337.292 765.141 335.003 765.38 334.4 765.38 334.282 765.38"/>
    <polygon fill="#000" points="521.612 713.521 516.547 714.005 511.362 715.211 506.055 717.14 500.509 719.793 494.961 723.411 492.067 725.582 490.741 726.788 490.376 727.027 490.376 707.732 490.256 698.447 490.256 646.351 490.137 645.507 490.137 645.023 489.898 642.008 489.174 639.234 487.968 636.46 486.521 633.928 484.712 631.637 482.541 629.587 480.13 627.657 477.597 626.09 474.824 624.883 471.93 623.919 468.915 623.316 467.467 623.077 465.9 623.197 463.005 623.799 460.232 624.764 457.579 625.97 455.167 627.538 452.996 629.347 451.067 631.517 449.379 633.809 447.932 636.22 446.967 638.994 446.243 641.768 446.004 644.782 446.004 647.315 446.488 649.727 447.091 652.139 447.936 654.309 449.142 656.359 450.468 658.289 451.915 660.098 453.724 661.665 455.654 663.113 457.704 664.198 460.959 665.645 461.562 665.765 461.801 665.765 461.801 754.159 462.286 755.727 463.733 758.862 465.542 761.515 467.954 763.565 470.727 764.891 473.863 765.495 475.19 765.495 476.395 765.375 478.686 764.772 480.978 763.928 483.148 762.722 485.078 761.154 486.766 759.346 489.54 755.969 492.434 752.954 495.449 750.06 498.584 747.527 501.84 745.115 505.096 743.066 508.352 741.136 511.487 739.568 514.623 738.362 517.637 737.397 520.411 736.674 521.738 736.435 522.102 736.435 521.983 736.793 521.743 737.879 521.504 741.737 521.869 745.476 522.833 748.973 524.401 752.229 526.33 755.244 528.742 757.897 531.516 760.188 534.41 762.118 537.666 763.686 540.922 764.771 544.299 765.255 547.796 765.375 551.293 764.891 554.79 763.926 558.046 762.358 561.061 760.549 563.955 758.259 566.487 755.726 568.538 752.952 570.347 749.938 571.673 746.682 572.397 743.426 572.636 740.049 572.397 736.793 571.794 733.658 570.708 730.643 569.382 727.989 567.573 725.457 565.644 723.166 563.231 721.116 560.699 719.428 557.926 717.981 555.031 716.774 551.896 715.81 550.207 715.571 550.088 714.847 550.088 634.895 549.729 633.086 549.245 631.518 547.436 628.383 545.024 625.97 542.009 624.162 538.753 623.197 537.065 623.077 535.376 623.197 532 624.041 528.744 625.85 525.85 628.262 523.559 631.277 521.87 634.653 521.631 635.497"/>
    <polygon fill="#FFF" points="550.072 735.348 551.76 735.707 553.207 736.671 554.051 737.998 554.416 739.686 554.051 741.375 553.207 742.822 551.76 743.787 550.072 744.146"/>
  </g>
</svg>
