<svg xmlns="http://www.w3.org/2000/svg" width="560" height="560" viewBox="0 0 560 560">
  <g fill="none" fill-rule="evenodd">
    <circle cx="280" cy="280" r="280" fill="#F00A0A" fill-rule="nonzero"/>
    <circle cx="280" cy="280" r="211" fill="#FFF" fill-rule="nonzero"/>
    <path fill="#000" d="M357.299094,109.184171 C353.71338,111.563828 352.96026,118.241443 356.234973,118.620298 C357.718027,118.791704 359.139521,120.774885 358.559091,121.861789 C357.841948,123.204201 358.088191,123.889824 359.538467,124.582655 C360.308376,124.950297 360.937575,125.450898 360.937575,125.695992 C360.937575,125.941086 361.646723,126.834959 362.512571,127.682376 L364.088367,129.223426 L367.722051,126.512973 C372.53978,122.919058 373.468788,120.514572 371.993728,115.462908 C370.262831,109.538196 362.051265,106.029184 357.299094,109.184171 M370.53146,128.784499 L366.733881,132.058029 L366.272575,135.688787 C365.551434,141.360395 364.374585,143.770489 361.434858,145.590273 L360.120496,146.40405 L353.833303,144.280701 C345.281954,141.391633 340.967904,141.235445 336.053436,143.636728 C334.349722,144.469728 332.955411,145.318747 332.955411,145.525395 C332.955411,145.731242 332.414156,146.517786 331.752178,147.272292 C331.0902,148.027599 329.297742,150.421673 327.768317,152.593079 C326.238892,154.763685 324.801408,156.758079 324.574353,157.023998 C324.347298,157.289917 324.161016,157.695204 324.161016,157.92508 C324.161016,158.154956 324.007514,158.342381 323.818834,158.342381 C323.630954,158.342381 322.693152,159.468533 321.734563,160.845385 C320.776773,162.222238 318.247186,165.716833 316.113346,168.611508 L312.235018,173.874626 L308.752438,172.473744 C299.449567,168.730851 290.04836,168.649954 281.110856,172.234257 C278.211904,173.397253 278.195115,173.431694 279.766113,174.939904 L280.942164,176.06926 L282.621893,175.395651 C290.319387,172.310348 300.755935,172.486559 308.495801,175.832175 L310.218703,176.57707 L307.943353,179.774508 C306.691351,181.533419 305.618435,183.029615 305.559273,183.1001 C305.499311,183.170585 304.677435,182.832579 303.732437,182.349599 C285.165072,172.859807 263,186.601103 263,207.601511 C263,228.354423 284.488703,241.981982 303.174393,233.079295 C321.231684,224.475367 324.835786,200.488173 310.132358,186.776513 L308.19999,184.97435 L310.63124,181.645554 C313.423061,177.822565 312.996133,177.857006 317.546033,181.088085 C324.523186,186.042031 328.959558,191.499783 332.019208,198.891055 L333.468684,202.395262 L335.381864,202.395262 L337.295045,202.395262 L338.065754,204.497786 C338.489484,205.654374 339.265789,207.81697 339.790254,209.303555 L340.743247,212.0068 L359.786309,212.0068 L378.828572,212.0068 L379.480156,214.605119 C383.244157,229.615938 399.397061,239.182622 413.95898,235.02403 C435.597188,228.844612 442.219367,202.126139 425.896971,186.855007 C416.554925,178.114115 401.378998,176.873425 391.259049,184.022808 L390.200523,184.770906 L388.915742,182.765298 C387.35034,180.321565 387.415898,180.213435 391.687575,178.205424 C400.081425,174.259087 409.917556,174.256684 418.450517,178.199818 L421.397439,179.561452 L421.148797,178.312753 C421.011285,177.626329 420.899356,176.922284 420.899356,176.747674 C420.899356,175.233056 413.1427,171.756884 408.182662,171.048834 L404.736058,170.557043 L403.821441,167.516593 C402.69336,163.76489 401.42297,162.79012 400.009471,164.590681 C396.084773,169.588681 391.373376,165.743265 391.3358,157.510983 C391.294226,148.399245 386.315799,137.437286 378.572735,129.407647 C374.081198,124.750056 375.118137,124.830153 370.53146,128.784499 M346.932102,147.522192 C347.785958,147.958716 351.774616,149.392437 355.796052,150.707616 L363.107392,153.100088 L365.741713,150.754873 L368.376034,148.408856 L372.534983,154.877421 C377.95313,163.305939 377.939538,163.192202 373.66946,164.491362 C361.350112,168.239061 355.740888,169.458925 355.740888,168.38884 C355.740888,168.186998 354.976575,167.583874 354.04197,167.04723 C353.107366,166.511387 349.392934,164.332772 345.788031,162.20702 L339.23301,158.342381 L334.095484,158.342381 C327.880246,158.342381 327.937809,158.452913 331.579488,153.53501 C335.109238,148.767687 336.387623,147.942697 337.70998,149.579061 L338.395144,150.426478 L339.972538,148.931083 C342.512519,146.522592 344.277794,146.165363 346.932102,147.522192 M344.257807,176.762893 C348.635816,176.764495 348.72456,176.830974 349.237833,180.468941 L349.450497,181.970744 L344.467273,181.970744 C338.444712,181.970744 339.018746,181.299539 339.709506,187.537427 C340.285139,192.73006 339.914975,196.733265 338.951589,195.736869 C338.627795,195.401266 331.35643,176.963133 331.35643,176.476949 C331.35643,176.347995 333.37994,176.358407 335.853564,176.500978 C338.327187,176.64435 342.108777,176.761291 344.257807,176.762893 M385.904861,184.803745 L387.362332,186.836585 L385.186919,189.509394 C382.98832,192.211037 381.656369,194.32157 381.226243,195.78733 C381.096726,196.227859 380.552273,197.760098 380.015815,199.192217 C379.479357,200.624336 378.91012,203.012803 378.751821,204.498587 L378.462405,207.201031 L375.649798,207.201031 L372.837191,207.201031 L373.125807,204.497786 C373.915703,197.100106 376.977751,190.445718 382.064109,185.07447 C384.668849,182.323167 384.152378,182.360012 385.904861,184.803745 M298.305497,188.363218 C301.115705,189.443715 301.219639,189.027215 296.537823,195.420489 C293.359049,199.762502 292.711462,200.434508 291.361922,200.798946 C284.4943,202.65157 284.522282,212.158982 291.400298,214.014009 C298.12801,215.828988 302.713087,206.428103 297.213393,202.0941 L296.148471,201.254693 L299.861305,196.236669 L303.574138,191.217844 L305.664006,193.28032 C316.509893,203.981967 311.43233,223.182615 296.672138,227.282737 C279.328792,232.101321 264.641354,213.755298 273.10396,197.842597 C277.743403,189.117723 289.129745,184.834982 298.305497,188.363218 M413.19067,188.194215 C433.050811,194.873433 431.228772,223.815375 410.705853,227.6688 C408.040352,228.1686 400.394026,227.849818 400.18376,227.229873 C400.112605,227.020822 399.437835,226.734078 398.684716,226.592308 C397.930796,226.450538 397.314389,226.175007 397.314389,225.978772 C397.314389,225.783337 397.044961,225.623145 396.714771,225.623145 C396.384582,225.623145 396.115153,225.438123 396.115153,225.213052 C396.115153,224.987181 395.66584,224.630753 395.11579,224.421702 C394.56654,224.212652 394.116427,223.856224 394.116427,223.630353 C394.116427,223.405282 393.942938,223.22026 393.730273,223.22026 C392.335163,223.22026 387.800453,216.238279 387.423094,213.508602 L387.215226,212.0068 L392.037752,212.0068 C396.486916,212.0068 396.880266,212.067673 397.111318,212.796548 C398.306557,216.570678 406.017642,218.417695 409.979117,215.878647 C419.972747,209.47496 413.357763,194.467345 402.159301,198.13655 C401.060801,198.496181 400.065435,198.790935 399.94791,198.790935 C399.452226,198.790935 394.871946,191.474152 395.059826,190.983163 C395.311665,190.324772 399.833583,188.122128 401.958629,187.622328 C405.175778,186.86542 409.964726,187.109713 413.19067,188.194215 M396.460533,203.102511 C396.051194,203.907477 395.715408,204.874238 395.715408,205.25069 C395.715408,207.090498 395.441982,207.201031 390.876093,207.201031 L386.521268,207.201031 L386.521268,205.671995 C386.521268,202.683608 388.312127,198.159778 390.804139,194.852608 L391.809897,193.517405 L394.508178,197.577479 L397.206458,201.637552 L396.460533,203.102511"/>
    <polygon fill="#F00A0A" fill-rule="nonzero" points="82.208 145.521 425.207 456.504 458.791 419.463 115.792 108.479"/>
  </g>
</svg>
