<?xml version="1.0" encoding="UTF-8" standalone="no"?>
<!-- Generator: Adobe Illustrator 14.0.0, SVG Export Plug-In  -->

<svg
   xmlns:dc="http://purl.org/dc/elements/1.1/"
   xmlns:cc="http://creativecommons.org/ns#"
   xmlns:rdf="http://www.w3.org/1999/02/22-rdf-syntax-ns#"
   xmlns:svg="http://www.w3.org/2000/svg"
   xmlns="http://www.w3.org/2000/svg"
   xmlns:sodipodi="http://sodipodi.sourceforge.net/DTD/sodipodi-0.dtd"
   xmlns:inkscape="http://www.inkscape.org/namespaces/inkscape"
   version="1.1"
   x="0px"
   y="0px"
   width="400.79999"
   height="600.79999"
   viewBox="0 -0.321 400.8 600.80012"
   enable-background="new 0 -0.321 144 120"
   xml:space="preserve"
   id="svg2"
   inkscape:version="0.92.2 (5c3e80d, 2017-08-06)"
   sodipodi:docname="Philippines_road_sign_R3-1P.svg"><metadata
     id="metadata44"><rdf:RDF><cc:Work
         rdf:about=""><dc:format>image/svg+xml</dc:format><dc:type
           rdf:resource="http://purl.org/dc/dcmitype/StillImage" /><dc:title /></cc:Work></rdf:RDF></metadata><sodipodi:namedview
     pagecolor="#ffffff"
     bordercolor="#666666"
     borderopacity="1"
     objecttolerance="10"
     gridtolerance="10"
     guidetolerance="10"
     inkscape:pageopacity="0"
     inkscape:pageshadow="2"
     inkscape:window-width="1366"
     inkscape:window-height="705"
     id="namedview42"
     showgrid="false"
     fit-margin-top="0.4"
     fit-margin-left="0.4"
     fit-margin-right="0.4"
     fit-margin-bottom="0.4"
     inkscape:zoom="0.9476172"
     inkscape:cx="111.21321"
     inkscape:cy="373.44984"
     inkscape:window-x="-4"
     inkscape:window-y="-4"
     inkscape:window-maximized="1"
     inkscape:current-layer="svg2" /><defs
     id="defs4" /><g
     id="g877"><path
       inkscape:connector-curvature="0"
       d="m 0.9,574.62067 c 0,13.78254 11.166451,24.95833 24.937494,24.95833 H 374.9625 c 13.77658,0 24.9375,-11.17579 24.9375,-24.95833 V 25.537367 C 399.9,11.75482 388.73908,0.579 374.9625,0.579 H 25.837494 C 12.066451,0.579 0.9,11.75482 0.9,25.537367 Z"
       style="fill:#ffffff;fill-opacity:1;fill-rule:nonzero;stroke:#000000;stroke-width:1;stroke-miterlimit:4;stroke-dasharray:none;stroke-opacity:1"
       id="path4208"
       sodipodi:nodetypes="sssssssss" /><path
       sodipodi:nodetypes="sssssssss"
       id="path4210"
       style="fill:#000000;fill-opacity:1;fill-rule:nonzero;stroke:none;stroke-width:2.50000048;stroke-miterlimit:4;stroke-dasharray:none;stroke-opacity:1"
       d="m 394.65007,574.579 c 0,10.35416 -8.39583,18.75 -18.75,18.75 H 25.899999 c -10.35833,0 -18.7499989,-8.39584 -18.7499989,-18.75 V 24.57888 c 0,-10.35417 8.3916689,-18.75003 18.7499989,-18.75003 H 375.90007 c 10.35417,0 18.75,8.39586 18.75,18.75003 z"
       inkscape:connector-curvature="0" /><path
       inkscape:connector-curvature="0"
       d="m 19.149999,24.57885 c 0,-3.72752 3.0225,-6.75001 6.75,-6.75001 H 375.90006 c 3.72899,0 6.75001,3.02249 6.75001,6.75001 V 574.579 c 0,3.72752 -3.02102,6.75002 -6.75001,6.75002 H 25.899999 c -3.7275,0 -6.75,-3.0225 -6.75,-6.75002 z"
       style="fill:#ffffff;fill-opacity:1;fill-rule:nonzero;stroke:none;stroke-width:2.50000048;stroke-miterlimit:4;stroke-dasharray:none;stroke-opacity:1"
       id="path4212"
       sodipodi:nodetypes="sssssssss" /><circle
       style="fill:#c31926;fill-opacity:1;stroke:none;stroke-width:3.75;stroke-linejoin:round;stroke-miterlimit:2.61312604;stroke-dasharray:none;stroke-opacity:1"
       id="circle4244"
       cx="200.90004"
       cy="189.57887"
       r="150.00003" /><rect
       style="fill:#ffffff;fill-opacity:1;stroke:none;stroke-width:3.75;stroke-linejoin:round;stroke-miterlimit:2.61312604;stroke-dasharray:none;stroke-opacity:1"
       id="rect4246"
       width="250.00008"
       height="50.000011"
       x="75.900032"
       y="164.57889" /><g
       transform="translate(-400.25143,40.725998)"
       id="g861"><path
         inkscape:connector-curvature="0"
         id="path830"
         style="font-style:normal;font-variant:normal;font-weight:normal;font-stretch:normal;font-size:medium;line-height:1.25;font-family:ClearviewHwy-2B;-inkscape-font-specification:ClearviewHwy-2B;font-variant-ligatures:normal;font-variant-caps:normal;font-variant-numeric:normal;font-feature-settings:normal;text-align:start;letter-spacing:0px;word-spacing:0px;writing-mode:lr-tb;text-anchor:start;fill:#000000;fill-opacity:1;stroke:none"
         d="m 577.28609,403.48361 -24.93866,-48.53333 h -0.224 v 48.53333 h -11.872 v -74.66666 h 12.32 l 23.81866,47.78666 h 0.224 v -47.78666 h 11.872 v 74.66666 z" /><path
         inkscape:connector-curvature="0"
         id="path832"
         style="font-style:normal;font-variant:normal;font-weight:normal;font-stretch:normal;font-size:medium;line-height:1.25;font-family:ClearviewHwy-2B;-inkscape-font-specification:ClearviewHwy-2B;font-variant-ligatures:normal;font-variant-caps:normal;font-variant-numeric:normal;font-feature-settings:normal;text-align:start;letter-spacing:0px;word-spacing:0px;writing-mode:lr-tb;text-anchor:start;fill:#000000;fill-opacity:1;stroke:none"
         d="m 648.80043,366.00095 q 0,-6.272 -0.74667,-11.424 -0.672,-5.22667 -2.38933,-8.88534 -1.64267,-3.65866 -4.40534,-5.67466 -2.76266,-2.016 -6.944,-2.016 -4.032,0 -6.79466,2.09066 -2.76267,2.016 -4.48,5.74934 -1.64267,3.73333 -2.38934,8.88533 -0.672,5.152 -0.672,11.27467 0,6.42133 0.672,11.648 0.74667,5.152 2.38934,8.88533 1.71733,3.73333 4.55466,5.74933 2.83734,2.016 7.09334,2.016 4.032,0 6.72,-2.09066 2.76266,-2.09067 4.33066,-5.824 1.64267,-3.73334 2.31467,-8.96 0.74667,-5.22667 0.74667,-11.424 z m 12.84266,0.0747 q 0,8.288 -1.568,15.38134 -1.568,7.09333 -4.85333,12.24533 -3.28533,5.152 -8.43733,8.13867 -5.152,2.912 -12.32,2.912 -7.168,0 -12.39467,-2.912 -5.152,-2.912 -8.512,-8.064 -3.28533,-5.22667 -4.85333,-12.32 -1.568,-7.09334 -1.568,-15.38134 0,-8.21333 1.568,-15.232 1.568,-7.01866 4.85333,-12.17066 3.36,-5.152 8.512,-8.064 5.152,-2.98667 12.39467,-2.98667 7.168,0 12.32,2.98667 5.152,2.912 8.43733,8.064 3.28533,5.152 4.85333,12.17066 1.568,7.01867 1.568,15.232 z" /></g><g
       transform="translate(-470.25143,48.662048)"
       id="g857"><path
         inkscape:connector-curvature="0"
         id="path834"
         style="font-style:normal;font-variant:normal;font-weight:normal;font-stretch:normal;font-size:medium;line-height:1.25;font-family:ClearviewHwy-2B;-inkscape-font-specification:ClearviewHwy-2B;font-variant-ligatures:normal;font-variant-caps:normal;font-variant-numeric:normal;font-feature-settings:normal;text-align:start;letter-spacing:0px;word-spacing:0px;writing-mode:lr-tb;text-anchor:start;fill:#000000;fill-opacity:1;stroke:none"
         d="m 540.25143,496.81694 v -74.66666 h 33.67466 v 10.67733 h -21.28 v 19.712 h 19.04 v 10.752 h -19.04 v 23.072 h 22.02667 v 10.45333 z" /><path
         inkscape:connector-curvature="0"
         id="path836"
         style="font-style:normal;font-variant:normal;font-weight:normal;font-stretch:normal;font-size:medium;line-height:1.25;font-family:ClearviewHwy-2B;-inkscape-font-specification:ClearviewHwy-2B;font-variant-ligatures:normal;font-variant-caps:normal;font-variant-numeric:normal;font-feature-settings:normal;text-align:start;letter-spacing:0px;word-spacing:0px;writing-mode:lr-tb;text-anchor:start;fill:#000000;fill-opacity:1;stroke:none"
         d="m 628.18193,496.81694 -24.93867,-48.53333 h -0.224 v 48.53333 h -11.872 v -74.66666 h 12.32 l 23.81867,47.78666 h 0.224 v -47.78666 h 11.872 v 74.66666 z" /><path
         inkscape:connector-curvature="0"
         id="path838"
         style="font-style:normal;font-variant:normal;font-weight:normal;font-stretch:normal;font-size:medium;line-height:1.25;font-family:ClearviewHwy-2B;-inkscape-font-specification:ClearviewHwy-2B;font-variant-ligatures:normal;font-variant-caps:normal;font-variant-numeric:normal;font-feature-settings:normal;text-align:start;letter-spacing:0px;word-spacing:0px;writing-mode:lr-tb;text-anchor:start;fill:#000000;fill-opacity:1;stroke:none"
         d="m 679.76026,432.82761 v 63.98933 h -12.39467 v -63.98933 h -13.81333 v -10.67733 h 40.02133 v 10.67733 z" /><path
         inkscape:connector-curvature="0"
         id="path840"
         style="font-style:normal;font-variant:normal;font-weight:normal;font-stretch:normal;font-size:medium;line-height:1.25;font-family:ClearviewHwy-2B;-inkscape-font-specification:ClearviewHwy-2B;font-variant-ligatures:normal;font-variant-caps:normal;font-variant-numeric:normal;font-feature-settings:normal;text-align:start;letter-spacing:0px;word-spacing:0px;writing-mode:lr-tb;text-anchor:start;fill:#000000;fill-opacity:1;stroke:none"
         d="m 738.65126,444.17694 q 0,-2.464 -0.448,-4.77866 -0.448,-2.31467 -1.71733,-4.032 -1.19467,-1.792 -3.36,-2.83734 -2.16534,-1.12 -5.67467,-1.12 -1.71733,0 -3.584,0.14934 -1.792,0.0747 -3.65867,0.37333 v 24.71467 h 8.512 q 5.22667,0 7.54134,-2.83734 2.38933,-2.912 2.38933,-9.632 z m -0.224,52.64 -6.57067,-26.432 q -0.52266,-1.94133 -1.12,-2.83733 -0.59733,-0.896 -2.09066,-0.896 h -8.43734 v 30.16533 h -12.39466 v -74.29333 q 2.688,-0.29867 5.00267,-0.52267 2.38933,-0.224 4.704,-0.29866 2.31466,-0.14934 4.70399,-0.224 2.38934,-0.0747 5.00267,-0.0747 11.49867,0 17.77067,5.45067 6.272,5.376 6.272,16.352 0,7.98933 -2.76267,12.61866 -2.76267,4.62934 -7.46667,6.72 v 0.14934 q 0.82134,0.29866 1.26934,1.344 0.52266,0.97066 0.896,2.24 l 8.288,30.53866 z" /><path
         inkscape:connector-curvature="0"
         id="path842"
         style="font-style:normal;font-variant:normal;font-weight:normal;font-stretch:normal;font-size:medium;line-height:1.25;font-family:ClearviewHwy-2B;-inkscape-font-specification:ClearviewHwy-2B;font-variant-ligatures:normal;font-variant-caps:normal;font-variant-numeric:normal;font-feature-settings:normal;text-align:start;letter-spacing:0px;word-spacing:0px;writing-mode:lr-tb;text-anchor:start;fill:#000000;fill-opacity:1;stroke:none"
         d="m 791.54909,468.36894 v 28.448 H 779.07976 V 468.89161 L 760.4131,422.15028 h 13.29066 l 11.648,35.24266 11.648,-35.24266 h 12.768 z" /></g></g></svg>