<?xml version="1.0" encoding="UTF-8" standalone="no"?>
<!-- Created with Inkscape (http://www.inkscape.org/) -->

<svg
   xmlns:dc="http://purl.org/dc/elements/1.1/"
   xmlns:cc="http://creativecommons.org/ns#"
   xmlns:rdf="http://www.w3.org/1999/02/22-rdf-syntax-ns#"
   xmlns:svg="http://www.w3.org/2000/svg"
   xmlns="http://www.w3.org/2000/svg"
   xmlns:sodipodi="http://sodipodi.sourceforge.net/DTD/sodipodi-0.dtd"
   xmlns:inkscape="http://www.inkscape.org/namespaces/inkscape"
   width="600"
   height="599.99994"
   id="svg3094"
   version="1.1"
   inkscape:version="0.92.2 (5c3e80d, 2017-08-06)"
   sodipodi:docname="Philippines_road_sign_R3-5.svg">
  <defs
     id="defs3096">
    <clipPath
       clipPathUnits="userSpaceOnUse"
       id="clipPath2302">
      <path
         d="m 2696,4169 h 48 v -79 h -48 z"
         id="path2300"
         inkscape:connector-curvature="0" />
    </clipPath>
    <clipPath
       clipPathUnits="userSpaceOnUse"
       id="clipPath2288">
      <path
         d="m 2667,4169 h 30 v -79 h -30 z"
         id="path2286"
         inkscape:connector-curvature="0" />
    </clipPath>
    <clipPath
       clipPathUnits="userSpaceOnUse"
       id="clipPath2274">
      <path
         d="m 2556,4169 h 112 v -79 h -112 z"
         id="path2272"
         inkscape:connector-curvature="0" />
    </clipPath>
  </defs>
  <sodipodi:namedview
     id="base"
     pagecolor="#ffffff"
     bordercolor="#666666"
     borderopacity="1.0"
     inkscape:pageopacity="0.0"
     inkscape:pageshadow="2"
     inkscape:zoom="0.99999999"
     inkscape:cx="355.31296"
     inkscape:cy="299.81741"
     inkscape:document-units="px"
     inkscape:current-layer="g6674"
     showgrid="false"
     fit-margin-top="0"
     fit-margin-left="0"
     fit-margin-right="0"
     fit-margin-bottom="0"
     inkscape:window-width="1366"
     inkscape:window-height="705"
     inkscape:window-x="-4"
     inkscape:window-y="-4"
     inkscape:window-maximized="1" />
  <metadata
     id="metadata3099">
    <rdf:RDF>
      <cc:Work
         rdf:about="">
        <dc:format>image/svg+xml</dc:format>
        <dc:type
           rdf:resource="http://purl.org/dc/dcmitype/StillImage" />
        <dc:title />
      </cc:Work>
    </rdf:RDF>
  </metadata>
  <g
     inkscape:label="Layer 1"
     inkscape:groupmode="layer"
     id="layer1"
     transform="translate(65.714292,-215.21937)"
     style="opacity:1">
    <path
       inkscape:connector-curvature="0"
       style="fill:#ffffff;fill-opacity:1;fill-rule:nonzero;stroke:#c31927;stroke-width:50;stroke-linecap:round;stroke-linejoin:miter;stroke-miterlimit:4;stroke-opacity:1;stroke-dasharray:none;opacity:1"
       d="m -40.714292,515.23259 c 0,151.85995 123.126799,274.98669 275.013242,274.98669 151.85988,0 274.98676,-123.12674 274.98676,-274.98669 0,-151.88639 -123.12688,-275.01322 -274.98676,-275.01322 -151.886443,0 -275.013242,123.12683 -275.013242,275.01322 z"
       id="path3003" />
    <g
       id="g6674"
       transform="matrix(1.0188609,0,0,1.0293475,-14.197329,9.1367654)"
       style="stroke-width:0.97647589;opacity:1">
      <path
         style="fill:#000000;fill-opacity:1;fill-rule:evenodd;stroke:none;stroke-width:0.16"
         d="m 392.02539,128.34375 c -10.25306,0.13882 -20.46118,7.04993 -21.4707,15.58789 l -3.5,14.13672 v 2.35742 l 5.83203,1.17774 v 8.54101 l 4.66406,10.31055 1.82227,1.50781 0.60937,2.64063 -7.0957,-1.79297 -8.16406,18.85156 -12.82813,14.13867 -10.49414,10.60352 -15.16211,10.60351 -13.99414,4.71289 -18.6582,7.06836 -8.16406,-1.17773 -1.97657,-0.44336 -2.86719,-0.64453 -5.65039,-1.26953 0.32618,3.95898 0.0605,0.74023 -54.03125,-16.48046 -11.66211,36.52343 11.66211,3.53516 10.4961,-20.0293 h 11.66015 l -1.16601,12.96094 31.48828,8.24609 2.33203,-4.71289 -23.32422,-7.06836 1.16602,-7.07031 25.65625,4.71289 0.36132,-0.85351 5.91407,0.49804 0.72265,3.89063 53.64258,-7.06836 22.9082,-14.72852 c 3.26231,16.73745 -5.41777,44.6127 -10.46679,57.72852 l -17.10547,0.5918 1.93164,7.31836 -6.0918,3.78711 -2.83593,-11.10547 -10.4961,-7.06836 -89.79687,-11.78125 -16.32618,44.76953 9.33008,14.13867 67.63868,12.95898 5.55468,-1.87109 0.39453,3.36133 0.14844,1.25586 -6.09765,1.9668 -36.15235,-7.06836 17.49219,75.40429 44.3164,8.2461 h 22.15626 l 29.15429,-5.89063 -0.002,-0.004 8.05078,0.23828 C 383.05237,454.18345 406.98292,472 435,472 c 35.8424,0 65,-29.1576 65,-65 0,-35.8424 -29.1576,-65 -65,-65 -35.84241,0 -65,29.1576 -65,65 0,2.93278 0.21367,5.81552 0.5918,8.64648 l -9.16992,-1.11132 3.30078,-45.57227 32.65429,-24.74023 v -3.53516 h -28.14062 l 7.02929,-5.26953 101.57618,-1.79883 12.82812,-37.70312 -8.16211,-5.89063 -10.49609,5.89063 -57.01758,1.96875 c 4.62103,-40.80776 13.10984,-85.50139 -8.28906,-118.60743 l -3.04688,2.3086 -1.61718,-7.02149 c 10.74938,-15.71563 13.31624,-19.73669 8.1621,-35.3457 -3.86145,-9.2207 -11.16248,-10.96998 -18.17773,-10.875 z m -187.06836,145.1875 -19.82617,49.48437 5.83203,2.35547 c -2.62558,6.42821 -5.00062,12.96014 -7.71094,19.35352 C 177.35674,342.96116 171.11759,342 164.65625,342 c -35.84241,0 -65.000002,29.15759 -65,65 -2e-6,35.84241 29.15759,65 65,65 35.8424,0 65,-29.1576 65,-65 0,-26.50856 -15.9572,-49.34494 -38.76367,-59.44922 2.31089,-6.23157 4.70207,-12.43309 7.0664,-18.64453 l 4.66407,3.5332 20.99218,-50.66015 z m -38.48437,3.53516 v 40.05664 h 12.82812 l 4.66406,-10.60352 h 3.49805 l 6.99805,-17.67187 h -12.82813 l -2.33203,-11.78125 z m -1.44922,80.09961 c 4.24801,0 8.36851,0.53651 12.29687,1.54492 -3.55272,9.89189 -8.26769,22.15141 -11.67578,32.09765 -0.44123,-0.0343 -0.8836,-0.0519 -1.32617,-0.0527 -9.6649,0 -17.49988,7.81923 -17.5,17.46484 1.3e-4,9.6456 7.83511,17.46485 17.5,17.46485 9.66489,0 17.49987,-7.81925 17.5,-17.46485 -0.009,-6.19697 -3.30741,-11.9252 -8.66797,-15.05273 3.65766,-9.75212 8.87177,-21.71515 12.49414,-31.48047 16.83949,7.7795 28.49805,24.7942 28.49805,44.59961 1e-5,27.17764 -21.9415,49.11914 -49.11914,49.11914 -27.17765,0 -49.1211,-21.9415 -49.1211,-49.11914 1e-5,-27.17764 21.94346,-49.12109 49.1211,-49.12109 z m 271.22461,0.23437 c 27.17764,0 49.11914,21.94345 49.11914,49.12109 0,1.05634 -0.046,2.10109 -0.11133,3.14063 l -35.19922,-8.71484 c -1.93014,-5.12531 -6.15695,-9.05063 -11.41797,-10.60352 l -7.62109,-32.66406 c 1.71848,-0.181 3.4631,-0.2793 5.23047,-0.2793 z m -17.10938,3.05469 4.5,32.35156 c -4.25412,2.98025 -6.96071,7.69352 -7.38672,12.86328 l -28.24609,10.10156 c -0.56851,-2.99595 -0.87695,-6.08571 -0.87695,-9.25 0,-21.15588 13.29851,-39.13548 32.00976,-46.0664 z m 29.33594,55.91992 34.51758,5.2793 c -6.36502,19.74369 -24.85124,33.98632 -46.74414,33.98632 -19.51678,0 -36.33195,-11.31602 -44.26172,-27.75976 l 30.07812,-7.75977 c 3.19864,2.84557 7.33222,4.42103 11.61719,4.42774 6.01026,-0.009 11.59558,-3.09479 14.79297,-8.17383 z"
         transform="matrix(0.98148825,0,0,0.97148922,-50.563294,200.20703)"
         id="path1848"
         inkscape:connector-curvature="0"
         sodipodi:nodetypes="sccccccccccccccccccccccccccccccccccccccccccccccccccccccccccssssccccccccccccccccsccccssssccccccccccccccsccccscccssssssccccsccccscccscccc" />
    </g>
    <path
       style="fill:none;stroke:#c31927;stroke-width:50;stroke-linecap:butt;stroke-linejoin:miter;stroke-miterlimit:4;stroke-opacity:1;stroke-dasharray:none;opacity:1"
       d="M 31.576488,322.2243 C 418.52706,709.17487 418.52706,709.17487 418.52706,709.17487"
       id="path3780"
       inkscape:connector-curvature="0" />
  </g>
</svg>
