<svg id="svg" version="1.1" width="400" height="392.69406392694066" viewBox="0 0 400 392.69406392694066" xmlns="http://www.w3.org/2000/svg" xmlns:xlink="http://www.w3.org/1999/xlink" ><g id="svgg"><path id="path0" d="M174.617 42.098 C 170.746 42.263,166.891 42.645,165.521 43.000 C 164.213 43.339,161.048 43.788,158.487 43.998 C 155.513 44.241,152.837 44.715,151.081 45.310 C 149.568 45.823,147.221 46.356,145.865 46.495 C 144.315 46.654,142.994 47.049,142.305 47.558 C 141.658 48.036,140.119 48.523,138.547 48.745 C 137.083 48.953,135.149 49.544,134.249 50.059 C 133.349 50.574,131.793 51.111,130.792 51.252 C 129.767 51.396,128.674 51.836,128.292 52.258 C 127.919 52.670,126.672 53.203,125.520 53.442 C 124.369 53.681,123.012 54.203,122.505 54.602 C 121.998 55.001,120.846 55.526,119.945 55.768 C 119.044 56.011,117.813 56.613,117.208 57.107 C 116.604 57.600,115.377 58.216,114.481 58.475 C 113.585 58.734,112.757 59.191,112.642 59.491 C 112.527 59.791,111.557 60.327,110.487 60.683 C 109.416 61.038,108.227 61.675,107.844 62.099 C 107.461 62.522,106.849 62.868,106.483 62.868 C 106.118 62.868,105.482 63.241,105.071 63.696 C 104.659 64.151,103.615 64.881,102.750 65.317 C 101.886 65.753,100.914 66.358,100.589 66.662 C 99.732 67.463,97.469 69.003,95.796 69.923 C 94.997 70.363,93.873 71.147,93.300 71.666 C 92.726 72.185,91.655 73.114,90.919 73.731 C 90.184 74.348,89.186 75.219,88.701 75.668 C 88.216 76.116,86.758 77.328,85.462 78.361 C 82.312 80.871,74.111 88.988,71.906 91.778 C 70.933 93.008,69.563 94.598,68.861 95.311 C 68.158 96.024,67.583 96.791,67.583 97.015 C 67.583 97.239,67.053 97.815,66.405 98.294 C 65.756 98.773,65.226 99.385,65.226 99.652 C 65.226 99.920,64.821 100.462,64.327 100.856 C 63.832 101.249,63.199 102.129,62.920 102.810 C 62.641 103.491,61.984 104.450,61.462 104.941 C 60.939 105.433,60.511 106.043,60.511 106.297 C 60.511 106.551,59.980 107.315,59.332 107.993 C 58.684 108.672,58.153 109.487,58.153 109.806 C 58.153 110.125,57.623 110.989,56.974 111.728 C 56.326 112.466,55.796 113.234,55.796 113.433 C 55.796 113.633,55.348 114.403,54.801 115.144 C 54.255 115.885,53.605 117.168,53.357 117.994 C 53.109 118.820,52.599 119.661,52.222 119.863 C 51.846 120.064,51.418 120.805,51.272 121.510 C 51.126 122.214,50.588 123.409,50.077 124.165 C 49.566 124.921,48.871 126.327,48.532 127.289 C 48.194 128.251,47.657 129.324,47.341 129.674 C 47.024 130.024,46.591 131.227,46.378 132.348 C 46.166 133.470,45.614 134.897,45.153 135.521 C 44.692 136.145,44.156 137.514,43.962 138.563 C 43.767 139.613,43.257 140.950,42.827 141.535 C 42.364 142.164,41.880 143.767,41.639 145.464 C 41.416 147.040,40.882 149.005,40.452 149.830 C 40.022 150.656,39.484 152.672,39.256 154.310 C 39.028 155.949,38.495 158.168,38.072 159.241 C 37.584 160.481,37.168 162.933,36.934 165.960 C 36.731 168.582,36.175 172.141,35.698 173.870 C 34.680 177.563,34.373 200.856,35.298 204.224 C 36.370 208.128,36.571 209.298,36.934 213.734 C 37.167 216.593,37.622 219.225,38.108 220.522 C 38.543 221.686,39.070 223.977,39.277 225.612 C 39.489 227.288,40.005 229.180,40.459 229.949 C 40.906 230.707,41.424 232.589,41.624 234.185 C 41.857 236.034,42.278 237.453,42.809 238.172 C 43.263 238.785,43.798 240.152,43.999 241.209 C 44.199 242.267,44.814 243.796,45.364 244.607 C 45.915 245.418,46.365 246.473,46.365 246.951 C 46.365 248.101,47.143 250.295,47.551 250.295 C 47.729 250.295,48.159 251.151,48.506 252.198 C 48.854 253.245,49.576 254.694,50.110 255.418 C 50.644 256.142,51.081 257.029,51.081 257.390 C 51.081 257.750,51.611 258.713,52.259 259.528 C 52.908 260.344,53.438 261.303,53.438 261.659 C 53.438 262.313,55.431 265.714,56.953 267.658 C 57.408 268.239,58.043 269.344,58.365 270.114 C 58.687 270.883,59.133 271.513,59.357 271.513 C 59.582 271.513,60.007 272.091,60.302 272.798 C 60.597 273.505,61.191 274.401,61.621 274.791 C 62.052 275.180,62.632 276.061,62.912 276.747 C 63.192 277.434,63.871 278.471,64.421 279.051 C 64.972 279.632,65.864 280.669,66.405 281.357 C 66.945 282.045,67.870 283.161,68.461 283.838 C 69.052 284.515,70.756 286.483,72.248 288.212 C 75.011 291.415,83.149 299.437,85.800 301.572 C 86.605 302.220,87.919 303.331,88.720 304.042 C 89.521 304.752,90.730 305.790,91.405 306.349 C 92.081 306.909,93.107 307.787,93.685 308.302 C 94.263 308.817,95.390 309.598,96.189 310.038 C 97.820 310.935,99.997 312.461,101.179 313.536 C 101.611 313.930,102.407 314.384,102.947 314.546 C 103.487 314.708,104.510 315.347,105.220 315.967 C 105.930 316.586,106.742 317.092,107.025 317.092 C 107.309 317.092,107.854 317.439,108.237 317.862 C 108.620 318.285,109.783 318.914,110.821 319.259 C 111.860 319.604,112.914 320.132,113.163 320.432 C 113.412 320.733,114.472 321.263,115.517 321.610 C 116.562 321.957,117.502 322.462,117.606 322.733 C 117.710 323.004,118.565 323.464,119.506 323.756 C 120.448 324.048,121.844 324.700,122.609 325.205 C 123.375 325.710,124.817 326.275,125.814 326.461 C 126.811 326.648,128.098 327.171,128.674 327.624 C 129.250 328.077,130.496 328.563,131.442 328.705 C 132.388 328.847,133.720 329.375,134.401 329.877 C 135.254 330.506,136.452 330.876,138.252 331.065 C 139.689 331.215,141.660 331.734,142.633 332.217 C 143.605 332.700,145.775 333.295,147.455 333.541 C 149.136 333.786,151.523 334.320,152.760 334.728 C 153.997 335.136,156.513 335.588,158.350 335.731 C 160.187 335.875,164.937 336.426,168.906 336.955 C 177.892 338.154,184.337 338.196,192.534 337.110 C 195.884 336.666,200.393 336.141,202.554 335.944 C 207.623 335.482,209.245 335.204,210.883 334.520 C 211.619 334.213,213.613 333.787,215.315 333.573 C 217.018 333.360,219.352 332.764,220.502 332.250 C 221.652 331.736,223.654 331.195,224.951 331.048 C 226.252 330.901,228.013 330.377,228.880 329.878 C 229.745 329.382,231.071 328.844,231.827 328.684 C 232.583 328.523,233.910 327.988,234.774 327.495 C 235.639 327.002,237.082 326.480,237.981 326.335 C 238.880 326.191,239.914 325.743,240.279 325.340 C 240.644 324.936,241.889 324.309,243.047 323.944 C 244.205 323.580,245.453 322.950,245.820 322.545 C 246.187 322.139,246.789 321.807,247.157 321.807 C 247.526 321.807,248.515 321.341,249.355 320.771 C 250.196 320.200,251.414 319.553,252.062 319.333 C 252.711 319.112,253.741 318.518,254.352 318.012 C 254.963 317.506,255.709 317.092,256.009 317.092 C 256.309 317.092,257.135 316.602,257.845 316.003 C 258.555 315.404,259.799 314.611,260.609 314.241 C 261.419 313.871,262.083 313.408,262.083 313.212 C 262.083 313.016,262.790 312.572,263.654 312.227 C 264.519 311.881,265.226 311.423,265.226 311.210 C 265.226 310.996,265.889 310.481,266.699 310.065 C 267.510 309.650,268.703 308.851,269.352 308.290 C 270.000 307.729,270.631 307.270,270.753 307.270 C 270.875 307.269,272.024 306.301,273.307 305.117 C 274.589 303.933,275.768 302.961,275.925 302.956 C 276.510 302.938,289.027 290.430,292.449 286.444 C 294.397 284.175,296.297 282.042,296.670 281.705 C 297.043 281.368,297.619 280.573,297.949 279.937 C 298.280 279.302,299.009 278.353,299.570 277.829 C 300.131 277.305,300.589 276.648,300.589 276.369 C 300.589 276.090,301.120 275.319,301.768 274.656 C 302.417 273.993,302.947 273.225,302.947 272.949 C 302.947 272.673,303.282 272.087,303.691 271.648 C 304.100 271.209,304.739 270.247,305.111 269.511 C 305.483 268.775,306.189 267.731,306.680 267.191 C 307.172 266.650,307.706 265.766,307.868 265.226 C 308.030 264.686,308.580 263.744,309.091 263.133 C 309.602 262.522,310.020 261.717,310.020 261.344 C 310.020 260.971,310.525 259.968,311.143 259.115 C 311.761 258.262,312.394 257.033,312.550 256.385 C 312.706 255.737,313.167 254.896,313.573 254.517 C 313.980 254.138,314.496 253.144,314.721 252.309 C 314.946 251.474,315.485 250.339,315.919 249.787 C 316.353 249.236,316.881 247.872,317.093 246.757 C 317.304 245.642,317.810 244.258,318.218 243.681 C 318.625 243.105,319.157 241.698,319.400 240.555 C 319.642 239.413,320.208 237.981,320.657 237.374 C 321.178 236.670,321.603 235.237,321.831 233.416 C 322.039 231.759,322.534 230.005,323.010 229.235 C 323.461 228.505,323.997 226.712,324.202 225.251 C 324.407 223.789,324.918 221.593,325.339 220.370 C 325.761 219.143,326.278 216.063,326.493 213.494 C 326.707 210.935,327.155 207.868,327.488 206.680 C 329.180 200.642,329.193 181.648,327.510 173.084 C 327.000 170.491,326.479 166.813,326.353 164.910 C 326.226 163.008,325.765 160.444,325.330 159.213 C 324.894 157.982,324.362 155.752,324.147 154.258 C 323.932 152.764,323.404 150.971,322.973 150.274 C 322.535 149.564,322.032 147.749,321.831 146.152 C 321.604 144.344,321.177 142.897,320.665 142.205 C 320.221 141.605,319.668 140.267,319.437 139.233 C 319.205 138.199,318.671 136.796,318.250 136.115 C 317.829 135.434,317.306 133.934,317.087 132.783 C 316.869 131.631,316.361 130.326,315.958 129.883 C 315.556 129.439,314.929 128.162,314.566 127.044 C 314.203 125.926,313.659 124.807,313.358 124.557 C 313.057 124.307,312.603 123.453,312.349 122.660 C 312.095 121.867,311.583 120.864,311.210 120.432 C 310.837 120.000,310.230 118.865,309.860 117.911 C 309.490 116.956,308.844 115.739,308.425 115.206 C 308.005 114.672,307.662 114.022,307.662 113.760 C 307.662 113.499,307.283 112.948,306.819 112.536 C 306.356 112.125,305.655 111.070,305.262 110.192 C 304.869 109.314,304.187 108.270,303.747 107.871 C 303.307 107.473,302.947 106.937,302.947 106.680 C 302.947 106.423,302.575 105.876,302.121 105.465 C 301.667 105.053,301.023 104.186,300.691 103.537 C 300.359 102.888,299.586 101.739,298.972 100.982 C 298.359 100.226,297.455 99.096,296.964 98.470 C 296.473 97.845,295.618 96.848,295.064 96.254 C 294.510 95.661,293.750 94.707,293.375 94.135 C 292.327 92.535,282.309 82.340,278.782 79.283 C 273.551 74.750,273.260 74.502,271.741 73.281 C 270.935 72.633,269.979 71.814,269.617 71.463 C 269.255 71.111,268.251 70.462,267.387 70.021 C 266.523 69.580,265.508 68.851,265.132 68.401 C 264.755 67.951,264.202 67.583,263.903 67.583 C 263.603 67.583,263.126 67.304,262.843 66.963 C 262.560 66.622,261.522 65.930,260.535 65.424 C 259.549 64.919,258.435 64.137,258.059 63.687 C 257.683 63.237,257.149 62.868,256.873 62.868 C 256.597 62.868,255.755 62.453,255.003 61.944 C 254.250 61.436,252.993 60.811,252.209 60.554 C 251.424 60.298,250.478 59.751,250.105 59.340 C 249.732 58.928,248.911 58.477,248.280 58.339 C 247.649 58.200,246.646 57.677,246.051 57.176 C 245.456 56.676,244.230 56.067,243.327 55.824 C 242.424 55.581,241.427 55.123,241.110 54.806 C 240.793 54.489,239.503 53.963,238.243 53.636 C 236.984 53.309,235.479 52.693,234.901 52.267 C 234.322 51.840,233.084 51.374,232.150 51.231 C 231.216 51.088,229.745 50.563,228.880 50.065 C 228.016 49.567,226.071 48.967,224.558 48.731 C 223.045 48.496,221.339 47.963,220.766 47.548 C 220.129 47.086,218.525 46.638,216.640 46.395 C 214.944 46.176,212.618 45.635,211.472 45.192 C 210.145 44.680,207.649 44.246,204.596 43.996 C 201.960 43.780,198.831 43.341,197.642 43.021 C 196.447 42.699,192.847 42.343,189.587 42.225 C 186.346 42.108,183.163 41.967,182.515 41.912 C 181.866 41.856,178.313 41.940,174.617 42.098 M305.697 159.248 C 309.152 161.010,310.209 161.843,311.730 164.004 L 313.360 166.318 313.360 185.436 C 313.360 203.920,313.334 204.590,312.574 205.666 C 312.141 206.278,311.509 207.195,311.169 207.704 C 310.446 208.786,308.393 210.353,306.594 211.195 C 305.020 211.933,61.028 212.114,59.095 211.379 C 58.504 211.155,57.827 210.705,57.589 210.381 C 57.352 210.056,56.732 209.577,56.212 209.316 C 55.692 209.055,54.988 208.381,54.647 207.819 C 54.306 207.257,53.674 206.292,53.242 205.675 C 52.482 204.591,52.456 203.917,52.456 185.479 L 52.456 166.405 53.985 163.949 C 54.826 162.598,55.636 161.493,55.784 161.493 C 55.933 161.493,56.918 160.921,57.974 160.221 C 60.748 158.384,54.890 158.463,185.462 158.506 C 298.736 158.544,304.387 158.579,305.697 159.248 " stroke="none" fill="#f40807" fill-rule="evenodd"></path><path id="path1" d="M0.000 196.464 L 0.000 392.927 200.000 392.927 L 400.000 392.927 400.000 196.464 L 400.000 0.000 200.000 0.000 L 0.000 0.000 0.000 196.464 M307.904 23.946 C 311.590 24.214,313.054 24.492,314.388 25.176 C 315.567 25.782,317.211 26.153,319.604 26.355 C 322.245 26.577,323.347 26.848,324.122 27.466 C 324.686 27.916,325.722 28.541,326.424 28.856 C 327.127 29.172,327.701 29.622,327.701 29.856 C 327.701 30.091,328.453 30.608,329.371 31.004 C 330.290 31.401,331.378 32.102,331.790 32.562 C 332.201 33.022,332.770 33.399,333.053 33.399 C 333.336 33.399,334.111 33.929,334.774 34.578 C 335.437 35.226,336.218 35.756,336.510 35.756 C 337.179 35.756,339.882 38.716,339.882 39.448 C 339.882 39.749,340.155 40.099,340.489 40.227 C 340.823 40.356,341.343 41.052,341.645 41.774 C 341.947 42.497,342.498 43.339,342.870 43.646 C 343.242 43.953,343.879 44.956,344.287 45.874 C 344.694 46.793,345.191 47.544,345.391 47.544 C 345.592 47.544,346.046 48.119,346.401 48.821 C 346.756 49.524,347.401 50.486,347.833 50.959 C 348.420 51.601,348.718 52.748,349.009 55.478 C 349.237 57.615,349.716 59.758,350.161 60.632 C 351.628 63.512,351.664 66.606,351.664 191.159 C 351.664 316.648,351.638 318.789,350.097 321.810 C 349.543 322.895,349.193 324.531,349.035 326.766 C 348.832 329.647,348.647 330.294,347.681 331.510 C 347.065 332.284,346.562 333.157,346.562 333.450 C 346.562 333.742,346.199 334.204,345.756 334.476 C 345.312 334.748,344.605 335.678,344.183 336.542 C 343.266 338.420,341.823 340.554,340.699 341.692 C 340.250 342.147,339.882 342.715,339.882 342.955 C 339.882 343.659,337.553 346.108,336.616 346.390 C 336.143 346.532,335.403 346.987,334.971 347.402 C 333.756 348.567,331.602 350.014,329.769 350.899 C 328.854 351.341,327.919 352.048,327.693 352.472 C 327.466 352.895,327.052 353.242,326.773 353.242 C 326.493 353.242,325.443 353.785,324.440 354.450 C 322.919 355.458,322.043 355.713,319.167 355.985 C 317.076 356.183,314.866 356.675,313.556 357.233 L 311.395 358.153 184.086 358.153 L 56.778 358.153 54.617 357.233 C 53.307 356.675,51.097 356.183,49.006 355.985 C 46.130 355.713,45.254 355.458,43.733 354.450 C 42.729 353.785,41.694 353.242,41.432 353.242 C 41.169 353.242,40.675 352.815,40.334 352.293 C 39.992 351.772,39.194 351.232,38.561 351.092 C 37.928 350.953,37.082 350.478,36.682 350.036 C 36.282 349.594,35.424 348.958,34.775 348.624 C 34.126 348.290,33.364 347.689,33.082 347.289 C 32.799 346.889,32.327 346.562,32.031 346.562 C 31.149 346.562,29.009 344.531,28.429 343.142 C 28.131 342.430,27.716 341.847,27.508 341.847 C 27.299 341.847,26.790 341.184,26.376 340.373 C 25.962 339.563,25.261 338.572,24.819 338.171 C 24.376 337.771,23.903 336.944,23.769 336.334 C 23.636 335.724,23.095 334.942,22.568 334.597 C 22.042 334.252,21.611 333.733,21.611 333.444 C 21.611 333.154,21.107 332.284,20.492 331.509 C 19.531 330.300,19.336 329.628,19.115 326.749 C 18.948 324.571,18.579 322.863,18.062 321.872 C 16.535 318.943,16.509 316.675,16.518 190.766 C 16.527 65.312,16.549 63.507,18.062 60.368 C 18.504 59.450,18.999 57.252,19.198 55.319 C 19.489 52.503,19.734 51.679,20.581 50.672 C 21.148 49.999,21.611 49.201,21.611 48.898 C 21.611 48.596,22.042 48.066,22.568 47.721 C 23.095 47.376,23.634 46.601,23.766 45.999 C 23.899 45.397,24.529 44.404,25.166 43.793 C 25.804 43.182,26.326 42.478,26.326 42.229 C 26.326 41.246,30.850 35.756,31.660 35.756 C 31.951 35.756,32.681 35.305,33.285 34.754 C 34.812 33.358,36.883 31.948,38.507 31.199 C 39.263 30.849,40.033 30.301,40.217 29.980 C 40.401 29.659,41.108 29.146,41.789 28.840 C 42.469 28.534,43.487 27.916,44.051 27.466 C 44.826 26.848,45.928 26.577,48.569 26.355 C 50.993 26.151,52.603 25.783,53.825 25.156 C 55.140 24.481,56.588 24.180,59.523 23.972 C 65.286 23.562,302.293 23.538,307.904 23.946 M60.511 28.726 C 59.461 29.207,56.986 29.740,54.420 30.037 C 51.752 30.346,49.422 30.856,48.330 31.370 C 47.358 31.828,46.277 32.207,45.928 32.211 C 45.580 32.216,44.636 32.744,43.831 33.383 C 43.026 34.023,41.985 34.661,41.518 34.802 C 41.050 34.942,40.314 35.396,39.882 35.810 C 38.873 36.778,36.742 38.258,34.889 39.276 C 34.054 39.736,32.991 40.831,32.396 41.846 C 31.826 42.819,31.196 43.615,30.995 43.615 C 30.795 43.615,30.421 44.101,30.164 44.695 C 29.908 45.290,29.204 46.357,28.601 47.067 C 27.998 47.777,27.505 48.610,27.505 48.919 C 27.505 49.229,26.998 50.062,26.379 50.772 C 25.760 51.482,25.123 52.505,24.964 53.045 C 24.804 53.585,24.338 54.613,23.928 55.328 C 23.412 56.227,23.062 57.998,22.793 61.066 C 22.518 64.199,22.143 66.069,21.516 67.427 L 20.629 69.352 20.629 191.159 L 20.629 312.967 21.538 314.931 C 22.191 316.342,22.550 318.115,22.810 321.218 C 23.091 324.567,23.395 325.976,24.160 327.473 C 24.703 328.536,25.147 329.602,25.147 329.841 C 25.147 330.081,25.678 330.858,26.326 331.567 C 26.974 332.277,27.505 333.106,27.505 333.409 C 27.505 333.713,28.012 334.542,28.631 335.252 C 29.250 335.961,29.881 336.940,30.032 337.426 C 30.184 337.913,30.468 338.310,30.663 338.310 C 30.858 338.310,31.639 339.283,32.400 340.472 C 33.160 341.660,34.043 342.633,34.363 342.633 C 34.682 342.633,35.547 343.163,36.286 343.811 C 37.024 344.460,37.834 344.990,38.085 344.990 C 38.337 344.990,38.954 345.401,39.456 345.904 C 39.959 346.406,40.929 347.049,41.613 347.332 C 42.296 347.615,43.159 348.233,43.531 348.705 C 43.904 349.180,45.065 349.779,46.131 350.048 C 47.189 350.314,48.561 350.794,49.179 351.113 C 49.796 351.432,52.424 351.942,55.018 352.245 C 57.946 352.587,60.216 353.066,61.006 353.510 C 62.228 354.195,67.165 354.228,183.606 354.325 L 304.933 354.425 306.540 353.606 C 307.625 353.052,309.719 352.612,312.991 352.249 C 315.655 351.954,318.331 351.456,318.937 351.143 C 319.543 350.830,320.835 350.363,321.807 350.105 C 322.780 349.848,324.018 349.220,324.558 348.710 C 325.098 348.200,326.203 347.505,327.014 347.167 C 327.824 346.828,328.487 346.373,328.487 346.155 C 328.487 345.937,328.973 345.549,329.568 345.292 C 330.162 345.035,331.229 344.332,331.939 343.729 C 332.649 343.126,333.491 342.633,333.810 342.633 C 334.130 342.633,335.013 341.660,335.773 340.472 C 336.534 339.283,337.324 338.310,337.529 338.310 C 337.734 338.310,338.010 337.881,338.142 337.357 C 338.273 336.833,338.733 336.085,339.164 335.695 C 339.595 335.305,340.199 334.382,340.508 333.644 C 340.816 332.905,341.509 331.861,342.047 331.323 C 342.585 330.785,343.026 330.040,343.026 329.667 C 343.026 329.295,343.463 328.345,343.998 327.557 C 344.817 326.350,345.030 325.397,345.348 321.510 C 345.626 318.108,345.964 316.380,346.634 314.931 L 347.544 312.967 347.544 191.159 L 347.544 69.352 346.635 67.387 C 345.971 65.953,345.626 64.210,345.356 60.933 C 345.129 58.172,344.779 56.205,344.448 55.825 C 344.151 55.485,343.670 54.499,343.379 53.635 C 343.088 52.770,342.375 51.500,341.794 50.812 C 341.213 50.124,340.609 49.151,340.453 48.651 C 340.297 48.150,339.662 47.160,339.043 46.450 C 338.424 45.740,337.917 44.895,337.917 44.571 C 337.917 44.248,337.660 43.884,337.344 43.763 C 337.029 43.642,336.305 42.748,335.735 41.775 C 335.099 40.689,334.218 39.806,333.452 39.486 C 332.765 39.199,331.885 38.613,331.496 38.182 C 331.107 37.752,330.270 37.185,329.638 36.923 C 329.005 36.661,328.487 36.295,328.487 36.110 C 328.487 35.924,327.736 35.395,326.817 34.934 C 325.899 34.473,324.771 33.752,324.312 33.332 C 323.853 32.911,322.561 32.326,321.441 32.031 C 320.322 31.735,319.136 31.270,318.807 30.997 C 318.477 30.723,316.233 30.283,313.819 30.018 C 311.129 29.723,308.746 29.223,307.662 28.726 L 305.894 27.915 184.086 27.915 L 62.279 27.915 60.511 28.726 M193.517 40.845 C 198.643 41.077,201.076 41.352,202.358 41.844 C 203.330 42.217,206.358 42.754,209.086 43.036 C 212.474 43.386,214.542 43.801,215.611 44.346 C 216.471 44.785,218.129 45.262,219.295 45.405 C 220.461 45.548,222.337 46.091,223.466 46.611 C 224.594 47.131,226.362 47.663,227.395 47.793 C 228.428 47.924,229.986 48.436,230.857 48.932 C 231.728 49.428,233.142 49.957,234.000 50.107 C 234.858 50.257,236.179 50.784,236.935 51.277 C 237.692 51.770,239.018 52.294,239.882 52.440 C 240.747 52.586,242.073 53.105,242.829 53.594 C 243.585 54.083,244.735 54.666,245.384 54.888 C 246.032 55.111,247.250 55.760,248.091 56.331 C 248.931 56.901,249.845 57.367,250.123 57.367 C 250.400 57.367,251.127 57.776,251.738 58.275 C 252.349 58.774,253.582 59.395,254.478 59.654 C 255.374 59.913,256.206 60.383,256.327 60.698 C 256.448 61.014,257.190 61.540,257.975 61.868 C 258.760 62.196,259.895 62.865,260.496 63.354 C 261.525 64.191,262.811 65.027,265.189 66.406 C 265.750 66.731,266.844 67.483,267.621 68.076 C 268.397 68.670,269.198 69.155,269.399 69.155 C 269.601 69.155,270.235 69.641,270.808 70.236 C 271.382 70.830,272.438 71.786,273.155 72.361 C 273.873 72.935,275.079 73.914,275.835 74.535 C 276.591 75.155,277.867 76.148,278.669 76.740 C 280.281 77.931,291.017 88.617,293.010 91.016 C 293.704 91.851,294.886 93.330,295.638 94.303 C 296.389 95.275,297.455 96.601,298.007 97.250 C 300.367 100.024,301.070 100.900,302.556 102.920 C 303.419 104.093,304.126 105.288,304.126 105.575 C 304.126 105.861,304.568 106.480,305.108 106.950 C 305.648 107.419,306.090 107.953,306.090 108.135 C 306.090 108.318,306.709 109.367,307.466 110.466 C 308.222 111.566,308.841 112.701,308.841 112.988 C 308.841 113.276,309.192 113.757,309.621 114.058 C 310.050 114.359,310.674 115.377,311.007 116.320 C 311.340 117.264,311.870 118.321,312.186 118.670 C 312.502 119.019,312.964 119.912,313.212 120.654 C 313.461 121.397,314.067 122.547,314.558 123.210 C 315.050 123.873,315.644 125.127,315.878 125.996 C 316.112 126.865,316.636 127.878,317.043 128.246 C 317.450 128.615,317.902 129.660,318.048 130.568 C 318.193 131.477,318.729 132.933,319.240 133.804 C 319.750 134.675,320.291 136.089,320.441 136.947 C 320.591 137.805,321.111 139.126,321.597 139.882 C 322.083 140.639,322.695 142.495,322.957 144.008 C 323.220 145.520,323.699 147.050,324.022 147.406 C 324.345 147.763,324.841 149.443,325.125 151.140 C 325.409 152.836,326.002 155.020,326.443 155.992 C 326.988 157.192,327.374 159.276,327.646 162.475 C 327.872 165.148,328.334 167.871,328.712 168.762 C 330.339 172.602,330.462 205.623,328.866 210.167 C 328.425 211.421,327.901 214.501,327.653 217.289 C 327.328 220.962,326.994 222.646,326.332 223.969 C 325.845 224.941,325.318 226.798,325.160 228.094 C 325.003 229.391,324.463 231.336,323.960 232.417 C 323.457 233.497,322.925 235.265,322.778 236.346 C 322.631 237.426,322.107 238.929,321.613 239.686 C 321.118 240.442,320.593 241.768,320.446 242.633 C 320.298 243.497,319.754 244.933,319.237 245.824 C 318.720 246.716,318.175 248.201,318.027 249.126 C 317.880 250.051,317.412 251.154,316.989 251.577 C 316.565 252.000,316.044 252.990,315.831 253.777 C 315.618 254.563,315.048 255.737,314.565 256.385 C 314.082 257.033,313.477 258.175,313.220 258.922 C 312.964 259.669,312.434 260.642,312.043 261.083 C 311.652 261.525,311.123 262.619,310.869 263.515 C 310.614 264.411,310.143 265.245,309.822 265.369 C 309.501 265.492,308.953 266.306,308.604 267.177 C 308.255 268.049,307.840 268.762,307.681 268.762 C 307.523 268.762,307.056 269.425,306.643 270.236 C 306.231 271.046,305.408 272.290,304.813 273.000 C 304.219 273.710,303.733 274.480,303.733 274.712 C 303.733 274.943,303.202 275.802,302.554 276.621 C 301.906 277.439,301.375 278.246,301.375 278.413 C 301.375 278.699,301.009 279.129,298.207 282.127 C 297.572 282.806,297.053 283.503,297.053 283.676 C 297.053 283.849,296.761 284.233,296.404 284.529 C 296.047 284.825,295.038 286.041,294.162 287.229 C 292.475 289.518,281.831 300.324,279.175 302.445 C 278.310 303.135,275.835 305.169,273.674 306.965 C 271.513 308.760,268.595 310.972,267.191 311.880 C 264.642 313.526,263.503 314.294,260.904 316.116 C 260.147 316.646,258.777 317.430,257.859 317.858 C 256.940 318.286,256.189 318.805,256.189 319.011 C 256.189 319.216,255.349 319.694,254.322 320.072 C 253.296 320.450,252.095 321.080,251.653 321.472 C 251.212 321.864,250.239 322.394,249.492 322.651 C 248.745 322.907,247.603 323.506,246.955 323.982 C 246.306 324.458,245.272 324.967,244.656 325.113 C 244.040 325.259,243.051 325.737,242.459 326.175 C 241.867 326.613,240.620 327.142,239.689 327.351 C 238.758 327.561,237.531 328.063,236.963 328.468 C 236.394 328.872,234.901 329.472,233.645 329.800 C 232.389 330.128,231.048 330.679,230.666 331.025 C 230.284 331.371,228.978 331.816,227.764 332.013 C 226.549 332.211,224.713 332.746,223.682 333.202 C 222.651 333.658,220.544 334.192,218.999 334.388 C 217.455 334.584,215.465 335.123,214.577 335.586 C 213.372 336.214,211.795 336.516,208.348 336.778 C 205.384 337.004,202.819 337.447,201.179 338.015 C 197.233 339.382,165.933 339.390,161.776 338.025 C 160.160 337.494,157.250 336.999,154.375 336.766 C 150.866 336.482,149.293 336.180,148.313 335.602 C 147.584 335.172,145.686 334.639,144.093 334.418 C 142.500 334.196,140.238 333.569,139.066 333.023 C 137.894 332.478,136.357 332.030,135.651 332.027 C 134.944 332.025,133.372 331.493,132.157 330.845 C 130.942 330.196,129.575 329.663,129.120 329.659 C 128.664 329.656,127.407 329.128,126.326 328.487 C 125.246 327.846,123.899 327.319,123.334 327.315 C 122.769 327.311,121.852 326.951,121.297 326.514 C 120.741 326.077,119.533 325.454,118.611 325.129 C 117.689 324.803,116.652 324.281,116.306 323.969 C 115.961 323.656,114.896 323.124,113.941 322.787 C 112.985 322.450,111.844 321.839,111.406 321.430 C 110.968 321.021,110.079 320.559,109.430 320.402 C 108.782 320.246,107.671 319.614,106.961 318.998 C 106.251 318.382,105.479 317.878,105.245 317.878 C 104.767 317.878,99.539 314.476,99.342 314.036 C 99.271 313.880,98.595 313.439,97.839 313.056 C 96.109 312.180,94.072 310.771,92.483 309.351 C 91.806 308.746,90.698 307.809,90.020 307.269 C 89.342 306.729,88.251 305.845,87.595 305.305 C 86.938 304.764,85.529 303.615,84.464 302.750 C 80.543 299.570,70.049 288.863,67.955 285.908 C 67.210 284.857,66.071 283.397,65.422 282.664 C 62.623 279.500,59.725 275.646,59.725 275.086 C 59.725 274.865,59.194 274.079,58.546 273.341 C 57.898 272.603,57.367 271.885,57.367 271.746 C 57.367 271.607,56.749 270.594,55.992 269.495 C 55.236 268.395,54.617 267.281,54.617 267.019 C 54.617 266.756,54.190 266.140,53.668 265.650 C 53.146 265.160,52.604 264.289,52.464 263.715 C 52.324 263.141,51.791 262.053,51.279 261.297 C 50.767 260.540,50.052 259.170,49.689 258.251 C 49.327 257.333,48.890 256.582,48.717 256.582 C 48.545 256.582,48.131 255.781,47.798 254.803 C 47.465 253.825,46.834 252.569,46.396 252.013 C 45.958 251.456,45.487 250.356,45.350 249.567 C 45.212 248.779,44.700 247.426,44.213 246.562 C 43.726 245.697,43.204 244.283,43.052 243.418 C 42.900 242.554,42.372 241.226,41.877 240.467 C 41.383 239.709,40.771 237.898,40.517 236.444 C 40.264 234.990,39.720 233.224,39.308 232.519 C 38.896 231.814,38.433 230.088,38.280 228.684 C 38.126 227.279,37.603 225.246,37.116 224.165 C 36.466 222.723,36.122 220.876,35.821 217.218 C 35.555 213.973,35.176 211.780,34.736 210.931 C 32.907 207.398,32.927 172.138,34.760 168.592 C 35.157 167.825,35.559 165.505,35.807 162.553 C 36.098 159.087,36.465 157.162,37.133 155.599 C 37.640 154.411,38.171 152.289,38.311 150.884 C 38.452 149.479,38.892 147.800,39.290 147.151 C 39.688 146.503,40.218 144.823,40.468 143.418 C 40.717 142.014,41.336 140.152,41.841 139.281 C 42.347 138.410,42.881 136.995,43.028 136.137 C 43.175 135.279,43.626 134.107,44.030 133.533 C 44.434 132.958,44.975 131.632,45.232 130.586 C 45.489 129.540,46.032 128.205,46.440 127.621 C 46.847 127.036,47.377 125.975,47.619 125.263 C 47.860 124.551,48.390 123.490,48.797 122.905 C 49.205 122.321,49.732 121.260,49.971 120.548 C 50.209 119.836,50.711 118.900,51.087 118.468 C 51.462 118.035,51.977 117.033,52.231 116.240 C 52.485 115.447,52.962 114.574,53.290 114.301 C 53.619 114.028,54.253 113.086,54.699 112.207 C 55.145 111.328,55.928 110.109,56.439 109.498 C 56.950 108.887,57.367 108.204,57.367 107.979 C 57.367 107.753,57.898 106.965,58.546 106.227 C 59.194 105.488,59.725 104.694,59.725 104.461 C 59.725 104.020,61.108 102.177,62.967 100.141 C 63.561 99.490,64.047 98.860,64.047 98.740 C 64.047 98.621,64.622 97.854,65.324 97.035 C 66.027 96.217,67.220 94.715,67.976 93.697 C 68.733 92.679,69.794 91.362,70.334 90.769 C 70.874 90.177,71.600 89.359,71.948 88.952 C 72.295 88.545,72.914 87.921,73.323 87.565 C 73.732 87.209,75.896 85.087,78.131 82.850 C 82.900 78.076,83.547 77.498,88.212 73.858 C 90.157 72.341,92.279 70.654,92.927 70.110 C 95.536 67.921,96.892 66.917,97.584 66.665 C 97.984 66.519,98.779 66.037,99.352 65.594 C 101.117 64.229,103.072 62.938,104.715 62.054 C 105.580 61.589,106.640 60.896,107.073 60.515 C 107.505 60.134,108.519 59.610,109.327 59.352 C 110.134 59.093,110.902 58.708,111.033 58.497 C 111.164 58.285,112.265 57.672,113.481 57.134 C 114.696 56.597,115.962 55.918,116.293 55.627 C 116.625 55.336,117.452 54.979,118.132 54.835 C 118.812 54.690,119.667 54.243,120.031 53.840 C 120.395 53.437,121.607 52.893,122.724 52.630 C 123.841 52.368,125.462 51.752,126.326 51.262 C 127.191 50.773,128.517 50.249,129.273 50.098 C 130.029 49.948,131.356 49.425,132.220 48.937 C 133.084 48.448,134.637 47.938,135.670 47.802 C 136.703 47.667,138.471 47.131,139.599 46.611 C 140.727 46.091,142.612 45.547,143.787 45.403 C 144.962 45.258,146.818 44.726,147.912 44.221 C 149.381 43.542,150.957 43.231,153.936 43.033 C 156.431 42.867,158.829 42.453,160.222 41.945 C 163.678 40.688,178.912 40.185,193.517 40.845 M59.921 161.325 C 56.649 162.978,56.619 163.006,54.946 166.012 L 53.635 168.369 53.635 185.265 L 53.635 202.161 55.017 204.912 C 56.288 207.442,56.602 207.772,58.946 209.037 L 61.493 210.413 182.771 210.413 L 304.049 210.413 306.623 209.038 C 308.862 207.841,309.390 207.331,310.689 205.108 L 312.181 202.554 312.181 185.626 L 312.181 168.698 311.044 166.569 C 309.562 163.792,308.596 162.742,306.680 161.825 C 305.815 161.412,304.666 160.817,304.126 160.503 C 303.273 160.008,287.276 159.933,182.908 159.935 L 62.672 159.936 59.921 161.325 " stroke="none" fill="#fbfbfb" fill-rule="evenodd"></path><path id="path2" d="M59.523 23.972 C 56.588 24.180,55.140 24.481,53.825 25.156 C 52.603 25.783,50.993 26.151,48.569 26.355 C 45.928 26.577,44.826 26.848,44.051 27.466 C 43.487 27.916,42.469 28.534,41.789 28.840 C 41.108 29.146,40.401 29.659,40.217 29.980 C 40.033 30.301,39.263 30.849,38.507 31.199 C 36.883 31.948,34.812 33.358,33.285 34.754 C 32.681 35.305,31.951 35.756,31.660 35.756 C 30.850 35.756,26.326 41.246,26.326 42.229 C 26.326 42.478,25.804 43.182,25.166 43.793 C 24.529 44.404,23.899 45.397,23.766 45.999 C 23.634 46.601,23.095 47.376,22.568 47.721 C 22.042 48.066,21.611 48.596,21.611 48.898 C 21.611 49.201,21.148 49.999,20.581 50.672 C 19.734 51.679,19.489 52.503,19.198 55.319 C 18.999 57.252,18.504 59.450,18.062 60.368 C 16.549 63.507,16.527 65.312,16.518 190.766 C 16.509 316.675,16.535 318.943,18.062 321.872 C 18.579 322.863,18.948 324.571,19.115 326.749 C 19.336 329.628,19.531 330.300,20.492 331.509 C 21.107 332.284,21.611 333.154,21.611 333.444 C 21.611 333.733,22.042 334.252,22.568 334.597 C 23.095 334.942,23.636 335.724,23.769 336.334 C 23.903 336.944,24.376 337.771,24.819 338.171 C 25.261 338.572,25.962 339.563,26.376 340.373 C 26.790 341.184,27.299 341.847,27.508 341.847 C 27.716 341.847,28.131 342.430,28.429 343.142 C 29.009 344.531,31.149 346.562,32.031 346.562 C 32.327 346.562,32.799 346.889,33.082 347.289 C 33.364 347.689,34.126 348.290,34.775 348.624 C 35.424 348.958,36.282 349.594,36.682 350.036 C 37.082 350.478,37.928 350.953,38.561 351.092 C 39.194 351.232,39.992 351.772,40.334 352.293 C 40.675 352.815,41.169 353.242,41.432 353.242 C 41.694 353.242,42.729 353.785,43.733 354.450 C 45.254 355.458,46.130 355.713,49.006 355.985 C 51.097 356.183,53.307 356.675,54.617 357.233 L 56.778 358.153 184.086 358.153 L 311.395 358.153 313.556 357.233 C 314.866 356.675,317.076 356.183,319.167 355.985 C 322.043 355.713,322.919 355.458,324.440 354.450 C 325.443 353.785,326.493 353.242,326.773 353.242 C 327.052 353.242,327.466 352.895,327.693 352.472 C 327.919 352.048,328.854 351.341,329.769 350.899 C 331.602 350.014,333.756 348.567,334.971 347.402 C 335.403 346.987,336.143 346.532,336.616 346.390 C 337.553 346.108,339.882 343.659,339.882 342.955 C 339.882 342.715,340.250 342.147,340.699 341.692 C 341.823 340.554,343.266 338.420,344.183 336.542 C 344.605 335.678,345.312 334.748,345.756 334.476 C 346.199 334.204,346.562 333.742,346.562 333.450 C 346.562 333.157,347.065 332.284,347.681 331.510 C 348.647 330.294,348.832 329.647,349.035 326.766 C 349.193 324.531,349.543 322.895,350.097 321.810 C 351.638 318.789,351.664 316.648,351.664 191.159 C 351.664 66.606,351.628 63.512,350.161 60.632 C 349.716 59.758,349.237 57.615,349.009 55.478 C 348.718 52.748,348.420 51.601,347.833 50.959 C 347.401 50.486,346.756 49.524,346.401 48.821 C 346.046 48.119,345.592 47.544,345.391 47.544 C 345.191 47.544,344.694 46.793,344.287 45.874 C 343.879 44.956,343.242 43.953,342.870 43.646 C 342.498 43.339,341.947 42.497,341.645 41.774 C 341.343 41.052,340.823 40.356,340.489 40.227 C 340.155 40.099,339.882 39.749,339.882 39.448 C 339.882 38.716,337.179 35.756,336.510 35.756 C 336.218 35.756,335.437 35.226,334.774 34.578 C 334.111 33.929,333.336 33.399,333.053 33.399 C 332.770 33.399,332.201 33.022,331.790 32.562 C 331.378 32.102,330.290 31.401,329.371 31.004 C 328.453 30.608,327.701 30.091,327.701 29.856 C 327.701 29.622,327.127 29.172,326.424 28.856 C 325.722 28.541,324.686 27.916,324.122 27.466 C 323.347 26.848,322.245 26.577,319.604 26.355 C 317.211 26.153,315.567 25.782,314.388 25.176 C 313.054 24.492,311.590 24.214,307.904 23.946 C 302.293 23.538,65.286 23.562,59.523 23.972 M311.591 25.476 C 312.866 26.017,315.203 26.543,317.289 26.757 C 321.009 27.140,325.576 28.951,327.118 30.656 C 327.506 31.084,328.037 31.434,328.298 31.434 C 328.559 31.434,329.398 31.920,330.164 32.515 C 330.929 33.109,332.133 33.949,332.838 34.381 C 336.119 36.392,336.726 36.816,337.629 37.728 C 338.160 38.264,338.888 39.278,339.248 39.980 C 339.608 40.683,340.081 41.257,340.299 41.257 C 340.517 41.257,341.046 42.009,341.474 42.927 C 342.305 44.710,343.702 46.854,344.866 48.130 C 346.684 50.122,348.195 53.962,348.563 57.524 C 348.763 59.458,349.323 62.115,349.807 63.428 L 350.688 65.815 350.688 191.159 L 350.688 316.503 349.823 318.861 C 349.348 320.157,348.782 322.964,348.567 325.097 C 348.251 328.213,347.977 329.260,347.172 330.423 C 346.620 331.218,346.169 332.082,346.169 332.343 C 346.169 332.603,345.639 333.372,344.990 334.050 C 344.342 334.728,343.811 335.495,343.811 335.754 C 343.811 336.012,343.435 336.561,342.975 336.972 C 342.514 337.384,341.813 338.472,341.417 339.391 C 341.020 340.309,340.517 341.061,340.299 341.061 C 340.081 341.061,339.626 341.595,339.289 342.247 C 338.611 343.558,335.998 346.142,335.334 346.158 C 335.101 346.164,334.496 346.611,333.988 347.151 C 333.481 347.692,332.848 348.134,332.582 348.134 C 332.316 348.134,331.357 348.752,330.452 349.509 C 329.547 350.265,328.585 350.884,328.314 350.884 C 328.044 350.884,327.521 351.218,327.151 351.627 C 325.432 353.526,319.546 355.599,315.872 355.599 C 315.044 355.599,312.990 356.085,311.309 356.680 L 308.251 357.760 184.086 357.760 L 59.921 357.760 56.826 356.680 C 55.124 356.085,53.079 355.599,52.281 355.599 C 48.512 355.599,43.312 353.769,41.036 351.642 C 40.589 351.225,40.032 350.884,39.796 350.884 C 39.560 350.884,38.626 350.265,37.721 349.509 C 36.816 348.752,35.857 348.134,35.591 348.134 C 35.325 348.134,34.692 347.692,34.185 347.151 C 33.677 346.611,33.055 346.169,32.801 346.169 C 32.144 346.169,29.581 343.595,28.871 342.221 C 28.541 341.583,28.089 341.061,27.868 341.061 C 27.646 341.061,27.224 340.486,26.930 339.784 C 26.635 339.082,25.937 337.976,25.378 337.328 C 24.820 336.680,24.362 335.955,24.362 335.716 C 24.362 335.478,23.831 334.728,23.183 334.050 C 22.534 333.372,22.004 332.634,22.004 332.412 C 22.004 332.189,21.553 331.325,21.001 330.492 C 20.203 329.285,19.921 328.188,19.616 325.097 C 19.375 322.661,18.908 320.487,18.359 319.253 L 17.485 317.289 17.485 191.159 L 17.485 65.029 18.358 63.140 C 18.892 61.982,19.373 59.851,19.600 57.639 C 19.967 54.051,22.205 48.330,23.241 48.330 C 23.447 48.330,23.862 47.741,24.162 47.022 C 24.463 46.302,25.009 45.465,25.375 45.161 C 25.741 44.857,26.364 43.854,26.759 42.933 C 27.154 42.011,27.622 41.257,27.799 41.257 C 27.976 41.257,28.456 40.683,28.865 39.980 C 29.964 38.092,31.061 36.991,32.711 36.123 C 33.522 35.696,34.185 35.196,34.185 35.010 C 34.185 34.825,34.721 34.451,35.376 34.180 C 36.031 33.908,37.205 33.179,37.984 32.560 C 38.763 31.941,39.632 31.434,39.914 31.434 C 40.196 31.434,40.658 31.115,40.940 30.726 C 42.120 29.099,46.977 27.158,50.862 26.761 C 52.898 26.552,54.920 26.191,55.356 25.958 C 58.345 24.359,54.159 24.406,184.872 24.484 L 309.430 24.558 311.591 25.476 M60.707 27.497 C 59.843 27.657,58.478 28.078,57.674 28.432 C 56.870 28.787,54.394 29.267,52.173 29.498 C 49.495 29.776,47.802 30.153,47.151 30.614 C 46.611 30.997,45.520 31.524,44.727 31.785 C 43.934 32.046,43.062 32.529,42.789 32.858 C 42.516 33.187,41.662 33.778,40.891 34.172 C 40.120 34.565,39.152 35.259,38.741 35.715 C 38.329 36.170,37.771 36.542,37.501 36.542 C 37.231 36.542,36.282 37.150,35.392 37.894 C 34.502 38.637,33.443 39.350,33.039 39.479 C 32.635 39.607,32.095 40.219,31.838 40.839 C 31.581 41.458,30.943 42.368,30.420 42.859 C 29.897 43.350,29.470 43.980,29.470 44.259 C 29.470 44.538,28.939 45.371,28.291 46.109 C 27.642 46.847,27.112 47.643,27.112 47.877 C 27.112 48.111,26.605 48.884,25.986 49.593 C 25.367 50.303,24.728 51.326,24.566 51.866 C 24.404 52.407,23.937 53.215,23.528 53.663 C 22.976 54.267,22.686 55.482,22.402 58.378 C 22.181 60.633,21.606 63.440,21.038 65.029 L 20.056 67.780 20.057 190.766 C 20.058 263.144,20.205 314.318,20.415 315.128 C 20.611 315.884,21.055 317.275,21.401 318.218 C 21.748 319.161,22.196 321.664,22.398 323.781 C 22.692 326.867,22.961 327.919,23.759 329.095 C 24.307 329.902,24.754 330.724,24.754 330.923 C 24.754 331.121,25.267 331.936,25.893 332.734 C 26.520 333.532,27.145 334.566,27.284 335.032 C 27.422 335.499,27.785 335.976,28.092 336.094 C 28.398 336.211,29.017 336.979,29.468 337.800 C 31.412 341.342,32.227 342.287,34.750 343.926 C 35.818 344.619,37.073 345.452,37.540 345.776 C 40.754 348.006,43.721 349.836,46.169 351.100 C 48.052 352.071,49.367 352.407,52.704 352.766 C 55.001 353.014,57.793 353.576,58.907 354.015 C 60.928 354.812,61.211 354.813,183.973 354.813 L 307.014 354.813 309.794 353.865 C 311.348 353.334,314.122 352.791,316.084 352.633 C 319.449 352.363,324.394 350.531,325.176 349.267 C 325.299 349.068,326.271 348.463,327.336 347.923 C 328.402 347.383,329.273 346.780,329.273 346.582 C 329.273 346.384,329.671 346.098,330.157 345.946 C 330.643 345.794,331.581 345.199,332.241 344.624 C 332.901 344.048,334.007 343.343,334.697 343.057 C 335.388 342.771,335.953 342.354,335.953 342.131 C 335.953 341.907,336.439 341.096,337.033 340.328 C 338.099 338.952,338.928 337.714,340.472 335.195 C 340.904 334.490,341.737 333.296,342.322 332.541 C 342.908 331.786,343.503 330.786,343.645 330.319 C 343.786 329.852,344.233 329.106,344.639 328.662 C 345.184 328.065,345.484 326.798,345.792 323.797 C 346.021 321.565,346.478 319.010,346.808 318.121 C 347.137 317.231,347.574 315.796,347.777 314.931 C 348.006 313.960,348.107 266.205,348.042 189.980 L 347.937 66.601 347.076 64.828 C 346.495 63.632,346.072 61.650,345.776 58.738 C 345.449 55.528,345.151 54.220,344.612 53.635 C 344.213 53.203,343.603 52.230,343.257 51.473 C 342.910 50.717,342.191 49.479,341.659 48.723 C 341.127 47.967,340.328 46.817,339.882 46.169 C 339.437 45.521,338.640 44.371,338.111 43.615 C 337.582 42.859,336.852 41.675,336.489 40.985 C 336.125 40.294,335.355 39.533,334.776 39.294 C 334.198 39.054,333.154 38.337,332.457 37.700 C 331.760 37.063,331.002 36.542,330.774 36.542 C 330.546 36.542,329.787 36.056,329.088 35.462 C 327.529 34.136,324.818 32.462,322.593 31.450 C 322.053 31.204,321.169 30.759,320.629 30.462 C 320.088 30.165,317.895 29.727,315.755 29.490 C 313.281 29.217,311.205 28.741,310.057 28.184 L 308.251 27.308 185.265 27.257 C 117.623 27.229,61.572 27.337,60.707 27.497 M307.662 28.726 C 308.746 29.223,311.129 29.723,313.819 30.018 C 316.233 30.283,318.477 30.723,318.807 30.997 C 319.136 31.270,320.322 31.735,321.441 32.031 C 322.561 32.326,323.853 32.911,324.312 33.332 C 324.771 33.752,325.899 34.473,326.817 34.934 C 327.736 35.395,328.487 35.924,328.487 36.110 C 328.487 36.295,329.005 36.661,329.638 36.923 C 330.270 37.185,331.107 37.752,331.496 38.182 C 331.885 38.613,332.765 39.199,333.452 39.486 C 334.218 39.806,335.099 40.689,335.735 41.775 C 336.305 42.748,337.029 43.642,337.344 43.763 C 337.660 43.884,337.917 44.248,337.917 44.571 C 337.917 44.895,338.424 45.740,339.043 46.450 C 339.662 47.160,340.297 48.150,340.453 48.651 C 340.609 49.151,341.213 50.124,341.794 50.812 C 342.375 51.500,343.088 52.770,343.379 53.635 C 343.670 54.499,344.151 55.485,344.448 55.825 C 344.779 56.205,345.129 58.172,345.356 60.933 C 345.626 64.210,345.971 65.953,346.635 67.387 L 347.544 69.352 347.544 191.159 L 347.544 312.967 346.634 314.931 C 345.964 316.380,345.626 318.108,345.348 321.510 C 345.030 325.397,344.817 326.350,343.998 327.557 C 343.463 328.345,343.026 329.295,343.026 329.667 C 343.026 330.040,342.585 330.785,342.047 331.323 C 341.509 331.861,340.816 332.905,340.508 333.644 C 340.199 334.382,339.595 335.305,339.164 335.695 C 338.733 336.085,338.273 336.833,338.142 337.357 C 338.010 337.881,337.734 338.310,337.529 338.310 C 337.324 338.310,336.534 339.283,335.773 340.472 C 335.013 341.660,334.130 342.633,333.810 342.633 C 333.491 342.633,332.649 343.126,331.939 343.729 C 331.229 344.332,330.162 345.035,329.568 345.292 C 328.973 345.549,328.487 345.937,328.487 346.155 C 328.487 346.373,327.824 346.828,327.014 347.167 C 326.203 347.505,325.098 348.200,324.558 348.710 C 324.018 349.220,322.780 349.848,321.807 350.105 C 320.835 350.363,319.543 350.830,318.937 351.143 C 318.331 351.456,315.655 351.954,312.991 352.249 C 309.719 352.612,307.625 353.052,306.540 353.606 L 304.933 354.425 183.606 354.325 C 67.165 354.228,62.228 354.195,61.006 353.510 C 60.216 353.066,57.946 352.587,55.018 352.245 C 52.424 351.942,49.796 351.432,49.179 351.113 C 48.561 350.794,47.189 350.314,46.131 350.048 C 45.065 349.779,43.904 349.180,43.531 348.705 C 43.159 348.233,42.296 347.615,41.613 347.332 C 40.929 347.049,39.959 346.406,39.456 345.904 C 38.954 345.401,38.337 344.990,38.085 344.990 C 37.834 344.990,37.024 344.460,36.286 343.811 C 35.547 343.163,34.682 342.633,34.363 342.633 C 34.043 342.633,33.160 341.660,32.400 340.472 C 31.639 339.283,30.858 338.310,30.663 338.310 C 30.468 338.310,30.184 337.913,30.032 337.426 C 29.881 336.940,29.250 335.961,28.631 335.252 C 28.012 334.542,27.505 333.713,27.505 333.409 C 27.505 333.106,26.974 332.277,26.326 331.567 C 25.678 330.858,25.147 330.081,25.147 329.841 C 25.147 329.602,24.703 328.536,24.160 327.473 C 23.395 325.976,23.091 324.567,22.810 321.218 C 22.550 318.115,22.191 316.342,21.538 314.931 L 20.629 312.967 20.629 191.159 L 20.629 69.352 21.516 67.427 C 22.143 66.069,22.518 64.199,22.793 61.066 C 23.062 57.998,23.412 56.227,23.928 55.328 C 24.338 54.613,24.804 53.585,24.964 53.045 C 25.123 52.505,25.760 51.482,26.379 50.772 C 26.998 50.062,27.505 49.229,27.505 48.919 C 27.505 48.610,27.998 47.777,28.601 47.067 C 29.204 46.357,29.908 45.290,30.164 44.695 C 30.421 44.101,30.795 43.615,30.995 43.615 C 31.196 43.615,31.826 42.819,32.396 41.846 C 32.991 40.831,34.054 39.736,34.889 39.276 C 36.742 38.258,38.873 36.778,39.882 35.810 C 40.314 35.396,41.050 34.942,41.518 34.802 C 41.985 34.661,43.026 34.023,43.831 33.383 C 44.636 32.744,45.580 32.216,45.928 32.211 C 46.277 32.207,47.358 31.828,48.330 31.370 C 49.422 30.856,51.752 30.346,54.420 30.037 C 56.986 29.740,59.461 29.207,60.511 28.726 L 62.279 27.915 184.086 27.915 L 305.894 27.915 307.662 28.726 M168.369 40.866 C 163.866 41.064,161.944 41.319,160.222 41.945 C 158.829 42.453,156.431 42.867,153.936 43.033 C 150.957 43.231,149.381 43.542,147.912 44.221 C 146.818 44.726,144.962 45.258,143.787 45.403 C 142.612 45.547,140.727 46.091,139.599 46.611 C 138.471 47.131,136.703 47.667,135.670 47.802 C 134.637 47.938,133.084 48.448,132.220 48.937 C 131.356 49.425,130.029 49.948,129.273 50.098 C 128.517 50.249,127.191 50.773,126.326 51.262 C 125.462 51.752,123.841 52.368,122.724 52.630 C 121.607 52.893,120.395 53.437,120.031 53.840 C 119.667 54.243,118.812 54.690,118.132 54.835 C 117.452 54.979,116.625 55.336,116.293 55.627 C 115.962 55.918,114.696 56.597,113.481 57.134 C 112.265 57.672,111.164 58.285,111.033 58.497 C 110.902 58.708,110.134 59.093,109.327 59.352 C 108.519 59.610,107.505 60.134,107.073 60.515 C 106.640 60.896,105.580 61.589,104.715 62.054 C 103.072 62.938,101.117 64.229,99.352 65.594 C 98.779 66.037,97.984 66.519,97.584 66.665 C 96.892 66.917,95.536 67.921,92.927 70.110 C 92.279 70.654,90.157 72.341,88.212 73.858 C 83.547 77.498,82.900 78.076,78.131 82.850 C 75.896 85.087,73.732 87.209,73.323 87.565 C 72.914 87.921,72.295 88.545,71.948 88.952 C 71.600 89.359,70.874 90.177,70.334 90.769 C 69.794 91.362,68.733 92.679,67.976 93.697 C 67.220 94.715,66.027 96.217,65.324 97.035 C 64.622 97.854,64.047 98.621,64.047 98.740 C 64.047 98.860,63.561 99.490,62.967 100.141 C 61.108 102.177,59.725 104.020,59.725 104.461 C 59.725 104.694,59.194 105.488,58.546 106.227 C 57.898 106.965,57.367 107.753,57.367 107.979 C 57.367 108.204,56.950 108.887,56.439 109.498 C 55.928 110.109,55.145 111.328,54.699 112.207 C 54.253 113.086,53.619 114.028,53.290 114.301 C 52.962 114.574,52.485 115.447,52.231 116.240 C 51.977 117.033,51.462 118.035,51.087 118.468 C 50.711 118.900,50.209 119.836,49.971 120.548 C 49.732 121.260,49.205 122.321,48.797 122.905 C 48.390 123.490,47.860 124.551,47.619 125.263 C 47.377 125.975,46.847 127.036,46.440 127.621 C 46.032 128.205,45.489 129.540,45.232 130.586 C 44.975 131.632,44.434 132.958,44.030 133.533 C 43.626 134.107,43.175 135.279,43.028 136.137 C 42.881 136.995,42.347 138.410,41.841 139.281 C 41.336 140.152,40.717 142.014,40.468 143.418 C 40.218 144.823,39.688 146.503,39.290 147.151 C 38.892 147.800,38.452 149.479,38.311 150.884 C 38.171 152.289,37.640 154.411,37.133 155.599 C 36.465 157.162,36.098 159.087,35.807 162.553 C 35.559 165.505,35.157 167.825,34.760 168.592 C 32.927 172.138,32.907 207.398,34.736 210.931 C 35.176 211.780,35.555 213.973,35.821 217.218 C 36.122 220.876,36.466 222.723,37.116 224.165 C 37.603 225.246,38.126 227.279,38.280 228.684 C 38.433 230.088,38.896 231.814,39.308 232.519 C 39.720 233.224,40.264 234.990,40.517 236.444 C 40.771 237.898,41.383 239.709,41.877 240.467 C 42.372 241.226,42.900 242.554,43.052 243.418 C 43.204 244.283,43.726 245.697,44.213 246.562 C 44.700 247.426,45.212 248.779,45.350 249.567 C 45.487 250.356,45.958 251.456,46.396 252.013 C 46.834 252.569,47.465 253.825,47.798 254.803 C 48.131 255.781,48.545 256.582,48.717 256.582 C 48.890 256.582,49.327 257.333,49.689 258.251 C 50.052 259.170,50.767 260.540,51.279 261.297 C 51.791 262.053,52.324 263.141,52.464 263.715 C 52.604 264.289,53.146 265.160,53.668 265.650 C 54.190 266.140,54.617 266.756,54.617 267.019 C 54.617 267.281,55.236 268.395,55.992 269.495 C 56.749 270.594,57.367 271.607,57.367 271.746 C 57.367 271.885,57.898 272.603,58.546 273.341 C 59.194 274.079,59.725 274.865,59.725 275.086 C 59.725 275.646,62.623 279.500,65.422 282.664 C 66.071 283.397,67.210 284.857,67.955 285.908 C 70.049 288.863,80.543 299.570,84.464 302.750 C 85.529 303.615,86.938 304.764,87.595 305.305 C 88.251 305.845,89.342 306.729,90.020 307.269 C 90.698 307.809,91.806 308.746,92.483 309.351 C 94.072 310.771,96.109 312.180,97.839 313.056 C 98.595 313.439,99.271 313.880,99.342 314.036 C 99.539 314.476,104.767 317.878,105.245 317.878 C 105.479 317.878,106.251 318.382,106.961 318.998 C 107.671 319.614,108.782 320.246,109.430 320.402 C 110.079 320.559,110.968 321.021,111.406 321.430 C 111.844 321.839,112.985 322.450,113.941 322.787 C 114.896 323.124,115.961 323.656,116.306 323.969 C 116.652 324.281,117.689 324.803,118.611 325.129 C 119.533 325.454,120.741 326.077,121.297 326.514 C 121.852 326.951,122.769 327.311,123.334 327.315 C 123.899 327.319,125.246 327.846,126.326 328.487 C 127.407 329.128,128.664 329.656,129.120 329.659 C 129.575 329.663,130.942 330.196,132.157 330.845 C 133.372 331.493,134.944 332.025,135.651 332.027 C 136.357 332.030,137.894 332.478,139.066 333.023 C 140.238 333.569,142.500 334.196,144.093 334.418 C 145.686 334.639,147.584 335.172,148.313 335.602 C 149.293 336.180,150.866 336.482,154.375 336.766 C 157.250 336.999,160.160 337.494,161.776 338.025 C 165.933 339.390,197.233 339.382,201.179 338.015 C 202.819 337.447,205.384 337.004,208.348 336.778 C 211.795 336.516,213.372 336.214,214.577 335.586 C 215.465 335.123,217.455 334.584,218.999 334.388 C 220.544 334.192,222.651 333.658,223.682 333.202 C 224.713 332.746,226.549 332.211,227.764 332.013 C 228.978 331.816,230.284 331.371,230.666 331.025 C 231.048 330.679,232.389 330.128,233.645 329.800 C 234.901 329.472,236.394 328.872,236.963 328.468 C 237.531 328.063,238.758 327.561,239.689 327.351 C 240.620 327.142,241.867 326.613,242.459 326.175 C 243.051 325.737,244.040 325.259,244.656 325.113 C 245.272 324.967,246.306 324.458,246.955 323.982 C 247.603 323.506,248.745 322.907,249.492 322.651 C 250.239 322.394,251.212 321.864,251.653 321.472 C 252.095 321.080,253.296 320.450,254.322 320.072 C 255.349 319.694,256.189 319.216,256.189 319.011 C 256.189 318.805,256.940 318.286,257.859 317.858 C 258.777 317.430,260.147 316.646,260.904 316.116 C 263.503 314.294,264.642 313.526,267.191 311.880 C 268.595 310.972,271.513 308.760,273.674 306.965 C 275.835 305.169,278.310 303.135,279.175 302.445 C 281.831 300.324,292.475 289.518,294.162 287.229 C 295.038 286.041,296.047 284.825,296.404 284.529 C 296.761 284.233,297.053 283.849,297.053 283.676 C 297.053 283.503,297.572 282.806,298.207 282.127 C 301.009 279.129,301.375 278.699,301.375 278.413 C 301.375 278.246,301.906 277.439,302.554 276.621 C 303.202 275.802,303.733 274.943,303.733 274.712 C 303.733 274.480,304.219 273.710,304.813 273.000 C 305.408 272.290,306.231 271.046,306.643 270.236 C 307.056 269.425,307.523 268.762,307.681 268.762 C 307.840 268.762,308.255 268.049,308.604 267.177 C 308.953 266.306,309.501 265.492,309.822 265.369 C 310.143 265.245,310.614 264.411,310.869 263.515 C 311.123 262.619,311.652 261.525,312.043 261.083 C 312.434 260.642,312.964 259.669,313.220 258.922 C 313.477 258.175,314.082 257.033,314.565 256.385 C 315.048 255.737,315.618 254.563,315.831 253.777 C 316.044 252.990,316.565 252.000,316.989 251.577 C 317.412 251.154,317.880 250.051,318.027 249.126 C 318.175 248.201,318.720 246.716,319.237 245.824 C 319.754 244.933,320.298 243.497,320.446 242.633 C 320.593 241.768,321.118 240.442,321.613 239.686 C 322.107 238.929,322.631 237.426,322.778 236.346 C 322.925 235.265,323.457 233.497,323.960 232.417 C 324.463 231.336,325.003 229.391,325.160 228.094 C 325.318 226.798,325.845 224.941,326.332 223.969 C 326.994 222.646,327.328 220.962,327.653 217.289 C 327.901 214.501,328.425 211.421,328.866 210.167 C 330.462 205.623,330.339 172.602,328.712 168.762 C 328.334 167.871,327.872 165.148,327.646 162.475 C 327.374 159.276,326.988 157.192,326.443 155.992 C 326.002 155.020,325.409 152.836,325.125 151.140 C 324.841 149.443,324.345 147.763,324.022 147.406 C 323.699 147.050,323.220 145.520,322.957 144.008 C 322.695 142.495,322.083 140.639,321.597 139.882 C 321.111 139.126,320.591 137.805,320.441 136.947 C 320.291 136.089,319.750 134.675,319.240 133.804 C 318.729 132.933,318.193 131.477,318.048 130.568 C 317.902 129.660,317.450 128.615,317.043 128.246 C 316.636 127.878,316.112 126.865,315.878 125.996 C 315.644 125.127,315.050 123.873,314.558 123.210 C 314.067 122.547,313.461 121.397,313.212 120.654 C 312.964 119.912,312.502 119.019,312.186 118.670 C 311.870 118.321,311.340 117.264,311.007 116.320 C 310.674 115.377,310.050 114.359,309.621 114.058 C 309.192 113.757,308.841 113.276,308.841 112.988 C 308.841 112.701,308.222 111.566,307.466 110.466 C 306.709 109.367,306.090 108.318,306.090 108.135 C 306.090 107.953,305.648 107.419,305.108 106.950 C 304.568 106.480,304.126 105.861,304.126 105.575 C 304.126 105.288,303.419 104.093,302.556 102.920 C 301.070 100.900,300.367 100.024,298.007 97.250 C 297.455 96.601,296.389 95.275,295.638 94.303 C 294.886 93.330,293.704 91.851,293.010 91.016 C 291.017 88.617,280.281 77.931,278.669 76.740 C 277.867 76.148,276.591 75.155,275.835 74.535 C 275.079 73.914,273.873 72.935,273.155 72.361 C 272.438 71.786,271.382 70.830,270.808 70.236 C 270.235 69.641,269.601 69.155,269.399 69.155 C 269.198 69.155,268.397 68.670,267.621 68.076 C 266.844 67.483,265.750 66.731,265.189 66.406 C 262.811 65.027,261.525 64.191,260.496 63.354 C 259.895 62.865,258.760 62.196,257.975 61.868 C 257.190 61.540,256.448 61.014,256.327 60.698 C 256.206 60.383,255.374 59.913,254.478 59.654 C 253.582 59.395,252.349 58.774,251.738 58.275 C 251.127 57.776,250.400 57.367,250.123 57.367 C 249.845 57.367,248.931 56.901,248.091 56.331 C 247.250 55.760,246.032 55.111,245.384 54.888 C 244.735 54.666,243.585 54.083,242.829 53.594 C 242.073 53.105,240.747 52.586,239.882 52.440 C 239.018 52.294,237.692 51.770,236.935 51.277 C 236.179 50.784,234.858 50.257,234.000 50.107 C 233.142 49.957,231.728 49.428,230.857 48.932 C 229.986 48.436,228.428 47.924,227.395 47.793 C 226.362 47.663,224.594 47.131,223.466 46.611 C 222.337 46.091,220.461 45.548,219.295 45.405 C 218.129 45.262,216.471 44.785,215.611 44.346 C 214.542 43.801,212.474 43.386,209.086 43.036 C 206.358 42.754,203.330 42.217,202.358 41.844 C 199.373 40.698,182.906 40.224,168.369 40.866 M192.534 41.648 C 195.907 41.848,199.496 42.283,200.577 42.623 C 201.651 42.960,204.605 43.417,207.142 43.637 C 210.048 43.889,212.381 44.314,213.448 44.786 C 214.379 45.198,216.351 45.729,217.831 45.965 C 219.310 46.201,221.174 46.728,221.971 47.135 C 222.769 47.542,224.562 48.078,225.955 48.327 C 227.348 48.576,229.072 49.120,229.787 49.537 C 230.501 49.954,231.916 50.498,232.930 50.746 C 233.944 50.994,235.481 51.593,236.346 52.077 C 237.210 52.561,238.563 53.070,239.351 53.208 C 240.140 53.346,241.200 53.782,241.709 54.177 C 242.217 54.572,243.340 55.120,244.204 55.394 C 245.069 55.668,246.137 56.221,246.579 56.622 C 247.020 57.023,247.985 57.562,248.722 57.819 C 249.460 58.076,250.670 58.698,251.412 59.202 C 252.155 59.706,252.972 60.118,253.229 60.118 C 253.656 60.118,255.360 61.119,258.295 63.094 C 258.914 63.510,260.273 64.381,261.317 65.029 C 262.360 65.678,264.305 66.960,265.640 67.878 C 266.974 68.797,268.186 69.548,268.332 69.548 C 268.479 69.548,269.298 70.182,270.154 70.956 C 271.640 72.302,272.761 73.272,275.338 75.442 C 275.979 75.982,277.424 77.132,278.549 77.996 C 280.958 79.848,289.959 88.871,292.402 91.885 C 293.339 93.040,295.524 95.692,297.256 97.778 C 298.989 99.865,301.277 102.898,302.341 104.519 C 303.405 106.139,304.507 107.607,304.790 107.780 C 305.073 107.953,305.305 108.306,305.306 108.566 C 305.307 109.015,305.679 109.636,308.151 113.323 C 309.100 114.739,310.057 116.508,312.210 120.825 C 312.533 121.473,313.051 122.446,313.360 122.986 C 313.670 123.527,314.210 124.587,314.560 125.344 C 314.909 126.100,315.711 127.723,316.340 128.951 C 316.970 130.178,317.486 131.504,317.487 131.898 C 317.488 132.291,318.017 133.674,318.664 134.971 C 319.311 136.267,319.841 137.683,319.841 138.117 C 319.842 138.551,320.297 139.759,320.852 140.802 C 321.408 141.845,322.028 143.731,322.231 144.992 C 322.434 146.253,323.039 148.227,323.575 149.379 C 324.112 150.531,324.560 152.092,324.571 152.849 C 324.583 153.605,324.860 154.931,325.187 155.796 C 326.331 158.822,326.528 159.758,326.929 164.047 C 327.151 166.424,327.719 169.695,328.191 171.316 C 329.508 175.836,329.521 203.614,328.208 208.448 C 327.739 210.177,327.159 213.513,326.920 215.862 C 326.682 218.212,326.211 220.864,325.874 221.756 C 325.538 222.649,325.027 224.617,324.739 226.130 C 324.451 227.642,323.862 229.677,323.429 230.651 C 322.996 231.624,322.464 233.520,322.248 234.862 C 322.032 236.205,321.402 238.076,320.849 239.020 C 320.296 239.964,319.843 241.093,319.843 241.528 C 319.843 241.963,319.398 243.155,318.855 244.176 C 318.312 245.198,317.687 246.860,317.466 247.869 C 317.246 248.879,316.753 250.147,316.371 250.688 C 315.989 251.228,315.367 252.496,314.989 253.505 C 314.610 254.515,314.054 255.546,313.752 255.796 C 313.450 256.047,312.996 256.880,312.742 257.649 C 312.488 258.417,311.861 259.665,311.347 260.423 C 310.833 261.180,310.405 261.996,310.396 262.236 C 310.387 262.476,309.586 263.910,308.616 265.422 C 307.646 266.935,306.549 268.670,306.177 269.277 C 305.209 270.860,304.023 272.702,303.340 273.685 C 303.016 274.152,302.226 275.313,301.585 276.265 C 300.944 277.217,299.931 278.615,299.335 279.371 C 298.738 280.128,297.848 281.258,297.357 281.883 C 296.866 282.509,296.011 283.506,295.457 284.099 C 294.903 284.693,294.143 285.647,293.768 286.219 C 292.722 287.815,282.708 298.009,279.175 301.073 C 277.446 302.573,275.081 304.624,273.920 305.630 C 272.758 306.637,271.432 307.719,270.973 308.036 C 270.513 308.353,269.898 308.846,269.605 309.132 C 269.313 309.418,268.429 310.003,267.641 310.432 C 266.853 310.861,265.413 311.825,264.440 312.574 C 263.468 313.322,261.965 314.312,261.100 314.772 C 260.236 315.233,259.175 315.920,258.743 316.300 C 258.310 316.680,257.499 317.235,256.938 317.533 C 252.361 319.969,250.623 320.876,248.919 321.719 C 247.839 322.253,246.681 322.929,246.346 323.221 C 246.011 323.513,244.959 324.026,244.008 324.361 C 243.057 324.697,241.978 325.243,241.611 325.576 C 241.244 325.908,240.037 326.419,238.929 326.711 C 237.822 327.003,236.323 327.592,235.598 328.019 C 234.874 328.447,233.685 328.926,232.956 329.085 C 232.227 329.244,230.835 329.785,229.862 330.288 C 228.890 330.790,227.004 331.374,225.671 331.585 C 224.339 331.797,222.675 332.266,221.973 332.629 C 221.272 332.991,219.325 333.528,217.647 333.821 C 215.968 334.114,213.565 334.701,212.306 335.125 C 211.046 335.549,208.426 336.014,206.482 336.158 C 204.538 336.302,201.356 336.801,199.411 337.267 C 194.472 338.450,168.398 338.555,164.335 337.409 C 162.981 337.026,159.898 336.529,157.485 336.304 C 155.072 336.079,151.759 335.482,150.124 334.979 C 148.489 334.475,146.267 333.943,145.187 333.797 C 144.106 333.650,142.426 333.181,141.454 332.753 C 140.481 332.326,138.377 331.725,136.778 331.418 C 135.179 331.111,133.588 330.608,133.242 330.300 C 132.896 329.991,131.819 329.528,130.849 329.269 C 129.879 329.011,128.289 328.375,127.316 327.857 C 126.343 327.339,125.261 326.916,124.911 326.916 C 124.562 326.916,123.322 326.409,122.157 325.790 C 120.992 325.171,119.597 324.532,119.057 324.369 C 118.517 324.207,117.544 323.679,116.896 323.197 C 116.248 322.714,115.068 322.107,114.275 321.847 C 113.482 321.587,112.628 321.127,112.377 320.825 C 112.127 320.523,111.272 320.071,110.479 319.821 C 109.103 319.386,107.038 318.207,104.912 316.640 C 104.371 316.243,103.222 315.539,102.358 315.077 C 101.493 314.614,100.675 314.064,100.540 313.853 C 100.308 313.493,99.349 312.852,96.270 311.002 C 95.551 310.570,93.179 308.713,90.998 306.876 C 88.817 305.039,86.326 303.014,85.462 302.376 C 81.865 299.720,72.853 290.468,68.448 284.909 C 67.864 284.173,66.910 283.023,66.327 282.355 C 63.011 278.551,62.043 277.226,60.118 273.862 C 59.794 273.295,59.131 272.413,58.644 271.901 C 58.158 271.390,57.760 270.764,57.760 270.509 C 57.760 270.255,57.362 269.548,56.876 268.938 C 55.585 267.318,54.373 265.314,53.223 262.898 C 52.665 261.726,51.866 260.332,51.448 259.800 C 51.030 259.268,50.688 258.528,50.688 258.154 C 50.688 257.781,50.177 256.833,49.553 256.047 C 48.929 255.262,48.305 254.018,48.167 253.282 C 48.029 252.547,47.654 251.728,47.333 251.462 C 47.013 251.195,46.465 249.997,46.117 248.798 C 45.768 247.599,45.063 245.828,44.549 244.862 C 44.035 243.896,43.615 242.716,43.615 242.240 C 43.615 241.764,43.157 240.514,42.598 239.461 C 42.038 238.409,41.396 236.482,41.171 235.179 C 40.946 233.876,40.435 232.161,40.036 231.368 C 39.637 230.576,39.109 228.631,38.863 227.046 C 38.618 225.462,38.073 223.292,37.653 222.226 C 37.207 221.093,36.731 218.462,36.508 215.899 C 36.299 213.485,35.764 210.291,35.320 208.801 C 33.709 203.388,33.858 174.906,35.522 170.231 C 35.850 169.310,36.301 166.444,36.525 163.863 C 36.762 161.141,37.242 158.380,37.669 157.287 C 38.073 156.251,38.616 154.170,38.875 152.663 C 39.134 151.156,39.680 149.123,40.088 148.144 C 40.496 147.166,41.002 145.380,41.214 144.176 C 41.425 142.972,42.052 141.134,42.606 140.090 C 43.161 139.047,43.615 137.822,43.616 137.368 C 43.616 136.914,44.123 135.570,44.743 134.381 C 45.362 133.193,45.985 131.575,46.128 130.786 C 46.270 129.998,46.715 128.934,47.118 128.423 C 47.520 127.911,48.039 126.807,48.270 125.970 C 48.501 125.132,49.022 124.074,49.427 123.618 C 49.832 123.163,50.468 121.964,50.839 120.954 C 51.211 119.945,51.762 118.914,52.063 118.664 C 52.365 118.413,52.824 117.559,53.082 116.766 C 53.340 115.973,53.924 114.860,54.379 114.293 C 54.834 113.726,55.560 112.679,55.992 111.967 C 57.586 109.339,58.367 108.131,59.059 107.220 C 59.449 106.707,60.554 105.068,61.514 103.578 C 62.474 102.088,64.545 99.348,66.117 97.488 C 67.689 95.628,69.500 93.399,70.141 92.534 C 71.942 90.108,81.209 80.765,84.283 78.277 C 85.796 77.053,88.625 74.715,90.570 73.082 C 92.515 71.449,95.079 69.481,96.267 68.708 C 97.456 67.936,98.870 67.017,99.411 66.667 C 102.950 64.369,106.430 62.030,107.269 61.384 C 107.809 60.968,108.903 60.414,109.700 60.154 C 110.497 59.893,111.558 59.362,112.058 58.974 C 112.558 58.585,113.616 58.056,114.409 57.797 C 115.202 57.539,116.056 57.080,116.306 56.779 C 116.556 56.477,117.587 55.924,118.597 55.550 C 119.606 55.175,120.892 54.554,121.455 54.168 C 122.017 53.783,123.284 53.287,124.272 53.065 C 125.259 52.844,126.655 52.321,127.375 51.903 C 128.095 51.486,129.479 50.937,130.452 50.683 C 131.424 50.430,132.750 49.900,133.399 49.505 C 134.047 49.111,135.717 48.582,137.110 48.331 C 138.503 48.080,140.296 47.542,141.093 47.135 C 141.891 46.728,143.702 46.210,145.118 45.983 C 146.534 45.757,148.496 45.228,149.479 44.807 C 150.605 44.324,152.976 43.893,155.900 43.639 C 158.449 43.417,161.414 42.951,162.487 42.603 C 165.978 41.470,181.317 40.983,192.534 41.648 M61.531 159.417 C 58.707 160.144,55.807 162.378,54.342 164.956 L 52.849 167.583 52.849 185.271 L 52.849 202.958 54.200 205.592 C 55.729 208.573,58.020 210.339,61.248 211.024 C 62.420 211.273,106.030 211.372,184.102 211.304 L 305.139 211.198 307.426 209.823 C 312.735 206.632,313.158 204.820,313.161 185.221 C 313.164 165.762,312.751 164.127,307.018 160.865 L 304.322 159.332 183.301 159.278 C 116.739 159.248,61.943 159.311,61.531 159.417 M304.126 160.503 C 304.666 160.817,305.815 161.412,306.680 161.825 C 308.596 162.742,309.562 163.792,311.044 166.569 L 312.181 168.698 312.181 185.626 L 312.181 202.554 310.689 205.108 C 309.390 207.331,308.862 207.841,306.623 209.038 L 304.049 210.413 182.771 210.413 L 61.493 210.413 58.946 209.037 C 56.602 207.772,56.288 207.442,55.017 204.912 L 53.635 202.161 53.635 185.265 L 53.635 168.369 54.946 166.012 C 56.619 163.006,56.649 162.978,59.921 161.325 L 62.672 159.936 182.908 159.935 C 287.276 159.933,303.273 160.008,304.126 160.503 " stroke="none" fill="#c4a5a4" fill-rule="evenodd"></path><path id="path3" d="M58.231 24.972 C 57.085 25.282,55.791 25.725,55.356 25.958 C 54.920 26.191,52.898 26.552,50.862 26.761 C 46.977 27.158,42.120 29.099,40.940 30.726 C 40.658 31.115,40.196 31.434,39.914 31.434 C 39.632 31.434,38.763 31.941,37.984 32.560 C 37.205 33.179,36.031 33.908,35.376 34.180 C 34.721 34.451,34.185 34.825,34.185 35.010 C 34.185 35.196,33.522 35.696,32.711 36.123 C 31.061 36.991,29.964 38.092,28.865 39.980 C 28.456 40.683,27.976 41.257,27.799 41.257 C 27.622 41.257,27.154 42.011,26.759 42.933 C 26.364 43.854,25.741 44.857,25.375 45.161 C 25.009 45.465,24.463 46.302,24.162 47.022 C 23.862 47.741,23.447 48.330,23.241 48.330 C 22.205 48.330,19.967 54.051,19.600 57.639 C 19.373 59.851,18.892 61.982,18.358 63.140 L 17.485 65.029 17.485 191.159 L 17.485 317.289 18.359 319.253 C 18.908 320.487,19.375 322.661,19.616 325.097 C 19.921 328.188,20.203 329.285,21.001 330.492 C 21.553 331.325,22.004 332.189,22.004 332.412 C 22.004 332.634,22.534 333.372,23.183 334.050 C 23.831 334.728,24.362 335.478,24.362 335.716 C 24.362 335.955,24.820 336.680,25.378 337.328 C 25.937 337.976,26.635 339.082,26.930 339.784 C 27.224 340.486,27.646 341.061,27.868 341.061 C 28.089 341.061,28.541 341.583,28.871 342.221 C 29.581 343.595,32.144 346.169,32.801 346.169 C 33.055 346.169,33.677 346.611,34.185 347.151 C 34.692 347.692,35.325 348.134,35.591 348.134 C 35.857 348.134,36.816 348.752,37.721 349.509 C 38.626 350.265,39.560 350.884,39.796 350.884 C 40.032 350.884,40.589 351.225,41.036 351.642 C 43.312 353.769,48.512 355.599,52.281 355.599 C 53.079 355.599,55.124 356.085,56.826 356.680 L 59.921 357.760 184.086 357.760 L 308.251 357.760 311.309 356.680 C 312.990 356.085,315.044 355.599,315.872 355.599 C 319.546 355.599,325.432 353.526,327.151 351.627 C 327.521 351.218,328.044 350.884,328.314 350.884 C 328.585 350.884,329.547 350.265,330.452 349.509 C 331.357 348.752,332.316 348.134,332.582 348.134 C 332.848 348.134,333.481 347.692,333.988 347.151 C 334.496 346.611,335.101 346.164,335.334 346.158 C 335.998 346.142,338.611 343.558,339.289 342.247 C 339.626 341.595,340.081 341.061,340.299 341.061 C 340.517 341.061,341.020 340.309,341.417 339.391 C 341.813 338.472,342.514 337.384,342.975 336.972 C 343.435 336.561,343.811 336.012,343.811 335.754 C 343.811 335.495,344.342 334.728,344.990 334.050 C 345.639 333.372,346.169 332.603,346.169 332.343 C 346.169 332.082,346.620 331.218,347.172 330.423 C 347.977 329.260,348.251 328.213,348.567 325.097 C 348.782 322.964,349.348 320.157,349.823 318.861 L 350.688 316.503 350.688 191.159 L 350.688 65.815 349.807 63.428 C 349.323 62.115,348.763 59.458,348.563 57.524 C 348.195 53.962,346.684 50.122,344.866 48.130 C 343.702 46.854,342.305 44.710,341.474 42.927 C 341.046 42.009,340.517 41.257,340.299 41.257 C 340.081 41.257,339.608 40.683,339.248 39.980 C 338.888 39.278,338.160 38.264,337.629 37.728 C 336.726 36.816,336.119 36.392,332.838 34.381 C 332.133 33.949,330.929 33.109,330.164 32.515 C 329.398 31.920,328.559 31.434,328.298 31.434 C 328.037 31.434,327.506 31.084,327.118 30.656 C 325.576 28.951,321.009 27.140,317.289 26.757 C 315.203 26.543,312.866 26.017,311.591 25.476 L 309.430 24.558 184.872 24.484 C 77.887 24.421,60.020 24.489,58.231 24.972 M310.057 28.184 C 311.205 28.741,313.281 29.217,315.755 29.490 C 317.895 29.727,320.088 30.165,320.629 30.462 C 321.169 30.759,322.053 31.204,322.593 31.450 C 324.818 32.462,327.529 34.136,329.088 35.462 C 329.787 36.056,330.546 36.542,330.774 36.542 C 331.002 36.542,331.760 37.063,332.457 37.700 C 333.154 38.337,334.198 39.054,334.776 39.294 C 335.355 39.533,336.125 40.294,336.489 40.985 C 336.852 41.675,337.582 42.859,338.111 43.615 C 338.640 44.371,339.437 45.521,339.882 46.169 C 340.328 46.817,341.127 47.967,341.659 48.723 C 342.191 49.479,342.910 50.717,343.257 51.473 C 343.603 52.230,344.213 53.203,344.612 53.635 C 345.151 54.220,345.449 55.528,345.776 58.738 C 346.072 61.650,346.495 63.632,347.076 64.828 L 347.937 66.601 348.042 189.980 C 348.107 266.205,348.006 313.960,347.777 314.931 C 347.574 315.796,347.137 317.231,346.808 318.121 C 346.478 319.010,346.021 321.565,345.792 323.797 C 345.484 326.798,345.184 328.065,344.639 328.662 C 344.233 329.106,343.786 329.852,343.645 330.319 C 343.503 330.786,342.908 331.786,342.322 332.541 C 341.737 333.296,340.904 334.490,340.472 335.195 C 338.928 337.714,338.099 338.952,337.033 340.328 C 336.439 341.096,335.953 341.907,335.953 342.131 C 335.953 342.354,335.388 342.771,334.697 343.057 C 334.007 343.343,332.901 344.048,332.241 344.624 C 331.581 345.199,330.643 345.794,330.157 345.946 C 329.671 346.098,329.273 346.384,329.273 346.582 C 329.273 346.780,328.402 347.383,327.336 347.923 C 326.271 348.463,325.299 349.068,325.176 349.267 C 324.394 350.531,319.449 352.363,316.084 352.633 C 314.122 352.791,311.348 353.334,309.794 353.865 L 307.014 354.813 183.973 354.813 C 61.211 354.813,60.928 354.812,58.907 354.015 C 57.793 353.576,55.001 353.014,52.704 352.766 C 49.367 352.407,48.052 352.071,46.169 351.100 C 43.721 349.836,40.754 348.006,37.540 345.776 C 37.073 345.452,35.818 344.619,34.750 343.926 C 32.227 342.287,31.412 341.342,29.468 337.800 C 29.017 336.979,28.398 336.211,28.092 336.094 C 27.785 335.976,27.422 335.499,27.284 335.032 C 27.145 334.566,26.520 333.532,25.893 332.734 C 25.267 331.936,24.754 331.121,24.754 330.923 C 24.754 330.724,24.307 329.902,23.759 329.095 C 22.961 327.919,22.692 326.867,22.398 323.781 C 22.196 321.664,21.748 319.161,21.401 318.218 C 21.055 317.275,20.611 315.884,20.415 315.128 C 20.205 314.318,20.058 263.144,20.057 190.766 L 20.056 67.780 21.038 65.029 C 21.606 63.440,22.181 60.633,22.402 58.378 C 22.686 55.482,22.976 54.267,23.528 53.663 C 23.937 53.215,24.404 52.407,24.566 51.866 C 24.728 51.326,25.367 50.303,25.986 49.593 C 26.605 48.884,27.112 48.111,27.112 47.877 C 27.112 47.643,27.642 46.847,28.291 46.109 C 28.939 45.371,29.470 44.538,29.470 44.259 C 29.470 43.980,29.897 43.350,30.420 42.859 C 30.943 42.368,31.581 41.458,31.838 40.839 C 32.095 40.219,32.635 39.607,33.039 39.479 C 33.443 39.350,34.502 38.637,35.392 37.894 C 36.282 37.150,37.231 36.542,37.501 36.542 C 37.771 36.542,38.329 36.170,38.741 35.715 C 39.152 35.259,40.120 34.565,40.891 34.172 C 41.662 33.778,42.516 33.187,42.789 32.858 C 43.062 32.529,43.934 32.046,44.727 31.785 C 45.520 31.524,46.611 30.997,47.151 30.614 C 47.802 30.153,49.495 29.776,52.173 29.498 C 54.394 29.267,56.870 28.787,57.674 28.432 C 58.478 28.078,59.843 27.657,60.707 27.497 C 61.572 27.337,117.623 27.229,185.265 27.257 L 308.251 27.308 310.057 28.184 " stroke="none" fill="#9a7c7c" fill-rule="evenodd"></path><path id="path4" d="M169.548 41.677 C 166.739 41.838,163.561 42.254,162.487 42.603 C 161.414 42.951,158.449 43.417,155.900 43.639 C 152.976 43.893,150.605 44.324,149.479 44.807 C 148.496 45.228,146.534 45.757,145.118 45.983 C 143.702 46.210,141.891 46.728,141.093 47.135 C 140.296 47.542,138.503 48.080,137.110 48.331 C 135.717 48.582,134.047 49.111,133.399 49.505 C 132.750 49.900,131.424 50.430,130.452 50.683 C 129.479 50.937,128.095 51.486,127.375 51.903 C 126.655 52.321,125.259 52.844,124.272 53.065 C 123.284 53.287,122.017 53.783,121.455 54.168 C 120.892 54.554,119.606 55.175,118.597 55.550 C 117.587 55.924,116.556 56.477,116.306 56.779 C 116.056 57.080,115.202 57.539,114.409 57.797 C 113.616 58.056,112.558 58.585,112.058 58.974 C 111.558 59.362,110.497 59.893,109.700 60.154 C 108.903 60.414,107.809 60.968,107.269 61.384 C 106.430 62.030,102.950 64.369,99.411 66.667 C 98.870 67.017,97.456 67.936,96.267 68.708 C 95.079 69.481,92.515 71.449,90.570 73.082 C 88.625 74.715,85.796 77.053,84.283 78.277 C 81.209 80.765,71.942 90.108,70.141 92.534 C 69.500 93.399,67.689 95.628,66.117 97.488 C 64.545 99.348,62.474 102.088,61.514 103.578 C 60.554 105.068,59.449 106.707,59.059 107.220 C 58.367 108.131,57.586 109.339,55.992 111.967 C 55.560 112.679,54.834 113.726,54.379 114.293 C 53.924 114.860,53.340 115.973,53.082 116.766 C 52.824 117.559,52.365 118.413,52.063 118.664 C 51.762 118.914,51.211 119.945,50.839 120.954 C 50.468 121.964,49.832 123.163,49.427 123.618 C 49.022 124.074,48.501 125.132,48.270 125.970 C 48.039 126.807,47.520 127.911,47.118 128.423 C 46.715 128.934,46.270 129.998,46.128 130.786 C 45.985 131.575,45.362 133.193,44.743 134.381 C 44.123 135.570,43.616 136.914,43.616 137.368 C 43.615 137.822,43.161 139.047,42.606 140.090 C 42.052 141.134,41.425 142.972,41.214 144.176 C 41.002 145.380,40.496 147.166,40.088 148.144 C 39.680 149.123,39.134 151.156,38.875 152.663 C 38.616 154.170,38.073 156.251,37.669 157.287 C 37.242 158.380,36.762 161.141,36.525 163.863 C 36.301 166.444,35.850 169.310,35.522 170.231 C 33.858 174.906,33.709 203.388,35.320 208.801 C 35.764 210.291,36.299 213.485,36.508 215.899 C 36.731 218.462,37.207 221.093,37.653 222.226 C 38.073 223.292,38.618 225.462,38.863 227.046 C 39.109 228.631,39.637 230.576,40.036 231.368 C 40.435 232.161,40.946 233.876,41.171 235.179 C 41.396 236.482,42.038 238.409,42.598 239.461 C 43.157 240.514,43.615 241.764,43.615 242.240 C 43.615 242.716,44.035 243.896,44.549 244.862 C 45.063 245.828,45.768 247.599,46.117 248.798 C 46.465 249.997,47.013 251.195,47.333 251.462 C 47.654 251.728,48.029 252.547,48.167 253.282 C 48.305 254.018,48.929 255.262,49.553 256.047 C 50.177 256.833,50.688 257.781,50.688 258.154 C 50.688 258.528,51.030 259.268,51.448 259.800 C 51.866 260.332,52.665 261.726,53.223 262.898 C 54.373 265.314,55.585 267.318,56.876 268.938 C 57.362 269.548,57.760 270.255,57.760 270.509 C 57.760 270.764,58.158 271.390,58.644 271.901 C 59.131 272.413,59.794 273.295,60.118 273.862 C 62.043 277.226,63.011 278.551,66.327 282.355 C 66.910 283.023,67.864 284.173,68.448 284.909 C 72.853 290.468,81.865 299.720,85.462 302.376 C 86.326 303.014,88.817 305.039,90.998 306.876 C 93.179 308.713,95.551 310.570,96.270 311.002 C 99.349 312.852,100.308 313.493,100.540 313.853 C 100.675 314.064,101.493 314.614,102.358 315.077 C 103.222 315.539,104.371 316.243,104.912 316.640 C 107.038 318.207,109.103 319.386,110.479 319.821 C 111.272 320.071,112.127 320.523,112.377 320.825 C 112.628 321.127,113.482 321.587,114.275 321.847 C 115.068 322.107,116.248 322.714,116.896 323.197 C 117.544 323.679,118.517 324.207,119.057 324.369 C 119.597 324.532,120.992 325.171,122.157 325.790 C 123.322 326.409,124.562 326.916,124.911 326.916 C 125.261 326.916,126.343 327.339,127.316 327.857 C 128.289 328.375,129.879 329.011,130.849 329.269 C 131.819 329.528,132.896 329.991,133.242 330.300 C 133.588 330.608,135.179 331.111,136.778 331.418 C 138.377 331.725,140.481 332.326,141.454 332.753 C 142.426 333.181,144.106 333.650,145.187 333.797 C 146.267 333.943,148.489 334.475,150.124 334.979 C 151.759 335.482,155.072 336.079,157.485 336.304 C 159.898 336.529,162.981 337.026,164.335 337.409 C 168.398 338.555,194.472 338.450,199.411 337.267 C 201.356 336.801,204.538 336.302,206.482 336.158 C 208.426 336.014,211.046 335.549,212.306 335.125 C 213.565 334.701,215.968 334.114,217.647 333.821 C 219.325 333.528,221.272 332.991,221.973 332.629 C 222.675 332.266,224.339 331.797,225.671 331.585 C 227.004 331.374,228.890 330.790,229.862 330.288 C 230.835 329.785,232.227 329.244,232.956 329.085 C 233.685 328.926,234.874 328.447,235.598 328.019 C 236.323 327.592,237.822 327.003,238.929 326.711 C 240.037 326.419,241.244 325.908,241.611 325.576 C 241.978 325.243,243.057 324.697,244.008 324.361 C 244.959 324.026,246.011 323.513,246.346 323.221 C 246.681 322.929,247.839 322.253,248.919 321.719 C 250.623 320.876,252.361 319.969,256.938 317.533 C 257.499 317.235,258.310 316.680,258.743 316.300 C 259.175 315.920,260.236 315.233,261.100 314.772 C 261.965 314.312,263.468 313.322,264.440 312.574 C 265.413 311.825,266.853 310.861,267.641 310.432 C 268.429 310.003,269.313 309.418,269.605 309.132 C 269.898 308.846,270.513 308.353,270.973 308.036 C 271.432 307.719,272.758 306.637,273.920 305.630 C 275.081 304.624,277.446 302.573,279.175 301.073 C 282.708 298.009,292.722 287.815,293.768 286.219 C 294.143 285.647,294.903 284.693,295.457 284.099 C 296.011 283.506,296.866 282.509,297.357 281.883 C 297.848 281.258,298.738 280.128,299.335 279.371 C 299.931 278.615,300.944 277.217,301.585 276.265 C 302.226 275.313,303.016 274.152,303.340 273.685 C 304.023 272.702,305.209 270.860,306.177 269.277 C 306.549 268.670,307.646 266.935,308.616 265.422 C 309.586 263.910,310.387 262.476,310.396 262.236 C 310.405 261.996,310.833 261.180,311.347 260.423 C 311.861 259.665,312.488 258.417,312.742 257.649 C 312.996 256.880,313.450 256.047,313.752 255.796 C 314.054 255.546,314.610 254.515,314.989 253.505 C 315.367 252.496,315.989 251.228,316.371 250.688 C 316.753 250.147,317.246 248.879,317.466 247.869 C 317.687 246.860,318.312 245.198,318.855 244.176 C 319.398 243.155,319.843 241.963,319.843 241.528 C 319.843 241.093,320.296 239.964,320.849 239.020 C 321.402 238.076,322.032 236.205,322.248 234.862 C 322.464 233.520,322.996 231.624,323.429 230.651 C 323.862 229.677,324.451 227.642,324.739 226.130 C 325.027 224.617,325.538 222.649,325.874 221.756 C 326.211 220.864,326.682 218.212,326.920 215.862 C 327.159 213.513,327.739 210.177,328.208 208.448 C 329.521 203.614,329.508 175.836,328.191 171.316 C 327.719 169.695,327.151 166.424,326.929 164.047 C 326.528 159.758,326.331 158.822,325.187 155.796 C 324.860 154.931,324.583 153.605,324.571 152.849 C 324.560 152.092,324.112 150.531,323.575 149.379 C 323.039 148.227,322.434 146.253,322.231 144.992 C 322.028 143.731,321.408 141.845,320.852 140.802 C 320.297 139.759,319.842 138.551,319.841 138.117 C 319.841 137.683,319.311 136.267,318.664 134.971 C 318.017 133.674,317.488 132.291,317.487 131.898 C 317.486 131.504,316.970 130.178,316.340 128.951 C 315.711 127.723,314.909 126.100,314.560 125.344 C 314.210 124.587,313.670 123.527,313.360 122.986 C 313.051 122.446,312.533 121.473,312.210 120.825 C 310.057 116.508,309.100 114.739,308.151 113.323 C 305.679 109.636,305.307 109.015,305.306 108.566 C 305.305 108.306,305.073 107.953,304.790 107.780 C 304.507 107.607,303.405 106.139,302.341 104.519 C 301.277 102.898,298.989 99.865,297.256 97.778 C 295.524 95.692,293.339 93.040,292.402 91.885 C 289.959 88.871,280.958 79.848,278.549 77.996 C 277.424 77.132,275.979 75.982,275.338 75.442 C 272.761 73.272,271.640 72.302,270.154 70.956 C 269.298 70.182,268.479 69.548,268.332 69.548 C 268.186 69.548,266.974 68.797,265.640 67.878 C 264.305 66.960,262.360 65.678,261.317 65.029 C 260.273 64.381,258.914 63.510,258.295 63.094 C 255.360 61.119,253.656 60.118,253.229 60.118 C 252.972 60.118,252.155 59.706,251.412 59.202 C 250.670 58.698,249.460 58.076,248.722 57.819 C 247.985 57.562,247.020 57.023,246.579 56.622 C 246.137 56.221,245.069 55.668,244.204 55.394 C 243.340 55.120,242.217 54.572,241.709 54.177 C 241.200 53.782,240.140 53.346,239.351 53.208 C 238.563 53.070,237.210 52.561,236.346 52.077 C 235.481 51.593,233.944 50.994,232.930 50.746 C 231.916 50.498,230.501 49.954,229.787 49.537 C 229.072 49.120,227.348 48.576,225.955 48.327 C 224.562 48.078,222.769 47.542,221.971 47.135 C 221.174 46.728,219.310 46.201,217.831 45.965 C 216.351 45.729,214.379 45.198,213.448 44.786 C 212.381 44.314,210.048 43.889,207.142 43.637 C 204.605 43.417,201.651 42.960,200.577 42.623 C 196.881 41.462,181.509 40.994,169.548 41.677 M189.587 42.225 C 192.847 42.343,196.447 42.699,197.642 43.021 C 198.831 43.341,201.960 43.780,204.596 43.996 C 207.649 44.246,210.145 44.680,211.472 45.192 C 212.618 45.635,214.944 46.176,216.640 46.395 C 218.525 46.638,220.129 47.086,220.766 47.548 C 221.339 47.963,223.045 48.496,224.558 48.731 C 226.071 48.967,228.016 49.567,228.880 50.065 C 229.745 50.563,231.216 51.088,232.150 51.231 C 233.084 51.374,234.322 51.840,234.901 52.267 C 235.479 52.693,236.984 53.309,238.243 53.636 C 239.503 53.963,240.793 54.489,241.110 54.806 C 241.427 55.123,242.424 55.581,243.327 55.824 C 244.230 56.067,245.456 56.676,246.051 57.176 C 246.646 57.677,247.649 58.200,248.280 58.339 C 248.911 58.477,249.732 58.928,250.105 59.340 C 250.478 59.751,251.424 60.298,252.209 60.554 C 252.993 60.811,254.250 61.436,255.003 61.944 C 255.755 62.453,256.597 62.868,256.873 62.868 C 257.149 62.868,257.683 63.237,258.059 63.687 C 258.435 64.137,259.549 64.919,260.535 65.424 C 261.522 65.930,262.560 66.622,262.843 66.963 C 263.126 67.304,263.603 67.583,263.903 67.583 C 264.202 67.583,264.755 67.951,265.132 68.401 C 265.508 68.851,266.523 69.580,267.387 70.021 C 268.251 70.462,269.255 71.111,269.617 71.463 C 269.979 71.814,270.935 72.633,271.741 73.281 C 273.260 74.502,273.551 74.750,278.782 79.283 C 282.309 82.340,292.327 92.535,293.375 94.135 C 293.750 94.707,294.510 95.661,295.064 96.254 C 295.618 96.848,296.473 97.845,296.964 98.470 C 297.455 99.096,298.359 100.226,298.972 100.982 C 299.586 101.739,300.359 102.888,300.691 103.537 C 301.023 104.186,301.667 105.053,302.121 105.465 C 302.575 105.876,302.947 106.423,302.947 106.680 C 302.947 106.937,303.307 107.473,303.747 107.871 C 304.187 108.270,304.869 109.314,305.262 110.192 C 305.655 111.070,306.356 112.125,306.819 112.536 C 307.283 112.948,307.662 113.499,307.662 113.760 C 307.662 114.022,308.005 114.672,308.425 115.206 C 308.844 115.739,309.490 116.956,309.860 117.911 C 310.230 118.865,310.837 120.000,311.210 120.432 C 311.583 120.864,312.095 121.867,312.349 122.660 C 312.603 123.453,313.057 124.307,313.358 124.557 C 313.659 124.807,314.203 125.926,314.566 127.044 C 314.929 128.162,315.556 129.439,315.958 129.883 C 316.361 130.326,316.869 131.631,317.087 132.783 C 317.306 133.934,317.829 135.434,318.250 136.115 C 318.671 136.796,319.205 138.199,319.437 139.233 C 319.668 140.267,320.221 141.605,320.665 142.205 C 321.177 142.897,321.604 144.344,321.831 146.152 C 322.032 147.749,322.535 149.564,322.973 150.274 C 323.404 150.971,323.932 152.764,324.147 154.258 C 324.362 155.752,324.894 157.982,325.330 159.213 C 325.765 160.444,326.226 163.008,326.353 164.910 C 326.479 166.813,327.000 170.491,327.510 173.084 C 329.193 181.648,329.180 200.642,327.488 206.680 C 327.155 207.868,326.707 210.935,326.493 213.494 C 326.278 216.063,325.761 219.143,325.339 220.370 C 324.918 221.593,324.407 223.789,324.202 225.251 C 323.997 226.712,323.461 228.505,323.010 229.235 C 322.534 230.005,322.039 231.759,321.831 233.416 C 321.603 235.237,321.178 236.670,320.657 237.374 C 320.208 237.981,319.642 239.413,319.400 240.555 C 319.157 241.698,318.625 243.105,318.218 243.681 C 317.810 244.258,317.304 245.642,317.093 246.757 C 316.881 247.872,316.353 249.236,315.919 249.787 C 315.485 250.339,314.946 251.474,314.721 252.309 C 314.496 253.144,313.980 254.138,313.573 254.517 C 313.167 254.896,312.706 255.737,312.550 256.385 C 312.394 257.033,311.761 258.262,311.143 259.115 C 310.525 259.968,310.020 260.971,310.020 261.344 C 310.020 261.717,309.602 262.522,309.091 263.133 C 308.580 263.744,308.030 264.686,307.868 265.226 C 307.706 265.766,307.172 266.650,306.680 267.191 C 306.189 267.731,305.483 268.775,305.111 269.511 C 304.739 270.247,304.100 271.209,303.691 271.648 C 303.282 272.087,302.947 272.673,302.947 272.949 C 302.947 273.225,302.417 273.993,301.768 274.656 C 301.120 275.319,300.589 276.090,300.589 276.369 C 300.589 276.648,300.131 277.305,299.570 277.829 C 299.009 278.353,298.280 279.302,297.949 279.937 C 297.619 280.573,297.043 281.368,296.670 281.705 C 296.297 282.042,294.397 284.175,292.449 286.444 C 289.027 290.430,276.510 302.938,275.925 302.956 C 275.768 302.961,274.589 303.933,273.307 305.117 C 272.024 306.301,270.875 307.269,270.753 307.270 C 270.631 307.270,270.000 307.729,269.352 308.290 C 268.703 308.851,267.510 309.650,266.699 310.065 C 265.889 310.481,265.226 310.996,265.226 311.210 C 265.226 311.423,264.519 311.881,263.654 312.227 C 262.790 312.572,262.083 313.016,262.083 313.212 C 262.083 313.408,261.419 313.871,260.609 314.241 C 259.799 314.611,258.555 315.404,257.845 316.003 C 257.135 316.602,256.309 317.092,256.009 317.092 C 255.709 317.092,254.963 317.506,254.352 318.012 C 253.741 318.518,252.711 319.112,252.062 319.333 C 251.414 319.553,250.196 320.200,249.355 320.771 C 248.515 321.341,247.526 321.807,247.157 321.807 C 246.789 321.807,246.187 322.139,245.820 322.545 C 245.453 322.950,244.205 323.580,243.047 323.944 C 241.889 324.309,240.644 324.936,240.279 325.340 C 239.914 325.743,238.880 326.191,237.981 326.335 C 237.082 326.480,235.639 327.002,234.774 327.495 C 233.910 327.988,232.583 328.523,231.827 328.684 C 231.071 328.844,229.745 329.382,228.880 329.878 C 228.013 330.377,226.252 330.901,224.951 331.048 C 223.654 331.195,221.652 331.736,220.502 332.250 C 219.352 332.764,217.018 333.360,215.315 333.573 C 213.613 333.787,211.619 334.213,210.883 334.520 C 209.245 335.204,207.623 335.482,202.554 335.944 C 200.393 336.141,195.884 336.666,192.534 337.110 C 184.337 338.196,177.892 338.154,168.906 336.955 C 164.937 336.426,160.187 335.875,158.350 335.731 C 156.513 335.588,153.997 335.136,152.760 334.728 C 151.523 334.320,149.136 333.786,147.455 333.541 C 145.775 333.295,143.605 332.700,142.633 332.217 C 141.660 331.734,139.689 331.215,138.252 331.065 C 136.452 330.876,135.254 330.506,134.401 329.877 C 133.720 329.375,132.388 328.847,131.442 328.705 C 130.496 328.563,129.250 328.077,128.674 327.624 C 128.098 327.171,126.811 326.648,125.814 326.461 C 124.817 326.275,123.375 325.710,122.609 325.205 C 121.844 324.700,120.448 324.048,119.506 323.756 C 118.565 323.464,117.710 323.004,117.606 322.733 C 117.502 322.462,116.562 321.957,115.517 321.610 C 114.472 321.263,113.412 320.733,113.163 320.432 C 112.914 320.132,111.860 319.604,110.821 319.259 C 109.783 318.914,108.620 318.285,108.237 317.862 C 107.854 317.439,107.309 317.092,107.025 317.092 C 106.742 317.092,105.930 316.586,105.220 315.967 C 104.510 315.347,103.487 314.708,102.947 314.546 C 102.407 314.384,101.611 313.930,101.179 313.536 C 99.997 312.461,97.820 310.935,96.189 310.038 C 95.390 309.598,94.263 308.817,93.685 308.302 C 93.107 307.787,92.081 306.909,91.405 306.349 C 90.730 305.790,89.521 304.752,88.720 304.042 C 87.919 303.331,86.605 302.220,85.800 301.572 C 83.149 299.437,75.011 291.415,72.248 288.212 C 70.756 286.483,69.052 284.515,68.461 283.838 C 67.870 283.161,66.945 282.045,66.405 281.357 C 65.864 280.669,64.972 279.632,64.421 279.051 C 63.871 278.471,63.192 277.434,62.912 276.747 C 62.632 276.061,62.052 275.180,61.621 274.791 C 61.191 274.401,60.597 273.505,60.302 272.798 C 60.007 272.091,59.582 271.513,59.357 271.513 C 59.133 271.513,58.687 270.883,58.365 270.114 C 58.043 269.344,57.408 268.239,56.953 267.658 C 55.431 265.714,53.438 262.313,53.438 261.659 C 53.438 261.303,52.908 260.344,52.259 259.528 C 51.611 258.713,51.081 257.750,51.081 257.390 C 51.081 257.029,50.644 256.142,50.110 255.418 C 49.576 254.694,48.854 253.245,48.506 252.198 C 48.159 251.151,47.729 250.295,47.551 250.295 C 47.143 250.295,46.365 248.101,46.365 246.951 C 46.365 246.473,45.915 245.418,45.364 244.607 C 44.814 243.796,44.199 242.267,43.999 241.209 C 43.798 240.152,43.263 238.785,42.809 238.172 C 42.278 237.453,41.857 236.034,41.624 234.185 C 41.424 232.589,40.906 230.707,40.459 229.949 C 40.005 229.180,39.489 227.288,39.277 225.612 C 39.070 223.977,38.543 221.686,38.108 220.522 C 37.622 219.225,37.167 216.593,36.934 213.734 C 36.571 209.298,36.370 208.128,35.298 204.224 C 34.373 200.856,34.680 177.563,35.698 173.870 C 36.175 172.141,36.731 168.582,36.934 165.960 C 37.168 162.933,37.584 160.481,38.072 159.241 C 38.495 158.168,39.028 155.949,39.256 154.310 C 39.484 152.672,40.022 150.656,40.452 149.830 C 40.882 149.005,41.416 147.040,41.639 145.464 C 41.880 143.767,42.364 142.164,42.827 141.535 C 43.257 140.950,43.767 139.613,43.962 138.563 C 44.156 137.514,44.692 136.145,45.153 135.521 C 45.614 134.897,46.166 133.470,46.378 132.348 C 46.591 131.227,47.024 130.024,47.341 129.674 C 47.657 129.324,48.194 128.251,48.532 127.289 C 48.871 126.327,49.566 124.921,50.077 124.165 C 50.588 123.409,51.126 122.214,51.272 121.510 C 51.418 120.805,51.846 120.064,52.222 119.863 C 52.599 119.661,53.109 118.820,53.357 117.994 C 53.605 117.168,54.255 115.885,54.801 115.144 C 55.348 114.403,55.796 113.633,55.796 113.433 C 55.796 113.234,56.326 112.466,56.974 111.728 C 57.623 110.989,58.153 110.125,58.153 109.806 C 58.153 109.487,58.684 108.672,59.332 107.993 C 59.980 107.315,60.511 106.551,60.511 106.297 C 60.511 106.043,60.939 105.433,61.462 104.941 C 61.984 104.450,62.641 103.491,62.920 102.810 C 63.199 102.129,63.832 101.249,64.327 100.856 C 64.821 100.462,65.226 99.920,65.226 99.652 C 65.226 99.385,65.756 98.773,66.405 98.294 C 67.053 97.815,67.583 97.239,67.583 97.015 C 67.583 96.791,68.158 96.024,68.861 95.311 C 69.563 94.598,70.933 93.008,71.906 91.778 C 74.111 88.988,82.312 80.871,85.462 78.361 C 86.758 77.328,88.216 76.116,88.701 75.668 C 89.186 75.219,90.184 74.348,90.919 73.731 C 91.655 73.114,92.726 72.185,93.300 71.666 C 93.873 71.147,94.997 70.363,95.796 69.923 C 97.469 69.003,99.732 67.463,100.589 66.662 C 100.914 66.358,101.886 65.753,102.750 65.317 C 103.615 64.881,104.659 64.151,105.071 63.696 C 105.482 63.241,106.118 62.868,106.483 62.868 C 106.849 62.868,107.461 62.522,107.844 62.099 C 108.227 61.675,109.416 61.038,110.487 60.683 C 111.557 60.327,112.527 59.791,112.642 59.491 C 112.757 59.191,113.585 58.734,114.481 58.475 C 115.377 58.216,116.604 57.600,117.208 57.107 C 117.813 56.613,119.044 56.011,119.945 55.768 C 120.846 55.526,121.998 55.001,122.505 54.602 C 123.012 54.203,124.369 53.681,125.520 53.442 C 126.672 53.203,127.919 52.670,128.292 52.258 C 128.674 51.836,129.767 51.396,130.792 51.252 C 131.793 51.111,133.349 50.574,134.249 50.059 C 135.149 49.544,137.083 48.953,138.547 48.745 C 140.119 48.523,141.658 48.036,142.305 47.558 C 142.994 47.049,144.315 46.654,145.865 46.495 C 147.221 46.356,149.568 45.823,151.081 45.310 C 152.837 44.715,155.513 44.241,158.487 43.998 C 161.048 43.788,164.213 43.339,165.521 43.000 C 167.709 42.433,179.652 41.668,182.515 41.912 C 183.163 41.967,186.346 42.108,189.587 42.225 M63.247 158.708 C 60.344 158.917,59.636 159.121,57.974 160.221 C 56.918 160.921,55.933 161.493,55.784 161.493 C 55.636 161.493,54.826 162.598,53.985 163.949 L 52.456 166.405 52.456 185.479 C 52.456 203.917,52.482 204.591,53.242 205.675 C 53.674 206.292,54.306 207.257,54.647 207.819 C 54.988 208.381,55.692 209.055,56.212 209.316 C 56.732 209.577,57.352 210.056,57.589 210.381 C 57.827 210.705,58.504 211.155,59.095 211.379 C 61.028 212.114,305.020 211.933,306.594 211.195 C 308.393 210.353,310.446 208.786,311.169 207.704 C 311.509 207.195,312.141 206.278,312.574 205.666 C 313.334 204.590,313.360 203.920,313.360 185.436 L 313.360 166.318 311.730 164.004 C 310.209 161.843,309.152 161.010,305.697 159.248 C 304.302 158.536,72.793 158.021,63.247 158.708 M307.018 160.865 C 312.751 164.127,313.164 165.762,313.161 185.221 C 313.158 204.820,312.735 206.632,307.426 209.823 L 305.139 211.198 184.102 211.304 C 106.030 211.372,62.420 211.273,61.248 211.024 C 58.020 210.339,55.729 208.573,54.200 205.592 L 52.849 202.958 52.849 185.271 L 52.849 167.583 54.342 164.956 C 55.807 162.378,58.707 160.144,61.531 159.417 C 61.943 159.311,116.739 159.248,183.301 159.278 L 304.322 159.332 307.018 160.865 " stroke="none" fill="#b87474" fill-rule="evenodd"></path></g></svg>