<svg xmlns="http://www.w3.org/2000/svg" width="24" height="24">
    <path fill="#030303" d="M4.537 0h14.948c.777.152 1.394.78 1.56 1.551V22.42c-.165.758-.77 1.449-1.573 1.524l-.141-.06.132-.038c.815-.151 1.479-.895 1.449-1.738.002-6.741.002-13.481.001-20.221.046-.948-.808-1.803-1.756-1.759C14.4.125 9.644.125 4.887.128 3.972.086 3.124.88 3.131 1.801c-.008 6.769-.003 13.538-.004 20.307-.032.875.688 1.656 1.549 1.747l-.084.028-.182.065a2.025 2.025 0 0 1-1.411-1.496V1.55A2.011 2.011 0 0 1 4.536 0z"/>
    <path fill="#030303" d="M4.567.402C9.396.33 14.233.393 19.064.371c.842-.074 1.638.666 1.591 1.516 0 6.742.002 13.483-.001 20.226.032.802-.692 1.529-1.497 1.49-4.786-.001-9.572.005-14.358-.003-.778.005-1.454-.714-1.422-1.488-.002-6.742-.001-13.483-.001-20.225-.034-.698.503-1.365 1.191-1.485zm.09.633c-.391.074-.668.461-.642.854-.001 6.741-.004 13.482.001 20.224-.03.474.403.889.873.852 4.757.001 9.512.002 14.268-.001.466.032.884-.385.858-.852.005-6.741.002-13.482.001-20.223.042-.514-.446-.943-.949-.878-4.803.017-9.609-.032-14.41.024z"/>
    <path fill="#030303" d="M6.614 2.598l.484.001.001 1.306c.345-.433.679-.874 1.026-1.306.207-.001.413.003.62.002-.327.429-.661.853-.991 1.279.347.637.704 1.269 1.049 1.906l-.567.002c-.277-.503-.549-1.007-.828-1.508-.468.374-.275.992-.309 1.507l-.485.001V2.599zM9.576 2.604h1.821l-.001.512H10.06v.794l.939.001v.484l-.938.002c-.002.302-.002.605-.001.908l1.451.001.001.482c-.645.002-1.29.002-1.935 0a844.291 844.291 0 0 1 0-3.183zM12.42 2.605c.607-.002 1.214-.002 1.823 0l-.001.512h-1.336v.794l.937.001v.484l-.937.002c-.002.302-.002.605-.001.908l1.452.001v.482c-.646.002-1.292.002-1.937 0a1687.52 1687.52 0 0 1 0-3.182zM15.267 2.598c.542.035 1.115-.092 1.636.1.55.228.658 1.023.224 1.416-.36.369-.911.266-1.372.276-.005.466-.004.93-.004 1.396l-.484.001c-.001-1.063-.002-2.126 0-3.189zm.483.489c.001.275.001.55.008.826.286-.006.575.015.86-.021.32-.106.365-.626.043-.764-.295-.081-.609-.03-.911-.041zM6.769 7.104l.578-.002c.004 1.009-.007 2.018.005 3.027.547.002 1.094-.004 1.641.005v.55c-.742.004-1.483.005-2.225-.001V7.104zM9.517 7.103c.721 0 1.443-.004 2.165.002-.032.188.071.437-.097.573-.495.023-.992-.001-1.488.009-.001.285-.001.571.001.856.358-.001.717-.002 1.075-.001v.551c-.357.002-.716 0-1.073.001-.006.345-.005.69-.002 1.035h1.631l.002.558H9.517c.003-1.195.003-2.389 0-3.584zM12.334 7.104c.734-.003 1.467-.002 2.2-.001-.005.194-.006.389-.014.583-.538.001-1.075-.005-1.612.005-.001.283 0 .566.001.849.36.004.72.002 1.08.004-.002.183-.002.367-.003.55-.343.003-.686.003-1.028-.008-.105.527-.029 1.068-.05 1.602l-.575-.003c.002-1.194.002-2.387 0-3.581zM14.753 7.104c.74-.003 1.48-.002 2.22-.001-.005.195-.008.389-.014.584-.27-.004-.54.002-.808.003.002.999-.002 1.998.002 2.997l-.559-.001c.002-1 0-1.999.002-2.999-.276-.001-.552-.002-.828 0-.006-.195-.008-.389-.013-.583zM9.114 17.388c2.538-2.013 5.07-4.034 7.611-6.043.588.734 1.174 1.471 1.76 2.208-2.515 1.993-5.026 3.993-7.542 5.986.426.219.894.365 1.286.644.304.216.303.777-.119.849-2.118.364-4.246.683-6.365 1.047.724-1.965 1.446-3.93 2.174-5.894.076-.303.426-.559.716-.345.492.343.345 1.036.478 1.547z"/>
    <path fill="#fff" d="M3.132 1.801C3.125.881 3.973.086 4.888.128c4.757-.003 9.513-.003 14.27 0 .947-.043 1.802.811 1.756 1.759.001 6.741.001 13.481-.001 20.221.03.843-.634 1.587-1.449 1.738a899.704 899.704 0 0 0-14.786.008c-.862-.091-1.582-.872-1.549-1.747.001-6.769-.005-13.538.004-20.307zM4.567.402c-.688.12-1.225.787-1.191 1.485 0 6.742-.001 13.483.001 20.225-.032.774.644 1.492 1.422 1.488 4.786.007 9.572.002 14.358.003.805.04 1.529-.688 1.497-1.49.003-6.743.001-13.484.001-20.226.047-.85-.749-1.59-1.591-1.516C14.232.393 9.395.329 4.567.402z"/>
    <path fill="#fff" d="M4.657 1.035c4.801-.057 9.607-.007 14.41-.024.503-.065.992.364.949.878.001 6.742.004 13.482-.001 20.223.026.466-.392.883-.858.852-4.756.003-9.512.002-14.268.001-.47.037-.903-.378-.873-.852-.004-6.742-.002-13.483-.001-20.224-.025-.392.252-.78.642-.854zm1.957 1.563v3.189l.485-.001c.034-.515-.159-1.133.309-1.507.28.501.551 1.005.828 1.508l.567-.002c-.346-.638-.702-1.269-1.049-1.906.329-.427.664-.85.991-1.279-.207.001-.413-.003-.62-.002-.346.432-.681.873-1.026 1.306l-.001-1.306-.485-.001zm2.962.006a844.291 844.291 0 0 0 0 3.183c.645.002 1.29.002 1.935 0l-.001-.482-1.451-.001c-.001-.302-.001-.605.001-.908l.938-.002V3.91l-.939-.001v-.794h1.336l.001-.512H9.575zm2.844.001v3.182c.645.002 1.291.002 1.937 0a38.721 38.721 0 0 1 0-.482l-1.452-.001c-.001-.303-.001-.605.001-.908l.937-.002V3.91l-.937-.001v-.794h1.336l.001-.512c-.608-.002-1.215-.002-1.823 0zm2.847-.007c-.002 1.063-.001 2.126 0 3.189l.484-.001c0-.466-.001-.93.004-1.396.461-.01 1.012.093 1.372-.276.434-.392.327-1.187-.224-1.416-.521-.192-1.094-.065-1.636-.1zM6.769 7.104v3.579c.742.006 1.483.005 2.225.001v-.55c-.547-.008-1.094-.003-1.641-.005-.013-1.009-.002-2.018-.005-3.027l-.578.002zm2.748-.001c.003 1.195.003 2.389 0 3.584h2.214l-.002-.558h-1.631c-.004-.345-.005-.69.002-1.035.357-.001.716.001 1.073-.001v-.551c-.358-.001-.717 0-1.075.001a81.416 81.416 0 0 1-.001-.856c.495-.01.992.014 1.488-.009.169-.136.066-.385.097-.573-.722-.005-1.444-.002-2.164-.002zm2.817.001c.002 1.194.002 2.387 0 3.581l.575.003c.021-.534-.055-1.075.05-1.602.342.011.685.011 1.028.008.001-.183.001-.367.003-.55-.36-.002-.72 0-1.08-.004-.001-.283-.002-.566-.001-.849.538-.009 1.075-.004 1.612-.005.007-.194.009-.389.014-.583-.733-.001-1.466-.002-2.2.001zm2.419 0c.005.194.006.388.013.583.276-.002.552-.001.828 0-.002 1 0 1.999-.002 2.999l.559.001c-.004-.999 0-1.998-.002-2.997.269-.001.539-.006.808-.003.006-.195.009-.389.014-.584-.74-.001-1.48-.002-2.22.001zM9.114 17.388c-.134-.512.014-1.204-.478-1.547-.291-.215-.641.042-.716.345-.728 1.963-1.451 3.928-2.174 5.894 2.119-.364 4.248-.682 6.365-1.047.422-.072.423-.633.119-.849-.392-.279-.86-.425-1.286-.644 2.515-1.993 5.026-3.993 7.542-5.986a945.581 945.581 0 0 0-1.76-2.208c-2.542 2.009-5.073 4.03-7.611 6.043z"/>
    <path fill="#fff" d="M15.75 3.087c.302.011.616-.041.911.041.322.138.277.658-.043.764-.285.036-.574.014-.86.021-.007-.275-.007-.55-.008-.826z"/>
    <path fill="#555" d="M4.677 23.855c4.927-.052 9.858-.037 14.786-.008l-.132.038c-4.913.019-9.826.022-14.738-.002l.084-.028z"/>
    <path fill="#050505" opacity=".75" d="M4.411 23.948l.182-.065c4.913.023 9.826.021 14.738.002l.141.06.128.056H4.551l-.141-.052z"/>
</svg>
