<svg xmlns="http://www.w3.org/2000/svg" width="24" height="24">
    <path d="M6.212 0h11.983c.272.102.598.192.734.478-.3-.217-.64-.412-1.023-.395-3.8-.002-7.599-.002-11.399 0-.755-.015-1.431.675-1.423 1.425l.001 20.984c-.016.352.146.675.329.964-.252-.133-.318-.424-.414-.667V1.23A1.772 1.772 0 0 1 6.212 0z"/>
    <path d="M6.244.31C10.102.247 13.968.302 17.829.283c.679-.061 1.302.556 1.294 1.227v20.98c.035.627-.515 1.211-1.144 1.201-3.848.003-7.695.003-11.542 0-.599.006-1.132-.529-1.133-1.126-.006-6.994.001-13.987-.004-20.981-.035-.574.384-1.142.944-1.274zm.078.514a.751.751 0 0 0-.52.758c.003 6.97-.001 13.94.002 20.91a.664.664 0 0 0 .705.696c3.822-.002 7.644.003 11.466-.003.364.006.67-.334.645-.693.003-6.969-.001-13.939.002-20.91.04-.427-.357-.836-.79-.781-3.836.015-7.676-.028-11.511.022z"/>
    <path d="M15.117 1.983c.561-.143 1.186.144 1.42.68.316.703.295 1.633-.224 2.237-.462.515-1.392.5-1.828-.041-.669-.849-.539-2.543.632-2.876zm.062.562c-.616.302-.645 1.173-.409 1.736.164.457.828.597 1.144.222.349-.432.356-1.08.135-1.573a.698.698 0 0 0-.871-.386zM7.588 2.014c.783 0 1.566-.006 2.35.003l-.001.51c-.3.01-.6.004-.9.005-.004.892.001 1.784-.002 2.675-.185.002-.37.002-.556-.001-.001-.892.002-1.782-.001-2.674-.296-.002-.592.001-.889-.001a44.549 44.549 0 0 1 0-.517zM10.309 2.014c.187-.004.375-.003.564.005.121.636.229 1.276.365 1.909.154-.639.31-1.277.47-1.914.182-.004.363-.003.545.005.167.642.323 1.288.506 1.926.112-.643.228-1.286.344-1.929.184-.004.368-.005.551-.002a496.167 496.167 0 0 1-.569 3.193c-.199.002-.399.002-.598.001-.189-.63-.267-1.31-.516-1.911-.169.635-.321 1.274-.486 1.91-.195.002-.389.002-.584 0a689.39 689.39 0 0 1-.591-3.193zM6.898 6.789c.187-.001.373-.001.56.001.128.633.231 1.271.365 1.903.162-.63.316-1.263.465-1.895.18-.009.36-.011.539-.012.191.644.339 1.299.515 1.946.12-.646.23-1.295.35-1.942a50.6 50.6 0 0 1 .551 0c-.189 1.065-.375 2.13-.57 3.195l-.598-.001c-.169-.663-.321-1.33-.499-1.991-.166.664-.333 1.328-.502 1.992-.195.001-.389.001-.584-.001-.198-1.065-.396-2.129-.591-3.194zM11.99 6.786c.169.004.338.004.507-.001.472 1.057.902 2.133 1.355 3.198-.197.001-.394.002-.592.005-.11-.241-.21-.487-.303-.735-.464-.03-.93-.005-1.395-.013-.112.246-.21.497-.319.744-.194-.001-.39.018-.582-.019.453-1.055.866-2.128 1.329-3.179zm.257.774c-.154.378-.317.753-.469 1.132h.935a72.886 72.886 0 0 0-.466-1.132zM14.253 6.79c.225-.002.449-.001.673 0 .316.441.621.89.937 1.33.301-.445.608-.885.912-1.328.224-.001.45-.02.673.014-.441.634-.886 1.267-1.305 1.916-.019.42 0 .841-.008 1.261-.18.001-.36.001-.541.004-.039-.419.004-.841-.021-1.261-.419-.658-.884-1.289-1.32-1.937zM13.403 11.672c-.035-.269.325-.486.537-.293 1.234.854 2.469 1.707 3.691 2.577-1.24.842-2.477 1.689-3.718 2.531-.252.199-.603-.101-.52-.383.122-.416.245-.831.364-1.248-2.319-.002-4.639.001-6.958-.001-.002-.603-.001-1.206 0-1.81 2.308-.003 4.616.001 6.925-.001-.102-.458-.226-.912-.32-1.372zM10.504 17.391c.223-.186.579.063.518.333-.097.45-.215.896-.315 1.346 2.308.003 4.615-.001 6.923.002.002.603.003 1.206-.001 1.81-2.318.002-4.636-.002-6.955.002.115.419.244.837.363 1.256.074.277-.272.565-.52.375-1.241-.842-2.474-1.697-3.72-2.533 1.222-.881 2.466-1.733 3.705-2.59z"/>
    <path fill="#fff" d="M5.084 1.508C5.077.758 5.752.068 6.507.083c3.8-.002 7.599-.002 11.399 0 .383-.017.724.178 1.023.395l.008.008c.21.303.419.637.402 1.022v20.258c-.004.357.015.716-.026 1.072l-.095.317c-.18.243-.391.463-.645.63l-.066.035a2.718 2.718 0 0 1-.677.09c-3.798-.004-7.596.002-11.395-.004-.326.005-.62-.156-.892-.319a3.232 3.232 0 0 0-.132-.13c-.183-.29-.345-.612-.329-.964L5.081 1.509zM6.244.31c-.56.132-.979.701-.944 1.274.004 6.994-.002 13.987.004 20.981.001.597.534 1.132 1.133 1.126 3.847.003 7.694.003 11.542 0 .63.01 1.179-.574 1.144-1.201V1.51C19.13.839 18.508.221 17.829.283 13.968.302 10.102.248 6.244.31z"/>
    <path fill="#fff" d="M6.322.824c3.834-.05 7.674-.006 11.511-.022.432-.055.83.353.79.781-.003 6.97.001 13.94-.002 20.91.025.36-.281.7-.645.693-3.822.006-7.644.001-11.466.003a.664.664 0 0 1-.705-.696c-.003-6.97.001-13.94-.002-20.91a.75.75 0 0 1 .52-.758zm8.795 1.159c-1.171.332-1.301 2.027-.632 2.876.436.541 1.366.556 1.828.041.519-.604.541-1.534.224-2.237-.234-.535-.858-.823-1.42-.68zm-7.529.031v.517c.297.003.593-.001.889.001.004.892.001 1.782.001 2.674.185.003.37.003.556.001.004-.892-.001-1.783.002-2.675.301-.001.6.005.9-.005l.001-.51c-.783-.009-1.566-.003-2.35-.003zm2.721 0c.195 1.065.391 2.129.591 3.193.195.002.389.002.584 0 .166-.636.317-1.275.486-1.91.249.6.327 1.281.516 1.911.2.001.399.001.598-.001.192-1.064.383-2.128.569-3.193a14.451 14.451 0 0 0-.551.002c-.115.643-.231 1.286-.344 1.929-.183-.638-.339-1.284-.506-1.926a8.254 8.254 0 0 0-.545-.005c-.16.637-.316 1.276-.47 1.914-.135-.634-.244-1.273-.365-1.909a8.84 8.84 0 0 0-.564-.005zM6.898 6.789c.195 1.065.393 2.13.591 3.194l.584.001c.169-.664.336-1.328.502-1.992.178.661.33 1.328.499 1.991l.598.001c.195-1.065.381-2.13.57-3.195a50.6 50.6 0 0 0-.551 0c-.12.646-.23 1.295-.35 1.942-.176-.647-.324-1.302-.515-1.946a12.15 12.15 0 0 0-.539.012 93.464 93.464 0 0 1-.465 1.895c-.134-.632-.237-1.27-.365-1.903l-.56-.001zm5.092-.003c-.463 1.051-.876 2.124-1.329 3.179.192.037.388.017.582.019.109-.246.207-.498.319-.744.465.008.93-.017 1.395.013.093.248.193.494.303.735.197-.003.394-.004.592-.005-.453-1.065-.883-2.141-1.355-3.198a9.522 9.522 0 0 1-.507.001zm2.263.004c.436.649.901 1.279 1.32 1.937.025.419-.018.842.021 1.261.18-.003.36-.004.541-.004.008-.42-.012-.841.008-1.261.419-.649.864-1.281 1.305-1.916-.223-.034-.449-.014-.673-.014-.304.443-.61.883-.912 1.328-.316-.44-.621-.889-.937-1.33a50.326 50.326 0 0 0-.673 0zm-.85 4.882c.094.46.218.914.32 1.372-2.308.002-4.616-.001-6.925.001-.001.603-.002 1.206 0 1.81 2.319.003 4.639-.001 6.958.001-.119.417-.242.832-.364 1.248-.083.282.268.582.52.383 1.241-.842 2.478-1.689 3.718-2.531-1.222-.87-2.457-1.723-3.691-2.577-.212-.194-.572.024-.537.293zm-2.899 5.719c-1.239.858-2.484 1.71-3.705 2.59 1.245.836 2.479 1.692 3.72 2.533.248.19.593-.099.52-.375-.12-.419-.248-.836-.363-1.256 2.319-.004 4.637 0 6.955-.002.004-.603.003-1.206.001-1.81-2.308-.004-4.615.001-6.923-.002.099-.45.218-.896.315-1.346.061-.27-.295-.519-.518-.333z"/>
    <path fill="#fff" d="M15.179 2.545a.696.696 0 0 1 .871.386c.221.492.213 1.14-.135 1.573-.316.375-.981.235-1.145-.222-.236-.563-.208-1.434.409-1.736zM12.247 7.56c.158.376.314.753.466 1.132h-.935c.152-.378.315-.754.469-1.132z"/>
    <path fill="#020202" d="M18.938.486c.278.135.37.45.476.716v21.62l-.1.015c.041-.356.022-.714.026-1.072V1.507c.017-.385-.192-.719-.402-1.022z"/>
    <path fill="#181818" opacity=".84" d="M18.574 23.785c.254-.166.465-.387.645-.63-.053.315-.321.6-.645.63z"/>
    <path fill="#0b0b0b" opacity=".9" d="M5.546 23.586c.272.164.565.324.892.319 3.798.006 7.596-.001 11.395.004.228.004.455-.037.677-.09-.092.059-.179.125-.272.181H6.221c-.246-.094-.546-.155-.674-.414z"/>
</svg>
