<?xml version="1.0" encoding="utf-8"?>
<!-- Generated by IcoMoon.io -->
<!DOCTYPE svg PUBLIC "-//W3C//DTD SVG 1.1//EN" "http://www.w3.org/Graphics/SVG/1.1/DTD/svg11.dtd">
<svg version="1.1" xmlns="http://www.w3.org/2000/svg" xmlns:xlink="http://www.w3.org/1999/xlink" width="24" height="24" viewBox="0 0 24 24">
<path fill="#d71920" d="M10.256 0.805c2.056-0.324 4.204-0.1 6.131 0.694 2.663 1.066 4.878 3.19 6.076 5.794 0.989 2.123 1.286 4.554 0.863 6.854-0.672 3.841-3.475 7.213-7.122 8.586-2.279 0.902-4.854 1.003-7.212 0.349-3.2-0.893-5.952-3.25-7.312-6.284-1.2-2.611-1.343-5.683-0.412-8.401 0.805-2.381 2.429-4.471 4.529-5.85 1.336-0.896 2.874-1.478 4.459-1.741M10.433 2.983c-1.48 0.256-2.888 0.893-4.064 1.824 1.106 1.172 2.209 2.358 3.343 3.5l0.024 0.074 0.090 0.034c0.275 0.361 0.614 0.685 0.936 1.006 0.869 0.947 1.766 1.87 2.652 2.801 1.856 1.968 3.734 3.916 5.586 5.888 0.038-0.011 0.113-0.032 0.151-0.042 1.655-1.948 2.453-4.592 2.122-7.128-0.311-2.642-1.838-5.106-4.062-6.563-1.962-1.325-4.453-1.825-6.778-1.394M3.067 14.158c0.552 2.456 2.167 4.644 4.343 5.906 1.603 0.944 3.498 1.388 5.356 1.247 1.669-0.112 3.281-0.721 4.66-1.657-0.058-0.134-0.18-0.223-0.274-0.33-1.264-1.308-2.491-2.657-3.775-3.942-0.8-0.908-1.667-1.76-2.489-2.65l-0.139-0.061c-0.016-0.126-0.13-0.206-0.205-0.298-1.914-2-3.804-4.030-5.734-6.012-1.72 2.16-2.374 5.11-1.742 7.796z"></path>
<path fill="#fff" d="M10.433 2.983c2.324-0.431 4.816 0.070 6.778 1.394 2.224 1.457 3.751 3.92 4.062 6.563 0.331 2.536-0.467 5.18-2.122 7.128-0.038 0.010-0.113 0.031-0.151 0.042-1.852-1.973-3.73-3.92-5.586-5.888-0.060-1.343-0.002-2.693-0.029-4.039 0.418 0.077 0.829 0.182 1.238 0.296-0.827-1.457-1.661-2.91-2.507-4.356-0.809 1.39-1.61 2.785-2.405 4.184-1.134-1.142-2.237-2.328-3.343-3.5 1.176-0.931 2.585-1.568 4.064-1.824z"></path>
<path fill="#fff" d="M3.067 14.158c-0.631-2.687 0.023-5.636 1.742-7.796 1.93 1.982 3.82 4.012 5.734 6.012 0.076 0.091 0.19 0.172 0.205 0.298 0.012 2.605-0.011 5.213 0.012 7.819 0.877-0.011 1.756 0.012 2.633-0.012-0.017-1.699 0.016-3.398-0.017-5.096 1.284 1.285 2.512 2.634 3.775 3.942 0.094 0.107 0.216 0.196 0.274 0.33-1.379 0.936-2.99 1.546-4.66 1.657-1.858 0.142-3.752-0.302-5.356-1.247-2.176-1.262-3.791-3.45-4.343-5.906z"></path>
<path fill="#fff" d="M9.826 8.416c0.306-0.079 0.616-0.146 0.924-0.217 0.010 0.407-0.012 0.816 0.012 1.223-0.322-0.32-0.661-0.644-0.936-1.006z"></path>
<path fill="#231f20" d="M9.712 8.308c0.794-1.399 1.596-2.795 2.405-4.184 0.846 1.446 1.68 2.899 2.507 4.356-0.409-0.114-0.821-0.22-1.238-0.296 0.026 1.346-0.031 2.696 0.029 4.039-0.886-0.931-1.783-1.854-2.652-2.801-0.024-0.407-0.002-0.816-0.012-1.223-0.308 0.071-0.618 0.138-0.924 0.217l-0.090-0.034-0.024-0.074z"></path>
<path fill="#231f20" d="M10.748 12.671l0.139 0.061c0.822 0.889 1.688 1.741 2.489 2.65 0.032 1.698 0 3.397 0.017 5.096-0.877 0.024-1.756 0.001-2.633 0.012-0.023-2.606 0-5.214-0.012-7.819z"></path>
</svg>
