<?xml version="1.0" encoding="utf-8"?>
<!-- Generated by IcoMoon.io -->
<!DOCTYPE svg PUBLIC "-//W3C//DTD SVG 1.1//EN" "http://www.w3.org/Graphics/SVG/1.1/DTD/svg11.dtd">
<svg version="1.1" xmlns="http://www.w3.org/2000/svg" xmlns:xlink="http://www.w3.org/1999/xlink" width="24" height="24" viewBox="0 0 24 24">
<path fill="#fff" d="M20.319 23.915c0.653 0 1.183-0.53 1.183-1.183v-21.462c0-0.653-0.529-1.183-1.183-1.183h-16.492c-0.653 0-1.184 0.529-1.184 1.183v21.462c0 0.653 0.53 1.183 1.184 1.183h16.492z"></path>
<path fill="#231f20" d="M20.323 23.657h-16.491c-0.248 0-0.482-0.097-0.658-0.272s-0.272-0.409-0.272-0.658v-21.465c0-0.512 0.417-0.93 0.93-0.93h16.491c0.248 0 0.482 0.097 0.658 0.272s0.272 0.409 0.272 0.658v21.465c0 0.248-0.097 0.482-0.272 0.658s-0.409 0.272-0.658 0.272zM3.832 23.111h16.491c0.211 0 0.383-0.172 0.383-0.383v-21.465c0-0.102-0.040-0.198-0.112-0.271s-0.169-0.112-0.271-0.112h-16.491c-0.102 0-0.199 0.040-0.271 0.112s-0.113 0.169-0.113 0.271v21.465c0 0.102 0.040 0.199 0.113 0.271s0.169 0.113 0.271 0.113z"></path>
<path fill="#231f20" d="M4.854 5.531l-0.439 0.296 0.043 0.048c0.119 0.129 0.229 0.234 0.325 0.315 0.263 0.214 0.64 0.339 0.993 0.339 0.663 0 1.145-0.416 1.145-0.993 0-0.177-0.048-0.344-0.139-0.482-0.158-0.239-0.229-0.277-0.826-0.449l-0.296-0.086c-0.358-0.105-0.449-0.177-0.449-0.363 0-0.2 0.196-0.329 0.491-0.329 0.301 0 0.491 0.086 0.788 0.358l0.401-0.339c-0.086-0.11-0.124-0.143-0.272-0.248-0.31-0.215-0.592-0.311-0.911-0.311-0.596 0-1.022 0.372-1.022 0.893 0 0.162 0.043 0.315 0.124 0.439 0.162 0.243 0.391 0.358 0.945 0.482 0.458 0.105 0.63 0.229 0.63 0.458 0 0.267-0.277 0.458-0.659 0.458-0.325 0-0.563-0.124-0.83-0.434l-0.043-0.053z"></path>
<path fill="#231f20" d="M7.773 3.317v3.179h0.553v-1.255h0.902c0.611 0 1.050-0.406 1.050-0.969 0-0.568-0.42-0.955-1.036-0.955zM9.157 4.692h-0.835v-0.83h0.902c0.32 0 0.525 0.162 0.525 0.41 0 0.253-0.21 0.42-0.535 0.42h-0.057z"></path>
<path fill="#231f20" d="M14.078 3.317v3.179h2.319v-0.535h-1.761v-0.907h0.941v-0.539h-0.941v-0.664h1.723v-0.535h-2.281z"></path>
<path fill="#231f20" d="M17.029 3.317v3.179h0.902c0.94 0 1.594-0.649 1.594-1.589 0-0.925-0.634-1.589-1.527-1.589zM17.879 5.947h-0.301v-2.080h0.396c0.659 0 1.036 0.401 1.036 1.097 0 0.62-0.391 0.983-1.060 0.983h-0.071z"></path>
<path fill="#231f20" d="M6.26 8.089v3.179h2.314v-0.529h-1.761v-2.648h-0.553z"></path>
<path fill="#231f20" d="M9.149 11.268h0.549v-3.179h-0.549z"></path>
<path fill="#231f20" d="M10.541 8.089v3.179h0.539v-1.942l0.874 1.909 0.917-1.909v1.942h0.549l0.005-3.178h-0.563l-0.897 1.89-0.893-1.89h-0.529z"></path>
<path fill="#231f20" d="M14.27 11.268h0.549v-3.179h-0.549z"></path>
<path fill="#231f20" d="M16.306 8.619v2.648h0.563v-2.648h0.874v-0.529h-2.31v0.529h0.873z"></path>
<path fill="#231f20" d="M11.126 3.311v3.179h2.319v-0.535h-1.761v-0.907h0.941v-0.539h-0.941v-0.664h1.723v-0.535h-2.281z"></path>
<path fill="#231f20" d="M5.616 18.97l-0.647 1.223 0.156 0.072c1.259 0.515 2.038 0.683 2.974 0.683 1.774 0 3.093-1.187 3.093-2.794 0-1.534-1.223-2.782-2.746-2.782-0.611 0-1.211 0.108-1.738 0.3l0.072-1.463h3.813l0.024-1.331h-5.059l-0.276 3.849 1.235 0.396 0.192-0.072c0.743-0.276 1.163-0.372 1.63-0.372 0.863 0 1.534 0.623 1.534 1.439 0 0.851-0.731 1.486-1.739 1.486-0.743 0-1.498-0.192-2.518-0.635z"></path>
<path fill="#231f20" d="M12.58 17.098c0 2.338 1.378 4.017 3.285 4.017 1.955 0 3.285-1.655 3.285-4.1 0-2.47-1.282-4.064-3.285-4.064-1.99 0-3.285 1.63-3.285 4.148zM17.759 17.050c0 1.619-0.755 2.662-1.918 2.662-1.151 0-1.87-1.019-1.87-2.65 0-1.667 0.743-2.734 1.918-2.734 1.163 0 1.87 1.031 1.87 2.722z"></path>
</svg>
