<?xml version="1.0" encoding="utf-8"?>
<!-- Generated by IcoMoon.io -->
<!DOCTYPE svg PUBLIC "-//W3C//DTD SVG 1.1//EN" "http://www.w3.org/Graphics/SVG/1.1/DTD/svg11.dtd">
<svg version="1.1" xmlns="http://www.w3.org/2000/svg" xmlns:xlink="http://www.w3.org/1999/xlink" width="38" height="24" viewBox="0 0 38 24">
<path fill="#000" d="M0 0h38.4v24h-38.4v-24M1.608 0.18c-0.791-0.013-1.486 0.702-1.423 1.496 0.002 6.918-0.006 13.836 0.004 20.754-0.020 0.784 0.712 1.444 1.484 1.394 11.483-0.001 22.967-0.001 34.451 0 0.436-0.007 0.904 0.054 1.301-0.169 0.49-0.247 0.778-0.802 0.746-1.343-0.004-6.916 0.005-13.831-0.005-20.746 0.014-0.768-0.698-1.412-1.453-1.388-11.701-0.004-23.404-0.007-35.105 0.001z"></path>
<path fill="#000" d="M1.242 0.542c0.179-0.059 0.37-0.059 0.556-0.064 11.642 0.005 23.285-0.005 34.927 0.005 0.634-0.032 1.195 0.553 1.142 1.184 0.001 6.686 0 13.374 0 20.060-0.004 0.298 0.017 0.599-0.022 0.896-0.089 0.52-0.59 0.925-1.12 0.894-11.56 0.004-23.12-0.001-34.68 0.002-0.317-0.008-0.658 0.038-0.948-0.116-0.398-0.194-0.64-0.64-0.608-1.079 0-6.884 0-13.768 0-20.652-0.038-0.492 0.282-0.979 0.752-1.132M1.362 1.138c-0.203 0.090-0.295 0.318-0.276 0.529 0 6.888 0 13.777 0 20.665-0.054 0.33 0.242 0.647 0.578 0.588 11.648 0.001 23.297-0.002 34.945 0.002 0.312 0.060 0.671-0.146 0.658-0.491 0.008-6.918 0.001-13.836 0.004-20.754 0.048-0.316-0.218-0.626-0.544-0.594-11.6-0.010-23.202 0.001-34.804-0.006-0.186 0.012-0.388-0.025-0.562 0.060z"></path>
<path fill="#000" d="M15.42 4.040c0.725-0.202 1.604-0.091 2.123 0.5 0.608 0.691 0.752 1.655 0.787 2.544 0.012 0.92-0.125 1.898-0.656 2.675-0.74 1.094-2.662 1.026-3.282-0.158-0.606-1.127-0.702-2.491-0.408-3.724 0.19-0.767 0.604-1.625 1.436-1.837M15.544 5.123c-0.545 0.433-0.625 1.199-0.685 1.844-0.024 0.714 0.037 1.48 0.416 2.104 0.335 0.568 1.278 0.584 1.614 0.008 0.343-0.559 0.418-1.237 0.434-1.88-0.019-0.636-0.088-1.32-0.463-1.856-0.288-0.414-0.902-0.466-1.316-0.22z"></path>
<path fill="#000" d="M8.543 4.056c0.916 0.024 1.837-0.054 2.749 0.049 1.012 0.133 1.67 1.29 1.369 2.242-0.125 0.484-0.478 0.869-0.901 1.115 0.371 0.984 0.74 1.968 1.106 2.953-0.364 0.001-0.727 0.001-1.091 0.001-0.348-0.923-0.678-1.853-1.037-2.772-0.396 0.006-0.792 0.004-1.188 0.004 0 0.923-0.001 1.844 0 2.767-0.336 0.001-0.672 0.001-1.008 0.001 0-2.12-0.001-4.24 0-6.36M9.546 5.072c0.010 0.515 0.002 1.028 0.005 1.543 0.554-0.028 1.123 0.062 1.669-0.054 0.635-0.188 0.686-1.169 0.060-1.406-0.554-0.179-1.159-0.062-1.734-0.083z"></path>
<path fill="#000" d="M19.157 10.416c0.725-2.122 1.456-4.24 2.185-6.36 0.335 0 0.671 0 1.006 0 0.732 2.118 1.459 4.238 2.188 6.359-0.359 0.001-0.718 0.002-1.076 0-0.206-0.598-0.406-1.196-0.628-1.787-0.66 0.008-1.319 0.002-1.979 0.004-0.209 0.593-0.418 1.187-0.619 1.782-0.359 0.002-0.718 0.002-1.076 0.002M21.212 7.607c0.422 0.001 0.845 0.001 1.267 0-0.203-0.596-0.41-1.19-0.619-1.786-0.22 0.594-0.437 1.189-0.648 1.786z"></path>
<path fill="#000" d="M25.488 10.415c0.002-2.119-0.002-4.24 0.002-6.359 0.824 0.011 1.651-0.025 2.474 0.024 0.791 0.036 1.312 0.773 1.567 1.45 0.402 1.157 0.392 2.484-0.12 3.606-0.299 0.623-0.851 1.22-1.579 1.274-0.781 0.014-1.564 0.002-2.345 0.005M26.498 5.064c-0.002 1.44-0.001 2.88-0.001 4.32 0.63-0.058 1.496 0.224 1.883-0.449 0.552-1 0.552-2.296 0.088-3.33-0.358-0.76-1.302-0.499-1.969-0.541z"></path>
<path fill="#000" d="M4.404 14.368c0.558-0.924 1.856-1.094 2.778-0.67 0.452 0.22 0.751 0.642 0.965 1.082-0.313 0.13-0.626 0.26-0.941 0.39-0.223-0.33-0.515-0.703-0.964-0.661-0.528-0.076-1.009 0.301-1.164 0.792-0.335 0.985-0.328 2.108 0.072 3.074 0.217 0.548 0.894 0.799 1.43 0.582 0.295-0.112 0.455-0.4 0.613-0.654 0.319 0.119 0.638 0.238 0.958 0.36-0.241 0.562-0.648 1.103-1.254 1.291-0.786 0.23-1.753 0.092-2.302-0.564-0.458-0.553-0.642-1.278-0.739-1.976-0.12-1.034 0.010-2.138 0.547-3.047z"></path>
<path fill="#000" d="M9.544 13.592c0.335 0 0.67 0.001 1.006 0 0.004 1.807 0 3.614 0.001 5.422 0.98 0.004 1.961-0.002 2.941 0.004-0.001 0.31-0.001 0.619-0.001 0.929-1.316 0.001-2.633 0.001-3.949 0 0.001-2.118-0.002-4.236 0.002-6.354z"></path>
<path fill="#000" d="M15.762 13.62c0.72-0.24 1.616-0.199 2.183 0.359 0.581 0.58 0.779 1.423 0.85 2.214 0.084 1.016-0.025 2.099-0.556 2.99-0.662 1.151-2.581 1.184-3.287 0.062-0.81-1.402-0.848-3.233-0.162-4.693 0.204-0.409 0.532-0.775 0.972-0.932M16.133 14.598c-0.377 0.188-0.544 0.611-0.647 0.995-0.197 0.787-0.198 1.627 0.018 2.411 0.095 0.362 0.276 0.734 0.612 0.929 0.406 0.19 0.968 0.121 1.229-0.274 0.328-0.472 0.406-1.064 0.46-1.621 0.029-0.724-0.032-1.5-0.427-2.129-0.254-0.414-0.823-0.496-1.244-0.311z"></path>
<path fill="#000" d="M20.255 14.276c0.379-0.67 1.234-0.829 1.942-0.786 0.76 0.024 1.384 0.605 1.645 1.289-0.292 0.085-0.582 0.172-0.874 0.259-0.328-0.581-1.146-0.704-1.693-0.377-0.349 0.222-0.335 0.802 0.022 1.013 0.613 0.394 1.392 0.42 1.998 0.834 1.070 0.655 1.072 2.414 0.079 3.142-0.697 0.527-1.697 0.518-2.449 0.112-0.522-0.284-0.896-0.772-1.148-1.301 0.313-0.13 0.634-0.247 0.952-0.365 0.28 0.64 1.006 1.106 1.706 0.884 0.623-0.16 0.865-1.054 0.392-1.495-0.69-0.59-1.74-0.538-2.37-1.222-0.512-0.517-0.523-1.368-0.202-1.987z"></path>
<path fill="#000" d="M25.188 13.592c1.249 0 2.5 0.001 3.749 0 0.002 0.336 0.002 0.672 0 1.009-0.913-0.001-1.828-0.001-2.741-0.001 0 0.518-0.001 1.036 0 1.553 0.616 0 1.231 0 1.847 0 0.001 0.342 0.001 0.684 0 1.026-0.616 0.001-1.232-0.001-1.848 0.001 0.001 0.581 0 1.16 0.001 1.74 0.98 0.001 1.96 0 2.94 0.001 0 0.342 0 0.683 0 1.025-1.316 0.001-2.633 0.001-3.949 0 0-2.118-0.001-4.236 0.001-6.354z"></path>
<path fill="#000" d="M30.221 13.592c0.832 0.007 1.663-0.018 2.495 0.017 0.72 0.034 1.208 0.677 1.478 1.282 0.444 1.087 0.467 2.346 0.085 3.455-0.264 0.731-0.815 1.471-1.633 1.585-0.808 0.031-1.618 0.005-2.426 0.013 0-2.118-0.001-4.235 0.001-6.352M31.229 14.6c0.001 1.44-0.001 2.88 0.001 4.32 0.426-0.011 0.853 0.023 1.279-0.017 0.6-0.128 0.827-0.794 0.938-1.325 0.136-0.858 0.138-1.819-0.334-2.581-0.422-0.613-1.261-0.336-1.885-0.397z"></path>
<path fill="#fff" d="M1.608 0.18c11.701-0.008 23.404-0.005 35.105-0.001 0.755-0.024 1.468 0.62 1.453 1.388 0.010 6.914 0.001 13.83 0.005 20.746 0.031 0.541-0.257 1.096-0.746 1.343-0.397 0.223-0.865 0.162-1.301 0.169-11.484-0.001-22.968-0.001-34.451 0-0.773 0.049-1.505-0.611-1.484-1.394-0.010-6.918-0.001-13.836-0.004-20.754-0.062-0.794 0.632-1.51 1.423-1.496M1.242 0.542c-0.47 0.152-0.791 0.64-0.752 1.132 0 6.884 0 13.768 0 20.652-0.031 0.439 0.21 0.884 0.608 1.079 0.29 0.155 0.631 0.108 0.948 0.116 11.56-0.004 23.12 0.001 34.68-0.002 0.529 0.031 1.031-0.374 1.12-0.894 0.038-0.298 0.018-0.599 0.022-0.896 0-6.686 0.001-13.374 0-20.060 0.053-0.631-0.509-1.217-1.142-1.184-11.642-0.010-23.285 0-34.927-0.005-0.186 0.005-0.377 0.005-0.556 0.064z"></path>
<path fill="#fff" d="M1.362 1.138c0.174-0.085 0.376-0.048 0.562-0.060 11.602 0.007 23.203-0.004 34.804 0.006 0.325-0.032 0.592 0.278 0.544 0.594-0.002 6.918 0.005 13.836-0.004 20.754 0.013 0.344-0.346 0.551-0.658 0.491-11.648-0.005-23.297-0.001-34.945-0.002-0.336 0.059-0.632-0.258-0.578-0.588 0-6.888 0-13.777 0-20.665-0.019-0.211 0.073-0.439 0.276-0.529M15.42 4.040c-0.833 0.212-1.247 1.070-1.436 1.837-0.294 1.232-0.198 2.597 0.408 3.724 0.62 1.184 2.542 1.253 3.282 0.158 0.532-0.776 0.668-1.754 0.656-2.675-0.035-0.889-0.179-1.853-0.787-2.544-0.518-0.592-1.398-0.702-2.123-0.5M8.543 4.056c-0.001 2.12 0 4.24 0 6.36 0.336 0 0.672 0 1.008-0.001-0.001-0.923 0-1.844 0-2.767 0.396 0 0.792 0.002 1.188-0.004 0.359 0.919 0.689 1.849 1.037 2.772 0.364 0 0.727 0 1.091-0.001-0.366-0.985-0.736-1.969-1.106-2.953 0.424-0.246 0.776-0.631 0.901-1.115 0.301-0.952-0.358-2.108-1.369-2.242-0.912-0.103-1.834-0.025-2.749-0.049M19.157 10.416c0.359 0 0.718 0 1.076-0.002 0.202-0.595 0.41-1.189 0.619-1.782 0.66-0.001 1.319 0.005 1.979-0.004 0.222 0.59 0.421 1.189 0.628 1.787 0.359 0.002 0.718 0.001 1.076 0-0.728-2.12-1.456-4.241-2.188-6.359-0.335 0-0.671 0-1.006 0-0.73 2.12-1.46 4.238-2.185 6.36M25.488 10.415c0.781-0.002 1.564 0.010 2.345-0.005 0.728-0.054 1.28-0.652 1.579-1.274 0.512-1.122 0.522-2.449 0.12-3.606-0.256-0.677-0.776-1.414-1.567-1.45-0.823-0.049-1.65-0.013-2.474-0.024-0.005 2.119 0 4.24-0.002 6.359M4.404 14.368c-0.538 0.908-0.667 2.012-0.547 3.047 0.097 0.698 0.281 1.423 0.739 1.976 0.548 0.656 1.516 0.794 2.302 0.564 0.606-0.188 1.013-0.73 1.254-1.291-0.319-0.122-0.638-0.241-0.958-0.36-0.158 0.254-0.318 0.542-0.613 0.654-0.536 0.217-1.213-0.034-1.43-0.582-0.4-0.966-0.407-2.089-0.072-3.074 0.155-0.491 0.636-0.868 1.164-0.792 0.449-0.042 0.74 0.331 0.964 0.661 0.314-0.13 0.628-0.26 0.941-0.39-0.214-0.44-0.512-0.863-0.965-1.082-0.922-0.425-2.22-0.254-2.778 0.67M9.544 13.592c-0.005 2.118-0.001 4.236-0.002 6.354 1.316 0.001 2.633 0.001 3.949 0 0-0.31 0-0.619 0.001-0.929-0.98-0.006-1.961 0-2.941-0.004-0.001-1.807 0.002-3.614-0.001-5.422-0.336 0.001-0.671 0-1.006 0M15.762 13.62c-0.44 0.157-0.768 0.523-0.972 0.932-0.686 1.46-0.648 3.292 0.162 4.693 0.706 1.122 2.624 1.088 3.287-0.062 0.53-0.892 0.64-1.974 0.556-2.99-0.071-0.791-0.269-1.634-0.85-2.214-0.566-0.558-1.463-0.599-2.183-0.359M20.255 14.276c-0.322 0.619-0.311 1.47 0.202 1.987 0.63 0.684 1.68 0.631 2.37 1.222 0.473 0.442 0.23 1.336-0.392 1.495-0.701 0.222-1.427-0.245-1.706-0.884-0.318 0.118-0.638 0.235-0.952 0.365 0.252 0.529 0.626 1.016 1.148 1.301 0.752 0.407 1.752 0.415 2.449-0.112 0.992-0.727 0.991-2.486-0.079-3.142-0.606-0.414-1.385-0.44-1.998-0.834-0.356-0.211-0.371-0.791-0.022-1.013 0.547-0.328 1.366-0.204 1.693 0.377 0.292-0.088 0.582-0.174 0.874-0.259-0.262-0.684-0.886-1.265-1.645-1.289-0.708-0.043-1.562 0.116-1.942 0.786M25.188 13.592c-0.002 2.118-0.001 4.236-0.001 6.354 1.316 0.001 2.633 0.001 3.949 0 0-0.342 0-0.683 0-1.025-0.98-0.001-1.96 0-2.94-0.001-0.001-0.58 0-1.159-0.001-1.74 0.616-0.002 1.232 0 1.848-0.001 0.001-0.342 0.001-0.684 0-1.026-0.616 0-1.231 0-1.847 0-0.001-0.517 0-1.034 0-1.553 0.913 0 1.828 0 2.741 0.001 0.002-0.337 0.002-0.673 0-1.009-1.249 0.001-2.5 0-3.749 0M30.221 13.592c-0.002 2.117-0.001 4.234-0.001 6.352 0.809-0.008 1.619 0.018 2.426-0.013 0.818-0.114 1.369-0.854 1.633-1.585 0.382-1.109 0.359-2.368-0.085-3.455-0.27-0.605-0.758-1.248-1.478-1.282-0.832-0.035-1.663-0.010-2.495-0.017z"></path>
<path fill="#fff" d="M9.546 5.072c0.575 0.020 1.18-0.096 1.734 0.083 0.626 0.238 0.575 1.218-0.060 1.406-0.546 0.116-1.115 0.026-1.669 0.054-0.002-0.515 0.005-1.028-0.005-1.543z"></path>
<path fill="#fff" d="M15.544 5.123c0.414-0.246 1.028-0.194 1.316 0.22 0.376 0.536 0.444 1.22 0.463 1.856-0.017 0.643-0.091 1.321-0.434 1.88-0.336 0.576-1.279 0.559-1.614-0.008-0.379-0.624-0.44-1.39-0.416-2.104 0.060-0.646 0.14-1.411 0.685-1.844z"></path>
<path fill="#fff" d="M26.498 5.064c0.667 0.042 1.612-0.218 1.969 0.541 0.464 1.034 0.464 2.33-0.088 3.33-0.386 0.673-1.253 0.391-1.883 0.449 0-1.44-0.001-2.88 0.001-4.32z"></path>
<path fill="#fff" d="M21.212 7.607c0.211-0.596 0.428-1.192 0.648-1.786 0.209 0.595 0.416 1.189 0.619 1.786-0.422 0.001-0.845 0.001-1.267 0z"></path>
<path fill="#fff" d="M16.133 14.598c0.421-0.185 0.99-0.103 1.244 0.311 0.395 0.629 0.456 1.405 0.427 2.129-0.054 0.557-0.132 1.15-0.46 1.621-0.26 0.395-0.823 0.463-1.229 0.274-0.336-0.194-0.517-0.566-0.612-0.929-0.216-0.784-0.215-1.624-0.018-2.411 0.103-0.384 0.27-0.806 0.647-0.995z"></path>
<path fill="#fff" d="M31.229 14.6c0.624 0.061 1.463-0.216 1.885 0.397 0.472 0.762 0.469 1.723 0.334 2.581-0.112 0.53-0.338 1.196-0.938 1.325-0.426 0.040-0.853 0.006-1.279 0.017-0.002-1.44 0-2.88-0.001-4.32z"></path>
</svg>
