<?xml version="1.0" encoding="utf-8"?>
<!-- Generated by IcoMoon.io -->
<!DOCTYPE svg PUBLIC "-//W3C//DTD SVG 1.1//EN" "http://www.w3.org/Graphics/SVG/1.1/DTD/svg11.dtd">
<svg version="1.1" xmlns="http://www.w3.org/2000/svg" xmlns:xlink="http://www.w3.org/1999/xlink" width="24" height="24" viewBox="0 0 24 24">
<path fill="#9d9d9c" d="M2.879 0.061l0.004-0.001c-0.002 0.001-0.006 0.002-0.009 0.003l0.005-0.003z"></path>
<path fill="#9d9d9c" d="M5.584 17.379c0.174 0.011-0.083 0.158 0 0z"></path>
<path fill="#1a1919" d="M2.884 0.060c0.177-0.027 0.357-0.022 0.536-0.019 5.826 0.001 11.651-0.024 17.476 0.011 0.249 0.002 0.475 0.138 0.657 0.297 0.212 0.193 0.395 0.437 0.447 0.725v21.934c-0.072 0.437-0.411 0.786-0.787 0.992h-18.428c-0.374-0.207-0.711-0.554-0.785-0.988v-21.913c0.069-0.48 0.467-0.823 0.875-1.036 0.003-0.001 0.007-0.003 0.009-0.003M2.969 0.194c-0.537 0.162-0.934 0.717-0.893 1.28 0.003 7.106 0 14.213 0.002 21.319 0.032 0.653 0.636 1.217 1.295 1.184 5.666 0.004 11.331 0 16.997 0.002 0.228 0.003 0.459-0.003 0.681-0.063 0.402-0.128 0.708-0.476 0.831-0.874 0.055-0.184 0.036-0.378 0.038-0.568-0.001-7.051 0.001-14.102-0.001-21.152-0.006-0.311-0.173-0.593-0.376-0.817-0.249-0.259-0.609-0.371-0.962-0.366-5.721-0.001-11.441-0.001-17.162-0.001-0.152 0.004-0.303 0.022-0.451 0.056z"></path>
<path fill="#1a1919" d="M3.274 0.433c0.083-0.011 0.166-0.016 0.25-0.018 5.651 0.001 11.301 0.001 16.952 0 0.222 0.009 0.458 0.022 0.648 0.15 0.208 0.117 0.356 0.318 0.451 0.534 0.092 0.201 0.066 0.426 0.068 0.64-0.001 6.983 0 13.966-0.001 20.948-0.005 0.324-0.194 0.632-0.451 0.821-0.249 0.188-0.575 0.199-0.874 0.194-5.631-0.003-11.262 0.003-16.893-0.003-0.554 0.019-1.059-0.462-1.071-1.014-0.001-6.983 0-13.966-0.001-20.949 0.003-0.172-0.015-0.347 0.026-0.516 0.114-0.403 0.463-0.755 0.894-0.787M3.234 0.986c-0.222 0.072-0.366 0.311-0.347 0.541 0.002 7.035 0 14.069 0.001 21.104-0.007 0.205 0.124 0.405 0.31 0.488 0.17 0.071 0.359 0.045 0.538 0.050 5.596-0.001 11.193 0 16.789-0.001 0.302 0.029 0.596-0.226 0.585-0.533 0.001-7.054 0.001-14.108 0-21.162 0.008-0.307-0.284-0.546-0.581-0.524-5.58-0.004-11.161-0.001-16.741-0.002-0.185 0.002-0.375-0.015-0.555 0.038z"></path>
<path fill="#1a1919" d="M12.468 3.995c0.135-0.083 0.297-0.055 0.438-0.003 1.747 0.617 3.495 1.233 5.243 1.85-1.223 1.441-2.448 2.879-3.67 4.321-0.095 0.094-0.241 0.121-0.369 0.133-0.287 0.005-0.491-0.288-0.465-0.557 0.021-0.481 0.044-0.961 0.064-1.442-0.744 0.197-1.519 0.347-2.183 0.755-0.497 0.348-0.977 0.746-1.308 1.262-0.521 0.778-0.886 1.687-0.895 2.634 0.001 1.036 0.001 2.072 0.001 3.107-0.809 0-1.618 0-2.427 0 0.006-0.997 0.005-1.994 0.017-2.991 0.043-0.786 0.125-1.583 0.397-2.326 0.268-0.745 0.681-1.431 1.161-2.057 0.421-0.541 0.952-0.984 1.504-1.384 0.505-0.395 1.114-0.623 1.713-0.833 0.475-0.168 0.97-0.272 1.455-0.407-0.291-0.461-0.591-0.915-0.877-1.378-0.145-0.23-0.051-0.574 0.202-0.684z"></path>
<path fill="#1a1919" d="M7.379 17.272c0.337-0.036 0.71 0.039 0.952 0.294 0.304 0.258 0.407 0.659 0.499 1.030 0.143 0.727 0.114 1.52-0.257 2.179-0.117 0.275-0.358 0.486-0.639 0.583-0.359 0.078-0.759 0.088-1.093-0.086-0.235-0.149-0.435-0.365-0.53-0.63-0.393-0.947-0.366-2.097 0.205-2.969 0.209-0.256 0.533-0.399 0.863-0.402M7.177 17.972c-0.222 0.142-0.331 0.405-0.389 0.653-0.147 0.607-0.131 1.278 0.159 1.842 0.127 0.242 0.428 0.344 0.685 0.277 0.236-0.017 0.371-0.243 0.461-0.435 0.188-0.523 0.235-1.106 0.098-1.647-0.075-0.236-0.137-0.51-0.357-0.656-0.194-0.127-0.448-0.115-0.658-0.034z"></path>
<path fill="#1a1919" d="M9.775 17.328c0.212-0.001 0.423-0.001 0.634-0.001 0.489 0.855 0.977 1.711 1.466 2.565 0.001-0.855 0.001-1.71 0.001-2.565 0.211-0.001 0.423-0.001 0.634 0-0.001 1.339 0 2.678-0.001 4.018-0.186-0.001-0.372-0.001-0.558 0.002-0.521-0.902-1.023-1.814-1.541-2.717-0.003 0.905 0 1.81-0.001 2.715-0.212 0-0.423 0-0.634-0.001 0.001-1.339 0-2.678 0-4.017z"></path>
<path fill="#1a1919" d="M13.455 17.328c0.212-0.001 0.423-0.001 0.634 0 0 1.142 0 2.284 0 3.425 0.62 0.001 1.24 0 1.861 0.001 0.001 0.197 0.001 0.394-0.001 0.592-0.831-0.001-1.663 0-2.494-0.001 0-1.339 0-2.678 0-4.017z"></path>
<path fill="#1a1919" d="M15.415 17.328c0.254 0.001 0.507-0.001 0.762 0.001 0.318 0.517 0.638 1.033 0.958 1.55 0.325-0.517 0.648-1.035 0.974-1.551 0.248 0.001 0.497 0 0.746 0.001-0.46 0.757-0.935 1.505-1.387 2.266-0.021 0.583-0.002 1.168-0.009 1.752-0.211 0-0.423 0-0.634-0.001-0.001-0.555-0.001-1.109 0.001-1.664 0.008-0.108-0.072-0.193-0.122-0.281-0.431-0.69-0.859-1.382-1.288-2.074z"></path>
<path fill="#fffffe" d="M2.969 0.194c0.148-0.034 0.299-0.052 0.451-0.056 5.721 0 11.441 0 17.162 0.001 0.353-0.005 0.713 0.107 0.962 0.366 0.203 0.224 0.369 0.507 0.376 0.817 0.002 7.051 0 14.102 0.001 21.152-0.002 0.189 0.016 0.384-0.038 0.568-0.123 0.398-0.429 0.746-0.831 0.874-0.222 0.059-0.453 0.066-0.681 0.063-5.666-0.002-11.331 0.002-16.997-0.002-0.659 0.033-1.264-0.531-1.295-1.184-0.002-7.106 0.002-14.213-0.002-21.319-0.041-0.563 0.356-1.118 0.893-1.28M3.274 0.433c-0.431 0.032-0.78 0.385-0.894 0.787-0.041 0.169-0.024 0.344-0.026 0.516 0.001 6.983 0 13.966 0.001 20.949 0.011 0.552 0.517 1.033 1.071 1.014 5.631 0.005 11.262-0.001 16.893 0.003 0.299 0.006 0.625-0.006 0.874-0.194 0.257-0.189 0.445-0.497 0.451-0.821 0.001-6.983 0-13.965 0.001-20.948-0.003-0.214 0.023-0.439-0.068-0.64-0.095-0.215-0.243-0.416-0.451-0.534-0.19-0.128-0.427-0.141-0.648-0.15-5.651 0.001-11.301 0.001-16.952 0-0.084 0.002-0.167 0.007-0.25 0.018z"></path>
<path fill="#fffffe" d="M3.234 0.986c0.179-0.053 0.369-0.036 0.555-0.038 5.58 0.002 11.161-0.002 16.741 0.002 0.297-0.022 0.589 0.217 0.581 0.524 0.001 7.054 0.001 14.108 0 21.162 0.012 0.307-0.283 0.563-0.585 0.533-5.596 0.001-11.193-0.001-16.789 0.001-0.179-0.005-0.368 0.021-0.538-0.050-0.186-0.083-0.317-0.283-0.31-0.488-0.001-7.035 0.001-14.069-0.001-21.104-0.019-0.229 0.125-0.469 0.347-0.541M12.468 3.995c-0.252 0.11-0.347 0.454-0.202 0.684 0.286 0.463 0.586 0.918 0.877 1.378-0.485 0.135-0.98 0.239-1.455 0.407-0.599 0.211-1.208 0.438-1.713 0.833-0.553 0.4-1.083 0.843-1.504 1.384-0.48 0.627-0.893 1.313-1.161 2.057-0.273 0.744-0.355 1.541-0.397 2.326-0.012 0.997-0.011 1.994-0.017 2.991 0.809 0 1.618 0 2.427 0 0-1.036 0.001-2.072-0.001-3.107 0.009-0.946 0.375-1.856 0.895-2.634 0.331-0.516 0.812-0.914 1.308-1.262 0.664-0.408 1.439-0.557 2.183-0.755-0.021 0.481-0.043 0.961-0.064 1.442-0.026 0.268 0.178 0.562 0.465 0.557 0.128-0.012 0.274-0.039 0.369-0.133 1.222-1.441 2.447-2.88 3.67-4.321-1.747-0.617-3.495-1.233-5.243-1.85-0.141-0.052-0.303-0.080-0.438 0.003M7.379 17.272c-0.329 0.003-0.654 0.145-0.863 0.402-0.571 0.872-0.598 2.022-0.205 2.969 0.095 0.265 0.295 0.481 0.53 0.63 0.334 0.174 0.733 0.164 1.093 0.086 0.281-0.097 0.522-0.308 0.639-0.583 0.371-0.659 0.4-1.452 0.257-2.179-0.092-0.371-0.195-0.772-0.499-1.030-0.242-0.254-0.614-0.33-0.952-0.294M9.775 17.328c0 1.339 0.001 2.678 0 4.017 0.212 0.001 0.423 0.001 0.634 0.001 0.001-0.905-0.002-1.81 0.001-2.715 0.518 0.904 1.021 1.816 1.541 2.717 0.186-0.003 0.372-0.003 0.558-0.002 0.001-1.339 0-2.679 0.001-4.018-0.212-0.001-0.423-0.001-0.634 0 0 0.855 0 1.71-0.001 2.565-0.489-0.855-0.977-1.71-1.466-2.565-0.211 0-0.422 0-0.634 0.001M13.455 17.328c0 1.339 0 2.678 0 4.017 0.832 0.001 1.663 0 2.494 0.001 0.001-0.198 0.001-0.395 0.001-0.592-0.621-0.001-1.241 0-1.861-0.001 0-1.142 0-2.284 0-3.425-0.212-0.001-0.423-0.001-0.634 0M15.415 17.328c0.429 0.692 0.857 1.384 1.288 2.074 0.050 0.088 0.129 0.172 0.122 0.281-0.001 0.555-0.001 1.109-0.001 1.664 0.211 0.001 0.423 0.001 0.634 0.001 0.007-0.584-0.012-1.169 0.009-1.752 0.452-0.761 0.927-1.509 1.387-2.266-0.249-0.001-0.497 0-0.746-0.001-0.326 0.516-0.649 1.034-0.974 1.551-0.32-0.517-0.639-1.033-0.958-1.55-0.254-0.002-0.508-0.001-0.762-0.001M5.584 17.379c-0.083 0.158 0.174 0.011 0 0z"></path>
<path fill="#fffffe" d="M7.177 17.972c0.209-0.081 0.464-0.093 0.658 0.034 0.22 0.146 0.282 0.42 0.357 0.656 0.137 0.541 0.091 1.124-0.098 1.647-0.090 0.193-0.225 0.418-0.461 0.435-0.257 0.067-0.558-0.035-0.685-0.277-0.291-0.564-0.307-1.235-0.159-1.842 0.058-0.248 0.167-0.512 0.389-0.653z"></path>
</svg>
