<svg xmlns="http://www.w3.org/2000/svg" width="24" height="24">
    <path fill="#ec1c24" d="M10.962 2.089c3.69-.518 7.547 1.252 9.616 4.338 1.637 2.37 2.167 5.458 1.418 8.238-.906 3.523-3.854 6.422-7.402 7.241-3.904 1.009-8.284-.668-10.573-3.971-2.252-3.083-2.491-7.469-.576-10.774 1.529-2.741 4.394-4.697 7.517-5.072zM5.286 10.2c-.002 1.267-.006 2.534.001 3.802h13.906c.007-1.267.004-2.534.001-3.802a6447.75 6447.75 0 0 0-13.908 0z"/>
    <path fill="#fff" d="M5.286 10.2c4.636-.005 9.272-.005 13.908 0 .002 1.267.006 2.534-.001 3.802H5.287c-.007-1.267-.004-2.534-.001-3.802z"/>
</svg>
