<?xml version="1.0" encoding="utf-8"?>
<!-- Generator: Adobe Illustrator 16.0.2, SVG Export Plug-In . SVG Version: 6.00 Build 0)  -->
<!DOCTYPE svg PUBLIC "-//W3C//DTD SVG 1.1//EN" "http://www.w3.org/Graphics/SVG/1.1/DTD/svg11.dtd">
<svg version="1.1"
	 id="Layer_1" xmlns:svg="http://www.w3.org/2000/svg" inkscape:output_extension="org.inkscape.output.svg.inkscape" xmlns:dc="http://purl.org/dc/elements/1.1/" xmlns:inkscape="http://www.inkscape.org/namespaces/inkscape" xmlns:cc="http://creativecommons.org/ns#" xmlns:rdf="http://www.w3.org/1999/02/22-rdf-syntax-ns#" xmlns:sodipodi="http://sodipodi.sourceforge.net/DTD/sodipodi-0.dtd" inkscape:version="0.46" sodipodi:docname="Signal_B14_15.svg" sodipodi:version="0.32"
	 xmlns="http://www.w3.org/2000/svg" xmlns:xlink="http://www.w3.org/1999/xlink" x="0px" y="0px" width="576px" height="576px"
	 viewBox="0 0 576 576" style="enable-background:new 0 0 576 576;" xml:space="preserve">
<defs>
	
	
		<inkscape:perspective  id="perspective2469" inkscape:vp_z="576 : 288 : 1" inkscape:vp_x="0 : 288 : 1" sodipodi:type="inkscape:persp3d" inkscape:vp_y="0 : 1000 : 0" inkscape:persp3d-origin="288 : 192 : 1">
		</inkscape:perspective>
</defs>
<sodipodi:namedview  id="base" gridtolerance="10.0" borderopacity="1.0" showgrid="false" guidetolerance="10.0" bordercolor="#666666" inkscape:cy="311.23092" pagecolor="#ffffff" inkscape:zoom="0.54954702" objecttolerance="10.0" inkscape:cx="123.15811" inkscape:pageopacity="0.0" inkscape:pageshadow="2" inkscape:window-width="1280" inkscape:window-height="948" inkscape:current-layer="Layer_1" inkscape:window-y="25" inkscape:window-x="0">
	</sodipodi:namedview>
<circle id="circle2448" style="fill:#FFFFFF;stroke:#000000;stroke-linecap:round;stroke-linejoin:round;" cx="287.057" cy="287.057" r="286.969"/>
<circle id="circle2450" style="fill:#FF0000;stroke:#FF0000;stroke-width:0.1764;stroke-linecap:round;stroke-linejoin:round;" cx="287.057" cy="287.057" r="273.982"/>
<circle id="circle2452" style="fill:#FFFFFF;stroke:#FF0000;stroke-width:0.1764;stroke-linecap:round;stroke-linejoin:round;" cx="287.057" cy="287.057" r="192.438"/>
<g>
	<rect x="80.619" y="208.047" style="fill:none;" width="384.875" height="266.448"/>
	<path d="M188.768,208.271v164.258h-32.749l0.118-115.954h-0.47c-0.235,0.97-3.052,3.095-8.452,6.374l-10.212,5.144l-9.156,3.354
		c-3.679,0.746-5.674,1.305-5.986,1.677v-34.663l7.278-3.243c12.128-7.38,20.853-16.362,26.176-26.948H188.768z"/>
	<path d="M287.74,208.271v164.258h-32.75l0.118-115.954h-0.47c-0.235,0.97-3.052,3.095-8.452,6.374l-10.212,5.144l-9.156,3.354
		c-3.679,0.746-5.674,1.305-5.986,1.677v-34.663l7.278-3.243c12.128-7.38,20.853-16.362,26.176-26.948H287.74z"/>
	<path d="M327.413,307.899c-0.234-4.174-0.352-8.274-0.352-12.3c0-2.013,0.038-4.025,0.117-6.038
		c0.234-7.9,0.898-15.579,1.995-23.034v-0.782l0.47-1.007l0.822-7.716l0.587-1.117l1.174-6.262l0.469-0.672
		c1.174-5.367,3.716-11.405,7.63-18.114l3.404-4.92l6.573-6.374c6.964-5.367,16.002-9.206,27.115-11.517
		c3.521-0.596,7.16-0.895,10.916-0.895h0.939c5.868,0.15,12.011,1.082,18.429,2.795c2.659,0.299,6.925,1.976,12.794,5.032
		c6.025,3.578,11.503,8.461,16.434,14.648l3.756,5.479l3.052,6.15l1.291,4.473l0.353,0.336v1.117
		c0.781,1.566,1.251,2.796,1.408,3.69l0.47,0.56l1.995,9.951l0.353,0.224l-0.234,1.454l0.469,0.895l1.174,11.964l0.47,1.118
		l-0.352,0.111l0.821,7.045l-0.234,0.224c0.312,0.746,0.312,1.193,0,1.342l0.352,1.118l-0.234,0.336l0.587,7.604l-0.235,0.223
		l0.353,3.243l-0.117,0.224v4.473c-0.079,2.759-0.313,6.076-0.704,9.951l-0.587,4.138l0.234,0.224l-0.587,1.118
		c-0.234,2.759-0.9,6.038-1.995,9.84l-0.705,2.124l-0.117,1.23l-3.052,8.274l-0.587,0.447c0,0.746-1.018,3.019-3.052,6.821
		l-5.634,7.715c-6.183,6.784-13.029,11.74-20.542,14.871c-4.93,1.864-9.9,3.093-14.907,3.69l-9.038,0.56l-2.113-0.112
		c-17.842-0.447-32.241-5.963-43.196-16.549c-5.399-5.739-9.469-12.411-12.207-20.015c-3.131-7.753-5.048-15.915-5.752-24.488
		L327.413,307.899z M385.869,341.668c4.851,0.299,7.864,0.224,9.038-0.224l0.117,0.224l6.456-1.342
		c5.165-1.639,9.115-5.181,11.855-10.622c2.113-5.441,3.678-11.927,4.695-19.457l0.587-25.27l-0.353-11.854l-1.174-8.833
		l-0.469-0.447l-1.526-6.262l-0.47-0.224c-1.174-4.473-3.404-8.609-6.69-12.412c-2.506-1.938-4.501-3.204-5.986-3.801l-6.809-1.565
		l-7.16-0.335c-3.209-0.073-6.77,0.559-10.682,1.901c-3.6,1.64-6.613,4.584-9.038,8.833c-1.722,3.952-3.286,8.908-4.695,14.872
		l0.235,0.67c-0.47,0.374-0.745,1.604-0.822,3.69c-1.097,8.722-1.214,21.507-0.352,38.353l1.878,12.188l2.465,8.61
		c1.799,4.473,4.265,7.715,7.395,9.728C377.183,339.806,381.016,340.997,385.869,341.668z"/>
</g>
</svg>
