<svg xmlns="http://www.w3.org/2000/svg" width="24" height="24">
    <path fill="#131313" opacity=".94" d="M4.251 0h15.452l.127.127C14.591.072 9.349.102 4.11.112L4.251 0z"/>
    <path fill="#fff" d="M3.095 1.215C3.231.699 3.63.318 4.11.112c5.239-.01 10.481-.04 15.72.015.074.015.148.029.223.042.029.175.222.232.371.261l.132.136c.177.314.334.655.329 1.024.006 7.027-.002 14.055.004 21.083a4.103 4.103 0 0 1-.161.468 8.044 8.044 0 0 1-.587.581c-.132.055-.268.103-.402.154-5.163.013-10.326-.009-15.488.011a1.632 1.632 0 0 1-1.166-1.172c.031-7.166.012-14.334.01-21.5zM4.239.458a1.133 1.133 0 0 0-.822 1.134c-.001 6.938-.004 13.878.001 20.816-.025.629.552 1.191 1.182 1.139l14.8-.001c.621.041 1.18-.52 1.156-1.138.006-6.938.003-13.877.001-20.815.046-.675-.586-1.249-1.251-1.18C14.285.443 9.255.354 4.239.458z"/>
    <path fill="#fff" d="M4.436 1.053c4.955-.046 9.914-.007 14.871-.02.333-.048.673.211.629.565.005 6.901 0 13.803.002 20.704.049.319-.191.658-.534.622-4.935.006-9.872.003-14.808.001a.5.5 0 0 1-.556-.524c-.006-6.934-.003-13.868-.002-20.802-.021-.248.14-.512.398-.546zm2.498 1.492c-.585.199-.876.813-1.021 1.371-.241.977-.171 2.064.311 2.958.526 1.003 2.204.954 2.682-.07.522-1.069.523-2.384.062-3.474-.32-.779-1.278-1.074-2.034-.785zm3.612-.018v4.972l.788.001c.002-1.119-.002-2.238.002-3.357.637 1.116 1.264 2.237 1.896 3.356l.693.001c0-1.658.001-3.315-.001-4.973h-.779c-.001 1.059.001 2.118-.001 3.177-.602-1.058-1.207-2.114-1.806-3.174-.264-.002-.528-.004-.792-.003zm4.63.005c.002 1.658-.001 3.316.002 4.974h3.083l.001-.802c-.765-.003-1.531 0-2.297-.002V5.34l1.442-.001v-.802c-.48-.001-.961 0-1.441-.002-.002-.405-.002-.809-.001-1.214l2.141-.001v-.788h-2.93zm-9.71 6.462c.244 1.66.489 3.32.736 4.979l.69.001c.261-1.061.51-2.124.774-3.184.264 1.06.52 2.122.779 3.183h.701c.242-1.66.486-3.319.727-4.98l-.794.001c-.133.86-.247 1.724-.392 2.583-.224-.857-.424-1.72-.637-2.581a97.795 97.795 0 0 0-.766-.003c-.214.868-.416 1.739-.634 2.606-.133-.868-.254-1.737-.383-2.605h-.801zm6.566.001c-.568 1.66-1.14 3.317-1.705 4.977l.839.001c.165-.468.313-.942.501-1.401.512.014 1.024.006 1.535.008.164.465.325.93.488 1.394l.836-.002c-.565-1.661-1.137-3.319-1.706-4.979l-.788.002zm2.537 0c.46.75.926 1.497 1.39 2.245.638.767.242 1.825.351 2.734h.787c.015-.721-.027-1.445.018-2.164.534-.956 1.144-1.871 1.7-2.815-.305-.002-.61-.002-.915-.002-.405.638-.803 1.279-1.208 1.917-.397-.637-.788-1.279-1.186-1.917-.312 0-.624 0-.937.002zm-4.171 6.498c-1.425.971-2.833 1.968-4.249 2.952 1.417.987 2.829 1.981 4.246 2.967.281.24.766-.029.689-.395-.117-.492-.317-.959-.462-1.443 2.441 0 4.882-.005 7.322.003.009-.752.011-1.503-.001-2.255-2.44.009-4.88.004-7.32.003.144-.483.344-.951.461-1.442.076-.364-.409-.625-.686-.39z"/>
    <path fill="#fff" d="M7.142 3.35c.373-.21.911-.096 1.092.314.381.807.358 1.784.041 2.609a.773.773 0 0 1-1.015.468c-.565-.268-.625-.994-.675-1.543.005-.631.017-1.421.557-1.848zM11.931 11.771c.168-.465.334-.93.508-1.394.162.465.324.929.482 1.395-.33.002-.66.002-.99-.001z"/>
    <path fill="#363636" opacity=".88" d="M20.053.169c.168 0 .297.12.371.261-.149-.029-.342-.086-.371-.261z"/>
    <path d="M4.239.458C9.255.354 14.285.443 19.306.413c.665-.069 1.297.505 1.251 1.18.002 6.938.005 13.877-.001 20.815.024.618-.535 1.179-1.156 1.138l-14.8.001c-.63.052-1.207-.51-1.182-1.139-.005-6.938-.002-13.878-.001-20.816A1.133 1.133 0 0 1 4.239.458zm.197.595c-.258.034-.419.298-.398.546-.001 6.934-.004 13.868.002 20.802a.5.5 0 0 0 .556.524c4.936.002 9.873.005 14.808-.001.343.036.583-.303.534-.622-.002-6.901.003-13.803-.002-20.704.044-.354-.296-.613-.629-.565-4.957.013-9.916-.026-14.871.02z"/>
    <path d="M6.934 2.545c.756-.289 1.714.006 2.034.785.461 1.09.46 2.405-.062 3.474-.478 1.024-2.156 1.073-2.682.07-.482-.894-.552-1.981-.311-2.958.145-.558.436-1.172 1.021-1.371zm.208.805c-.54.427-.552 1.217-.557 1.848.05.549.11 1.275.675 1.543a.773.773 0 0 0 1.015-.468c.317-.825.34-1.802-.041-2.609-.181-.41-.719-.524-1.092-.314zM10.546 2.527c.264-.001.528.001.792.003.599 1.06 1.204 2.116 1.806 3.174.002-1.059 0-2.118.001-3.177h.779c.002 1.658.001 3.315.001 4.973l-.693-.001c-.632-1.119-1.259-2.24-1.896-3.356-.004 1.119 0 2.238-.002 3.357l-.788-.001V2.527zM15.176 2.532h2.93v.788l-2.141.001c-.001.405-.001.809.001 1.214.48.002.961.001 1.441.002v.802l-1.442.001v1.362c.766.002 1.532-.001 2.297.002l-.001.802h-3.083c-.003-1.658 0-3.316-.002-4.974zM5.466 8.994h.801c.129.868.25 1.737.383 2.605.218-.867.42-1.738.634-2.606.255 0 .511.001.766.003.213.861.413 1.724.637 2.581.145-.859.259-1.723.392-2.583l.794-.001c-.241 1.661-.485 3.32-.727 4.98h-.701c-.259-1.061-.515-2.123-.779-3.183-.264 1.06-.513 2.123-.774 3.184l-.69-.001c-.247-1.659-.492-3.319-.736-4.979zM12.032 8.995l.788-.002c.569 1.66 1.141 3.318 1.706 4.979l-.836.002c-.163-.464-.324-.929-.488-1.394-.511-.002-1.023.006-1.535-.008-.188.459-.336.933-.501 1.401l-.839-.001c.565-1.66 1.137-3.317 1.705-4.977zm-.101 2.776c.33.003.66.003.99.001-.158-.466-.32-.93-.482-1.395-.174.464-.34.929-.508 1.394zM14.569 8.995c.313-.002.625-.002.937-.002.398.638.789 1.28 1.186 1.917.405-.638.803-1.279 1.208-1.917.305 0 .61 0 .915.002-.556.944-1.166 1.859-1.7 2.815-.045.719-.003 1.443-.018 2.164h-.787c-.109-.909.287-1.967-.351-2.734-.464-.748-.93-1.495-1.39-2.245zM10.398 15.493c.277-.235.762.026.686.39-.117.491-.317.959-.461 1.442 2.44.001 4.88.006 7.32-.003.012.752.01 1.503.001 2.255-2.44-.008-4.881-.003-7.322-.003.145.484.345.951.462 1.443.077.366-.408.635-.689.395-1.417-.986-2.829-1.98-4.246-2.967 1.416-.984 2.824-1.981 4.249-2.952z"/>
    <path fill="#141414" opacity=".82" d="M20.556.566c.197.179.344.403.444.65v21.607l-.111-.15c-.006-7.028.002-14.056-.004-21.083.005-.369-.152-.71-.329-1.024z"/>
    <path fill="#121212" opacity=".94" d="M3 1.075l.095.14c.002 7.166.021 14.334-.01 21.5L3 22.863V1.075z"/>
    <path fill="#393939" opacity=".85" d="M20.141 23.722c.206-.183.401-.378.587-.581a.782.782 0 0 1-.587.581z"/>
    <path fill="#101010" opacity=".73" d="M4.251 23.887c5.162-.02 10.325.002 15.488-.011l-.13.124H4.396l-.145-.113z"/>
</svg>
