<?xml version="1.0" encoding="utf-8"?>
<!-- Generated by IcoMoon.io -->
<!DOCTYPE svg PUBLIC "-//W3C//DTD SVG 1.1//EN" "http://www.w3.org/Graphics/SVG/1.1/DTD/svg11.dtd">
<svg version="1.1" xmlns="http://www.w3.org/2000/svg" xmlns:xlink="http://www.w3.org/1999/xlink" width="24" height="24" viewBox="0 0 24 24">
<path fill="#fff" d="M3.611 0.016h16.778c0.664 0 1.198 0.534 1.198 1.198v21.571c0 0.664-0.534 1.198-1.198 1.198h-16.778c-0.664 0-1.198-0.534-1.198-1.198v-21.571c0-0.664 0.534-1.198 1.198-1.198z"></path>
<path fill="#000" d="M3.611 0.316h16.778c0.498 0 0.899 0.401 0.899 0.899v21.571c0 0.498-0.401 0.899-0.899 0.899h-16.778c-0.498 0-0.899-0.401-0.899-0.899v-21.571c0-0.498 0.401-0.899 0.899-0.899z"></path>
<path fill="#fff" d="M3.611 0.815h16.778c0.221 0 0.399 0.178 0.399 0.399v21.571c0 0.221-0.178 0.399-0.399 0.399h-16.778c-0.221 0-0.399-0.178-0.399-0.399v-21.571c0-0.221 0.178-0.399 0.399-0.399z"></path>
<path fill="#000" d="M7.002 5.477c0 0.324-0.153 0.574-0.459 0.749-0.114 0.070-0.242 0.123-0.386 0.16s-0.291 0.055-0.444 0.055c-0.283 0-0.533-0.050-0.75-0.15s-0.418-0.255-0.603-0.465l0.469-0.358c0.124 0.14 0.254 0.242 0.391 0.305s0.298 0.095 0.483 0.095c0.208 0 0.379-0.039 0.513-0.117s0.2-0.177 0.2-0.298c0-0.127-0.068-0.224-0.205-0.291-0.059-0.022-0.12-0.045-0.183-0.067s-0.133-0.041-0.207-0.057l-0.151-0.043-0.151-0.033-0.156-0.048c-0.169-0.038-0.302-0.080-0.398-0.126s-0.178-0.107-0.247-0.184c-0.068-0.073-0.12-0.156-0.154-0.248s-0.051-0.189-0.051-0.291c0-0.134 0.028-0.254 0.083-0.363s0.132-0.201 0.23-0.279c0.098-0.078 0.216-0.138 0.354-0.181s0.291-0.064 0.457-0.064c0.244 0 0.466 0.040 0.667 0.119s0.383 0.203 0.549 0.372l-0.435 0.382c-0.205-0.21-0.466-0.315-0.781-0.315-0.166 0-0.296 0.029-0.388 0.088s-0.139 0.139-0.139 0.241c0 0.045 0.008 0.084 0.024 0.117s0.044 0.064 0.083 0.091c0.039 0.027 0.092 0.052 0.159 0.074s0.151 0.045 0.252 0.067c0.218 0.045 0.4 0.089 0.547 0.134s0.265 0.089 0.357 0.134c0.147 0.073 0.262 0.18 0.347 0.322s0.127 0.3 0.127 0.475v0zM10.273 4.19c0 0.083-0.011 0.165-0.034 0.248s-0.056 0.161-0.1 0.234c-0.044 0.073-0.097 0.141-0.159 0.203s-0.132 0.114-0.21 0.155c-0.094 0.051-0.185 0.084-0.271 0.1s-0.191 0.024-0.315 0.024h-0.933v1.254h-0.596v-3.196h1.529c0.124 0 0.229 0.010 0.315 0.029s0.177 0.054 0.271 0.105c0.156 0.083 0.279 0.199 0.369 0.348s0.134 0.315 0.134 0.496v0zM9.687 4.19c0-0.124-0.044-0.223-0.132-0.296s-0.205-0.11-0.352-0.11h-0.952v0.797h0.952c0.147 0 0.264-0.036 0.352-0.107s0.132-0.166 0.132-0.284v0zM10.822 6.407v-3.196h2.388v0.572h-1.792v0.591h0.977v0.587h-0.977v0.873h1.851v0.572h-2.447zM13.922 6.407v-3.196h2.388v0.572h-1.792v0.591h0.977v0.587h-0.977v0.873h1.851v0.572h-2.447zM19.64 4.805c0 0.321-0.067 0.601-0.2 0.84s-0.33 0.429-0.591 0.572c-0.114 0.064-0.238 0.111-0.371 0.143s-0.267 0.048-0.4 0.048h-1.055v-3.196h1.055c0.28 0 0.54 0.067 0.781 0.2 0.254 0.143 0.448 0.331 0.581 0.565s0.2 0.51 0.2 0.828v0zM19.054 4.805c0-0.216-0.040-0.397-0.12-0.544s-0.201-0.264-0.364-0.353c-0.15-0.083-0.314-0.124-0.493-0.124h-0.459v2.051h0.459c0.172 0 0.33-0.041 0.474-0.124 0.335-0.172 0.503-0.474 0.503-0.906v0z"></path>
<path fill="#000" d="M6.157 11.201v-3.196h0.572v2.704h1.817v0.491h-2.39zM9.092 11.201v-3.196h0.572v3.196h-0.572zM12.931 11.201v-1.951l-0.94 1.951-0.93-1.951v1.951h-0.563v-3.196h0.563l0.93 1.894 0.94-1.894h0.563v3.196h-0.563zM14.328 11.201v-3.196h0.572v3.196h-0.572zM16.922 8.568v2.633h-0.558v-2.633h-0.921v-0.563h2.399v0.563h-0.921z"></path>
<path fill="#000" d="M10.838 18.463c0 0.358-0.076 0.688-0.227 0.99s-0.362 0.562-0.632 0.781c-0.27 0.219-0.592 0.389-0.966 0.513s-0.787 0.185-1.24 0.185c-0.477 0-0.92-0.076-1.329-0.227s-0.777-0.366-1.103-0.644c-0.326-0.278-0.566-0.618-0.721-1.019s-0.233-0.876-0.233-1.425c0-0.843 0.181-1.614 0.543-2.313s0.88-1.284 1.556-1.753c0.23-0.159 0.465-0.296 0.703-0.412s0.487-0.209 0.745-0.28c0.258-0.072 0.533-0.123 0.823-0.155s0.61-0.048 0.96-0.048v1.431h-0.143c-0.429 0-0.799 0.038-1.109 0.113s-0.604 0.197-0.882 0.364c-0.366 0.207-0.664 0.443-0.894 0.71s-0.445 0.61-0.644 1.031c0.175-0.048 0.336-0.089 0.483-0.125s0.29-0.062 0.429-0.078c0.139-0.016 0.28-0.028 0.423-0.036s0.294-0.012 0.453-0.012c0.437 0 0.839 0.060 1.204 0.179s0.682 0.286 0.948 0.501c0.266 0.215 0.475 0.469 0.626 0.763s0.227 0.616 0.227 0.966v0zM9.407 18.487c0-0.302-0.155-0.544-0.465-0.727s-0.715-0.274-1.216-0.274c-0.501 0-0.902 0.089-1.205 0.268s-0.453 0.415-0.453 0.709c0 0.31 0.151 0.557 0.453 0.739s0.704 0.274 1.205 0.274c0.501 0 0.906-0.089 1.216-0.268s0.465-0.419 0.465-0.721v0zM19.613 16.746c0 0.517-0.062 1.024-0.185 1.52s-0.318 0.944-0.584 1.341c-0.266 0.397-0.61 0.717-1.031 0.96s-0.934 0.364-1.538 0.364c-0.596 0-1.107-0.117-1.532-0.352s-0.773-0.546-1.043-0.936c-0.27-0.389-0.469-0.833-0.596-1.329s-0.191-1.008-0.191-1.532c0-0.525 0.066-1.036 0.197-1.532s0.334-0.936 0.608-1.317c0.274-0.381 0.622-0.69 1.043-0.924s0.926-0.352 1.514-0.352c0.596 0 1.105 0.119 1.526 0.358s0.767 0.551 1.037 0.936c0.27 0.386 0.467 0.823 0.59 1.312s0.185 0.984 0.185 1.485v0zM18.182 16.782c0-0.843-0.167-1.502-0.501-1.979s-0.803-0.716-1.407-0.716c-0.358 0-0.66 0.084-0.906 0.251s-0.445 0.38-0.596 0.638c-0.151 0.258-0.26 0.545-0.328 0.858s-0.101 0.618-0.101 0.912c0 0.89 0.171 1.572 0.513 2.045s0.815 0.709 1.419 0.709c0.294 0 0.559-0.066 0.793-0.197s0.435-0.318 0.602-0.56c0.167-0.242 0.294-0.533 0.382-0.87s0.131-0.713 0.131-1.127v0.036z"></path>
</svg>
