<?xml version="1.0" encoding="utf-8"?>
<!-- Generated by IcoMoon.io -->
<!DOCTYPE svg PUBLIC "-//W3C//DTD SVG 1.1//EN" "http://www.w3.org/Graphics/SVG/1.1/DTD/svg11.dtd">
<svg version="1.1" xmlns="http://www.w3.org/2000/svg" xmlns:xlink="http://www.w3.org/1999/xlink" width="24" height="24" viewBox="0 0 24 24">
<path fill="#1a1919" d="M3.1 0.113c3.236-0.031 6.472-0.020 9.708-0.015 2.069 0.002 4.139 0.004 6.209 0.006 0.685 0.004 1.372-0.006 2.057 0.006 0.397 0.169 0.708 0.507 0.876 0.901v22.060c-0.115 0.242-0.248 0.487-0.468 0.65-0.19 0.154-0.426 0.234-0.664 0.279h-17.648c-0.263-0.044-0.526-0.138-0.721-0.326-0.184-0.164-0.303-0.385-0.399-0.608v-21.947c0.050-0.368 0.311-0.685 0.622-0.873 0.13-0.076 0.274-0.137 0.427-0.133M3.305 0.205c-0.306 0.002-0.606 0.122-0.82 0.342-0.182 0.204-0.333 0.458-0.344 0.738-0 7.169 0 14.338 0 21.507 0.032 0.465 0.373 0.89 0.814 1.034 0.184 0.040 0.373 0.058 0.562 0.052 5.705-0.001 11.411 0 17.116-0.001 0.187-0.015 0.386-0.020 0.552-0.117 0.409-0.198 0.694-0.654 0.662-1.112-0.002-7.122 0-14.245-0.001-21.367-0.036-0.463-0.377-0.883-0.816-1.027-0.156-0.031-0.314-0.054-0.473-0.052-5.751 0.003-11.502-0.003-17.253 0.003z"></path>
<path fill="#1a1919" d="M3.305 0.467c5.424-0.008 10.849 0 16.274-0.004 0.526-0.001 1.093-0.11 1.583 0.14 0.225 0.166 0.41 0.425 0.417 0.714 0.021 0.274 0.017 0.549 0.008 0.823-0.001 6.872 0.001 13.744-0.001 20.616-0.016 0.225-0.137 0.43-0.285 0.594-0.194 0.193-0.473 0.263-0.74 0.263-5.669 0.002-11.339-0.001-17.008 0.002-0.232-0.008-0.478-0.012-0.683-0.135-0.129-0.076-0.268-0.159-0.34-0.297-0.065-0.147-0.113-0.303-0.126-0.463 0-7.11 0.001-14.219 0-21.329 0.007-0.475 0.406-0.94 0.901-0.924M3.153 0.993c-0.166 0.072-0.255 0.261-0.253 0.436-0.001 7.083 0.002 14.167-0.001 21.25 0.012 0.12 0.029 0.263 0.145 0.331 0.129 0.118 0.309 0.106 0.471 0.121 0.841-0.023 1.682-0.007 2.523-0.012 4.827 0 9.655 0 14.482 0 0.149-0.003 0.314-0.013 0.43-0.12 0.080-0.084 0.144-0.194 0.141-0.314-0.002-6.433-0-12.867-0.001-19.3 0.002-0.602-0.011-1.204 0.023-1.806 0.023-0.199-0.052-0.405-0.197-0.542-0.127-0.085-0.286-0.072-0.431-0.077-5.706 0-11.413 0-17.119 0-0.071 0.003-0.146 0.004-0.212 0.033z"></path>
<path fill="#1a1919" d="M12.767 6.13c0.993-1.423 1.984-2.846 2.976-4.269 1.008 1.419 2.017 2.838 3.023 4.258 0.132 0.175 0.117 0.434-0.036 0.591-0.106 0.113-0.28 0.164-0.43 0.124-0.455-0.161-0.921-0.288-1.382-0.434 0 5.020 0 10.040 0 15.059-0.772 0-1.544 0-2.316 0 0-0.608 0-1.215 0-1.823 0.022-1.472-0.323-2.956-1.040-4.245-0.346-0.632-0.766-1.226-1.274-1.738-0.517-0.519-1.068-1.016-1.709-1.378-0.818-0.488-1.716-0.813-2.591-1.179-0.041 0.489-0.088 0.978-0.124 1.468-0.011 0.138-0.095 0.261-0.202 0.344-0.191 0.115-0.447 0.067-0.6-0.089-0.942-1.495-1.89-2.986-2.833-4.481 1.697-0.379 3.393-0.759 5.089-1.136 0.152-0.039 0.312 0.009 0.428 0.112 0.197 0.127 0.2 0.424 0.066 0.597-0.325 0.366-0.635 0.745-0.952 1.117 1.015 0.375 2.063 0.694 2.994 1.26 0.493 0.31 0.972 0.645 1.416 1.024 0.495 0.419 0.919 0.912 1.334 1.408 0-2.103 0-4.207 0-6.31-0.449 0.145-0.898 0.291-1.347 0.437-0.234 0.071-0.519-0.059-0.577-0.306-0.043-0.143 0.001-0.295 0.089-0.411z"></path>
<path fill="#fffffe" d="M3.305 0.205c5.751-0.006 11.502 0 17.253-0.003 0.159-0.002 0.317 0.020 0.473 0.052 0.439 0.144 0.78 0.564 0.816 1.027 0.002 7.122-0.001 14.245 0.001 21.367 0.032 0.458-0.253 0.914-0.662 1.112-0.166 0.098-0.365 0.102-0.552 0.117-5.705 0.001-11.411-0-17.116 0.001-0.189 0.005-0.378-0.012-0.562-0.052-0.441-0.145-0.782-0.57-0.814-1.034 0-7.169-0-14.338 0-21.507 0.011-0.28 0.161-0.534 0.344-0.738 0.214-0.22 0.514-0.34 0.82-0.342M3.305 0.467c-0.496-0.016-0.895 0.449-0.901 0.924 0.001 7.11 0 14.219 0 21.329 0.013 0.16 0.061 0.316 0.126 0.463 0.072 0.137 0.211 0.22 0.34 0.297 0.205 0.123 0.451 0.127 0.683 0.135 5.669-0.002 11.339 0.001 17.008-0.001 0.267 0 0.546-0.070 0.74-0.263 0.148-0.165 0.269-0.369 0.285-0.594 0.002-6.872 0-13.744 0.001-20.616 0.009-0.275 0.012-0.55-0.008-0.823-0.006-0.289-0.192-0.548-0.417-0.714-0.49-0.25-1.056-0.141-1.583-0.14-5.425 0.005-10.85-0.003-16.274 0.004z"></path>
<path fill="#fffffe" d="M3.153 0.993c0.067-0.029 0.141-0.030 0.212-0.033 5.706 0 11.413 0 17.119 0 0.145 0.005 0.305-0.008 0.431 0.077 0.145 0.137 0.22 0.343 0.197 0.542-0.033 0.602-0.020 1.204-0.023 1.806 0 6.433-0.002 12.867 0.001 19.3 0.003 0.12-0.061 0.23-0.141 0.314-0.115 0.106-0.281 0.117-0.43 0.12-4.827 0-9.655 0-14.482 0-0.841 0.005-1.683-0.012-2.523 0.012-0.161-0.015-0.342-0.003-0.471-0.121-0.116-0.068-0.133-0.21-0.145-0.331 0.004-7.083 0.001-14.167 0.002-21.25-0.002-0.175 0.087-0.364 0.253-0.436M12.767 6.13c-0.088 0.115-0.132 0.268-0.089 0.411 0.058 0.247 0.343 0.377 0.577 0.306 0.449-0.146 0.898-0.292 1.347-0.437 0 2.104 0 4.207 0 6.31-0.415-0.496-0.839-0.989-1.334-1.408-0.443-0.379-0.922-0.714-1.416-1.024-0.931-0.566-1.979-0.884-2.994-1.26 0.318-0.372 0.628-0.751 0.952-1.117 0.134-0.173 0.132-0.47-0.066-0.597-0.116-0.102-0.276-0.15-0.428-0.112-1.697 0.377-3.393 0.757-5.089 1.136 0.943 1.494 1.891 2.986 2.833 4.481 0.153 0.156 0.409 0.204 0.6 0.089 0.107-0.083 0.191-0.206 0.202-0.344 0.036-0.49 0.083-0.978 0.124-1.468 0.875 0.366 1.773 0.691 2.591 1.179 0.641 0.362 1.192 0.859 1.709 1.378 0.509 0.512 0.928 1.106 1.274 1.738 0.717 1.288 1.062 2.773 1.040 4.245 0 0.608 0 1.216 0 1.823 0.772 0 1.544 0 2.316 0 0-5.020 0-10.039 0-15.059 0.46 0.146 0.927 0.273 1.382 0.434 0.15 0.041 0.324-0.011 0.43-0.124 0.153-0.157 0.169-0.417 0.036-0.591-1.007-1.42-2.016-2.839-3.023-4.258-0.992 1.423-1.983 2.846-2.976 4.269z"></path>
</svg>
