
<svg xmlns="http://www.w3.org/2000/svg" width="24" height="24">
    <path fill="#04408b" d="M10.734 0h2.511c4.506.503 8.608 3.656 10.085 7.966.335.892.487 1.836.67 2.767v2.513c-.504 4.506-3.656 8.607-7.966 10.084-.892.335-1.836.487-2.767.67h-2.511c-4.507-.503-8.608-3.656-10.085-7.966-.335-.892-.487-1.836-.67-2.767v-2.511c.178-.94.333-1.89.67-2.789C2.145 3.662 6.237.515 10.735.001zm1.869 7.151c.29 1.086.766 2.116 1.033 3.208-3.733.107-7.474.017-11.21.045-.011 1.086-.005 2.172-.004 3.257 3.572.011 7.144.004 10.716.003.166.02.39-.044.481.142-.281 1.036-.703 2.029-1 3.06-.162.453.452.866.818.55 2.848-1.795 5.712-3.57 8.551-5.379a1174.093 1174.093 0 0 0-8.545-5.342c-.335-.282-.906.025-.842.457z"/>
    <path fill="#fff" d="M12.603 7.151c-.064-.432.507-.74.842-.457 2.859 1.765 5.702 3.554 8.545 5.342-2.839 1.81-5.703 3.584-8.551 5.379-.366.316-.98-.097-.818-.55.297-1.032.719-2.025 1-3.06-.091-.186-.316-.122-.481-.142-3.572.001-7.144.008-10.716-.003-.001-1.085-.007-2.171.004-3.257 3.735-.028 7.477.062 11.21-.045-.267-1.091-.743-2.122-1.033-3.208z"/>
</svg>
