<?xml version="1.0" encoding="utf-8"?>
<!-- Generated by IcoMoon.io -->
<!DOCTYPE svg PUBLIC "-//W3C//DTD SVG 1.1//EN" "http://www.w3.org/Graphics/SVG/1.1/DTD/svg11.dtd">
<svg version="1.1" xmlns="http://www.w3.org/2000/svg" xmlns:xlink="http://www.w3.org/1999/xlink" width="24" height="24" viewBox="0 0 24 24">
<path fill="#fff" d="M21.661 16.178c1.637 0 2.199-0.562 2.199-2.199v-3.958c0-1.637-0.562-2.199-2.199-2.199h-19.422c-1.637 0-2.199 0.562-2.199 2.199v3.958c0 1.637 0.562 2.199 2.199 2.199h19.422z"></path>
<path fill="#231f20" d="M7.556 13.081c0.13 0.165 0.397 0.283 0.634 0.283 0.275 0 0.567-0.146 0.693-0.358 0.146-0.24 0.224-0.606 0.224-1.035 0-0.433-0.091-0.799-0.252-1.015-0.146-0.189-0.413-0.315-0.673-0.315-0.575 0-0.889 0.488-0.889 1.377 0 0.197 0.016 0.386 0.051 0.563 0.035 0.189 0.11 0.362 0.213 0.5zM8.709 12.014c0 0.634-0.173 0.948-0.519 0.948-0.201 0-0.35-0.11-0.409-0.307-0.051-0.169-0.087-0.433-0.087-0.657 0-0.287 0.047-0.571 0.126-0.724 0.067-0.138 0.228-0.232 0.394-0.232 0.327 0 0.496 0.327 0.496 0.972zM9.461 10.7v2.621h0.401v-1.79l1.011 1.79h0.346v-2.621h-0.401v1.672l-0.944-1.672zM11.613 10.7v2.621h1.602v-0.417h-1.192v-0.728h0.756v-0.413h-0.756v-0.653h1.102v-0.409zM14.343 10.7l0.366 2.621h0.366l0.417-1.657 0.413 1.657h0.366l0.374-2.621h-0.409l-0.208 1.413-0.346-1.413h-0.366l-0.358 1.413-0.197-1.413zM16.581 13.321h0.429l0.268-0.756h0.815l0.264 0.756h0.433l-0.897-2.621h-0.405zM17.687 11.373l0.268 0.783h-0.535zM19.656 12.172v1.149h0.413v-1.137l0.909-1.483h-0.484l-0.63 1.019-0.626-1.019h-0.484zM21.661 15.64c1.246 0 1.661-0.415 1.661-1.661v-3.958c0-1.246-0.415-1.661-1.661-1.661h-19.422c-1.246 0-1.661 0.415-1.661 1.661v3.958c0 1.246 0.415 1.661 1.661 1.661zM22.003 10.363v3.274h-15.22l0.269 0.806c0.098 0.318-0.098 0.489-0.195 0.586-0.22 0.147-0.391 0.147-0.635-0.024l-4.349-3.005 4.349-3.005c0.244-0.171 0.464-0.171 0.684-0.024 0.098 0.098 0.244 0.293 0.147 0.586l-0.269 0.806h15.22z"></path>
</svg>
