<?xml version="1.0" encoding="utf-8"?>
<!-- Generated by IcoMoon.io -->
<!DOCTYPE svg PUBLIC "-//W3C//DTD SVG 1.1//EN" "http://www.w3.org/Graphics/SVG/1.1/DTD/svg11.dtd">
<svg version="1.1" xmlns="http://www.w3.org/2000/svg" xmlns:xlink="http://www.w3.org/1999/xlink" width="24" height="24" viewBox="0 0 24 24">
<path fill="#242122" d="M2.393 0h19.404c0.17 0.064 0.362 0.103 0.498 0.231 0.122 0.166 0.226 0.359 0.235 0.57 0.027 0.423 0.003 0.85 0.066 1.271v21.357c-0.185 0.191-0.361 0.392-0.558 0.571h-20.193c-0.126-0.113-0.257-0.23-0.333-0.385-0.043-0.45-0.019-0.903-0.023-1.353 0-6.864 0-13.727 0-20.591 0.002-0.41-0.015-0.82 0.014-1.23 0.104-0.391 0.566-0.392 0.89-0.441M2.191 0.232c0.228 0.017 0.457 0.021 0.685 0.021 6.129-0.006 12.259 0.007 18.388-0.007 0.215 0.011 0.443 0.064 0.598 0.223-0.121-0.082-0.265-0.119-0.41-0.114-6.215 0.001-12.43 0.001-18.644-0.001-0.259 0.012-0.558-0.054-0.773 0.132-0.154 0.089-0.18 0.281-0.187 0.443-0.001 7.334 0 14.668-0.001 22.002 0.001 0.212 0.047 0.42 0.072 0.63 0.027 0 0.082 0.001 0.11 0.001l-0.012 0.080c6.504 0.021 13.009-0.001 19.513 0.011 0.205-0.017 0.476 0.021 0.616-0.164 0.136-0.3 0.071-0.642 0.084-0.96-0.003-7.222-0.001-14.444-0.001-21.666 0.027-0.427-0.462-0.658-0.83-0.644-6.041 0.002-12.082 0.001-18.122 0.001-0.362 0.001-0.723-0.008-1.085 0.011z"></path>
<path fill="#242122" d="M7.512 1.63c0.301 0.027 0.689-0.095 0.905 0.18 0.454 0.518 0.755 1.151 1.213 1.666 0.314 0.358 0.56 0.776 0.941 1.071 0.229-0.362 0.155-0.799 0.16-1.204 0.001-0.572-0.017-1.144 0.019-1.714 0.193 0.003 0.386 0.005 0.579 0.009 0.018 1.103-0.001 2.207 0.010 3.31 0.003 0.328-0.001 0.656-0.045 0.982-0.23-0.021-0.495-0.001-0.673-0.176-0.268-0.248-0.447-0.572-0.678-0.851-0.423-0.517-0.797-1.072-1.223-1.586-0.070-0.056-0.123-0.186-0.231-0.158-0.19 0.004-0.239 0.228-0.241 0.38-0.016 0.648 0.009 1.298 0.002 1.947-0.001 0.124-0.007 0.289-0.15 0.333-0.19 0.051-0.39 0.036-0.584 0.045-0.019-1.411-0.010-2.823-0.005-4.234z"></path>
<path fill="#242122" d="M13.76 1.665c0.229-0.126 0.497-0.090 0.747-0.099 0.243 0.005 0.49-0.015 0.731 0.029 0.348 0.13 0.684 0.332 0.906 0.637 0.182 0.238 0.275 0.527 0.394 0.8 0.1 0.224 0.074 0.474 0.080 0.713-0.006 0.236 0.020 0.482-0.072 0.706-0.154 0.394-0.302 0.82-0.64 1.098-0.249 0.203-0.545 0.367-0.86 0.432-0.416 0.006-0.865 0.079-1.249-0.124-0.553-0.228-0.952-0.742-1.113-1.308-0.045-0.535-0.039-1.076-0.004-1.612 0.133-0.564 0.542-1.048 1.080-1.271M14.15 2.29c-0.387 0.154-0.618 0.546-0.735 0.927-0.022 0.37-0.030 0.744 0.005 1.112 0.122 0.334 0.3 0.685 0.633 0.851 0.263 0.183 0.604 0.15 0.905 0.114 0.289-0.125 0.536-0.352 0.701-0.617 0.176-0.592 0.218-1.249-0.015-1.83-0.168-0.246-0.38-0.507-0.678-0.591-0.27-0.015-0.554-0.046-0.817 0.034z"></path>
<path fill="#242122" d="M6.263 7.918c0.667-0.015 1.332-0.008 1.999-0.002 0.003 0.090 0.007 0.179 0.011 0.269-0.249 0.033-0.535-0.007-0.751 0.146-0.106 0.164-0.113 0.369-0.126 0.558-0.017 0.739 0.024 1.479-0.021 2.217-0.106-0.068-0.319-0.062-0.314-0.225-0.033-0.529 0-1.059-0.009-1.588-0.009-0.325 0.040-0.66-0.052-0.977-0.223-0.15-0.513-0.096-0.768-0.123 0.011-0.092 0.021-0.183 0.030-0.275z"></path>
<path fill="#242122" d="M9.055 7.864c0.117-0.008 0.235-0.016 0.352-0.023-0.028 0.461-0.008 0.923-0.016 1.385 0.002 0.301-0.019 0.608 0.050 0.905 0.075 0.334 0.336 0.623 0.665 0.722 0.267 0.039 0.504-0.152 0.685-0.326 0.207-0.196 0.212-0.498 0.213-0.763-0.007-0.612-0.016-1.226 0.003-1.838 0.108-0.006 0.216-0.012 0.324-0.018 0.013 0.754 0.019 1.509 0.010 2.263 0.009 0.513-0.469 0.844-0.905 0.995-0.338 0.126-0.686-0.064-0.957-0.256-0.281-0.196-0.427-0.537-0.426-0.874-0.016-0.723 0.012-1.446 0.001-2.169z"></path>
<path fill="#242122" d="M17.487 7.913c0.104-0.002 0.208-0.005 0.312-0.007 0.071 0.66 0.023 1.326 0.036 1.988-0.008 0.371 0.031 0.745-0.024 1.114-0.175 0.168-0.363-0.069-0.456-0.211-0.214-0.36-0.437-0.715-0.666-1.065-0.185-0.281-0.316-0.681-0.69-0.752-0.14 0.131-0.12 0.334-0.125 0.508 0.006 0.491 0.006 0.983 0.006 1.475-0.052 0.025-0.156 0.074-0.209 0.099-0.126-0.582-0.047-1.181-0.067-1.771 0.021-0.461-0.096-0.957 0.148-1.378 0.197 0.13 0.393 0.273 0.523 0.475 0.278 0.421 0.504 0.876 0.793 1.291 0.075 0.122 0.215 0.171 0.338 0.231 0.14-0.656 0.052-1.332 0.080-1.998z"></path>
<path fill="#242122" d="M12.495 7.929c0.638-0.031 1.332-0.068 1.897 0.284 0.243 0.156 0.243 0.475 0.225 0.731-0.020 0.319-0.318 0.506-0.509 0.728 0.188 0.458 0.467 0.901 0.495 1.407-0.106-0.005-0.213-0.009-0.319-0.013-0.148-0.384-0.283-0.777-0.472-1.143-0.143-0.308-0.543-0.298-0.821-0.218-0.148 0.027-0.161 0.198-0.172 0.319-0.021 0.344-0.002 0.689-0.015 1.034-0.1 0.007-0.199 0.015-0.299 0.023-0.043-0.439-0.032-0.88-0.030-1.32 0.004-0.61-0.015-1.221 0.019-1.831M12.951 8.277c-0.247 0.283-0.112 0.715-0.092 1.057 0.386 0.033 0.84 0.143 1.173-0.116 0.327-0.222 0.255-0.798-0.128-0.919-0.306-0.088-0.642-0.076-0.954-0.022z"></path>
<path fill="#242122" d="M4.315 12.95c0.288-0.097 0.624-0.099 0.904 0.025 0.475 0.251 0.654 0.823 0.672 1.328 0.019 0.544 0.007 1.188-0.437 1.576-0.285 0.203-0.668 0.352-1.015 0.223-0.218-0.072-0.455-0.158-0.584-0.361-0.336-0.598-0.469-1.343-0.205-1.994 0.102-0.343 0.337-0.647 0.666-0.798M4.509 13.268c-0.148 0.059-0.259 0.185-0.348 0.314-0.241 0.402-0.41 0.895-0.246 1.358 0.105 0.272 0.176 0.604 0.446 0.763 0.195 0.13 0.475 0.18 0.674 0.032 0.263-0.191 0.474-0.489 0.477-0.824 0.018-0.5 0.080-1.080-0.293-1.476-0.156-0.228-0.469-0.221-0.71-0.167z"></path>
<path fill="#242122" d="M6.993 12.9c0.105 0.018 0.212 0.029 0.314 0.062 0.152 0.086 0.237 0.248 0.327 0.391 0.289 0.5 0.61 0.981 0.907 1.477 0.117-0.031 0.262-0.018 0.351-0.114 0.104-0.603-0.094-1.238 0.135-1.824 0.088 0.167 0.176 0.344 0.17 0.538 0.005 0.604-0.011 1.207 0.001 1.811-0.002 0.222 0.016 0.447-0.029 0.667-0.026 0.157-0.219 0.109-0.322 0.074-0.085-0.084-0.148-0.185-0.212-0.283-0.362-0.584-0.705-1.181-1.096-1.746-0.089 0.126-0.21 0.251-0.21 0.416-0.025 0.564 0.017 1.13-0.020 1.695-0.104 0.001-0.209 0.002-0.313 0.003-0.029-1.055-0.021-2.111-0.004-3.166z"></path>
<path fill="#242122" d="M12.258 12.927c0.568 0.032 1.194-0.132 1.708 0.182 0.132 0.080 0.273 0.169 0.348 0.31 0.060 0.199 0.049 0.412 0.031 0.616-0.037 0.287-0.368 0.42-0.45 0.681 0.081 0.466 0.425 0.843 0.473 1.32-0.112-0.015-0.225-0.022-0.334-0.053-0.277-0.376-0.3-0.9-0.638-1.231-0.245-0.078-0.582-0.118-0.786 0.068-0.064 0.384-0.019 0.777-0.041 1.166-0.101 0.019-0.202 0.038-0.302 0.057-0.043-0.331-0.061-0.666-0.051-0.999 0.018-0.705-0.031-1.413 0.043-2.115M12.731 13.268c-0.199 0.066-0.159 0.338-0.177 0.504 0.009 0.207 0.021 0.55 0.297 0.563 0.358 0.030 0.783 0.051 1.056-0.226 0.223-0.287 0.041-0.737-0.297-0.836-0.285-0.074-0.593-0.074-0.879-0.005z"></path>
<path fill="#242122" d="M18.254 12.923c0.402 0.005 0.806-0.011 1.208 0.001 0.408 0.001 0.772 0.325 0.88 0.709 0.070 0.224 0.143 0.448 0.192 0.678 0.085 0.386-0.070 0.768-0.22 1.117-0.134 0.259-0.34 0.548-0.656 0.574-0.472 0.038-0.947 0.009-1.42 0.003-0.003-1.027-0.031-2.056 0.017-3.082M18.685 13.427c-0.026 0.724-0.013 1.451-0.005 2.176 0.339 0.083 0.722 0.134 1.043-0.038 0.094-0.045 0.16-0.132 0.189-0.231 0.108-0.356 0.25-0.731 0.15-1.107-0.060-0.207-0.090-0.427-0.191-0.619-0.101-0.109-0.224-0.197-0.355-0.265-0.245-0.033-0.495-0.026-0.741-0.005-0.023 0.023-0.068 0.067-0.090 0.090z"></path>
<path fill="#242122" d="M15.269 13.5c-0.013-0.221 0.062-0.504 0.311-0.554 0.422-0.045 0.849-0.023 1.273-0.017 0.191-0.011 0.324 0.14 0.462 0.247-0.497 0.102-1.011-0.003-1.508 0.103-0.186 0.051-0.193 0.284-0.204 0.442-0.007 0.207 0.017 0.493 0.248 0.572 0.299 0.084 0.615 0.045 0.921 0.070-0.003 0.108-0.005 0.215-0.006 0.323-0.362 0.020-0.753-0.040-1.088 0.127-0.091 0.201-0.088 0.431-0.060 0.646 0.027 0.184 0.192 0.326 0.375 0.34 0.477 0.041 0.96-0.035 1.435 0.054-0.096 0.066-0.183 0.169-0.311 0.16-0.609 0.009-1.219 0.013-1.828-0.022-0.035-0.83-0.010-1.661-0.020-2.492z"></path>
<path fill="#6d6b6b" d="M2.191 0.232c0.362-0.019 0.723-0.010 1.085-0.011 6.041-0.001 12.082 0.001 18.122-0.001 0.368-0.014 0.857 0.217 0.83 0.644-0.001 7.222-0.003 14.444 0.001 21.666-0.013 0.318 0.052 0.66-0.084 0.96-0.14 0.186-0.41 0.147-0.616 0.164-6.504-0.013-13.009 0.010-19.513-0.011l0.012-0.080c6.479 0.017 12.959-0.004 19.438 0.011 0.158-0.011 0.339 0 0.471-0.105 0.136-0.112 0.168-0.297 0.174-0.464 0.001-7.132-0.005-14.266 0.003-21.399-0.018-0.381 0.098-0.867-0.253-1.136-0.155-0.16-0.383-0.212-0.598-0.223-6.129 0.013-12.259 0.001-18.388 0.007-0.228 0.001-0.457-0.003-0.685-0.021z"></path>
<path fill="#6d6b6b" d="M1.404 0.744c0.031-0.102 0.064-0.203 0.1-0.303-0.029 0.41-0.012 0.82-0.014 1.23 0 6.864 0 13.727 0 20.591 0.003 0.451-0.020 0.903 0.023 1.353-0.038-0.078-0.074-0.156-0.108-0.236v-22.635z"></path>
<path fill="#6d6b6b" d="M7.392 1.517c0.311-0.009 0.625-0.035 0.935 0.004 0.172 0.126 0.309 0.297 0.418 0.48 0.297 0.515 0.72 0.94 1.056 1.429 0.214 0.313 0.471 0.596 0.775 0.825 0.051-0.889 0.013-1.78 0.023-2.669 0.289-0.027 0.579-0.025 0.868-0.010 0.007 1.349-0.001 2.697 0.004 4.047-0.010 0.139 0.020 0.304-0.088 0.414-0.291 0.018-0.671 0.112-0.874-0.162-0.362-0.423-0.666-0.892-1.022-1.321-0.344-0.415-0.63-0.874-0.991-1.275-0.137 0.915 0.056 1.853-0.12 2.766-0.325 0.011-0.65 0.013-0.975 0.004-0.035-1.51-0.019-3.020-0.009-4.531M7.512 1.63c-0.005 1.411-0.013 2.823 0.005 4.234 0.195-0.009 0.394 0.007 0.584-0.045 0.143-0.044 0.149-0.209 0.15-0.333 0.007-0.649-0.018-1.299-0.002-1.947 0.001-0.152 0.051-0.376 0.241-0.38 0.108-0.027 0.16 0.102 0.231 0.158 0.426 0.514 0.8 1.069 1.223 1.586 0.231 0.279 0.41 0.603 0.678 0.851 0.178 0.175 0.443 0.155 0.673 0.176 0.045-0.326 0.049-0.654 0.045-0.982-0.011-1.103 0.008-2.207-0.010-3.31-0.193-0.004-0.386-0.006-0.579-0.009-0.037 0.57-0.018 1.143-0.019 1.714-0.005 0.405 0.068 0.842-0.16 1.204-0.381-0.295-0.628-0.713-0.941-1.071-0.459-0.515-0.759-1.148-1.213-1.666-0.216-0.275-0.604-0.153-0.905-0.18z"></path>
<path fill="#6d6b6b" d="M10.871 7.792c0.201-0.009 0.402-0.009 0.604-0.007-0.001 0.023-0.001 0.070-0.001 0.094-0.009 0.792-0.007 1.584 0.003 2.376 0.010 0.234-0.084 0.47-0.26 0.626-0.373 0.249-0.82 0.512-1.286 0.386-0.385-0.119-0.794-0.349-0.915-0.762-0.134-0.458-0.067-0.943-0.082-1.413 0.011-0.409-0.070-0.847 0.121-1.228 0.011 0.723-0.017 1.447-0.001 2.169-0.001 0.338 0.145 0.679 0.426 0.874 0.271 0.192 0.619 0.382 0.957 0.256 0.435-0.151 0.913-0.483 0.905-0.995 0.009-0.754 0.003-1.509-0.010-2.263-0.108 0.006-0.216 0.012-0.324 0.018-0.019 0.612-0.011 1.226-0.003 1.838-0.001 0.265-0.005 0.568-0.213 0.763-0.181 0.174-0.418 0.365-0.685 0.326-0.328-0.099-0.59-0.388-0.665-0.722-0.070-0.296-0.048-0.603-0.050-0.905 0.008-0.461-0.012-0.923 0.016-1.385 0.090 0.157 0.176 0.323 0.181 0.508 0.029 0.618-0.046 1.239 0.020 1.856 0.023 0.306 0.336 0.495 0.616 0.516 0.278-0.045 0.477-0.277 0.62-0.503 0.045-0.807-0.005-1.617 0.025-2.425z"></path>
<path fill="#6d6b6b" d="M12.408 7.863c0.15-0.078 0.325-0.062 0.489-0.070 0.331 0.003 0.665-0.017 0.993 0.033 0.487 0.082 0.927 0.537 0.872 1.050-0.026 0.336-0.285 0.578-0.501 0.81 0.198 0.523 0.427 1.035 0.62 1.56-0.218 0.009-0.436 0.013-0.654 0.011-0.229-0.477-0.352-1.014-0.668-1.444-0.195-0.041-0.395-0.007-0.59 0.013-0.064 0.485-0.027 0.976-0.094 1.461-0.146-0.017-0.295-0.024-0.436-0.069-0.105-0.174-0.091-0.388-0.097-0.584 0.009-0.715 0.012-1.431 0-2.147 0.003-0.209-0.011-0.427 0.067-0.624M12.495 7.929c-0.034 0.61-0.015 1.221-0.019 1.831-0.002 0.44-0.013 0.881 0.030 1.32 0.1-0.008 0.199-0.015 0.299-0.023 0.013-0.344-0.006-0.689 0.015-1.034 0.011-0.121 0.024-0.291 0.172-0.319 0.278-0.080 0.678-0.090 0.821 0.218 0.189 0.366 0.324 0.759 0.472 1.143 0.106 0.004 0.213 0.008 0.319 0.013-0.029-0.505-0.308-0.949-0.495-1.407 0.191-0.222 0.489-0.409 0.509-0.728 0.018-0.256 0.018-0.574-0.225-0.731-0.565-0.352-1.258-0.315-1.897-0.284z"></path>
<path fill="#6d6b6b" d="M17.351 7.829c0.206-0.031 0.475-0.127 0.64 0.047 0.083 0.145 0.092 0.314 0.090 0.477-0.003 0.737-0.003 1.473 0 2.21 0.006 0.233-0.049 0.461-0.081 0.691-0.156 0.024-0.314 0.095-0.472 0.060-0.216-0.225-0.36-0.507-0.531-0.765-0.243-0.412-0.506-0.811-0.762-1.214-0.18 0.62-0.049 1.276-0.098 1.913-0.241 0.044-0.484 0.078-0.725 0.012-0.019-1.152-0.013-2.305-0.003-3.457 0.209-0.015 0.42-0.038 0.628-0.003 0.19 0.164 0.314 0.386 0.444 0.597 0.271 0.412 0.509 0.849 0.85 1.211 0.036-0.592 0.007-1.186 0.020-1.778M17.487 7.913c-0.027 0.666 0.061 1.341-0.080 1.998-0.122-0.060-0.263-0.109-0.338-0.231-0.289-0.415-0.515-0.87-0.793-1.291-0.13-0.201-0.327-0.344-0.523-0.475-0.244 0.422-0.127 0.918-0.148 1.379 0.019 0.59-0.059 1.189 0.067 1.771 0.052-0.025 0.156-0.074 0.209-0.099 0-0.492 0-0.984-0.006-1.475 0.005-0.174-0.015-0.377 0.125-0.508 0.374 0.071 0.505 0.471 0.69 0.752 0.229 0.35 0.452 0.705 0.666 1.065 0.093 0.142 0.281 0.379 0.456 0.211 0.055-0.369 0.016-0.743 0.024-1.114-0.013-0.663 0.035-1.328-0.036-1.988-0.104 0.003-0.209 0.005-0.312 0.007z"></path>
<path fill="#6d6b6b" d="M6.114 7.797c0.703-0.029 1.407-0.015 2.111-0.012 0.296-0.023 0.223 0.339 0.228 0.53-0.266 0.009-0.531 0.039-0.794 0.080-0.005 0.836-0.001 1.672-0.002 2.508 0.005 0.126-0.020 0.252-0.102 0.352-0.193 0.030-0.388 0.019-0.582 0.021-0.042-0.167-0.064-0.338-0.061-0.51 0.001-0.79 0.003-1.579-0.001-2.369-0.266-0.041-0.533-0.062-0.801-0.087 0-0.171 0.001-0.342 0.003-0.513M6.263 7.918c-0.009 0.092-0.019 0.183-0.030 0.275 0.255 0.027 0.546-0.027 0.768 0.123 0.092 0.316 0.043 0.652 0.052 0.977 0.009 0.529-0.024 1.060 0.009 1.588-0.005 0.163 0.208 0.158 0.314 0.225 0.045-0.738 0.004-1.478 0.021-2.217 0.013-0.189 0.020-0.394 0.126-0.558 0.215-0.152 0.501-0.113 0.751-0.146-0.004-0.090-0.007-0.18-0.011-0.269-0.667-0.006-1.332-0.013-1.999 0.002z"></path>
<path fill="#6d6b6b" d="M12.951 8.277c0.312-0.053 0.648-0.066 0.954 0.022 0.383 0.122 0.455 0.697 0.128 0.919-0.334 0.259-0.787 0.148-1.173 0.116-0.020-0.342-0.156-0.773 0.092-1.057M12.993 8.516c0.011 0.212-0.051 0.448 0.041 0.644 0.355 0.121 0.753 0.019 1.053-0.202-0.004-0.122-0.007-0.243-0.009-0.364-0.351-0.114-0.723-0.080-1.085-0.078z"></path>
<path fill="#6d6b6b" d="M4.249 12.794c0.228-0.067 0.469-0.052 0.704-0.042 0.172 0.023 0.374 0.031 0.495 0.176 0.671 0.715 0.759 1.842 0.358 2.713-0.285 0.588-1.082 0.832-1.653 0.52-0.447-0.214-0.665-0.716-0.723-1.184-0.047-0.446-0.051-0.916 0.114-1.339 0.135-0.352 0.418-0.614 0.705-0.844M4.315 12.95c-0.329 0.15-0.564 0.455-0.666 0.798-0.264 0.651-0.132 1.396 0.205 1.994 0.129 0.203 0.366 0.289 0.584 0.361 0.348 0.128 0.73-0.020 1.015-0.223 0.444-0.388 0.457-1.032 0.437-1.576-0.017-0.505-0.197-1.077-0.672-1.328-0.28-0.124-0.616-0.122-0.904-0.025z"></path>
<path fill="#6d6b6b" d="M6.886 12.894c0.132-0.124 0.351-0.124 0.492-0.017 0.195 0.143 0.32 0.356 0.446 0.557 0.227 0.375 0.463 0.744 0.683 1.123 0.041-0.003 0.124-0.009 0.166-0.012 0.056-0.565 0.035-1.134 0.049-1.701 0.192-0.007 0.393-0.037 0.579 0.028 0.119 0.104 0.077 0.284 0.094 0.425-0.011 0.785-0.009 1.57-0.001 2.354-0.009 0.191 0.011 0.473-0.219 0.54-0.226 0.082-0.427-0.106-0.542-0.279-0.283-0.418-0.504-0.876-0.825-1.268-0.112-0.146-0.218-0.295-0.333-0.438-0.043 0.644-0.007 1.289-0.024 1.933-0.146 0.025-0.293 0.074-0.443 0.048-0.179-0.11-0.157-0.353-0.169-0.535 0.003-0.693 0.012-1.387 0-2.080 0.003-0.226-0.014-0.457 0.047-0.677M6.993 12.9c-0.017 1.055-0.025 2.111 0.004 3.166 0.104-0.001 0.209-0.003 0.313-0.003 0.037-0.564-0.005-1.13 0.020-1.695 0-0.165 0.121-0.289 0.21-0.416 0.39 0.566 0.734 1.162 1.096 1.746 0.064 0.098 0.127 0.2 0.212 0.283 0.104 0.035 0.296 0.084 0.322-0.074 0.045-0.219 0.027-0.445 0.029-0.667-0.012-0.604 0.003-1.207-0.001-1.811 0.006-0.195-0.083-0.371-0.17-0.538-0.229 0.586-0.031 1.221-0.135 1.824-0.089 0.096-0.234 0.082-0.351 0.114-0.297-0.495-0.618-0.977-0.907-1.477-0.090-0.143-0.175-0.305-0.327-0.391-0.102-0.033-0.209-0.044-0.314-0.062z"></path>
<path fill="#6d6b6b" d="M12.129 12.796c0.503-0.003 1.007-0.010 1.51 0 0.185-0.009 0.336 0.11 0.479 0.211 0.322 0.291 0.494 0.786 0.275 1.187-0.112 0.245-0.403 0.469-0.284 0.766 0.142 0.41 0.37 0.796 0.388 1.241-0.166 0.005-0.333 0.010-0.499 0.015-0.229-0.392-0.359-0.83-0.569-1.231-0.136-0.293-0.51-0.143-0.761-0.151-0.010 0.396 0.045 0.801-0.045 1.191-0.029 0.227-0.378 0.237-0.458 0.037-0.070-0.197-0.049-0.411-0.054-0.616 0.015-0.848-0.005-1.696 0.015-2.543 0.001-0.027 0.002-0.080 0.003-0.106M12.258 12.927c-0.074 0.703-0.025 1.41-0.043 2.115-0.009 0.334 0.008 0.669 0.051 0.999 0.1-0.019 0.201-0.039 0.302-0.057 0.022-0.388-0.023-0.782 0.041-1.166 0.204-0.186 0.541-0.146 0.786-0.068 0.339 0.331 0.362 0.856 0.638 1.231 0.109 0.031 0.222 0.038 0.334 0.053-0.049-0.477-0.392-0.854-0.473-1.32 0.082-0.261 0.413-0.393 0.45-0.681 0.019-0.204 0.029-0.417-0.031-0.616-0.075-0.14-0.215-0.23-0.348-0.31-0.514-0.314-1.14-0.15-1.708-0.182z"></path>
<path fill="#6d6b6b" d="M18.147 12.798c0.414-0.011 0.829-0.005 1.244-0.008 0.18 0.004 0.383-0.023 0.529 0.109 0.462 0.278 0.781 0.793 0.77 1.338-0.001 0.293 0.017 0.588-0.023 0.88-0.129 0.597-0.64 1.139-1.275 1.159-0.378 0.001-0.756 0.017-1.132-0.009-0.146-0.080-0.158-0.27-0.17-0.417-0.003-0.827 0.002-1.655-0.002-2.482-0.005-0.192 0.020-0.382 0.060-0.57M18.254 12.923c-0.048 1.026-0.020 2.055-0.017 3.082 0.473 0.006 0.948 0.035 1.42-0.003 0.316-0.026 0.523-0.314 0.656-0.574 0.15-0.349 0.305-0.731 0.22-1.117-0.049-0.23-0.122-0.454-0.192-0.678-0.108-0.384-0.471-0.708-0.88-0.709-0.402-0.012-0.806 0.004-1.208-0.001z"></path>
<path fill="#6d6b6b" d="M15.199 12.849c0.731-0.063 1.469-0.056 2.201-0.004-0.026 0.168 0.041 0.416-0.139 0.513-0.459 0.051-0.924-0.007-1.385 0.030-0.037 0.188-0.102 0.382-0.060 0.575 0.244 0.31 0.695 0.144 1.034 0.183 0.023 0.215 0.035 0.432 0.038 0.649-0.362 0.001-0.729-0.001-1.085 0.077-0.003 0.207-0.005 0.415-0.006 0.622 0.509 0.14 1.040 0.072 1.56 0.068 0.053 0.141 0.171 0.288 0.126 0.444-0.132 0.257-0.464 0.197-0.703 0.207-0.465-0.020-0.935 0.033-1.397-0.031-0.174-0.004-0.199-0.206-0.216-0.34-0.029-0.378-0.004-0.757-0.009-1.135 0.008-0.62-0.031-1.241 0.040-1.859M15.269 13.5c0.010 0.83-0.015 1.661 0.020 2.492 0.609 0.035 1.219 0.031 1.828 0.022 0.128 0.009 0.215-0.094 0.311-0.16-0.475-0.089-0.958-0.013-1.435-0.054-0.183-0.015-0.348-0.156-0.375-0.34-0.028-0.215-0.031-0.445 0.060-0.646 0.335-0.167 0.726-0.107 1.088-0.127 0.001-0.108 0.003-0.215 0.006-0.323-0.306-0.025-0.622 0.013-0.921-0.070-0.231-0.078-0.255-0.364-0.248-0.572 0.011-0.158 0.018-0.39 0.204-0.442 0.496-0.106 1.010-0.001 1.508-0.103-0.138-0.108-0.271-0.259-0.462-0.247-0.424-0.007-0.851-0.029-1.273 0.017-0.249 0.050-0.324 0.333-0.311 0.554z"></path>
<path fill="#6d6b6b" d="M4.509 13.268c0.241-0.054 0.554-0.061 0.71 0.167 0.373 0.396 0.312 0.976 0.293 1.476-0.003 0.336-0.214 0.633-0.477 0.824-0.199 0.148-0.479 0.098-0.674-0.032-0.269-0.159-0.341-0.491-0.446-0.763-0.164-0.463 0.005-0.957 0.246-1.358 0.088-0.129 0.2-0.255 0.348-0.314M4.191 13.767c-0.096 0.282-0.225 0.571-0.199 0.875 0.059 0.31 0.183 0.602 0.268 0.905 0.259 0.062 0.559 0.178 0.805 0.013 0.214-0.172 0.342-0.441 0.361-0.714 0.023-0.317 0.039-0.649-0.071-0.952-0.102-0.214-0.242-0.436-0.464-0.54-0.303-0.115-0.606 0.136-0.7 0.413z"></path>
<path fill="#6d6b6b" d="M12.731 13.268c0.286-0.069 0.594-0.069 0.879 0.005 0.338 0.098 0.52 0.549 0.297 0.836-0.273 0.277-0.699 0.256-1.056 0.226-0.277-0.013-0.288-0.356-0.297-0.563 0.018-0.166-0.021-0.439 0.177-0.504M12.742 13.403c-0.013 0.204-0.017 0.408-0.017 0.612 0.351 0.004 0.705 0.028 1.054-0.015 0.106-0.062 0.099-0.18 0.079-0.285-0.127-0.145-0.281-0.323-0.492-0.313-0.208-0.009-0.416 0-0.624 0.001z"></path>
<path fill="#c0baba" d="M2.034 0.487c0.215-0.187 0.513-0.12 0.773-0.132 6.215 0.002 12.43 0.001 18.644 0.001 0.145-0.005 0.289 0.031 0.41 0.114 0.35 0.269 0.235 0.755 0.253 1.136-0.009 7.133-0.002 14.266-0.003 21.399-0.006 0.166-0.037 0.352-0.174 0.464-0.132 0.105-0.312 0.094-0.471 0.105-6.479-0.015-12.959 0.006-19.438-0.011-0.027 0-0.082-0.001-0.11-0.001-0.025-0.21-0.071-0.418-0.072-0.63 0.001-7.334-0.001-14.668 0.001-22.002 0.007-0.161 0.033-0.354 0.187-0.443M2.107 0.625c-0.112 0.058-0.078 0.201-0.094 0.304 0.005 5.061 0.001 10.121 0.003 15.182 0.009 2.446-0.019 4.892 0.015 7.338 0.525 0.055 1.053 0.035 1.58 0.035 5.951 0.002 11.903-0.001 17.854 0.002 0.291 0.041 0.594-0.171 0.563-0.483-0.001-7.312-0.002-14.625 0.001-21.938-0.005-0.17-0.033-0.392-0.216-0.463-0.347-0.13-0.726-0.075-1.088-0.084-6.062 0.003-12.124 0.001-18.187 0.001-0.147 0.010-0.303 0.025-0.431 0.104z"></path>
<path fill="#c0baba" d="M14.4 1.397c0.509-0.010 1.092-0.004 1.491 0.359 0.334 0.277 0.582 0.645 0.767 1.034 0.102 0.213 0.094 0.455 0.098 0.685-0.002 0.291 0.007 0.583-0.009 0.874-0.009 0.31-0.183 0.577-0.328 0.839-0.257 0.416-0.654 0.77-1.126 0.915-0.471 0.057-0.955 0.061-1.425-0.008-0.439-0.14-0.818-0.454-1.068-0.838-0.409-0.681-0.594-1.534-0.336-2.303 0.183-0.513 0.462-1.038 0.954-1.314 0.291-0.189 0.648-0.203 0.983-0.243M13.76 1.665c-0.537 0.223-0.947 0.707-1.080 1.271-0.035 0.535-0.041 1.077 0.004 1.612 0.161 0.566 0.56 1.080 1.113 1.308 0.384 0.203 0.832 0.13 1.249 0.124 0.315-0.065 0.61-0.229 0.86-0.432 0.339-0.278 0.486-0.703 0.64-1.098 0.092-0.224 0.066-0.47 0.072-0.706-0.006-0.239 0.020-0.489-0.080-0.713-0.119-0.272-0.212-0.562-0.394-0.8-0.222-0.305-0.558-0.507-0.906-0.637-0.241-0.043-0.488-0.024-0.731-0.029-0.251 0.009-0.519-0.027-0.747 0.099z"></path>
<path fill="#c0baba" d="M10.425 1.594c0.312-0.208 0.708-0.129 1.058-0.103-0.004 0.021-0.012 0.063-0.016 0.084-0.289-0.015-0.58-0.017-0.868 0.010-0.010 0.89 0.028 1.78-0.023 2.669-0.304-0.229-0.562-0.512-0.775-0.825-0.336-0.489-0.758-0.913-1.056-1.429 0.031-0.008 0.092-0.024 0.122-0.032 0.495 0.632 0.916 1.33 1.505 1.883 0.081-0.75-0.030-1.509 0.054-2.258z"></path>
<path fill="#c0baba" d="M14.15 2.29c0.263-0.080 0.547-0.049 0.817-0.034 0.298 0.084 0.509 0.345 0.678 0.591 0.233 0.582 0.191 1.239 0.015 1.83-0.165 0.265-0.412 0.492-0.701 0.617-0.302 0.036-0.642 0.070-0.905-0.114-0.334-0.166-0.511-0.517-0.633-0.851-0.035-0.368-0.027-0.743-0.005-1.112 0.116-0.381 0.348-0.773 0.735-0.927M14.159 2.48c-0.209 0.096-0.397 0.267-0.452 0.498-0.151 0.546-0.156 1.147 0.042 1.682 0.241 0.466 0.887 0.56 1.339 0.376 0.351-0.134 0.508-0.537 0.507-0.889 0.004-0.396 0.039-0.803-0.060-1.19-0.223-0.505-0.888-0.723-1.376-0.477z"></path>
<path fill="#c0baba" d="M8.992 7.733c0.233-0.039 0.497-0.049 0.707 0.077 0.035 0.156 0.032 0.318 0.034 0.477-0.002 0.72-0.017 1.441 0.011 2.161 0.193 0.038 0.388 0.103 0.587 0.075 0.193-0.062 0.346-0.201 0.515-0.306-0.143 0.226-0.342 0.458-0.62 0.503-0.28-0.021-0.593-0.21-0.616-0.516-0.066-0.616 0.009-1.238-0.020-1.856-0.005-0.185-0.092-0.351-0.181-0.508-0.118 0.007-0.235 0.015-0.352 0.023-0.191 0.381-0.11 0.819-0.121 1.228 0.015 0.47-0.053 0.955 0.082 1.413 0.122 0.413 0.53 0.643 0.915 0.762 0.465 0.126 0.913-0.138 1.286-0.386-0.006 0.042-0.019 0.126-0.025 0.167-0.392 0.222-0.831 0.442-1.295 0.319-0.392-0.119-0.83-0.323-1.001-0.722-0.092-0.353-0.040-0.724-0.050-1.084 0.009-0.513-0.015-1.028 0.003-1.54 0.009-0.106 0.008-0.265 0.143-0.287z"></path>
<path fill="#c0baba" d="M12.146 8.030c-0.014-0.2 0.189-0.301 0.36-0.306 0.445-0.025 0.891-0.009 1.336-0.007 0.63-0.017 1.209 0.609 1.107 1.24-0.037 0.327-0.332 0.531-0.471 0.812 0.062 0.551 0.527 0.987 0.483 1.566-0.273 0.014-0.547 0.020-0.82 0.011-0.211-0.473-0.441-0.941-0.593-1.439-0.194-0.024-0.388-0.047-0.58-0.082 0.195-0.020 0.395-0.053 0.59-0.013 0.316 0.43 0.439 0.967 0.668 1.444 0.219 0.002 0.437-0.003 0.654-0.011-0.193-0.525-0.422-1.037-0.62-1.56 0.216-0.232 0.475-0.474 0.501-0.81 0.054-0.513-0.386-0.968-0.872-1.050-0.328-0.050-0.662-0.031-0.993-0.033-0.164 0.008-0.339-0.008-0.489 0.070-0.078 0.198-0.064 0.416-0.067 0.624 0.012 0.716 0.009 1.431 0 2.147 0.006 0.196-0.008 0.41 0.097 0.584 0.141 0.045 0.29 0.051 0.436 0.069 0.068-0.485 0.031-0.977 0.094-1.461 0.073 0.5 0.040 1.007 0.024 1.51-0.227 0.029-0.492 0.114-0.693-0.041-0.186-0.134-0.154-0.393-0.164-0.595 0.018-0.89-0.009-1.781 0.011-2.67z"></path>
<path fill="#c0baba" d="M11.473 7.879c0.098 0.14 0.193 0.295 0.185 0.473 0.008 0.449 0.004 0.899 0.003 1.348 0.009 0.203-0.078 0.389-0.185 0.556-0.010-0.792-0.013-1.584-0.003-2.376z"></path>
<path fill="#c0baba" d="M6.681 12.825c0.198-0.119 0.443-0.121 0.665-0.094 0.199 0.025 0.305 0.218 0.408 0.366 0.272 0.449 0.56 0.888 0.822 1.343 0.040-0.559-0.005-1.12 0.060-1.677 0.275-0.039 0.554-0.036 0.828 0.013 0.033 1.001 0.005 2.003 0.019 3.004-0.019 0.177 0.025 0.402-0.121 0.535-0.17 0.058-0.371 0.069-0.539-0.003-0.195-0.142-0.301-0.368-0.434-0.563-0.215-0.357-0.497-0.688-0.581-1.107 0.321 0.392 0.542 0.85 0.825 1.268 0.116 0.174 0.316 0.362 0.542 0.279 0.231-0.067 0.21-0.349 0.219-0.54-0.008-0.784-0.010-1.569 0.001-2.354-0.017-0.14 0.025-0.32-0.094-0.425-0.186-0.066-0.387-0.035-0.579-0.028-0.014 0.567 0.007 1.136-0.049 1.701-0.041 0.003-0.124 0.009-0.166 0.012-0.22-0.379-0.457-0.748-0.683-1.123-0.126-0.201-0.251-0.414-0.446-0.557-0.141-0.106-0.36-0.106-0.492 0.017-0.061 0.219-0.043 0.451-0.047 0.677 0.012 0.693 0.003 1.387 0 2.080 0.012 0.183-0.010 0.425 0.169 0.535 0.149 0.025 0.297-0.023 0.443-0.048 0.001 0.069 0.001 0.138 0.001 0.207-0.216 0.004-0.439 0.033-0.649-0.030-0.16-0.053-0.139-0.263-0.156-0.398-0.005-0.826 0.010-1.652-0.003-2.478 0.001-0.205-0.009-0.412 0.037-0.612z"></path>
<path fill="#c0baba" d="M15.106 12.827c0.082-0.131 0.267-0.084 0.398-0.104 0.56 0.006 1.12-0.006 1.68 0.005 0.106 0.009 0.268 0.007 0.291 0.142 0.040 0.211 0.047 0.495-0.154 0.628-0.431 0.109-0.892-0.043-1.322 0.086-0.033 0.132-0.051 0.267-0.070 0.402 0.326 0.021 0.659-0.015 0.98 0.053 0.104 0.222 0.144 0.491 0.064 0.727-0.028 0.12-0.166 0.098-0.259 0.116-0.253 0.018-0.507 0.009-0.76 0.012-0.005 0.191-0.005 0.382-0.001 0.574 0.574 0.035 1.155-0.038 1.722 0.079 0.006 0.216 0.033 0.437-0.017 0.649-0.033 0.122-0.178 0.133-0.281 0.149-0.421 0.030-0.844-0.001-1.266 0.009-0.316-0.005-0.638 0.031-0.949-0.037-0.1-0.16-0.090-0.356-0.095-0.537 0.005-0.827 0.008-1.654-0.001-2.48 0.003-0.158-0.006-0.321 0.039-0.474M15.199 12.849c-0.071 0.617-0.032 1.239-0.040 1.858 0.005 0.378-0.020 0.757 0.009 1.135 0.017 0.134 0.042 0.336 0.216 0.34 0.462 0.064 0.932 0.011 1.397 0.031 0.239-0.011 0.57 0.050 0.703-0.207 0.045-0.156-0.073-0.303-0.126-0.444-0.519 0.003-1.051 0.072-1.56-0.068 0.001-0.207 0.003-0.415 0.006-0.622 0.356-0.078 0.723-0.076 1.085-0.077-0.003-0.217-0.015-0.434-0.038-0.649-0.34-0.039-0.79 0.126-1.034-0.183-0.042-0.193 0.023-0.387 0.060-0.575 0.461-0.037 0.926 0.021 1.385-0.030 0.18-0.097 0.113-0.345 0.139-0.513-0.732-0.052-1.471-0.059-2.201 0.004z"></path>
<path fill="#c0baba" d="M3.395 13.671c0.125-0.398 0.397-0.837 0.854-0.877-0.287 0.23-0.57 0.491-0.705 0.844-0.166 0.423-0.162 0.893-0.114 1.339 0.058 0.468 0.276 0.97 0.723 1.184 0.57 0.312 1.368 0.068 1.653-0.52 0.4-0.87 0.313-1.998-0.358-2.713 0.213 0.11 0.427 0.263 0.498 0.505 0.088 0.283 0.171 0.568 0.235 0.858 0.088 0.415-0.095 0.815-0.189 1.211-0.094 0.412-0.444 0.751-0.85 0.853-0.342 0.060-0.714 0.068-1.037-0.074-0.422-0.23-0.732-0.681-0.755-1.166-0.036-0.48-0.052-0.97 0.045-1.443z"></path>
<path fill="#c0baba" d="M11.942 12.874c0.046 0.007 0.138 0.020 0.185 0.027-0.020 0.847 0 1.695-0.015 2.543 0.005 0.205-0.016 0.419 0.054 0.616 0.080 0.199 0.429 0.189 0.458-0.037 0.090-0.39 0.035-0.794 0.045-1.191 0.251 0.008 0.624-0.142 0.761 0.151 0.21 0.4 0.34 0.839 0.569 1.231 0.166-0.005 0.332-0.010 0.499-0.015-0.018-0.445-0.245-0.831-0.388-1.241-0.119-0.297 0.172-0.521 0.284-0.766 0.219-0.401 0.047-0.896-0.275-1.187 0.351 0.081 0.481 0.457 0.539 0.771 0.007 0.376-0.307 0.644-0.438 0.974-0.060 0.344 0.204 0.619 0.336 0.911 0.118 0.207 0.124 0.449 0.131 0.68-0.253 0.005-0.507 0.009-0.759 0.013-0.297-0.447-0.441-0.969-0.643-1.46-0.169-0.004-0.338-0.003-0.507 0.003-0.007 0.42 0.047 0.856-0.072 1.266-0.084 0.251-0.435 0.234-0.602 0.082-0.195-0.19-0.17-0.486-0.176-0.735 0.015-0.878-0.008-1.758 0.015-2.636z"></path>
<path fill="#c0baba" d="M4.191 13.767c0.094-0.277 0.397-0.528 0.7-0.413 0.222 0.104 0.362 0.326 0.464 0.54 0.11 0.303 0.094 0.635 0.071 0.952-0.019 0.273-0.147 0.541-0.361 0.714-0.246 0.165-0.546 0.049-0.805-0.013-0.085-0.303-0.209-0.595-0.268-0.905-0.025-0.304 0.104-0.593 0.199-0.875M4.308 13.737c-0.215 0.551-0.115 1.15-0.005 1.712 0.248 0.029 0.497 0.040 0.747 0.044 0.143-0.289 0.318-0.582 0.308-0.917 0.032-0.406-0.122-0.855-0.483-1.072-0.211-0.126-0.465 0.044-0.567 0.233z"></path>
<path fill="#c0baba" d="M18.685 13.427c0.023-0.023 0.068-0.067 0.090-0.090 0.245-0.021 0.495-0.027 0.741 0.005 0.131 0.068 0.254 0.156 0.355 0.265 0.101 0.192 0.131 0.412 0.191 0.619 0.1 0.376-0.041 0.751-0.15 1.107-0.029 0.099-0.096 0.186-0.189 0.231-0.321 0.172-0.704 0.121-1.043 0.038-0.008-0.725-0.021-1.452 0.005-2.176M18.903 13.711c-0.051 0.584-0.010 1.174-0.009 1.76 0.298 0.001 0.739 0.103 0.879-0.253 0.106-0.425 0.080-0.876 0.031-1.308-0.014-0.249-0.295-0.318-0.495-0.364-0.15-0.027-0.388-0.041-0.406 0.165z"></path>
<path fill="#c0baba" d="M11.010 17.057c0.511-0.108 1.041-0.047 1.56-0.059 0.537-0.026 1.019 0.257 1.454 0.539 0.628 0.429 1.009 1.136 1.166 1.867 0.111 0.605-0.112 1.212-0.408 1.731-0.425 0.531-0.931 1.061-1.61 1.242-0.511 0.193-1.070 0.354-1.613 0.195-0.466-0.152-0.961-0.26-1.364-0.554-0.289-0.214-0.559-0.459-0.778-0.745-0.228-0.296-0.327-0.661-0.455-1.005-0.098-0.266-0.142-0.56-0.066-0.836 0.156-0.522 0.332-1.061 0.712-1.467 0.36-0.437 0.876-0.717 1.401-0.908M11.323 17.144c-0.4 0.116-0.765 0.33-1.121 0.542-0.687 0.463-1.102 1.28-1.134 2.101 0.062 0.685 0.321 1.382 0.85 1.843 0.444 0.376 1.001 0.595 1.564 0.718 0.307 0.084 0.631 0.114 0.944 0.049 0.35-0.075 0.714-0.131 1.029-0.312 0.488-0.271 0.963-0.621 1.226-1.128 0.283-0.538 0.441-1.183 0.252-1.78-0.185-0.852-0.868-1.518-1.653-1.848-0.605-0.294-1.309-0.302-1.958-0.185z"></path>
<path fill="#fff" d="M2.107 0.625c0.128-0.080 0.284-0.094 0.431-0.104 6.062-0.001 12.124 0.002 18.187-0.001 0.362 0.009 0.741-0.047 1.088 0.084 0.183 0.071 0.211 0.292 0.216 0.463-0.003 7.312-0.001 14.625-0.001 21.938 0.031 0.312-0.272 0.524-0.563 0.483-5.951-0.003-11.903 0-17.854-0.002-0.527-0.001-1.055 0.019-1.58-0.035-0.034-2.445-0.005-4.892-0.015-7.338-0.001-5.061 0.003-10.121-0.003-15.182 0.015-0.103-0.019-0.246 0.094-0.304M14.4 1.397c-0.335 0.039-0.691 0.054-0.983 0.243-0.492 0.276-0.771 0.8-0.954 1.314-0.259 0.769-0.074 1.623 0.336 2.303 0.25 0.384 0.629 0.698 1.068 0.838 0.47 0.069 0.954 0.066 1.425 0.008 0.472-0.144 0.87-0.498 1.126-0.915 0.146-0.262 0.32-0.529 0.328-0.839 0.017-0.291 0.007-0.582 0.009-0.874-0.004-0.23 0.005-0.472-0.098-0.685-0.185-0.389-0.433-0.757-0.767-1.034-0.4-0.363-0.983-0.369-1.491-0.359M7.392 1.517c-0.010 1.51-0.026 3.021 0.009 4.531 0.325 0.009 0.65 0.007 0.975-0.004 0.176-0.913-0.017-1.851 0.12-2.766 0.36 0.401 0.647 0.86 0.991 1.275 0.356 0.429 0.66 0.898 1.022 1.321 0.203 0.273 0.583 0.18 0.874 0.162 0.108-0.11 0.078-0.275 0.088-0.414-0.005-1.349 0.003-2.697-0.004-4.047 0.004-0.021 0.012-0.063 0.016-0.084-0.35-0.026-0.746-0.105-1.058 0.103-0.084 0.749 0.027 1.508-0.054 2.258-0.589-0.554-1.009-1.251-1.505-1.883-0.030 0.008-0.091 0.024-0.122 0.032-0.109-0.183-0.245-0.354-0.418-0.48-0.31-0.039-0.624-0.013-0.935-0.004M8.992 7.733c-0.135 0.021-0.134 0.181-0.143 0.287-0.019 0.513 0.006 1.027-0.003 1.54 0.010 0.36-0.041 0.731 0.050 1.084 0.17 0.399 0.608 0.603 1.001 0.722 0.464 0.123 0.903-0.097 1.295-0.319 0.007-0.041 0.019-0.125 0.025-0.167 0.176-0.156 0.27-0.392 0.26-0.626 0.106-0.166 0.193-0.353 0.185-0.556 0.001-0.449 0.005-0.898-0.003-1.348 0.007-0.178-0.087-0.333-0.185-0.473 0-0.023 0.001-0.070 0.001-0.094-0.201-0.002-0.402-0.001-0.604 0.007-0.030 0.808 0.019 1.618-0.025 2.425-0.168 0.106-0.322 0.245-0.515 0.306-0.199 0.028-0.394-0.037-0.587-0.075-0.028-0.72-0.013-1.441-0.011-2.161-0.002-0.16 0.001-0.322-0.034-0.477-0.211-0.126-0.474-0.116-0.707-0.077M12.146 8.030c-0.019 0.889 0.007 1.78-0.011 2.67 0.010 0.202-0.022 0.461 0.164 0.595 0.201 0.155 0.466 0.070 0.693 0.041 0.016-0.503 0.049-1.010-0.024-1.51 0.192 0.035 0.386 0.057 0.58 0.082 0.152 0.497 0.382 0.965 0.593 1.439 0.273 0.009 0.548 0.003 0.82-0.011 0.044-0.579-0.422-1.015-0.483-1.566 0.139-0.28 0.434-0.485 0.471-0.812 0.102-0.631-0.477-1.257-1.107-1.24-0.445-0.002-0.892-0.018-1.336 0.007-0.172 0.005-0.374 0.106-0.36 0.306M17.351 7.829c-0.013 0.592 0.016 1.186-0.020 1.778-0.34-0.362-0.579-0.798-0.85-1.211-0.13-0.211-0.254-0.433-0.444-0.597-0.208-0.035-0.42-0.011-0.628 0.003-0.010 1.152-0.016 2.305 0.003 3.457 0.241 0.066 0.484 0.032 0.725-0.012 0.049-0.636-0.082-1.292 0.098-1.913 0.256 0.403 0.519 0.802 0.762 1.214 0.171 0.258 0.315 0.54 0.531 0.765 0.158 0.035 0.316-0.035 0.472-0.060 0.032-0.23 0.087-0.458 0.081-0.691-0.003-0.737-0.003-1.473 0-2.21 0.002-0.163-0.007-0.332-0.090-0.477-0.164-0.174-0.434-0.078-0.64-0.047M6.114 7.797c-0.002 0.171-0.003 0.342-0.003 0.513 0.267 0.025 0.535 0.046 0.801 0.087 0.003 0.79 0.001 1.579 0.001 2.369-0.003 0.172 0.019 0.343 0.061 0.51 0.194-0.001 0.389 0.009 0.582-0.021 0.082-0.1 0.107-0.227 0.102-0.352 0.001-0.836-0.003-1.672 0.002-2.508 0.263-0.040 0.528-0.070 0.794-0.080-0.005-0.191 0.068-0.554-0.228-0.53-0.703-0.003-1.407-0.017-2.111 0.012M6.681 12.825c-0.045 0.201-0.035 0.408-0.037 0.612 0.013 0.826-0.002 1.652 0.003 2.478 0.017 0.135-0.004 0.345 0.156 0.398 0.21 0.063 0.433 0.034 0.649 0.030-0.001-0.069-0.001-0.138-0.001-0.207 0.017-0.644-0.019-1.29 0.024-1.933 0.115 0.143 0.221 0.292 0.333 0.438 0.084 0.419 0.366 0.75 0.581 1.107 0.133 0.195 0.239 0.421 0.434 0.563 0.168 0.072 0.368 0.062 0.539 0.003 0.146-0.132 0.102-0.358 0.121-0.535-0.014-1.001 0.015-2.003-0.019-3.004-0.273-0.049-0.553-0.052-0.828-0.013-0.066 0.557-0.020 1.118-0.060 1.677-0.262-0.455-0.55-0.894-0.822-1.343-0.104-0.148-0.21-0.341-0.408-0.366-0.223-0.027-0.467-0.025-0.665 0.094M15.106 12.827c-0.045 0.153-0.036 0.316-0.039 0.474 0.009 0.826 0.006 1.653 0.001 2.48 0.005 0.18-0.005 0.377 0.095 0.537 0.312 0.069 0.633 0.033 0.949 0.037 0.422-0.011 0.845 0.021 1.266-0.009 0.104-0.016 0.249-0.027 0.281-0.149 0.051-0.213 0.023-0.433 0.017-0.649-0.568-0.117-1.149-0.044-1.722-0.079-0.004-0.191-0.004-0.382 0.001-0.574 0.253-0.003 0.507 0.006 0.76-0.012 0.093-0.018 0.231 0.003 0.259-0.116 0.080-0.235 0.039-0.505-0.064-0.727-0.322-0.068-0.654-0.031-0.98-0.053 0.018-0.135 0.037-0.27 0.070-0.402 0.43-0.129 0.89 0.023 1.322-0.086 0.201-0.134 0.194-0.417 0.154-0.628-0.023-0.135-0.186-0.134-0.291-0.142-0.56-0.011-1.12 0.001-1.68-0.005-0.131 0.021-0.316-0.027-0.398 0.104M3.395 13.671c-0.098 0.473-0.082 0.963-0.045 1.443 0.023 0.485 0.334 0.936 0.755 1.166 0.323 0.142 0.695 0.133 1.037 0.074 0.406-0.102 0.756-0.441 0.85-0.853 0.094-0.396 0.277-0.796 0.189-1.211-0.064-0.289-0.146-0.575-0.235-0.858-0.072-0.241-0.285-0.394-0.498-0.505-0.12-0.145-0.322-0.152-0.495-0.176-0.235-0.010-0.476-0.025-0.704 0.042-0.457 0.040-0.729 0.479-0.854 0.877M12.129 12.796c-0.001 0.027-0.002 0.080-0.003 0.106-0.046-0.007-0.138-0.021-0.185-0.027-0.023 0.878 0 1.758-0.015 2.636 0.007 0.249-0.018 0.545 0.176 0.735 0.167 0.152 0.518 0.17 0.602-0.082 0.119-0.41 0.064-0.845 0.072-1.266 0.169-0.006 0.338-0.007 0.507-0.003 0.203 0.491 0.346 1.013 0.643 1.46 0.253-0.003 0.506-0.008 0.759-0.013-0.007-0.231-0.013-0.473-0.131-0.68-0.132-0.292-0.396-0.568-0.336-0.911 0.131-0.33 0.445-0.598 0.438-0.974-0.058-0.314-0.188-0.69-0.539-0.771-0.142-0.1-0.294-0.22-0.479-0.211-0.503-0.010-1.007-0.003-1.51 0M18.147 12.798c-0.039 0.188-0.064 0.378-0.060 0.57 0.004 0.827-0.001 1.655 0.002 2.482 0.012 0.147 0.025 0.338 0.17 0.417 0.376 0.026 0.755 0.010 1.132 0.009 0.635-0.021 1.146-0.562 1.275-1.159 0.040-0.291 0.021-0.587 0.023-0.88 0.011-0.545-0.308-1.060-0.77-1.338-0.146-0.132-0.349-0.105-0.529-0.109-0.415 0.003-0.83-0.003-1.244 0.008M11.010 17.057c-0.525 0.191-1.040 0.471-1.401 0.908-0.38 0.406-0.556 0.945-0.712 1.467-0.076 0.277-0.033 0.57 0.066 0.836 0.128 0.344 0.227 0.709 0.455 1.005 0.219 0.285 0.489 0.531 0.778 0.745 0.402 0.294 0.898 0.402 1.364 0.554 0.544 0.158 1.102-0.003 1.613-0.195 0.679-0.181 1.185-0.711 1.61-1.242 0.295-0.519 0.519-1.126 0.408-1.731-0.157-0.731-0.537-1.439-1.166-1.867-0.435-0.281-0.917-0.565-1.454-0.539-0.519 0.012-1.049-0.049-1.56 0.059z"></path>
<path fill="#fff" d="M14.159 2.48c0.489-0.245 1.154-0.027 1.376 0.477 0.1 0.387 0.064 0.794 0.060 1.19 0.001 0.352-0.156 0.755-0.507 0.889-0.452 0.184-1.098 0.090-1.339-0.376-0.198-0.535-0.193-1.136-0.042-1.682 0.055-0.231 0.243-0.402 0.452-0.498z"></path>
<path fill="#fff" d="M12.993 8.516c0.362-0.002 0.734-0.037 1.085 0.078 0.002 0.122 0.005 0.243 0.009 0.364-0.3 0.221-0.698 0.323-1.053 0.202-0.092-0.196-0.029-0.432-0.041-0.644z"></path>
<path fill="#fff" d="M12.742 13.403c0.208-0.001 0.416-0.009 0.624-0.001 0.211-0.010 0.365 0.168 0.492 0.313 0.020 0.105 0.027 0.223-0.079 0.285-0.35 0.043-0.703 0.019-1.054 0.015-0.001-0.205 0.004-0.408 0.017-0.612z"></path>
<path fill="#fff" d="M4.308 13.737c0.102-0.189 0.356-0.358 0.567-0.233 0.361 0.217 0.515 0.667 0.483 1.072 0.010 0.334-0.164 0.627-0.308 0.917-0.25-0.004-0.499-0.015-0.747-0.044-0.11-0.562-0.21-1.161 0.005-1.712z"></path>
<path fill="#fff" d="M18.903 13.711c0.019-0.206 0.256-0.192 0.406-0.165 0.199 0.046 0.481 0.114 0.495 0.364 0.049 0.431 0.075 0.883-0.031 1.308-0.14 0.356-0.581 0.254-0.879 0.253-0.001-0.586-0.042-1.175 0.009-1.76z"></path>
<path fill="#eb413b" d="M11.323 17.144c0.649-0.116 1.353-0.109 1.958 0.185 0.784 0.331 1.467 0.997 1.653 1.848 0.189 0.596 0.031 1.241-0.252 1.78-0.263 0.507-0.738 0.857-1.226 1.128-0.315 0.181-0.679 0.237-1.029 0.312-0.313 0.066-0.637 0.035-0.944-0.049-0.564-0.123-1.12-0.342-1.564-0.718-0.529-0.461-0.789-1.158-0.85-1.843 0.031-0.822 0.447-1.638 1.134-2.101 0.356-0.212 0.721-0.426 1.121-0.542z"></path>
</svg>
