<?xml version="1.0" encoding="utf-8"?>
<!-- Generated by IcoMoon.io -->
<!DOCTYPE svg PUBLIC "-//W3C//DTD SVG 1.1//EN" "http://www.w3.org/Graphics/SVG/1.1/DTD/svg11.dtd">
<svg version="1.1" xmlns="http://www.w3.org/2000/svg" xmlns:xlink="http://www.w3.org/1999/xlink" width="24" height="24" viewBox="0 0 24 24">
<path fill="#1a1816" d="M0.503 0.431c0.2-0.185 0.44-0.369 0.723-0.382 7.096-0.034 14.193-0.005 21.289-0.011 0.132 0.002 0.266-0.013 0.396 0.014 0.183 0.076 0.351 0.185 0.505 0.308 0.265 0.219 0.414 0.538 0.559 0.842v10.224c-0.052 1.138-0.019 2.278-0.031 3.417-0.006 2.667-0.001 5.334-0.013 8.001-0.165 0.502-0.586 0.902-1.068 1.104-0.182 0.031-0.367 0.008-0.55 0.013-7.028 0-14.057-0-21.086 0-0.16-0.007-0.295-0.107-0.431-0.181-0.357-0.211-0.598-0.564-0.772-0.931v-21.57c0.051-0.33 0.24-0.62 0.477-0.848M1.5 0.167c-0.693 0.001-1.297 0.613-1.342 1.294-0.002 6.909 0 13.818-0.001 20.727 0.002 0.193-0.016 0.39 0.039 0.578 0.136 0.459 0.493 0.859 0.958 0.996 0.24 0.053 0.486 0.065 0.732 0.059 6.624-0.001 13.249 0 19.874-0 0.365-0.004 0.738 0.025 1.096-0.067 0.529-0.179 0.937-0.696 0.964-1.257 0.001-6.945-0.001-13.89 0.001-20.835 0.043-0.521-0.251-1.049-0.699-1.309-0.235-0.16-0.527-0.183-0.803-0.194-6.76 0-13.521 0-20.281 0-0.179 0.002-0.358-0.007-0.537 0.008z"></path>
<path fill="#1a1816" d="M1.555 0.477c6.92-0.008 13.84-0 20.76-0.004 0.304-0.006 0.62 0.078 0.843 0.295 0.191 0.199 0.344 0.458 0.346 0.741 0 6.893 0 13.786 0 20.68-0.003 0.166 0.015 0.337-0.031 0.499-0.106 0.353-0.38 0.665-0.74 0.769-0.319 0.075-0.649 0.042-0.973 0.048-6.726-0.001-13.451 0.003-20.176-0.002-0.581 0.027-1.11-0.484-1.113-1.062 0.002-6.978-0-13.956 0.001-20.934 0.019-0.555 0.522-1.044 1.082-1.031M1.554 1.074c-0.155 0.008-0.311 0.076-0.395 0.21-0.129 0.165-0.084 0.383-0.092 0.576 0 6.844 0 13.689 0 20.533-0.017 0.279 0.237 0.535 0.518 0.517 6.926 0.003 13.853 0 20.779 0.001 0.288 0.029 0.562-0.223 0.545-0.514-0.001-6.946 0-13.893-0.001-20.839 0.005-0.284-0.266-0.507-0.542-0.487-6.937 0.001-13.875-0.006-20.812 0.004z"></path>
<path fill="#1a1816" d="M5.939 5.625c1.672-1.572 3.965-2.466 6.262-2.408 1.050 0.027 2.094 0.248 3.064 0.651 0.581 0.236 1.157 0.501 1.67 0.864-0.422 0.659-0.843 1.318-1.265 1.977-0.493-0.355-1.055-0.599-1.62-0.813-1.562-0.552-3.342-0.449-4.832 0.275-0.467 0.218-0.929 0.464-1.313 0.813 0.426 0.142 0.854 0.277 1.279 0.42 0.155 0.060 0.345 0.131 0.39 0.311 0.104 0.243-0.127 0.47-0.333 0.558-1.671 0.651-3.342 1.302-5.014 1.953 0.017-1.816 0.033-3.632 0.051-5.448 0.001-0.188 0.127-0.393 0.327-0.415 0.184-0.065 0.37 0.043 0.48 0.188 0.287 0.356 0.569 0.716 0.853 1.075z"></path>
<path fill="#1a1816" d="M17.33 6.079c1.557 0.895 3.114 1.792 4.672 2.687 0.189 0.109 0.357 0.348 0.249 0.569-0.050 0.188-0.262 0.234-0.425 0.278-0.441 0.076-0.886 0.141-1.328 0.213 0.395 1.628 0.334 3.369-0.201 4.958-0.374 1.059-0.914 2.072-1.667 2.912-0.3 0.339-0.625 0.655-0.962 0.955-0.542 0.471-1.157 0.85-1.786 1.193-0.368-0.69-0.735-1.382-1.103-2.072 0.534-0.281 1.058-0.595 1.501-1.009 0.544-0.492 1.036-1.056 1.363-1.717 0.678-1.265 0.983-2.753 0.705-4.173-0.351 0.325-0.709 0.642-1.053 0.975-0.189 0.153-0.492 0.162-0.648-0.041-0.106-0.138-0.1-0.318-0.066-0.48 0.252-1.749 0.498-3.499 0.749-5.249z"></path>
<path fill="#1a1816" d="M3.245 11.47c0.779 0.004 1.558 0.010 2.337 0.015-0.108 1.286 0.214 2.586 0.825 3.715 0.331 0.585 0.777 1.096 1.263 1.557 0.576 0.593 1.337 0.953 2.086 1.277-0.102-0.466-0.203-0.932-0.308-1.397-0.042-0.188 0.037-0.415 0.221-0.495 0.142-0.071 0.316-0.049 0.449 0.032 1.431 1.13 2.865 2.258 4.297 3.387-1.522 0.88-3.047 1.754-4.569 2.635-0.15 0.090-0.33 0.187-0.508 0.117-0.238-0.052-0.351-0.338-0.27-0.554 0.167-0.448 0.345-0.892 0.516-1.339-1.114-0.327-2.16-0.874-3.067-1.599-0.663-0.562-1.278-1.185-1.779-1.897-0.405-0.572-0.696-1.215-0.945-1.868-0.427-1.14-0.63-2.368-0.548-3.585z"></path>
<path fill="#fffffe" d="M1.5 0.167c0.179-0.015 0.358-0.006 0.537-0.008 6.76 0 13.521 0 20.281 0 0.276 0.011 0.568 0.033 0.803 0.194 0.448 0.26 0.742 0.788 0.699 1.309-0.002 6.945 0 13.89-0.001 20.835-0.027 0.561-0.434 1.078-0.964 1.257-0.358 0.092-0.731 0.063-1.096 0.067-6.625 0-13.249-0-19.874 0-0.246 0.006-0.492-0.006-0.732-0.059-0.465-0.136-0.822-0.537-0.958-0.996-0.054-0.188-0.037-0.385-0.039-0.578 0.001-6.909-0.001-13.818 0.001-20.727 0.045-0.68 0.649-1.293 1.342-1.294M1.555 0.477c-0.56-0.012-1.063 0.476-1.082 1.031-0.002 6.978 0 13.956-0.001 20.934 0.003 0.578 0.532 1.088 1.113 1.062 6.725 0.004 13.451 0 20.176 0.002 0.324-0.007 0.654 0.027 0.973-0.048 0.36-0.104 0.634-0.416 0.74-0.769 0.046-0.162 0.028-0.333 0.031-0.499-0-6.894 0-13.787-0-20.68-0.002-0.283-0.155-0.542-0.346-0.741-0.222-0.217-0.538-0.301-0.843-0.295-6.92 0.003-13.84-0.004-20.76 0.004z"></path>
<path fill="#fffffe" d="M1.554 1.074c6.937-0.010 13.875-0.003 20.812-0.004 0.276-0.020 0.547 0.203 0.542 0.487 0.002 6.946 0 13.893 0.001 20.839 0.017 0.29-0.257 0.543-0.545 0.514-6.926-0-13.853 0.002-20.779-0.001-0.281 0.019-0.535-0.237-0.518-0.517 0-6.844 0-13.689 0-20.533 0.008-0.193-0.037-0.412 0.092-0.576 0.085-0.134 0.24-0.202 0.395-0.21M5.939 5.625c-0.284-0.359-0.566-0.719-0.853-1.075-0.109-0.145-0.295-0.253-0.48-0.188-0.2 0.022-0.326 0.227-0.327 0.415-0.018 1.816-0.034 3.632-0.051 5.448 1.671-0.651 3.342-1.302 5.014-1.953 0.206-0.089 0.437-0.315 0.333-0.558-0.045-0.18-0.235-0.251-0.39-0.311-0.425-0.143-0.853-0.278-1.279-0.42 0.384-0.348 0.846-0.595 1.313-0.813 1.49-0.724 3.27-0.827 4.832-0.275 0.565 0.214 1.127 0.458 1.62 0.813 0.422-0.659 0.843-1.318 1.265-1.977-0.514-0.363-1.089-0.627-1.67-0.864-0.97-0.403-2.014-0.624-3.064-0.651-2.297-0.058-4.59 0.836-6.262 2.408M17.33 6.079c-0.251 1.749-0.497 3.499-0.749 5.249-0.033 0.162-0.040 0.342 0.066 0.48 0.156 0.203 0.459 0.195 0.648 0.041 0.344-0.333 0.702-0.65 1.053-0.975 0.278 1.42-0.027 2.908-0.705 4.173-0.327 0.661-0.819 1.225-1.363 1.717-0.443 0.414-0.967 0.728-1.501 1.009 0.368 0.69 0.735 1.382 1.103 2.072 0.629-0.343 1.244-0.721 1.786-1.193 0.337-0.301 0.662-0.617 0.962-0.955 0.753-0.84 1.293-1.853 1.667-2.912 0.534-1.589 0.596-3.33 0.201-4.958 0.442-0.072 0.887-0.137 1.328-0.213 0.164-0.044 0.375-0.090 0.425-0.278 0.109-0.221-0.060-0.459-0.249-0.569-1.557-0.896-3.114-1.792-4.672-2.687M3.245 11.47c-0.083 1.217 0.121 2.445 0.548 3.585 0.249 0.653 0.54 1.296 0.945 1.868 0.5 0.712 1.116 1.336 1.779 1.897 0.907 0.725 1.953 1.272 3.067 1.599-0.171 0.447-0.349 0.891-0.516 1.339-0.081 0.217 0.032 0.502 0.27 0.554 0.178 0.069 0.358-0.027 0.508-0.117 1.522-0.881 3.047-1.755 4.569-2.635-1.432-1.129-2.866-2.257-4.297-3.387-0.133-0.081-0.306-0.103-0.449-0.032-0.184 0.080-0.264 0.307-0.221 0.495 0.105 0.465 0.207 0.931 0.308 1.397-0.748-0.325-1.51-0.684-2.086-1.277-0.486-0.461-0.932-0.973-1.263-1.557-0.611-1.129-0.933-2.43-0.825-3.715-0.779-0.005-1.558-0.011-2.337-0.015z"></path>
</svg>
