<?xml version="1.0" encoding="utf-8"?>
<!-- Generator: Adobe Illustrator 16.0.2, SVG Export Plug-In . SVG Version: 6.00 Build 0)  -->
<!DOCTYPE svg PUBLIC "-//W3C//DTD SVG 1.1//EN" "http://www.w3.org/Graphics/SVG/1.1/DTD/svg11.dtd">
<svg version="1.1"
	 id="Layer_1" xmlns:svg="http://www.w3.org/2000/svg" inkscape:output_extension="org.inkscape.output.svg.inkscape" xmlns:dc="http://purl.org/dc/elements/1.1/" xmlns:inkscape="http://www.inkscape.org/namespaces/inkscape" xmlns:cc="http://creativecommons.org/ns#" xmlns:rdf="http://www.w3.org/1999/02/22-rdf-syntax-ns#" xmlns:sodipodi="http://sodipodi.sourceforge.net/DTD/sodipodi-0.dtd" inkscape:version="0.46" sodipodi:docname="Signal_B14_15.svg" sodipodi:version="0.32"
	 xmlns="http://www.w3.org/2000/svg" xmlns:xlink="http://www.w3.org/1999/xlink" x="0px" y="0px" width="576px" height="576px"
	 viewBox="0 0 576 576" style="enable-background:new 0 0 576 576;" xml:space="preserve">
<defs>
	
	
		<inkscape:perspective  id="perspective2469" inkscape:vp_z="576 : 288 : 1" inkscape:vp_x="0 : 288 : 1" sodipodi:type="inkscape:persp3d" inkscape:vp_y="0 : 1000 : 0" inkscape:persp3d-origin="288 : 192 : 1">
		</inkscape:perspective>
</defs>
<sodipodi:namedview  id="base" gridtolerance="10.0" borderopacity="1.0" showgrid="false" guidetolerance="10.0" bordercolor="#666666" inkscape:cy="311.23092" pagecolor="#ffffff" inkscape:zoom="0.54954702" objecttolerance="10.0" inkscape:cx="123.15811" inkscape:pageopacity="0.0" inkscape:pageshadow="2" inkscape:window-width="1280" inkscape:window-height="948" inkscape:current-layer="Layer_1" inkscape:window-y="25" inkscape:window-x="0">
	</sodipodi:namedview>
<circle id="circle2448" style="fill:#FFFFFF;stroke:#000000;stroke-linecap:round;stroke-linejoin:round;" cx="287.057" cy="287.057" r="286.969"/>
<circle id="circle2450" style="fill:#FF0000;stroke:#FF0000;stroke-width:0.1764;stroke-linecap:round;stroke-linejoin:round;" cx="287.057" cy="287.057" r="273.982"/>
<circle id="circle2452" style="fill:#FFFFFF;stroke:#FF0000;stroke-width:0.1764;stroke-linecap:round;stroke-linejoin:round;" cx="287.057" cy="287.057" r="192.438"/>
<g>
	<rect x="94.619" y="200.259" style="fill:none;" width="384.875" height="266.448"/>
	<path d="M260.604,200.391v40.455c-19.948,18.739-36.862,45.84-50.741,81.305c-8.549,25.48-12.502,49.255-11.858,71.321h-41.641
		c-0.185-51.488,17.97-102.757,54.464-153.808h-77.353v-39.273H260.604z"/>
	<path d="M306.753,317.553c-0.275-4.903-0.413-9.72-0.413-14.448c0-2.364,0.045-4.729,0.138-7.093
		c0.275-9.28,1.056-18.301,2.344-27.058v-0.919l0.552-1.183l0.965-9.063l0.689-1.313l1.379-7.355l0.552-0.789
		c1.379-6.305,4.364-13.396,8.962-21.278l3.999-5.779l7.722-7.487c8.18-6.305,18.797-10.813,31.851-13.529
		c4.137-0.7,8.411-1.051,12.823-1.051h1.104c6.894,0.176,14.109,1.271,21.647,3.284c3.124,0.351,8.135,2.321,15.029,5.911
		c7.077,4.203,13.513,9.939,19.304,17.207l4.412,6.436l3.585,7.224l1.517,5.254l0.414,0.395v1.313
		c0.918,1.84,1.469,3.284,1.654,4.335l0.552,0.657l2.344,11.689l0.414,0.263l-0.276,1.708l0.552,1.051l1.379,14.054l0.552,1.313
		l-0.414,0.131l0.966,8.275l-0.276,0.263c0.366,0.876,0.366,1.401,0,1.576l0.414,1.313l-0.276,0.395l0.689,8.932l-0.275,0.262
		l0.414,3.81l-0.139,0.263v5.254c-0.092,3.24-0.368,7.138-0.827,11.689l-0.689,4.86l0.276,0.263l-0.689,1.313
		c-0.276,3.24-1.059,7.093-2.345,11.559l-0.827,2.495l-0.138,1.445l-3.585,9.72l-0.689,0.525c0,0.876-1.195,3.546-3.585,8.013
		l-6.618,9.063c-7.263,7.969-15.306,13.791-24.13,17.469c-5.791,2.19-11.63,3.633-17.511,4.335l-10.617,0.657l-2.482-0.132
		c-20.958-0.525-37.872-7.005-50.741-19.439c-6.342-6.742-11.123-14.579-14.34-23.511c-3.678-9.106-5.929-18.695-6.756-28.766
		L306.753,317.553z M375.419,357.22c5.698,0.351,9.238,0.263,10.617-0.263l0.138,0.263l7.584-1.576
		c6.066-1.925,10.707-6.085,13.926-12.478c2.482-6.392,4.32-14.01,5.516-22.855l0.689-29.684l-0.414-13.924l-1.379-10.376
		l-0.551-0.525l-1.793-7.355l-0.552-0.263c-1.379-5.254-3.998-10.113-7.859-14.58c-2.942-2.275-5.287-3.764-7.031-4.465l-7.998-1.84
		l-8.41-0.394c-3.771-0.086-7.952,0.657-12.548,2.233c-4.229,1.927-7.769,5.385-10.617,10.376c-2.022,4.643-3.86,10.465-5.516,17.47
		l0.276,0.787c-0.552,0.439-0.875,1.885-0.965,4.335c-1.289,10.245-1.427,25.264-0.414,45.052l2.206,14.317l2.896,10.114
		c2.113,5.254,5.009,9.063,8.687,11.427C365.216,355.032,369.719,356.432,375.419,357.22z"/>
</g>
</svg>
