<svg xmlns="http://www.w3.org/2000/svg" width="24" height="24">
    <path fill="#da251d" d="M10.506 0h2.991c2.627.411 5.145 1.58 7.029 3.474C22.42 5.36 23.59 7.878 24 10.505v2.992c-.411 2.626-1.579 5.145-3.474 7.029-1.886 1.894-4.404 3.065-7.033 3.474h-2.991c-2.626-.411-5.145-1.579-7.029-3.474C1.579 18.64.408 16.122-.001 13.493v-2.991c.411-2.627 1.58-5.145 3.474-7.029C5.359 1.579 7.877.408 10.506-.001zM5.999 3.72c.466.509.942 1.009 1.43 1.497 1.048 1.112 2.128 2.193 3.193 3.289 1.317 1.422 2.691 2.791 4.031 4.191a41.313 41.313 0 0 0 2.409 2.4l-.005.086c.989 1.063 2.016 2.091 3.023 3.137 2.223-2.766 2.805-6.725 1.494-10.021-1.234-3.253-4.238-5.754-7.666-6.361-2.734-.53-5.659.146-7.909 1.783zm-4.193 8.406c-.024 3.502 1.974 6.897 4.98 8.668 3.536 2.175 8.369 1.847 11.594-.761-.577-.555-1.074-1.208-1.737-1.665-.668-.668-1.268-1.399-1.937-2.067-3.517-3.613-7.052-7.21-10.6-10.794-1.505 1.849-2.369 4.227-2.3 6.618z"/>
    <path fill="#fff" d="M5.999 3.72c2.249-1.638 5.174-2.313 7.909-1.783 3.428.608 6.431 3.109 7.666 6.361 1.311 3.296.729 7.255-1.494 10.021-1.007-1.046-2.034-2.073-3.023-3.137l.005-.086c.029-1.917.043-3.839-.014-5.755-.333-1.568-1.759-2.791-3.281-3.169-1.367-.04-2.738-.04-4.107-.069.003-.723.01-1.444.003-2.166-.747.423-1.49.85-2.234 1.279a48.07 48.07 0 0 1-1.43-1.497zM1.806 12.126c-.069-2.391.795-4.769 2.3-6.618 3.548 3.583 7.083 7.181 10.6 10.794-.011 1.011-.004 2.021-.005 3.032.823.003 1.647.014 2.47-.006-.037-.387-.249-.703-.529-.959.664.457 1.16 1.109 1.737 1.665-3.225 2.608-8.058 2.936-11.594.761-3.006-1.771-5.004-5.166-4.98-8.668zm2.006-4.84c1.404.794 2.796 1.616 4.222 2.368-.959-1.062-1.989-2.059-2.995-3.075-.406.241-.816.474-1.227.707z"/>
    <path fill="#fff" d="M10.621 8.506c.867.036 1.754-.087 2.604.107.814.336 1.542 1.18 1.435 2.106-.004.66-.004 1.319-.008 1.977-1.34-1.4-2.714-2.769-4.031-4.191z"/>
    <path fill="#1f1a17" d="M7.429 5.217a291.97 291.97 0 0 1 2.234-1.279c.008.723 0 1.444-.003 2.166 1.369.029 2.74.029 4.107.069 1.522.378 2.948 1.601 3.281 3.169.057 1.916.043 3.837.014 5.755a41.313 41.313 0 0 1-2.409-2.4c.004-.659.004-1.317.008-1.977.107-.927-.62-1.771-1.435-2.106-.85-.194-1.737-.071-2.604-.107C9.557 7.412 8.477 6.33 7.429 5.218zM3.812 7.286c.411-.234.821-.466 1.227-.707 1.006 1.016 2.036 2.013 2.995 3.075-1.426-.752-2.817-1.574-4.222-2.368zM14.706 16.302c.669.668 1.269 1.399 1.937 2.067.28.255.491.572.529.959-.823.02-1.647.009-2.47.006.001-1.011-.006-2.021.005-3.032z"/>
</svg>
