<svg xmlns="http://www.w3.org/2000/svg" width="24" height="24">
    <path fill="#035ca1" d="M10.465 0h3.075c2.991.513 5.901 1.969 7.791 4.386 1.443 1.73 2.272 3.881 2.669 6.079v3.076c-.513 2.991-1.97 5.9-4.387 7.789-1.729 1.443-3.88 2.272-6.078 2.669h-3.078c-2.989-.514-5.898-1.97-7.788-4.386C1.226 17.883.396 15.731 0 13.531v-3.074c.4-2.196 1.226-4.345 2.669-6.073C4.56 1.967 7.473.508 10.465-.002zM1.763 7.664c2.281 1.284 4.594 2.512 6.882 3.783.007-.864-.012-1.726-.008-2.59 1.367.024 2.79-.206 4.105.291 1.953.687 3.398 2.615 3.465 4.691.066 2.5.004 5.003.032 7.503.866.008 1.731.008 2.598 0 .007-2.499.008-4.998 0-7.497-.026-3.31-2.43-6.392-5.596-7.308-1.518-.514-3.133-.236-4.698-.359-.016-.907-.001-1.816-.026-2.722C6.273 4.868 4.01 6.252 1.764 7.663z"/>
    <path fill="#fff" d="M1.763 7.664C4.009 6.253 6.272 4.87 8.516 3.457c.025.906.011 1.815.026 2.722 1.565.123 3.181-.156 4.698.359 3.166.916 5.57 3.998 5.596 7.308.008 2.499.007 4.998 0 7.497-.866.008-1.731.008-2.598 0-.028-2.5.034-5.003-.032-7.503-.067-2.076-1.513-4.004-3.465-4.691-1.315-.497-2.738-.268-4.105-.291-.004.864.015 1.726.008 2.59-2.288-1.271-4.601-2.499-6.882-3.783z"/>
</svg>
