<svg xmlns="http://www.w3.org/2000/svg" width="24" height="24">
    <path d="M6.155 0h11.231a1.541 1.541 0 0 1 1.174 1.176v21.587c-.126.567-.554 1.052-1.12 1.205-.214-.02-.427-.047-.642-.05-2.983.005-5.967.001-8.95.003-.578.004-1.158-.032-1.732.047-.555-.153-.978-.622-1.115-1.176V1.168A1.547 1.547 0 0 1 6.156 0zm-.114.166a1.295 1.295 0 0 0-.926 1.258c-.001 7.028.001 14.056-.001 21.084-.031.703.594 1.378 1.306 1.36h10.719c.711.016 1.332-.658 1.3-1.36-.002-7.028 0-14.056-.001-21.085.033-.703-.599-1.338-1.303-1.309C13.61.11 10.086.115 6.56.111a1.875 1.875 0 0 0-.518.054z"/>
    <path d="M6.247.31C9.877.282 13.509.305 17.139.299c.603-.024 1.148.518 1.113 1.125.001 7.028-.001 14.056.001 21.084.024.601-.496 1.206-1.115 1.19-3.574-.001-7.147-.002-10.721 0-.619.023-1.142-.584-1.119-1.185l.001-21.095C5.271.876 5.708.369 6.246.31zm.001.478c-.289.052-.493.343-.477.631-.002 7.031.001 14.062-.001 21.094-.019.355.287.713.652.7 3.549.003 7.098-.001 10.647.001.386.04.736-.322.714-.702-.001-7.031.001-14.062-.001-21.093.028-.383-.335-.696-.708-.651C13.466.78 9.855.741 6.249.788z"/>
    <path d="M8.616 2.129c.938-.189 1.545.839 1.426 1.664.028.746-.569 1.558-1.382 1.415-.692-.05-1.083-.775-1.083-1.407-.068-.692.266-1.568 1.039-1.673zm-.004.531c-.616.275-.642 1.161-.37 1.692.18.392.774.473 1.042.134.308-.386.315-.946.15-1.394-.114-.325-.482-.558-.822-.432zM10.634 2.17c.161-.001.321-.001.482-.004.47.652.917 1.319 1.381 1.976l.001-1.972h.52v2.987c-.156-.001-.312-.001-.467-.003-.467-.673-.927-1.35-1.397-2.021-.004.675 0 1.348-.002 2.023h-.516c-.002-.995-.001-1.991-.001-2.986zM13.778 2.174c.715-.002 1.429-.001 2.144-.001v.519c-.542.002-1.084-.001-1.626.001v.594l.877.001.001.519-.878.001v.833h1.679l.001.52c-.733.001-1.465.002-2.197-.001l-.001-2.986zM6.831 6.879l.525.001c.115.597.224 1.196.338 1.793.151-.597.294-1.196.444-1.793h.506c.16.602.313 1.207.473 1.809.113-.602.216-1.207.327-1.809l.515-.001c-.174.996-.353 1.991-.531 2.986l-.56.001c-.159-.622-.308-1.247-.465-1.869-.162.621-.315 1.245-.473 1.867-.182.002-.365.002-.547.002-.186-.996-.37-1.992-.553-2.988zM11.585 6.878l.497.003c.418.995.838 1.989 1.254 2.986a34.97 34.97 0 0 1-.561-.001c-.094-.232-.19-.462-.285-.694-.433-.003-.866-.001-1.298-.001-.098.233-.195.466-.297.696l-.544-.001c.41-.997.82-1.993 1.236-2.988zm-.19 1.777c.292.001.584.001.875-.001a64.988 64.988 0 0 0-.435-1.056 98 98 0 0 0-.441 1.057zM13.714 6.879l.624-.001c.298.411.584.83.877 1.244.284-.414.572-.826.855-1.24.211-.004.422-.004.633-.002-.401.596-.821 1.18-1.212 1.782-.049.397-.003.803-.02 1.204h-.519c-.009-.393.014-.788-.009-1.18-.388-.615-.826-1.201-1.231-1.807zM11.508 12.202c.132-.195.401-.174.525.016.797.966 1.597 1.93 2.382 2.906.171.161.156.526-.13.532-.62-.113-1.227-.296-1.843-.433.054 2.019.114 4.038.168 6.057h-1.696c.056-2.019.114-4.038.168-6.058-.625.136-1.24.332-1.871.435-.279-.045-.252-.387-.09-.548.789-.974 1.585-1.942 2.386-2.906z"/>
    <path fill="#fff" d="M6.041.166c.167-.05.344-.053.518-.054 3.525.003 7.05-.001 10.575.003.704-.029 1.336.606 1.303 1.309.001 7.028-.001 14.056.001 21.085.033.702-.588 1.376-1.3 1.36H6.419c-.712.018-1.336-.657-1.306-1.36.002-7.028 0-14.056.001-21.084A1.294 1.294 0 0 1 6.04.167zm.206.144c-.538.059-.975.565-.947 1.108-.001 7.032.001 14.063-.001 21.095-.024.601.5 1.208 1.119 1.185 3.574-.002 7.147-.001 10.721 0 .618.016 1.138-.589 1.115-1.19-.001-7.028.001-14.056-.001-21.084.035-.607-.51-1.149-1.113-1.125C13.509.304 9.878.282 6.248.31z"/>
    <path fill="#fff" d="M6.248.788C9.854.741 13.465.781 17.073.768c.374-.045.736.268.708.651.003 7.031 0 14.062.001 21.093.022.38-.327.742-.714.702-3.549-.002-7.098.001-10.647-.001-.365.012-.671-.346-.652-.7.002-7.031-.001-14.062.001-21.094-.016-.287.188-.578.477-.631zm2.368 1.341c-.772.104-1.107.981-1.039 1.673-.001.632.391 1.357 1.083 1.407.812.143 1.41-.668 1.382-1.415.119-.825-.488-1.854-1.426-1.664zm2.018.041c.001.995-.001 1.991.001 2.986h.516c.002-.675-.002-1.348.002-2.023.47.671.93 1.348 1.397 2.021.155.002.311.002.467.003V2.17a45.067 45.067 0 0 0-.52 0c-.001.657.001 1.315-.001 1.972-.464-.656-.911-1.324-1.381-1.976-.161.003-.321.003-.482.004zm3.144.004c.001.995-.001 1.99.001 2.986.732.003 1.464.002 2.197.001l-.001-.52h-1.679v-.833l.878-.001a29.93 29.93 0 0 0-.001-.519l-.877-.001a58.806 58.806 0 0 1 0-.594c.542-.001 1.084.001 1.626-.001v-.519a510.75 510.75 0 0 0-2.144.001zM6.831 6.879c.183.997.367 1.993.553 2.988.182 0 .365 0 .547-.002.158-.622.31-1.246.473-1.867.157.622.306 1.247.465 1.869l.56-.001c.178-.995.357-1.991.531-2.986-.172 0-.344-.001-.515.001-.111.602-.214 1.207-.327 1.809-.16-.603-.313-1.207-.473-1.809h-.506c-.151.597-.293 1.196-.444 1.793-.115-.597-.224-1.196-.338-1.793l-.525-.001zm4.754-.001c-.416.995-.826 1.991-1.236 2.988l.544.001c.102-.231.199-.464.297-.696.433 0 .866-.002 1.298.001.095.231.191.462.285.694l.561.001c-.416-.997-.836-1.991-1.254-2.986l-.497-.003zm2.129.001c.404.606.842 1.192 1.231 1.807.023.393 0 .787.009 1.18h.519c.016-.401-.029-.807.02-1.204.391-.602.811-1.186 1.212-1.782a22.262 22.262 0 0 0-.633.002c-.283.414-.571.826-.855 1.24-.293-.414-.58-.833-.877-1.244l-.624.001zm-2.206 5.323c-.801.963-1.597 1.932-2.386 2.906-.161.161-.188.502.09.548.631-.102 1.246-.298 1.871-.435-.054 2.02-.113 4.039-.168 6.058h1.696c-.054-2.019-.115-4.038-.168-6.057.616.137 1.222.32 1.843.433.286-.005.301-.37.13-.532-.785-.976-1.585-1.94-2.382-2.906-.125-.19-.394-.21-.525-.016z"/>
    <path fill="#fff" d="M8.612 2.66c.34-.126.708.107.822.432.165.447.158 1.008-.15 1.394-.268.339-.862.258-1.042-.134-.272-.532-.246-1.417.37-1.692zM11.395 8.655a98 98 0 0 1 .441-1.057c.148.351.292.703.435 1.056-.292.002-.584.001-.875.001z"/>
    <path opacity=".8" d="M6.115 23.967c.574-.079 1.155-.043 1.732-.047 2.983-.002 5.967.002 8.95-.003.215.003.428.03.642.05l-.094.033H6.208l-.094-.033z"/>
</svg>
