<svg xmlns="http://www.w3.org/2000/svg" width="24" height="24">
    <path fill="#fff" d="M0 2.71h24.101v1.562c-.129-.557-.602-1.024-1.2-.983-7.279-.015-14.559.004-21.839-.009-.366-.011-.72.094-1.062.217V2.71zM13.644 6.585c-.133-.603.674-1.03 1.096-.576 2.309 2.029 4.596 4.081 6.89 6.128-2.297 2.042-4.587 4.093-6.883 6.137-.428.455-1.244.033-1.102-.581.275-1.212.646-2.402.951-3.609-4.171-.007-8.343.002-12.513-.004-.002-1.294-.002-2.588 0-3.882 4.171-.005 8.341.002 12.513-.004-.303-1.206-.674-2.397-.952-3.61zM22.901 20.993c.572.055 1-.389 1.2-.882v1.179H0v-.525c.288.144.602.241.927.233 7.325-.008 14.65 0 21.975-.005z"/>
    <path fill="#03559b" d="M0 3.496c.342-.122.696-.228 1.062-.217 7.28.013 14.56-.005 21.839.009.598-.042 1.071.426 1.2.983V20.11c-.199.493-.627.937-1.2.882-7.325.005-14.65-.002-21.975.005-.324.008-.638-.089-.927-.233V3.495zm13.644 3.089c.277 1.213.649 2.403.952 3.61-4.171.007-8.341-.002-12.513.004-.002 1.294-.002 2.588 0 3.882 4.17.005 8.341-.002 12.513.004-.304 1.206-.676 2.397-.951 3.609-.142.614.674 1.035 1.102.581 2.295-2.044 4.586-4.095 6.883-6.137-2.293-2.046-4.581-4.099-6.89-6.128-.423-.454-1.229-.027-1.096.576z"/>
</svg>
