<?xml version="1.0" encoding="utf-8"?>
<!-- Generated by IcoMoon.io -->
<!DOCTYPE svg PUBLIC "-//W3C//DTD SVG 1.1//EN" "http://www.w3.org/Graphics/SVG/1.1/DTD/svg11.dtd">
<svg version="1.1" xmlns="http://www.w3.org/2000/svg" xmlns:xlink="http://www.w3.org/1999/xlink" width="24" height="24" viewBox="0 0 24 24">
<path fill="#1a1919" d="M2.026 1.144c0.113-0.517 0.566-0.962 1.107-0.984 2.122-0.064 4.245-0.052 6.368-0.050 3.781 0.013 7.563 0.027 11.345 0.028 0.144 0.119 0.314 0.203 0.488 0.266l0.043-0.001c0.068 0.058 0.137 0.115 0.196 0.184 0.114 0.25 0.322 0.474 0.32 0.762 0.013 7.227-0.008 14.455 0.010 21.682-0.112 0.277-0.276 0.534-0.515 0.718l-0.052-0.006c-0.168 0.054-0.319 0.147-0.455 0.257h-17.911c-0.457-0.141-0.837-0.513-0.945-0.983v-21.873M3.076 0.408c-0.508 0.136-0.893 0.648-0.871 1.175 0.003 7.021 0 14.042 0.002 21.064 0.009 0.64 0.609 1.189 1.248 1.149 5.669 0.002 11.338 0.003 17.007 0 0.633 0.034 1.224-0.513 1.234-1.146 0.001-7.047 0.001-14.095 0-21.142-0.010-0.635-0.604-1.183-1.239-1.146-5.638-0.004-11.277 0.001-16.916-0.002-0.156 0.002-0.313 0.011-0.465 0.048z"></path>
<path fill="#1a1919" d="M3.405 0.59c5.58-0.024 11.162-0.002 16.743-0.011 0.21-0.001 0.424 0.004 0.628 0.059 0.418 0.145 0.726 0.579 0.703 1.024-0.002 6.81 0 13.62-0.001 20.429-0.008 0.32 0.052 0.671-0.138 0.954-0.184 0.346-0.569 0.544-0.956 0.532-5.615 0.004-11.229 0.002-16.844 0.001-0.566 0.043-1.104-0.434-1.113-1.003-0.003-6.969 0.001-13.937-0.002-20.907-0.032-0.542 0.43-1.069 0.98-1.078M3.386 1.128c-0.265 0.020-0.451 0.282-0.435 0.538 0 6.943 0 13.886 0 20.828-0.029 0.326 0.267 0.574 0.579 0.556 5.484 0.006 10.968 0 16.453 0.003 0.199-0.004 0.405 0.018 0.599-0.038 0.238-0.039 0.381-0.298 0.368-0.525 0.001-6.94 0.001-13.881 0-20.821 0.029-0.318-0.25-0.571-0.559-0.559-5.512-0.010-11.024 0-16.536-0.005-0.157 0.002-0.315-0.010-0.47 0.022z"></path>
<path fill="#1a1919" d="M11.123 2.871c0.564-0.001 1.128-0.001 1.692-0.001 0 0.633 0.002 1.264 0 1.896-0.061 1.216 0.597 2.448 1.657 3.054 0.436 0.231 0.924 0.332 1.399 0.455-0.010-0.347-0.039-0.693-0.041-1.039-0.048-0.327 0.452-0.47 0.622-0.203 0.84 0.982 1.674 1.97 2.513 2.954-1.221 0.432-2.441 0.865-3.664 1.292-0.248 0.134-0.605-0.17-0.456-0.432 0.191-0.347 0.425-0.669 0.629-1.008-0.61-0.157-1.225-0.315-1.79-0.602-1.178-0.652-2.081-1.798-2.406-3.109-0.232-1.070-0.124-2.171-0.157-3.257z"></path>
<path fill="#1a1919" d="M8.659 6.954c0.242-0.116 0.579 0.181 0.439 0.434-0.192 0.349-0.425 0.673-0.635 1.011 0.615 0.161 1.237 0.319 1.806 0.611 1.152 0.643 2.038 1.756 2.377 3.034 0.254 1.090 0.138 2.216 0.172 3.323-0.564 0.002-1.128 0.001-1.691 0.001-0.002-0.645-0.002-1.291 0-1.937 0.048-1.2-0.608-2.409-1.651-3.009-0.439-0.234-0.93-0.337-1.407-0.459 0.008 0.414 0.066 0.828 0.025 1.242-0.128 0.058-0.26 0.194-0.41 0.127-0.156-0.030-0.236-0.179-0.335-0.287-0.789-0.933-1.583-1.863-2.373-2.795 1.228-0.432 2.455-0.869 3.683-1.298z"></path>
<path fill="#1a1919" d="M6.584 17.359c0.358-0.116 0.755-0.101 1.109 0.025 0.272 0.175 0.501 0.432 0.598 0.745 0.332 0.932 0.311 2.051-0.281 2.877-0.368 0.432-1.014 0.416-1.511 0.259-0.319-0.188-0.542-0.505-0.64-0.859-0.302-0.885-0.243-1.914 0.272-2.709 0.111-0.156 0.282-0.256 0.451-0.338M6.807 17.971c-0.36 0.235-0.424 0.706-0.473 1.099-0.044 0.478 0.017 0.978 0.254 1.402 0.173 0.271 0.557 0.304 0.833 0.187 0.267-0.207 0.354-0.552 0.41-0.869 0.091-0.541 0.046-1.121-0.22-1.608-0.159-0.275-0.529-0.322-0.804-0.211z"></path>
<path fill="#1a1919" d="M9.374 17.34c0.211-0.002 0.421-0.002 0.632 0.003 0.475 0.846 0.963 1.686 1.442 2.53 0.002-0.844-0.001-1.689 0.002-2.534 0.207 0.001 0.414 0 0.621-0.004 0.011 1.323 0.002 2.647 0.005 3.971-0.189 0.002-0.378 0.002-0.567-0.007-0.494-0.897-1.006-1.785-1.508-2.678-0.002 0.895 0 1.79-0.001 2.685-0.21 0.002-0.42 0.002-0.629-0.005 0.006-1.321 0.001-2.642 0.002-3.962z"></path>
<path fill="#1a1919" d="M13.023 17.34c0.207-0.001 0.416-0.001 0.624 0 0.004 1.128 0 2.255 0.002 3.382 0.613 0.002 1.225 0 1.838 0.001 0.001 0.195 0.001 0.389 0 0.584-0.821 0-1.643 0.002-2.464-0.001 0.001-1.322 0.001-2.645 0.001-3.966z"></path>
<path fill="#1a1919" d="M14.944 17.34c0.25-0.001 0.501 0 0.751 0 0.325 0.49 0.6 1.035 0.953 1.492 0.347-0.477 0.629-1.005 0.962-1.495 0.244 0.002 0.487 0.002 0.73 0.002-0.424 0.691-0.846 1.381-1.274 2.069-0.055 0.089-0.118 0.182-0.103 0.294-0.002 0.534 0.002 1.069 0 1.604-0.209 0.001-0.418 0.001-0.627 0-0.002-0.535 0.002-1.070 0-1.605 0.016-0.11-0.048-0.201-0.101-0.288-0.433-0.69-0.861-1.384-1.291-2.074z"></path>
<path fill="#fffffe" d="M20.847 0.137c0.219-0.047 0.385 0.13 0.531 0.265l-0.043 0.001c-0.174-0.064-0.344-0.147-0.488-0.266z"></path>
<path fill="#fffffe" d="M3.076 0.408c0.152-0.037 0.309-0.046 0.465-0.048 5.639 0.002 11.278-0.002 16.916 0.002 0.635-0.037 1.229 0.511 1.239 1.146 0.001 7.047 0.001 14.095 0 21.142-0.010 0.633-0.601 1.18-1.234 1.146-5.669 0.003-11.338 0.002-17.007 0-0.64 0.040-1.24-0.509-1.248-1.149-0.002-7.021 0.002-14.042-0.002-21.064-0.022-0.528 0.363-1.039 0.871-1.175M3.405 0.59c-0.55 0.010-1.012 0.536-0.98 1.078 0.002 6.97-0.002 13.938 0.002 20.907 0.010 0.569 0.548 1.046 1.113 1.003 5.615 0.002 11.229 0.003 16.844-0.001 0.387 0.012 0.772-0.187 0.956-0.532 0.19-0.284 0.13-0.634 0.138-0.954 0.001-6.81-0.002-13.62 0.001-20.429 0.022-0.445-0.285-0.879-0.703-1.024-0.204-0.055-0.418-0.060-0.628-0.059-5.581 0.010-11.162-0.013-16.743 0.011z"></path>
<path fill="#fffffe" d="M3.386 1.128c0.154-0.033 0.313-0.021 0.47-0.022 5.512 0.005 11.024-0.005 16.536 0.005 0.308-0.013 0.588 0.241 0.559 0.559 0.001 6.94 0.001 13.881 0 20.821 0.013 0.227-0.13 0.486-0.368 0.525-0.195 0.056-0.4 0.034-0.599 0.038-5.484-0.003-10.968 0.002-16.453-0.003-0.312 0.017-0.609-0.23-0.579-0.556 0-6.943 0-13.886 0-20.828-0.017-0.256 0.169-0.518 0.435-0.538M11.123 2.871c0.033 1.086-0.075 2.187 0.157 3.257 0.324 1.311 1.228 2.456 2.406 3.109 0.564 0.287 1.18 0.446 1.79 0.602-0.204 0.339-0.439 0.661-0.629 1.008-0.149 0.261 0.208 0.566 0.456 0.432 1.222-0.428 2.443-0.86 3.664-1.292-0.838-0.984-1.673-1.972-2.513-2.954-0.17-0.266-0.67-0.124-0.622 0.203 0.002 0.346 0.031 0.693 0.041 1.039-0.475-0.123-0.963-0.224-1.399-0.455-1.060-0.606-1.718-1.838-1.657-3.054 0.002-0.632 0-1.264 0-1.896-0.563 0-1.128 0-1.692 0.001M8.659 6.954c-1.229 0.428-2.456 0.865-3.683 1.298 0.79 0.932 1.584 1.862 2.373 2.795 0.099 0.108 0.179 0.257 0.335 0.287 0.15 0.067 0.282-0.069 0.41-0.127 0.041-0.414-0.017-0.828-0.025-1.242 0.478 0.122 0.968 0.225 1.407 0.459 1.043 0.6 1.698 1.809 1.651 3.009-0.002 0.645-0.002 1.291 0 1.937 0.563 0 1.127 0.002 1.691-0.001-0.034-1.108 0.082-2.234-0.172-3.323-0.339-1.278-1.225-2.391-2.377-3.034-0.569-0.292-1.19-0.451-1.806-0.611 0.21-0.338 0.443-0.662 0.635-1.011 0.14-0.253-0.196-0.55-0.439-0.434M6.584 17.359c-0.169 0.082-0.34 0.182-0.451 0.338-0.515 0.795-0.574 1.825-0.272 2.709 0.098 0.354 0.321 0.672 0.64 0.859 0.497 0.157 1.143 0.172 1.511-0.259 0.591-0.826 0.613-1.945 0.281-2.877-0.097-0.313-0.327-0.571-0.598-0.745-0.354-0.126-0.751-0.141-1.109-0.025M9.374 17.34c-0.002 1.321 0.004 2.642-0.002 3.962 0.209 0.006 0.419 0.006 0.629 0.005 0.001-0.895-0.001-1.79 0.001-2.685 0.501 0.893 1.013 1.781 1.508 2.678 0.188 0.009 0.377 0.010 0.567 0.007-0.003-1.324 0.006-2.648-0.005-3.971-0.207 0.004-0.414 0.005-0.621 0.004-0.002 0.845 0.001 1.69-0.002 2.534-0.478-0.845-0.966-1.684-1.442-2.53-0.211-0.005-0.421-0.005-0.632-0.003M13.023 17.34c0 1.322 0 2.644-0.001 3.966 0.822 0.003 1.643 0.001 2.464 0.001 0.001-0.195 0.001-0.389 0-0.584-0.613-0.001-1.225 0.001-1.838-0.001-0.002-1.127 0.002-2.255-0.002-3.382-0.208-0.001-0.416-0.001-0.624 0M14.944 17.34c0.43 0.691 0.857 1.384 1.291 2.074 0.053 0.087 0.117 0.178 0.101 0.288 0.002 0.535-0.002 1.070 0 1.605 0.209 0.001 0.418 0.001 0.627 0 0.002-0.535-0.002-1.070 0-1.604-0.015-0.112 0.048-0.205 0.103-0.294 0.428-0.688 0.85-1.379 1.274-2.069-0.243-0.001-0.486 0-0.73-0.002-0.332 0.49-0.614 1.018-0.962 1.495-0.353-0.457-0.628-1.003-0.953-1.492-0.25 0-0.501-0.001-0.751 0z"></path>
<path fill="#fffffe" d="M6.807 17.971c0.275-0.111 0.645-0.064 0.804 0.211 0.266 0.487 0.311 1.067 0.22 1.608-0.056 0.316-0.143 0.662-0.41 0.869-0.276 0.118-0.66 0.084-0.833-0.187-0.237-0.424-0.298-0.924-0.254-1.402 0.049-0.393 0.113-0.864 0.473-1.099z"></path>
<path fill="#fffffe" d="M20.882 24c0.136-0.11 0.287-0.203 0.455-0.257l0.052 0.006c-0.099 0.104-0.21 0.202-0.347 0.251h-0.16z"></path>
<path fill="#757474" d="M21.574 0.587c0.172 0.176 0.27 0.405 0.37 0.627l0.030-0.079v21.808l-0.069 0.087c-0.018-7.227 0.002-14.455-0.010-21.682 0.002-0.288-0.207-0.513-0.32-0.762z"></path>
</svg>
