<svg xmlns="http://www.w3.org/2000/svg" width="24" height="24">
    <path fill="#03559b" d="M0 3.273h24.084v17.092c-.209.058-.421.154-.543.344-.934-.191-1.893-.104-2.84-.116-5.774.003-11.545.003-17.319 0-.953.014-1.917-.077-2.856.115-.113-.193-.322-.289-.527-.354V3.274zm9.145 2.374c-2.318 2.035-4.612 4.098-6.917 6.15 2.304 2.05 4.603 4.108 6.905 6.159.431.468 1.268.05 1.119-.577-.276-1.217-.649-2.412-.955-3.623 4.193-.003 8.385.001 12.577-.003.003-1.3.003-2.601 0-3.903-4.192-.003-8.383.001-12.577-.001.305-1.215.682-2.412.958-3.633.131-.612-.689-1.03-1.11-.568z"/>
    <path fill="#fff" d="M9.145 5.647c.421-.461 1.241-.044 1.11.568-.276 1.22-.652 2.418-.958 3.633 4.193.003 8.385-.001 12.577.001.003 1.302.003 2.602 0 3.903-4.192.004-8.383 0-12.577.003.305 1.211.679 2.406.955 3.623.149.628-.689 1.046-1.119.577-2.302-2.051-4.601-4.109-6.905-6.159 2.304-2.051 4.599-4.115 6.917-6.15z"/>
    <path fill="#e8eff6" d="M0 20.353c.204.065.412.161.527.354l-.071.02H0v-.375z"/>
    <path fill="#e0ebf3" d="M23.542 20.708c.121-.189.333-.286.543-.344v.363h-.472l-.071-.019z"/>
    <path fill="#3477af" d="M.527 20.707c.939-.192 1.904-.102 2.856-.115 5.774.003 11.545.003 17.319 0 .947.012 1.906-.074 2.84.116l.071.019-23.086-.02z"/>
</svg>
