<?xml version="1.0" encoding="utf-8"?>
<!-- Generated by IcoMoon.io -->
<!DOCTYPE svg PUBLIC "-//W3C//DTD SVG 1.1//EN" "http://www.w3.org/Graphics/SVG/1.1/DTD/svg11.dtd">
<svg version="1.1" xmlns="http://www.w3.org/2000/svg" xmlns:xlink="http://www.w3.org/1999/xlink" width="24" height="24" viewBox="0 0 24 24">
<path fill="#161515" d="M2.35 0h19.3v24h-19.3v-24M3.355 0.208c-0.488 0.116-0.853 0.594-0.833 1.096-0.006 7.133-0.003 14.266-0.002 21.399-0.050 0.626 0.501 1.198 1.125 1.181 5.571 0.002 11.141 0.004 16.712-0.002 0.621 0.009 1.156-0.572 1.1-1.19 0-7.13 0.003-14.261-0.001-21.392 0.033-0.604-0.513-1.152-1.115-1.129-5.464-0.014-10.929 0-16.393-0.007-0.198 0-0.399 0.001-0.593 0.044z"></path>
<path fill="#161515" d="M3.385 0.447c0.15-0.047 0.309-0.046 0.464-0.049 5.469 0.005 10.939 0 16.408 0.003 0.498-0.034 0.98 0.383 0.962 0.893 0.006 7.137 0.002 14.274 0.002 21.41 0.032 0.483-0.379 0.956-0.875 0.931-5.564 0.003-11.128 0.001-16.692 0.001-0.502 0.035-0.934-0.436-0.899-0.929-0.003-7.104 0-14.209-0.002-21.313-0.034-0.413 0.225-0.834 0.632-0.947M3.464 0.912c-0.189 0.088-0.249 0.294-0.232 0.487 0.001 7.099-0.001 14.197 0.001 21.296-0.043 0.251 0.169 0.492 0.424 0.474 5.533 0.005 11.067 0 16.6 0.003 0.266 0.038 0.533-0.188 0.49-0.464 0.006-7.102 0.002-14.203 0.002-21.304 0.058-0.297-0.198-0.577-0.5-0.523-5.466-0.004-10.931 0.002-16.396-0.003-0.131-0.002-0.261 0.009-0.389 0.034z"></path>
<path fill="#161515" d="M3.962 4.559c1.457-0.459 2.908-0.946 4.38-1.358 0.284-0.125 0.634 0.211 0.454 0.494-0.206 0.387-0.493 0.726-0.713 1.106 1.545 0.377 2.966 1.322 3.792 2.696 0.606-0.875 1.38-1.65 2.335-2.138 0.473-0.249 0.989-0.399 1.498-0.56-0.275-0.433-0.599-0.838-0.815-1.306 0.124-0.186 0.318-0.409 0.57-0.288 1.466 0.405 2.903 0.908 4.36 1.343-0.947 1.197-1.885 2.401-2.85 3.584-0.153 0.234-0.605 0.197-0.668-0.095-0.058-0.435-0.010-0.876-0.027-1.314-1.892 0.27-3.384 2.079-3.359 3.976 0.015 0.863-0.040 1.731 0.040 2.591-0.079 0.867-0.026 1.74-0.040 2.609 0.047 0.299 0.045 0.598 0.006 0.899-0.012 0.998-0.009 1.997-0.001 2.995-0.686 0.009-1.372 0.010-2.058-0.002-0.009-1.097 0.049-2.198-0.034-3.292 0.051-1.1 0.075-2.214-0.010-3.316 0.105-0.755 0.024-1.521 0.050-2.281 0.067-1.432-0.682-2.872-1.904-3.626-0.442-0.288-0.947-0.462-1.461-0.57-0.014 0.44 0.028 0.884-0.025 1.322-0.044 0.296-0.367 0.243-0.584 0.234-0.966-1.244-1.957-2.469-2.936-3.703z"></path>
<path fill="#fff" d="M3.355 0.208c0.194-0.043 0.395-0.044 0.593-0.044 5.464 0.007 10.929-0.007 16.393 0.007 0.602-0.023 1.148 0.525 1.115 1.129 0.004 7.131 0.001 14.262 0.001 21.392 0.056 0.618-0.479 1.199-1.1 1.19-5.571 0.006-11.141 0.004-16.712 0.002-0.624 0.017-1.175-0.555-1.125-1.181-0.001-7.133-0.004-14.266 0.002-21.399-0.020-0.502 0.345-0.98 0.833-1.096M3.385 0.447c-0.407 0.113-0.666 0.534-0.632 0.947 0.002 7.104-0.001 14.209 0.002 21.313-0.035 0.493 0.397 0.964 0.899 0.929 5.564 0 11.128 0.002 16.692-0.001 0.496 0.025 0.907-0.448 0.875-0.931 0-7.136 0.004-14.273-0.002-21.41 0.018-0.51-0.464-0.927-0.962-0.893-5.469-0.003-10.939 0.002-16.408-0.003-0.155 0.003-0.314 0.002-0.464 0.049z"></path>
<path fill="#fff" d="M3.464 0.912c0.128-0.025 0.258-0.036 0.389-0.034 5.465 0.005 10.93-0.001 16.396 0.003 0.302-0.054 0.558 0.226 0.5 0.523 0 7.101 0.004 14.202-0.002 21.304 0.043 0.276-0.224 0.502-0.49 0.464-5.533-0.003-11.067 0.002-16.6-0.003-0.255 0.018-0.467-0.223-0.424-0.474-0.002-7.099 0-14.197-0.001-21.296-0.017-0.193 0.043-0.399 0.232-0.487M3.962 4.559c0.979 1.234 1.97 2.459 2.936 3.703 0.217 0.009 0.54 0.062 0.584-0.234 0.053-0.438 0.011-0.882 0.025-1.322 0.514 0.108 1.019 0.282 1.461 0.57 1.222 0.754 1.971 2.194 1.904 3.626-0.026 0.76 0.055 1.526-0.050 2.281 0.085 1.102 0.061 2.216 0.010 3.316 0.083 1.094 0.025 2.195 0.034 3.292 0.686 0.012 1.372 0.011 2.058 0.002-0.008-0.998-0.011-1.997 0.001-2.995 0.039-0.301 0.041-0.6-0.006-0.899 0.014-0.869-0.039-1.742 0.040-2.609-0.080-0.86-0.025-1.728-0.040-2.591-0.025-1.897 1.467-3.706 3.359-3.976 0.017 0.438-0.031 0.879 0.027 1.314 0.063 0.292 0.515 0.329 0.668 0.095 0.965-1.183 1.903-2.387 2.85-3.584-1.457-0.435-2.894-0.938-4.36-1.343-0.252-0.121-0.446 0.102-0.57 0.288 0.216 0.468 0.54 0.873 0.815 1.306-0.509 0.161-1.025 0.311-1.498 0.56-0.955 0.488-1.729 1.263-2.335 2.138-0.826-1.374-2.247-2.319-3.792-2.696 0.22-0.38 0.507-0.719 0.713-1.106 0.18-0.283-0.17-0.619-0.454-0.494-1.472 0.412-2.923 0.899-4.38 1.358z"></path>
</svg>
