<?xml version="1.0" encoding="utf-8"?>
<!-- Generated by IcoMoon.io -->
<!DOCTYPE svg PUBLIC "-//W3C//DTD SVG 1.1//EN" "http://www.w3.org/Graphics/SVG/1.1/DTD/svg11.dtd">
<svg version="1.1" xmlns="http://www.w3.org/2000/svg" xmlns:xlink="http://www.w3.org/1999/xlink" width="24" height="24" viewBox="0 0 24 24">
<path fill="#050505" opacity="0.14" d="M2 0h20v1.022c-0.188-0.473-0.606-0.974-1.158-0.965-5.877-0.006-11.754-0.007-17.631 0.001-0.574-0.026-1.021 0.465-1.211 0.964v-1.021z"></path>
<path fill="#050505" opacity="0.14" d="M2 23.082c0.123 0.393 0.435 0.674 0.751 0.918h-0.751v-0.918z"></path>
<path fill="#050505" opacity="0.14" d="M21.241 24c0.323-0.24 0.625-0.526 0.759-0.916v0.916h-0.759z"></path>
<path fill="#1d2123" d="M2 1.021c0.19-0.499 0.637-0.99 1.211-0.964 5.877-0.007 11.754-0.006 17.631-0.001 0.552-0.008 0.969 0.492 1.158 0.965v22.062c-0.134 0.391-0.436 0.676-0.759 0.916h-0.412c0.517-0.099 1.009-0.503 1.081-1.040 0.091-7.018 0.008-14.044 0.041-21.065-0.021-0.231 0.040-0.475-0.041-0.698-0.074-0.213-0.188-0.409-0.288-0.609-0.026-0.098-0.096-0.222-0.216-0.183-0.204-0.117-0.421-0.222-0.655-0.259-3.071-0.095-6.149-0.014-9.223-0.041-2.759 0.024-5.526-0.047-8.281 0.035-0.249 0.062-0.489 0.156-0.709 0.289-0.086 0.011-0.151 0.074-0.161 0.161-0.103 0.216-0.242 0.422-0.284 0.661-0.091 3.071-0.013 6.15-0.039 9.224 0.022 4.163-0.043 8.331 0.032 12.49 0.099 0.542 0.567 0.928 1.091 1.036h-0.424c-0.316-0.244-0.628-0.525-0.751-0.918v-22.061z"></path>
<path fill="#1d2123" d="M2.371 1.321c0.1-0.579 0.645-0.926 1.208-0.895 5.614-0.008 11.228-0.005 16.842-0.001 0.571-0.052 1.102 0.33 1.208 0.896 0.007 7.157-0.001 14.314 0.004 21.471 0.014 0.198-0.097 0.386-0.229 0.526-0.075 0.052-0.139 0.117-0.192 0.192-0.149 0.118-0.334 0.201-0.528 0.177-5.789-0.004-11.579-0.003-17.368-0.001-0.215 0.023-0.428-0.077-0.577-0.228-0.041-0.055-0.089-0.103-0.144-0.144-0.134-0.137-0.242-0.326-0.228-0.523 0.006-7.157-0.003-14.314 0.004-21.47M2.896 1.474c-0.003 7.035-0.003 14.071 0 21.105-0.071 0.304 0.219 0.621 0.524 0.581 0.142 0.168 0.613-0.018 0.843 0.052 5.438-0.002 10.877 0.001 16.315-0.001l0.001-0.050c0.265 0.034 0.535-0.207 0.527-0.474-0.006-7.018 0.003-14.036-0.004-21.054 0.069-0.378-0.263-0.703-0.628-0.683-5.614 0-11.229-0.005-16.843 0.003-0.339-0.049-0.712 0.162-0.735 0.523z"></path>
<path fill="#1d2123" d="M11.064 2.798c0.186-0.010 0.371-0.006 0.557-0.002 0.204 0.031 0.438 0.043 0.597 0.195 1.282 0.47 2.425 1.259 3.138 2.44 0.468 0.92 0.827 1.925 0.765 2.983 0.378 1.53 0.157 3.111 0.323 4.662-0.015 0.632 0.223 1.234 0.186 1.869-0.022 0.423 0.040 0.841 0.060 1.262-0.524-0.003-1.050 0.019-1.574-0.005-0.242-0.456-0.122-0.974-0.163-1.466-0.020-1.517 0.041-3.038-0.084-4.551-0.242-0.815-0.154-1.668-0.234-2.504-0.008-0.383-0.294-0.682-0.292-1.074 0.113-0.351-0.435-0.235-0.304-0.602-0.018-0.331-0.487-0.264-0.584-0.567-0.259-0.098-0.399-0.412-0.716-0.342l-0.043-0.007c-0.423-0.182-0.885-0.37-1.345-0.221-0.067 0.146-0.22 0.188-0.362 0.226-0.080 0.005-0.159 0.011-0.238 0.017-0.218-0.064-0.337 0.039-0.434 0.201-0.399 0.206-0.553 0.662-0.761 1.028-0.060 1.471-0.029 2.947-0.016 4.419 0.647 0.398 1.333-0.178 1.973-0.064 0.246 0.337-0.231 0.471-0.239 0.784-0.49 0.881-1.123 1.707-1.632 2.58-0.136 0.331-0.47 0.512-0.558 0.876-0.092-0.152-0.264-0.215-0.387-0.321-0.238-0.644-0.772-1.070-1.046-1.686-0.269-0.214-0.461-0.526-0.576-0.851-0.323-0.354-0.518-0.808-0.765-1.181-0.028-0.205-0.090-0.397-0.255-0.528 0.597-0.175 1.044 0.401 1.671 0.142 0.233-1.532-0.144-3.146 0.197-4.654 0.322-0.278-0.026-0.896 0.417-1.051 0.037-0.417 0.358-0.73 0.642-0.986 0.548-0.564 1.315-0.922 2.082-1.025z"></path>
<path fill="#1d2123" d="M6.525 17.423c0.457-0.163 0.976-0.118 1.365 0.181 0.045 0.048 0.092 0.094 0.141 0.138 0.294 0.446 0.396 0.997 0.444 1.521-0.002 0.141-0.002 0.281 0 0.423 0.060 0.549-0.266 1.032-0.502 1.503-0.498 0.373-1.225 0.408-1.744 0.058-0.635-0.716-0.712-1.773-0.492-2.668 0.144-0.439 0.302-0.984 0.788-1.155M6.315 19.262c-0.137 0.018-0.067 0.566-0.002 0.58 0.006 0.323 0.131 0.669 0.381 0.884 0.241 0.184 0.554 0.101 0.807-0.011 0.324-0.511 0.426-1.129 0.302-1.722-0.065-0.351-0.138-0.819-0.505-0.98-0.776-0.272-0.998 0.701-0.983 1.248z"></path>
<path fill="#1d2123" d="M9.369 17.421c0.206 0 0.413 0 0.619 0.002 0.461 0.839 0.985 1.647 1.398 2.511 0.022-0.009 0.065-0.027 0.086-0.036 0.006-0.826-0.004-1.653 0.002-2.479 0.143 0.002 0.428 0.005 0.571 0.006 0.020 1.313 0 2.628 0.006 3.942-0.176-0.001-0.35 0.002-0.525 0.001-0.544-0.795-0.979-1.749-1.511-2.591-0.016-0.027-0.047-0.083-0.063-0.11-0.015 0.9-0.001 1.8-0.007 2.7-0.193-0.001-0.384 0.002-0.576 0-0.002-1.315-0.002-2.631 0-3.946z"></path>
<path fill="#1d2123" d="M13.053 17.419c0.144 0.002 0.431 0.006 0.574 0.007 0.019 1.137-0.009 2.274 0.009 3.411 0.629 0.014 1.258 0.001 1.888 0.005 0.005 0.173 0.011 0.351-0.002 0.525-0.821-0.004-1.642 0.009-2.463-0.003-0.021-1.315 0-2.631-0.006-3.946z"></path>
<path fill="#1d2123" d="M15.031 17.456c0.227-0.061 0.467-0.024 0.7-0.037 0.331 0.441 0.623 0.956 0.897 1.446 0.002 0.119 0.164 0.118 0.167 0 0.254-0.478 0.573-0.919 0.842-1.389 0.24-0.092 0.504-0.051 0.753-0.016-0.426 0.733-0.87 1.463-1.336 2.173-0.114 0.563-0.028 1.159-0.054 1.735-0.193-0.001-0.384 0.002-0.577 0-0.026-0.565 0.053-1.144-0.038-1.701-0.441-0.742-0.921-1.463-1.353-2.211z"></path>
<path fill="#585e5d" d="M3.246 0.14c2.754-0.082 5.522-0.011 8.281-0.035 3.074 0.027 6.153-0.054 9.223 0.041-5.834 0.016-11.669 0.028-17.504-0.006z"></path>
<path fill="#585e5d" d="M21.405 0.405c0.121-0.039 0.191 0.085 0.216 0.183-0.105-0.011-0.178-0.089-0.216-0.183z"></path>
<path fill="#585e5d" d="M2.376 0.589c0.011-0.087 0.075-0.15 0.161-0.161 0.004 0.093-0.069 0.165-0.161 0.161z"></path>
<path fill="#585e5d" d="M10.21 2.786l0.040-0.014c0.271 0.019 0.542 0.022 0.814 0.026-0.767 0.103-1.534 0.462-2.082 1.025-0.283 0.256-0.605 0.569-0.642 0.986-0.444 0.155-0.096 0.772-0.417 1.051-0.341 1.508 0.036 3.123-0.197 4.654-0.627 0.259-1.073-0.317-1.671-0.142 0.165 0.131 0.227 0.323 0.255 0.528 0.247 0.373 0.442 0.827 0.765 1.181 0.115 0.324 0.306 0.636 0.576 0.851 0.274 0.616 0.807 1.042 1.046 1.686 0.123 0.105 0.295 0.168 0.387 0.321 0.088-0.365 0.422-0.546 0.558-0.876 0.509-0.873 1.142-1.699 1.632-2.58 0.008-0.314 0.485-0.447 0.239-0.784-0.639-0.114-1.326 0.462-1.973 0.064-0.013-1.472-0.044-2.949 0.016-4.419 0.207-0.366 0.361-0.822 0.761-1.028 0.097-0.162 0.215-0.265 0.434-0.201-0.457 0.256-0.778 0.693-0.927 1.182-0.156 1.109-0.107 2.235-0.044 3.348 0.003 0.079 0.003 0.159 0.001 0.239-0.028 0.199-0.059 0.409 0.001 0.606l0.009 0.040c-0.014 0.087-0.041 0.208 0.056 0.259l0.036 0.027c0.071 0 0.212 0 0.282-0.001 0.023-0.005 0.070-0.014 0.094-0.019 0.263 0.070 0.427-0.113 0.591-0.268 0.244 0 0.489-0.016 0.733 0.002 0.022 0.285 0.171 0.79-0.188 0.92-0.124 0.038-0.058 0.194-0.077 0.289l-0.002 0.045c-0.452 0.544-0.763 1.136-1.172 1.717 0.015 0.197-0.14 0.278-0.265 0.374-0.081 0.221-0.206 0.418-0.335 0.612-0.005 0.034-0.016 0.103-0.021 0.137-0.301 0.036-0.247 0.573-0.592 0.397-0.316-0.055-0.255-0.433-0.457-0.596-0.334-0.474-0.644-0.992-1.048-1.426l-0.005-0.044c-0.024-0.335-0.395-0.491-0.519-0.799-0.083-0.19-0.114-0.456-0.368-0.48l-0.006-0.044c-0.093-0.513-0.587-0.837-0.573-1.36 0.286-0.105 0.599 0.004 0.896-0.011l0.043 0.006c0.169 0.065 0.372 0.401 0.516 0.143 0.048-0.113 0.154-0.152 0.265-0.176 0.067-1.478-0.076-2.964 0.077-4.438 0.213-0.673 0.489-1.349 0.959-1.874 0.278-0.25 0.586-0.457 0.824-0.709 0.056-0.124 0.167-0.179 0.301-0.166 0.216 0.061 0.34-0.055 0.377-0.262z"></path>
<path fill="#585e5d" d="M11.621 2.796c0.201-0.004 0.401-0.016 0.602-0.023 0.023 0.003 0.068 0.007 0.091 0.010 0.112 0.143 0.216 0.331 0.432 0.266 0.084 0.001 0.169-0.002 0.253 0.004 0.083 0.276 0.347 0.326 0.602 0.394 0.064 0.265 0.404 0.211 0.494 0.46 0.498 0.292 0.873 0.763 1.212 1.209 0.242 0.111 0.151 0.442 0.345 0.601 0.205 0.158 0.096 0.485 0.304 0.644 0.086 0.071 0.11 0.181 0.145 0.281 0.005 0.097 0.009 0.193 0.016 0.29-0.075 0.338 0.087 0.643 0.241 0.926 0.011 0.077 0.022 0.154 0.033 0.232-0.147 1.792 0.298 3.545 0.297 5.331-0.018 0.931 0.091 1.856 0.053 2.787h-0.049c-0.020-0.421-0.082-0.839-0.060-1.262 0.037-0.636-0.201-1.238-0.186-1.869-0.166-1.552 0.055-3.132-0.323-4.662 0.063-1.058-0.297-2.063-0.765-2.983-0.713-1.181-1.856-1.97-3.138-2.44-0.159-0.152-0.393-0.165-0.597-0.195z"></path>
<path fill="#585e5d" d="M11.351 4.871c0.459-0.149 0.922 0.039 1.345 0.221-0.201 0.006-0.401 0.018-0.601 0.023-0.065-0.008-0.129-0.017-0.193-0.028-0.069 0.001-0.207 0.001-0.275 0.001-0.064 0.011-0.128 0.021-0.193 0.028-0.148-0.007-0.297-0.013-0.445-0.019 0.142-0.037 0.295-0.080 0.362-0.226z"></path>
<path fill="#585e5d" d="M12.738 5.098c0.317-0.069 0.456 0.244 0.716 0.342 0.097 0.303 0.565 0.237 0.584 0.567-0.131 0.367 0.417 0.252 0.304 0.602-0.002 0.392 0.284 0.691 0.292 1.074 0.080 0.836-0.008 1.689 0.234 2.504 0.125 1.513 0.064 3.034 0.084 4.551 0.042 0.492-0.079 1.009 0.163 1.466-0.042 0.002-0.125 0.005-0.167 0.007-0.119-1.183 0.017-2.376-0.135-3.557-0.35-1.714-0.003-3.505-0.467-5.202 0.068-0.521-0.273-0.859-0.366-1.326-0.218-0.117-0.264-0.381-0.531-0.417-0.096-0.363-0.601-0.244-0.709-0.611z"></path>
<path fill="#585e5d" d="M9.368 17.37c0.13 0.064 0.617-0.121 0.621 0.053-0.207-0.002-0.413-0.002-0.619-0.002l-0.001-0.051z"></path>
<path fill="#585e5d" d="M11.475 17.419c0.085-0.138 0.444-0.021 0.628-0.047 0.004 1.332 0.004 2.665-0.001 3.997l-0.051-0.002c-0.006-1.314 0.014-2.629-0.006-3.942-0.143-0.002-0.428-0.005-0.571-0.006z"></path>
<path fill="#585e5d" d="M13.053 17.419c0.086-0.138 0.444-0.021 0.629-0.047 0.010 1.138-0.006 2.276 0.005 3.415 0.592 0.047 1.335-0.075 1.837 0.056-0.629-0.005-1.259 0.009-1.888-0.005-0.019-1.137 0.009-2.274-0.009-3.411-0.143-0.002-0.43-0.005-0.574-0.007z"></path>
<path fill="#585e5d" d="M15.031 17.456c-0.144-0.126 0.628-0.155 0.7-0.037-0.233 0.013-0.473-0.024-0.7 0.037z"></path>
<path fill="#585e5d" d="M17.636 17.475c0.066-0.219 0.848-0.159 0.753-0.016-0.248-0.035-0.513-0.076-0.753 0.016z"></path>
<path fill="#585e5d" d="M9.953 18.667c0.016 0.027 0.047 0.083 0.063 0.11-0.035 0.863-0.002 1.728-0.019 2.592l-0.051-0.002c0.007-0.9-0.007-1.8 0.007-2.7z"></path>
<path fill="#585e5d" d="M16.627 18.865c0.045-0.028 0.122-0.028 0.167 0-0.003 0.118-0.165 0.119-0.167 0z"></path>
<path fill="#585e5d" d="M16.999 21.367c0.025-0.576-0.061-1.172 0.054-1.735-0.003 0.579 0.008 1.158-0.003 1.737l-0.051-0.002z"></path>
<path fill="#585e5d" d="M3.42 23.159c5.72-0.003 11.439-0.003 17.159 0.001l-0.001 0.050c-5.438 0.002-10.877-0.001-16.315 0.001-0.231-0.069-0.702 0.117-0.843-0.052z"></path>
<path fill="#fffffd" d="M2.537 0.429c0.22-0.133 0.46-0.227 0.709-0.289 5.834 0.034 11.669 0.022 17.504 0.006 0.235 0.037 0.451 0.142 0.655 0.259 0.038 0.094 0.111 0.172 0.216 0.183 0.101 0.201 0.214 0.397 0.288 0.609-0.025 7.254-0.024 14.509 0 21.763-0.072 0.537-0.563 0.941-1.081 1.040h-0.073c-3.773-0.123-7.557-0.018-11.335-0.053-2.058 0.037-4.134-0.073-6.182 0.053h-0.065c-0.523-0.108-0.992-0.495-1.091-1.036 0.040-7.237 0.025-14.476 0.007-21.714 0.043-0.239 0.182-0.444 0.284-0.661 0.092 0.004 0.165-0.068 0.161-0.161M2.371 1.321l-0.051-0.005c-0.009 7.157-0.002 14.316-0.004 21.474l0.051 0.002c-0.014 0.197 0.094 0.386 0.228 0.523-0.074 0.083 0.061 0.217 0.144 0.144 0.149 0.151 0.362 0.251 0.577 0.228 0.242 0.131 0.726 0.009 1.053 0.051 5.438-0.001 10.877 0.001 16.316-0.001v-0.050c0.194 0.023 0.379-0.059 0.528-0.177 0.103 0.060 0.251-0.089 0.192-0.192 0.132-0.14 0.243-0.328 0.229-0.526l0.048-0.004c0.003-7.158 0.006-14.316-0.001-21.474l-0.052 0.007c-0.106-0.566-0.637-0.948-1.208-0.896-5.614-0.004-11.228-0.007-16.842 0.001-0.563-0.031-1.108 0.316-1.208 0.895z"></path>
<path fill="#fffffd" d="M2.896 1.474c0.024-0.361 0.396-0.572 0.735-0.523 5.614-0.008 11.229-0.003 16.843-0.003 0.365-0.020 0.697 0.305 0.628 0.683 0.007 7.018-0.002 14.036 0.004 21.054 0.008 0.267-0.262 0.508-0.527 0.474-5.72-0.004-11.439-0.003-17.159-0.001-0.305 0.040-0.594-0.276-0.524-0.581-0.003-7.035-0.003-14.071 0-21.105M10.178 2.709c-0.351 0.017-0.518 0.374-0.892 0.362-0.031 0.165-0.159 0.267-0.327 0.26-0.060 0.174-0.183 0.275-0.363 0.315 0.003 0.165-0.096 0.294-0.261 0.324-0.025 0.099-0.028 0.231-0.146 0.266-0.315 0.075-0.093 0.596-0.436 0.629-0.145 0.317-0.017 0.816-0.329 0.983-0.052 1.433 0.081 2.877-0.066 4.305-0.265-0.078-0.788 0.195-0.876-0.164-0.4-0.256-1.067 0.092-0.843 0.618 0.246 0.036 0.261 0.342 0.298 0.507 0.348 0.035 0.148 0.527 0.463 0.596 0.126 0.141 0.087 0.366 0.248 0.481 0.157 0.145 0.122 0.434 0.381 0.465 0.014 0.315 0.337 0.468 0.384 0.767-0.009 0.161 0.199 0.055 0.252 0.173 0.067 0.517 0.552 0.772 0.728 1.221 0.237 0.199 0.209 0.7 0.66 0.499l0.041 0.001c0.257 0.072 0.103-0.358 0.413-0.28 0.005-0.346 0.384-0.526 0.402-0.863 0.164-0.005 0.334-0.080 0.281-0.307 0.034-0.263 0.384-0.259 0.296-0.586 0.346 0.029 0.199-0.463 0.468-0.588 0.145-0.064 0.042-0.277 0.203-0.321 0.291-0.075 0.106-0.545 0.403-0.607 0.045-0.485 0.629-0.671 0.381-1.223-0.456-0.115-1.048-0.106-1.412-0.014l-0.044 0.004c-0.233-0.069-0.367 0.075-0.529 0.148-0.171-1.008-0.004-2.074-0.065-3.101-0.117-0.515 0.316-0.914 0.267-1.42-0.045-0.199 0.027-0.409 0.245-0.384-0.006-0.163 0.095-0.322 0.275-0.309 0.369-0.467 1.209-0.205 1.759-0.221 0.165 0.292 0.649 0.157 0.686 0.526 0.263-0.021 0.244 0.311 0.492 0.35 0.054 0.368 0.457 0.562 0.413 0.952-0.006 0.465 0.236 0.884 0.231 1.348-0.004 1.208 0.014 2.422 0.247 3.609 0.045 1.305 0.095 2.609 0.071 3.917-0.186 0.349 0.114 0.253 0.265 0.26 0.026 0.001 0.078 0.003 0.104 0.004 0.042-0.002 0.126-0.006 0.167-0.007 0.524 0.024 1.049 0.002 1.574 0.005h0.049c0.086 0.006 0.172 0.006 0.258-0.001 0.013-0.503 0.007-1.007-0.003-1.509 0.021-0.524 0.007-1.049-0.001-1.573-0.313 0.016-0.064-0.467-0.255-0.548-0.001-0.083-0.006-0.165-0.015-0.247 0.010-1.172 0.072-2.353-0.055-3.521-0.469-0.583 0.036-1.527-0.463-2.119-0.095-0.096 0.069-0.394-0.099-0.373l-0.001-0.047c0.049-0.205-0.107-0.419-0.268-0.478l-0.004-0.045c0.203-0.369-0.291-0.358-0.284-0.658 0.019-0.215-0.191-0.261-0.337-0.349l-0.017-0.041c0.087-0.237-0.342-0.182-0.263-0.472-0.253 0.077-0.224-0.29-0.417-0.263l-0.043-0.009c-0.151-0.073-0.135-0.315-0.313-0.324-0.266-0.021-0.348-0.432-0.647-0.297l-0.044-0.009c0.001-0.336-0.379-0.3-0.613-0.334-0.063-0.237-0.325-0.275-0.537-0.305-0.713 0.012-1.427-0.029-2.138 0.026M6.525 17.423c-0.486 0.171-0.644 0.716-0.788 1.155-0.22 0.895-0.144 1.952 0.492 2.668 0.519 0.35 1.246 0.315 1.744-0.058 0.235-0.471 0.562-0.953 0.502-1.503 0.088-0.037 0.088-0.385 0-0.423-0.048-0.524-0.15-1.074-0.444-1.521 0.082-0.084-0.059-0.225-0.141-0.138-0.389-0.299-0.908-0.343-1.365-0.181M9.318 17.369c0.029 1.331-0.071 2.811 0.051 4.049 0.181-0.028 0.557 0.088 0.628-0.049 0.018-0.864-0.016-1.728 0.019-2.592 0.531 0.842 0.967 1.796 1.511 2.591 0.010 0.137 0.578 0.066 0.576 0.001 0.005-1.333 0.005-2.665 0.001-3.997-0.185 0.027-0.543-0.091-0.628 0.047l-0.051 0.004c0.027 0.809-0.071 1.744 0.049 2.475-0.022 0.009-0.065 0.027-0.086 0.036-0.413-0.864-0.937-1.672-1.398-2.511-0.003-0.173-0.491 0.011-0.621-0.053l-0.051-0.001M13.053 17.419l-0.051 0.004c-0.004 1.331-0.004 2.663 0.001 3.994 0.821-0.021 1.795 0.070 2.519-0.049 0.013-0.174 0.007-0.352 0.002-0.525-0.502-0.132-1.245-0.009-1.837-0.056-0.012-1.138 0.005-2.277-0.005-3.415-0.185 0.027-0.543-0.091-0.629 0.047M15.031 17.456c0.432 0.748 0.912 1.469 1.353 2.211-0.007 0.567-0.074 1.277 0.037 1.752 0.182-0.028 0.554 0.088 0.629-0.049 0.011-0.579 0-1.158 0.003-1.737 0.466-0.71 0.911-1.439 1.336-2.173 0.096-0.144-0.687-0.204-0.753 0.016-0.269 0.47-0.588 0.912-0.842 1.389-0.045-0.028-0.122-0.028-0.167 0-0.274-0.49-0.566-1.005-0.897-1.446-0.072-0.118-0.844-0.089-0.7 0.037z"></path>
<path fill="#fffffd" d="M6.315 19.262c-0.015-0.548 0.207-1.52 0.983-1.248 0.367 0.161 0.44 0.629 0.505 0.98 0.124 0.593 0.022 1.211-0.302 1.722-0.253 0.112-0.567 0.195-0.807 0.011-0.249-0.215-0.374-0.562-0.381-0.884 0.002-0.194 0.004-0.386 0.002-0.58z"></path>
<path fill="#949796" d="M21.909 1.197c0.081 0.223 0.021 0.467 0.041 0.698-0.033 7.021 0.049 14.047-0.041 21.065-0.024-7.254-0.025-14.509 0-21.763z"></path>
<path fill="#949796" d="M2.053 10.474c0.026-3.074-0.052-6.153 0.039-9.224 0.018 7.238 0.033 14.477-0.007 21.714-0.074-4.159-0.010-8.327-0.032-12.49z"></path>
<path fill="#949796" d="M10.25 2.772c0.648-0.082 1.319-0.039 1.972 0.001-0.201 0.007-0.401 0.019-0.602 0.023-0.186-0.004-0.371-0.008-0.557 0.002-0.272-0.004-0.543-0.007-0.814-0.026z"></path>
<path fill="#949796" d="M9.833 3.047c0.149-0.052 0.244-0.184 0.377-0.262-0.037 0.206-0.161 0.323-0.377 0.262z"></path>
<path fill="#949796" d="M12.313 2.783c0.224-0.044 0.235 0.233 0.432 0.266-0.216 0.065-0.32-0.123-0.432-0.266z"></path>
<path fill="#949796" d="M12.998 3.054c0.182 0.042 0.264 0.274 0.469 0.268l0.044 0.009c0.221 0.005 0.209 0.304 0.427 0.314 0.213 0.045 0.303 0.308 0.534 0.307l0.043 0.009c0.026 0.191 0.164 0.284 0.331 0.349 0.068 0.172 0.178 0.308 0.349 0.386l0.017 0.041c0.174 0.364 0.405 0.676 0.621 1.008l0.004 0.045c-0.045 0.218 0.153 0.329 0.268 0.478l0.001 0.047c-0.002 0.108-0.006 0.217-0.007 0.326-0.035-0.1-0.059-0.21-0.145-0.281-0.208-0.159-0.098-0.486-0.304-0.644-0.195-0.159-0.104-0.49-0.345-0.601-0.339-0.446-0.714-0.917-1.212-1.209-0.089-0.249-0.43-0.195-0.494-0.46-0.255-0.067-0.518-0.118-0.602-0.394z"></path>
<path fill="#949796" d="M7.734 5.418c0.367-0.872 0.844-1.846 1.798-2.205-0.238 0.252-0.546 0.459-0.824 0.709-0.47 0.524-0.746 1.201-0.959 1.874-0.153 1.474-0.010 2.961-0.077 4.438-0.112 0.024-0.217 0.063-0.265 0.176-0.144 0.258-0.347-0.078-0.516-0.143 0.309 0.032 0.658-0.001 0.683-0.379-0.168-1.495 0.016-2.984 0.161-4.469z"></path>
<path fill="#949796" d="M11.626 5.087c0.068 0 0.206-0.001 0.275-0.001-0.082 0.060-0.194 0.060-0.275 0.001z"></path>
<path fill="#949796" d="M10.75 5.113c0.079-0.006 0.158-0.012 0.238-0.017 0.148 0.006 0.296 0.012 0.445 0.019-0.568-0.147-0.858 0.306-1.221 0.621-0.673 1.181-0.327 2.61-0.433 3.907-0.063-1.114-0.112-2.239 0.044-3.348 0.148-0.489 0.47-0.925 0.927-1.182z"></path>
<path fill="#949796" d="M12.094 5.114c0.201-0.004 0.4-0.017 0.601-0.023l0.043 0.007c0.109 0.367 0.613 0.248 0.709 0.611 0.267 0.036 0.312 0.3 0.531 0.417 0.093 0.467 0.434 0.805 0.366 1.326 0.465 1.697 0.117 3.488 0.467 5.202 0.153 1.181 0.016 2.374 0.135 3.557-0.026-0.001-0.078-0.003-0.104-0.004-0.192-2.313-0.244-4.642-0.353-6.962-0.198-0.724-0.207-1.475-0.257-2.218-0.214-0.451-0.413-0.917-0.799-1.251-0.424-0.276-0.782-0.713-1.34-0.662z"></path>
<path fill="#949796" d="M16.114 6.933c0.199 0.274 0.322 0.572 0.241 0.926-0.154-0.284-0.316-0.588-0.241-0.926z"></path>
<path fill="#949796" d="M16.388 8.091c0.069 0.565 0.029 1.147 0.176 1.703 0.209 0.832 0.057 1.694 0.158 2.536 0.009 0.082 0.014 0.165 0.015 0.247 0.018 0.695-0.081 1.406 0.121 2.084 0.034 0.009 0.102 0.028 0.135 0.037 0.011 0.503 0.016 1.006 0.003 1.509-0.086 0.006-0.173 0.006-0.258 0.001 0.037-0.931-0.072-1.857-0.053-2.787 0.001-1.786-0.444-3.538-0.297-5.331z"></path>
<path fill="#949796" d="M9.781 10.489c-0.059-0.197-0.029-0.407-0.001-0.606 0.007 0.202 0.003 0.404 0.001 0.606z"></path>
<path fill="#949796" d="M5.813 10.375c0.163-0.539 0.666-0.097 1.035-0.114-0.297 0.015-0.611-0.094-0.896 0.011-0.014 0.523 0.48 0.847 0.573 1.36-0.285-0.377-0.578-0.785-0.712-1.257z"></path>
<path fill="#949796" d="M9.79 10.529c0.074 0.066 0.074 0.169 0.056 0.259-0.097-0.051-0.070-0.172-0.056-0.259z"></path>
<path fill="#949796" d="M10.487 10.531l0.044-0.004c0.106-0.001 0.212 0 0.318 0.001-0.164 0.155-0.328 0.338-0.591 0.268 0.091-0.075 0.164-0.167 0.229-0.265z"></path>
<path fill="#949796" d="M11.582 10.529c0.363-0.046 0.352 0.475 0.104 0.628-0.101 0.198-0.072 0.551-0.37 0.582 0.019-0.096-0.046-0.252 0.077-0.289 0.359-0.13 0.21-0.635 0.188-0.92z"></path>
<path fill="#949796" d="M9.882 10.815c0.081-0.068 0.199-0.063 0.282-0.001-0.071 0.001-0.212 0.001-0.282 0.001z"></path>
<path fill="#949796" d="M6.531 11.676c0.254 0.024 0.285 0.29 0.368 0.48 0.124 0.308 0.496 0.465 0.519 0.799-0.269-0.027-0.293-0.315-0.389-0.511-0.084-0.074-0.208-0.118-0.225-0.243-0.026-0.215-0.313-0.292-0.273-0.526z"></path>
<path fill="#949796" d="M10.142 13.501c0.409-0.581 0.721-1.173 1.172-1.717-0.007 0.116 0.026 0.269-0.119 0.306-0.257 0.083-0.071 0.504-0.377 0.523-0.093 0.33-0.434 0.502-0.438 0.869-0.298 0.062-0.243 0.454-0.496 0.611-0.102 0.162-0.111 0.37-0.342 0.394 0.129-0.194 0.255-0.391 0.335-0.612 0.125-0.096 0.28-0.177 0.265-0.374z"></path>
<path fill="#949796" d="M7.423 12.999c0.404 0.434 0.715 0.952 1.048 1.426 0.203 0.164 0.141 0.541 0.457 0.596 0.345 0.175 0.291-0.362 0.592-0.397-0.039 0.276-0.322 0.436-0.424 0.692l-0.041-0.001c-0.098-0.099-0.163-0.243-0.309-0.276-0.218-0.041-0.112-0.369-0.35-0.387-0.082-0.417-0.408-0.703-0.649-1.027-0.071-0.118-0.052-0.343-0.221-0.36-0.153 0.008-0.084-0.171-0.103-0.266z"></path>
<path fill="#949796" d="M11.424 17.423l0.051-0.004c-0.005 0.826 0.005 1.653-0.002 2.479-0.121-0.731-0.023-1.666-0.049-2.475z"></path>
<path fill="#949796" d="M13.002 17.423l0.051-0.004c0.006 1.315-0.014 2.631 0.006 3.946 0.821 0.013 1.642-0.001 2.463 0.003-0.724 0.119-1.698 0.028-2.519 0.049-0.005-1.332-0.004-2.663-0.001-3.994z"></path>
<path fill="#949796" d="M9.369 21.367c0.192 0.002 0.384-0.001 0.576 0l0.051 0.002c-0.071 0.137-0.447 0.022-0.628 0.049l0.001-0.051z"></path>
<path fill="#949796" d="M11.526 21.368c0.175 0.001 0.349-0.002 0.525-0.001l0.051 0.002c0.002 0.066-0.566 0.137-0.576-0.001z"></path>
<path fill="#949796" d="M16.422 21.367c0.193 0.002 0.384-0.001 0.577 0l0.051 0.002c-0.075 0.138-0.447 0.022-0.629 0.049l0.002-0.051z"></path>
<path fill="#949796" d="M3.239 24c2.047-0.126 4.123-0.016 6.182-0.053 3.777 0.035 7.562-0.070 11.335 0.053h-17.516z"></path>
<path fill="#c5c8c6" d="M2.32 1.315l0.051 0.005c-0.007 7.156 0.002 14.313-0.004 21.47l-0.051-0.002c0.002-7.158-0.006-14.316 0.004-21.474z"></path>
<path fill="#c5c8c6" d="M21.629 1.321l0.052-0.007c0.007 7.158 0.004 14.316 0.001 21.474l-0.048 0.004c-0.005-7.157 0.003-14.314-0.004-21.471z"></path>
<path fill="#c5c8c6" d="M10.178 2.709c0.711-0.055 1.426-0.014 2.138-0.026 0.212 0.030 0.474 0.068 0.537 0.305 0.234 0.034 0.614-0.002 0.613 0.334-0.206 0.005-0.288-0.227-0.469-0.268-0.084-0.006-0.169-0.003-0.253-0.004-0.197-0.034-0.208-0.311-0.432-0.266-0.023-0.003-0.068-0.007-0.091-0.010-0.653-0.041-1.324-0.083-1.972-0.001l-0.040 0.014c-0.133 0.077-0.228 0.209-0.377 0.262-0.134-0.013-0.244 0.042-0.301 0.166-0.954 0.359-1.431 1.333-1.798 2.205-0.145 1.485-0.329 2.974-0.161 4.469-0.025 0.378-0.374 0.412-0.683 0.379l-0.043-0.006c-0.368 0.017-0.872-0.425-1.035 0.114 0.133 0.472 0.427 0.88 0.712 1.257l0.006 0.044c-0.039 0.234 0.247 0.311 0.273 0.526 0.017 0.125 0.141 0.169 0.225 0.243 0.097 0.196 0.12 0.483 0.389 0.511l0.005 0.044c0.019 0.095-0.050 0.274 0.103 0.266 0.168 0.017 0.15 0.242 0.221 0.36 0.241 0.325 0.568 0.61 0.649 1.027 0.238 0.017 0.132 0.346 0.35 0.387 0.147 0.033 0.212 0.177 0.309 0.276-0.451 0.201-0.423-0.3-0.66-0.499-0.176-0.449-0.661-0.703-0.728-1.221-0.053-0.118-0.261-0.012-0.252-0.173-0.047-0.298-0.37-0.452-0.384-0.767-0.259-0.031-0.224-0.32-0.381-0.465-0.161-0.114-0.122-0.339-0.248-0.481-0.315-0.069-0.115-0.561-0.463-0.596-0.037-0.165-0.052-0.471-0.298-0.507-0.225-0.526 0.443-0.874 0.843-0.618 0.088 0.359 0.611 0.086 0.876 0.164 0.146-1.427 0.014-2.872 0.066-4.305 0.312-0.167 0.185-0.666 0.329-0.983 0.343-0.034 0.121-0.554 0.436-0.629 0.117-0.035 0.121-0.167 0.146-0.266 0.164-0.030 0.264-0.159 0.261-0.324 0.181-0.039 0.303-0.141 0.363-0.315 0.168 0.007 0.296-0.095 0.327-0.26 0.374 0.012 0.541-0.345 0.892-0.362z"></path>
<path fill="#c5c8c6" d="M13.512 3.332c0.299-0.134 0.382 0.276 0.647 0.297 0.178 0.009 0.163 0.252 0.313 0.324-0.231 0.001-0.321-0.263-0.534-0.307-0.217-0.011-0.206-0.309-0.427-0.314z"></path>
<path fill="#c5c8c6" d="M14.515 3.962c0.193-0.027 0.164 0.34 0.417 0.263-0.078 0.29 0.35 0.235 0.263 0.472-0.172-0.077-0.281-0.214-0.349-0.386-0.167-0.065-0.305-0.158-0.331-0.349z"></path>
<path fill="#c5c8c6" d="M15.212 4.738c0.147 0.089 0.357 0.135 0.337 0.349-0.007 0.301 0.486 0.289 0.284 0.658-0.216-0.332-0.447-0.644-0.621-1.008z"></path>
<path fill="#c5c8c6" d="M11.433 5.115c0.064-0.007 0.128-0.017 0.193-0.028 0.081 0.059 0.194 0.059 0.275-0.001 0.064 0.011 0.128 0.019 0.193 0.028 0.558-0.051 0.916 0.386 1.34 0.662 0.387 0.334 0.585 0.801 0.799 1.251 0.050 0.743 0.058 1.495 0.257 2.218 0.108 2.321 0.161 4.649 0.353 6.962-0.151-0.007-0.451 0.089-0.265-0.26 0.024-1.307-0.026-2.612-0.071-3.917-0.233-1.188-0.252-2.402-0.247-3.609 0.005-0.465-0.237-0.884-0.231-1.348 0.044-0.391-0.358-0.584-0.413-0.952-0.248-0.039-0.229-0.371-0.492-0.35-0.037-0.369-0.521-0.234-0.686-0.526-0.549 0.016-1.389-0.246-1.759 0.221-0.179-0.013-0.281 0.146-0.275 0.309-0.218-0.026-0.291 0.185-0.245 0.384 0.048 0.506-0.384 0.905-0.267 1.42 0.061 1.027-0.106 2.093 0.065 3.101 0.162-0.074 0.296-0.217 0.529-0.148-0.065 0.097-0.138 0.189-0.229 0.265-0.024 0.005-0.071 0.014-0.094 0.019-0.083-0.062-0.202-0.067-0.282 0.001l-0.036-0.027c0.017-0.090 0.018-0.193-0.056-0.259l-0.009-0.040c0.002-0.203 0.007-0.404-0.001-0.606 0.002-0.080 0.002-0.16-0.001-0.239 0.106-1.297-0.24-2.726 0.433-3.907 0.363-0.315 0.653-0.768 1.221-0.621z"></path>
<path fill="#c5c8c6" d="M15.837 5.791c0.161 0.059 0.317 0.274 0.268 0.478-0.115-0.149-0.313-0.261-0.268-0.478z"></path>
<path fill="#c5c8c6" d="M16.105 6.317c0.168-0.022 0.004 0.277 0.099 0.373 0.498 0.592-0.007 1.537 0.463 2.119 0.127 1.167 0.065 2.349 0.055 3.521-0.102-0.843 0.051-1.704-0.158-2.536-0.147-0.555-0.107-1.137-0.176-1.703-0.011-0.077-0.022-0.155-0.033-0.232 0.081-0.355-0.042-0.652-0.241-0.926-0.006-0.097-0.011-0.193-0.016-0.29 0.001-0.108 0.005-0.217 0.007-0.326z"></path>
<path fill="#c5c8c6" d="M10.531 10.527c0.364-0.092 0.955-0.101 1.412 0.014 0.249 0.552-0.335 0.738-0.381 1.223-0.297 0.062-0.112 0.532-0.403 0.607-0.161 0.044-0.058 0.257-0.203 0.321-0.268 0.125-0.122 0.618-0.468 0.588 0.087 0.327-0.263 0.324-0.296 0.586 0.054 0.227-0.117 0.302-0.281 0.307-0.018 0.337-0.396 0.517-0.402 0.863-0.31-0.078-0.156 0.352-0.413 0.28 0.102-0.256 0.385-0.416 0.424-0.692 0.005-0.035 0.016-0.103 0.021-0.137 0.231-0.024 0.239-0.232 0.342-0.394 0.253-0.156 0.198-0.548 0.496-0.611 0.004-0.367 0.345-0.539 0.438-0.869 0.306-0.019 0.12-0.441 0.377-0.523 0.145-0.037 0.113-0.191 0.119-0.306l0.002-0.045c0.298-0.031 0.269-0.384 0.37-0.582 0.247-0.153 0.259-0.674-0.104-0.628-0.244-0.018-0.489-0.002-0.733-0.002-0.106-0.001-0.212-0.001-0.318-0.001z"></path>
<path fill="#c5c8c6" d="M16.737 12.577c0.191 0.081-0.058 0.565 0.255 0.548 0.008 0.524 0.021 1.049 0.001 1.573-0.034-0.009-0.102-0.028-0.135-0.037-0.202-0.678-0.102-1.389-0.121-2.084z"></path>
<path fill="#c5c8c6" d="M9.318 17.369l0.051 0.001 0.001 0.051c-0.002 1.316-0.002 2.631 0 3.946l-0.001 0.051c-0.121-1.238-0.022-2.718-0.051-4.049z"></path>
<path fill="#c5c8c6" d="M7.89 17.603c0.082-0.086 0.223 0.054 0.141 0.138-0.049-0.044-0.096-0.090-0.141-0.138z"></path>
<path fill="#c5c8c6" d="M6.314 19.842c-0.066-0.014-0.136-0.562 0.002-0.58 0.002 0.194 0 0.386-0.002 0.58z"></path>
<path fill="#c5c8c6" d="M8.475 19.262c0.088 0.038 0.088 0.385 0 0.423-0.002-0.142-0.002-0.282 0-0.423z"></path>
<path fill="#c5c8c6" d="M16.384 19.667c0.091 0.556 0.012 1.136 0.038 1.701l-0.002 0.051c-0.111-0.474-0.044-1.185-0.037-1.752z"></path>
<path fill="#c5c8c6" d="M2.595 23.314c0.055 0.041 0.103 0.089 0.144 0.144-0.083 0.073-0.218-0.062-0.144-0.144z"></path>
<path fill="#c5c8c6" d="M21.212 23.509c0.053-0.074 0.117-0.139 0.192-0.192 0.059 0.103-0.089 0.252-0.192 0.192z"></path>
<path fill="#c5c8c6" d="M3.316 23.686c5.789-0.003 11.579-0.003 17.368 0.001v0.050c-5.438 0.001-10.877 0-16.316 0.001-0.326-0.042-0.811 0.080-1.053-0.051z"></path>
</svg>
