<svg xmlns="http://www.w3.org/2000/svg" width="24" height="24">
    <path fill="#131313" opacity=".94" d="M4.128 0h15.834l-.201.075C14.604.148 9.441.055 4.283.121L4.128 0z"/>
    <path fill="#fff" d="M3.936.168l.347-.047C9.441.055 14.604.148 19.761.075c.516.159.916.544 1.136 1.032.028 7.201-.041 14.405.034 21.605-.172.567-.6 1.017-1.178 1.171-5.167-.006-10.335-.008-15.503.001-.132-.054-.266-.106-.396-.166a5.991 5.991 0 0 1-.575-.574c-.06-.132-.109-.269-.161-.404-.013-7.016 0-14.032-.006-21.048-.014-.399.127-.782.329-1.121L3.58.42c.145-.02.343-.076.356-.252zm.396.275c-.531.098-.915.617-.89 1.15-.002 6.938-.005 13.877.002 20.815-.024.619.533 1.178 1.155 1.139l14.801.001c.632.05 1.207-.51 1.182-1.14.007-6.939.004-13.878.002-20.817.046-.688-.607-1.257-1.28-1.18C14.314.434 9.319.37 4.332.443z"/>
    <path fill="#fff" d="M4.439 1.06c4.953-.061 9.912-.008 14.867-.027.34-.051.699.197.655.565.004 6.903 0 13.806.002 20.709.049.33-.208.663-.559.616-4.936.003-9.873.006-14.809-.001-.343.036-.579-.3-.532-.619-.001-6.868.001-13.736-.001-20.605-.024-.263.082-.589.377-.638zm2.596 1.784c-.586.2-.878.813-1.022 1.372-.241.977-.172 2.064.31 2.958.526 1.004 2.205.955 2.684-.07.522-1.069.523-2.384.062-3.474-.32-.779-1.278-1.075-2.034-.786zm3.61-.019V7.8h.79c0-1.118-.003-2.236.001-3.354.638 1.114 1.264 2.235 1.895 3.353l.695.001-.001-4.974h-.78c-.002 1.059 0 2.118-.001 3.177-.602-1.058-1.207-2.115-1.806-3.175l-.793-.003zm4.632.005v4.977h3.085v-.805h-2.296l-.001-1.361c.481 0 .962-.002 1.442 0l.001-.806h-1.443V3.62l2.142.001V2.83h-2.93zM5.565 9.294c.244 1.66.49 3.32.736 4.98h.692c.258-1.059.51-2.119.772-3.177.268 1.057.52 2.118.78 3.177l.702.001c.241-1.661.485-3.321.728-4.982h-.797c-.132.858-.244 1.719-.392 2.574-.226-.854-.424-1.715-.636-2.573-.256.001-.512-.002-.767-.001-.212.866-.414 1.735-.633 2.599-.132-.866-.255-1.733-.382-2.599l-.803.001zm6.566 0c-.566 1.661-1.14 3.318-1.705 4.979l.84.001c.159-.463.323-.925.479-1.389.52-.002 1.039-.008 1.558-.004.16.465.325.929.485 1.394l.839-.002c-.565-1.661-1.138-3.32-1.706-4.98l-.79.001zm2.536 0c.562.945 1.188 1.856 1.718 2.817.059.718.006 1.443.024 2.163h.789c.106-.907-.28-1.961.344-2.734.462-.746.918-1.496 1.376-2.246l-.92-.001-1.206 1.917c-.396-.638-.789-1.278-1.184-1.917l-.941.001zm-1.751 6.588c.115.492.315.959.461 1.442-2.442.002-4.885.002-7.327.001a563 563 0 0 0 0 2.251c2.443-.002 4.885-.002 7.327-.001-.146.483-.347.95-.46 1.442-.079.367.406.636.687.395 1.419-.984 2.832-1.978 4.246-2.968-1.416-.983-2.822-1.983-4.249-2.951-.277-.236-.762.025-.685.389z"/>
    <path fill="#fff" d="M7.243 3.65c.399-.229.963-.066 1.125.379.348.84.334 1.853-.061 2.674-.292.616-1.27.446-1.422-.192-.288-.909-.379-2.149.358-2.861zM12.031 12.072c.167-.465.336-.93.508-1.394l.483 1.395-.991-.001z"/>
    <path fill="#363636" opacity=".88" d="M3.58.42c.071-.133.192-.258.356-.252C3.923.344 3.725.4 3.58.42z"/>
    <path fill="#040404" d="M4.332.443C9.319.37 14.314.434 19.304.411c.673-.077 1.326.492 1.28 1.18.002 6.939.005 13.878-.002 20.817.025.63-.55 1.19-1.182 1.14l-14.801-.001c-.622.039-1.179-.52-1.155-1.139-.007-6.938-.004-13.877-.002-20.815-.025-.533.359-1.052.89-1.15zm.107.617c-.295.049-.401.375-.377.638.002 6.869 0 13.737.001 20.605-.047.319.189.655.532.619 4.936.007 9.873.004 14.809.001.351.047.608-.286.559-.616-.002-6.903.002-13.806-.002-20.709.044-.368-.315-.616-.655-.565-4.955.019-9.914-.034-14.867.027z"/>
    <path fill="#040404" d="M12.916 15.882c-.077-.364.408-.625.685-.389 1.427.968 2.833 1.968 4.249 2.951-1.414.99-2.827 1.984-4.246 2.968-.281.241-.766-.028-.687-.395.113-.492.314-.959.46-1.442-2.442-.001-4.884-.001-7.327.001-.002-.751-.001-1.501 0-2.251 2.442.001 4.885.001 7.327-.001-.146-.483-.346-.95-.461-1.442z"/>
    <path fill="#141414" opacity=".82" d="M3 1.238c.104-.248.251-.476.441-.667-.202.339-.343.722-.329 1.121.006 7.016-.007 14.032.006 21.048L3 22.59V1.238z"/>
    <path fill="#121212" opacity=".94" d="M20.897 1.107l.103.186v21.61l-.069-.191c-.075-7.2-.006-14.404-.034-21.605z"/>
    <path fill="#030303" d="M7.035 2.844c.756-.289 1.714.007 2.034.786.461 1.09.46 2.405-.062 3.474-.479 1.025-2.158 1.074-2.684.07-.482-.894-.551-1.981-.31-2.958.144-.559.436-1.172 1.022-1.372zm.208.806c-.737.712-.646 1.952-.358 2.861.152.638 1.13.808 1.422.192.395-.821.409-1.834.061-2.674-.162-.445-.726-.608-1.125-.379zM10.645 2.825l.793.003c.599 1.06 1.204 2.117 1.806 3.175.001-1.059-.001-2.118.001-3.177h.78l.001 4.974-.695-.001c-.631-1.118-1.257-2.239-1.895-3.353-.004 1.118-.001 2.236-.001 3.354h-.79V2.825zM15.277 2.83h2.93v.791l-2.142-.001v1.215h1.443l-.001.806c-.48-.002-.961 0-1.442 0l.001 1.361h2.296v.805h-3.085V2.83zM5.565 9.294l.803-.001c.127.866.25 1.733.382 2.599.219-.864.421-1.733.633-2.599.255-.001.511.002.767.001.212.858.41 1.719.636 2.573.148-.855.26-1.716.392-2.574h.797c-.243 1.661-.487 3.321-.728 4.982l-.702-.001c-.26-1.059-.512-2.12-.78-3.177-.262 1.058-.514 2.118-.772 3.177h-.692c-.246-1.66-.492-3.32-.736-4.98zM12.131 9.294l.79-.001c.568 1.66 1.141 3.319 1.706 4.98l-.839.002c-.16-.465-.325-.929-.485-1.394-.519-.004-1.038.002-1.558.004-.156.464-.32.926-.479 1.389l-.84-.001c.565-1.661 1.139-3.318 1.705-4.979zm-.1 2.778l.991.001-.483-1.395c-.172.464-.341.929-.508 1.394zM14.667 9.294l.941-.001c.395.639.788 1.279 1.184 1.917l1.206-1.917.92.001c-.458.75-.914 1.5-1.376 2.246-.624.773-.238 1.827-.344 2.734h-.789c-.018-.72.035-1.445-.024-2.163-.53-.961-1.156-1.872-1.718-2.817z"/>
    <path fill="#393939" opacity=".85" d="M3.279 23.144c.179.204.37.396.575.574a.812.812 0 0 1-.575-.574z"/>
    <path fill="#101010" opacity=".73" d="M4.25 23.884c5.168-.009 10.336-.007 15.503-.001l-.154.117H4.445l-.195-.116z"/>
</svg>
