<!-- Generated by IcoMoon.io -->
<svg version="1.1" xmlns="http://www.w3.org/2000/svg" width="24" height="24" viewBox="0 0 24 24">
<title>regulatory--no-go-straight-or-turn-right--g1</title>
<path fill="#be4635" d="M10.52 0h3.002c0.122 0.338 0.685-0.090 0.817 0.247 0.201 0.056 0.53-0.127 0.624 0.126 0.073 0 0.221 0 0.296 0 0.031 0.293 0.414-0.045 0.45 0.249 0.073 0 0.219 0 0.292 0 0.075 0.129 0.198 0.172 0.369 0.124 0.113 0.082 0.225 0.165 0.337 0.249 0.073 0 0.218 0 0.291 0l0.075 0.119c0.062 0.031 0.188 0.096 0.251 0.127 0.264-0.088 0.28 0.336 0.546 0.256l0.076 0.116c0.264-0.082 0.285 0.338 0.55 0.256l0.071 0.119c0.318-0.088 0.356 0.455 0.673 0.376 0.246 0.199 0.417 0.613 0.75 0.621 0.285 0.313 0.587 0.616 0.9 0.9 0.009 0.33 0.422 0.502 0.622 0.744-0.061 0.194 0.133 0.267 0.249 0.376-0.061 0.193 0.134 0.265 0.249 0.373-0.092 0.272 0.364 0.281 0.25 0.562l0.124 0.042c-0.081 0.246 0.208 0.225 0.144 0.479 0.024 0.044 0.070 0.132 0.093 0.175 0.123 0.062 0.168 0.163 0.136 0.3l0.124 0.041c0 0.052 0 0.155 0 0.206 0.311-0.026-0.061 0.438 0.249 0.417 0 0.051 0 0.155 0 0.208 0.134 0.057 0.177 0.184 0.128 0.379 0.659 2.155 0.783 4.487 0.208 6.673-0.318 1.404-0.965 2.711-1.755 3.907-1.046 1.531-2.437 2.797-4.029 3.742v0c-0.321 0.158-0.638 0.327-0.955 0.497-0.055 0.114-0.149 0.157-0.281 0.124 0.016 0.307-0.43-0.057-0.423 0.249-0.184-0.050-0.308-0.009-0.373 0.123-0.081 0.001-0.241 0.002-0.321 0.002-0.065 0.133-0.192 0.174-0.377 0.124-0.053 0.261-0.428 0.062-0.621 0.123-0.107 0.341-0.676-0.087-0.832 0.249h-3.030c-0.102-0.343-0.688 0.093-0.807-0.249-0.201-0.056-0.535 0.128-0.624-0.124-0.174 0.047-0.297 0.006-0.372-0.124-0.174 0.047-0.3 0.006-0.374-0.124-0.173 0.047-0.297 0.006-0.373-0.124-0.073 0-0.22 0-0.293 0l-0.077-0.118c-0.063-0.032-0.19-0.097-0.254-0.129-0.073 0-0.219-0.001-0.291-0.002l-0.077-0.116c-0.062-0.031-0.189-0.095-0.251-0.126-0.261 0.071-0.285-0.335-0.546-0.26-0.109-0.172-0.357-0.126-0.45-0.359-0.062-0.031-0.187-0.093-0.247-0.124-0.308 0.048-0.356-0.432-0.662-0.39-0.255-0.193-0.417-0.581-0.746-0.622-0.297-0.307-0.598-0.609-0.905-0.907-0.042-0.331-0.43-0.49-0.622-0.747 0.030-0.183-0.142-0.259-0.25-0.368 0.035-0.185-0.141-0.262-0.249-0.374 0.057-0.254-0.326-0.284-0.265-0.538l-0.111-0.078c0.007-0.272-0.264-0.399-0.262-0.669-0.2-0.147-0.159-0.439-0.364-0.579 0-0.072-0.001-0.215-0.001-0.287l-0.117-0.080c-0.034-0.065-0.098-0.193-0.132-0.256 0-0.072 0-0.218 0-0.29-0.131-0.076-0.172-0.2-0.124-0.372-0.234-0.062-0.081-0.336-0.124-0.5-0.238-0.055-0.080-0.333-0.126-0.496-0.341-0.189 0.091-0.764-0.247-0.979v-3.009c0.349-0.154-0.099-0.77 0.247-0.939 0.001-0.142 0.001-0.282 0.001-0.424 0.312-0.063-0.062-0.509 0.249-0.575-0.047-0.173-0.006-0.297 0.124-0.371 0-0.073 0-0.221 0-0.295 0.032-0.063 0.097-0.19 0.129-0.255l0.119-0.075c0-0.073 0.001-0.219 0.001-0.292 0.218-0.3 0.388-0.64 0.5-0.997 0.031-0.062 0.095-0.187 0.126-0.249l0.112-0.077c-0.062-0.256 0.322-0.286 0.266-0.541 0.109-0.109 0.282-0.188 0.247-0.371 0.109-0.111 0.28-0.189 0.25-0.372 0.193-0.255 0.578-0.417 0.622-0.745 0.306-0.297 0.611-0.598 0.904-0.908 0.33-0.040 0.492-0.428 0.747-0.621 0.306 0.036 0.354-0.435 0.66-0.392l0.082-0.106c0.257 0.058 0.284-0.331 0.541-0.266l0.080-0.108c0.259 0.063 0.284-0.331 0.541-0.265 0.114-0.077 0.225-0.158 0.332-0.24 0.072 0 0.215-0.001 0.286-0.001 0.112-0.083 0.224-0.165 0.336-0.249 0.172 0.047 0.295 0.005 0.371-0.124 0.172 0.047 0.296 0.006 0.373-0.123 0.172 0.045 0.296 0.004 0.374-0.126 0.073 0 0.219 0 0.292 0 0.092-0.252 0.422-0.068 0.623-0.126 0.154-0.33 0.673 0.080 0.859-0.247M5.968 4.232c-0.113 0.080-0.144 0.187-0.092 0.317 0.653 0.67 1.311 1.337 1.973 1.998-0.050 0.052-0.149 0.155-0.199 0.208-0.113 0.709 0.085 1.464-0.103 2.154-1.021-0.975-1.998-2-2.996-3.001-0.17-0.162-0.341 0.076-0.414 0.215-1.59 2.107-2.247 4.851-1.829 7.446 0.438 2.907 2.282 5.614 4.907 7.013 0.203 0.030 0.252 0.287 0.491 0.242 3.248 1.593 7.364 1.107 10.173-1.219-0.001-0.050-0.004-0.149-0.004-0.199-1.104-1.144-2.232-2.263-3.341-3.401-0.129-0.141-0.353 0.007-0.48-0.108 0.029-0.060 0.086-0.179 0.113-0.239-0.349-0.39-0.76-0.736-1.081-1.147 0.708-0.021 1.416 0.007 2.124-0.024 0.014 0.037 0.041 0.109 0.056 0.147-0.369 0.407-0.889 0.722-1.106 1.237 0.71 0.108 1.429 0.083 2.146 0.087 0.204-0.065 0.312-0.261 0.464-0.395 0.785 0.869 1.624 1.689 2.43 2.537 0.040 0.002 0.118 0.009 0.158 0.012 1.109-1.388 1.791-3.080 2.073-4.816 0.086-1.12 0.116-2.273-0.113-3.371-0.305-1.51-0.984-2.958-1.956-4.165-1.292-1.646-3.171-2.819-5.182-3.336-1.040-0.264-2.151-0.296-3.237-0.236-1.796 0.193-3.547 0.914-4.977 2.042z"></path>
<path fill="#be4635" d="M7.823 9.213c0.336-0.433 0.711-0.833 1.083-1.235 0 0.785 0 1.568 0.011 2.353-0.344-0.392-0.727-0.747-1.094-1.118z"></path>
<path fill="#be4635" d="M11.464 10.172c0.487 0.572 1.042 1.084 1.567 1.623-0.551 0.058-1.089 0.26-1.507 0.634-0.119-0.349-0.029-0.745-0.055-1.114 0.056-0.383-0.127-0.767-0.005-1.143z"></path>
<path fill="#fff" d="M5.968 4.232c1.43-1.128 3.181-1.849 4.977-2.042 1.086-0.060 2.197-0.027 3.237 0.236 2.011 0.517 3.89 1.69 5.182 3.336 0.972 1.206 1.651 2.655 1.956 4.165 0.229 1.098 0.199 2.251 0.113 3.371-0.282 1.736-0.964 3.428-2.073 4.816-0.040-0.004-0.118-0.010-0.158-0.012-0.806-0.848-1.645-1.668-2.43-2.537 0.783-0.801 1.578-1.593 2.369-2.386l-0.055-0.134c-0.904-0.857-1.781-1.742-2.675-2.61-0.767-0.041-1.547 0.005-2.318-0.024l0.002 0.111c0.448 0.399 0.862 0.834 1.297 1.246-0.787 0.029-1.576-0.002-2.361 0.027-0.525-0.538-1.079-1.051-1.567-1.623-0.071-0.231-0.070-0.49-0.002-0.721-0.005-0.497 0.006-0.995 0.010-1.491 0.463 0.436 0.797 0.99 1.27 1.418-0.020-0.856 0.009-1.71-0.001-2.565-0.589-0.703-1.168-1.416-1.787-2.095-0.247-0.276-0.45-0.627-0.757-0.831-0.786 0.88-1.566 1.773-2.347 2.661-0.663-0.662-1.321-1.328-1.973-1.998-0.052-0.131-0.021-0.238 0.092-0.317z"></path>
<path fill="#fff" d="M4.137 6.123c0.073-0.139 0.244-0.377 0.414-0.215 0.997 1.001 1.975 2.026 2.996 3.001 0.116 0.143 0.082 0.327 0.092 0.497 0.061-0.063 0.123-0.128 0.184-0.193 0.367 0.371 0.75 0.726 1.094 1.118-0.005 2.841-0.001 5.684-0.025 8.526 0.073 0.017 0.22 0.052 0.293 0.070 0.732-0.090 1.475-0.039 2.212-0.057 0.022-0.938-0.029-1.885 0.036-2.815 0.113-0.8 0.821-1.544 1.653-1.541 0.321 0.41 0.731 0.756 1.081 1.147-0.027 0.060-0.085 0.179-0.113 0.239 0.127 0.116 0.351-0.032 0.48 0.108 1.109 1.138 2.237 2.257 3.341 3.401 0 0.050 0.002 0.149 0.004 0.199-2.809 2.325-6.925 2.812-10.173 1.219-0.239 0.045-0.288-0.213-0.491-0.242-2.625-1.399-4.469-4.106-4.907-7.013-0.418-2.595 0.239-5.34 1.829-7.446z"></path>
<path fill="#fff" d="M22.528 6.46l0.107 0.045-0.014 0.131c-0.024-0.044-0.070-0.132-0.093-0.175z"></path>
<path fill="#fff" d="M23.258 8.186l0.121 0.048c-0.048 0.179-0.007 0.308 0.123 0.388 0.036 0.165-0.103 0.436 0.123 0.502-0.001 0.141 0 0.281 0.004 0.423 0.346 0.172-0.096 0.767 0.247 0.959v3.019l-0.123 0.048c-0.001 0.272-0.020 0.546 0 0.819-0.244 0.035-0.093 0.335-0.124 0.494-0.241 0.044-0.099 0.339-0.126 0.502-0.142 0.062-0.183 0.187-0.124 0.369-0.138 0.067-0.18 0.192-0.126 0.373l-0.122 0.061c0.036 0.233-0.23 0.298-0.127 0.565-0.225 0.114-0.145 0.434-0.377 0.558 0.001 0.046 0.004 0.141 0.005 0.187l-0.123 0.057c-0.031 0.062-0.093 0.189-0.126 0.251-0.034 0.062-0.101 0.185-0.134 0.247 0.126 0.271-0.344 0.286-0.239 0.553-0.075 0.039-0.225 0.116-0.3 0.154 0.79-1.196 1.436-2.503 1.755-3.907 0.576-2.186 0.451-4.518-0.208-6.673z"></path>
<path fill="#fff" d="M17.682 22.508c1.592-0.945 2.983-2.211 4.029-3.742 0.25 0.27-0.312 0.323-0.198 0.593-0.203 0.235-0.616 0.417-0.622 0.741-0.322 0.286-0.625 0.598-0.919 0.915-0.328 0.014-0.504 0.422-0.746 0.622-0.313-0.078-0.354 0.461-0.667 0.373-0.060 0.031-0.179 0.095-0.238 0.127-0.103 0.236-0.348 0.198-0.469 0.371h-0.172z"></path>
<path fill="#fff" d="M16.727 23.005c0.317-0.17 0.634-0.339 0.955-0.497-0.147 0.323-0.516 0.252-0.686 0.495-0.067 0-0.201 0.001-0.269 0.002z"></path>
<path fill="#1a1c22" d="M7.849 6.547c0.781-0.888 1.561-1.781 2.347-2.661 0.307 0.204 0.51 0.555 0.757 0.831 0.619 0.679 1.198 1.393 1.787 2.095 0.010 0.856-0.019 1.71 0.001 2.565-0.473-0.428-0.807-0.981-1.27-1.418-0.004 0.496-0.015 0.994-0.010 1.491-0.067 0.231-0.068 0.49 0.002 0.721-0.122 0.376 0.061 0.76 0.005 1.143 0.026 0.369-0.065 0.765 0.055 1.114 0.418-0.374 0.956-0.576 1.507-0.634 0.786-0.030 1.574 0.001 2.361-0.027-0.435-0.412-0.849-0.847-1.297-1.246l-0.002-0.111c0.771 0.029 1.551-0.017 2.318 0.024 0.894 0.868 1.771 1.753 2.675 2.61l0.055 0.134c-0.791 0.793-1.585 1.586-2.369 2.386-0.152 0.134-0.26 0.331-0.464 0.395-0.718-0.004-1.436 0.021-2.146-0.087 0.216-0.515 0.736-0.831 1.105-1.237-0.015-0.037-0.042-0.109-0.056-0.147-0.708 0.031-1.416 0.002-2.124 0.024-0.832-0.004-1.539 0.741-1.653 1.541-0.065 0.93-0.014 1.878-0.036 2.815-0.737 0.019-1.48-0.032-2.212 0.057-0.073-0.017-0.22-0.052-0.293-0.070 0.024-2.841 0.020-5.684 0.025-8.526-0.011-0.785-0.011-1.568-0.011-2.353-0.372 0.402-0.747 0.802-1.083 1.235-0.061 0.065-0.123 0.129-0.184 0.193-0.010-0.17 0.024-0.354-0.092-0.497 0.188-0.69-0.010-1.445 0.103-2.154 0.050-0.052 0.149-0.155 0.199-0.208z"></path>
</svg>
