<svg xmlns="http://www.w3.org/2000/svg" width="24" height="24">
    <path fill="#e22526" d="M11.378 0h.798c3.106.045 6.175 1.329 8.354 3.549 1.831 1.824 3.006 4.256 3.389 6.806v3.264c-.434 3.07-2.074 5.953-4.534 7.846-2.039 1.606-4.612 2.485-7.202 2.535h-.767c-3.472-.21-6.83-1.939-8.926-4.73a11.975 11.975 0 0 1-2.423-8.149c.2-2.95 1.557-5.798 3.71-7.823C5.815 1.336 8.567.201 11.378 0zm-.061 3.409c-2.994.217-5.779 2.142-7.061 4.853-1.242 2.535-1.114 5.682.337 8.106 1.27 2.178 3.537 3.742 6.029 4.138a8.642 8.642 0 0 0 5.774-1.074 8.66 8.66 0 0 0 3.737-4.499 8.66 8.66 0 0 0-.043-5.982c-1.274-3.522-5.039-5.914-8.772-5.541z"/>
    <path fill="#fff" d="M11.317 3.409c3.733-.373 7.498 2.019 8.772 5.541a8.66 8.66 0 0 1 .043 5.982 8.656 8.656 0 0 1-3.737 4.499 8.634 8.634 0 0 1-5.774 1.074c-2.492-.396-4.759-1.96-6.029-4.138-1.45-2.424-1.579-5.57-.337-8.106 1.282-2.711 4.066-4.636 7.061-4.853z"/>
</svg>
