<?xml version="1.0" encoding="utf-8"?>
<!-- Generated by IcoMoon.io -->
<!DOCTYPE svg PUBLIC "-//W3C//DTD SVG 1.1//EN" "http://www.w3.org/Graphics/SVG/1.1/DTD/svg11.dtd">
<svg version="1.1" xmlns="http://www.w3.org/2000/svg" xmlns:xlink="http://www.w3.org/1999/xlink" width="24" height="24" viewBox="0 0 24 24">
<path fill="#1a1919" d="M0.921 0.111c0.156-0.084 0.336-0.066 0.506-0.067 3.77-0.012 7.54-0.018 11.309-0.011 3.407 0.005 6.814-0.002 10.22 0.009 0.483 0.17 0.854 0.579 1.043 1.050v21.816c-0.15 0.491-0.545 0.873-1 1.093h-21.956c-0.221-0.117-0.443-0.242-0.614-0.428-0.196-0.2-0.318-0.456-0.43-0.709v-21.683c0.182-0.441 0.475-0.865 0.921-1.069M1.34 0.15c-0.705 0.064-1.269 0.767-1.219 1.466 0.001 6.986 0 13.972 0 20.958 0.002 0.354 0.191 0.676 0.422 0.932 0.278 0.287 0.677 0.413 1.071 0.409 6.94-0 13.88 0 20.82 0 0.382 0.002 0.766-0.12 1.041-0.393 0.239-0.259 0.434-0.587 0.436-0.949-0.001-7.033-0.001-14.067 0-21.101 0-0.35-0.184-0.67-0.41-0.925-0.274-0.289-0.672-0.426-1.066-0.421-6.844 0-13.687 0-20.531 0-0.188-0-0.377-0.007-0.563 0.023z"></path>
<path fill="#1a1919" d="M21.26 0.456c0.516-0.014 1.045-0.071 1.55 0.062 0.383 0.089 0.641 0.449 0.746 0.809 0.062 0.474 0.023 0.955 0.020 1.431 0.002 6.557-0.002 13.115 0.002 19.673 0.043 0.346-0.152 0.667-0.402 0.888-0.265 0.206-0.608 0.259-0.935 0.264-6.447 0-12.895 0-19.343 0-0.428-0.003-0.857 0.009-1.286-0.015-0.348-0.027-0.739-0.117-0.95-0.423-0.253-0.322-0.217-0.758-0.21-1.143 0-5.845 0-11.689 0-17.534-0.006-0.506 0.017-1.014-0.021-1.519-0.019-0.509-0.016-1.020 0.046-1.526 0.074-0.337 0.239-0.698 0.564-0.858 0.159-0.086 0.347-0.087 0.523-0.104 6.564-0.005 13.129 0.005 19.693-0.005M1.483 1.051c-0.158 0.015-0.305 0.109-0.376 0.252-0.095 0.15-0.066 0.333-0.069 0.5 0 6.702 0 13.405 0 20.108 0.002 0.271-0.046 0.558 0.047 0.818 0.189 0.315 0.596 0.267 0.911 0.272 6.734-0.004 13.468-0 20.201-0.002 0.18-0.007 0.369-0.003 0.536-0.082 0.172-0.093 0.301-0.284 0.266-0.485-0.006-5.957-0.001-11.914-0.002-17.87 0.004-0.936-0.021-1.872 0.042-2.807-0.003-0.295-0.158-0.692-0.503-0.705-0.429-0.020-0.86-0.004-1.289-0.009-6.544 0-13.089 0-19.633 0-0.032 0.002-0.097 0.007-0.129 0.009z"></path>
<path fill="#1a1919" d="M14.707 3.978c0.532-0.090 1.118-0.074 1.595 0.205 0.289 0.21 0.557 0.467 0.726 0.786 0.286 0.619 0.475 1.288 0.515 1.971 0.032 0.639-0.016 1.284-0.175 1.905-0.084 0.373-0.235 0.73-0.434 1.056-0.283 0.521-0.865 0.842-1.448 0.883-0.472 0.036-0.979-0.006-1.39-0.262-0.262-0.193-0.507-0.422-0.672-0.705-0.501-1.018-0.652-2.188-0.494-3.307 0.077-0.526 0.198-1.057 0.468-1.522 0.118-0.195 0.224-0.405 0.398-0.557 0.26-0.222 0.57-0.395 0.911-0.453M14.896 5.032c-0.315 0.080-0.518 0.368-0.66 0.641-0.219 0.552-0.314 1.15-0.308 1.742-0.017 0.629 0.132 1.258 0.404 1.823 0.147 0.242 0.397 0.442 0.686 0.472 0.326 0.052 0.702-0.011 0.917-0.284 0.289-0.295 0.374-0.713 0.465-1.101 0.185-0.957 0.13-1.992-0.331-2.867-0.095-0.153-0.237-0.273-0.387-0.369-0.251-0.086-0.526-0.127-0.787-0.058z"></path>
<path fill="#1a1919" d="M6.849 4.036c0.346 0 0.691 0 1.037 0 0.799 1.415 1.595 2.832 2.394 4.247 0.001-1.416 0-2.832 0-4.247 0.346 0 0.691 0 1.037 0 0 2.218 0 4.435 0 6.652-0.303 0-0.605 0-0.908 0-0.841-1.495-1.681-2.992-2.523-4.487-0.001 1.496 0 2.991-0 4.487-0.346 0-0.691 0-1.037 0 0-2.218 0-4.435 0-6.652z"></path>
<path fill="#1a1919" d="M20.173 14.69c0.47-0.14 1.015-0.125 1.436 0.15 0.321 0.182 0.547 0.497 0.671 0.839-0.267 0.077-0.535 0.154-0.803 0.23-0.077-0.149-0.193-0.275-0.329-0.371-0.311-0.129-0.713-0.12-0.969 0.122-0.259 0.231-0.331 0.702-0.041 0.936 0.543 0.222 1.205 0.154 1.675 0.552 0.686 0.476 0.902 1.534 0.398 2.216-0.18 0.301-0.475 0.502-0.791 0.637-0.562 0.164-1.199 0.096-1.689-0.237-0.386-0.221-0.657-0.598-0.823-1.004 0.263-0.098 0.525-0.197 0.788-0.294 0.146 0.333 0.428 0.624 0.784 0.725 0.289 0.067 0.627 0.071 0.873-0.12 0.188-0.151 0.31-0.39 0.298-0.634 0.011-0.28-0.198-0.514-0.418-0.657-0.55-0.236-1.192-0.237-1.697-0.582-0.256-0.281-0.44-0.653-0.421-1.042-0.012-0.4 0.192-0.769 0.45-1.061 0.161-0.189 0.389-0.3 0.608-0.407z"></path>
<path fill="#1a1919" d="M1.561 14.683c1.080-0 2.16-0 3.239-0 0 0.25 0 0.5 0 0.75-0.401 0-0.803 0-1.204 0 0 1.524 0 3.048 0 4.571-0.277 0-0.553 0-0.83 0 0-1.524 0-3.048 0-4.572-0.402-0-0.803 0-1.204-0-0-0.25-0-0.5-0-0.749z"></path>
<path fill="#1a1919" d="M5.452 14.683c0.277-0 0.553-0 0.83 0-0 1.173 0.001 2.347-0.001 3.521 0.005 0.274 0.121 0.537 0.288 0.75 0.258 0.289 0.702 0.346 1.051 0.208 0.355-0.154 0.541-0.547 0.576-0.913 0.002-1.188 0.001-2.376 0-3.564 0.277-0.004 0.554-0.001 0.831-0.001 0 1.141-0.001 2.282 0.001 3.424 0.009 0.432-0.102 0.871-0.324 1.242-0.314 0.42-0.813 0.71-1.341 0.734-0.505 0.044-1.015-0.146-1.379-0.495-0.258-0.217-0.377-0.546-0.463-0.862-0.092-0.326-0.067-0.665-0.069-0.999 0-1.015 0-2.030 0-3.044z"></path>
<path fill="#1a1919" d="M9.933 14.683c0.57 0 1.141-0.001 1.711 0.001 0.37 0.019 0.771 0.022 1.085 0.245 0.549 0.326 0.804 1.054 0.625 1.66-0.087 0.261-0.21 0.529-0.432 0.703-0.103 0.086-0.217 0.155-0.331 0.225 0.305 0.83 0.612 1.659 0.916 2.488-0.298 0-0.596 0.001-0.894 0-0.283-0.774-0.569-1.547-0.853-2.321-0.333-0.001-0.665-0-0.998 0 0 0.774-0 1.547 0 2.321-0.277 0.001-0.553 0-0.83 0.001 0-1.774 0-3.548 0-5.322M10.762 16.829c0.39-0.002 0.78 0.007 1.17-0.005 0.292 0.004 0.553-0.223 0.636-0.493 0.102-0.387-0.247-0.793-0.638-0.788-0.388-0.013-0.776 0-1.164-0.007-0.008 0.431-0.001 0.863-0.003 1.294z"></path>
<path fill="#1a1919" d="M14.414 14.683c0.276-0.001 0.553-0 0.829-0 0.639 1.132 1.276 2.266 1.914 3.398 0.001-1.133 0-2.265 0-3.398 0.277 0 0.553 0 0.83 0 0 1.774-0 3.548 0 5.321-0.242 0.001-0.484 0-0.726 0-0.673-1.196-1.345-2.394-2.019-3.59 0 1.197 0 2.393 0 3.59-0.277 0-0.553 0-0.83 0 0-1.774 0-3.548 0-5.321z"></path>
<path fill="#fffffe" d="M1.34 0.15c0.186-0.030 0.375-0.023 0.563-0.023 6.844 0 13.687 0 20.531 0 0.394-0.006 0.792 0.132 1.066 0.421 0.226 0.255 0.411 0.575 0.41 0.925-0.001 7.034-0.001 14.067 0 21.101-0.002 0.362-0.197 0.691-0.436 0.949-0.275 0.273-0.659 0.395-1.041 0.393-6.94 0-13.88-0-20.82 0-0.394 0.005-0.793-0.122-1.071-0.409-0.231-0.256-0.419-0.578-0.422-0.932 0-6.986 0.001-13.972 0-20.958-0.050-0.699 0.514-1.402 1.219-1.466M21.26 0.456c-6.565 0.010-13.129 0-19.693 0.005-0.176 0.017-0.365 0.018-0.523 0.104-0.325 0.16-0.49 0.52-0.564 0.858-0.062 0.506-0.065 1.018-0.046 1.526 0.038 0.506 0.015 1.013 0.021 1.519 0 5.845 0 11.69 0 17.534-0.007 0.385-0.043 0.821 0.21 1.143 0.21 0.306 0.602 0.396 0.95 0.423 0.428 0.024 0.857 0.012 1.286 0.015 6.448 0 12.895 0 19.343 0 0.326-0.005 0.67-0.058 0.935-0.264 0.25-0.221 0.445-0.542 0.402-0.888-0.005-6.557 0-13.115-0.002-19.673 0.003-0.477 0.042-0.958-0.020-1.431-0.105-0.36-0.363-0.72-0.746-0.809-0.506-0.134-1.034-0.077-1.55-0.062z"></path>
<path fill="#fffffe" d="M1.483 1.051c0.032-0.002 0.097-0.007 0.129-0.009 6.544 0 13.089 0 19.633 0 0.43 0.005 0.86-0.011 1.289 0.009 0.345 0.013 0.5 0.41 0.503 0.705-0.063 0.935-0.038 1.871-0.042 2.807 0.001 5.957-0.003 11.914 0.002 17.87 0.035 0.202-0.095 0.392-0.266 0.485-0.166 0.079-0.355 0.076-0.536 0.082-6.734 0.001-13.468-0.002-20.201 0.002-0.315-0.005-0.722 0.042-0.911-0.272-0.093-0.26-0.045-0.547-0.047-0.818 0-6.703 0-13.406 0-20.108 0.004-0.168-0.025-0.351 0.069-0.5 0.071-0.144 0.218-0.237 0.376-0.252M14.707 3.978c-0.341 0.058-0.65 0.231-0.911 0.453-0.174 0.152-0.28 0.362-0.398 0.557-0.27 0.464-0.39 0.996-0.468 1.522-0.158 1.119-0.007 2.289 0.494 3.307 0.165 0.283 0.411 0.511 0.672 0.705 0.411 0.256 0.917 0.298 1.39 0.262 0.583-0.041 1.164-0.362 1.448-0.883 0.199-0.326 0.35-0.682 0.434-1.056 0.159-0.621 0.208-1.266 0.175-1.905-0.040-0.683-0.229-1.352-0.515-1.971-0.169-0.319-0.436-0.576-0.726-0.786-0.477-0.279-1.063-0.295-1.595-0.205M6.849 4.036c0 2.218 0 4.435 0 6.652 0.346 0 0.691 0 1.037 0 0-1.496-0.001-2.991 0-4.487 0.841 1.495 1.681 2.992 2.523 4.487 0.303 0 0.605 0 0.908 0-0-2.218 0-4.435-0-6.652-0.346 0-0.691 0-1.037 0-0 1.416 0 2.832-0 4.247-0.798-1.415-1.595-2.832-2.394-4.247-0.346 0-0.691 0-1.037 0M20.173 14.69c-0.219 0.106-0.447 0.218-0.608 0.407-0.258 0.291-0.461 0.661-0.45 1.061-0.019 0.388 0.165 0.761 0.421 1.042 0.505 0.345 1.147 0.346 1.697 0.582 0.22 0.144 0.429 0.377 0.418 0.657 0.012 0.244-0.11 0.482-0.298 0.634-0.246 0.191-0.584 0.186-0.873 0.12-0.355-0.101-0.638-0.392-0.784-0.725-0.263 0.097-0.526 0.196-0.788 0.294 0.166 0.405 0.437 0.782 0.823 1.004 0.49 0.332 1.126 0.401 1.689 0.237 0.317-0.135 0.612-0.336 0.791-0.637 0.504-0.682 0.288-1.74-0.398-2.216-0.47-0.398-1.132-0.33-1.675-0.552-0.29-0.234-0.219-0.705 0.041-0.936 0.256-0.241 0.658-0.251 0.969-0.122 0.136 0.096 0.253 0.221 0.329 0.371 0.268-0.076 0.536-0.153 0.803-0.23-0.124-0.342-0.35-0.657-0.671-0.839-0.421-0.276-0.965-0.29-1.436-0.15M1.561 14.683c0 0.25 0 0.499 0 0.749 0.401 0 0.803 0 1.204 0 0 1.524 0 3.048 0 4.572 0.277 0 0.553 0 0.83-0 0-1.524 0-3.048 0-4.571 0.402-0 0.803 0 1.204-0 0-0.25 0-0.5 0-0.75-1.079 0-2.159 0-3.239 0M5.452 14.683c0 1.015 0 2.030 0 3.044 0.002 0.334-0.023 0.673 0.069 0.999 0.086 0.316 0.205 0.644 0.463 0.862 0.365 0.349 0.874 0.539 1.379 0.495 0.528-0.024 1.027-0.315 1.341-0.734 0.222-0.372 0.332-0.81 0.324-1.242-0.002-1.142-0-2.283-0.001-3.424-0.277 0-0.554-0.003-0.831 0.001 0.001 1.188 0.002 2.376 0 3.564-0.035 0.367-0.221 0.76-0.576 0.913-0.349 0.138-0.794 0.082-1.051-0.208-0.167-0.213-0.283-0.477-0.288-0.75 0.002-1.174 0-2.347 0.001-3.521-0.277-0-0.553-0-0.83 0M9.933 14.683c0 1.774 0 3.548 0 5.322 0.277-0 0.554 0 0.83-0.001-0.001-0.774 0-1.547-0-2.321 0.333-0 0.665-0.001 0.998 0 0.284 0.774 0.569 1.547 0.853 2.321 0.298 0.001 0.596 0 0.894 0-0.305-0.829-0.612-1.658-0.916-2.488 0.114-0.070 0.228-0.14 0.331-0.225 0.223-0.174 0.345-0.442 0.432-0.703 0.179-0.605-0.076-1.333-0.625-1.66-0.315-0.223-0.716-0.227-1.085-0.245-0.57-0.002-1.141-0-1.711-0.001M14.414 14.683c-0 1.774 0 3.548-0 5.321 0.277 0 0.553 0 0.83 0 0-1.197 0-2.393 0-3.59 0.673 1.197 1.345 2.394 2.019 3.59 0.242-0 0.484 0 0.726-0-0.001-1.774 0-3.548-0-5.321-0.277-0-0.553-0-0.83-0-0 1.133 0 2.265-0 3.398-0.639-1.132-1.275-2.266-1.914-3.398-0.276 0-0.553-0-0.829 0z"></path>
<path fill="#fffffe" d="M14.896 5.032c0.261-0.069 0.536-0.029 0.787 0.058 0.151 0.096 0.292 0.216 0.387 0.369 0.461 0.875 0.516 1.91 0.331 2.867-0.091 0.388-0.176 0.806-0.465 1.101-0.215 0.272-0.592 0.336-0.917 0.284-0.288-0.030-0.538-0.23-0.686-0.472-0.272-0.565-0.421-1.194-0.404-1.823-0.006-0.593 0.089-1.19 0.308-1.742 0.142-0.273 0.345-0.561 0.66-0.641z"></path>
<path fill="#fffffe" d="M10.762 16.829c0.002-0.431-0.004-0.863 0.003-1.294 0.388 0.007 0.777-0.006 1.164 0.007 0.391-0.005 0.739 0.401 0.638 0.788-0.083 0.27-0.344 0.498-0.636 0.493-0.39 0.012-0.779 0.003-1.17 0.005z"></path>
</svg>
