<svg xmlns="http://www.w3.org/2000/svg" width="24" height="24">
    <path fill="#045ca1" d="M10.462 0h3.084c2.987.516 5.896 1.97 7.784 4.386 1.443 1.727 2.269 3.878 2.669 6.074v3.087c-.516 2.987-1.97 5.896-4.386 7.784-1.729 1.443-3.88 2.271-6.076 2.669h-3.084c-2.987-.516-5.895-1.97-7.784-4.386C1.226 17.885.397 15.734 0 13.536v-3.083C.402 8.26 1.228 6.112 2.669 4.386 4.56 1.969 7.472.51 10.462 0zm4.996 6.181c-1.565.12-3.181-.157-4.698.357-3.166.916-5.57 3.998-5.596 7.308-.008 2.499-.007 4.998 0 7.497.866.008 1.731.008 2.598 0 .022-2.455-.022-4.913.022-7.369.022-2.087 1.425-4.062 3.38-4.789 1.337-.539 2.8-.307 4.201-.327.003.864-.016 1.726-.009 2.59 2.292-1.269 4.602-2.508 6.891-3.782-2.254-1.404-4.514-2.796-6.761-4.208-.028.907-.012 1.815-.028 2.723z"/>
    <path fill="#fff" d="M15.458 6.181c.016-.909 0-1.816.028-2.723 2.247 1.412 4.507 2.804 6.761 4.208-2.289 1.274-4.6 2.513-6.891 3.782-.007-.864.012-1.726.009-2.59-1.402.02-2.864-.212-4.201.327-1.954.728-3.357 2.702-3.38 4.789-.045 2.455 0 4.913-.022 7.369-.866.008-1.731.008-2.598 0-.007-2.499-.008-4.998 0-7.497.026-3.31 2.43-6.392 5.596-7.308 1.518-.514 3.133-.237 4.698-.357z"/>
</svg>
