<?xml version="1.0" encoding="utf-8"?>
<!-- Generated by IcoMoon.io -->
<!DOCTYPE svg PUBLIC "-//W3C//DTD SVG 1.1//EN" "http://www.w3.org/Graphics/SVG/1.1/DTD/svg11.dtd">
<svg version="1.1" xmlns="http://www.w3.org/2000/svg" xmlns:xlink="http://www.w3.org/1999/xlink" width="24" height="24" viewBox="0 0 24 24">
<path fill="#1a1919" d="M2.027 0h19.946v24h-19.946v-24M3.287 0.156c-0.599-0.018-1.139 0.498-1.169 1.091-0.003 7.127 0.001 14.255-0.002 21.384-0.009 0.362 0.191 0.71 0.47 0.929 0.23 0.188 0.531 0.231 0.818 0.235 5.58 0 11.16 0 16.74 0 0.283 0.001 0.571 0.012 0.848-0.059 0.464-0.152 0.813-0.623 0.803-1.114-0.001-7.105-0.001-14.21 0-21.316 0.005-0.627-0.571-1.184-1.2-1.152-5.77-0.003-11.54-0.005-17.309 0.001z"></path>
<path fill="#1a1919" d="M3.225 0.423c0.044-0.002 0.132-0.007 0.176-0.009 5.34-0.001 10.68 0 16.020-0.001 0.48 0.001 0.969-0.076 1.441 0.042 0.435 0.097 0.706 0.558 0.674 0.987-0.005 6.929-0.001 13.86-0.003 20.79-0.006 0.242 0.036 0.5-0.075 0.725-0.104 0.232-0.292 0.432-0.538 0.511-0.295 0.084-0.605 0.062-0.908 0.063-5.343 0.001-10.685-0.001-16.028 0.001-0.303 0.010-0.608-0.008-0.908-0.045-0.406-0.076-0.704-0.451-0.698-0.864-0.001-7.084 0-14.169-0.001-21.253-0.008-0.465 0.362-0.94 0.848-0.948M3.134 0.95c-0.206 0.052-0.269 0.303-0.262 0.49 0.002 6.91 0.001 13.819 0.001 20.728 0.007 0.221-0.037 0.456 0.053 0.666 0.092 0.131 0.252 0.205 0.411 0.206 5.71-0.006 11.423 0 17.134-0.003 0.093-0.004 0.184-0.018 0.275-0.041 0.195-0.030 0.3-0.252 0.293-0.432-0.002-6.781 0-13.562-0.001-20.344-0.022-0.417 0.143-0.897-0.163-1.247-0.239-0.055-0.485-0.075-0.729-0.064-5.582 0.001-11.164 0.001-16.745 0-0.090 0.001-0.18 0.012-0.266 0.041z"></path>
<path fill="#1a1919" d="M9.208 6.784c0.92-1.35 1.821-2.713 2.753-4.054 1.020 1.513 2.048 3.021 3.069 4.533 0.228 0.264-0.032 0.734-0.376 0.68-0.513-0.101-1.003-0.291-1.507-0.428-0.001 2.586 0.001 5.173-0.001 7.76-0.794-0.001-1.588 0.002-2.382-0.001 0.001-2.586 0-5.172 0.001-7.758-0.405 0.12-0.809 0.24-1.212 0.362-0.169 0.047-0.352 0.103-0.523 0.031-0.154-0.114-0.285-0.317-0.214-0.513 0.104-0.22 0.264-0.407 0.393-0.612z"></path>
<path fill="#1a1919" d="M6.873 17.206c0.352-0.052 0.743 0.035 0.992 0.303 0.272 0.24 0.372 0.603 0.459 0.942 0.167 0.761 0.126 1.598-0.281 2.28-0.288 0.576-1.073 0.673-1.616 0.438-0.425-0.207-0.619-0.668-0.726-1.103-0.211-0.831-0.119-1.761 0.366-2.482 0.201-0.236 0.497-0.37 0.806-0.379M6.811 17.862c-0.211 0.042-0.331 0.25-0.411 0.432-0.184 0.517-0.218 1.092-0.084 1.624 0.077 0.254 0.162 0.552 0.422 0.677 0.196 0.065 0.424 0.067 0.607-0.038 0.179-0.142 0.283-0.354 0.335-0.573 0.164-0.615 0.152-1.302-0.15-1.874-0.139-0.244-0.462-0.335-0.721-0.249z"></path>
<path fill="#1a1919" d="M9.27 17.258c0.207 0.001 0.413 0.001 0.621-0.003 0.489 0.837 0.959 1.686 1.449 2.523 0.003-0.84 0.001-1.68 0.001-2.52 0.209 0 0.417 0 0.626 0 0.001 1.32 0 2.64 0 3.96-0.188 0.003-0.375 0.001-0.562-0.003-0.496-0.895-1.005-1.784-1.508-2.676-0.001 0.893 0 1.786-0.001 2.679-0.209 0.001-0.417 0-0.626 0 0.001-1.32 0-2.64 0.001-3.96z"></path>
<path fill="#1a1919" d="M12.897 17.259c0.209-0.001 0.417-0.002 0.626-0.001 0 1.125 0.001 2.251 0 3.376 0.611 0.002 1.223-0.001 1.835 0.001-0.002 0.192-0.004 0.385 0.006 0.577-0.822 0.012-1.645 0.003-2.467 0.005 0.002-1.32 0.001-2.639 0.001-3.958z"></path>
<path fill="#1a1919" d="M14.97 17.258c0.248-0.001 0.496 0.001 0.744-0.003 0.318 0.505 0.632 1.012 0.94 1.524 0.337-0.492 0.643-1.006 0.957-1.514 0.249-0.015 0.498-0.006 0.746-0.007-0.452 0.749-0.925 1.484-1.367 2.238-0.020 0.574 0 1.148-0.009 1.723-0.209-0.001-0.417-0.001-0.625-0.002-0.004-0.574 0.012-1.148-0.007-1.721-0.447-0.753-0.925-1.488-1.38-2.238z"></path>
<path fill="#fffffe" d="M3.287 0.156c5.769-0.007 11.539-0.005 17.309-0.001 0.629-0.032 1.205 0.524 1.2 1.152-0.001 7.105-0.001 14.21 0 21.316 0.010 0.491-0.339 0.961-0.803 1.114-0.277 0.071-0.565 0.060-0.848 0.059-5.58 0-11.16 0-16.74 0-0.287-0.003-0.589-0.047-0.818-0.235-0.279-0.22-0.479-0.568-0.47-0.929 0.003-7.128-0.001-14.256 0.002-21.384 0.030-0.592 0.57-1.108 1.169-1.091M3.225 0.423c-0.485 0.008-0.855 0.483-0.848 0.948 0.001 7.084 0 14.169 0.001 21.253-0.007 0.413 0.292 0.788 0.698 0.864 0.301 0.037 0.605 0.055 0.908 0.045 5.343-0.001 10.685 0 16.028-0.001 0.303-0.001 0.613 0.020 0.908-0.063 0.247-0.079 0.434-0.279 0.538-0.511 0.111-0.226 0.069-0.483 0.075-0.725 0.002-6.93-0.003-13.86 0.003-20.79 0.033-0.429-0.239-0.89-0.674-0.987-0.472-0.118-0.961-0.041-1.441-0.042-5.34 0.001-10.68 0-16.020 0.001-0.044 0.002-0.132 0.007-0.176 0.009z"></path>
<path fill="#fffffe" d="M3.134 0.95c0.085-0.029 0.176-0.040 0.266-0.041 5.581 0.001 11.163 0.001 16.745 0 0.245-0.010 0.49 0.009 0.729 0.064 0.307 0.35 0.142 0.831 0.163 1.247 0.001 6.781-0.001 13.562 0.001 20.344 0.007 0.18-0.098 0.402-0.293 0.432-0.090 0.024-0.182 0.037-0.275 0.041-5.711 0.003-11.423-0.003-17.134 0.003-0.16-0.001-0.319-0.075-0.411-0.206-0.090-0.21-0.046-0.445-0.053-0.666 0-6.91 0.001-13.819-0.001-20.728-0.007-0.187 0.056-0.437 0.262-0.49M9.208 6.784c-0.129 0.205-0.289 0.392-0.393 0.612-0.071 0.196 0.061 0.399 0.214 0.513 0.171 0.072 0.354 0.016 0.523-0.031 0.403-0.122 0.808-0.242 1.212-0.362-0.001 2.586 0.001 5.172-0.001 7.758 0.794 0.003 1.588 0.001 2.382 0.001 0.002-2.586 0.001-5.173 0.001-7.76 0.504 0.137 0.994 0.327 1.507 0.428 0.344 0.054 0.604-0.417 0.376-0.68-1.021-1.512-2.049-3.021-3.069-4.533-0.933 1.341-1.833 2.704-2.753 4.054M6.873 17.206c-0.309 0.009-0.605 0.143-0.806 0.379-0.485 0.721-0.577 1.651-0.366 2.482 0.107 0.434 0.301 0.895 0.726 1.103 0.543 0.235 1.328 0.138 1.616-0.438 0.407-0.682 0.449-1.52 0.281-2.28-0.087-0.339-0.187-0.702-0.459-0.942-0.249-0.269-0.64-0.356-0.992-0.303M9.27 17.258c-0.001 1.32 0 2.641-0.001 3.96 0.209 0 0.417 0.001 0.626 0 0.001-0.893 0-1.786 0.001-2.679 0.503 0.892 1.012 1.781 1.508 2.676 0.188 0.004 0.375 0.005 0.562 0.003 0-1.32 0.001-2.639 0-3.96-0.209 0-0.417 0-0.626 0-0.001 0.84 0.001 1.681-0.001 2.52-0.49-0.837-0.959-1.686-1.449-2.523-0.207 0.004-0.414 0.003-0.621 0.003M12.897 17.259c0 1.319 0.001 2.639-0.001 3.958 0.823-0.001 1.645 0.008 2.467-0.005-0.010-0.193-0.008-0.385-0.006-0.577-0.612-0.002-1.224 0.001-1.835-0.001 0.001-1.125 0-2.251 0-3.376-0.209-0.001-0.417 0-0.626 0.001M14.97 17.258c0.455 0.749 0.934 1.484 1.38 2.238 0.019 0.573 0.003 1.148 0.007 1.721 0.209 0.001 0.417 0.001 0.625 0.002 0.009-0.574-0.011-1.149 0.009-1.723 0.441-0.754 0.915-1.49 1.367-2.238-0.249 0.001-0.498-0.008-0.746 0.007-0.314 0.508-0.62 1.021-0.957 1.514-0.308-0.511-0.623-1.019-0.94-1.524-0.248 0.004-0.496 0.001-0.744 0.003z"></path>
<path fill="#fffffe" d="M6.811 17.862c0.259-0.086 0.581 0.005 0.721 0.249 0.302 0.572 0.314 1.259 0.15 1.874-0.052 0.218-0.157 0.431-0.335 0.573-0.182 0.105-0.411 0.103-0.607 0.038-0.26-0.126-0.345-0.423-0.422-0.677-0.135-0.532-0.1-1.108 0.084-1.624 0.080-0.182 0.2-0.39 0.411-0.432z"></path>
</svg>
