<?xml version="1.0" encoding="utf-8"?>
<!-- Generated by IcoMoon.io -->
<!DOCTYPE svg PUBLIC "-//W3C//DTD SVG 1.1//EN" "http://www.w3.org/Graphics/SVG/1.1/DTD/svg11.dtd">
<svg version="1.1" xmlns="http://www.w3.org/2000/svg" xmlns:xlink="http://www.w3.org/1999/xlink" width="24" height="24" viewBox="0 0 24 24">
<path fill="#040404" d="M2 0h20v24h-20v-24M3.015 0.109c-0.537 0.117-0.96 0.633-0.927 1.188-0.001 7.136-0.001 14.271 0 21.406-0.035 0.611 0.491 1.19 1.104 1.205 5.702 0.002 11.404-0.001 17.106 0.001 0.325-0.008 0.676 0.051 0.969-0.127 0.401-0.191 0.662-0.635 0.645-1.078 0.002-7.003-0.001-14.005 0.001-21.008-0.008-0.322 0.044-0.671-0.129-0.963-0.193-0.403-0.641-0.665-1.086-0.646-5.632-0.001-11.264 0-16.896-0.001-0.262 0.004-0.527-0.015-0.787 0.023z"></path>
<path fill="#040404" d="M2.929 0.443c0.148-0.063 0.311-0.071 0.469-0.076 5.734-0.001 11.468-0.001 17.202-0.001 0.534-0.055 1.058 0.388 1.029 0.937 0.004 7.131 0.004 14.261 0 21.391 0.023 0.501-0.421 0.956-0.924 0.931-5.668 0.005-11.337-0.001-17.006 0.003-0.3-0.006-0.628 0.037-0.895-0.134-0.309-0.179-0.459-0.548-0.436-0.895 0.001-7.067 0.001-14.133 0-21.199-0.033-0.396 0.181-0.812 0.561-0.957M3.039 0.946c-0.149 0.1-0.18 0.291-0.172 0.458 0.004 7.097-0.003 14.195 0.004 21.292-0.021 0.237 0.191 0.452 0.429 0.428 5.802 0.002 11.605 0.003 17.407 0 0.287 0.026 0.466-0.268 0.425-0.526 0-7.066-0.001-14.132 0-21.199 0.026-0.221-0.086-0.485-0.331-0.517-0.298-0.031-0.598-0.010-0.897-0.014-5.467-0.002-10.934 0.002-16.401-0.002-0.156 0.007-0.328-0.014-0.464 0.080z"></path>
<path fill="#040404" d="M4.715 3.212c0.628-0.407 1.507-0.226 2.026 0.283-0.148 0.135-0.297 0.269-0.446 0.402-0.306-0.28-0.764-0.407-1.159-0.253-0.195 0.067-0.257 0.38-0.066 0.485 0.452 0.226 0.994 0.21 1.427 0.482 0.471 0.316 0.537 1.111 0.060 1.452-0.709 0.549-1.812 0.369-2.37-0.316 0.159-0.124 0.319-0.249 0.478-0.373 0.337 0.397 0.932 0.541 1.402 0.301 0.21-0.088 0.309-0.4 0.108-0.552-0.468-0.289-1.082-0.24-1.531-0.569-0.428-0.329-0.382-1.056 0.071-1.342z"></path>
<path fill="#040404" d="M7.548 3.027c0.577 0.003 1.154-0.014 1.731 0.008 0.431 0.020 0.834 0.337 0.931 0.761 0.15 0.54-0.248 1.17-0.813 1.229-0.413 0.036-0.828 0.007-1.242 0.016 0 0.436 0.001 0.871 0 1.306-0.202 0-0.404 0-0.606 0.001-0.002-1.107 0-2.214-0.001-3.321M8.158 3.619c-0.003 0.275-0.003 0.551-0.002 0.826 0.409-0.019 0.828 0.046 1.231-0.036 0.356-0.11 0.33-0.669-0.028-0.755-0.395-0.071-0.802-0.018-1.201-0.035z"></path>
<path fill="#040404" d="M10.805 3.026c0.811 0.002 1.623-0.002 2.434 0.002-0.001 0.198-0.001 0.396-0.001 0.594-0.608 0.001-1.216 0.001-1.824 0 0 0.206 0 0.412 0 0.618 0.331-0.001 0.662-0.001 0.993-0.001 0 0.203 0 0.405 0 0.608-0.331 0.001-0.661 0.001-0.992-0.001-0.002 0.304-0.002 0.607 0 0.91 0.628-0.001 1.256-0.001 1.883 0 0 0.199 0 0.397-0.001 0.595-0.831 0.001-1.662 0.001-2.493 0.001-0.001-1.109-0.002-2.217 0.001-3.326z"></path>
<path fill="#040404" d="M13.96 3.026c0.811 0 1.622 0 2.433 0 0.001 0.199 0.001 0.397 0.002 0.596-0.609 0.001-1.217 0-1.825 0.001 0 0.205 0 0.41 0 0.616 0.331 0 0.662 0 0.993 0 0 0.203 0 0.405 0 0.608-0.331 0-0.662 0-0.993 0.001 0 0.302 0 0.604-0.001 0.906 0.628 0.003 1.255 0 1.883 0.002 0 0.198 0 0.396 0.001 0.594-0.831 0.003-1.663 0.003-2.494 0 0.001-1.108-0.001-2.216 0.001-3.324z"></path>
<path fill="#040404" d="M17.115 3.025c0.661 0.039 1.403-0.136 1.986 0.266 0.969 0.606 0.942 2.264-0.054 2.833-0.583 0.352-1.29 0.186-1.933 0.223 0.001-1.108-0.002-2.215 0.001-3.322M17.721 3.619c-0.001 0.711 0.001 1.421-0.001 2.132 0.316-0.008 0.657 0.054 0.948-0.105 0.665-0.312 0.728-1.35 0.19-1.806-0.319-0.263-0.752-0.22-1.137-0.221z"></path>
<path fill="#040404" d="M5.92 8.012c0.199-0.001 0.399-0.001 0.598-0.002 0.001 0.937 0 1.874 0.001 2.811 0.631 0 1.262-0.001 1.893 0 0 0.171 0 0.343 0.001 0.515-0.831 0-1.662 0.001-2.493 0 0-1.108 0-2.216 0-3.324z"></path>
<path fill="#040404" d="M8.977 8.011c0.2 0 0.399 0 0.599 0.001 0.001 1.108 0 2.216 0.001 3.324-0.2 0-0.4 0-0.6 0-0.001-1.108-0.001-2.217 0-3.325z"></path>
<path fill="#040404" d="M10.436 8.009c0.119-0.003 0.238-0.006 0.357-0.009 0.003 0.050 0.008 0.15 0.010 0.2 0.079 0 0.237 0 0.316 0 0.293 0.592 0.584 1.185 0.875 1.779 0.302-0.586 0.571-1.189 0.891-1.764 0.053-0.007 0.16-0.021 0.213-0.028 0.002-0.046 0.006-0.139 0.008-0.185 0.152 0.002 0.305 0.004 0.457 0.006-0.003 1.109 0.003 2.218-0.003 3.327-0.194-0.001-0.389-0.001-0.583-0.002-0.001-0.671 0.001-1.342-0.001-2.014-0.346 0.659-0.636 1.346-0.989 2.001-0.323-0.666-0.631-1.34-0.963-2.001-0.001 0.671 0 1.343-0.001 2.014-0.194 0.001-0.389 0.001-0.583 0.002-0.006-1.109 0-2.217-0.004-3.326z"></path>
<path fill="#040404" d="M14.424 8.012c0.199-0.001 0.399-0.001 0.599-0.001 0.001 1.108 0.001 2.216 0 3.325-0.2 0-0.399 0-0.598 0.001-0.003-1.109-0.001-2.217-0.001-3.325z"></path>
<path fill="#040404" d="M15.587 8.011c0.831 0 1.662-0.002 2.493 0.001-0.001 0.194-0.001 0.389 0 0.584-0.319 0.001-0.637 0.001-0.956 0.001 0 0.913 0.001 1.826 0 2.739-0.194 0-0.388 0-0.581 0.001-0.005-0.913-0.001-1.826-0.003-2.739-0.317-0.001-0.635-0.001-0.952-0.001-0.001-0.195-0.001-0.391-0.001-0.586z"></path>
<path fill="#040404" d="M9.348 13.792c1.779 0.003 3.559 0 5.338 0.002-0.009 0.466-0.019 0.933-0.028 1.399-1.32 0.004-2.64 0.001-3.96 0.002-0.029 0.382-0.057 0.764-0.085 1.146 1.126-0.264 2.411-0.335 3.418 0.33 1.055 0.65 1.529 2.048 1.138 3.216-0.305 0.97-1.197 1.665-2.166 1.894-1.418 0.338-2.936-0.007-4.163-0.764 0.253-0.4 0.506-0.799 0.759-1.198 0.896 0.509 1.963 0.759 2.986 0.57 0.439-0.082 0.892-0.295 1.118-0.699 0.397-0.687 0.055-1.708-0.716-1.953-0.81-0.264-1.681-0.105-2.467 0.161-0.479-0.092-0.947-0.237-1.422-0.345 0.033-0.58 0.073-1.16 0.115-1.739 0.020-0.041 0.060-0.122 0.080-0.163 0.015-0.62-0.010-1.241 0.055-1.859z"></path>
<path fill="#fff" d="M3.015 0.109c0.26-0.038 0.525-0.019 0.787-0.023 5.632 0.001 11.264 0 16.896 0.001 0.445-0.019 0.893 0.243 1.086 0.646 0.173 0.292 0.121 0.641 0.129 0.963-0.002 7.003 0.001 14.005-0.001 21.008 0.017 0.443-0.244 0.887-0.645 1.078-0.293 0.178-0.644 0.119-0.969 0.127-5.702-0.002-11.404 0.001-17.106-0.001-0.613-0.015-1.139-0.594-1.104-1.205-0.001-7.135-0.001-14.27 0-21.406-0.033-0.555 0.39-1.071 0.927-1.188M2.929 0.443c-0.38 0.145-0.594 0.561-0.561 0.957 0.001 7.066 0.001 14.132 0 21.199-0.023 0.347 0.127 0.716 0.436 0.895 0.267 0.171 0.595 0.128 0.895 0.134 5.669-0.004 11.338 0.002 17.006-0.003 0.503 0.025 0.947-0.43 0.924-0.931 0.004-7.13 0.004-14.26 0-21.391 0.029-0.549-0.495-0.992-1.029-0.937-5.734 0-11.468 0-17.202 0.001-0.158 0.005-0.321 0.013-0.469 0.076z"></path>
<path fill="#fff" d="M3.039 0.946c0.136-0.094 0.308-0.073 0.464-0.080 5.467 0.004 10.934 0 16.401 0.002 0.299 0.004 0.599-0.017 0.897 0.014 0.245 0.032 0.357 0.296 0.331 0.517-0.001 7.067 0 14.133 0 21.199 0.041 0.258-0.138 0.552-0.425 0.526-5.802 0.003-11.605 0.002-17.407 0-0.238 0.024-0.45-0.191-0.429-0.428-0.007-7.097 0-14.195-0.004-21.292-0.008-0.167 0.023-0.358 0.172-0.458M4.715 3.212c-0.453 0.286-0.499 1.013-0.071 1.342 0.449 0.329 1.063 0.28 1.531 0.569 0.201 0.152 0.102 0.464-0.108 0.552-0.47 0.24-1.065 0.096-1.402-0.301-0.159 0.124-0.319 0.249-0.478 0.373 0.558 0.685 1.661 0.865 2.37 0.316 0.477-0.341 0.411-1.136-0.060-1.452-0.433-0.272-0.975-0.256-1.427-0.482-0.191-0.105-0.129-0.418 0.066-0.485 0.395-0.154 0.853-0.027 1.159 0.253 0.149-0.133 0.298-0.267 0.446-0.402-0.519-0.509-1.398-0.69-2.026-0.283M7.548 3.027c0.001 1.107-0.001 2.214 0.001 3.321 0.202-0.001 0.404-0.001 0.606-0.001 0.001-0.435 0-0.87 0-1.306 0.414-0.009 0.829 0.020 1.242-0.016 0.565-0.059 0.963-0.689 0.813-1.229-0.097-0.424-0.5-0.741-0.931-0.761-0.577-0.022-1.154-0.005-1.731-0.008M10.805 3.026c-0.003 1.109-0.002 2.217-0.001 3.326 0.831 0 1.662 0 2.493-0.001 0.001-0.198 0.001-0.396 0.001-0.595-0.627-0.001-1.255-0.001-1.883 0-0.002-0.303-0.002-0.606 0-0.91 0.331 0.002 0.661 0.002 0.992 0.001 0-0.203 0-0.405 0-0.608-0.331 0-0.662 0-0.993 0.001 0-0.206 0-0.412 0-0.618 0.608 0.001 1.216 0.001 1.824 0 0-0.198 0-0.396 0.001-0.594-0.811-0.004-1.623 0-2.434-0.002M13.96 3.026c-0.002 1.108 0 2.216-0.001 3.324 0.831 0.003 1.663 0.003 2.494 0-0.001-0.198-0.001-0.396-0.001-0.594-0.628-0.002-1.255 0.001-1.883-0.002 0.001-0.302 0.001-0.604 0.001-0.906 0.331-0.001 0.662-0.001 0.993-0.001 0-0.203 0-0.405 0-0.608-0.331 0-0.662 0-0.993 0 0-0.206 0-0.411 0-0.616 0.608-0.001 1.216 0 1.825-0.001-0.001-0.199-0.001-0.397-0.002-0.596-0.811 0-1.622 0-2.433 0M17.115 3.025c-0.003 1.107 0 2.214-0.001 3.322 0.643-0.037 1.35 0.129 1.933-0.223 0.996-0.569 1.023-2.227 0.054-2.833-0.583-0.402-1.325-0.227-1.986-0.266M5.92 8.012c0 1.108 0 2.216 0 3.324 0.831 0.001 1.662 0 2.493 0-0.001-0.172-0.001-0.344-0.001-0.515-0.631-0.001-1.262 0-1.893 0-0.001-0.937 0-1.874-0.001-2.811-0.199 0.001-0.399 0.001-0.598 0.002M8.977 8.011c-0.001 1.108-0.001 2.217 0 3.325 0.2 0 0.4 0 0.6 0-0.001-1.108 0-2.216-0.001-3.324-0.2-0.001-0.399-0.001-0.599-0.001M10.436 8.009c0.004 1.109-0.002 2.217 0.004 3.326 0.194-0.001 0.389-0.001 0.583-0.002 0.001-0.671 0-1.343 0.001-2.014 0.332 0.661 0.64 1.335 0.963 2.001 0.353-0.655 0.643-1.342 0.989-2.001 0.002 0.672 0 1.343 0.001 2.014 0.194 0.001 0.389 0.001 0.583 0.002 0.006-1.109 0-2.218 0.003-3.327-0.152-0.002-0.305-0.004-0.457-0.006-0.002 0.046-0.006 0.139-0.008 0.185-0.053 0.007-0.16 0.021-0.213 0.028-0.32 0.575-0.589 1.178-0.891 1.764-0.291-0.594-0.582-1.187-0.875-1.779-0.079 0-0.237 0-0.316 0-0.002-0.050-0.007-0.15-0.010-0.2-0.119 0.003-0.238 0.006-0.357 0.009M14.424 8.012c0 1.108-0.002 2.216 0.001 3.325 0.199-0.001 0.398-0.001 0.598-0.001 0.001-1.109 0.001-2.217 0-3.325-0.2 0-0.4 0-0.599 0.001M15.587 8.011c0 0.195 0 0.391 0.001 0.586 0.317 0 0.635 0 0.952 0.001 0.002 0.913-0.002 1.826 0.003 2.739 0.193-0.001 0.387-0.001 0.581-0.001 0.001-0.913 0-1.826 0-2.739 0.319 0 0.637 0 0.956-0.001-0.001-0.195-0.001-0.39 0-0.584-0.831-0.003-1.662-0.001-2.493-0.001M9.348 13.792c-0.065 0.618-0.040 1.239-0.055 1.859-0.020 0.041-0.060 0.122-0.080 0.163-0.042 0.579-0.082 1.159-0.115 1.739 0.475 0.108 0.943 0.253 1.422 0.345 0.786-0.266 1.657-0.425 2.467-0.161 0.771 0.245 1.113 1.266 0.716 1.953-0.226 0.404-0.679 0.617-1.118 0.699-1.023 0.189-2.090-0.061-2.986-0.57-0.253 0.399-0.506 0.798-0.759 1.198 1.227 0.757 2.745 1.102 4.163 0.764 0.969-0.229 1.861-0.924 2.166-1.894 0.391-1.168-0.083-2.566-1.138-3.216-1.007-0.665-2.292-0.594-3.418-0.33 0.028-0.382 0.056-0.764 0.085-1.146 1.32-0.001 2.64 0.002 3.96-0.002 0.009-0.466 0.019-0.933 0.028-1.399-1.779-0.002-3.559 0.001-5.338-0.002z"></path>
<path fill="#fff" d="M8.158 3.619c0.399 0.017 0.806-0.036 1.201 0.035 0.358 0.086 0.384 0.645 0.028 0.755-0.403 0.082-0.822 0.017-1.231 0.036-0.001-0.275-0.001-0.551 0.002-0.826z"></path>
<path fill="#fff" d="M17.721 3.619c0.385 0.001 0.818-0.042 1.137 0.221 0.538 0.456 0.475 1.494-0.19 1.806-0.291 0.159-0.632 0.097-0.948 0.105 0.002-0.711 0-1.421 0.001-2.132z"></path>
</svg>
