<svg xmlns="http://www.w3.org/2000/svg" width="24" height="24">
    <path fill="#da251d" d="M10.508 0h2.995c2.625.414 5.141 1.58 7.024 3.474 1.893 1.883 3.066 4.399 3.474 7.026v3.011c-.412 2.622-1.582 5.134-3.474 7.015-1.884 1.896-4.406 3.064-7.033 3.474h-2.996c-4.203-.586-8.046-3.414-9.626-7.385C.43 15.622.221 14.552 0 13.494v-2.996c.414-2.625 1.58-5.141 3.474-7.024C5.36 1.58 7.88.409 10.508 0zM5.604 3.726c.698.763 1.436 1.489 2.164 2.224.554.583 1.12 1.158 1.697 1.718 1.551 1.582 3.097 3.17 4.656 4.744.784.798 1.531 1.642 2.385 2.367v.068c1.194 1.209 2.389 2.417 3.572 3.636 2.05-2.469 2.823-5.93 1.998-9.034-.696-2.754-2.611-5.151-5.104-6.499C13.45.998 8.83 1.312 5.605 3.727zM3.743 5.493C2.224 7.34 1.348 9.727 1.42 12.127c-.028 3.567 2.059 7 5.133 8.765 3.529 2.103 8.279 1.874 11.579-.576-.54-.555-1.075-1.114-1.625-1.66-.8-.788-1.505-1.675-2.371-2.395v-.074c-1.568-1.586-3.094-3.211-4.658-4.8-.788-.781-1.519-1.623-2.35-2.358C6.089 7.786 4.867 6.67 3.744 5.492z"/>
    <path fill="#fff" d="M5.604 3.726c3.225-2.415 7.845-2.729 11.367-.777 2.493 1.348 4.408 3.746 5.104 6.499.825 3.105.052 6.566-1.998 9.034-1.183-1.219-2.378-2.427-3.572-3.636v-.068c.006-2.118.017-4.236.011-6.354-.026-2.122-1.706-4.037-3.772-4.434-1.856-.414-3.901.389-4.976 1.958-.728-.735-1.466-1.46-2.164-2.224zM3.743 5.493C4.866 6.671 6.088 7.787 7.127 9.03c-.001 1.526-.02 3.051-.037 4.578-.679 0-1.357-.003-2.036.003 1.04 1.864 2.101 3.716 3.148 5.575 1.075-1.852 2.111-3.728 3.161-5.594-.628-.01-1.256-.008-1.884-.006-.003-.733-.001-1.464-.001-2.197 1.564 1.589 3.091 3.214 4.658 4.8v.074c-.003 1.254.003 2.506.005 3.76.786.006 1.573.006 2.359 0l.006-1.365c.55.545 1.085 1.104 1.625 1.66-3.3 2.45-8.05 2.678-11.579.576-3.074-1.766-5.161-5.198-5.133-8.765-.071-2.4.804-4.787 2.323-6.634z"/>
    <path fill="#fff" d="M9.465 7.669c.446-.996 1.579-1.621 2.658-1.412 1.089.161 2.057 1.157 1.997 2.289-.005 1.289.006 2.577.001 3.867-1.559-1.574-3.105-3.162-4.656-4.744z"/>
    <path fill="#211c19" d="M7.768 5.95c1.075-1.569 3.12-2.372 4.976-1.958 2.067.397 3.747 2.312 3.772 4.434.005 2.118-.005 4.236-.011 6.354-.854-.725-1.601-1.569-2.385-2.367.005-1.289-.006-2.577-.001-3.867.06-1.132-.908-2.128-1.997-2.289-1.079-.209-2.212.416-2.658 1.412a59.766 59.766 0 0 1-1.697-1.718z"/>
    <path fill="#1f1a17" d="M7.127 9.031c.831.735 1.563 1.577 2.35 2.358 0 .733-.001 1.464.001 2.197.628-.001 1.256-.004 1.884.006-1.049 1.866-2.086 3.742-3.161 5.594-1.047-1.859-2.108-3.711-3.148-5.575.679-.005 1.357-.003 2.036-.003.017-1.527.036-3.052.037-4.578zM14.136 16.263c.866.72 1.57 1.607 2.371 2.395-.004.454-.005.91-.006 1.365-.786.006-1.573.006-2.359 0-.003-1.254-.008-2.506-.005-3.76z"/>
</svg>
