<svg xmlns="http://www.w3.org/2000/svg" width="24" height="24">
    <path fill="#035ca1" d="M0 0h24.13v24h-9.408c.005-3.35-.012-6.699.009-10.049 1.443-.01 2.886.008 4.33-.009-2.335-3.992-4.69-7.974-7.031-11.964a1750.267 1750.267 0 0 0-7.04 11.966c1.545.016 3.091-.009 4.637.012.013 3.347.001 6.695.005 10.044H.221c.025-.175-.049-.252-.221-.232V0z"/>
    <path fill="#fff" d="M4.989 13.945c2.333-3.997 4.677-7.987 7.04-11.966 2.342 3.989 4.696 7.972 7.031 11.964-1.444.017-2.888-.001-4.33.009-.021 3.35-.004 6.699-.009 10.049H9.63c-.004-3.348.008-6.697-.005-10.044-1.545-.021-3.091.004-4.637-.012z"/>
    <path fill="#bed7e9" d="M0 23.768c.171-.019.245.057.221.232H0v-.232z"/>
</svg>
