<?xml version="1.0" encoding="utf-8"?>
<!-- Generated by IcoMoon.io -->
<!DOCTYPE svg PUBLIC "-//W3C//DTD SVG 1.1//EN" "http://www.w3.org/Graphics/SVG/1.1/DTD/svg11.dtd">
<svg version="1.1" xmlns="http://www.w3.org/2000/svg" xmlns:xlink="http://www.w3.org/1999/xlink" width="24" height="24" viewBox="0 0 24 24">
<path fill="#1a1919" d="M2.419 0.374c0.186-0.171 0.42-0.318 0.681-0.323 5.844-0.034 11.689-0.009 17.534-0.011 0.158-0.005 0.316-0.005 0.474 0.017 0.006 0.002 0.019 0.007 0.026 0.009 0.405 0.214 0.803 0.558 0.866 1.038v21.896c-0.067 0.439-0.409 0.792-0.787 0.998h-18.427c-0.376-0.208-0.718-0.558-0.785-0.998v-21.923c0.045-0.278 0.22-0.515 0.419-0.705M3.117 0.166c-0.573 0.078-1.031 0.63-1.038 1.202 0.002 7.141-0.001 14.283 0.001 21.424 0.026 0.504 0.394 0.971 0.873 1.126 0.307 0.082 0.626 0.057 0.941 0.061 5.562 0 11.125 0.001 16.687 0 0.213-0.011 0.438-0.024 0.63-0.127 0.397-0.195 0.69-0.616 0.712-1.061 0.001-7.156 0.001-14.313 0-21.469-0.006-0.31-0.172-0.592-0.375-0.817-0.251-0.26-0.614-0.374-0.969-0.366-5.72 0.001-11.44 0-17.159 0-0.101 0.002-0.201 0.013-0.301 0.028z"></path>
<path fill="#1a1919" d="M3.326 0.426c0.189-0.021 0.379-0.008 0.569-0.011 5.385 0 10.769 0 16.154 0 0.301 0.004 0.608-0.023 0.901 0.063 0.403 0.15 0.705 0.564 0.696 0.997-0.002 7.071 0 14.142-0.001 21.213-0.012 0.418-0.311 0.813-0.705 0.951-0.202 0.061-0.414 0.065-0.623 0.062-5.632-0.003-11.264 0.003-16.896-0.003-0.552 0.017-1.053-0.463-1.065-1.012-0.001-7.072 0.001-14.144-0.001-21.216-0.008-0.525 0.438-1.026 0.971-1.045M3.383 0.956c-0.162 0.011-0.321 0.092-0.406 0.234-0.118 0.158-0.084 0.364-0.087 0.548 0.001 6.965-0.001 13.931 0.001 20.896-0.012 0.306 0.279 0.562 0.58 0.534 5.597 0.001 11.194 0 16.792 0 0.141-0.001 0.284 0.008 0.424-0.014 0.242-0.039 0.434-0.274 0.426-0.519 0.001-6.966 0-13.933 0.001-20.899-0.001-0.196 0.028-0.418-0.111-0.579-0.115-0.17-0.333-0.212-0.525-0.211-5.652 0.002-11.303 0.002-16.954 0.001-0.035 0.002-0.105 0.006-0.141 0.008z"></path>
<path fill="#1a1919" d="M11.132 3.981c0.235-0.106 0.541 0.018 0.631 0.26 0.081 0.166 0.030 0.361-0.069 0.507-0.28 0.436-0.558 0.873-0.837 1.31 0.98 0.249 1.978 0.505 2.857 1.022 0.751 0.512 1.476 1.092 1.996 1.846 0.583 0.807 1.045 1.722 1.223 2.708 0.089 0.519 0.147 1.045 0.159 1.572 0.005 0.95 0.009 1.901 0.013 2.851-0.809 0-1.618 0-2.427 0-0.001-1.054 0.001-2.107-0.001-3.161-0.023-0.977-0.422-1.908-0.976-2.7-0.324-0.461-0.768-0.82-1.225-1.143-0.665-0.407-1.441-0.557-2.184-0.755 0.021 0.481 0.042 0.961 0.065 1.441 0.017 0.189-0.077 0.377-0.226 0.491-0.188 0.108-0.442 0.074-0.605-0.062-1.223-1.443-2.449-2.883-3.673-4.325 1.76-0.621 3.519-1.243 5.281-1.862z"></path>
<path fill="#1a1919" d="M6.959 17.324c0.311-0.031 0.656 0.025 0.894 0.243 0.142 0.124 0.274 0.266 0.349 0.442 0.194 0.443 0.287 0.927 0.281 1.411 0.030 0.583-0.156 1.163-0.474 1.647-0.284 0.368-0.788 0.448-1.223 0.375-0.246-0.024-0.468-0.153-0.633-0.334-0.214-0.201-0.298-0.492-0.388-0.762-0.229-0.794-0.192-1.685 0.211-2.418 0.163-0.381 0.578-0.603 0.982-0.604M6.752 18.025c-0.229 0.152-0.335 0.426-0.394 0.685-0.14 0.611-0.118 1.286 0.188 1.844 0.177 0.286 0.577 0.322 0.858 0.181 0.148-0.134 0.261-0.307 0.313-0.501 0.163-0.549 0.191-1.155-0.003-1.701-0.056-0.152-0.109-0.318-0.238-0.425-0.193-0.179-0.492-0.173-0.724-0.083z"></path>
<path fill="#1a1919" d="M9.354 17.381c0.211-0.001 0.423 0 0.634-0.001 0.489 0.855 0.978 1.711 1.467 2.567-0.001-0.855 0-1.711 0-2.566 0.211-0.001 0.423-0.001 0.634 0-0.001 1.339 0 2.678-0.001 4.018-0.187 0-0.375-0.001-0.563 0-0.513-0.906-1.023-1.813-1.537-2.718-0.002 0.906 0.001 1.812-0.001 2.718-0.211-0.001-0.422 0-0.634-0.001 0-1.339 0-2.678 0-4.017z"></path>
<path fill="#1a1919" d="M13.034 17.381c0.212-0.001 0.423-0.001 0.634 0 0 1.142-0.001 2.284 0 3.425 0.621 0.001 1.241 0 1.861 0.001 0 0.197 0 0.394 0 0.592-0.832 0-1.663 0-2.495-0.001 0-1.339 0-2.678 0-4.017z"></path>
<path fill="#1a1919" d="M14.994 17.381c0.254 0 0.507 0 0.761 0.001 0.319 0.517 0.639 1.034 0.959 1.551 0.325-0.517 0.648-1.035 0.974-1.551 0.248 0.001 0.497 0 0.745 0.001-0.46 0.758-0.936 1.507-1.388 2.27-0.016 0.582-0.001 1.165-0.007 1.748-0.212-0.001-0.423 0-0.634-0.001 0-0.555-0.001-1.109 0.001-1.665 0.009-0.107-0.071-0.189-0.119-0.276-0.432-0.692-0.861-1.384-1.291-2.077z"></path>
<path fill="#9d9d9c" d="M21.107 0.058l0.014 0.001 0.012 0.008c-0.007-0.002-0.020-0.007-0.026-0.009z"></path>
<path fill="#fffffe" d="M3.117 0.166c0.099-0.015 0.2-0.026 0.301-0.028 5.719 0 11.439 0.001 17.159 0 0.356-0.007 0.718 0.106 0.969 0.366 0.203 0.225 0.369 0.507 0.375 0.817 0.001 7.156 0.001 14.313 0 21.469-0.022 0.445-0.314 0.865-0.712 1.061-0.192 0.104-0.417 0.117-0.63 0.127-5.563 0.001-11.125 0-16.687 0-0.314-0.003-0.634 0.021-0.941-0.061-0.478-0.156-0.847-0.623-0.873-1.126-0.002-7.141 0.001-14.283-0.001-21.424 0.007-0.572 0.466-1.123 1.038-1.202M3.326 0.426c-0.532 0.018-0.979 0.52-0.971 1.045 0.002 7.072 0 14.144 0.001 21.216 0.013 0.549 0.514 1.028 1.065 1.012 5.632 0.005 11.264-0.001 16.896 0.003 0.208 0.003 0.421-0.001 0.623-0.062 0.394-0.138 0.693-0.533 0.705-0.951 0.001-7.071-0.001-14.142 0.001-21.213 0.009-0.434-0.293-0.847-0.696-0.997-0.293-0.086-0.601-0.059-0.901-0.063-5.385 0-10.769 0-16.154 0-0.189 0.003-0.38-0.010-0.569 0.011z"></path>
<path fill="#fffffe" d="M3.383 0.956c0.035-0.002 0.105-0.006 0.141-0.008 5.652 0.001 11.303 0.001 16.954-0.001 0.192-0.002 0.409 0.041 0.525 0.211 0.139 0.161 0.11 0.383 0.111 0.579-0.001 6.966 0.001 13.933-0.001 20.899 0.007 0.245-0.184 0.479-0.426 0.519-0.141 0.022-0.283 0.013-0.424 0.014-5.597 0-11.194 0.001-16.792 0-0.301 0.027-0.592-0.228-0.58-0.534-0.001-6.965 0-13.931-0.001-20.896 0.004-0.184-0.031-0.389 0.087-0.548 0.085-0.142 0.244-0.223 0.406-0.234M11.132 3.981c-1.761 0.619-3.521 1.242-5.281 1.862 1.224 1.442 2.45 2.882 3.673 4.325 0.163 0.136 0.416 0.17 0.605 0.062 0.149-0.114 0.244-0.302 0.226-0.491-0.023-0.48-0.044-0.96-0.065-1.441 0.744 0.197 1.519 0.347 2.184 0.755 0.457 0.323 0.901 0.682 1.225 1.143 0.554 0.792 0.953 1.723 0.976 2.7 0.001 1.053-0.001 2.107 0.001 3.161 0.809 0 1.618 0 2.427 0-0.004-0.95-0.008-1.901-0.013-2.851-0.012-0.527-0.069-1.053-0.159-1.572-0.178-0.986-0.64-1.901-1.223-2.708-0.52-0.754-1.246-1.335-1.996-1.846-0.879-0.517-1.877-0.772-2.857-1.022 0.279-0.437 0.557-0.874 0.837-1.31 0.099-0.146 0.149-0.341 0.069-0.507-0.091-0.242-0.396-0.366-0.631-0.26M6.959 17.324c-0.404 0.001-0.819 0.223-0.982 0.604-0.402 0.734-0.439 1.625-0.211 2.418 0.089 0.27 0.174 0.561 0.388 0.762 0.164 0.181 0.387 0.31 0.633 0.334 0.435 0.073 0.938-0.007 1.223-0.375 0.318-0.484 0.504-1.065 0.474-1.647 0.007-0.483-0.087-0.967-0.281-1.411-0.075-0.175-0.208-0.317-0.349-0.442-0.238-0.218-0.583-0.274-0.894-0.243M9.354 17.381c0 1.339 0 2.678 0 4.017 0.212 0.001 0.423 0 0.634 0.001 0.002-0.906-0.001-1.812 0.001-2.718 0.514 0.905 1.024 1.813 1.537 2.718 0.187-0.001 0.375 0 0.563 0 0.001-1.339 0-2.679 0.001-4.018-0.212-0.001-0.423-0.001-0.634 0 0 0.855-0.001 1.711 0 2.566-0.488-0.856-0.977-1.712-1.467-2.567-0.211 0.001-0.423 0-0.634 0.001M13.034 17.381c0 1.339 0 2.678 0 4.017 0.832 0.001 1.663 0.001 2.495 0.001 0-0.198 0-0.395 0-0.592-0.62-0.001-1.24 0-1.861-0.001-0.001-1.142 0-2.284 0-3.425-0.212-0.001-0.423-0.001-0.634 0M14.994 17.381c0.429 0.693 0.859 1.386 1.291 2.077 0.049 0.086 0.129 0.168 0.119 0.276-0.002 0.555-0.001 1.11-0.001 1.665 0.211 0.001 0.422 0 0.634 0.001 0.006-0.583-0.009-1.166 0.007-1.748 0.452-0.763 0.928-1.512 1.388-2.27-0.248-0.001-0.497 0-0.745-0.001-0.326 0.516-0.649 1.034-0.974 1.551-0.32-0.517-0.639-1.034-0.959-1.551-0.254-0.001-0.507-0.001-0.761-0.001z"></path>
<path fill="#fffffe" d="M6.752 18.025c0.233-0.091 0.531-0.096 0.724 0.083 0.129 0.107 0.183 0.273 0.238 0.425 0.194 0.545 0.165 1.151 0.003 1.701-0.052 0.194-0.165 0.367-0.313 0.501-0.281 0.141-0.681 0.106-0.858-0.181-0.307-0.558-0.328-1.234-0.188-1.844 0.058-0.258 0.165-0.533 0.394-0.685z"></path>
</svg>
