<?xml version="1.0" encoding="utf-8"?>
<!-- Generated by IcoMoon.io -->
<!DOCTYPE svg PUBLIC "-//W3C//DTD SVG 1.1//EN" "http://www.w3.org/Graphics/SVG/1.1/DTD/svg11.dtd">
<svg version="1.1" xmlns="http://www.w3.org/2000/svg" xmlns:xlink="http://www.w3.org/1999/xlink" width="24" height="24" viewBox="0 0 24 24">
<path fill="#000" opacity="0.98" d="M0 0h24v24h-24v-24M1.418 0.119c-0.734 0.054-1.345 0.734-1.306 1.471 0.002 6.973-0.004 13.945 0.003 20.917 0.006 0.733 0.659 1.367 1.386 1.378 6.97 0.004 13.94 0 20.91 0.002 0.757 0.033 1.469-0.614 1.474-1.38 0.005-7.004 0.005-14.008 0.001-21.011-0.004-0.769-0.72-1.42-1.481-1.383-6.996 0.005-13.992-0.008-20.987 0.006z"></path>
<path fill="#000" opacity="0.98" d="M1.519 0.432c6.96-0.011 13.919-0.004 20.879-0.004 0.637-0.037 1.211 0.534 1.172 1.171 0.001 6.935 0.001 13.869 0 20.804 0.038 0.638-0.538 1.206-1.175 1.169-6.93 0.002-13.861 0.002-20.792 0-0.609 0.033-1.179-0.488-1.171-1.104-0.006-6.954-0.001-13.909-0.002-20.863-0.039-0.606 0.479-1.173 1.089-1.173M1.315 1.11c-0.179 0.086-0.276 0.289-0.262 0.484-0.001 6.935 0 13.871 0 20.806-0.037 0.303 0.24 0.583 0.544 0.546 6.935 0.001 13.87 0.001 20.805 0 0.303 0.036 0.58-0.242 0.545-0.545 0-6.932 0-13.865 0-20.798 0.037-0.303-0.238-0.587-0.543-0.549-6.868-0.003-13.736 0.002-20.605-0.003-0.16 0.011-0.337-0.023-0.484 0.059z"></path>
<path fill="#000" opacity="0.98" d="M8.707 3.539c0.21 0.001 0.42 0.001 0.63 0.003 0.481 0.848 0.966 1.694 1.451 2.54-0.003-0.843 0.009-1.687-0.007-2.53 0.213-0.016 0.428-0.016 0.641-0.004-0.011 1.324-0.001 2.647-0.005 3.971-0.186 0.001-0.371 0.002-0.557 0.003-0.514-0.894-1.012-1.796-1.524-2.69-0.002 0.896 0 1.792-0.001 2.688-0.21 0-0.419 0-0.629 0 0-1.327-0.001-2.654 0.001-3.981z"></path>
<path fill="#000" opacity="0.98" d="M13.515 3.515c0.413-0.090 0.898-0.061 1.213 0.253 0.428 0.42 0.528 1.054 0.562 1.627 0.008 0.626-0.070 1.309-0.48 1.81-0.32 0.397-0.899 0.45-1.361 0.323-0.433-0.122-0.693-0.537-0.817-0.944-0.243-0.785-0.23-1.671 0.123-2.421 0.141-0.314 0.418-0.574 0.76-0.648M13.64 4.153c-0.301 0.138-0.404 0.492-0.472 0.788-0.096 0.567-0.090 1.19 0.188 1.706 0.209 0.407 0.885 0.401 1.068-0.027 0.314-0.642 0.313-1.431 0.055-2.092-0.112-0.337-0.515-0.508-0.839-0.375z"></path>
<path fill="#000" opacity="0.98" d="M4.929 10.007c0.191 0 0.382 0 0.573 0 0.248 0.745 0.493 1.491 0.743 2.236 0.248-0.746 0.494-1.491 0.742-2.236 0.191 0 0.382 0 0.572 0.001-0.001 1.328-0.001 2.656 0 3.984-0.19 0.001-0.38 0.001-0.571 0.001-0.002-0.746 0.005-1.491-0.004-2.237-0.244 0.745-0.492 1.489-0.739 2.232-0.24-0.739-0.506-1.469-0.719-2.216-0.041 0.739-0.011 1.481-0.020 2.221-0.193 0-0.385 0-0.577 0 0.001-1.329 0.001-2.657 0-3.986z"></path>
<path fill="#000" opacity="0.98" d="M9.037 10.053c0.406-0.201 0.99-0.155 1.264 0.241 0.298 0.44 0.391 0.983 0.401 1.505 0.014 0.629-0.017 1.3-0.364 1.846-0.347 0.576-1.332 0.555-1.644-0.045-0.378-0.662-0.362-1.457-0.31-2.194 0.061-0.495 0.199-1.073 0.653-1.353M9.335 10.54c-0.285 0.176-0.336 0.548-0.395 0.85-0.059 0.622-0.076 1.29 0.196 1.868 0.121 0.272 0.536 0.335 0.721 0.097 0.203-0.273 0.253-0.628 0.287-0.958 0.029-0.555 0.025-1.138-0.215-1.651-0.098-0.221-0.381-0.312-0.594-0.206z"></path>
<path fill="#000" opacity="0.98" d="M11.177 10.016c0.68-0.020 1.36-0.004 2.041-0.009-0.001 0.178-0.001 0.355-0.001 0.533-0.244-0.003-0.489-0.002-0.733 0.008 0.009 1.148 0.002 2.297 0.004 3.445-0.192 0-0.384 0-0.576 0-0.005-1.152 0.009-2.304-0.007-3.456-0.241 0.003-0.481 0.003-0.721 0.003-0.001-0.175-0.004-0.35-0.007-0.524z"></path>
<path fill="#000" opacity="0.98" d="M14.423 10.027c0.395-0.162 0.937-0.12 1.203 0.25 0.329 0.47 0.412 1.062 0.415 1.623 0.009 0.601-0.037 1.24-0.374 1.758-0.345 0.55-1.284 0.541-1.613-0.020-0.419-0.704-0.391-1.566-0.318-2.354 0.075-0.471 0.231-1.021 0.687-1.257M14.712 10.524c-0.264 0.108-0.333 0.423-0.399 0.671-0.11 0.603-0.104 1.239 0.063 1.832 0.057 0.243 0.241 0.507 0.524 0.474 0.371-0.021 0.464-0.456 0.534-0.749 0.096-0.644 0.108-1.334-0.141-1.946-0.080-0.233-0.346-0.379-0.581-0.282z"></path>
<path fill="#000" opacity="0.98" d="M16.84 10.008c0.505 0.017 1.017-0.048 1.516 0.047 0.88 0.213 0.973 1.643 0.147 1.99 0.187 0.65 0.379 1.299 0.568 1.949-0.195-0.001-0.391-0.001-0.586-0.001-0.176-0.624-0.354-1.248-0.529-1.872-0.181-0.001-0.363-0.001-0.544-0.001-0.001 0.624 0 1.249 0 1.873-0.191 0-0.381 0-0.571-0.001 0.001-1.328 0.001-2.656-0.001-3.984M17.413 10.567c-0.002 0.335-0.002 0.671-0.001 1.006 0.259-0.004 0.521 0.021 0.777-0.025 0.433-0.105 0.428-0.821 0.011-0.947-0.257-0.063-0.526-0.027-0.787-0.034z"></path>
<path fill="#000" opacity="0.98" d="M8.277 16.48c0.166 0 0.332 0 0.499-0.001 0.001 0.536 0 1.072 0.001 1.607 0.237 0.001 0.474 0.001 0.711 0.001 0-0.536 0-1.071 0.001-1.607 0.166 0 0.332 0 0.499 0 0.001 1.327 0 2.653 0 3.98-0.166-0.001-0.333-0.001-0.5 0 0-0.62 0-1.24 0.001-1.86-0.238 0-0.475 0-0.712 0-0.001 0.62 0 1.24-0.001 1.861-0.167-0.001-0.333-0.002-0.5-0.002 0.001-1.326 0-2.652 0.001-3.979z"></path>
<path fill="#000" opacity="0.98" d="M12.266 17.145c0.055-0.365 0.328-0.734 0.73-0.718 0.458-0.068 0.84 0.322 0.865 0.765-0.171 0.001-0.341 0.001-0.512 0-0.046-0.153-0.172-0.304-0.35-0.242-0.253 0.096-0.256 0.421-0.301 0.646-0.051 0.634-0.065 1.279 0.025 1.911 0.037 0.206 0.104 0.521 0.375 0.507 0.234-0.030 0.207-0.317 0.243-0.488 0.171 0 0.343 0.001 0.515 0.002-0.017 0.252-0.007 0.533-0.173 0.742-0.244 0.304-0.713 0.325-1.041 0.159-0.292-0.158-0.371-0.51-0.422-0.812-0.122-0.818-0.101-1.659 0.046-2.472z"></path>
<path fill="#000" opacity="0.98" d="M18.906 16.701c0.256-0.327 0.796-0.372 1.105-0.098 0.209 0.194 0.255 0.49 0.299 0.757-0.171 0-0.341 0-0.512-0.001-0.038-0.168-0.049-0.45-0.291-0.431-0.301 0.007-0.347 0.416-0.261 0.636 0.232 0.444 0.686 0.737 0.876 1.209 0.183 0.446 0.295 1.014-0.014 1.431-0.299 0.462-1.099 0.428-1.354-0.060-0.12-0.206-0.138-0.447-0.168-0.677 0.17 0 0.34 0 0.511 0 0.029 0.2 0.054 0.496 0.305 0.538 0.294 0.079 0.432-0.28 0.378-0.512-0.047-0.588-0.537-0.976-0.854-1.427-0.29-0.388-0.329-0.977-0.020-1.365z"></path>
<path fill="#000" opacity="0.98" d="M3.696 16.48c0.171 0 0.343 0 0.515 0 0.142 0.755 0.282 1.51 0.425 2.264 0.141-0.754 0.276-1.51 0.416-2.264 0.171 0 0.343 0 0.514 0-0.238 1.327-0.48 2.653-0.72 3.979-0.144 0-0.288 0.001-0.432 0.002-0.241-1.327-0.48-2.654-0.718-3.981z"></path>
<path fill="#000" opacity="0.98" d="M6.123 16.481c0.487-0.002 0.973-0.001 1.459-0.001 0 0.171 0 0.342 0.001 0.513-0.32 0-0.64 0-0.959 0-0.001 0.34-0.001 0.68 0 1.020 0.214 0 0.428 0 0.641 0.001 0 0.178-0.001 0.355-0.002 0.533-0.213 0-0.426-0.001-0.639-0.001-0.001 0.467 0 0.933-0.001 1.4 0.339 0.001 0.679 0.001 1.018 0.001 0 0.171 0 0.341 0 0.513-0.505 0-1.011-0.001-1.517 0-0.001-1.326 0-2.653-0.001-3.979z"></path>
<path fill="#000" opacity="0.98" d="M10.865 16.48c0.172 0 0.345 0 0.517 0 0 1.327 0.001 2.654 0 3.981-0.173-0.001-0.345-0.002-0.518-0.002 0.001-1.326 0-2.653 0.001-3.979z"></path>
<path fill="#000" opacity="0.98" d="M14.606 16.48c0.166 0 0.333 0 0.5 0 0 1.173 0 2.346 0 3.52 0.338 0 0.677 0 1.016 0 0 0.153 0.002 0.306 0.002 0.459-0.506 0.002-1.011 0-1.517 0.002-0.002-1.327-0.001-2.654-0.001-3.981z"></path>
<path fill="#000" opacity="0.98" d="M16.683 16.48c0.485 0 0.971 0 1.457 0 0 0.17 0.001 0.341 0.002 0.512-0.32 0.001-0.64 0.002-0.959 0.002-0.001 0.339-0.001 0.679 0 1.019 0.211 0 0.423 0 0.635 0.001-0.001 0.177-0.001 0.355-0.001 0.532-0.212 0-0.423 0.001-0.635 0.001 0 0.467 0 0.933 0.001 1.399 0.336 0.001 0.673 0.001 1.010 0 0 0.171 0 0.343 0 0.515-0.505-0.006-1.011 0.009-1.516-0.009 0.012-1.324 0.002-2.648 0.006-3.972z"></path>
<path fill="#fff" d="M1.418 0.119c6.995-0.014 13.991-0.001 20.987-0.006 0.761-0.037 1.477 0.614 1.481 1.383 0.004 7.003 0.004 14.007-0.001 21.011-0.005 0.766-0.717 1.413-1.474 1.38-6.97-0.002-13.94 0.002-20.91-0.002-0.727-0.011-1.38-0.645-1.386-1.378-0.007-6.972-0.001-13.944-0.003-20.917-0.039-0.737 0.572-1.417 1.306-1.471M1.519 0.432c-0.61 0-1.128 0.567-1.089 1.173 0.001 6.954-0.004 13.909 0.002 20.863-0.008 0.616 0.562 1.137 1.171 1.104 6.931 0.002 13.862 0.002 20.792 0 0.637 0.037 1.213-0.531 1.175-1.169 0.001-6.935 0.001-13.869 0-20.804 0.039-0.637-0.535-1.208-1.172-1.171-6.96 0-13.919-0.007-20.879 0.004z"></path>
<path fill="#fff" d="M1.315 1.11c0.147-0.082 0.324-0.048 0.484-0.059 6.869 0.005 13.737 0 20.605 0.003 0.305-0.038 0.58 0.246 0.543 0.549 0 6.933 0 13.866 0 20.798 0.035 0.303-0.242 0.581-0.545 0.545-6.935 0.001-13.87 0.001-20.805 0-0.304 0.037-0.581-0.243-0.544-0.546 0-6.935-0.001-13.871 0-20.806-0.014-0.195 0.083-0.398 0.262-0.484M8.707 3.539c-0.002 1.327-0.001 2.654-0.001 3.981 0.21 0 0.419 0 0.629 0 0.001-0.896-0.001-1.792 0.001-2.688 0.512 0.894 1.010 1.796 1.524 2.69 0.186-0.001 0.371-0.002 0.557-0.003 0.004-1.324-0.006-2.647 0.005-3.971-0.213-0.012-0.428-0.012-0.641 0.004 0.016 0.843 0.004 1.687 0.007 2.53-0.485-0.846-0.97-1.692-1.451-2.54-0.21-0.002-0.42-0.002-0.63-0.003M13.515 3.515c-0.342 0.074-0.619 0.334-0.76 0.648-0.353 0.75-0.366 1.636-0.123 2.421 0.124 0.407 0.384 0.822 0.817 0.944 0.462 0.127 1.041 0.074 1.361-0.323 0.41-0.501 0.488-1.184 0.48-1.81-0.034-0.573-0.134-1.207-0.562-1.627-0.315-0.314-0.8-0.343-1.213-0.253M4.929 10.007c0.001 1.329 0.001 2.657 0 3.986 0.192 0 0.384 0 0.577 0 0.009-0.74-0.021-1.482 0.020-2.221 0.213 0.747 0.479 1.477 0.719 2.216 0.247-0.743 0.495-1.487 0.739-2.232 0.009 0.746 0.002 1.491 0.004 2.237 0.191 0 0.381 0 0.571-0.001-0.001-1.328-0.001-2.656 0-3.984-0.19-0.001-0.381-0.001-0.572-0.001-0.248 0.745-0.494 1.49-0.742 2.236-0.25-0.745-0.495-1.491-0.743-2.236-0.191 0-0.382 0-0.573 0M9.037 10.053c-0.454 0.28-0.592 0.858-0.653 1.353-0.052 0.737-0.068 1.532 0.31 2.194 0.312 0.6 1.297 0.621 1.644 0.045 0.347-0.546 0.378-1.217 0.364-1.846-0.010-0.522-0.103-1.065-0.401-1.505-0.274-0.396-0.858-0.442-1.264-0.241M11.177 10.016c0.003 0.174 0.006 0.349 0.007 0.524 0.24 0 0.48 0 0.721-0.003 0.016 1.152 0.002 2.304 0.007 3.456 0.192 0 0.384 0 0.576 0-0.002-1.148 0.005-2.297-0.004-3.445 0.244-0.010 0.489-0.011 0.733-0.008 0-0.178 0-0.355 0.001-0.533-0.681 0.005-1.361-0.011-2.041 0.009M14.423 10.027c-0.456 0.236-0.612 0.786-0.687 1.257-0.073 0.788-0.101 1.65 0.318 2.354 0.329 0.561 1.268 0.57 1.613 0.020 0.337-0.518 0.383-1.157 0.374-1.758-0.003-0.561-0.086-1.153-0.415-1.623-0.266-0.37-0.808-0.412-1.203-0.25M16.84 10.008c0.002 1.328 0.002 2.656 0.001 3.984 0.19 0.001 0.38 0.001 0.571 0.001 0-0.624-0.001-1.249 0-1.873 0.181 0 0.363 0 0.544 0.001 0.175 0.624 0.353 1.248 0.529 1.872 0.195 0 0.391 0 0.586 0.001-0.189-0.65-0.381-1.299-0.568-1.949 0.826-0.347 0.733-1.777-0.147-1.99-0.499-0.095-1.011-0.030-1.516-0.047M8.277 16.48c-0.001 1.327 0 2.653-0.001 3.979 0.167 0 0.333 0.001 0.5 0.002 0.001-0.621 0-1.241 0.001-1.861 0.237 0 0.474 0 0.712 0-0.001 0.62-0.001 1.24-0.001 1.86 0.167-0.001 0.334-0.001 0.5 0 0-1.327 0.001-2.653 0-3.98-0.167 0-0.333 0-0.499 0-0.001 0.536-0.001 1.071-0.001 1.607-0.237 0-0.474 0-0.711-0.001-0.001-0.535 0-1.071-0.001-1.607-0.167 0.001-0.333 0.001-0.499 0.001M12.266 17.145c-0.147 0.813-0.168 1.654-0.046 2.472 0.051 0.302 0.13 0.654 0.422 0.812 0.328 0.166 0.797 0.145 1.041-0.159 0.166-0.209 0.156-0.49 0.173-0.742-0.172-0.001-0.344-0.002-0.515-0.002-0.036 0.171-0.009 0.458-0.243 0.488-0.271 0.014-0.338-0.301-0.375-0.507-0.090-0.632-0.076-1.277-0.025-1.911 0.045-0.225 0.048-0.55 0.301-0.646 0.178-0.062 0.304 0.089 0.35 0.242 0.171 0.001 0.341 0.001 0.512 0-0.025-0.443-0.407-0.833-0.865-0.765-0.402-0.016-0.675 0.353-0.73 0.718M18.906 16.701c-0.309 0.388-0.27 0.977 0.020 1.365 0.317 0.451 0.807 0.839 0.854 1.427 0.054 0.232-0.084 0.591-0.378 0.512-0.251-0.042-0.276-0.338-0.305-0.538-0.171 0-0.341 0-0.511 0 0.030 0.23 0.048 0.471 0.168 0.677 0.255 0.488 1.055 0.522 1.354 0.060 0.309-0.417 0.197-0.985 0.014-1.431-0.19-0.472-0.644-0.765-0.876-1.209-0.086-0.22-0.040-0.629 0.261-0.636 0.242-0.019 0.253 0.263 0.291 0.431 0.171 0.001 0.341 0.001 0.512 0.001-0.044-0.267-0.090-0.563-0.299-0.757-0.309-0.274-0.849-0.229-1.105 0.098M3.696 16.48c0.238 1.327 0.477 2.654 0.718 3.981 0.144-0.001 0.288-0.002 0.432-0.002 0.24-1.326 0.482-2.652 0.72-3.979-0.171 0-0.343 0-0.514 0-0.14 0.754-0.275 1.51-0.416 2.264-0.143-0.754-0.283-1.509-0.425-2.264-0.172 0-0.344 0-0.515 0M6.123 16.481c0.001 1.326 0 2.653 0.001 3.979 0.506-0.001 1.012 0 1.517 0 0-0.172 0-0.342 0-0.513-0.339 0-0.679 0-1.018-0.001 0.001-0.467 0-0.933 0.001-1.4 0.213 0 0.426 0.001 0.639 0.001 0.001-0.178 0.002-0.355 0.002-0.533-0.213-0.001-0.427-0.001-0.641-0.001-0.001-0.34-0.001-0.68 0-1.020 0.319 0 0.639 0 0.959 0-0.001-0.171-0.001-0.342-0.001-0.513-0.486 0-0.972-0.001-1.459 0.001M10.865 16.48c-0.001 1.326 0 2.653-0.001 3.979 0.173 0 0.345 0.001 0.518 0.002 0.001-1.327 0-2.654 0-3.981-0.172 0-0.345 0-0.517 0M14.606 16.48c0 1.327-0.001 2.654 0.001 3.981 0.506-0.002 1.011 0 1.517-0.002 0-0.153-0.002-0.306-0.002-0.459-0.339 0-0.678 0-1.016 0 0-1.174 0-2.347 0-3.52-0.167 0-0.334 0-0.5 0M16.683 16.48c-0.004 1.324 0.006 2.648-0.006 3.972 0.505 0.018 1.011 0.003 1.516 0.009 0-0.172 0-0.344 0-0.515-0.337 0.001-0.674 0.001-1.010 0-0.001-0.466-0.001-0.932-0.001-1.399 0.212 0 0.423-0.001 0.635-0.001 0-0.177 0-0.355 0.001-0.532-0.212-0.001-0.424-0.001-0.635-0.001-0.001-0.34-0.001-0.68 0-1.019 0.319 0 0.639-0.001 0.959-0.002-0.001-0.171-0.002-0.342-0.002-0.512-0.486 0-0.972 0-1.457 0z"></path>
<path fill="#fff" d="M13.64 4.153c0.324-0.133 0.727 0.038 0.839 0.375 0.258 0.661 0.259 1.45-0.055 2.092-0.183 0.428-0.859 0.434-1.068 0.027-0.278-0.516-0.284-1.139-0.188-1.706 0.068-0.296 0.171-0.65 0.472-0.788z"></path>
<path fill="#fff" d="M9.335 10.54c0.213-0.106 0.496-0.015 0.594 0.206 0.24 0.513 0.244 1.096 0.215 1.651-0.034 0.33-0.084 0.685-0.287 0.958-0.185 0.238-0.6 0.175-0.721-0.097-0.272-0.578-0.255-1.246-0.196-1.868 0.059-0.302 0.11-0.674 0.395-0.85z"></path>
<path fill="#fff" d="M14.712 10.524c0.235-0.097 0.501 0.049 0.581 0.282 0.249 0.612 0.237 1.302 0.141 1.946-0.070 0.293-0.163 0.728-0.534 0.749-0.283 0.033-0.467-0.231-0.524-0.474-0.167-0.593-0.173-1.229-0.063-1.832 0.066-0.248 0.135-0.563 0.399-0.671z"></path>
<path fill="#fff" d="M17.413 10.567c0.261 0.007 0.53-0.029 0.787 0.034 0.417 0.126 0.422 0.842-0.011 0.947-0.256 0.046-0.518 0.021-0.777 0.025-0.001-0.335-0.001-0.671 0.001-1.006z"></path>
</svg>
