<?xml version="1.0" encoding="utf-8"?>
<!-- Generated by IcoMoon.io -->
<!DOCTYPE svg PUBLIC "-//W3C//DTD SVG 1.1//EN" "http://www.w3.org/Graphics/SVG/1.1/DTD/svg11.dtd">
<svg version="1.1" xmlns="http://www.w3.org/2000/svg" xmlns:xlink="http://www.w3.org/1999/xlink" width="24" height="24" viewBox="0 0 24 24">
<path fill="#020202" d="M0 0.12h0.031c-0.007 0.001-0.023 0.002-0.031 0.004v-0.004z"></path>
<path fill="#020202" d="M23.783 0.12h0.217v0.112c-0.054-0.028-0.163-0.084-0.217-0.112z"></path>
<path fill="#020202" d="M7.252 5.876c0.277-0.145 0.595-0.492 0.92-0.262 0.307 0.306-0.023 0.727-0.077 1.074-0.265-0.287-0.538-0.568-0.844-0.812z"></path>
<path fill="#020202" d="M3.464 8.294c0.634-0.382 1.244-0.802 1.877-1.186 0.805 0.848 1.626 1.686 2.489 2.477l0.017 0.040c0.194 0.462 0.388 0.931 0.469 1.429-0.078 0.398-0.547 0.39-0.794 0.158-1.378-0.894-2.771-1.763-4.147-2.659 0.023-0.065 0.067-0.194 0.090-0.259z"></path>
<path fill="#020202" d="M8.776 7.38c1.154 0.025 2.308 0.004 3.461 0.011 0.934 0.012 1.898-0.086 2.79 0.254 1.787 0.586 3.073 2.359 3.119 4.232 0.014 1.621-0.006 3.244 0.010 4.865-0.701-0.73-1.41-1.453-2.15-2.142-0.034-0.985 0.052-1.976-0.046-2.958-0.191-1.512-1.97-2.567-3.38-1.937-0.365 0.097-0.617 0.539-1.022 0.444l-0.041-0.005c-0.859-0.971-1.81-1.861-2.74-2.765z"></path>
<path fill="#020202" d="M8.989 10.774c0.659 0.664 1.304 1.34 1.992 1.973 0.006 0.756-0.001 1.512 0.006 2.269 0.497-0.127 0.978-0.318 1.482-0.413 0.247-0.041 0.323 0.227 0.44 0.38-0.974 1.583-2.009 3.128-2.988 4.708-0.878-1.36-1.742-2.729-2.623-4.087-0.121-0.193-0.253-0.385-0.317-0.606-0.002-0.229 0.216-0.466 0.456-0.382 0.474 0.103 0.929 0.274 1.397 0.4 0.061-1.414-0.122-2.845 0.155-4.242z"></path>
<path fill="#020202" d="M16 17.746c0.55 0.638 1.188 1.19 1.757 1.81-0.061 0.035-0.185 0.104-0.246 0.138-0.506 0.029-1.013 0.010-1.518 0.016 0.014-0.654 0.007-1.309 0.007-1.963z"></path>
<path fill="#de0222" d="M10.741 0.69c2.356-0.232 4.787 0.224 6.853 1.397 3.007 1.651 5.195 4.714 5.765 8.099 0.188 0.956 0.161 1.937 0.132 2.906-0.203 2.75-1.457 5.408-3.44 7.324-2.144 2.119-5.158 3.347-8.176 3.281-2.256 0.012-4.498-0.708-6.362-1.969-2.054-1.379-3.644-3.439-4.451-5.779-0.696-1.985-0.816-4.162-0.377-6.215 0.542-2.539 1.979-4.877 4-6.509 1.72-1.403 3.85-2.292 6.056-2.534M6.224 4.806c0.27 0.418 0.677 0.724 1.027 1.070 0.306 0.245 0.578 0.526 0.844 0.812l-0.012 0.041c0.232 0.212 0.427 0.484 0.692 0.65 0.93 0.904 1.88 1.794 2.74 2.765l0.041 0.005c0.001 0.048 0.004 0.144 0.004 0.192 0.119 0.056 0.232 0.122 0.338 0.198 1.379 1.343 2.706 2.741 4.106 4.061 0.74 0.689 1.45 1.412 2.15 2.142v0.053c0.408 0.382 0.808 0.772 1.182 1.186 1.331-1.68 2.068-3.833 2.006-5.978-0.001-2.696-1.313-5.334-3.39-7.037-1.586-1.336-3.635-2.104-5.707-2.164-2.156-0.058-4.336 0.655-6.022 2.004M3.464 8.294c-0.023 0.065-0.067 0.194-0.090 0.259l-0.046-0.031c-0.896 2.15-0.979 4.628-0.174 6.818 0.798 2.206 2.45 4.088 4.542 5.154 2.074 1.086 4.561 1.333 6.812 0.7 1.070-0.32 2.147-0.766 3.001-1.501 0.061-0.034 0.185-0.103 0.246-0.138-0.569-0.619-1.207-1.171-1.757-1.81-1.652-1.685-3.319-3.36-5.018-4.999-0.688-0.632-1.333-1.309-1.992-1.973-0.214-0.379-0.677-0.568-0.827-0.992-0.101-0.061-0.196-0.139-0.316-0.156l-0.017-0.040c-0.863-0.791-1.684-1.628-2.489-2.477-0.24-0.247-0.468-0.505-0.706-0.754-0.49 0.578-0.898 1.231-1.171 1.939z"></path>
<path fill="#fefefe" d="M6.224 4.806c1.686-1.349 3.865-2.062 6.022-2.004 2.072 0.060 4.121 0.828 5.707 2.164 2.077 1.703 3.389 4.34 3.39 7.037 0.061 2.146-0.676 4.298-2.006 5.978-0.374-0.414-0.774-0.804-1.182-1.186v-0.053c-0.016-1.621 0.005-3.244-0.010-4.865-0.046-1.873-1.332-3.647-3.119-4.232-0.892-0.341-1.856-0.242-2.79-0.254-1.153-0.007-2.306 0.014-3.461-0.011-0.265-0.167-0.461-0.438-0.692-0.65l0.012-0.041c0.054-0.347 0.384-0.768 0.077-1.074-0.325-0.23-0.643 0.116-0.92 0.262-0.35-0.347-0.757-0.653-1.027-1.070z"></path>
<path fill="#fefefe" d="M3.464 8.294c0.274-0.708 0.682-1.361 1.171-1.939 0.238 0.248 0.466 0.506 0.706 0.754-0.632 0.384-1.243 0.804-1.877 1.186z"></path>
<path fill="#fefefe" d="M3.329 8.522l0.046 0.031c1.376 0.896 2.77 1.765 4.147 2.659 0.247 0.232 0.716 0.24 0.794-0.158-0.082-0.498-0.275-0.967-0.469-1.429 0.12 0.017 0.215 0.095 0.316 0.156 0.15 0.425 0.613 0.613 0.827 0.992-0.277 1.397-0.094 2.828-0.155 4.242-0.468-0.126-0.923-0.296-1.397-0.4-0.24-0.084-0.458 0.152-0.456 0.382 0.064 0.221 0.196 0.413 0.317 0.606 0.881 1.358 1.745 2.728 2.623 4.087 0.979-1.579 2.014-3.125 2.988-4.708-0.118-0.154-0.193-0.421-0.44-0.38-0.504 0.095-0.985 0.286-1.482 0.413-0.007-0.757 0-1.513-0.006-2.269 1.699 1.639 3.366 3.314 5.018 4.999 0 0.654 0.007 1.309-0.007 1.963 0.505-0.006 1.012 0.013 1.518-0.016-0.854 0.736-1.931 1.181-3.001 1.501-2.251 0.634-4.739 0.386-6.812-0.7-2.092-1.066-3.744-2.948-4.542-5.154-0.805-2.19-0.722-4.668 0.174-6.818z"></path>
<path fill="#fefefe" d="M12.578 9.706c1.41-0.63 3.19 0.425 3.38 1.937 0.097 0.982 0.012 1.973 0.046 2.958-1.4-1.32-2.728-2.718-4.106-4.061-0.107-0.076-0.22-0.142-0.338-0.198 0-0.048-0.002-0.144-0.004-0.192 0.406 0.095 0.658-0.347 1.022-0.444z"></path>
</svg>
