<!-- Generated by IcoMoon.io -->
<svg version="1.1" xmlns="http://www.w3.org/2000/svg" width="24" height="24" viewBox="0 0 24 24">
<title>regulatory--no-turn-on-red--g2</title>
<path fill="#1a1919" d="M1.46 0.072c0.307 0.001 0.614-0.003 0.921-0.004 6.746-0.045 13.492-0.038 20.239 0.006 0.655 0.085 1.22 0.636 1.326 1.288v21.513c-0.129 0.249-0.248 0.512-0.452 0.711-0.179 0.187-0.412 0.304-0.643 0.414h-21.744c-0.21-0.111-0.433-0.205-0.608-0.371-0.2-0.176-0.331-0.413-0.443-0.651v-21.88c0.115-0.226 0.255-0.443 0.445-0.614 0.258-0.241 0.596-0.435 0.96-0.411M1.543 0.237c-0.241 0.004-0.481 0.068-0.687 0.196-0.26 0.139-0.442 0.384-0.575 0.641-0.106 0.203-0.136 0.435-0.123 0.662 0 6.905 0.001 13.81-0.001 20.715-0.023 0.393 0.182 0.76 0.447 1.036 0.269 0.247 0.634 0.386 1 0.376 6.917 0 13.834 0 20.752-0 0.356 0.008 0.709-0.129 0.974-0.365 0.243-0.253 0.443-0.577 0.456-0.936 0-7.004-0.001-14.007 0-21.011-0.007-0.353-0.199-0.673-0.432-0.926-0.273-0.263-0.654-0.401-1.032-0.39-6.926 0.001-13.853-0.003-20.78 0.002z"></path>
<path fill="#1a1919" d="M1.539 0.524c6.902-0.010 13.805-0 20.708-0.004 0.154-0.003 0.308 0.017 0.459 0.048 0.436 0.136 0.776 0.56 0.795 1.019 0 6.906 0 13.811 0 20.717 0.003 0.176 0.008 0.36-0.064 0.525-0.106 0.252-0.282 0.488-0.532 0.612-0.172 0.113-0.383 0.124-0.582 0.136-6.708-0-13.416 0-20.125-0-0.324-0.007-0.652 0.027-0.97-0.050-0.461-0.153-0.812-0.624-0.784-1.115 0.002-6.953-0.001-13.906 0.001-20.858 0.043-0.548 0.535-1.033 1.093-1.029M1.501 1.15c-0.236 0.022-0.431 0.237-0.436 0.472-0 6.943 0 13.887-0 20.831-0.007 0.284 0.259 0.527 0.541 0.504 6.917 0 13.835 0.001 20.752-0 0.278 0.017 0.535-0.229 0.525-0.508-0.001-6.867 0-13.735-0-20.602-0-0.162 0.022-0.341-0.085-0.478-0.097-0.165-0.295-0.231-0.477-0.228-6.904 0.001-13.807 0-20.711 0-0.027 0.002-0.081 0.007-0.108 0.010z"></path>
<path fill="#1a1919" d="M13.981 3.518c0.342-0.021 0.697 0.058 0.975 0.265 0.264 0.16 0.42 0.437 0.551 0.706 0.15 0.314 0.232 0.663 0.216 1.011-0.002 0.508-0.093 1.039-0.393 1.462-0.158 0.253-0.414 0.433-0.685 0.548-0.505 0.175-1.115 0.123-1.536-0.226-0.271-0.189-0.421-0.495-0.545-0.791-0.208-0.5-0.206-1.062-0.103-1.586 0.095-0.478 0.353-0.959 0.797-1.193 0.216-0.136 0.472-0.183 0.723-0.197M13.833 4.252c-0.163 0.025-0.294 0.141-0.408 0.253-0.143 0.193-0.232 0.425-0.281 0.66-0.077 0.492-0.021 1.031 0.277 1.444 0.084 0.095 0.191 0.168 0.301 0.23 0.175 0.052 0.364 0.078 0.545 0.040 0.226-0.027 0.418-0.185 0.535-0.374 0.151-0.298 0.221-0.635 0.211-0.968 0.016-0.356-0.086-0.716-0.278-1.014-0.207-0.275-0.58-0.349-0.902-0.27z"></path>
<path fill="#1a1919" d="M8.294 3.579c0.232-0 0.463 0 0.695 0 0.607 0.867 1.208 1.739 1.818 2.604 0.009-0.868 0.001-1.736 0.004-2.604 0.227 0 0.454-0 0.681 0 0 1.321 0 2.642 0 3.963-0.204 0-0.408 0-0.612 0-0.63-0.908-1.26-1.817-1.891-2.725-0.001 0.908 0 1.817-0 2.725-0.232 0-0.463 0-0.695 0 0-1.321-0-2.642 0-3.963z"></path>
<path fill="#1a1919" d="M5.613 9.896c0.816 0 1.632-0 2.447 0 0 0.185 0 0.37 0 0.556-0.306 0.001-0.612 0-0.918 0-0 1.136 0 2.271-0 3.407-0.209 0-0.417 0-0.625 0-0-1.136 0-2.272 0-3.407-0.301 0-0.602 0-0.904-0-0-0.185 0-0.371 0-0.556z"></path>
<path fill="#1a1919" d="M8.63 9.896c0.209-0 0.418 0 0.627 0 0 0.874 0.001 1.747-0 2.621 0.003 0.201 0.089 0.394 0.21 0.552 0.193 0.224 0.528 0.261 0.795 0.167 0.269-0.114 0.415-0.408 0.441-0.686 0.001-0.885 0-1.769 0-2.654 0.209-0.001 0.417-0 0.626-0 0 0.849-0 1.699 0 2.548 0.002 0.237-0.045 0.474-0.13 0.696-0.105 0.32-0.393 0.545-0.69 0.679-0.579 0.253-1.314 0.037-1.662-0.492-0.143-0.271-0.219-0.579-0.217-0.885 0-0.849 0-1.697 0-2.546z"></path>
<path fill="#1a1919" d="M12.26 9.896c0.55 0.008 1.101-0.021 1.65 0.022 0.274 0.018 0.522 0.169 0.705 0.369 0.226 0.291 0.33 0.692 0.21 1.049-0.066 0.185-0.152 0.374-0.308 0.5-0.078 0.067-0.165 0.121-0.253 0.176 0.231 0.616 0.463 1.232 0.694 1.848-0.227 0-0.454 0-0.681 0-0.213-0.575-0.426-1.149-0.639-1.724-0.25-0.001-0.501-0-0.751-0-0.001 0.575 0 1.149-0 1.724-0.209 0-0.417 0-0.626 0-0-1.321 0-2.642 0-3.963M12.885 10.523c0.001 0.324-0 0.648 0.001 0.973 0.289-0.003 0.578 0.006 0.867-0.006 0.267 0.004 0.528-0.249 0.498-0.522-0.003-0.16-0.126-0.283-0.247-0.371-0.104-0.075-0.239-0.069-0.36-0.074-0.253-0.001-0.505-0.001-0.758 0z"></path>
<path fill="#1a1919" d="M15.611 9.897c0.208-0.001 0.416 0 0.625-0.001 0.481 0.839 0.957 1.681 1.441 2.518 0.012-0.839 0.001-1.679 0.005-2.518 0.209-0 0.417-0 0.626 0 0 1.321 0 2.642-0 3.963-0.186-0.001-0.373 0.002-0.559-0.002-0.501-0.895-1.008-1.787-1.512-2.681-0.002 0.894-0 1.789-0.001 2.683-0.208 0-0.417-0-0.625 0-0.001-1.321-0-2.642-0.001-3.963z"></path>
<path fill="#1a1919" d="M4.096 16.194c0.28-0.025 0.583 0.006 0.817 0.176 0.194 0.151 0.374 0.337 0.457 0.574 0.287 0.694 0.311 1.478 0.132 2.203-0.066 0.29-0.209 0.56-0.394 0.791-0.344 0.366-0.907 0.416-1.367 0.273-0.202-0.059-0.359-0.209-0.497-0.362-0.127-0.141-0.186-0.323-0.252-0.497-0.133-0.366-0.196-0.756-0.192-1.145-0.021-0.566 0.157-1.127 0.451-1.605 0.202-0.252 0.522-0.398 0.843-0.407M4.016 16.846c-0.25 0.083-0.393 0.338-0.457 0.58-0.175 0.607-0.172 1.285 0.099 1.865 0.105 0.269 0.413 0.395 0.686 0.339 0.233-0.025 0.385-0.236 0.473-0.434 0.24-0.67 0.253-1.448-0.078-2.091-0.14-0.248-0.459-0.327-0.722-0.258z"></path>
<path fill="#1a1919" d="M6.475 16.252c0.209-0 0.417 0 0.626 0 0.48 0.841 0.964 1.681 1.441 2.525 0.014-0.841 0.001-1.683 0.006-2.525 0.208 0 0.417 0 0.625 0 0 1.321 0 2.642 0 3.963-0.185 0-0.37 0-0.556 0-0.505-0.894-1.009-1.789-1.516-2.683-0 0.894 0 1.789 0 2.682-0.209 0-0.418 0-0.627 0 0-1.321 0-2.642 0-3.963z"></path>
<path fill="#1a1919" d="M12.085 16.252c0.421 0 0.842-0 1.264 0 0.294 0.014 0.618 0.005 0.863 0.195 0.267 0.162 0.422 0.459 0.476 0.759 0.050 0.301-0.052 0.609-0.222 0.856-0.1 0.13-0.24 0.22-0.378 0.304 0.231 0.616 0.464 1.232 0.695 1.849-0.227-0-0.455 0.001-0.682-0.001-0.213-0.575-0.426-1.149-0.64-1.724-0.25 0-0.5 0-0.75 0 0 0.575 0 1.149 0 1.724-0.209 0-0.417 0-0.626 0 0-1.321 0-2.642 0-3.963M12.712 16.877c-0.001 0.325-0 0.649-0 0.973 0.248-0 0.497 0.002 0.746-0.001 0.128-0.006 0.269-0 0.379-0.078 0.131-0.097 0.259-0.24 0.241-0.415 0.011-0.175-0.123-0.316-0.257-0.409-0.106-0.072-0.239-0.062-0.36-0.069-0.25-0.003-0.499-0-0.749-0.001z"></path>
<path fill="#1a1919" d="M15.436 16.252c0.779 0 1.557 0 2.336 0 0 0.208 0 0.417 0 0.625-0.57 0-1.14 0-1.71 0-0 0.325-0 0.649 0 0.973 0.385 0 0.769 0 1.154 0 0 0.213 0 0.426 0 0.64-0.385 0-0.769-0-1.154 0-0 0.361-0 0.723 0 1.084 0.612 0 1.223 0 1.835 0 0 0.213 0 0.426 0 0.64-0.82 0-1.641 0-2.461 0 0-1.321-0.001-2.642 0-3.963z"></path>
<path fill="#1a1919" d="M18.552 16.252c0.57 0.010 1.142-0.027 1.71 0.032 0.344 0.094 0.568 0.404 0.735 0.7 0.26 0.58 0.315 1.244 0.194 1.866-0.065 0.276-0.14 0.561-0.312 0.792-0.207 0.278-0.484 0.55-0.851 0.568-0.491 0.014-0.984 0.002-1.475 0.006-0-1.321-0-2.642 0-3.963M19.177 16.877c-0 0.899-0 1.799 0 2.698 0.284-0.010 0.571 0.025 0.852-0.028 0.231-0.055 0.356-0.287 0.448-0.485 0.181-0.531 0.172-1.119 0.016-1.655-0.077-0.205-0.197-0.43-0.421-0.498-0.294-0.061-0.597-0.018-0.894-0.031z"></path>
<path fill="#fffffe" d="M1.543 0.237c6.926-0.005 13.853-0.001 20.78-0.002 0.378-0.011 0.759 0.126 1.032 0.39 0.233 0.253 0.425 0.573 0.432 0.926-0.001 7.004-0 14.007-0 21.011-0.013 0.359-0.213 0.683-0.456 0.936-0.265 0.236-0.618 0.373-0.974 0.365-6.917 0.001-13.834 0-20.752 0-0.366 0.010-0.731-0.128-1-0.376-0.264-0.276-0.47-0.642-0.447-1.036 0.002-6.905 0.001-13.81 0.001-20.715-0.013-0.227 0.017-0.459 0.123-0.662 0.133-0.257 0.315-0.503 0.575-0.641 0.205-0.128 0.446-0.192 0.687-0.196M1.539 0.524c-0.559-0.004-1.050 0.481-1.093 1.029-0.002 6.953 0.001 13.906-0.001 20.858-0.029 0.491 0.323 0.962 0.784 1.115 0.318 0.077 0.647 0.042 0.97 0.050 6.708 0 13.416 0 20.125 0 0.199-0.012 0.41-0.023 0.582-0.136 0.25-0.123 0.426-0.36 0.532-0.612 0.072-0.165 0.067-0.349 0.064-0.525 0-6.906 0-13.811 0-20.717-0.019-0.459-0.359-0.883-0.795-1.019-0.151-0.030-0.305-0.050-0.459-0.048-6.903 0.004-13.806-0.005-20.708 0.004z"></path>
<path fill="#fffffe" d="M1.501 1.15c0.027-0.003 0.081-0.007 0.108-0.010 6.904-0 13.807 0 20.711-0 0.182-0.003 0.38 0.063 0.477 0.228 0.107 0.137 0.084 0.316 0.085 0.478 0 6.867-0 13.735 0 20.602 0.010 0.278-0.247 0.525-0.525 0.508-6.918 0.002-13.835 0.001-20.752 0-0.282 0.023-0.548-0.22-0.541-0.504 0.001-6.943 0-13.887 0-20.831 0.006-0.234 0.2-0.45 0.436-0.472M13.981 3.518c-0.251 0.014-0.507 0.061-0.723 0.197-0.444 0.234-0.702 0.715-0.797 1.193-0.103 0.524-0.105 1.086 0.103 1.586 0.124 0.296 0.274 0.601 0.545 0.791 0.421 0.349 1.031 0.401 1.536 0.226 0.271-0.115 0.527-0.294 0.685-0.548 0.3-0.422 0.391-0.954 0.393-1.462 0.016-0.349-0.066-0.697-0.216-1.011-0.131-0.27-0.287-0.546-0.551-0.706-0.278-0.208-0.633-0.286-0.975-0.265M8.294 3.579c-0 1.321 0 2.642 0 3.963 0.232 0 0.463 0 0.695 0 0-0.908-0-1.816 0-2.725 0.631 0.908 1.261 1.817 1.891 2.725 0.204 0 0.408 0 0.612 0 0-1.321 0-2.642 0-3.963-0.227-0.001-0.454-0-0.681-0-0.003 0.868 0.005 1.736-0.004 2.604-0.61-0.865-1.211-1.737-1.818-2.604-0.232 0-0.463-0-0.695 0M5.613 9.896c0 0.185-0 0.37 0 0.556 0.301 0 0.602 0 0.904 0 0 1.135-0 2.271 0 3.407 0.209 0 0.417 0 0.625 0 0-1.136 0-2.271 0-3.407 0.306-0 0.612 0 0.918-0 0-0.185 0-0.37 0-0.556-0.816-0-1.632 0-2.447 0M8.63 9.896c0 0.849 0 1.697 0 2.546-0.002 0.306 0.073 0.614 0.217 0.885 0.347 0.528 1.082 0.745 1.662 0.492 0.297-0.134 0.585-0.358 0.69-0.679 0.085-0.222 0.132-0.459 0.13-0.696-0-0.85 0-1.699 0-2.548-0.209 0-0.417-0.001-0.626 0 0 0.884 0.001 1.769-0 2.654-0.026 0.278-0.172 0.572-0.441 0.686-0.267 0.094-0.603 0.057-0.795-0.167-0.12-0.158-0.207-0.351-0.21-0.552 0.001-0.874 0-1.747 0-2.621-0.209 0-0.418-0-0.627 0M12.26 9.896c0 1.321-0 2.642 0 3.963 0.209 0 0.417 0 0.626 0 0-0.575-0.001-1.149 0-1.724 0.25 0 0.501-0 0.751 0 0.213 0.575 0.426 1.149 0.639 1.724 0.227 0 0.454 0 0.681 0-0.23-0.616-0.463-1.232-0.694-1.848 0.087-0.054 0.174-0.109 0.253-0.176 0.157-0.126 0.243-0.315 0.308-0.5 0.12-0.357 0.016-0.758-0.21-1.049-0.182-0.199-0.431-0.35-0.705-0.369-0.549-0.043-1.1-0.014-1.65-0.022M15.611 9.897c0 1.321-0.001 2.642 0.001 3.963 0.208-0.001 0.416 0 0.625-0 0-0.894-0.001-1.789 0.001-2.683 0.504 0.894 1.011 1.785 1.512 2.681 0.186 0.004 0.373 0.001 0.559 0.002 0-1.321 0-2.642 0-3.963-0.209-0-0.418-0-0.626 0-0.004 0.839 0.007 1.679-0.005 2.518-0.484-0.837-0.96-1.679-1.441-2.518-0.209 0.001-0.417-0-0.625 0.001M4.096 16.194c-0.321 0.008-0.641 0.155-0.843 0.407-0.295 0.479-0.473 1.039-0.451 1.605-0.005 0.389 0.058 0.779 0.192 1.145 0.066 0.174 0.125 0.356 0.252 0.497 0.137 0.153 0.294 0.303 0.497 0.362 0.459 0.143 1.022 0.093 1.367-0.273 0.185-0.231 0.328-0.501 0.394-0.791 0.179-0.724 0.155-1.509-0.132-2.203-0.083-0.236-0.263-0.422-0.457-0.574-0.234-0.169-0.537-0.201-0.817-0.176M6.475 16.252c0 1.321 0 2.642 0 3.963 0.209 0 0.418 0 0.627-0 0-0.894-0-1.788 0-2.682 0.506 0.894 1.010 1.789 1.516 2.683 0.185 0 0.37 0 0.556 0 0-1.321 0-2.642 0-3.963-0.208 0-0.417 0-0.625 0-0.004 0.841 0.008 1.684-0.006 2.525-0.477-0.843-0.961-1.683-1.441-2.525-0.209 0-0.418-0-0.626 0M12.085 16.252c0 1.321 0 2.642 0 3.963 0.209 0 0.417 0 0.626 0 0-0.575 0-1.149 0-1.724 0.25-0 0.5-0 0.75-0 0.213 0.575 0.427 1.149 0.64 1.724 0.227 0.001 0.454 0 0.682 0.001-0.231-0.617-0.464-1.232-0.695-1.849 0.138-0.085 0.278-0.174 0.378-0.304 0.17-0.247 0.272-0.555 0.222-0.856-0.054-0.301-0.209-0.597-0.476-0.759-0.245-0.19-0.569-0.181-0.863-0.195-0.421-0.001-0.842-0-1.264-0M15.436 16.252c-0.001 1.321 0 2.642 0 3.963 0.82 0 1.641 0 2.461 0 0-0.213 0-0.426 0-0.64-0.612-0-1.223 0-1.835-0-0-0.361-0-0.723 0-1.084 0.385-0 0.769 0 1.154 0 0-0.213 0-0.426 0-0.64-0.385 0-0.769 0-1.154-0-0-0.324-0-0.649 0-0.973 0.57 0 1.14 0 1.71 0 0-0.209 0-0.417 0-0.625-0.779 0-1.557 0-2.336 0M18.552 16.252c-0 1.321-0 2.642 0 3.963 0.492-0.004 0.984 0.008 1.475-0.006 0.367-0.018 0.645-0.29 0.851-0.568 0.173-0.231 0.247-0.516 0.312-0.792 0.121-0.621 0.066-1.286-0.194-1.866-0.167-0.295-0.391-0.606-0.735-0.7-0.568-0.059-1.141-0.023-1.71-0.032z"></path>
<path fill="#fffffe" d="M13.833 4.252c0.322-0.080 0.695-0.006 0.902 0.27 0.193 0.298 0.294 0.658 0.278 1.014 0.010 0.333-0.059 0.67-0.211 0.968-0.117 0.189-0.309 0.347-0.535 0.374-0.181 0.038-0.37 0.013-0.545-0.040-0.11-0.062-0.217-0.134-0.301-0.23-0.299-0.413-0.354-0.952-0.277-1.444 0.049-0.234 0.138-0.466 0.281-0.66 0.114-0.112 0.245-0.227 0.408-0.253z"></path>
<path fill="#fffffe" d="M12.885 10.523c0.253-0.001 0.506-0.001 0.758-0 0.122 0.006 0.256-0 0.36 0.074 0.12 0.089 0.243 0.212 0.247 0.371 0.030 0.272-0.23 0.525-0.498 0.522-0.289 0.012-0.578 0.003-0.867 0.006-0.001-0.324 0-0.648-0.001-0.973z"></path>
<path fill="#fffffe" d="M4.016 16.846c0.263-0.069 0.582 0.009 0.722 0.258 0.331 0.643 0.318 1.421 0.078 2.091-0.088 0.198-0.24 0.409-0.473 0.434-0.272 0.056-0.58-0.070-0.686-0.339-0.271-0.579-0.274-1.258-0.099-1.865 0.064-0.241 0.207-0.497 0.457-0.58z"></path>
<path fill="#fffffe" d="M12.712 16.877c0.25 0.001 0.499-0.001 0.749 0.001 0.121 0.007 0.254-0.003 0.36 0.069 0.134 0.093 0.268 0.234 0.257 0.409 0.017 0.175-0.11 0.319-0.241 0.415-0.11 0.078-0.251 0.072-0.379 0.078-0.248 0.003-0.497 0-0.746 0.001 0-0.324-0-0.649 0-0.973z"></path>
<path fill="#fffffe" d="M19.177 16.877c0.298 0.013 0.6-0.030 0.894 0.031 0.224 0.068 0.344 0.293 0.421 0.498 0.157 0.536 0.166 1.124-0.016 1.655-0.093 0.199-0.217 0.43-0.448 0.485-0.281 0.054-0.568 0.019-0.852 0.028-0-0.899-0-1.798 0-2.698z"></path>
</svg>
