<svg xmlns="http://www.w3.org/2000/svg" width="24" height="24">
    <path fill="#03408b" d="M10.718 0h2.531c4.433.5 8.481 3.554 10.008 7.769.378.947.544 1.954.743 2.949v2.531c-.501 4.433-3.554 8.481-7.769 10.008-.947.378-1.954.544-2.949.743h-2.533c-4.433-.501-8.48-3.554-10.007-7.769-.378-.947-.544-1.954-.743-2.949v-2.533c.19-1.006.362-2.023.743-2.981C2.266 3.561 6.299.519 10.717-.001zm-.178 6.701c-2.856 1.764-5.696 3.555-8.541 5.338 2.851 1.794 5.707 3.583 8.56 5.374.365.318.98-.094.819-.549-.298-1.03-.717-2.026-1.001-3.062a5.9 5.9 0 0 0 .11-.117c3.694-.052 7.392-.001 11.088-.025.004-1.085.005-2.169 0-3.254-3.737-.041-7.48.066-11.21-.053.267-1.09.739-2.12 1.03-3.202.064-.442-.52-.744-.857-.451z"/>
    <path fill="#fff" d="M10.54 6.701c.337-.293.92.009.857.451-.292 1.082-.764 2.112-1.03 3.202 3.73.119 7.473.012 11.21.053.005 1.085.004 2.169 0 3.254-3.695.024-7.394-.027-11.088.025l-.11.117c.284 1.036.703 2.031 1.001 3.062.16.455-.455.867-.819.549-2.853-1.791-5.71-3.58-8.56-5.374 2.844-1.783 5.684-3.575 8.541-5.338z"/>
</svg>
