<svg xmlns="http://www.w3.org/2000/svg" width="24" height="24">
    <path fill="#035ca1" d="M10.46 0h3.087c3.381.527 6.58 2.395 8.456 5.29 1.085 1.526 1.655 3.348 1.997 5.17v3.087c-.642 4.579-3.998 8.681-8.47 9.974.015-5.196.007-10.393.022-15.59.841.022 1.68.051 2.521.049-1.271-2.327-2.576-4.635-3.861-6.953C12.93 3.31 11.7 5.624 10.454 7.928c.849-.003 1.699.003 2.549.045.014 1.639-.026 3.279.051 4.918-1.236-.802-2.781-.318-4.16-.465.003-.911.048-1.821.041-2.732a437.67 437.67 0 0 0-6.887 4.092c2.277 1.333 4.552 2.666 6.832 3.989.007-.883.001-1.765.036-2.648 1.005.022 2.011-.016 3.014.029.717.026 1.17.769 1.152 1.433.015 2.469-.001 4.94.004 7.41h-2.633c-3.382-.527-6.581-2.395-8.458-5.291C.91 17.182.34 15.362-.002 13.539v-3.087c.346-1.821.913-3.64 1.997-5.163 1.877-2.896 5.08-4.767 8.463-5.29z"/>
    <path fill="#fff" d="M10.454 7.928c1.245-2.304 2.475-4.618 3.758-6.901 1.285 2.318 2.589 4.626 3.861 6.953-.841.001-1.68-.027-2.521-.049-.015 5.198-.007 10.394-.022 15.59-.651.221-1.332.325-2 .479h-.443c-.005-2.47.011-4.941-.004-7.41.018-.664-.435-1.407-1.152-1.433-1.004-.045-2.009-.007-3.014-.029-.034.883-.029 1.765-.036 2.648-2.281-1.323-4.556-2.656-6.832-3.989a442.293 442.293 0 0 1 6.887-4.092c.007.911-.038 1.821-.041 2.732 1.378.147 2.924-.337 4.16.465-.077-1.639-.037-3.279-.051-4.918a47.15 47.15 0 0 0-2.549-.045z"/>
</svg>
