<?xml version="1.0" encoding="utf-8"?>
<!-- Generated by IcoMoon.io -->
<!DOCTYPE svg PUBLIC "-//W3C//DTD SVG 1.1//EN" "http://www.w3.org/Graphics/SVG/1.1/DTD/svg11.dtd">
<svg version="1.1" xmlns="http://www.w3.org/2000/svg" xmlns:xlink="http://www.w3.org/1999/xlink" width="24" height="24" viewBox="0 0 24 24">
<path fill="#1a1919" d="M10.363 0.099c3.499-0.004 6.999-0.019 10.498 0.013 0.286-0.010 0.545 0.155 0.743 0.348 0.169 0.183 0.321 0.404 0.347 0.658v21.952c-0.115 0.264-0.267 0.521-0.505 0.692-0.179 0.134-0.398 0.201-0.615 0.239h-17.647c-0.255-0.047-0.509-0.14-0.706-0.313-0.197-0.162-0.319-0.392-0.425-0.619v-22.062c0.173-0.391 0.481-0.73 0.879-0.896 0.108-0.014 0.217-0.003 0.325-0.005 2.37-0.002 4.739-0.004 7.109-0.006M3.304 0.205c-0.638-0.012-1.196 0.591-1.152 1.223 0.001 7.073 0.001 14.146 0 21.219-0.036 0.523 0.34 1.036 0.838 1.183 0.284 0.065 0.577 0.044 0.866 0.047 5.429 0 10.858 0 16.287 0 0.302-0.003 0.608 0.020 0.905-0.053 0.439-0.147 0.779-0.571 0.81-1.035 0-7.169 0.001-14.338 0-21.507-0.036-0.466-0.381-0.892-0.826-1.031-0.156-0.030-0.315-0.052-0.474-0.049-5.752 0.003-11.503-0.004-17.255 0.003z"></path>
<path fill="#1a1919" d="M3.195 0.478c0.431-0.076 0.868-0.015 1.302-0.014 5.316 0 10.633 0 15.949 0 0.184-0.005 0.371 0.002 0.55 0.052 0.391 0.149 0.633 0.58 0.6 0.99-0.001 6.984-0.001 13.968 0 20.951 0.020 0.264-0.022 0.537-0.151 0.77-0.098 0.132-0.245 0.216-0.387 0.291-0.191 0.085-0.405 0.090-0.611 0.097-5.67-0.002-11.339 0.001-17.009-0.002-0.267 0-0.546-0.070-0.74-0.264-0.148-0.165-0.269-0.369-0.284-0.595-0.001-6.871 0-13.742-0.001-20.614-0.009-0.311-0.014-0.622 0.018-0.932 0.036-0.223 0.182-0.411 0.343-0.562 0.12-0.096 0.274-0.134 0.42-0.17M3.155 1.001c-0.152 0.063-0.223 0.238-0.262 0.387-0.021 0.277 0.018 0.555 0.017 0.833-0.001 6.821 0.001 13.642-0.001 20.464-0.004 0.12 0.061 0.23 0.141 0.315 0.115 0.106 0.28 0.117 0.429 0.12 5.517 0 11.034 0 16.552 0 0.261 0.005 0.524 0.031 0.782-0.025 0.091-0.044 0.188-0.098 0.24-0.188 0.081-0.204 0.041-0.425 0.047-0.638 0.001-6.946-0-13.893 0-20.839 0.012-0.237-0.175-0.488-0.429-0.468-5.705-0.003-11.411 0-17.117-0.002-0.133 0.005-0.272-0.007-0.399 0.041z"></path>
<path fill="#1a1919" d="M5.25 6.096c1.003-1.411 2.005-2.823 3.008-4.235 0.977 1.4 1.951 2.801 2.928 4.2 0.099 0.127 0.187 0.286 0.143 0.452-0.043 0.263-0.344 0.41-0.587 0.332-0.447-0.146-0.895-0.291-1.343-0.436-0 2.104 0 4.207 0 6.31 0.414-0.495 0.838-0.988 1.332-1.407 0.444-0.38 0.924-0.715 1.418-1.026 0.93-0.566 1.978-0.884 2.993-1.259-0.318-0.372-0.627-0.751-0.952-1.116-0.105-0.135-0.121-0.333-0.045-0.484 0.121-0.164 0.332-0.281 0.539-0.226 1.697 0.377 3.392 0.757 5.089 1.136-0.943 1.494-1.891 2.986-2.833 4.481-0.115 0.108-0.287 0.186-0.447 0.142-0.185-0.019-0.319-0.193-0.351-0.366-0.040-0.5-0.085-0.999-0.128-1.499-1.141 0.471-2.325 0.899-3.312 1.662-0.529 0.431-1.033 0.899-1.465 1.429-0.293 0.357-0.539 0.749-0.767 1.15-0.737 1.301-1.093 2.807-1.071 4.299 0 0.608 0 1.216 0 1.824-0.772 0-1.544 0-2.316 0 0-5.020 0-10.039 0-15.059-0.459 0.146-0.924 0.272-1.378 0.433-0.197 0.056-0.426-0.048-0.511-0.235-0.091-0.159-0.052-0.362 0.056-0.502z"></path>
<path fill="#fffffe" d="M3.304 0.205c5.751-0.008 11.503-0 17.255-0.003 0.159-0.003 0.318 0.019 0.474 0.049 0.445 0.139 0.79 0.565 0.826 1.031 0.001 7.169 0 14.338 0 21.507-0.031 0.464-0.371 0.888-0.81 1.035-0.296 0.073-0.603 0.050-0.905 0.053-5.429 0-10.858 0-16.287 0-0.289-0.003-0.582 0.018-0.866-0.047-0.498-0.147-0.874-0.659-0.838-1.183 0.001-7.073 0.001-14.146 0-21.219-0.044-0.632 0.514-1.235 1.152-1.223M3.195 0.478c-0.146 0.036-0.301 0.074-0.42 0.17-0.161 0.151-0.307 0.339-0.343 0.562-0.032 0.31-0.028 0.621-0.018 0.932 0.001 6.871-0.001 13.742 0.001 20.614 0.015 0.226 0.136 0.43 0.284 0.595 0.194 0.193 0.473 0.264 0.74 0.264 5.67 0.002 11.339-0.001 17.009 0.001 0.206-0.008 0.419-0.012 0.611-0.097 0.142-0.075 0.289-0.159 0.387-0.291 0.129-0.233 0.171-0.506 0.151-0.77-0.001-6.984-0.001-13.968 0-20.951 0.033-0.411-0.21-0.842-0.6-0.99-0.179-0.050-0.366-0.056-0.55-0.052-5.316 0-10.633 0-15.949 0-0.434-0.002-0.871-0.063-1.302 0.014z"></path>
<path fill="#fffffe" d="M3.155 1.001c0.127-0.047 0.266-0.036 0.399-0.041 5.706 0.002 11.411-0.001 17.117 0.002 0.254-0.020 0.441 0.232 0.429 0.468-0.001 6.946 0 13.893-0 20.839-0.006 0.213 0.034 0.434-0.047 0.638-0.052 0.090-0.149 0.144-0.24 0.188-0.258 0.056-0.521 0.030-0.782 0.025-5.517 0-11.035 0-16.552 0-0.149-0.003-0.313-0.014-0.429-0.12-0.080-0.085-0.144-0.195-0.141-0.315 0.002-6.821 0-13.642 0.001-20.464 0.001-0.278-0.038-0.556-0.017-0.833 0.038-0.15 0.109-0.324 0.262-0.387M5.25 6.096c-0.108 0.14-0.147 0.343-0.056 0.502 0.085 0.187 0.314 0.292 0.511 0.235 0.454-0.161 0.919-0.287 1.378-0.433 0 5.020 0 10.040 0 15.059 0.772 0 1.544 0 2.316 0 0-0.608 0-1.216 0-1.824-0.023-1.492 0.333-2.997 1.071-4.299 0.227-0.401 0.474-0.793 0.767-1.15 0.432-0.53 0.936-0.998 1.465-1.429 0.987-0.762 2.171-1.191 3.312-1.662 0.043 0.5 0.088 0.999 0.128 1.499 0.033 0.173 0.166 0.347 0.351 0.366 0.16 0.044 0.331-0.034 0.447-0.142 0.942-1.495 1.89-2.986 2.833-4.481-1.696-0.379-3.392-0.759-5.089-1.136-0.207-0.056-0.418 0.062-0.539 0.226-0.076 0.151-0.059 0.349 0.045 0.484 0.325 0.366 0.634 0.745 0.952 1.116-1.015 0.375-2.063 0.693-2.993 1.259-0.494 0.311-0.974 0.646-1.418 1.026-0.494 0.418-0.918 0.911-1.332 1.407 0-2.103-0-4.207 0-6.31 0.448 0.145 0.895 0.29 1.343 0.436 0.243 0.078 0.544-0.069 0.587-0.332 0.044-0.167-0.044-0.325-0.143-0.452-0.977-1.399-1.952-2.801-2.928-4.2-1.003 1.411-2.005 2.823-3.008 4.235z"></path>
</svg>
