<svg xmlns="http://www.w3.org/2000/svg" width="24" height="24">
    <path fill="#da251d" d="M10.552 0h2.906c2.358.384 4.667 1.318 6.459 2.926 2.252 1.928 3.646 4.715 4.083 7.627v2.903c-.384 2.358-1.318 4.668-2.926 6.461-1.928 2.252-4.715 3.645-7.626 4.083h-2.906c-2.358-.384-4.667-1.318-6.459-2.926C1.831 19.146.438 16.36 0 13.448v-2.904c.441-2.908 1.831-5.692 4.083-7.617C5.879 1.318 8.191.381 10.553.001zM5.994 3.766c.866.964 1.807 1.86 2.716 2.785.639.625 1.224 1.312 1.906 1.89 3.148 3.355 6.44 6.585 9.654 9.884 2.051-2.657 2.679-6.336 1.588-9.515-1.127-3.487-4.26-6.221-7.867-6.862-2.767-.539-5.727.155-7.996 1.819zM4.165 5.485c-1.529 1.874-2.422 4.28-2.35 6.707-.021 3.49 1.951 6.875 4.931 8.666 3.545 2.222 8.432 1.937 11.689-.69-3.128-3.23-6.255-6.459-9.39-9.683a98.562 98.562 0 0 0-2.12-2.17c-.902-.959-1.797-1.93-2.761-2.829z"/>
    <path fill="#fff" d="M5.994 3.766c2.269-1.663 5.229-2.358 7.996-1.819 3.608.642 6.741 3.375 7.867 6.862 1.091 3.179.463 6.859-1.588 9.515-3.214-3.298-6.506-6.529-9.654-9.884a114.94 114.94 0 0 1 3.572-.03c.012.705.01 1.408.015 2.113 1.915-1.141 3.861-2.231 5.764-3.388-1.97-1.102-3.949-2.191-5.906-3.316-.006.729-.001 1.458-.003 2.187-1.775.155-3.727-.402-5.348.544C7.8 5.625 6.86 4.729 5.993 3.765zM4.165 5.485c.964.898 1.858 1.87 2.761 2.829-.181.457-.336.934-.322 1.431-.004 3.187-.018 6.372-.018 9.559.811-.005 1.622-.003 2.433-.01-.004-2.936.012-5.873.027-8.809 3.134 3.224 6.262 6.453 9.39 9.683-3.257 2.627-8.145 2.912-11.689.69-2.98-1.79-4.951-5.176-4.931-8.666-.072-2.427.821-4.833 2.35-6.707z"/>
    <path fill="#1f1a17" d="M14.06 3.819c1.957 1.126 3.936 2.214 5.906 3.316-1.903 1.158-3.849 2.247-5.764 3.388-.005-.705-.004-1.408-.015-2.113a114.94 114.94 0 0 0-3.572.03c-.681-.579-1.267-1.265-1.906-1.89 1.621-.946 3.573-.389 5.348-.544.001-.729-.004-1.458.003-2.187zM6.925 8.314c.717.714 1.426 1.436 2.12 2.17-.015 2.936-.031 5.873-.027 8.809-.811.008-1.622.005-2.433.01 0-3.187.014-6.372.018-9.559-.014-.497.141-.974.322-1.431z"/>
</svg>
