<!-- Generated by IcoMoon.io -->
<svg version="1.1" xmlns="http://www.w3.org/2000/svg" width="24" height="24" viewBox="0 0 24 24">
<title>regulatory--no-go-straight-or-turn-left--g1</title>
<path fill="#c04434" d="M10.551 0h2.923c0.232 0.139 0.508 0.128 0.768 0.158 0.261 0.069 0.529 0.117 0.792 0.181 0.055 0.018 0.166 0.052 0.22 0.069 0.22 0.065 0.44 0.126 0.66 0.192 0.059 0.010 0.178 0.031 0.239 0.041 0.123 0.075 0.246 0.151 0.371 0.226 0.062 0.008 0.183 0.020 0.244 0.028 1.966 0.936 3.761 2.283 5.022 4.075 0.040 0.055 0.121 0.167 0.161 0.222 0.107 0.178 0.22 0.353 0.325 0.534 0.141 0.244 0.293 0.481 0.439 0.723 0.103 0.216 0.207 0.432 0.314 0.647 0.080 0.211 0.161 0.422 0.249 0.63 0.050 0.122 0.099 0.243 0.148 0.364 0.038 0.167 0.072 0.336 0.106 0.504 0.050 0.126 0.099 0.251 0.148 0.378 0.041 0.205 0.078 0.41 0.113 0.616 0.074 0.318 0.092 0.65 0.209 0.957v2.934c-0.146 0.289-0.128 0.622-0.206 0.93-0.041 0.209-0.079 0.418-0.128 0.626-0.018 0.054-0.055 0.163-0.074 0.219-0.065 0.219-0.123 0.44-0.192 0.658-0.010 0.059-0.031 0.178-0.041 0.237-0.075 0.124-0.151 0.248-0.225 0.372-0.008 0.062-0.021 0.186-0.029 0.249-0.158 0.288-0.305 0.583-0.45 0.878-0.129 0.209-0.263 0.416-0.383 0.63-1 1.665-2.423 3.084-4.105 4.055-0.172 0.108-0.346 0.212-0.516 0.322-0.297 0.142-0.592 0.29-0.88 0.45-0.062 0.006-0.186 0.020-0.248 0.026-0.124 0.075-0.249 0.151-0.373 0.226-0.059 0.010-0.177 0.031-0.236 0.041-0.22 0.068-0.441 0.126-0.661 0.192-0.054 0.019-0.162 0.057-0.216 0.075-0.207 0.048-0.417 0.087-0.627 0.127-0.32 0.067-0.651 0.092-0.961 0.206h-2.925c-0.29-0.146-0.623-0.131-0.932-0.205-0.209-0.041-0.417-0.080-0.624-0.129-0.054-0.019-0.163-0.057-0.217-0.075-0.22-0.065-0.441-0.123-0.66-0.191-0.060-0.011-0.181-0.031-0.241-0.041-0.123-0.075-0.246-0.151-0.369-0.225-0.062-0.008-0.185-0.021-0.246-0.029-0.254-0.139-0.513-0.269-0.775-0.392-0.21-0.121-0.412-0.253-0.621-0.374-1.683-0.975-3.105-2.394-4.108-4.059-0.308-0.486-0.567-0.999-0.832-1.509-0.008-0.062-0.021-0.186-0.029-0.248-0.075-0.124-0.15-0.248-0.225-0.372-0.010-0.059-0.031-0.178-0.041-0.239-0.068-0.217-0.127-0.439-0.191-0.657-0.020-0.055-0.058-0.165-0.077-0.219-0.048-0.209-0.087-0.418-0.126-0.627-0.069-0.32-0.093-0.652-0.207-0.961v-2.929c0.151-0.288 0.123-0.623 0.207-0.93 0.038-0.206 0.073-0.412 0.114-0.617 0.049-0.127 0.098-0.253 0.148-0.377 0.033-0.17 0.068-0.337 0.104-0.505 0.049-0.121 0.099-0.243 0.15-0.363 0.087-0.209 0.167-0.42 0.248-0.632 0.063-0.129 0.129-0.256 0.195-0.384 0.029-0.064 0.088-0.195 0.117-0.259 0.146-0.241 0.3-0.479 0.439-0.725 0.107-0.18 0.222-0.354 0.334-0.532 0.085-0.127 0.168-0.254 0.249-0.383 0.185-0.196 0.367-0.396 0.504-0.628 0.439-0.479 0.9-0.937 1.378-1.375 0.275-0.177 0.516-0.4 0.775-0.598 0.253-0.162 0.503-0.327 0.758-0.484 0.25-0.139 0.49-0.294 0.738-0.439 0.259-0.124 0.515-0.253 0.768-0.391 0.063-0.008 0.19-0.021 0.254-0.029 0.122-0.075 0.244-0.151 0.366-0.226 0.060-0.010 0.181-0.031 0.243-0.043 0.217-0.068 0.44-0.126 0.658-0.191 0.055-0.019 0.165-0.057 0.219-0.075 0.207-0.049 0.416-0.087 0.626-0.127 0.32-0.067 0.651-0.094 0.961-0.206M10.824 2.291c-1.804 0.191-3.511 0.979-4.923 2.1-0.201 0.121 0.039 0.279 0.121 0.386 1.945 1.951 3.912 3.881 5.835 5.853 0.195 0.204 0.4 0.395 0.612 0.579 0.005 0.489-0.003 0.978-0.054 1.464-0.52-0.495-1.249-0.719-1.959-0.677-0.269-0.384-0.638-0.681-0.947-1.033 0.085-0.085 0.254-0.255 0.338-0.341-0.313-0.004-0.626-0.006-0.939-0.005 0.023-0.038 0.070-0.113 0.094-0.151-1.527-1.509-3.063-3.011-4.534-4.576-0.472 0.372-0.725 0.949-1.034 1.45-1.17 2.155-1.534 4.726-0.998 7.118 0.542 2.493 2.092 4.748 4.247 6.121 1.769 1.094 3.883 1.655 5.964 1.486 2.012-0.102 3.939-0.92 5.516-2.152 0.006-0.041 0.020-0.127 0.026-0.17-1.043-1.077-2.092-2.157-3.197-3.172 0.005-0.907 0.004-1.813-0.001-2.72 1.556 1.515 3.057 3.084 4.601 4.609 1.828-2.337 2.622-5.487 1.998-8.403-0.518-2.641-2.146-5.073-4.48-6.442-1.88-1.089-4.12-1.651-6.288-1.324z"></path>
<path fill="#fff" d="M10.824 2.291c2.168-0.327 4.408 0.235 6.288 1.324 2.333 1.37 3.962 3.801 4.48 6.442 0.624 2.915-0.17 6.065-1.998 8.403-1.544-1.525-3.046-3.094-4.601-4.609 0.016-1.93-0.019-3.863 0.034-5.793 0.442 0.496 0.893 0.984 1.339 1.475-0.013-0.87 0.057-1.747-0.023-2.61-0.816-1.038-1.739-1.993-2.596-2.998-0.751 0.851-1.473 1.726-2.217 2.583-0.153 0.19-0.362 0.381-0.322 0.651 0.026 0.802-0.108 1.605 0.016 2.403 0.378-0.535 0.819-1.022 1.243-1.52 0.020 1.056 0.003 2.111 0.001 3.166-0.212-0.185-0.417-0.376-0.612-0.579-1.924-1.972-3.89-3.902-5.835-5.853-0.082-0.107-0.322-0.265-0.121-0.386 1.412-1.121 3.119-1.909 4.923-2.1z"></path>
<path fill="#fff" d="M3.434 7.339c0.309-0.501 0.562-1.078 1.034-1.45 1.47 1.566 3.007 3.067 4.534 4.576-0.024 0.038-0.072 0.113-0.094 0.151-0.513 0.005-1.025 0.008-1.538 0.010-0.963 0.901-1.905 1.822-2.864 2.727 0.88 0.994 1.858 1.894 2.795 2.832 0.838-0.009 1.675-0.005 2.512-0.016-0.481-0.459-0.946-0.932-1.417-1.401 0.802-0.038 1.606-0.020 2.409-0.014 0.892 0.003 1.612 0.842 1.639 1.705 0.052 0.903 0.004 1.812 0.019 2.718 0.841-0.009 1.683 0.014 2.523-0.009-0.005-0.866-0.004-1.732 0.009-2.597 1.104 1.014 2.154 2.095 3.197 3.172-0.006 0.043-0.020 0.128-0.026 0.17-1.577 1.233-3.504 2.051-5.516 2.152-2.081 0.168-4.194-0.392-5.964-1.486-2.155-1.372-3.706-3.628-4.247-6.121-0.537-2.392-0.172-4.963 0.998-7.118z"></path>
<path fill="#fff" d="M8.403 11.98c0.352-0.357 0.735-0.682 1.106-1.018 0.309 0.352 0.679 0.648 0.947 1.033-0.684 0.005-1.37 0.009-2.053-0.015z"></path>
<path fill="#15181f" d="M11.53 6.509c0.744-0.857 1.465-1.733 2.217-2.583 0.857 1.005 1.781 1.96 2.596 2.998 0.079 0.863 0.010 1.74 0.023 2.61-0.446-0.491-0.897-0.979-1.339-1.475-0.053 1.93-0.018 3.863-0.034 5.793 0.005 0.907 0.006 1.813 0.001 2.72-0.013 0.866-0.014 1.732-0.009 2.597-0.841 0.023-1.683 0-2.523 0.009-0.015-0.906 0.033-1.814-0.019-2.718-0.026-0.863-0.746-1.703-1.639-1.705-0.803-0.006-1.607-0.024-2.409 0.014 0.471 0.469 0.936 0.942 1.417 1.401-0.837 0.011-1.674 0.008-2.512 0.016-0.936-0.939-1.915-1.838-2.795-2.832 0.959-0.905 1.901-1.826 2.864-2.727 0.513-0.003 1.025-0.005 1.538-0.010 0.313-0.001 0.626 0.001 0.939 0.005-0.084 0.085-0.253 0.255-0.338 0.341-0.371 0.336-0.754 0.661-1.106 1.018 0.684 0.024 1.37 0.020 2.053 0.015 0.71-0.041 1.439 0.182 1.959 0.677 0.052-0.486 0.059-0.975 0.054-1.464 0.001-1.056 0.019-2.111-0.001-3.166-0.423 0.499-0.864 0.985-1.243 1.52-0.124-0.798 0.010-1.601-0.016-2.403-0.040-0.27 0.168-0.461 0.322-0.651z"></path>
</svg>
