<svg xmlns="http://www.w3.org/2000/svg" width="24" height="24">
    <path fill="#ec1d24" d="M11.119 0h1.492c4.621.214 8.942 3.311 10.577 7.645.438 1.073.635 2.218.812 3.355v1.97c-.368 4.024-2.808 7.804-6.419 9.654-1.416.772-2.996 1.165-4.585 1.375H11.04c-4.52-.392-8.693-3.468-10.259-7.747-.452-1.16-.668-2.395-.781-3.631V11.39C.217 7.081 2.905 3.007 6.821 1.177 8.164.507 9.641.193 11.119 0zm-.15 2.461c-3.612.341-6.863 2.94-8.028 6.37-.9 2.551-.656 5.483.677 7.841 1.692 3.106 5.208 5.098 8.746 4.926 3.82-.095 7.402-2.72 8.666-6.323.966-2.632.7-5.683-.727-8.099-1.83-3.228-5.647-5.162-9.334-4.715z"/>
    <path fill="#fff" d="M10.969 2.461c3.686-.448 7.504 1.487 9.334 4.715 1.427 2.416 1.693 5.467.727 8.099-1.265 3.602-4.847 6.228-8.666 6.323-3.538.172-7.054-1.82-8.746-4.926-1.333-2.358-1.577-5.29-.677-7.841 1.165-3.43 4.416-6.029 8.028-6.37zm3.09 4.979c-.295 1.678-.547 3.362-.811 5.045.528-.007 1.056-.005 1.584-.005.431-.971 1.999-.923 2.423.028.374.804.332 1.952-.43 2.521-.763.53-2.046.152-2.101-.871-.595-.001-1.189-.005-1.783.004.119.695.329 1.426.892 1.896 1.273 1.086 3.37.978 4.561-.185 1.126-1.216 1.186-3.252.176-4.554-.872-1.094-2.602-1.272-3.709-.43.095-.63.216-1.255.282-1.889h3.805V7.44h-4.889zM3.768 13.242c-.134.548-.023 1.144-.056 1.71 1.606.004 3.212-.001 4.818.002.002.505.001 1.01.002 1.517.61.002 1.219.002 1.828 0l.001-1.517 1.099-.004c.002-.565.002-1.129 0-1.694l-1.098-.002c-.004-1.908.001-3.817-.002-5.725-.778-.002-1.555-.001-2.332-.001-1.421 1.904-2.857 3.798-4.26 5.714z"/>
    <path fill="#fff" d="M5.762 13.253c.92-1.243 1.836-2.49 2.766-3.726.006 1.242.002 2.484.001 3.727-.922.002-1.844.002-2.767-.001z"/>
    <path fill="#030303" d="M14.059 7.44h4.889V9h-3.805c-.066.634-.187 1.259-.282 1.889 1.108-.842 2.837-.665 3.709.43 1.009 1.302.949 3.338-.176 4.554-1.192 1.163-3.288 1.271-4.561.185-.563-.47-.773-1.201-.892-1.896.594-.008 1.188-.005 1.783-.004.055 1.024 1.338 1.402 2.101.871.762-.569.804-1.717.43-2.521-.424-.95-1.992-.998-2.423-.028-.528 0-1.056-.002-1.584.005.264-1.682.516-3.367.811-5.045zM3.768 13.242c1.403-1.916 2.839-3.81 4.26-5.714.776 0 1.554-.001 2.332.001.004 1.908-.001 3.817.002 5.725l1.098.002c.002.565.002 1.129 0 1.694l-1.099.004-.001 1.517c-.608.002-1.218.002-1.828 0-.001-.506 0-1.012-.002-1.517-1.606-.004-3.212.001-4.818-.002.034-.566-.078-1.162.056-1.71zm1.994.011c.923.004 1.846.004 2.767.001.001-1.243.005-2.485-.001-3.727-.93 1.236-1.846 2.483-2.766 3.726z"/>
</svg>
