<svg xmlns="http://www.w3.org/2000/svg" width="24" height="24">
    <path fill="#035ca1" d="M10.494 0h3.015c2.741.432 5.37 1.72 7.276 3.752 1.724 1.856 2.822 4.246 3.214 6.743v3.015c-.432 2.741-1.72 5.37-3.752 7.276-1.854 1.723-4.244 2.82-6.737 3.214h-.398c.003-3.442.001-6.885-.003-10.327-.001-.552.086-1.264.685-1.483.79-.279 1.644-.076 2.46-.088-.001.87-.009 1.739-.008 2.609 2.33-1.276 4.671-2.539 6.992-3.833-2.29-1.423-4.573-2.857-6.874-4.264-.047.933-.024 1.869-.042 2.804-1.542-.039-3.365-.265-4.435 1.125-.53-.578-1.16-1.156-1.967-1.268-.764-.09-1.537-.034-2.303-.055-.015-.951.02-1.901.046-2.85C5.246 7.68 2.847 9.023.439 10.351c2.321 1.433 4.669 2.821 7.002 4.233.021-.896.016-1.793.03-2.69.758.021 1.527-.054 2.277.093.57.117.847.744.811 1.279-.012 3.579-.032 7.157-.036 10.736h-.058c-2.73-.444-5.351-1.724-7.251-3.752C1.49 18.394.392 16.002 0 13.507v-3.015c.393-2.494 1.491-4.884 3.214-6.739C5.121 1.722 7.751.431 10.494.001z"/>
    <path fill="#fff" d="M.44 10.35c2.408-1.327 4.807-2.671 7.224-3.981-.025.949-.06 1.9-.046 2.85.767.021 1.539-.035 2.303.055.807.113 1.437.69 1.967 1.268 1.07-1.39 2.893-1.164 4.435-1.125.017-.935-.005-1.87.042-2.804 2.301 1.406 4.584 2.841 6.874 4.264-2.321 1.294-4.662 2.557-6.992 3.833-.001-.87.007-1.739.008-2.609-.817.012-1.671-.19-2.46.088-.599.219-.686.93-.685 1.483.004 3.442.005 6.885.003 10.327h-2.59c.004-3.579.024-7.157.036-10.736.036-.535-.241-1.162-.811-1.279-.75-.146-1.519-.071-2.277-.093-.013.897-.008 1.794-.03 2.69-2.333-1.412-4.681-2.8-7.002-4.233z"/>
</svg>
