<!-- Generated by IcoMoon.io -->
<svg version="1.1" xmlns="http://www.w3.org/2000/svg" width="24" height="24" viewBox="0 0 24 24">
<title>regulatory--no-turn-on-red--g1</title>
<path fill="#1a1919" d="M3.321 0.081c5.786-0.031 11.572-0.009 17.359-0.009 0.328 0.077 0.583 0.341 0.778 0.606 0.099 0.218 0.073 0.467 0.105 0.7 0.026 1.155 0.035 2.311 0.045 3.467v18.195c-0.117 0.224-0.212 0.469-0.396 0.649-0.133 0.129-0.295 0.222-0.455 0.313h-17.562c-0.352-0.186-0.636-0.486-0.804-0.847v-22.232c0.129-0.244 0.288-0.48 0.51-0.649 0.123-0.091 0.259-0.189 0.419-0.191M3.345 0.195c-0.501 0.12-0.886 0.627-0.854 1.144 0.002 7.081 0 14.163 0 21.244 0.003 0.158-0.015 0.319 0.028 0.474 0.106 0.374 0.395 0.701 0.773 0.812 0.289 0.066 0.587 0.042 0.88 0.046 5.368 0 10.735 0 16.102 0 0.193-0.012 0.397-0.018 0.569-0.118 0.35-0.172 0.604-0.543 0.628-0.932 0-7.217 0-14.433 0-21.649-0.005-0.281-0.156-0.536-0.341-0.738-0.224-0.228-0.545-0.326-0.86-0.319-5.528 0-11.055 0-16.583 0-0.115 0.002-0.229 0.017-0.343 0.036z"></path>
<path fill="#1a1919" d="M3.339 0.435c0.114-0.031 0.231-0.045 0.349-0.046 5.432 0 10.865 0 16.297 0 0.221 0.001 0.449-0.014 0.664 0.054 0.33 0.124 0.582 0.456 0.593 0.812 0 7.19 0 14.381-0 21.572-0.009 0.296-0.191 0.579-0.442 0.731-0.216 0.141-0.486 0.13-0.733 0.129-5.378-0-10.756 0-16.134 0-0.203 0.002-0.41 0.006-0.607-0.050-0.334-0.121-0.591-0.452-0.604-0.81-0-7.191 0-14.383-0-21.574 0.011-0.363 0.275-0.703 0.618-0.818M3.536 0.899c-0.182 0.033-0.321 0.212-0.316 0.396 0 7.095 0 14.19-0 21.286 0.003 0.145-0.024 0.308 0.073 0.431 0.082 0.135 0.246 0.178 0.395 0.176 5.446-0 10.892-0 16.337-0 0.137-0.002 0.277 0.011 0.412-0.018 0.176-0.032 0.309-0.208 0.306-0.384 0.001-7.095 0-14.19 0.001-21.286-0.004-0.148 0.025-0.315-0.075-0.44-0.084-0.133-0.25-0.182-0.4-0.174-5.446 0.001-10.892 0-16.339 0-0.132 0.002-0.265-0.010-0.395 0.013z"></path>
<path fill="#1a1919" d="M14.078 2.236c0.338-0.001 0.685 0.074 0.961 0.279 0.3 0.178 0.475 0.492 0.62 0.798 0.161 0.345 0.237 0.727 0.218 1.108 0.032 0.591-0.18 1.176-0.521 1.653-0.298 0.346-0.749 0.562-1.209 0.556-0.379 0.012-0.767-0.094-1.063-0.337-0.306-0.209-0.473-0.553-0.609-0.886-0.212-0.527-0.208-1.116-0.102-1.666 0.1-0.517 0.379-1.037 0.859-1.29 0.251-0.159 0.552-0.2 0.844-0.214M13.994 3.006c-0.242 0.007-0.459 0.144-0.609 0.328-0.21 0.319-0.323 0.703-0.304 1.086-0.020 0.384 0.090 0.769 0.294 1.094 0.199 0.281 0.561 0.396 0.894 0.34 0.31-0.026 0.579-0.261 0.684-0.548 0.116-0.28 0.17-0.583 0.162-0.885 0.019-0.372-0.082-0.746-0.272-1.065-0.183-0.275-0.529-0.399-0.849-0.351z"></path>
<path fill="#1a1919" d="M7.906 2.305c0.249 0 0.497 0 0.745 0 0.653 0.934 1.303 1.871 1.956 2.805 0-0.935 0-1.87 0-2.805 0.244-0 0.487-0 0.731 0 0 1.418-0 2.835 0 4.253-0.219 0-0.438 0-0.657-0-0.676-0.975-1.352-1.95-2.029-2.924-0.001 0.975 0 1.949-0 2.924-0.249 0-0.497 0-0.746 0-0-1.418 0-2.835 0-4.253z"></path>
<path fill="#1a1919" d="M6.565 8.382c0.659-0 1.318-0 1.978 0 0 0.15 0 0.3 0 0.45-0.247 0-0.495 0-0.741 0-0.001 0.918 0 1.836-0.001 2.754-0.168 0-0.336 0-0.505 0 0-0.918 0-1.836 0-2.754-0.244-0-0.487 0-0.731 0-0-0.15-0-0.3 0-0.45z"></path>
<path fill="#1a1919" d="M9.004 8.382c0.168-0 0.337-0 0.505 0 0.001 0.707 0 1.413 0 2.12 0.012 0.227 0.125 0.475 0.343 0.57 0.142 0.062 0.307 0.064 0.452 0.013 0.237-0.085 0.362-0.347 0.373-0.585 0-0.706-0-1.412 0-2.117 0.168-0 0.336-0 0.505 0 0 0.679-0 1.358 0 2.037 0.002 0.259-0.056 0.521-0.182 0.748-0.241 0.349-0.697 0.537-1.113 0.449-0.274-0.045-0.523-0.208-0.69-0.428-0.138-0.23-0.197-0.504-0.195-0.77 0.001-0.679 0-1.357 0-2.036z"></path>
<path fill="#1a1919" d="M11.937 11.585c0-1.068-0-2.136 0-3.203 0.412 0.003 0.825-0.008 1.237 0.006 0.235 0.005 0.463 0.102 0.628 0.27 0.326 0.336 0.325 0.917-0 1.254-0.073 0.071-0.16 0.124-0.245 0.18 0.186 0.498 0.374 0.995 0.561 1.493-0.184 0-0.367 0-0.551-0-0.172-0.464-0.344-0.929-0.517-1.393-0.202 0-0.404 0-0.606 0-0 0.465 0 0.929 0 1.393-0.169 0-0.338 0-0.506 0M12.443 8.888c0 0.262-0 0.525 0 0.787 0.236-0.003 0.472 0.006 0.707-0.005 0.169 0.002 0.315-0.124 0.381-0.272 0.087-0.24-0.136-0.506-0.379-0.504-0.236-0.011-0.473-0.003-0.709-0.005z"></path>
<path fill="#1a1919" d="M14.646 8.382c0.168-0 0.337-0 0.506 0 0.39 0.681 0.779 1.363 1.169 2.045 0-0.681 0-1.363 0-2.045 0.168-0 0.337-0 0.506 0 0 1.068 0 2.135 0 3.203-0.15 0-0.3 0-0.449 0-0.409-0.722-0.816-1.446-1.226-2.168-0.001 0.723 0 1.445-0 2.168-0.168 0-0.337 0-0.505 0 0-1.068-0-2.135 0-3.203z"></path>
<path fill="#1a1919" d="M10.18 13.463c0.255-0.039 0.537-0.026 0.752 0.13 0.137 0.105 0.263 0.231 0.338 0.388 0.274 0.606 0.292 1.306 0.116 1.942-0.101 0.328-0.302 0.66-0.64 0.782-0.348 0.081-0.769 0.087-1.043-0.18-0.229-0.187-0.314-0.482-0.393-0.754-0.172-0.677-0.096-1.436 0.304-2.020 0.148-0.156 0.345-0.279 0.565-0.287M10.093 14.026c-0.117 0.104-0.206 0.242-0.246 0.394-0.122 0.405-0.145 0.848-0.031 1.256 0.059 0.18 0.114 0.387 0.287 0.491 0.164 0.104 0.368 0.069 0.542 0.010 0.092-0.107 0.19-0.216 0.23-0.354 0.173-0.53 0.178-1.138-0.085-1.639-0.138-0.238-0.467-0.275-0.697-0.158z"></path>
<path fill="#1a1919" d="M12.196 13.498c0.168-0 0.336 0 0.505-0 0.391 0.681 0.779 1.363 1.169 2.044 0.001-0.681 0-1.363 0-2.044 0.169 0 0.337 0 0.506 0 0 1.067-0 2.135 0 3.203-0.15 0-0.3 0-0.451-0-0.407-0.723-0.816-1.446-1.224-2.168 0 0.723 0 1.446 0 2.169-0.169 0-0.337 0-0.506 0 0-1.068 0-2.135 0-3.203z"></path>
<path fill="#1a1919" d="M8.166 18.5c0.345 0.001 0.69-0.002 1.035 0.001 0.174 0.008 0.353 0.006 0.518 0.067 0.22 0.089 0.406 0.264 0.488 0.489 0.189 0.418-0.012 0.952-0.422 1.153 0.187 0.497 0.374 0.995 0.561 1.492-0.184 0-0.367 0-0.55 0-0.173-0.465-0.345-0.929-0.518-1.394-0.202 0-0.404 0-0.606 0-0 0.465 0 0.929-0 1.394-0.168 0-0.337 0-0.505 0-0.001-1.068 0-2.136-0-3.204M8.672 19.007c-0 0.262-0 0.524 0 0.786 0.244-0.004 0.49 0.008 0.734-0.007 0.156-0.009 0.287-0.128 0.352-0.265 0.094-0.247-0.14-0.518-0.391-0.512-0.232-0.007-0.464-0.001-0.695-0.003z"></path>
<path fill="#1a1919" d="M10.875 18.5c0.629 0 1.259 0 1.888 0 0 0.169 0 0.337 0 0.506-0.461 0-0.921 0-1.382 0 0 0.262 0 0.524 0 0.786 0.311 0 0.622 0 0.933 0 0 0.172 0 0.345 0 0.517-0.311 0-0.622-0-0.933 0 0 0.292 0 0.584 0 0.876 0.495 0 0.989 0 1.484 0 0 0.172 0 0.344 0 0.517-0.664 0-1.327 0-1.99 0 0-1.068 0-2.136 0-3.204z"></path>
<path fill="#1a1919" d="M13.393 18.5c0.455 0.009 0.911-0.022 1.365 0.026 0.289 0.061 0.474 0.324 0.612 0.566 0.259 0.586 0.274 1.276 0.050 1.876-0.076 0.215-0.228 0.392-0.394 0.544-0.147 0.138-0.354 0.193-0.551 0.193-0.36-0.001-0.721-0.001-1.081-0-0.001-1.068-0-2.136-0-3.204M13.899 19.007c0 0.726 0 1.453 0 2.18 0.232-0.006 0.467 0.019 0.696-0.025 0.18-0.048 0.279-0.228 0.352-0.385 0.146-0.416 0.141-0.878 0.028-1.301-0.060-0.195-0.177-0.417-0.399-0.454-0.223-0.034-0.451-0.008-0.676-0.015z"></path>
<path fill="#fffffe" d="M3.345 0.195c0.113-0.019 0.227-0.034 0.343-0.036 5.528 0 11.055 0 16.583 0 0.315-0.006 0.636 0.091 0.86 0.319 0.185 0.202 0.336 0.457 0.341 0.738-0 7.217 0 14.433-0 21.649-0.024 0.39-0.278 0.76-0.628 0.932-0.171 0.1-0.376 0.106-0.569 0.118-5.368 0-10.735 0-16.102 0-0.294-0.004-0.591 0.020-0.88-0.046-0.378-0.111-0.667-0.438-0.773-0.812-0.042-0.154-0.025-0.316-0.028-0.474-0-7.082 0.001-14.163-0-21.244-0.032-0.516 0.353-1.024 0.854-1.144M3.339 0.435c-0.343 0.115-0.607 0.455-0.618 0.818 0 7.191 0 14.383 0 21.574 0.013 0.358 0.27 0.689 0.604 0.81 0.197 0.056 0.404 0.052 0.607 0.050 5.378 0 10.756-0 16.134 0 0.247 0 0.517 0.012 0.733-0.129 0.251-0.152 0.433-0.435 0.442-0.731 0.001-7.191 0-14.381 0-21.572-0.011-0.356-0.262-0.687-0.593-0.812-0.214-0.068-0.442-0.053-0.664-0.054-5.432 0-10.865 0-16.297 0-0.118 0.002-0.236 0.015-0.349 0.046z"></path>
<path fill="#fffffe" d="M3.536 0.899c0.131-0.023 0.264-0.011 0.395-0.013 5.447-0 10.893 0 16.339-0 0.15-0.007 0.316 0.041 0.4 0.174 0.1 0.126 0.071 0.292 0.075 0.44-0.001 7.095 0 14.191-0.001 21.286 0.002 0.176-0.131 0.352-0.306 0.384-0.135 0.029-0.275 0.016-0.412 0.018-5.446 0-10.892 0-16.337 0-0.148 0.002-0.313-0.042-0.395-0.176-0.097-0.123-0.071-0.286-0.073-0.431 0.001-7.095 0-14.191 0-21.286-0.005-0.184 0.134-0.363 0.316-0.396M14.078 2.236c-0.291 0.014-0.592 0.056-0.844 0.214-0.48 0.253-0.759 0.773-0.859 1.29-0.106 0.55-0.111 1.139 0.102 1.666 0.136 0.332 0.303 0.677 0.609 0.886 0.296 0.243 0.684 0.349 1.063 0.337 0.46 0.006 0.91-0.21 1.209-0.556 0.341-0.477 0.553-1.061 0.521-1.653 0.019-0.38-0.057-0.763-0.218-1.108-0.145-0.306-0.319-0.62-0.62-0.798-0.276-0.205-0.623-0.281-0.961-0.279M7.906 2.305c0 1.418-0 2.835 0 4.253 0.249 0 0.497 0 0.746 0 0-0.975-0-1.95 0-2.924 0.677 0.974 1.353 1.949 2.029 2.924 0.219 0.001 0.438 0 0.657 0-0-1.418 0-2.835 0-4.253-0.244-0-0.487-0-0.731 0-0 0.935 0 1.87-0 2.805-0.652-0.935-1.303-1.871-1.956-2.805-0.249 0-0.497 0-0.745 0M6.565 8.382c-0 0.15-0 0.3 0 0.45 0.243 0 0.487-0 0.731 0 0 0.918 0 1.836 0 2.754 0.169 0 0.337 0 0.505 0 0.001-0.918-0-1.836 0.001-2.754 0.247 0 0.494 0 0.741 0-0-0.15-0-0.3-0-0.45-0.659-0-1.318-0-1.978 0M9.004 8.382c-0 0.679 0 1.357-0 2.036-0.002 0.267 0.057 0.54 0.195 0.77 0.167 0.22 0.416 0.383 0.69 0.428 0.416 0.088 0.872-0.1 1.113-0.449 0.126-0.227 0.184-0.49 0.182-0.748-0.001-0.679-0-1.358-0-2.037-0.169-0-0.337-0-0.505 0-0.001 0.706 0 1.412-0 2.117-0.011 0.238-0.136 0.5-0.373 0.585-0.145 0.052-0.311 0.049-0.452-0.013-0.218-0.095-0.331-0.344-0.343-0.57-0-0.707 0-1.413-0-2.12-0.168-0-0.337-0-0.505 0M11.937 11.585c0.169 0 0.337 0 0.506 0 0-0.465-0-0.929 0-1.393 0.202-0 0.404 0 0.606-0 0.173 0.464 0.345 0.929 0.517 1.393 0.184 0.001 0.367 0 0.551 0-0.186-0.498-0.374-0.995-0.561-1.493 0.085-0.056 0.172-0.109 0.245-0.18 0.326-0.337 0.326-0.917 0-1.254-0.165-0.167-0.393-0.265-0.628-0.27-0.412-0.014-0.825-0.003-1.237-0.006-0.001 1.067 0 2.135-0 3.203M14.646 8.382c-0 1.068 0 2.135 0 3.203 0.168 0 0.337 0 0.505 0 0-0.723-0-1.445 0-2.168 0.409 0.722 0.816 1.446 1.226 2.168 0.15 0 0.299 0 0.449 0 0-1.068 0-2.135 0-3.203-0.169-0-0.337-0-0.506 0-0 0.681 0 1.363-0 2.045-0.39-0.681-0.779-1.363-1.169-2.045-0.169-0-0.337-0-0.506 0M10.18 13.463c-0.22 0.009-0.418 0.132-0.565 0.287-0.401 0.584-0.477 1.343-0.304 2.020 0.079 0.273 0.164 0.568 0.393 0.754 0.274 0.266 0.695 0.26 1.043 0.18 0.339-0.122 0.539-0.454 0.64-0.782 0.176-0.636 0.157-1.336-0.116-1.942-0.075-0.157-0.201-0.283-0.338-0.388-0.216-0.156-0.498-0.169-0.752-0.13M12.196 13.498c0 1.068 0 2.135 0 3.203 0.169 0 0.337 0 0.506 0 0-0.723 0-1.446 0-2.169 0.408 0.722 0.817 1.445 1.224 2.168 0.15 0.001 0.3 0.001 0.451 0-0-1.067 0-2.135 0-3.203-0.169 0-0.337 0-0.506 0-0 0.681 0 1.363-0 2.044-0.39-0.681-0.778-1.363-1.169-2.044-0.168 0-0.336 0-0.505 0M8.166 18.5c0 1.068-0 2.136 0 3.204 0.168 0 0.337 0 0.505 0 0-0.465 0-0.929 0-1.394 0.202 0 0.405 0 0.606 0 0.173 0.465 0.345 0.929 0.518 1.394 0.183-0 0.366 0 0.55-0-0.187-0.497-0.374-0.995-0.561-1.492 0.41-0.201 0.611-0.735 0.422-1.153-0.082-0.225-0.268-0.401-0.488-0.489-0.165-0.061-0.345-0.059-0.518-0.067-0.345-0.003-0.69-0-1.035-0.001M10.875 18.5c-0 1.068 0 2.136-0 3.204 0.663 0 1.326 0 1.99 0 0-0.173 0-0.345 0-0.517-0.495-0-0.989 0-1.484-0 0-0.292 0-0.584 0-0.876 0.311-0.001 0.622 0 0.933-0-0-0.172 0-0.345-0-0.517-0.311-0-0.622 0-0.933-0 0-0.262 0-0.524 0-0.786 0.461-0 0.921 0 1.382-0 0-0.169 0-0.337 0-0.506-0.63 0-1.259 0-1.888 0M13.393 18.5c0 1.068-0 2.136 0 3.204 0.36-0 0.721-0 1.081 0 0.197 0 0.404-0.055 0.551-0.193 0.166-0.151 0.318-0.329 0.394-0.544 0.224-0.6 0.209-1.29-0.050-1.876-0.137-0.242-0.323-0.504-0.612-0.566-0.453-0.048-0.91-0.017-1.365-0.026z"></path>
<path fill="#fffffe" d="M13.994 3.006c0.321-0.048 0.666 0.076 0.849 0.351 0.19 0.319 0.291 0.692 0.272 1.065 0.008 0.302-0.047 0.606-0.162 0.885-0.105 0.287-0.374 0.521-0.684 0.548-0.333 0.056-0.695-0.059-0.894-0.34-0.205-0.325-0.314-0.71-0.294-1.094-0.018-0.383 0.094-0.768 0.304-1.086 0.15-0.184 0.367-0.321 0.609-0.328z"></path>
<path fill="#fffffe" d="M12.443 8.888c0.236 0.002 0.473-0.006 0.709 0.005 0.244-0.001 0.466 0.264 0.379 0.504-0.066 0.148-0.212 0.274-0.381 0.272-0.236 0.012-0.471 0.002-0.707 0.005-0-0.262 0-0.525 0-0.787z"></path>
<path fill="#fffffe" d="M10.093 14.026c0.23-0.118 0.559-0.081 0.697 0.158 0.262 0.502 0.257 1.11 0.085 1.639-0.040 0.139-0.138 0.247-0.23 0.354-0.174 0.059-0.378 0.094-0.542-0.010-0.174-0.105-0.228-0.312-0.287-0.491-0.114-0.409-0.091-0.852 0.031-1.256 0.041-0.152 0.129-0.29 0.246-0.394z"></path>
<path fill="#fffffe" d="M8.672 19.007c0.231 0.002 0.463-0.004 0.695 0.003 0.251-0.006 0.485 0.265 0.391 0.512-0.064 0.137-0.195 0.256-0.352 0.265-0.244 0.015-0.49 0.003-0.734 0.007-0-0.262-0-0.525 0-0.786z"></path>
<path fill="#fffffe" d="M13.899 19.007c0.225 0.007 0.453-0.018 0.676 0.015 0.222 0.037 0.339 0.259 0.399 0.454 0.113 0.423 0.118 0.885-0.028 1.301-0.073 0.157-0.172 0.336-0.352 0.385-0.229 0.043-0.464 0.018-0.696 0.025 0-0.727 0-1.453 0-2.18z"></path>
</svg>
