<?xml version="1.0" encoding="utf-8"?>
<!-- Generated by IcoMoon.io -->
<!DOCTYPE svg PUBLIC "-//W3C//DTD SVG 1.1//EN" "http://www.w3.org/Graphics/SVG/1.1/DTD/svg11.dtd">
<svg version="1.1" xmlns="http://www.w3.org/2000/svg" xmlns:xlink="http://www.w3.org/1999/xlink" width="24" height="24" viewBox="0 0 24 24">
<path fill="#fff" d="M16.917 23.937l6.986-6.986v-9.903l-6.986-6.986h-9.903l-6.986 6.986v9.903l6.986 6.986h9.903z"></path>
<path fill="#e22526" d="M16.721 23.398l6.643-6.643v-9.51l-6.643-6.643h-9.51l-6.643 6.643v9.486l6.667 6.667zM17.647 8.122h2.58c1.042 0 1.805 0.933 1.805 2.192 0 1.030-0.448 1.89-1.126 2.156-0.206 0.085-0.485 0.133-0.824 0.17h-1.308v3.513h-1.126zM18.761 11.502h1.163c0.666 0.012 0.957-0.339 0.957-1.139 0-0.715-0.291-1.114-0.812-1.114h-1.308zM13.997 16.335c-0.703 0-1.429-0.388-1.744-0.945-0.194-0.363-0.339-0.824-0.424-1.369-0.085-0.569-0.121-1.127-0.121-1.72 0-1.49 0.23-2.786 0.618-3.464 0.315-0.569 0.981-0.921 1.72-0.921 0.678 0 1.284 0.303 1.611 0.8 0.448 0.678 0.69 1.805 0.69 3.137 0 1.272-0.206 2.556-0.533 3.331-0.291 0.654-0.993 1.114-1.744 1.151zM14.942 14.3c0.17-0.606 0.267-1.466 0.267-2.277 0-0.787-0.085-1.55-0.242-2.108-0.073-0.279-0.206-0.509-0.388-0.666-0.145-0.121-0.363-0.194-0.581-0.194-0.424 0-0.739 0.291-0.896 0.848s-0.279 1.587-0.279 2.362c0 0.545 0.097 1.417 0.23 1.974 0.145 0.642 0.448 0.945 0.921 0.945 0.497 0 0.799-0.279 0.969-0.884zM3.016 13.827c0.036 0.86 0.424 1.332 1.102 1.332 0.533 0 1.030-0.533 1.030-1.114 0-0.194-0.061-0.46-0.145-0.666-0.23-0.569-0.557-0.921-1.223-1.26-1.127-0.593-1.248-0.69-1.502-1.26-0.109-0.254-0.17-0.545-0.17-0.836 0-1.139 0.884-2.047 1.999-2.047 1.066 0 1.999 0.884 1.999 1.889v0.085h-1.114c-0.061-0.484-0.436-0.836-0.896-0.836-0.472 0-0.872 0.388-0.872 0.848 0 0.424 0.23 0.678 0.981 1.078 1.005 0.545 1.454 0.969 1.817 1.72 0.194 0.4 0.291 0.836 0.291 1.272 0 1.248-0.981 2.253-2.192 2.253-1.296 0-2.192-0.957-2.289-2.459zM8.151 9.091h-1.429v-1.017l4.021 0.012v1.005h-1.454v7.062h-1.139v-7.062z"></path>
</svg>
