<?xml version="1.0" encoding="utf-8"?>
<!-- Generated by IcoMoon.io -->
<!DOCTYPE svg PUBLIC "-//W3C//DTD SVG 1.1//EN" "http://www.w3.org/Graphics/SVG/1.1/DTD/svg11.dtd">
<svg version="1.1" xmlns="http://www.w3.org/2000/svg" xmlns:xlink="http://www.w3.org/1999/xlink" width="24" height="24" viewBox="0 0 24 24">
<path fill="#fff" d="M21.637 16.173c1.635 0 2.196-0.561 2.196-2.196v-3.953c0-1.635-0.561-2.196-2.196-2.196h-19.375c-1.635 0-2.196 0.561-2.196 2.196v3.953c0 1.635 0.561 2.196 2.196 2.196h19.375z"></path>
<path fill="#231f20" d="M9.699 12.958v0 0 0 0 0 0 0 0 0 0 0 0 0 0zM9.698 12.958v0 0 0 0 0 0zM9.699 12.958v0 0zM9.699 12.958v0 0 0zM9.699 12.958v0 0zM3.26 13.048c0.13 0.165 0.397 0.283 0.634 0.283 0.275 0 0.567-0.146 0.693-0.358 0.146-0.24 0.224-0.606 0.224-1.035 0-0.433-0.090-0.799-0.252-1.015-0.146-0.189-0.413-0.315-0.673-0.315-0.574 0-0.889 0.488-0.889 1.377 0 0.197 0.016 0.386 0.051 0.563 0.035 0.189 0.11 0.362 0.212 0.5zM4.413 11.982c0 0.634-0.173 0.948-0.519 0.948-0.201 0-0.35-0.11-0.409-0.307-0.051-0.169-0.087-0.433-0.087-0.657 0-0.287 0.047-0.571 0.126-0.724 0.067-0.138 0.228-0.232 0.394-0.232 0.327 0 0.496 0.327 0.496 0.972zM5.165 10.668v2.621h0.401v-1.79l1.011 1.79h0.346v-2.621h-0.401v1.672l-0.944-1.672zM7.317 10.668v2.621h1.602v-0.417h-1.192v-0.728h0.755v-0.413h-0.755v-0.653h1.102v-0.409zM10.047 10.668l0.366 2.621h0.366l0.417-1.657 0.413 1.657h0.366l0.374-2.621h-0.409l-0.209 1.413-0.346-1.413h-0.366l-0.358 1.413-0.197-1.413zM12.285 13.288h0.429l0.268-0.755h0.815l0.264 0.755h0.433l-0.897-2.621h-0.405zM13.391 11.34l0.268 0.783h-0.535zM15.36 12.139v1.149h0.413v-1.137l0.909-1.483h-0.484l-0.63 1.019-0.626-1.019h-0.484zM21.637 15.636c1.244 0 1.659-0.415 1.659-1.659v-3.953c0-1.245-0.415-1.659-1.659-1.659h-19.375c-1.245 0-1.659 0.415-1.659 1.659v3.953c0 1.244 0.415 1.659 1.659 1.659zM17.879 8.999l4.343 3.001-4.343 3.001c-0.244 0.171-0.464 0.171-0.683 0.024-0.098-0.098-0.244-0.268-0.146-0.586l0.268-0.805h-15.202v-3.27h15.202l-0.268-0.805c-0.097-0.293 0.049-0.488 0.146-0.586 0.22-0.146 0.439-0.146 0.683 0.024z"></path>
<path fill="#fff" d="M17.318 10.365v0 0 0 0 0 0 0 0 0zM17.318 10.365v0 0 0 0 0 0zM17.318 10.365v0 0 0zM17.318 10.365v0 0 0zM17.318 10.365v0 0 0z"></path>
</svg>
