<svg xmlns="http://www.w3.org/2000/svg" width="24" height="24">
    <path d="M4.527 0h14.972a2.043 2.043 0 0 1 1.546 1.532v20.905c-.178.748-.774 1.436-1.573 1.507l-.131-.063.122-.035c.817-.146 1.48-.895 1.45-1.738-.001-6.769.005-13.538-.003-20.307.004-.918-.84-1.713-1.753-1.673C14.4.125 9.644.125 4.887.127 3.973.085 3.124.88 3.13 1.8c-.007 6.771-.003 13.542-.003 20.312-.032.868.684 1.654 1.543 1.737l-.08.031-.174.069a2.045 2.045 0 0 1-1.417-1.481V1.537A2.03 2.03 0 0 1 4.526-.001z"/>
    <path d="M4.567.402C9.396.333 14.232.393 19.064.372c.806-.07 1.589.607 1.587 1.425.008 6.771.003 13.544.003 20.315.033.802-.693 1.531-1.497 1.49-4.786-.001-9.573.005-14.358-.002-.777.004-1.454-.715-1.421-1.489V1.888C3.343 1.19 3.881.522 4.568.402zm.089.631c-.389.077-.669.463-.642.855-.001 6.742-.003 13.483.001 20.224-.03.474.404.89.874.853 4.756 0 9.512.001 14.268-.001a.826.826 0 0 0 .858-.852c.005-6.742.003-13.482.002-20.224.042-.514-.448-.946-.951-.878-4.803.015-9.609-.031-14.41.023z"/>
    <path d="M6.616 2.598l.482.001c.003.435 0 .87.002 1.306.346-.433.678-.878 1.029-1.307.205.001.41.001.614.003-.325.429-.661.851-.989 1.278.345.638.705 1.268 1.048 1.906l-.564.002c-.278-.501-.547-1.006-.827-1.506-.478.368-.271.99-.313 1.505h-.482a846.946 846.946 0 0 1 0-3.188zM9.577 2.605c.606-.002 1.213-.002 1.82 0l-.002.511c-.446.002-.891-.002-1.335.002v.793l.939.002v.482l-.939.003v.908c.484.002.967-.002 1.451.002a38.4 38.4 0 0 0 0 .48c-.645.003-1.289.003-1.934 0-.003-1.06-.003-2.12 0-3.181zM12.421 2.606a138.17 138.17 0 0 1 1.821 0l-.001.509c-.445.003-.891-.001-1.335.003-.002.264-.002.529 0 .793l.937.002.001.483-.937.002c-.003.302-.003.604 0 .907.484.003.967-.001 1.45.003v.48c-.645.002-1.289.004-1.934 0a1685.4 1685.4 0 0 1 0-3.18zM15.268 2.599c.559.043 1.165-.115 1.691.129.533.265.578 1.069.121 1.428-.362.323-.878.221-1.32.23-.02.466-.004.933-.011 1.399h-.481a677.132 677.132 0 0 1 0-3.187zm.484.489c-.005.275-.006.551.011.826.284-.009.571.012.855-.019.32-.111.367-.627.044-.769-.294-.082-.608-.027-.91-.039zM10.503 7.763c.426-.722 1.592-.51 1.846.257-.156.058-.313.115-.469.171-.18-.418-.832-.512-1.018-.051-.195.574-.252 1.313.131 1.823.344.396.999.005.906-.485a34.004 34.004 0 0 0-.554-.005l.002-.484c.34-.003.681-.003 1.022-.001-.013.419.084.904-.219 1.248-.411.538-1.351.483-1.664-.128-.359-.717-.336-1.629.017-2.344zM5.883 7.37c.518.037 1.071-.097 1.564.099.619.311.632 1.273.003 1.584.186.5.379.996.564 1.497h-.51c-.172-.462-.34-.926-.513-1.387-.208-.003-.416-.003-.624-.003-.003.463.001.927-.002 1.389h-.483c-.001-1.06-.002-2.12.001-3.18zm.483.51c-.002.256-.002.512-.001.768.255-.002.512.018.766-.012.284-.06.448-.505.164-.671-.283-.149-.623-.066-.929-.085zM8.87 7.371l.482.001c.003 1.061.003 2.122.001 3.183l-.483.002c-.002-1.062-.001-2.124 0-3.186zM13.254 7.371l.482-.001c.003.427-.001.853.002 1.279h1.165c.002-.427-.001-.853.002-1.279l.481.001c.003 1.061.003 2.122.001 3.184a38.721 38.721 0 0 0-.482 0c-.003-.465 0-.928-.002-1.393h-1.165c-.004.465.001.929-.003 1.394l-.482-.002c-.001-1.061-.002-2.122.001-3.183zM16.156 7.372c.645-.003 1.289-.003 1.934 0l-.001.453c-.233.001-.466 0-.7-.004-.024.91-.002 1.823-.011 2.733l-.483.002c-.004-.91.002-1.82-.002-2.73l-.738-.002v-.452zM5.652 13.642c.585-.735 1.17-1.472 1.759-2.205 2.542 2.008 5.072 4.029 7.611 6.042.137-.511-.015-1.204.477-1.546.26-.195.605-.002.689.281.744 1.98 1.466 3.97 2.202 5.954-2.119-.358-4.245-.683-6.364-1.044-.422-.072-.424-.632-.12-.849.392-.278.861-.424 1.286-.644-2.515-1.995-5.026-3.992-7.54-5.987z"/>
    <path fill="#fff" d="M3.131 1.8C3.125.881 3.974.085 4.888.127c4.757-.002 9.513-.002 14.27.001.913-.041 1.757.755 1.753 1.673.008 6.769.002 13.538.003 20.307.03.843-.633 1.592-1.45 1.738-4.93-.025-9.863-.034-14.792.004-.859-.083-1.574-.869-1.543-1.737 0-6.771-.005-13.542.003-20.312zM4.567.402c-.687.12-1.225.788-1.19 1.486v20.223c-.032.774.644 1.492 1.421 1.489 4.786.006 9.572.001 14.358.002.804.042 1.53-.688 1.497-1.49 0-6.771.005-13.544-.003-20.315.002-.817-.781-1.495-1.587-1.425-4.832.021-9.668-.04-14.497.03z"/>
    <path fill="#fff" d="M4.656 1.033c4.801-.053 9.607-.007 14.41-.023.503-.068.993.364.951.878.001 6.742.003 13.482-.002 20.224a.826.826 0 0 1-.858.852c-4.756.002-9.512.001-14.268.001-.47.037-.904-.379-.874-.853-.004-6.741-.002-13.482-.001-20.224-.027-.392.254-.779.642-.855zm1.96 1.565a846.946 846.946 0 0 0 0 3.188h.482c.042-.515-.165-1.137.313-1.505.281.5.549 1.005.827 1.506l.564-.002c-.343-.639-.703-1.269-1.048-1.906.328-.428.664-.849.989-1.278l-.614-.003c-.351.429-.683.874-1.029 1.307-.002-.436.001-.871-.002-1.306l-.482-.001zm2.961.007a562.154 562.154 0 0 0 0 3.181c.644.003 1.288.003 1.934 0a38.4 38.4 0 0 1 0-.48c-.484-.004-.967 0-1.451-.002v-.908l.939-.003a38.721 38.721 0 0 1 0-.482l-.939-.002v-.793c.445-.004.89 0 1.335-.002l.002-.511c-.607-.002-1.214-.002-1.82 0zm2.844.001a1685.4 1685.4 0 0 0 0 3.18c.645.004 1.289.002 1.934 0v-.48c-.483-.004-.966 0-1.45-.003a45.704 45.704 0 0 1 0-.907l.937-.002-.001-.483-.937-.002a52.405 52.405 0 0 1 0-.793c.445-.004.891 0 1.335-.003l.001-.509a138.17 138.17 0 0 0-1.821 0zm2.847-.007a677.132 677.132 0 0 0 0 3.187h.481c.007-.466-.009-.933.011-1.399.442-.009.958.093 1.32-.23.457-.359.412-1.163-.121-1.428-.526-.244-1.131-.086-1.691-.129zm-4.765 5.164c-.353.715-.376 1.627-.017 2.344.313.611 1.253.666 1.664.128.303-.344.207-.829.219-1.248a69.62 69.62 0 0 0-1.022.001l-.002.484.554.005c.093.489-.562.881-.906.485-.383-.51-.326-1.249-.131-1.823.186-.461.837-.366 1.018.051.156-.056.313-.113.469-.171-.254-.767-1.42-.979-1.846-.257zm-4.62-.393a842.7 842.7 0 0 0-.001 3.18h.483c.003-.463-.001-.927.002-1.389.208 0 .417 0 .624.003.173.461.341.925.513 1.387h.51c-.185-.501-.378-.997-.564-1.497.63-.311.616-1.273-.003-1.584-.494-.196-1.047-.062-1.564-.099zm2.987.001c-.001 1.062-.002 2.124 0 3.186l.483-.002c.002-1.061.002-2.122-.001-3.183l-.482-.001zm4.384 0c-.003 1.061-.002 2.122-.001 3.183l.482.002c.004-.465-.001-.929.003-1.394h1.165c.002.465-.001.928.002 1.393h.482c.002-1.062.002-2.123-.001-3.184l-.481-.001c-.003.427 0 .853-.002 1.279h-1.165c-.003-.427.001-.853-.002-1.279l-.482.001zm2.902.001v.452l.738.002c.004.91-.002 1.82.002 2.73l.483-.002c.009-.91-.014-1.823.011-2.733.234.004.467.005.7.004l.001-.453c-.645-.003-1.289-.003-1.934 0zm-10.504 6.27l7.54 5.987c-.425.22-.894.366-1.286.644-.304.217-.302.777.12.849 2.118.361 4.244.686 6.364 1.044-.735-1.984-1.457-3.974-2.202-5.954-.084-.282-.429-.476-.689-.281-.493.343-.34 1.036-.477 1.546-2.538-2.012-5.069-4.034-7.611-6.042a514.37 514.37 0 0 0-1.759 2.205z"/>
    <path fill="#fff" d="M15.752 3.088c.302.012.616-.043.91.039.323.142.276.658-.044.769-.284.031-.571.01-.855.019a10.837 10.837 0 0 1-.011-.826zM6.366 7.88c.307.019.646-.064.929.085.283.166.12.611-.164.671-.254.03-.511.01-.766.012-.001-.256-.001-.512.001-.768z"/>
    <path fill="#555" d="M4.671 23.849c4.93-.038 9.863-.029 14.792-.004l-.122.035c-4.916.018-9.835.018-14.751-.001l.08-.031z"/>
    <path fill="#050505" opacity=".75" d="M4.417 23.949l.174-.069c4.916.019 9.835.019 14.751.001l.131.063.113.056H4.548l-.131-.051z"/>
</svg>
