<svg xmlns="http://www.w3.org/2000/svg" width="24" height="24">
    <path fill="#035ca1" d="M10.539 0h2.925c3.817.533 7.363 2.87 9.154 6.311.746 1.305 1.098 2.779 1.382 4.242v2.898c-.529 3.822-2.866 7.375-6.311 9.167-1.3.743-2.767 1.091-4.223 1.382h-.169c-.003-5.093-.025-10.185-.029-15.278.839-.004 1.679.003 2.518-.006-1.226-2.247-2.444-4.5-3.699-6.732-1.218 2.24-2.448 4.474-3.648 6.724.799.006 1.598.001 2.397.003.005 5.097.008 10.193.018 15.29h-.318c-.776-.171-1.561-.315-2.318-.563-4.31-1.376-7.677-5.385-8.151-9.904-.005-.35-.038-.698-.069-1.046v-.982a12.6 12.6 0 0 0 .083-1.196c.475-3.885 3.06-7.406 6.571-9.11C7.857.553 9.208.267 10.537 0z"/>
    <path fill="#fff" d="M8.44 8.707c1.2-2.25 2.43-4.483 3.648-6.724 1.254 2.231 2.473 4.485 3.699 6.732-.839.009-1.679.003-2.518.006.004 5.093.026 10.185.029 15.278h-2.442c-.01-5.097-.013-10.193-.018-15.29-.799-.001-1.598.004-2.397-.003zM0 10.49l.083-.18c-.006.4-.039.799-.083 1.196V10.49zM0 12.488c.031.348.064.695.069 1.046L0 13.743v-1.254z"/>
</svg>
