<?xml version="1.0" encoding="utf-8"?>
<!-- Generator: Adobe Illustrator 16.0.2, SVG Export Plug-In . SVG Version: 6.00 Build 0)  -->
<!DOCTYPE svg PUBLIC "-//W3C//DTD SVG 1.1//EN" "http://www.w3.org/Graphics/SVG/1.1/DTD/svg11.dtd">
<svg version="1.1"
	 id="Layer_1" sodipodi:docname="Signal_B14_50.svg" inkscape:version="0.46" xmlns:dc="http://purl.org/dc/elements/1.1/" xmlns:cc="http://creativecommons.org/ns#" xmlns:rdf="http://www.w3.org/1999/02/22-rdf-syntax-ns#" xmlns:svg="http://www.w3.org/2000/svg" xmlns:inkscape="http://www.inkscape.org/namespaces/inkscape" xmlns:sodipodi="http://sodipodi.sourceforge.net/DTD/sodipodi-0.dtd" inkscape:output_extension="org.inkscape.output.svg.inkscape" sodipodi:version="0.32"
	 xmlns="http://www.w3.org/2000/svg" xmlns:xlink="http://www.w3.org/1999/xlink" x="0px" y="0px" width="576px" height="576px"
	 viewBox="0 0 576 576" enable-background="new 0 0 576 576" xml:space="preserve">
<defs>
	
	
		<inkscape:perspective  id="perspective2469" inkscape:persp3d-origin="288 : 192 : 1" sodipodi:type="inkscape:persp3d" inkscape:vp_x="0 : 288 : 1" inkscape:vp_y="0 : 1000 : 0" inkscape:vp_z="576 : 288 : 1">
		</inkscape:perspective>
</defs>
<sodipodi:namedview  id="base" inkscape:current-layer="Layer_1" inkscape:window-y="25" inkscape:window-x="0" inkscape:window-height="948" inkscape:window-width="1280" inkscape:pageshadow="2" inkscape:pageopacity="0.0" objecttolerance="10.0" inkscape:cy="311.23092" borderopacity="1.0" showgrid="false" inkscape:cx="123.15811" bordercolor="#666666" pagecolor="#ffffff" inkscape:zoom="0.54954702" guidetolerance="10.0" gridtolerance="10.0">
	</sodipodi:namedview>
<circle id="circle2448" fill="#FFFFFF" stroke="#000000" stroke-linecap="round" stroke-linejoin="round" cx="287.057" cy="287.057" r="286.969"/>
<circle id="circle2450" fill="#FF0000" stroke="#FF0000" stroke-width="0.1764" stroke-linecap="round" stroke-linejoin="round" cx="287.057" cy="287.057" r="273.982"/>
<circle id="circle2452" fill="#FFFFFF" stroke="#FF0000" stroke-width="0.1764" stroke-linecap="round" stroke-linejoin="round" cx="287.057" cy="287.057" r="192.438"/>
<g>
	<rect x="67.506" y="193.612" fill="none" width="427.988" height="209.88"/>
	<path d="M250.303,193.754l-0.142,39.528h-70.192l-4.831,35.167c6.629-1.875,13.641-2.673,21.029-2.392
		c6.914-0.187,13.971,0.563,21.171,2.25c10.419,3.284,19.702,9.051,27.85,17.302c11.271,12.192,17.666,25.696,19.182,40.513
		c0.093,2.158,0.142,4.269,0.142,6.33c0,9.003-1.186,16.788-3.552,23.352c-4.358,10.035-10.326,19.038-17.903,27.008
		c-12.504,11.63-27.756,17.443-45.753,17.443h-2.842l-13.072-0.844c-13.641-1.499-25.483-6.236-35.522-14.208
		c-12.979-11.816-20.983-23.96-24.013-36.434l40.922-10.269c1.23,5.534,4.451,10.504,9.662,14.911
		c7.861,5.722,18.944,6.893,33.249,3.517c11.84-4.782,17.381-13.128,16.625-25.039c0.284-10.783-4.643-18.428-14.777-22.929
		c-7.011-2.062-14.919-2.625-23.729-1.688c-6.727,1.407-12.742,3.987-18.045,7.737l-35.38-27.431l10.515-93.826H250.303z"/>
	<path d="M299.908,319.23c-0.284-5.251-0.426-10.409-0.426-15.474c0-2.532,0.047-5.064,0.142-7.596
		c0.284-9.939,1.088-19.6,2.416-28.978v-0.985l0.568-1.266l0.994-9.706l0.711-1.407l1.421-7.877l0.568-0.844
		c1.421-6.752,4.498-14.349,9.235-22.789l4.121-6.189l7.957-8.018c8.43-6.752,19.371-11.581,32.822-14.489
		c4.263-0.75,8.668-1.125,13.215-1.125h1.137c7.104,0.189,14.54,1.36,22.308,3.517c3.22,0.376,8.384,2.486,15.488,6.33
		c7.293,4.501,13.925,10.645,19.893,18.428l4.547,6.893l3.694,7.737l1.563,5.627l0.427,0.422v1.407
		c0.945,1.969,1.514,3.517,1.705,4.642l0.568,0.704l2.415,12.52l0.427,0.281l-0.284,1.829l0.568,1.125l1.421,15.051l0.568,1.407
		l-0.427,0.141l0.995,8.862l-0.284,0.282c0.377,0.938,0.377,1.501,0,1.688l0.426,1.407l-0.284,0.422l0.711,9.565l-0.284,0.281
		l0.426,4.079l-0.142,0.281v5.627c-0.096,3.471-0.38,7.645-0.853,12.52l-0.711,5.205l0.284,0.281l-0.71,1.406
		c-0.284,3.471-1.09,7.597-2.416,12.379l-0.853,2.673l-0.142,1.548l-3.694,10.409l-0.711,0.563c0,0.938-1.231,3.798-3.694,8.581
		l-6.82,9.706c-7.483,8.534-15.771,14.771-24.865,18.709c-5.968,2.345-11.984,3.891-18.046,4.642l-10.94,0.704l-2.558-0.141
		c-21.598-0.563-39.028-7.502-52.289-20.819c-6.536-7.221-11.463-15.614-14.777-25.18c-3.79-9.753-6.11-20.021-6.963-30.807
		L299.908,319.23z M370.669,361.713c5.873,0.375,9.521,0.281,10.941-0.282l0.142,0.282l7.815-1.688
		c6.252-2.062,11.034-6.517,14.351-13.363c2.558-6.845,4.452-15.004,5.684-24.477l0.711-31.791l-0.427-14.911l-1.421-11.113
		l-0.568-0.563l-1.847-7.878l-0.568-0.281c-1.421-5.626-4.121-10.832-8.1-15.614c-3.032-2.438-5.448-4.031-7.246-4.783l-8.241-1.969
		l-8.668-0.422c-3.885-0.092-8.194,0.703-12.93,2.391c-4.358,2.064-8.006,5.768-10.941,11.113
		c-2.084,4.972-3.979,11.208-5.684,18.709l0.284,0.844c-0.568,0.47-0.901,2.018-0.994,4.642c-1.328,10.972-1.47,27.057-0.427,48.25
		l2.273,15.333l2.984,10.831c2.178,5.627,5.162,9.706,8.951,12.238C360.155,359.369,364.795,360.868,370.669,361.713z"/>
</g>
</svg>
