<!-- Generated by IcoMoon.io -->
<svg version="1.1" xmlns="http://www.w3.org/2000/svg" width="24" height="24" viewBox="0 0 24 24">
<title>regulatory--no-left-turn--g2</title>
<path fill="#d71920" d="M10.505 0.46c2.45-0.336 5.003 0.116 7.178 1.296 2.528 1.356 4.528 3.672 5.488 6.378 0.896 2.488 0.916 5.28 0.052 7.778-0.946 2.778-2.98 5.166-5.572 6.541-2.039 1.103-4.411 1.574-6.718 1.336-2.948-0.283-5.764-1.745-7.697-3.989-1.795-2.041-2.834-4.727-2.88-7.445-0.064-2.513 0.709-5.039 2.178-7.080 1.849-2.608 4.799-4.398 7.97-4.816M10.072 2.806c-2.414 0.511-4.594 2.017-5.935 4.086-1.266 1.913-1.784 4.297-1.453 6.565 0.245 1.76 1.014 3.433 2.154 4.793 2.741-2.882 5.483-5.765 8.222-8.648 0.683-0.716 1.364-1.432 2.044-2.15 0.926-0.972 1.855-1.943 2.776-2.921-2.184-1.681-5.118-2.324-7.807-1.724M16.636 9.107c-0.787 0.81-1.559 1.634-2.339 2.453-2.606 2.734-5.203 5.477-7.813 8.208 2.099 1.57 4.87 2.183 7.439 1.673 2.522-0.481 4.817-2.040 6.197-4.205 1.204-1.854 1.714-4.139 1.433-6.33-0.214-1.758-0.946-3.438-2.054-4.814-0.954 1.004-1.914 2.004-2.862 3.016z"></path>
<path fill="#fff" d="M10.072 2.806c2.689-0.6 5.623 0.043 7.807 1.724-0.92 0.978-1.849 1.949-2.776 2.921-0.538-0.319-1.142-0.557-1.776-0.558-1.517-0.011-3.032-0.001-4.549-0.005 0.103-0.425 0.208-0.848 0.308-1.273-1.496 0.859-2.993 1.717-4.486 2.584 1.499 0.848 2.987 1.716 4.481 2.573-0.095-0.391-0.191-0.781-0.288-1.171 1.422 0 2.844-0.001 4.266 0.001-2.74 2.884-5.482 5.766-8.222 8.648-1.14-1.36-1.909-3.032-2.154-4.793-0.331-2.268 0.187-4.652 1.453-6.565 1.342-2.069 3.521-3.575 5.935-4.086z"></path>
<path fill="#fff" d="M16.636 9.107c0.948-1.012 1.908-2.011 2.862-3.016 1.109 1.376 1.841 3.056 2.054 4.814 0.281 2.191-0.229 4.476-1.433 6.33-1.38 2.165-3.674 3.724-6.197 4.205-2.569 0.51-5.34-0.103-7.439-1.673 2.61-2.731 5.207-5.474 7.813-8.208-0.005 2.426 0 4.853-0.001 7.28 0.905 0 1.81 0 2.714-0.001-0.001-2.719 0.001-5.44 0-8.159 0.010-0.548-0.151-1.080-0.374-1.573z"></path>
<path fill="#231f20" d="M4.601 8.198c1.493-0.866 2.989-1.724 4.486-2.584-0.101 0.425-0.205 0.848-0.308 1.273 1.517 0.004 3.032-0.006 4.549 0.005 0.634 0.001 1.238 0.239 1.776 0.558-0.679 0.719-1.361 1.434-2.044 2.15-1.422-0.002-2.844-0.001-4.266-0.001 0.097 0.39 0.193 0.78 0.288 1.171-1.494-0.857-2.982-1.724-4.481-2.573z"></path>
<path fill="#231f20" d="M14.297 11.56c0.78-0.818 1.552-1.643 2.339-2.453 0.223 0.493 0.384 1.025 0.374 1.573 0.001 2.719-0.001 5.44 0 8.159-0.905 0.001-1.81 0.001-2.714 0.001 0.001-2.428-0.004-4.854 0.001-7.28z"></path>
</svg>
