<svg xmlns="http://www.w3.org/2000/svg" width="24" height="24">
    <path fill="#035ca1" d="M10.46 0h3.08c2.991.513 5.9 1.969 7.791 4.386 1.443 1.729 2.272 3.88 2.669 6.078v3.075c-.512 2.991-1.969 5.901-4.386 7.792-1.729 1.443-3.88 2.272-6.078 2.669h-3.075c-2.991-.512-5.902-1.969-7.793-4.387C1.227 17.884.397 15.733 0 13.537v-3.075c.398-2.197 1.226-4.348 2.669-6.075C4.56 1.97 7.469.514 10.46.001zM5.801 8.385c2.512-.005 5.024-.032 7.538-.053-.322-.646-.702-1.259-1.033-1.899 1.796-.198 3.551.678 4.621 2.103.761-.539 1.522-1.079 2.276-1.627-1.904-2.655-5.447-3.857-8.607-3.223-.377-.551-.74-1.112-1.116-1.663-1.241 2.111-2.458 4.238-3.679 6.361zm9.465 7.135c.713.021 1.427 0 2.138.062-.717 1.663-2.36 2.726-4.126 2.954.111.92.189 1.846.278 2.769 3.229-.315 6.086-2.763 7.068-5.827.676-.073 1.357-.104 2.036-.145-1.215-2.13-2.447-4.25-3.675-6.373-1.25 2.181-2.482 4.373-3.719 6.56zm-9.842 2.807c-.278.615-.592 1.212-.885 1.82 2.45 0 4.899.012 7.348-.005-1.275-2.165-2.542-4.336-3.829-6.493-.367.611-.728 1.224-1.097 1.833-1.098-1.437-1.203-3.402-.509-5.039-.843-.392-1.692-.77-2.535-1.159-1.35 2.958-.645 6.649 1.507 9.044z"/>
    <path fill="#fff" d="M5.801 8.385c1.221-2.123 2.438-4.25 3.679-6.361.376.551.738 1.112 1.116 1.663 3.16-.634 6.703.568 8.607 3.223-.754.549-1.515 1.088-2.276 1.627-1.069-1.425-2.825-2.301-4.621-2.103.331.64.711 1.253 1.033 1.899-2.513.021-5.025.047-7.538.053zM15.266 15.52c1.237-2.188 2.469-4.379 3.719-6.56 1.228 2.123 2.461 4.244 3.675 6.373-.679.041-1.36.073-2.036.145-.982 3.065-3.839 5.512-7.068 5.827-.09-.923-.167-1.849-.278-2.769 1.766-.228 3.409-1.291 4.126-2.954-.711-.062-1.424-.041-2.138-.062zM5.424 18.327c-2.152-2.395-2.858-6.086-1.507-9.044.843.389 1.692.767 2.535 1.159-.694 1.636-.589 3.601.509 5.039.369-.609.731-1.222 1.097-1.833 1.287 2.157 2.554 4.328 3.829 6.493-2.449.017-4.898.005-7.348.005.293-.608.607-1.205.885-1.82z"/>
</svg>
