<?xml version="1.0" encoding="UTF-8" standalone="no"?>
<!-- Created with Inkscape (http://www.inkscape.org/) -->

<svg
   xmlns:dc="http://purl.org/dc/elements/1.1/"
   xmlns:cc="http://creativecommons.org/ns#"
   xmlns:rdf="http://www.w3.org/1999/02/22-rdf-syntax-ns#"
   xmlns:svg="http://www.w3.org/2000/svg"
   xmlns="http://www.w3.org/2000/svg"
   xmlns:sodipodi="http://sodipodi.sourceforge.net/DTD/sodipodi-0.dtd"
   xmlns:inkscape="http://www.inkscape.org/namespaces/inkscape"
   id="svg17624"
   version="1.1"
   inkscape:version="0.48.2 r9819"
   width="320.9975"
   height="285.56625"
   xml:space="preserve"
   sodipodi:docname="AJAX1.svg"><metadata
     id="metadata17630"><rdf:RDF><cc:Work
         rdf:about=""><dc:format>image/svg+xml</dc:format><dc:type
           rdf:resource="http://purl.org/dc/dcmitype/StillImage" /><dc:title /></cc:Work></rdf:RDF></metadata><defs
     id="defs17628"><inkscape:perspective
       sodipodi:type="inkscape:persp3d"
       inkscape:vp_x="0 : 0.5 : 1"
       inkscape:vp_y="0 : 1000 : 0"
       inkscape:vp_z="1 : 0.5 : 1"
       inkscape:persp3d-origin="0.5 : 0.33333333 : 1"
       id="perspective17632" /><clipPath
       clipPathUnits="userSpaceOnUse"
       id="clipPath17642"><path
         d="m -2,710 501,0 0,-711 -501,0 0,711 z"
         id="path17644"
         inkscape:connector-curvature="0" /></clipPath><clipPath
       clipPathUnits="userSpaceOnUse"
       id="clipPath17648"><path
         d="m 0,708.06 498,0 0,-708 -498,0 0,708 z"
         id="path17650"
         inkscape:connector-curvature="0" /></clipPath><clipPath
       clipPathUnits="userSpaceOnUse"
       id="clipPath17798"><path
         d="m -2,710 501,0 0,-711 -501,0 0,711 z"
         id="path17800"
         inkscape:connector-curvature="0" /></clipPath><clipPath
       clipPathUnits="userSpaceOnUse"
       id="clipPath17804"><path
         d="m 0,708.06 498,0 0,-708 -498,0 0,708 z"
         id="path17806"
         inkscape:connector-curvature="0" /></clipPath><clipPath
       id="Clip0"><path
         inkscape:connector-curvature="0"
         d="m 0,0 212.597,0 0,269.292 L 0,269.292 0,0 z"
         transform="translate(0.923828,0.879883)"
         id="path7" /></clipPath></defs><sodipodi:namedview
     pagecolor="#ffffff"
     bordercolor="#666666"
     borderopacity="1"
     objecttolerance="10"
     gridtolerance="10"
     guidetolerance="10"
     inkscape:pageopacity="0"
     inkscape:pageshadow="2"
     inkscape:window-width="1280"
     inkscape:window-height="1004"
     id="namedview17626"
     showgrid="false"
     inkscape:zoom="5.663246"
     inkscape:cx="236.84977"
     inkscape:cy="12.242419"
     inkscape:window-x="-8"
     inkscape:window-y="-8"
     inkscape:window-maximized="1"
     inkscape:current-layer="g17634"
     fit-margin-top="0.2"
     fit-margin-left="0.2"
     fit-margin-right="0.2"
     fit-margin-bottom="0.2"
     showguides="true"
     inkscape:guide-bbox="true" /><g
     id="g17634"
     inkscape:groupmode="layer"
     inkscape:label="GG1999P002"
     transform="matrix(1.25,0,0,-1.25,433.1129,258.49901)"><path
       inkscape:connector-curvature="0"
       style="fill:#ffffff;fill-rule:nonzero;stroke:#000000;stroke-width:1.36000001;stroke-miterlimit:4;stroke-opacity:1;stroke-dasharray:none"
       d="m -345.65032,188.95041 c 0,9.39356 7.61523,17.0088 17.0078,17.0088 l 221.1022,0 c 9.394001,0 17.008001,-7.61524 17.008001,-17.0088 l 0,-192.7561942 c 0,-9.3929998 -7.614,-17.0079998 -17.008001,-17.0079998 l -221.1022,0 c -9.39257,0 -17.0078,7.615 -17.0078,17.0079998 l 0,192.7561942 z"
       id="path11" /><path
       inkscape:connector-curvature="0"
       style="fill:#c0111e;fill-opacity:1;fill-rule:nonzero;stroke:none"
       d="m -341.68157,188.95036 c 0,7.20222 5.83792,13.0401 13.039,13.0401 l 221.103,0 c 7.202,0 13.040001,-5.83788 13.040001,-13.0401 l 0,-192.7558962 c 0,-7.2009998 -5.838001,-13.0389998 -13.040001,-13.0389998 l -221.103,0 c -7.20108,0 -13.039,5.838 -13.039,13.0389998 l 0,192.7558962 z"
       id="path13" /><path
       inkscape:connector-curvature="0"
       style="fill:#ffffff;fill-rule:nonzero;stroke:none"
       d="m -335.72845,188.95138 c 0,3.9131 3.1729,7.086 7.0859,7.086 l 221.1021,0 c 3.914,0 7.087,-3.1729 7.087,-7.086 l 0,-192.7559962 c 0,-3.914 -3.173,-7.0869998 -7.087,-7.0869998 l -221.1021,0 c -3.913,0 -7.0859,3.1729998 -7.0859,7.0869998 l 0,192.7559962 z"
       id="path15" /><path
       inkscape:connector-curvature="0"
       style="fill:#c0111e;fill-opacity:1;fill-rule:nonzero;stroke:none"
       d="m -311.49215,50.091491 0,-5.617999 7.5733,0 0,-36.9320042 6.2549,0 0,36.9320042 7.4462,0 0,5.617999 -21.2744,0 z"
       id="path17" /><path
       inkscape:connector-curvature="0"
       style="fill:#c0111e;fill-opacity:1;fill-rule:evenodd;stroke:none"
       d="m -266.13465,28.262492 c 1.872,0.652 3.3896,2.028 4.5517,4.127 1.0508,1.929 1.5752,3.986 1.5752,6.17 0,2.809 -0.8652,5.389 -2.5957,7.743999 -1.8437,2.525 -4.0273,3.787 -6.5527,3.788 l -14.2539,0 0,-42.5500032 5.8711,0 0,19.7420042 5.5322,0 5.6582,-19.7420042 6.3408,0 -6.1269,20.7210042 z m -3.9581,5.148 -7.4462,0 0,10.596 7.4892,0 c 2.5527,0 3.8291,-1.745 3.8291,-5.234 0,-1.419 -0.3115,-2.624 -0.9355,-3.617 -0.709,-1.163 -1.6875,-1.745 -2.9366,-1.745 z"
       id="path19" /><path
       inkscape:connector-curvature="0"
       style="fill:#c0111e;fill-opacity:1;fill-rule:evenodd;stroke:none"
       d="m -242.90195,25.241492 2.977,11.446 3.022,-11.446 -5.999,0 z m -10.1702,-17.7000042 6.1699,0 2.8503,11.8280042 8.68,0 3.064,-11.8280042 6.084,0 -10.679,42.5500032 -5.999,0 -10.1702,-42.5500032 z"
       id="path21" /><path
       inkscape:connector-curvature="0"
       style="fill:#c0111e;fill-opacity:1;fill-rule:nonzero;stroke:none"
       d="m -219.54395,50.091491 0,-42.5500032 5.914,0 0,20.5510042 8.724,0 0,6.084 -8.724,0 0,10.042 15.361,0 0,5.872999 -21.275,0 z"
       id="path23" /><path
       inkscape:connector-curvature="0"
       style="fill:#c0111e;fill-opacity:1;fill-rule:nonzero;stroke:none"
       d="m -191.37595,50.091491 0,-42.5500032 5.914,0 0,20.5510042 8.723,0 0,6.084 -8.723,0 0,10.042 15.361,0 0,5.872999 -21.275,0 z"
       id="path25" /><path
       inkscape:connector-curvature="0"
       style="fill:#c0111e;fill-opacity:1;fill-rule:nonzero;stroke:none"
       d="m -163.20795,7.5414878 5.957,0 0,42.5500032 -5.957,0 0,-42.5500032 z"
       id="path27" /><path
       inkscape:connector-curvature="0"
       style="fill:#c0111e;fill-opacity:1;fill-rule:nonzero;stroke:none"
       d="m -130.65895,18.858492 c 0,-1.815004 -0.468,-3.305004 -1.403,-4.468004 -0.937,-1.163 -2.1,-1.744 -3.49,-1.744 -4.396,0 -6.595,5.673004 -6.595,17.020004 0,3.659 0.326,6.737 0.978,9.234 1.05,3.971 2.852,5.957 5.404,5.957 1.362,0 2.553,-0.54 3.575,-1.618 1.021,-1.077 1.531,-2.227 1.531,-3.446 l 5.915,0 c 0,3.319 -1.036,5.999999 -3.107,8.041999 -2.071,2.071 -4.709,3.106 -7.914,3.106 -8.226,0 -12.339,-7.091999 -12.339,-21.274999 0,-6.467 0.624,-11.432004 1.872,-14.892004 1.958,-5.3620002 5.489,-8.0420082 10.595,-8.0420082 3.262,0 5.9,1.078008 7.914,3.234008 2.014,2.1830002 3.021,5.1480002 3.021,8.8920042 l -5.957,0 z"
       id="path29" /><path
       inkscape:connector-curvature="0"
       style="fill:#c0111e;fill-opacity:1;fill-rule:evenodd;stroke:none"
       d="m -266.72165,155.82148 c 1.8721,0.6524 3.3897,2.0284 4.5528,4.128 1.0498,1.9277 1.5742,3.9843 1.5742,6.1689 0,2.8086 -0.8643,5.3897 -2.5947,7.7441 -1.8438,2.5245 -4.0284,3.7872 -6.5528,3.7872 l -14.2539,0 0,-42.5498 5.8711,0 0,19.7431 5.5313,0 5.6591,-19.7431 6.3399,0 -6.127,20.7216 z m -3.957,5.1485 -7.4463,0 0,10.5947 7.4893,0 c 2.5527,0 3.8291,-1.7441 3.8291,-5.2334 0,-1.4189 -0.3125,-2.624 -0.9365,-3.6172 -0.709,-1.1631 -1.6875,-1.7441 -2.9356,-1.7441 z"
       id="path31" /><path
       inkscape:connector-curvature="0"
       style="fill:#c0111e;fill-opacity:1;fill-rule:nonzero;stroke:none"
       d="m -251.44625,135.09988 5.9573,0 0,42.5498 -5.9573,0 0,-42.5498 z"
       id="path33" /><path
       inkscape:connector-curvature="0"
       style="fill:#c0111e;fill-opacity:1;fill-rule:nonzero;stroke:none"
       d="m -218.98095,167.47968 6.169,0 c 0,3.0645 -1.121,5.6602 -3.362,7.7871 -2.212,2.1563 -4.85,3.2334 -7.914,3.2334 -4.85,0 -8.24,-2.6377 -10.17,-7.914 -1.304,-3.5176 -1.956,-8.4531 -1.956,-14.8076 0,-5.6729 0.68,-10.2686 2.042,-13.7862 2.014,-5.1347 5.376,-7.7011 10.084,-7.7011 2.355,0 4.468,0.582 6.34,1.7441 1.702,1.0498 2.936,2.3828 3.702,4 0.766,1.6455 1.149,4.085 1.149,7.3184 l 0,8.4248 -10.893,0 0,-6.127 5.105,0 0,-4.8086 c 0,-1.1914 -0.594,-2.2685 -1.786,-3.2334 -1.163,-0.9639 -2.368,-1.4463 -3.617,-1.4463 -4.028,0 -6.042,4.8506 -6.042,14.5518 l 0,2.5527 c 0,10.0987 2.014,15.1485 6.042,15.1485 1.561,0 2.795,-0.4405 3.702,-1.3194 0.937,-0.8515 1.405,-2.0566 1.405,-3.6172 z"
       id="path35" /><path
       inkscape:connector-curvature="0"
       style="fill:#c0111e;fill-opacity:1;fill-rule:nonzero;stroke:none"
       d="m -203.70695,177.64968 0,-42.5498 6.042,0 0,19.3173 11.701,0 0,-19.3173 5.659,0 0,42.5498 -5.659,0 0,-17.2334 -11.701,0 0,17.2334 -6.042,0 z"
       id="path37" /><path
       inkscape:connector-curvature="0"
       style="fill:#c0111e;fill-opacity:1;fill-rule:nonzero;stroke:none"
       d="m -173.41095,177.64968 0,-5.6163 7.573,0 0,-36.9335 6.255,0 0,36.9335 7.447,0 0,5.6163 -21.275,0 z"
       id="path39" /><path
       inkscape:connector-curvature="0"
       style="fill:#c0111e;fill-opacity:1;fill-rule:nonzero;stroke:none"
       d="m -316.59465,113.87038 0,-5.6163 7.5732,0 0,-36.933599 6.2549,0 0,36.933599 7.4463,0 0,5.6163 -21.2744,0 z"
       id="path41" /><path
       inkscape:connector-curvature="0"
       style="fill:#c0111e;fill-opacity:1;fill-rule:nonzero;stroke:none"
       d="m -276.76945,70.511481 c 2.8945,0 5.5752,1.121 8.043,3.362 2.4677,2.24 3.7011,4.722 3.7011,7.445 l 0,32.551899 -6.1269,0 0,-32.167899 c 0,-1.532 -0.5957,-2.78 -1.7871,-3.744 -1.0782,-0.88 -2.3692,-1.32 -3.8721,-1.32 -1.4463,0 -2.7227,0.468 -3.8291,1.405 -1.1914,0.992 -1.7881,2.212 -1.7881,3.659 l 0,32.167899 -5.999,0 0,-32.551899 c 0,-2.864 1.248,-5.403 3.7441,-7.615 2.4112,-2.128 5.0498,-3.192 7.9141,-3.192 z"
       id="path43" /><path
       inkscape:connector-curvature="0"
       style="fill:#c0111e;fill-opacity:1;fill-rule:evenodd;stroke:none"
       d="m -238.60295,92.042481 c 1.874,0.651 3.39,2.027 4.553,4.127 1.05,1.928 1.574,3.984999 1.574,6.169999 0,2.808 -0.864,5.3893 -2.594,7.7437 -1.844,2.5245 -4.029,3.7862 -6.553,3.7872 l -14.2539,0 0,-42.549899 5.8711,0 0,19.742 5.5308,0 5.66,-19.742 6.339,0 -6.127,20.722 z m -3.957,5.148 -7.4458,0 0,10.594899 7.4888,0 c 2.553,0 3.83,-1.7439 3.83,-5.2339 0,-1.418 -0.313,-2.623999 -0.937,-3.616999 -0.709,-1.163 -1.688,-1.744 -2.936,-1.744 z"
       id="path45" /><path
       inkscape:connector-curvature="0"
       style="fill:#c0111e;fill-opacity:1;fill-rule:nonzero;stroke:none"
       d="m -223.28495,113.87038 0,-42.549899 5.871,0 0,27.955 12.681,-27.955 4.85,0 0,42.549899 -6.17,0 0,-24.593899 -11.361,24.593899 -5.871,0 z"
       id="path47" /><path
       inkscape:connector-curvature="0"
       style="fill:#c0111e;fill-opacity:1;fill-rule:nonzero;stroke:none"
       d="m -190.73495,71.320481 5.957,0 0,42.549899 -5.957,0 0,-42.549899 z"
       id="path49" /><path
       inkscape:connector-curvature="0"
       style="fill:#c0111e;fill-opacity:1;fill-rule:nonzero;stroke:none"
       d="m -175.63095,113.87038 0,-42.549899 5.871,0 0,27.955 12.681,-27.955 4.851,0 0,42.549899 -6.169,0 0,-24.593899 -11.363,24.593899 -5.871,0 z"
       id="path51" /><path
       inkscape:connector-curvature="0"
       style="fill:#c0111e;fill-opacity:1;fill-rule:nonzero;stroke:none"
       d="m -125.84795,103.70048 6.169,0 c 0,3.0634 -1.12,5.6591 -3.361,7.7861 -2.213,2.1562 -4.851,3.2343 -7.914,3.2343 -4.851,0 -8.24,-2.6377 -10.17,-7.914 -1.305,-3.5174 -1.956,-8.453399 -1.956,-14.807399 0,-5.673 0.68,-10.269 2.041,-13.786 2.015,-5.13499 5.376,-7.702 10.085,-7.702 2.354,0 4.468,0.58201 6.34,1.745 1.702,1.049 2.935,2.382 3.702,4 0.766,1.645 1.148,4.085 1.148,7.318 l 0,8.425 -10.892,0 0,-6.127 5.105,0 0,-4.809 c 0,-1.191 -0.594,-2.268 -1.786,-3.233 -1.163,-0.965 -2.369,-1.447 -3.617,-1.447 -4.028,0 -6.042,4.85 -6.042,14.552 l 0,2.553 c 0,10.098999 2.014,15.148499 6.042,15.148499 1.559,0 2.794,-0.4405 3.702,-1.3194 0.936,-0.8515 1.404,-2.0571 1.404,-3.6171 z"
       id="path53" /></g></svg>