<?xml version="1.0" encoding="UTF-8" standalone="no"?>
<!-- Generator: Adobe Illustrator 13.0.1, SVG Export Plug-In . SVG Version: 6.00 Build 14948)  -->

<svg
   xmlns:dc="http://purl.org/dc/elements/1.1/"
   xmlns:cc="http://creativecommons.org/ns#"
   xmlns:rdf="http://www.w3.org/1999/02/22-rdf-syntax-ns#"
   xmlns:svg="http://www.w3.org/2000/svg"
   xmlns="http://www.w3.org/2000/svg"
   xmlns:sodipodi="http://sodipodi.sourceforge.net/DTD/sodipodi-0.dtd"
   xmlns:inkscape="http://www.inkscape.org/namespaces/inkscape"
   version="1.1"
   id="Layer_1"
   x="0px"
   y="0px"
   width="177.87498"
   height="244.09373"
   viewBox="0 0 177.87499 244.09375"
   enable-background="new 0 0 300 250"
   xml:space="preserve"
   inkscape:version="0.48.2 r9819"
   sodipodi:docname="AJAX1.svg"><metadata
   id="metadata94"><rdf:RDF><cc:Work
       rdf:about=""><dc:format>image/svg+xml</dc:format><dc:type
         rdf:resource="http://purl.org/dc/dcmitype/StillImage" /><dc:title /></cc:Work></rdf:RDF></metadata><defs
   id="defs92" /><sodipodi:namedview
   pagecolor="#ffffff"
   bordercolor="#666666"
   borderopacity="1"
   objecttolerance="10"
   gridtolerance="10"
   guidetolerance="10"
   inkscape:pageopacity="0"
   inkscape:pageshadow="2"
   inkscape:window-width="1280"
   inkscape:window-height="1004"
   id="namedview90"
   showgrid="false"
   fit-margin-top="0"
   fit-margin-left="0"
   fit-margin-right="0"
   fit-margin-bottom="0"
   inkscape:zoom="2"
   inkscape:cx="109.47042"
   inkscape:cy="79.673623"
   inkscape:window-x="-8"
   inkscape:window-y="-8"
   inkscape:window-maximized="1"
   inkscape:current-layer="Layer_1"
   showguides="true"
   inkscape:guide-bbox="true" />















<path
   inkscape:connector-curvature="0"
   d="m 18.276003,0.60784 141.322747,0 3.25296,0.28003 3.19569,0.95278 c 6.46706,2.58846 10.59511,8.33791 11.15942,15.254791 l 0.0573,1.17769 0,207.553409 c -0.0962,8.06389 -5.36912,15.05438 -13.23674,17.04786 l -3.25089,0.56022 -1.17769,0.0573 -141.322747,0 -3.30816,-0.33736 C 8.2473044,241.95438 2.9579234,236.78359 1.1709434,230.25723 l -0.5050205,-3.25296 -0.0551,-1.17768 0,-207.553409 0.33736,-3.30817 0.8955305,-3.19775 1.51505,-2.972851 2.01802,-2.57823 2.46783,-2.18776 2.8603996,-1.73791 3.08529,-1.1224 3.30817,-0.50297 1.17768,-0.0572 z"
   style="fill:#ffffff;stroke:#000000;stroke-width:1.20000005;stroke-miterlimit:4;stroke-opacity:1;stroke-dasharray:none;display:inline;enable-background:new"
   id="path3453" /><path
   inkscape:connector-curvature="0"
   d="m 72.392458,85.79397 0,49.23805 -11.04697,-10.99176 -11.04901,10.99176 0,-38.58364 -0.33532,-2.63549 c -2.13456,-7.98621 -8.02096,-5.85573 -10.31909,-13.62726 l -0.39256,-2.57824 0,-35.27547 0.33531,-3.30816 0.89758,-3.19775 1.51505,-2.9156 2.01802,-2.63549 2.46783,-2.18772 2.86039,-1.73791 3.08326,-1.12248 3.31021,-0.50502 1.17768,-0.0551 79.465442,0 11.04697,11.04697 -11.04697,11.04901 -70.606192,0 -1.68066,0.28011 -1.34739,0.89758 -1.00799,1.34534 -0.39256,1.57026 0,14.58003 0.28011,2.58029 0.95278,2.46783 1.4578,2.18772 c 3.30612,3.26113 5.65332,3.5944 7.62636,8.80404 l 0.61747,2.80316 0.11253,1.51504"
   style="fill:#000000;fill-opacity:1;fill-rule:evenodd;stroke:none;display:inline;enable-background:new"
   id="path3527" /><path
   inkscape:connector-curvature="0"
   style="fill:#000000;fill-opacity:1;fill-rule:nonzero;stroke:none;display:inline;enable-background:new"
   d="m 18.299903,2.33054 -2.96467,0.30669 -3.01578,0.86903 -2.7602086,1.48226 -2.453521,1.94243 -1.99348,2.4024 -1.53345,2.760211 -0.86896,3.01579 -0.30669,3.16912 0,207.526819 0.20446,2.91355 0.92007,3.01578 c 2.23271,5.2812 6.052021,8.33583 11.6030996,9.66073 l 3.16913,0.30669 141.281837,0 2.91355,-0.30669 3.01578,-0.81783 c 5.95183,-2.35129 10.03694,-8.36241 9.96742,-14.77223 l 0,-207.526819 -0.30669,-2.91355 C 174.23129,9.94469 170.69209,5.76553 165.71553,3.5573 l -3.01578,-0.86888 -3.11801,-0.35788 -141.281837,0 z m 26.426445,3.527 88.326722,0 0,3.32247 0.3578,2.657981 c 1.25539,5.01335 5.5286,8.35014 10.68303,8.38285 l 27.85766,0 0,77.285849 -25.65972,0 -1.53344,0.10223 c -5.29552,0.73401 -9.58517,5.52247 -9.45627,10.93861 l 0,40.84086 -92.722612,0 0,-40.84086 -0.3578,-2.55575 c -1.13067,-4.93975 -5.663544,-8.54438 -10.734154,-8.48509 l -25.5574806,0 0,-77.285849 27.8065406,0 c 5.992724,0.051 11.073554,-4.96224 10.989724,-11.040831 l 0,-3.32247 z m -38.7962646,147.05778 166.0214766,0 0,72.88997 c 0.14721,4.49198 -2.88493,9.31519 -7.00275,11.14306 l -2.65798,0.92007 -2.70909,0.30669 -141.281837,0 -2.76021,-0.30669 -2.65798,-0.92007 -2.35129,-1.48233 -1.9423586,-1.94237 -1.482341,-2.35129 -0.86895,-2.65798 -0.30669,-2.70909 0,-72.88997 z"
   id="path3529" /><path
   id="path4606"
   style="fill:#000000;fill-opacity:1;fill-rule:evenodd;stroke:none;display:inline;enable-background:new"
   d="m 55.849608,225.54643 0.84033,1.6827 1.40259,1.29014 c 8.63434,4.16689 10.54196,-6.61429 8.80405,-12.67448 l -0.28011,-0.78512 -0.84033,-1.68271 c -5.90072,-5.84551 -11.70738,0.17379 -10.71166,8.13137 l 0.56022,3.19776 0.22491,0.84034 z m 8.18657,-9.64643 0.56227,2.91764 0,2.9708 -0.56227,2.91765 -0.72787,1.12045 -1.12249,0.72992 -1.34535,0.11041 -1.23289,-0.44777 -0.89758,-1.01003 -0.2249,-0.50298 -0.61747,-2.97285 c -0.321,-2.99738 0.22081,-9.84679 4.99291,-7.34625 l 0.89553,0.95279 0.28011,0.56022"
   inkscape:connector-curvature="0" /><path
   id="path4608"
   style="fill:#000000;fill-opacity:1;fill-rule:evenodd;stroke:none;display:inline;enable-background:new"
   d="m 73.739848,211.4714 0,17.66534 2.74794,0 0,-11.49679 6.33826,11.49679 2.74589,0 0,-17.66534 -2.74589,0 0,11.43953 -6.33826,-11.43953 -2.74794,0"
   inkscape:connector-curvature="0" /><path
   id="path4610"
   style="fill:#000000;fill-opacity:1;fill-rule:evenodd;stroke:none;display:inline;enable-background:new"
   d="m 93.758518,211.4714 0,17.66534 10.766902,0 0,-2.74794 -8.018962,0 0,-14.9174 -2.74794,0"
   inkscape:connector-curvature="0" /><path
   id="path4612"
   style="fill:#000000;fill-opacity:1;fill-rule:evenodd;stroke:none;display:inline;enable-background:new"
   d="m 122.80817,211.4714 -6.05611,9.81407 0,7.85127 -2.80519,0 0,-7.85127 -6.05611,-9.81407 3.19775,0 4.26096,6.72877 4.26299,-6.72877 3.19571,0"
   inkscape:connector-curvature="0" /><path
   id="path4614"
   style="fill:#000000;fill-opacity:1;fill-rule:evenodd;stroke:none;display:inline;enable-background:new"
   d="m 10.984963,158.69825 0,17.66534 2.74794,0 0,-7.73881 3.47582,0 2.69274,7.73881 2.97285,0 -2.91765,-8.18658 1.4026,-1.01003 c 3.13641,-3.15482 0.97936,-8.45646 -3.47582,-8.46873 l -6.89848,0 z m 6.89848,7.17859 -4.15054,0 0,-4.43065 4.20574,0 1.12249,0.33736 0.78513,0.84033 0.22286,1.17769 -0.33532,1.06524 -0.89758,0.78512 -0.95278,0.22491"
   inkscape:connector-curvature="0" /><path
   id="path4616"
   style="fill:#000000;fill-opacity:1;fill-rule:nonzero;stroke:none;display:inline;enable-background:new"
   d="m 29.155314,176.36359 2.74795,0 0,-17.66534 -2.74795,0 0,17.66534 z"
   inkscape:connector-curvature="0" /><path
   id="path4618"
   style="fill:#000000;fill-opacity:1;fill-rule:evenodd;stroke:none;display:inline;enable-background:new"
   d="m 38.914188,172.66286 0.84034,1.68271 c 3.31633,4.40202 10.13916,2.27155 10.26388,-3.30816 l 0,-3.53307 -6.05814,0 0,2.80315 3.3102,0 0,0.72992 -0.28011,1.28809 -0.89758,1.01004 -1.23494,0.56022 -1.28809,-0.0551 -1.17769,-0.67267 -0.78717,-1.12248 -0.0553,-0.16766 -0.56022,-3.02805 c -0.32918,-2.9156 0.25762,-9.6178 4.93566,-7.29104 l 0.95279,0.95278 0.2249,0.56227 2.63549,-0.84238 -0.89758,-1.6827 -1.34739,-1.2881 -1.68066,-0.72992 -1.90761,-0.16766 -1.79516,0.44777 -1.57025,1.01003 -1.17769,1.4578 -0.44777,1.12044 -0.67267,3.25296 0,3.3654 0.56022,3.25296 0.11253,0.39256"
   inkscape:connector-curvature="0" /><path
   id="path4620"
   style="fill:#000000;fill-opacity:1;fill-rule:evenodd;stroke:none;display:inline;enable-background:new"
   d="m 56.522278,158.69825 0,17.66534 2.80315,0 0,-7.73881 6.33825,0 0,7.73881 2.74794,0 0,-17.66534 -2.74794,0 0,7.17859 -6.33825,0 0,-7.17859 -2.80315,0"
   inkscape:connector-curvature="0" /><path
   id="path4622"
   style="fill:#000000;fill-opacity:1;fill-rule:evenodd;stroke:none;display:inline;enable-background:new"
   d="m 80.973638,161.44619 0,14.9174 -2.80315,0 0,-14.9174 -3.98287,0 0,-2.74794 10.76685,0 0,2.74794 -3.98083,0"
   inkscape:connector-curvature="0" /><path
   id="path4624"
   style="fill:#000000;fill-opacity:1;fill-rule:evenodd;stroke:none;display:inline;enable-background:new"
   d="m 106.99522,161.44619 0,14.9174 -2.80314,0 0,-14.9174 -3.98288,0 0,-2.74794 10.76686,0 0,2.74794 -3.98084,0"
   inkscape:connector-curvature="0" /><path
   id="path4626"
   style="fill:#000000;fill-opacity:1;fill-rule:evenodd;stroke:none;display:inline;enable-background:new"
   d="m 116.75206,158.69825 0,12.057 c 0.24127,7.8942 11.59288,7.8942 11.8321,0 l 0,-12.057 -2.74794,0 0,12.057 c -0.11254,4.17916 -6.18083,4.28139 -6.33622,0 l 0,-12.057 -2.74794,0"
   inkscape:connector-curvature="0" /><path
   id="path4628"
   style="fill:#000000;fill-opacity:1;fill-rule:evenodd;stroke:none;display:inline;enable-background:new"
   d="m 136.77278,158.69825 0,17.66534 2.74794,0 0,-7.73881 3.47786,0 2.69069,7.73881 2.9156,0 -2.9156,-8.18658 1.4578,-1.01003 c 3.15891,-3.12619 0.91598,-8.45237 -3.47582,-8.46873 l -6.89847,0 z m 6.89847,7.17859 -4.15053,0 0,-4.43065 4.20574,0 1.12248,0.33736 0.78513,0.84033 0.22286,1.17769 -0.39256,1.06524 -0.84033,0.78512 -0.95279,0.22491"
   inkscape:connector-curvature="0" /><path
   id="path4630"
   style="fill:#000000;fill-opacity:1;fill-rule:evenodd;stroke:none;display:inline;enable-background:new"
   d="m 154.88792,158.69825 0,17.66534 2.74794,0 0,-11.49678 6.39345,11.49678 2.74794,0 0,-17.66534 -2.74794,0 0,11.43953 -6.39345,-11.43953 -2.74794,0"
   inkscape:connector-curvature="0" /><path
   id="path4632"
   style="fill:#000000;fill-opacity:1;fill-rule:evenodd;stroke:none;display:inline;enable-background:new"
   d="m 16.930663,202.83501 2.80314,0 0,-7.73881 5.495881,0 0,-2.74794 -5.495881,0 0,-4.43064 7.963721,0 0,-2.74795 -10.766861,0 0,17.66534"
   inkscape:connector-curvature="0" /><path
   id="path4634"
   style="fill:#000000;fill-opacity:1;fill-rule:evenodd;stroke:none;display:inline;enable-background:new"
   d="m 33.473514,185.16967 0,17.66534 2.74794,0 0,-7.73881 3.477864,0 2.74794,7.73881 2.9156,0 -2.9156,-8.18862 1.4578,-0.95278 c 3.01783,-3.16504 0.97119,-8.3849 -3.47786,-8.52394 l -6.953684,0 z m 6.953684,7.17859 -4.205744,0 0,-4.43064 4.205744,0 1.12248,0.33735 0.78513,0.89554 0.28011,1.12248 -0.39256,1.12249 -0.89758,0.72788 -0.89758,0.2249"
   inkscape:connector-curvature="0" /><path
   id="path4636"
   style="fill:#000000;fill-opacity:1;fill-rule:evenodd;stroke:none;display:inline;enable-background:new"
   d="m 50.691078,199.24469 0.84034,1.68271 1.34739,1.29014 c 8.57504,4.31819 10.71778,-6.66335 8.80404,-12.67447 l -0.22491,-0.78512 -0.84033,-1.68271 c -5.81279,-5.82097 -11.74417,0.23513 -10.71165,8.13137 l 0.56022,3.25296 0.2249,0.78512 z m 8.13137,-9.64641 0.61747,2.91559 0,3.0301 -0.61747,2.86039 -0.67267,1.17565 -1.12044,0.67472 -1.34739,0.16765 -1.23289,-0.50501 -0.89758,-0.95279 -0.22491,-0.56022 -0.61747,-2.91764 c -0.30055,-3.09143 0.14116,-9.70775 4.99291,-7.40145 l 0.89554,1.00799 0.2249,0.50502"
   inkscape:connector-curvature="0" /><path
   id="path4638"
   style="fill:#000000;fill-opacity:1;fill-rule:evenodd;stroke:none;display:inline;enable-background:new"
   d="m 82.263778,185.16967 0,17.66534 -2.74794,0 0,-10.26184 -4.09329,10.26184 -4.09328,-10.20664 0,10.20664 -2.74999,0 0,-17.66534 2.74999,0 4.09328,10.20664 4.09329,-10.20664 2.74794,0"
   inkscape:connector-curvature="0" /><path
   id="path4640"
   style="fill:#000000;fill-opacity:1;fill-rule:evenodd;stroke:none;display:inline;enable-background:new"
   d="m 102.28446,185.16967 0,17.66534 10.76686,0 0,-2.74794 -8.01891,0 0,-14.9174 -2.74795,0"
   inkscape:connector-curvature="0" /><path
   id="path4642"
   style="fill:#000000;fill-opacity:1;fill-rule:evenodd;stroke:none;display:inline;enable-background:new"
   d="m 118.65967,202.83501 10.76686,0 0,-2.74794 -7.96371,0 0,-4.99087 5.49588,0 0,-2.74794 -5.49588,0 0,-4.43064 7.40349,0 0,-2.74795 -10.20664,0 0,17.66534"
   inkscape:connector-curvature="0" /><path
   id="path4644"
   style="fill:#000000;fill-opacity:1;fill-rule:evenodd;stroke:none;display:inline;enable-background:new"
   d="m 135.98765,202.83501 2.74794,0 0,-7.73881 5.49588,0 0,-2.74794 -5.49588,0 0,-4.43064 8.01892,0 0,-2.74795 -10.76686,0 0,17.66534"
   inkscape:connector-curvature="0" /><path
   id="path4646"
   style="fill:#000000;fill-opacity:1;fill-rule:evenodd;stroke:none;display:inline;enable-background:new"
   d="m 156.85074,187.91762 0,14.91739 -2.74794,0 0,-14.91739 -3.98288,0 0,-2.74795 10.7689,0 0,2.74795 -4.03808,0"
   inkscape:connector-curvature="0" /></svg>