<svg xmlns="http://www.w3.org/2000/svg" xmlns:xlink="http://www.w3.org/1999/xlink" width="36" height="36" viewBox="0 0 36 36">
  <defs>
    <path id="road_sign_country-a" d="M12.5422788,40.6828194 L5.15521018,15.1767401 C5.05405973,14.828337 5,14.4597137 5,14.0790969 C5,12.4137996 6.03370575,10.9882709 7.49869469,10.4008921 L19.1858518,5.71752203 C20.3396239,5.2548348 21.6001217,5 22.920354,5 C24.2410841,5 25.5014823,5.2548348 26.6549558,5.71752203 L38.3425111,10.4008921 C39.8071018,10.9882709 40.840708,12.4137996 40.840708,14.0790969 C40.840708,14.4597137 40.7870465,14.828337 40.6859956,15.1767401 L33.2988274,40.6828194 L12.5422788,40.6828194 Z"/>
  </defs>
  <g fill="none" fill-rule="evenodd" transform="translate(-5 -5)">
    <rect width="46" height="46" rx="3"/>
    <use fill="#F7D117" xlink:href="#road_sign_country-a"/>
    <path stroke="#000" stroke-width="2" d="M13.2937543,39.6828194 L32.5473547,39.6828194 L39.7255768,14.8981801 C39.8016245,14.6359826 39.840708,14.3609639 39.840708,14.0790969 C39.840708,12.8607136 39.0921245,11.7789515 37.9705489,11.32914 L26.282665,6.64563818 C25.2241386,6.22103662 24.0886728,6 22.920354,6 C21.7524685,6 20.6168867,6.2210592 19.5578249,6.64576554 L7.87084077,11.3290662 C6.74867809,11.7789909 6,12.8607067 6,14.0790969 C6,14.360131 6.03923889,14.6350615 6.11573692,14.8985524 L13.2937543,39.6828194 Z"/>
    <path fill="#005697" d="M9.33325667,29.8903159 C9.33325667,30.90743 9.96146011,31.7797216 10.8546919,32.1393801 L20.2163618,35.9067625 C21.0506095,36.2430032 21.9628632,36.428507 22.920354,36.428507 C23.8782443,36.428507 24.790498,36.2430032 25.6246659,35.9067625 L34.9864157,32.1393801 C35.8796475,31.7797216 36.5074513,30.90743 36.5074513,29.8903159 C36.5074513,29.6561382 36.4746824,29.4313917 36.4135405,29.2187936 L30.6558881,9.25431238 L15.1852195,9.25431238 L9.42756711,29.2187936 C9.36634525,29.431072 9.33325667,29.6561382 9.33325667,29.8903159 Z" transform="matrix(1 0 0 -1 0 45.683)"/>
    <path fill="#F7D117" d="M28.2988281,25.7851562 C28.1555982,27.3020909 27.595708,28.4853473 26.6191406,29.3349609 C25.6425732,30.1845746 24.3437581,30.609375 22.7226562,30.609375 C21.5898381,30.609375 20.5921267,30.340823 19.7294922,29.8037109 C18.8668577,29.2665989 18.2011742,28.5032602 17.7324219,27.5136719 C17.2636695,26.5240836 17.0195313,25.3750065 17,24.0664062 L17,22.7382812 C17,21.3971287 17.2376278,20.2154999 17.7128906,19.1933594 C18.1881534,18.1712188 18.8701127,17.3834663 19.7587891,16.8300781 C20.6474654,16.2766899 21.6744733,16 22.8398438,16 C24.408862,16 25.6718702,16.426428 26.6289062,17.2792969 C27.5859423,18.1321657 28.1425773,19.3365808 28.2988281,20.8925781 L25.8378906,20.8925781 C25.7207025,19.8704376 25.422854,19.1331403 24.9443359,18.6806641 C24.4658179,18.2281878 23.7643275,18.0019531 22.8398438,18.0019531 C21.7656196,18.0019531 20.9404326,18.3942018 20.3642578,19.1787109 C19.7880831,19.9632201 19.4934896,21.1139247 19.4804688,22.6308594 L19.4804688,23.890625 C19.4804688,25.427091 19.7555311,26.5989543 20.3056641,27.40625 C20.855797,28.2135457 21.661453,28.6171875 22.7226562,28.6171875 C23.6927132,28.6171875 24.4218726,28.3990907 24.9101562,27.9628906 C25.3984399,27.5266905 25.7076816,26.8007863 25.8378906,25.7851562 L28.2988281,25.7851562 Z"/>
  </g>
</svg>
