<?xml version="1.0" encoding="UTF-8" standalone="no"?>
<!-- Created with Inkscape (http://www.inkscape.org/) -->

<svg
   xmlns:dc="http://purl.org/dc/elements/1.1/"
   xmlns:cc="http://creativecommons.org/ns#"
   xmlns:rdf="http://www.w3.org/1999/02/22-rdf-syntax-ns#"
   xmlns:svg="http://www.w3.org/2000/svg"
   xmlns="http://www.w3.org/2000/svg"
   xmlns:sodipodi="http://sodipodi.sourceforge.net/DTD/sodipodi-0.dtd"
   xmlns:inkscape="http://www.inkscape.org/namespaces/inkscape"
   id="svg17624"
   version="1.1"
   inkscape:version="0.48.4 r9939"
   width="200.20001"
   height="200.2"
   xml:space="preserve"
   sodipodi:docname="AJAX1.svg"><metadata
     id="metadata17630"><rdf:RDF><cc:Work
         rdf:about=""><dc:format>image/svg+xml</dc:format><dc:type
           rdf:resource="http://purl.org/dc/dcmitype/StillImage" /><dc:title /></cc:Work></rdf:RDF></metadata><defs
     id="defs17628"><inkscape:perspective
       sodipodi:type="inkscape:persp3d"
       inkscape:vp_x="0 : 0.5 : 1"
       inkscape:vp_y="0 : 1000 : 0"
       inkscape:vp_z="1 : 0.5 : 1"
       inkscape:persp3d-origin="0.5 : 0.33333333 : 1"
       id="perspective17632" /><clipPath
       clipPathUnits="userSpaceOnUse"
       id="clipPath17642"><path
         d="m -2,710 501,0 0,-711 -501,0 0,711 z"
         id="path17644"
         inkscape:connector-curvature="0" /></clipPath><clipPath
       clipPathUnits="userSpaceOnUse"
       id="clipPath17648"><path
         d="m 0,708.06 498,0 0,-708 -498,0 0,708 z"
         id="path17650"
         inkscape:connector-curvature="0" /></clipPath><clipPath
       clipPathUnits="userSpaceOnUse"
       id="clipPath17798"><path
         d="m -2,710 501,0 0,-711 -501,0 0,711 z"
         id="path17800"
         inkscape:connector-curvature="0" /></clipPath><clipPath
       clipPathUnits="userSpaceOnUse"
       id="clipPath17804"><path
         d="m 0,708.06 498,0 0,-708 -498,0 0,708 z"
         id="path17806"
         inkscape:connector-curvature="0" /></clipPath><clipPath
       id="Clip0"><path
         inkscape:connector-curvature="0"
         d="m 0,0 212.597,0 0,269.292 L 0,269.292 0,0 z"
         transform="translate(0.923828,0.879883)"
         id="path7" /></clipPath></defs><sodipodi:namedview
     pagecolor="#ffffff"
     bordercolor="#666666"
     borderopacity="1"
     objecttolerance="10"
     gridtolerance="10"
     guidetolerance="10"
     inkscape:pageopacity="0"
     inkscape:pageshadow="2"
     inkscape:window-width="1280"
     inkscape:window-height="1004"
     id="namedview17626"
     showgrid="false"
     inkscape:zoom="2.3322272"
     inkscape:cx="87.701084"
     inkscape:cy="106.80777"
     inkscape:window-x="-8"
     inkscape:window-y="-8"
     inkscape:window-maximized="1"
     inkscape:current-layer="g17634"
     fit-margin-top="0.1"
     fit-margin-left="0.1"
     fit-margin-right="0.1"
     fit-margin-bottom="0.1"
     showguides="true"
     inkscape:guide-bbox="true" /><g
     id="g17634"
     inkscape:groupmode="layer"
     inkscape:label="GG1999P002"
     transform="matrix(1.25,0,0,-1.25,160.59063,77.304682)"><path
       sodipodi:nodetypes="sssss"
       inkscape:connector-curvature="0"
       id="path3787"
       d="m -128.3925,-18.236345 c 0,44.18241 35.816846,80.000091 80.000009,80.000091 44.183435,0 79.999995,-35.817587 79.999995,-80.000001 0,-44.18334 -35.81656,-80 -79.999995,-80 -44.183163,0 -80.000009,35.81656 -80.000009,79.9999 z"
       style="fill:#c0111e;fill-opacity:1;fill-rule:nonzero;stroke:none" /><path
       style="fill:#ffffff;fill-opacity:1;fill-rule:nonzero;stroke:none"
       d="m -112.37889,-18.236328 c 0,35.338416 28.647385,63.986472 63.986404,63.986472 35.339236,0 63.98639,-28.647981 63.98639,-63.9864 0,-35.33916 -28.647154,-63.986398 -63.98639,-63.986398 -35.339019,0 -63.986404,28.647158 -63.986404,63.986318 z"
       id="path3919"
       inkscape:connector-curvature="0"
       sodipodi:nodetypes="sssss" /><path
       id="path3932"
       d="m -76.404789,11.977379 -2.469954,0 0,8.49675 2.469954,0 c 0.783532,0 1.436696,-0.51254 1.9593,-1.536774 0.440956,-0.883613 0.662283,-1.848118 0.662283,-2.892576 0,-0.884553 -0.250767,-1.767318 -0.753152,-2.65093 -0.562204,-0.944377 -1.184978,-1.41647 -1.868431,-1.41647 z m 3.435495,-2.5012793 c 1.907851,1.4063113 2.862191,3.5255133 2.862191,6.3574183 0,3.033102 -0.693513,5.252387 -2.079599,6.658697 -1.083869,1.125256 -2.510404,1.687461 -4.277726,1.687461 l -6.056138,0 0,-30.1290732 3.645823,0 0,14.0999845 2.229347,0 3.012879,-14.0999845 3.735832,0 -3.072609,15.4254969 z"
       style="fill:#000000;fill-rule:evenodd;stroke:none"
       inkscape:connector-curvature="0" /><path
       id="path3934"
       d="m -58.568032,-2.6958155 c -1.244617,0 -2.119108,1.1454792 -2.620643,3.43455572 -0.361946,1.74803708 -0.542914,4.48898498 -0.542914,8.22576068 0,3.8964901 0.160748,6.6889841 0.482245,8.3755041 0.462035,2.470897 1.355806,3.706394 2.681312,3.706394 1.245568,0 2.089769,-1.235497 2.531574,-3.706394 0.280208,-1.666297 0.421676,-4.45879 0.421676,-8.3755041 0,-4.0371136 -0.131409,-6.7790955 -0.392236,-8.22576068 -0.401456,-2.28907652 -1.254777,-3.43455572 -2.561014,-3.43455572 z m 0,-3.8561395 c 2.491215,-0.02022 4.208027,0.9837879 5.152308,3.0128791 1.025079,2.2091254 1.536774,6.3767016 1.536774,12.5035768 0,5.2220031 -0.331657,8.9173911 -0.99395,11.0871051 -0.98472,3.17363 -2.88335,4.750851 -5.695132,4.730627 -2.992649,-0.02022 -4.971229,-1.606568 -5.934799,-4.760068 -0.622873,-2.069538 -0.93422,-5.754767 -0.93422,-11.0576641 0,-5.0825109 0.382086,-8.73745443 1.144538,-10.9668026 1.02424,-3.0138191 2.93293,-4.5294295 5.724481,-4.5496533 z"
       style="fill:#000000;fill-rule:evenodd;stroke:none"
       inkscape:connector-curvature="0" /><path
       id="path3936"
       d="m -47.299937,-5.9493972 3.85708,0 1.415526,7.5929142 5.182497,0 1.687462,-7.5929142 3.856411,0 -6.357695,30.1290732 -3.766131,0 -5.87515,-30.1290732 z m 6.147097,11.3286549 1.716802,8.8274683 1.98865,-8.8274683 -3.705452,0 z"
       style="fill:#000000;fill-rule:evenodd;stroke:none"
       inkscape:connector-curvature="0" /><path
       id="path3938"
       d="m -21.209115,20.443841 c 2.189748,0 3.284617,-3.50529 3.284617,-10.515776 0,-3.5548605 -0.140149,-6.1866035 -0.421396,-7.893253 -0.461835,-2.93302109 -1.377056,-4.3990609 -2.741882,-4.3990609 l -2.138958,0 0,22.8080889 2.017619,0 z m -0.330156,3.735835 -5.333286,0 0,-30.1290732 5.965379,0 c 1.04502,0 2.108849,0.391295 3.193378,1.174826 0.92368,0.682509 1.617853,1.455975 2.078768,2.3203052 0.362127,0.682509 0.673473,2.13848504 0.934021,4.3678332 0.300997,2.4506739 0.452445,5.1228625 0.452445,8.0144978 0,2.831905 -0.159918,5.283614 -0.481605,7.352212 -0.281247,1.887622 -0.652783,3.143341 -1.115559,3.766122 -1.546384,2.08882 -3.444534,3.133277 -5.693541,3.133277 z"
       style="fill:#000000;fill-rule:evenodd;stroke:none"
       inkscape:connector-curvature="0" /><path
       id="path3940"
       d="m -88.072764,-45.359349 c 0,-0.964139 -0.2407,-1.837978 -0.72296,-2.621517 -0.48132,-0.783539 -1.0646,-1.174838 -1.74712,-1.174838 -2.00888,0 -3.01385,3.515108 -3.01385,10.545326 l 0,1.596237 c 0,0.221047 -0.009,0.703586 -0.0293,1.446679 -0.0202,0.762845 -0.0304,1.385537 -0.0304,1.868077 0,5.483171 1.01503,8.225087 3.0433,8.225087 1.08482,0 1.80778,-0.702645 2.16964,-2.109065 l 3.61462,0 c 0,1.626811 -0.62184,3.033133 -1.86751,4.21813 -1.1849,1.105044 -2.51043,1.6571 -3.97742,1.6571 -2.77136,0.02024 -4.65994,-1.376041 -5.66397,-4.187752 -0.64291,-1.80778 -0.96357,-4.600212 -0.96357,-8.376339 l 0,-2.681717 c 0,-4.98154 0.33072,-8.596355 0.99396,-10.846326 1.02415,-3.414461 2.96239,-5.121692 5.81455,-5.121692 3.8764,0 5.8155,2.519929 5.8155,7.56261 l -3.43544,0 z"
       style="fill:#000000;fill-rule:nonzero;stroke:none"
       inkscape:connector-curvature="0" /><path
       id="path3942"
       d="m -80.208874,-22.219749 0,-30.129379 11.47946,0 0,3.675015 -7.68291,0 0,26.454364 -3.79655,0 z"
       style="fill:#000000;fill-rule:nonzero;stroke:none"
       inkscape:connector-curvature="0" /><path
       id="path3944"
       d="m -57.401484,-49.095512 c -1.24558,0 -2.11913,1.144738 -2.62161,3.434215 -0.36102,1.748618 -0.54199,4.489594 -0.54199,8.22669 0,3.896061 0.16075,6.68774 0.48226,8.37512 0.46203,2.471017 1.35581,3.705589 2.68134,3.705589 1.24557,0 2.08884,-1.234572 2.53065,-3.705589 0.28115,-1.66725 0.42168,-4.458365 0.42168,-8.37512 0,-4.038095 -0.13046,-6.780952 -0.3913,-8.22669 -0.4024,-2.289477 -1.25479,-3.434215 -2.56103,-3.434215 z m 0,-3.856555 c 2.4903,-0.01979 4.20797,0.983892 5.15226,3.012816 1.02425,2.208583 1.53679,6.377425 1.53679,12.504644 0,5.221399 -0.33156,8.917107 -0.9948,11.086749 -0.9838,3.173662 -2.88245,4.749958 -5.69425,4.729739 -2.99269,-0.01926 -4.97129,-1.606585 -5.93581,-4.760027 -0.62194,-2.068619 -0.93328,-5.755109 -0.93328,-11.056461 0,-5.083128 0.38114,-8.73933 1.14455,-10.968606 1.02415,-3.012816 2.93295,-4.529101 5.72454,-4.548854 z"
       style="fill:#000000;fill-rule:evenodd;stroke:none"
       inkscape:connector-curvature="0" /><path
       id="path3946"
       d="m -45.982604,-44.907858 c 0,-2.851969 0.66314,-4.960846 1.98866,-6.326631 1.08482,-1.105232 2.55089,-1.657378 4.39911,-1.657378 1.82792,0 3.36376,0.743092 4.60943,2.229277 1.08435,1.305585 1.62709,2.691123 1.62709,4.157554 0,2.069371 -0.5117,4.308995 -1.53623,6.718871 -1.24557,2.893357 -2.99268,5.31358 -5.24322,7.261611 -0.46109,0.401646 -0.85333,1.074944 -1.17484,2.018291 -0.30128,0.864433 -0.45196,1.687478 -0.45196,2.471017 0,1.726894 0.74318,2.591327 2.22947,2.591327 1.44667,0 2.16963,-1.084915 2.16963,-3.254557 l 3.70615,0 c 0,2.230308 -0.59353,3.98758 -1.77806,5.27266 -1.08482,1.206067 -2.46086,1.807689 -4.12717,1.807689 -1.54686,0 -2.90267,-0.541889 -4.06838,-1.626804 -1.26486,-1.205126 -1.89781,-2.771264 -1.89781,-4.699353 0,-1.245671 0.33167,-2.662061 0.99396,-4.24823 0.62373,-1.486185 1.29609,-2.612111 2.01905,-3.374956 1.64694,-1.708172 2.54072,-2.661023 2.68124,-2.862316 0.90394,-1.124985 1.64704,-2.531217 2.23032,-4.217754 0.38123,-1.08548 0.57227,-2.119224 0.57227,-3.103116 0,-1.045973 -0.23149,-1.878425 -0.69352,-2.501117 -0.44181,-0.623633 -1.08388,-0.93498 -1.92809,-0.93498 -0.82305,0 -1.46606,0.342387 -1.92809,1.02528 -0.52176,0.762845 -0.78354,1.847384 -0.78354,3.253615 l -3.61547,0 z"
       style="fill:#000000;fill-rule:nonzero;stroke:none"
       inkscape:connector-curvature="0" /><path
       id="path3948"
       d="m -27.994884,-22.219749 0,-30.129379 11.47843,0 0,3.675015 -7.71217,0 0,10.847266 4.75955,0 0,3.706055 -4.75955,0 0,8.164233 7.32087,0 0,3.73681 -11.08713,0 z"
       style="fill:#000000;fill-rule:nonzero;stroke:none"
       inkscape:connector-curvature="0" /><path
       id="path3950"
       d="m -6.483774,-25.956559 c 2.18977,0 3.28466,-3.504386 3.28466,-10.51485 0,-3.554615 -0.14015,-6.186478 -0.42234,-7.893709 -0.46185,-2.932863 -1.37613,-4.399295 -2.74192,-4.399295 l -2.13897,0 0,22.807854 2.01857,0 z m -0.33204,3.73681 -5.33239,0 0,-30.129379 5.96543,0 c 1.04598,0 2.10888,0.390359 3.19436,1.173898 0.92369,0.683833 1.61693,1.457025 2.07878,2.320517 0.3612,0.681952 0.67348,2.138977 0.93403,4.368254 0.301,2.451264 0.4515,5.122634 0.4515,8.01505 0,2.832216 -0.16084,5.28263 -0.48065,7.351346 -0.28219,1.888583 -0.65374,3.143277 -1.11558,3.766157 -1.54638,2.089689 -3.44457,3.133216 -5.69548,3.134157 z"
       style="fill:#000000;fill-rule:evenodd;stroke:none"
       inkscape:connector-curvature="0" /></g></svg>