<svg xmlns="http://www.w3.org/2000/svg" width="38" height="38" viewBox="0 0 38 38">
  <g fill="none" fill-rule="evenodd" transform="translate(-4 -5)">
    <rect width="46" height="46" rx="3"/>
    <path fill="#B23D28" stroke="#FFF" stroke-width="1.5" d="M40.6915299,15.7596 C39.9958315,11.8225091 38.243459,8.68069091 37.1867849,7.09014545 C36.763459,6.45196364 35.9693126,6.22941818 35.2473614,6.49450909 C33.5967184,7.09996364 29.9541463,7.78069091 23.3614191,6.04941818 C23.1054545,5.98396364 22.8002661,5.98396364 22.5443016,6.04941818 C15.9515743,7.78069091 12.3090022,7.09996364 10.6583592,6.49450909 C9.93312639,6.22941818 9.14226164,6.45196364 8.7156541,7.09014545 C7.66226164,8.68069091 5.90332594,11.8225091 5.21090909,15.7596 L40.6915299,15.7596 Z"/>
    <path fill="#205592" stroke="#FFF" stroke-width="1.5" d="M23.4716807,41.7718909 C26.4316807,40.7508 40.985561,34.9188 40.9986874,19.0329818 L4.90112639,19.0329818 C4.91425277,34.9188 19.4714146,40.7508 22.4314146,41.7718909 C22.7792639,41.8929818 23.1238315,41.8929818 23.4716807,41.7718909 Z"/>
  </g>
</svg>
