<?xml version="1.0" encoding="UTF-8" standalone="no"?>
<!-- Created with Inkscape (http://www.inkscape.org/) -->

<svg
   xmlns:dc="http://purl.org/dc/elements/1.1/"
   xmlns:cc="http://creativecommons.org/ns#"
   xmlns:rdf="http://www.w3.org/1999/02/22-rdf-syntax-ns#"
   xmlns:svg="http://www.w3.org/2000/svg"
   xmlns="http://www.w3.org/2000/svg"
   xmlns:sodipodi="http://sodipodi.sourceforge.net/DTD/sodipodi-0.dtd"
   xmlns:inkscape="http://www.inkscape.org/namespaces/inkscape"
   width="773"
   height="912"
   id="svg2"
   sodipodi:version="0.32"
   inkscape:version="0.47pre4 r22446"
   version="1.0"
   sodipodi:docname="Australian_National_Highway.svg">
  <defs
     id="defs4">
    <inkscape:perspective
       sodipodi:type="inkscape:persp3d"
       inkscape:vp_x="0 : 456 : 1"
       inkscape:vp_y="0 : 1000 : 0"
       inkscape:vp_z="773 : 456 : 1"
       inkscape:persp3d-origin="386.5 : 304 : 1"
       id="perspective2878" />
  </defs>
  <sodipodi:namedview
     id="base"
     pagecolor="#ffffff"
     bordercolor="#666666"
     borderopacity="1.0"
     inkscape:pageopacity="0.0"
     inkscape:pageshadow="2"
     inkscape:zoom="0.59758772"
     inkscape:cx="-8.808829"
     inkscape:cy="456"
     inkscape:document-units="px"
     inkscape:current-layer="layer1"
     inkscape:window-width="1680"
     inkscape:window-height="957"
     inkscape:window-x="0"
     inkscape:window-y="32"
     showgrid="false"
     inkscape:window-maximized="1" />
  <metadata
     id="metadata7">
    <rdf:RDF>
      <cc:Work
         rdf:about="">
        <dc:format>image/svg+xml</dc:format>
        <dc:type
           rdf:resource="http://purl.org/dc/dcmitype/StillImage" />
      </cc:Work>
    </rdf:RDF>
  </metadata>
  <g
     inkscape:label="Layer 1"
     inkscape:groupmode="layer"
     id="layer1">
    <path
       id="path1435"
       d=""
       style="fill:#a8e50a" />
    <path
       id="path2378"
       d="M 355.0249,898.79994 C 338.67749,891.72278 291.02831,871.18115 249.13789,853.15181 C 207.24749,835.12252 167.95786,818.2024 161.82751,815.55163 C 155.69723,812.90083 149.84558,810.74021 148.82387,810.75015 C 147.80213,810.76009 138.60669,806.54507 128.38952,801.38334 C 118.17234,796.22161 93.185938,785.10046 72.864137,776.66976 C 25.180154,756.88745 20.827113,753.86248 10.610072,733.40875 L 2.0681502,716.30832 L 1.0340751,358.15419 L 0,-1.0670305e-007 L 386.50001,-1.0670305e-007 L 773,-1.0670305e-007 L 773,364.02432 L 773,728.04857 L 764.64055,740.49835 C 756.53558,752.56911 737.00995,763.83131 683.38292,787.36713 C 623.30116,813.7358 388.98188,912.28162 387.03612,911.99939 C 385.77742,911.81683 371.3724,905.87707 355.0249,898.79994 z "
       style="fill:#408614;fill-opacity:1;stroke:none;stroke-width:7.64410353;stroke-miterlimit:4;stroke-dasharray:none;stroke-opacity:1" />
    <path
       id="path1441"
       d="M 356.96597,851.39349 C 342.46434,845.02636 300.19539,826.54558 263.03498,810.3251 C 225.87456,794.10464 191.02123,778.88207 185.58313,776.49722 C 180.14499,774.11237 174.95407,772.16849 174.04774,772.17747 C 173.14137,772.18641 164.98422,768.39427 155.92072,763.75039 C 146.8572,759.10651 124.69206,749.10113 106.66488,741.51625 C 64.36504,723.71866 60.503485,720.99714 51.440127,702.59549 L 43.862702,687.2107 L 42.945375,364.98907 L 42.028081,42.767406 L 384.8871,42.767406 L 727.74608,42.767406 L 727.74608,370.27026 L 727.74608,697.77308 L 720.33049,708.97381 C 713.14069,719.83354 695.81974,729.96582 648.24794,751.14037 C 594.95021,774.86355 387.08868,863.52256 385.36263,863.26867 C 384.24606,863.10442 371.46756,857.76058 356.96597,851.39349 z "
       style="fill:#408614;fill-opacity:1;stroke:#fde352;stroke-width:32.9610405;stroke-miterlimit:4;stroke-dasharray:none;stroke-opacity:1" />
    <path
       id="path8596"
       d="M 394.35082,169.52391 C 380.64769,165.91669 371.69481,155.3019 369.20383,139.7089 C 366.00535,119.68726 373.3493,102.06848 387.86414,94.94121 C 393.63317,92.10841 395.52489,91.75903 404.96297,91.7833 C 417.52685,91.8156 423.97354,94.17601 431.42844,101.47342 C 438.49477,108.39048 441.03915,115.23263 441.60293,128.8339 C 442.16846,142.47763 440.34181,149.5695 434.15301,157.75791 C 427.92954,165.99218 419.79749,169.74843 407.39513,170.11758 C 402.06392,170.27626 396.19398,170.0091 394.35082,169.52391 z M 415.23812,155.28081 C 418.89504,153.43047 423.19302,147.84114 424.91594,142.69522 C 425.61517,140.60678 426.18728,135.26616 426.18728,130.82717 C 426.18728,113.61595 419.08433,104.60231 405.52151,104.60231 C 392.06889,104.60231 384.61304,113.68148 384.42264,130.29489 C 384.35863,135.87952 384.99767,140.42469 386.33929,143.92693 C 388.57498,149.76313 394.44602,155.59792 399.11885,156.62757 C 400.79714,156.99739 402.67298,157.46652 403.28737,157.67007 C 405.1387,158.28345 412.02463,156.90679 415.23812,155.28081 z M 121.22751,130.80239 L 121.22751,92.21247 L 128.75646,92.54278 L 136.28543,92.87309 L 151.93564,118.50017 L 167.58586,144.12726 L 167.88572,118.22091 L 168.18557,92.31455 L 174.8674,92.31455 L 181.54922,92.31455 L 181.54922,130.85342 L 181.54922,169.3923 L 174.00901,169.3452 L 166.46879,169.29809 L 151.1091,143.9808 L 135.7494,118.6635 L 135.7494,144.0279 L 135.7494,169.3923 L 128.48846,169.3923 L 121.22751,169.3923 L 121.22751,130.80239 z M 204.98229,132.1662 C 212.80802,111.64281 219.56361,94.28026 219.99469,93.58275 C 220.46341,92.82434 224.04921,92.31455 228.915,92.31455 L 237.05152,92.31455 L 250.82605,127.22295 C 258.40204,146.42257 265.28294,163.78649 266.11693,165.80943 L 267.63329,169.48753 L 259.07752,169.16064 L 250.52176,168.83376 L 247.45275,160.45575 L 244.38374,152.07773 L 229.04029,152.07773 L 213.69685,152.07773 L 210.66895,160.45575 L 207.64104,168.83376 L 199.19736,169.1576 L 190.75367,169.48145 L 204.98229,132.1662 z M 238.50187,137.8351 C 238.49205,137.06712 236.26713,130.65794 233.5576,123.59248 C 227.99799,109.09508 229.16304,108.83196 223.0643,125.96239 C 221.23166,131.11 219.3815,136.20139 218.95284,137.27657 C 218.24489,139.0523 219.1057,139.23144 228.34659,139.23144 C 235.74991,139.23144 238.51487,138.85126 238.50187,137.8351 z M 293.2561,137.55584 L 293.2561,105.71938 L 282.08541,105.71938 L 270.91472,105.71938 L 270.91472,99.01697 L 270.91472,92.31455 L 301.07558,92.31455 L 331.23644,92.31455 L 331.23644,99.01697 L 331.23644,105.71938 L 320.06575,105.71938 L 308.89506,105.71938 L 308.89506,137.55584 L 308.89506,169.3923 L 301.07558,169.3923 L 293.2561,169.3923 L 293.2561,137.55584 z M 341.29005,130.85342 L 341.29005,92.31455 L 349.10954,92.31455 L 356.92902,92.31455 L 356.92902,130.85342 L 356.92902,169.3923 L 349.10954,169.3923 L 341.29005,169.3923 L 341.29005,130.85342 z M 455.23107,130.80239 L 455.23107,92.21247 L 462.61852,92.54278 L 470.00599,92.87309 L 485.03848,117.4486 C 493.30635,130.96513 500.5383,142.50166 501.10947,143.08533 C 501.75005,143.73994 502.14795,134.21682 502.14795,118.23055 L 502.14795,92.31455 L 508.85037,92.31455 L 515.55278,92.31455 L 515.55278,130.85342 L 515.55278,169.3923 L 508.00058,169.3923 L 500.44838,169.3923 L 485.41673,144.73286 C 477.14933,131.17016 469.99152,119.83018 469.51049,119.53288 C 469.02946,119.23559 468.63589,130.33233 468.63589,144.19232 L 468.63589,169.3923 L 461.93348,169.3923 L 455.23107,169.3923 L 455.23107,130.80239 z M 527.13465,162.45775 C 528.59852,158.59191 535.20694,141.2282 541.82002,123.87174 L 553.8438,92.31455 L 562.02717,92.31455 C 568.87051,92.31455 570.39316,92.65578 571.32578,94.39838 C 571.93915,95.54449 578.94072,112.90716 586.88481,132.98209 L 601.32862,169.48197 L 592.82779,169.15787 L 584.32694,168.83376 L 581.06074,160.14597 L 577.79455,151.45819 L 562.5919,151.76796 L 547.38924,152.07773 L 544.46937,160.45575 L 541.54949,168.83376 L 533.01127,169.16016 L 524.47304,169.48657 L 527.13465,162.45775 z M 572.52329,138.22647 C 572.52329,137.39105 569.14717,128.30568 563.34938,113.53886 C 562.35985,111.01855 561.8423,111.89013 558.04281,122.47541 C 555.72726,128.92648 553.4801,135.33566 553.04911,136.71804 C 552.27612,139.19735 552.40288,139.23144 562.39439,139.23144 C 567.96529,139.23144 572.52329,138.77921 572.52329,138.22647 z M 610.50362,131.41196 L 610.50362,93.43162 L 617.76457,93.43162 L 625.02552,93.43162 L 625.02552,124.70955 L 625.02552,155.98747 L 644.57422,155.98747 L 664.12292,155.98747 L 664.12292,162.68988 L 664.12292,169.3923 L 637.31327,169.3923 L 610.50362,169.3923 L 610.50362,131.41196 z "
       style="fill:#fde352;fill-opacity:1" />
    <text
       xml:space="preserve"
       style="font-size:520.65472412px;font-style:normal;font-variant:normal;font-weight:normal;font-stretch:normal;text-align:center;line-height:125%;writing-mode:lr-tb;text-anchor:middle;fill:#fde352;fill-opacity:1;stroke:none;font-family:Roadgeek 2005 Series F;-inkscape-font-specification:Roadgeek 2005 Series F"
       x="457.59381"
       y="555.45551"
       id="text2880"
       transform="scale(0.8298335,1.205061)"
       sodipodi:linespacing="125%"><tspan
         sodipodi:role="line"
         id="tspan2882"
         x="457.59381"
         y="555.45551">XXX</tspan></text>
  </g>
</svg>
