<svg xmlns="http://www.w3.org/2000/svg" width="1438" height="360" viewBox="0 0 1438 360">
  <g fill="none">
    <polygon fill="#003F87" points="168.356 340.29 25.651 180.102 168.383 19.172 1269.464 19.172 1412.197 180.102 1269.489 340.29"/>
    <path fill="#FFF" d="M1260.84322,38.3426802 L1386.54693,180.073505 L1260.8937,321.119232 L176.953885,321.119232 L51.3007237,180.073507 L177.00443,38.3426802 L1260.84322,38.3426802 M1278.08681,7.2704501e-05 L159.760819,7.2704501e-05 L8.45401174e-06,180.130266 L159.760816,359.461842 L1278.0868,359.461842 L1437.84762,180.130266 L1278.08681,7.2704501e-05 L1278.08681,7.2704501e-05 Z"/>
    <path fill="#000" d="M1277.36829,1.59759912 L1435.71013,180.127957 L1277.37035,357.864311 L160.477295,357.864311 L2.13750895,180.127955 L160.479327,1.59759912 L1277.36829,1.59759912 M1278.08681,-2.14168298e-05 L159.760819,-2.14168298e-05 L-8.53855186e-05,180.130363 L159.760819,359.461928 L1278.08681,359.461928 L1437.84771,180.130363 L1278.08681,-2.14168298e-05 L1278.08681,-2.14168298e-05 Z"/>
    <path fill="#FFF" d="M35.8669276 49.0814886C44.2287489 49.0814886 51.4058526 50.5482816 57.3968627 53.4818677 64.7597236 57.1006911 68.443218 62.3431692 68.443218 69.2065496L68.443218 135.388362C68.443218 138.010977 67.5075525 140.256574 65.634846 142.130657 63.7621392 144.001988 61.5165424 144.937653 58.8953033 144.937653 56.2107694 144.937653 53.9335249 144.001988 52.0608182 142.130657 50.1894874 140.256574 49.2524462 138.010977 49.2524462 135.388362L49.2524462 72.2034308C49.2524462 69.8312439 47.9425145 67.8030518 45.3212758 66.118854 42.7000367 64.4319044 39.5476702 63.5898057 35.8669276 63.5898057 30.9367968 63.6531006 27.3482449 65.0565987 25.101272 67.8030518 27.4101638 69.2395732 29.1576565 71.234742 30.3437501 73.7940622 28.9072286 73.7940622 27.2546785 74.4820513 25.3819717 75.8525261 23.4473461 77.2890475 22.480033 78.7558406 22.480033 80.2529051L22.480033 115.8247C25.6007522 116.823661 28.1284245 118.634448 30.0630504 121.254311 31.9963003 123.874174 32.9649892 126.810513 32.9649892 130.052318 32.9649892 134.171997 31.5284677 137.700006 28.6581766 140.63084 25.7245905 143.503884 22.1993336 144.937653 18.0810299 144.937653 14.0232694 144.937653 10.5296601 143.503883 7.59607405 140.63084 4.72578292 137.700006 3.2906375 134.171997 3.2906375 130.052318L3.2906375 79.9722052C3.2906375 78.8494067 3.88230813 77.5697467 5.06977778 76.1332252 6.50354746 74.5123226 8.15884944 73.4197957 10.0301802 72.8583964 9.03121976 70.8604756 7.40894112 69.363411 5.16334425 68.3644506 3.22734259 67.4287851 1.57341636 67.1480857.20156584 67.5223518 2.19811062 63.9640715 4.226303 61.1570753 6.28614268 59.0986116 11.4653256 53.9194287 17.580174 50.7987095 24.6334397 49.7364542 27.6908635 49.3016452 31.4349009 49.0814886 35.8669276 49.0814886zM100.830999 49.0814883C104.887384 49.0814883 108.382369 50.5180101 111.315955 53.3883012 114.186246 56.3218872 115.621392 59.8471442 115.621392 63.9640718L115.621392 119.008715C122.549443 113.204837 129.569686 110.177685 136.683494 109.927257L136.683494 58.6280272C136.683494 56.0081642 137.620536 53.7625674 139.491866 51.8884846 141.364573 50.0171538 143.641818 49.0814883 146.326351 49.0814883 148.947591 49.0814883 151.193187 50.0171538 153.065894 51.8884846 154.938601 53.7625674 155.874266 56.0081642 155.874266 58.6280272L155.874266 110.488656 156.903498 110.675789C161.397444 111.487616 165.016267 113.702942 167.76272 117.321765 170.507797 121.006635 171.631972 125.123563 171.132491 129.678052 170.571092 134.235292 168.541524 137.980706 165.047915 140.91154 161.551553 143.847878 157.526816 145.185329 152.972327 144.937653 148.416463 144.626681 144.577483 142.815894 141.45814 139.508042 138.275501 136.20019 136.683494 132.270395 136.683494 127.713154L136.683494 125.373991C132.314763 126.122523 127.541493 128.337848 122.36231 132.019967 119.240215 134.392154 116.057577 137.512873 112.81302 141.379372 110.815099 143.691016 108.569502 144.87711 106.073477 144.937653 103.390319 144.937653 101.143346 144.001987 99.3339342 142.130657 97.4612275 140.256574 96.5255623 138.010977 96.5255623 135.388362L96.5255623 78.1008745C93.404843 77.165209 90.8455231 75.3846929 88.8489783 72.7648299 86.9143527 70.1422148 85.9470396 67.2113809 85.9470396 63.9640715 85.9470396 59.8471439 87.382185 56.321887 90.2538522 53.3883009 93.1860628 50.5180101 96.7126958 49.0814883 100.830999 49.0814883zM155.874266 130.522902C156.684718 130.522902 157.371331 130.242203 157.934106 129.678052 158.495505 129.116652 158.776205 128.461687 158.776205 127.713154 158.776205 126.904079 158.495505 126.21609 157.934106 125.654691 157.371331 125.093291 156.684717 124.812592 155.874266 124.812592L155.874266 130.522902zM188.263423 49.0814883C192.319808 49.0814883 195.814793 50.5180101 198.748379 53.3883012 201.61867 56.3218872 203.053816 59.8471442 203.053816 63.9640718L203.053816 119.008715C209.981867 113.204837 217.002109 110.177685 224.115918 109.927257L224.115918 58.6280272C224.115918 56.0081642 225.05296 53.7625674 226.92429 51.8884846 228.796997 50.0171538 231.074241 49.0814883 233.758775 49.0814883 236.380014 49.0814883 238.625611 50.0171538 240.498318 51.8884846 242.371025 53.7625674 243.30669 56.0081642 243.30669 58.6280272L243.30669 110.488656 244.335922 110.675789C248.829868 111.487616 252.448691 113.702942 255.195144 117.321765 257.940221 121.006635 259.064396 125.123563 258.564915 129.678052 258.003516 134.235292 255.973948 137.980706 252.480339 140.91154 248.983977 143.847878 244.95924 145.185329 240.404751 144.937653 235.848887 144.626681 232.009907 142.815894 228.890563 139.508042 225.707925 136.20019 224.115918 132.270395 224.115918 127.713154L224.115918 125.373991C219.747187 126.122523 214.973917 128.337848 209.794734 132.019967 206.672639 134.392154 203.490001 137.512873 200.245444 141.379372 198.247523 143.691016 196.001926 144.87711 193.505901 144.937653 190.822743 144.937653 188.57577 144.001987 186.766358 142.130657 184.893651 140.256574 183.957986 138.010977 183.957986 135.388362L183.957986 78.1008745C180.837267 77.165209 178.277947 75.3846929 176.281402 72.7648299 174.346777 70.1422148 173.379464 67.2113809 173.379464 63.9640715 173.379464 59.8471439 174.814609 56.321887 177.686276 53.3883009 180.618487 50.5180101 184.14512 49.0814883 188.263423 49.0814883zM243.30669 130.522902C244.117142 130.522902 244.803755 130.242203 245.36653 129.678052 245.927929 129.116652 246.208629 128.461687 246.208629 127.713154 246.208629 126.904079 245.927929 126.21609 245.36653 125.654691 244.803755 125.093291 244.117142 124.812592 243.30669 124.812592L243.30669 130.522902zM338.601455 51.8884846C340.472786 53.7625674 341.408452 56.0081642 341.408452 58.6280272L341.408452 135.388362C341.408452 138.010977 340.472786 140.256574 338.601455 142.130657 336.728749 144.001988 334.481776 144.937653 331.860537 144.937653 329.61494 144.937653 327.632155 144.268927 325.91631 142.925972 324.199089 141.583017 323.061155 139.852037 322.499756 137.730278L306.492998 85.8696491C306.492998 85.809106 306.459974 85.7760826 306.399431 85.7760826 306.336137 85.7760826 306.305865 85.8091063 306.305865 85.8696491L290.297731 137.730278C289.736332 139.852037 288.613533 141.583017 286.92796 142.925972 285.243762 144.268927 283.277489 144.937653 281.030516 144.937653 278.347358 144.937653 276.070114 144.001988 274.197407 142.130657 272.3247 140.256574 271.389035 138.010977 271.389035 135.388362L271.389035 76.978076C268.580663 75.9791156 266.286907 74.2618945 264.509143 71.8291647 262.730002 69.3936828 261.841121 66.6197102 261.841121 63.4962389 261.841121 59.4398544 263.244619 56.0411876 266.052991 53.2947345 268.861363 50.5482814 272.3247 49.1447832 276.44438 49.0814883 280.499389 49.2686216 283.86916 50.7656861 286.553694 53.5754341 289.236852 56.3824304 290.578431 59.7535775 290.578431 63.6833721L290.578431 97.1967037C290.578431 97.2599987 290.593567 97.306782 290.625214 97.3370536 290.656862 97.3700772 290.687133 97.3700772 290.718781 97.3370536 290.750428 97.306782 290.797211 97.2902702 290.859131 97.2902702L305.46239 51.8884846C305.711442 51.4536753 306.025165 51.2335187 306.399431 51.2335187 306.773698 51.2335187 307.084669 51.4536753 307.335097 51.8884846L322.031923 97.2902702C322.093842 97.3535651 322.140625 97.3700769 322.172273 97.3370536 322.202544 97.306782 322.219056 97.2599987 322.219056 97.1967037L322.219056 58.6280272C322.219056 56.0081642 323.154722 53.7625674 325.027428 51.8884846 326.900135 50.0171538 329.177379 49.0814883 331.860537 49.0814883 334.481776 49.0814883 336.728749 50.0171538 338.601455 51.8884846zM430.057241 74.7297274C433.114665 77.5394754 434.675025 81.9068311 434.738319 87.8345463L434.738319 135.388362C434.738319 138.010977 433.802654 140.256574 431.928571 142.130657 430.057241 144.001988 427.77862 144.937653 425.095462 144.937653 422.475599 144.937653 420.228626 144.001988 418.35592 142.130657 416.484589 140.256574 415.547548 138.010977 415.547548 135.388362L415.547548 86.1503485C400.444808 98.5699303 391.48994 115.263301 388.681568 136.233213L388.681568 136.326779C388.681568 138.448538 387.714255 140.413435 385.779629 142.224223 383.781708 144.035011 381.567759 144.937653 379.133653 144.937653 376.450495 144.937653 374.173251 144.001987 372.300544 142.130656 370.427837 140.256573 369.492172 138.010977 369.492172 135.388362L369.492172 76.978076C366.6838 75.9791156 364.40518 74.2618945 362.659063 71.8291647 360.848275 69.3331397 359.944258 66.556415 359.944258 63.4962389 359.944258 59.5031493 361.347756 56.1017307 364.156128 53.2947345 366.9645 50.4849865 370.365919 49.0814883 374.360384 49.0814883 378.291555 49.0814883 381.661326 50.4849865 384.469698 53.2947345 387.27807 56.1017307 388.681568 59.5031493 388.681568 63.4962389L388.681568 102.345615C393.798832 89.053663 401.818034 79.1631298 412.739176 72.6712634 410.119313 69.9881055 408.808005 66.7435482 408.808005 62.9348398 408.808005 59.1288835 410.179856 55.8540546 412.927685 53.1076015 415.609467 50.4244436 418.885672 49.0814883 422.756299 49.0814883 426.562256 49.0814883 429.837084 50.4244436 432.583538 53.1076015 435.266695 55.8540546 436.60965 59.1288835 436.60965 62.9348398 436.60965 68.1167748 434.424596 72.0465692 430.057241 74.7297274zM425.843995 62.9348398C425.843995 62.0624695 425.563295 61.3442088 425.001896 60.7828094 424.377202 60.1581152 423.628669 59.8471439 422.756299 59.8471439 421.881177 59.8471439 421.132644 60.1581152 420.509326 60.7828094 419.884632 61.3442088 419.573661 62.0624695 419.573661 62.9348398 419.573661 63.8099622 419.884632 64.5584945 420.509326 65.1831888 421.132644 65.807883 421.881177 66.1188543 422.756299 66.1188543 423.628669 66.1188543 424.377202 65.807883 425.001896 65.1831888 425.563295 64.5584945 425.843995 63.8099622 425.843995 62.9348398zM489.78021 49.0814886C495.771221 49.2080787 500.732999 50.0501775 504.665546 51.6077852 510.031862 53.2947347 514.335922 55.9476214 517.583232 59.5664448 521.13876 63.6228293 523.043114 68.4277463 523.293542 73.9811954L523.293542 135.388363C523.293542 138.010978 522.357877 140.256575 520.483794 142.130657 518.612464 144.001988 516.366867 144.937653 513.744252 144.937653 511.061094 144.937653 508.782473 144.001988 506.911143 142.130657 505.039812 140.256574 504.101395 138.010977 504.101395 135.388363L504.101395 134.359131C503.977557 130.616469 502.417197 125.684962 499.423068 119.570114 495.864787 112.329715 491.370841 106.027734 485.94123 100.661418 483.445205 98.6002021 481.51058 97.4471321 480.137353 97.196704 479.763087 97.1361609 479.419093 97.1361609 479.108121 97.196704 478.420132 97.3838372 477.952299 97.8846932 477.704623 98.6937686 477.454195 99.3184629 477.330357 100.13029 477.330357 101.12925L477.330357 115.824701C480.451076 116.823661 482.977373 118.634449 484.911998 121.254312 486.846624 123.874175 487.815313 126.810513 487.815313 130.052318 487.815313 134.171998 486.378792 137.700006 483.5085 140.630841 480.574914 143.503884 477.079929 144.937653 473.023544 144.937653 468.906617 144.937653 465.378608 143.503884 462.445022 140.630841 459.574731 137.700006 458.140961 134.171998 458.140961 130.052318L458.140961 100.284399C458.201504 97.9149645 458.70236 95.6060724 459.638026 93.3577238 461.071795 89.8021953 463.443982 87.0557424 466.751834 85.1211165 468.749755 83.9350232 470.901786 83.1864909 473.210677 82.8755197 474.333476 82.7489296 475.552593 82.718658 476.862524 82.7819532 480.731776 82.9690864 484.848703 84.2157229 489.218811 86.5246146 495.270364 89.8324668 500.232142 94.4199791 504.101394 100.284399L504.101394 75.4782594C504.101394 74.5425939 503.883989 73.4830906 503.446428 72.296997 502.384173 69.487249 500.606409 67.181109 498.110384 65.3703214 495.92533 63.8705048 493.118334 62.8412731 489.686643 62.2798737 486.315496 61.7817695 482.696673 61.8450645 478.827421 62.4670069 474.460066 63.2788341 470.590814 64.4319041 467.219667 65.9317208 465.84644 66.556415 464.599804 67.2746758 463.477006 68.0837512 461.602923 69.4569777 460.323263 70.8934992 459.638026 72.3905638 459.013331 70.8302043 458.639065 69.6743822 458.515227 68.9258499 458.328094 68.1773176 458.234527 67.2746758 458.234527 66.2124204 458.234527 65.5877262 458.295071 64.9024888 458.421661 64.1512047 458.795927 62.2193309 459.698569 60.4085433 461.13509 58.7215937 462.134051 57.5382521 463.537549 56.2888636 465.348336 54.9789323 468.906617 52.7938785 473.053816 51.2032472 477.79819 50.2042871 480.855614 49.5190497 484.317576 49.1447835 488.189579 49.0814886L489.78021 49.0814886zM551.374511 48.1458231C551.250673 46.3350355 550.158146 44.6205662 548.099682 42.9969118 545.6642 40.68802 541.109711 38.5965327 534.430712 36.725202 529.752385 35.5391087 525.101578 34.7272812 520.483794 34.2897201 516.116438 34.0420441 512.778315 34.353015 510.466671 35.2281374 508.160531 27.5501775 508.782473 20.750092 512.340754 14.8196247 513.463552 12.8849991 514.930345 11.1072348 516.738381 9.48358015 519.110568 7.30127818 522.729391 5.11622444 527.597603 2.93117069 529.595524 2.05880038 531.406311 1.46437768 533.027214 1.15340643 534.026174.904354348 535.148973.684197793 536.398361.497064579 537.52116.309931366 538.613687.2163649 539.67319.2163649L541.173007.2163649C543.853413.2163649 546.663161.684197511 549.596747 1.62123905 550.906679 1.93221029 552.21661 2.36977133 553.529293 2.93117069 553.840265 2.9944656 555.461167 3.64943142 558.394753 4.89606788 560.830235 5.83448517 562.481409 6.45917943 563.356532 6.77015067 565.478291 7.45813984 567.101945 7.8929491 568.224744 8.08008232 569.410837 8.33051043 570.690497 8.45434846 572.063724 8.45434846 573.808464 8.51764337 575.555957 8.33051043 577.306202 7.8929491 579.050942 7.45813984 580.798435 6.80042223 582.545928 5.92805191 582.859651 7.17744044 583.016512 8.4240769 583.016512 9.67071336 582.953217 11.7319291 582.515656 13.5729882 581.703829 15.1938908 580.330602 17.5660778 578.178572 19.3465938 575.244986 20.5299354 573.186522 21.4050578 570.75104 21.8728904 567.944044 21.9334335 564.385764 21.8728904 561.298068 21.3114913 558.675453 20.2492357 557.302227 19.6878364 556.022567 19.0025993 554.839225 18.1907718 553.964103 17.4422395 552.871576 16.7542503 551.561645 16.1295561 548.317087 14.6324915 544.728536 13.8536876 540.795989 13.7903927 539.238381 13.7903927 537.741317 13.9169828 536.304795 14.1646589 533.80877 14.6022199 531.81085 15.4140474 530.313785 16.597389 528.940558 17.8467775 528.128731 19.096166 527.878303 20.3428025 534.24358 21.278468 540.328156 22.745261 546.132034 24.7431815 551.935911 26.7411021 556.991256 29.2041037 561.298068 32.1376897 567.787183 36.7554736 570.877631 41.9374085 570.563907 47.6779905L570.563907 115.918267C573.684626 116.853932 576.213675 118.634448 578.148301 121.254311 580.080175 123.874174 581.048863 126.810513 581.048863 130.052318 581.048863 134.171997 579.612342 137.700006 576.742051 140.63084 573.808465 143.503884 570.316231 144.937653 566.259847 144.937653 562.140167 144.937653 558.61491 143.503883 555.681324 140.63084 552.811033 137.700006 551.374511 134.171997 551.374511 130.052318L551.374511 48.1458231 551.374511 48.1458231zM660.993212 51.8884846C662.864543 53.7625674 663.800208 56.0081642 663.800208 58.6280272L663.800208 124.812592C663.800208 131.552134 661.491316 136.668022 656.873532 140.163008 652.56672 143.347022 644.985078 144.937653 634.125856 144.937653L628.321979 144.937653C617.462757 144.937653 609.881116 143.347022 605.574303 140.163008 600.956519 136.668022 598.647628 131.552134 598.647628 124.812592L598.647628 105.433311C598.647628 101.941078 599.583293 99.1313297 601.457376 97.0095708 602.640717 95.3886682 604.889066 94.0126896 608.196918 92.8898912 604.889066 91.7065496 602.640717 90.3002997 601.457376 88.6793971 599.583293 86.5576383 598.647628 83.7478903 598.647628 80.2529049L598.647628 63.9640718C598.647628 59.8471442 600.084149 56.3521588 602.95444 53.4818677 605.888026 50.5482816 609.413283 49.0814883 613.532963 49.0814883 617.589347 49.0814883 621.081581 50.5482816 624.015167 53.4818677 626.885458 56.3521588 628.321979 59.8471442 628.321979 63.9640718 628.321979 67.2113811 627.353291 70.1422151 625.421417 72.7648302 623.486791 75.3846932 620.957743 77.1954808 617.837023 78.1944412L617.837023 81.1885704C617.963613 84.2487465 619.554244 86.8988811 622.611669 89.14723 625.04715 90.8314278 627.884418 91.7065499 631.131727 91.767093 631.816965 91.767093 632.160959 92.1413592 632.160959 92.8898914 632.160959 93.5778806 631.816965 93.9191234 631.131727 93.9191234 627.884418 93.9824183 625.04715 94.8575407 622.611669 96.5417385 619.554244 98.7873354 617.963613 101.440222 617.837023 104.497646L617.837023 124.812592C617.837023 127.121484 619.149707 128.992815 621.76957 130.429337 624.32889 131.802563 627.47988 132.4878 631.225294 132.4878 635.03125 132.4878 638.182241 131.802563 640.678266 130.429337 643.300881 128.992815 644.610813 127.121484 644.610813 124.812592L644.610813 58.6280272C644.610813 56.0081642 645.546478 53.7625674 647.417809 51.8884846 649.291892 50.0171538 651.56776 49.0814883 654.25367 49.0814883 656.873532 49.0814883 659.119129 50.0171538 660.993212 51.8884846zM740.186277 83.9047516C743.868395 87.4602801 745.709455 91.0185604 745.709455 94.5768407L745.709455 123.219209C745.709455 126.840784 744.49309 130.459607 742.057608 134.078431 737.192148 141.318829 728.641818 144.937653 716.409369 144.937653 704.17692 144.937653 695.659613 141.349101 690.854697 134.171997 688.419215 130.553174 687.20285 126.964622 687.20285 123.406342L687.20285 100.848551C687.20285 98.2259354 688.138515 95.9803386 690.012598 94.1062561 691.883929 92.2349253 694.162549 91.2992598 696.845707 91.2992598 699.46557 91.2992598 701.713919 92.2349253 703.58525 94.1062561 705.45658 95.9803388 706.392246 98.2259357 706.392246 100.848551L706.392246 123.406342C706.392246 124.592435 706.829807 125.778529 707.704929 126.964622 709.325832 129.336809 712.259418 130.522902 716.502936 130.522902 720.683158 130.522902 723.616745 129.336809 725.303694 126.964622 726.11277 125.778529 726.520059 124.592435 726.520059 123.406342L726.520059 97.0095705C726.520059 94.7006788 725.95866 92.9531861 724.835861 91.7670924 721.899523 88.3354022 717.345034 86.2136434 711.166891 85.4018159 700.183831 84.0285894 691.727067 84.372584 685.799352 86.4310479 685.799352 70.3293478 689.076933 59.4398542 695.629342 53.7625671 699.184871 50.6418478 704.333782 49.0814881 711.073325 49.0814881 714.879281 49.0814881 719.593384 49.7061826 725.210128 50.9528191 731.388271 52.3893405 734.506238 53.1076013 734.569534 53.1076013 737.065559 53.2947345 739.124022 52.7938782 740.747677 51.6077846 741.185238 51.2968134 741.776909 50.4547146 742.528193 49.0814881 743.026297 49.5823443 743.650991 50.6721191 744.399524 52.3563169 745.271894 54.3542377 745.709455 55.9476208 745.709455 57.1309621 745.709455 61.4377747 743.650991 64.7758984 739.531312 67.1480854 736.911449 68.7084449 733.633868 68.9258496 729.701322 67.8030512 719.84106 64.8694652 713.662916 63.4962386 711.166892 63.6833716 707.110507 63.9337997 704.394326 65.5574543 703.023851 68.5515835 702.335862 70.111943 702.024891 71.6723027 702.088186 73.2326622 720.185054 73.2326628 732.885335 76.7909431 740.186277 83.9047516zM703.865949 8.82861432C704.427348 8.82861432 705.269447 8.86163795 706.392246 8.92218079 711.698019 9.23590381 716.816659 10.6696735 721.745414 13.2289934 726.613625 15.9121513 731.512109 20.1253974 736.440864 25.8659797 740.560543 30.7341916 743.648239 35.2886803 745.709455 39.5321979 733.22933 36.4747739 723.212207 34.4163099 715.660837 33.3540546 701.119496 31.2955907 687.797273 31.1084578 675.688662 32.7926553 676.50049 26.2402458 678.93322 20.8739297 682.989604 16.6909551 687.546845 12.0126282 693.724988 9.42303674 701.524034 8.92218079 702.462451 8.86163767 703.241255 8.82861432 703.865949 8.82861432zM703.02385 19.6878364C696.782412 19.8144265 692.288466 21.311491 689.542013 24.1817822 692.913161 23.493793 697.594239 23.3066598 703.585249 23.6203828 711.698019 23.994649 718.220157 25.1807423 723.148911 27.1759113 719.841059 24.4322103 716.285531 22.4342895 712.476822 21.1849009 709.232265 20.2492354 706.081274 19.7511313 703.02385 19.6878364zM778.097236 49.0814883C782.15362 49.0814883 785.648606 50.5180101 788.582192 53.3883012 791.452483 56.3218872 792.889004 59.8471442 792.889004 63.9640718L792.889004 119.008715C799.81568 113.204837 806.835922 110.177685 813.949731 109.927257L813.949731 58.6280272C813.949731 56.0081642 814.888148 53.7625674 816.759479 51.8884846 818.63081 50.0171538 820.90943 49.0814883 823.592588 49.0814883 826.215203 49.0814883 828.4608 50.0171538 830.332131 51.8884846 832.206213 53.7625674 833.141879 56.0081642 833.141879 58.6280272L833.141879 110.488656 834.171111 110.675789C838.665056 111.487616 842.28388 113.702942 845.030333 117.321765 847.774034 121.006635 848.899584 125.123563 848.398728 129.678052 847.837329 134.235292 845.809137 137.980706 842.314151 140.91154 838.819166 143.847878 834.793053 145.185329 830.238564 144.937653 825.684075 144.626681 821.845095 142.815894 818.724376 139.508042 815.543114 136.20019 813.949731 132.270395 813.949731 127.713154L813.949731 125.373991C809.582375 126.122523 804.80773 128.337848 799.628547 132.019967 796.507828 134.392154 793.323813 137.512873 790.079256 141.379372 788.081335 143.691016 785.835738 144.87711 783.339713 144.937653 780.656555 144.937653 778.410959 144.001987 776.600171 142.130657 774.72884 140.256574 773.793175 138.010977 773.793175 135.388362L773.793175 78.1008745C770.672455 77.165209 768.113135 75.3846929 766.115215 72.7648299 764.180589 70.1422148 763.214652 67.2113809 763.214652 63.9640715 763.214652 59.8471439 764.648422 56.321887 767.521464 53.3883009 770.4523 50.5180101 773.980308 49.0814883 778.097236 49.0814883zM833.141879 130.522902C833.950954 130.522902 834.638943 130.242203 835.200343 129.678052 835.761742 129.116652 836.042441 128.461687 836.042441 127.713154 836.042441 126.904079 835.761742 126.21609 835.200343 125.654691 834.638944 125.093291 833.950954 124.812592 833.141879 124.812592L833.141879 130.522902z" transform="translate(300.708 82.722)"/>
  </g>
</svg>
