<?xml version="1.0" encoding="UTF-8" standalone="no"?>
<!-- Created with Inkscape (http://www.inkscape.org/) -->

<svg
   xmlns:dc="http://purl.org/dc/elements/1.1/"
   xmlns:cc="http://creativecommons.org/ns#"
   xmlns:rdf="http://www.w3.org/1999/02/22-rdf-syntax-ns#"
   xmlns:svg="http://www.w3.org/2000/svg"
   xmlns="http://www.w3.org/2000/svg"
   xmlns:sodipodi="http://sodipodi.sourceforge.net/DTD/sodipodi-0.dtd"
   xmlns:inkscape="http://www.inkscape.org/namespaces/inkscape"
   width="1990.5714"
   height="1156.7144"
   id="svg1315"
   sodipodi:version="0.32"
   inkscape:version="0.47pre4 r22446"
   version="1.0"
   sodipodi:docname="Australian_Alphanumeric_National_Route.svg">
  <defs
     id="defs1317">
    <inkscape:perspective
       sodipodi:type="inkscape:persp3d"
       inkscape:vp_x="0 : 579.375 : 1"
       inkscape:vp_y="0 : 1000 : 0"
       inkscape:vp_z="1446.25 : 579.375 : 1"
       inkscape:persp3d-origin="723.125 : 386.25 : 1"
       id="perspective2882" />
  </defs>
  <sodipodi:namedview
     id="base"
     pagecolor="#ffffff"
     bordercolor="#666666"
     borderopacity="1.0"
     inkscape:pageopacity="0.0"
     inkscape:pageshadow="2"
     inkscape:zoom="0.35"
     inkscape:cx="717.93297"
     inkscape:cy="446.28749"
     inkscape:document-units="px"
     inkscape:current-layer="layer1"
     inkscape:window-width="1680"
     inkscape:window-height="957"
     inkscape:window-x="0"
     inkscape:window-y="32"
     showgrid="false"
     inkscape:window-maximized="1" />
  <metadata
     id="metadata1320">
    <rdf:RDF>
      <cc:Work
         rdf:about="">
        <dc:format>image/svg+xml</dc:format>
        <dc:type
           rdf:resource="http://purl.org/dc/dcmitype/StillImage" />
      </cc:Work>
    </rdf:RDF>
  </metadata>
  <g
     inkscape:label="Layer 1"
     inkscape:groupmode="layer"
     id="layer1"
     transform="translate(272.21867,-2.926241)">
    <path
       id="path1435"
       d=""
       style="fill:#a8e50a" />
    <path
       id="path2378"
       d="m 642.01482,1142.8986 c -42.09667,-8.9763 -164.7993,-35.0295 -272.67229,-57.8967 -107.873,-22.8672 -209.04874,-44.3273 -224.8352,-47.6894 -15.78617,-3.3619 -30.85494,-6.1024 -33.48601,-6.0898 -2.63107,0.013 -26.310487,-5.3334 -52.620959,-11.8801 -26.310481,-6.5468 -90.653604,-20.652 -142.984775,-31.345 -122.792266,-25.0903 -134.001756,-28.9272 -160.311966,-54.869 l -21.9965,-21.68899 -2.66302,-454.25666 -2.66277,-454.256709 995.28576,0 995.28561,0 0,461.701949 0,461.70171 -21.5265,15.7905 c -20.8716,15.3096 -71.1523,29.5939 -209.2488,59.445 -154.7178,33.444 -758.11909,158.4324 -763.12992,158.0744 -3.24125,-0.2315 -40.33601,-7.7651 -82.43266,-16.7412 z"
       style="fill:#408614;fill-opacity:1;stroke:none" />
    <path
       style="fill:#408614;fill-opacity:1;stroke:#fde352;stroke-width:59.77729416;stroke-miterlimit:4;stroke-opacity:1"
       d="m 650.34411,1063.9517 c -39.51985,-7.6844 -154.7113,-29.9888 -255.98089,-49.5655 -101.26958,-19.57642 -196.25199,-37.94863 -211.07182,-40.82688 -14.82012,-2.87834 -28.96634,-5.22427 -31.43645,-5.21347 -2.47011,0.0109 -24.70001,-4.5659 -49.39974,-10.17066 C 77.755199,952.57052 17.350715,940.49494 -31.777026,931.34087 -147.05246,909.86072 -157.57609,906.57623 -182.27555,884.36733 l -20.65012,-18.568 -2.49973,-388.8899 -2.49998,-388.889937 934.36021,0 934.35977,0 0,395.263807 0,395.26376 -20.2091,13.51832 c -19.5936,13.10644 -66.7964,25.33518 -196.4393,50.89086 -145.2471,28.6315 -711.71168,135.63416 -716.41544,135.32776 -3.04283,-0.1983 -37.86681,-6.6478 -77.38665,-14.3323 z"
       id="path1441" />
    <path
       style="fill:#fde352;fill-opacity:1"
       d="m 731.31193,237.66691 c -18.52545,-4.39602 -30.62899,-17.3319 -33.99656,-36.33459 -4.32393,-24.3997 5.60431,-45.87113 25.22703,-54.55689 7.79924,-3.45223 10.35666,-3.87802 23.11609,-3.84843 16.98524,0.0393 25.7006,2.91591 35.77897,11.80901 9.55299,8.42959 12.99278,16.76789 13.75504,33.34332 0.76442,16.62714 -1.70507,25.26979 -10.07169,35.24874 -8.41353,10.03484 -19.40743,14.61244 -36.17423,15.06233 -7.20733,0.19336 -15.14297,-0.13222 -17.63465,-0.72349 z m 28.23761,-17.35759 c 4.9439,-2.25496 10.75428,-9.0665 13.08365,-15.33767 0.94517,-2.5451 1.71862,-9.05355 1.71862,-14.46321 0,-20.97473 -9.60245,-31.95935 -27.93812,-31.95935 -18.18671,0 -28.26646,11.06448 -28.52375,31.31069 -0.0865,6.8058 0.77737,12.34485 2.59098,16.61292 3.02255,7.1124 10.95976,14.22306 17.27687,15.47786 2.26892,0.45069 4.80495,1.0224 5.63551,1.27046 2.50286,0.74752 11.8119,-0.93018 16.15624,-2.9117 z m -397.47552,-29.83108 0,-47.02823 10.17846,0.40253 10.17866,0.40253 21.15764,31.23087 21.15765,31.23089 0.40527,-31.57121 0.40547,-31.57123 9.0331,0 9.03331,0 0,46.96605 0,46.96608 -10.19377,-0.0574 -10.19357,-0.0574 -20.76494,-30.85335 -20.76494,-30.85337 0,30.91077 0,30.91077 -9.81617,0 -9.81617,0 0,-47.02828 z m 113.22892,1.66204 c 10.57961,-25.01118 19.71261,-46.17034 20.2953,-47.02036 0.63371,-0.92426 5.48144,-1.54553 12.05958,-1.54553 l 10.99979,0 18.62182,42.54173 c 10.24204,23.39794 19.54441,44.55878 20.67191,47.02408 l 2.0501,4.48237 -11.56659,-0.39839 -11.56678,-0.39833 -4.14886,-10.21 -4.14907,-10.21002 -20.74295,0 -20.74296,0 -4.09352,10.21002 -4.09333,10.21 -11.41507,0.39464 -11.41508,0.39468 19.23571,-45.47489 z m 45.31547,6.90851 c -0.0133,-0.93591 -3.02117,-8.74658 -6.68431,-17.35701 -7.51604,-17.6675 -5.94108,-17.98815 -14.18602,2.88813 -2.47754,6.27323 -4.97883,12.47792 -5.55818,13.78821 -0.95715,2.16403 0.20666,2.38234 12.69938,2.38234 10.00869,0 13.7466,-0.46331 13.72913,-1.70167 z m 74.02253,-0.34033 0,-38.79805 -15.10156,0 -15.10176,0 0,-8.168 0,-8.16802 40.77468,0 40.77469,0 0,8.16802 0,8.168 -15.10176,0 -15.10176,0 0,38.79805 0,38.79806 -10.57117,0 -10.57136,0 0,-38.79806 z m 64.93761,-8.16802 0,-46.96605 10.57117,0 10.57136,0 0,46.96605 0,46.96608 -10.57136,0 -10.57117,0 0,-46.96608 z m 154.03794,-0.0622 0,-47.02823 9.98711,0.40253 9.9871,0.40253 20.3228,29.94936 c 11.1772,16.47216 20.9543,30.53133 21.7262,31.24264 0.8663,0.79775 1.404,-10.80775 1.404,-30.2897 l 0,-31.58298 9.0612,0 9.061,0 0,46.96605 0,46.96608 -10.2099,0 -10.2099,0 -20.3214,-30.05167 c -11.1768,-16.5284 -20.8534,-30.34807 -21.5038,-30.71036 -0.6504,-0.36231 -1.1825,13.16093 -1.1825,30.05162 l 0,30.71041 -9.0609,0 -9.06101,0 0,-47.02828 z m 97.20691,38.57736 c 1.9793,-4.71116 10.9133,-25.87175 19.8533,-47.0235 l 16.2552,-38.45771 11.063,0 c 9.2517,0 11.3103,0.41586 12.571,2.5395 0.8292,1.39674 10.2947,22.55604 21.0344,47.0207 l 19.5267,44.48121 -11.4923,-0.39498 -11.4924,-0.39497 -4.4158,-10.58753 -4.4154,-10.58752 -20.5526,0.37751 -20.5526,0.37752 -3.9473,10.21002 -3.9477,10.21 -11.5428,0.39777 -11.5429,0.39776 3.5982,-8.56578 z m 61.3614,-29.52986 c 0,-1.01809 -4.5641,-12.09015 -12.4024,-30.08598 -1.3377,-3.07142 -2.0373,-2.00924 -7.174,10.89067 -3.1303,7.86171 -6.1681,15.67237 -6.751,17.35703 -1.0449,3.02144 -0.8735,3.063 12.634,3.063 7.5314,0 13.6934,-0.55112 13.6934,-1.22472 z m 51.3458,-8.30463 0,-46.28537 9.8162,0 9.8161,0 0,38.11737 0,38.11739 26.4282,0 26.4281,0 0,8.168 0,8.16802 -36.2443,0 -36.2443,0 0,-46.28541 z"
       id="path8596" />
    <text
       xml:space="preserve"
       style="font-size:742.64178467px;font-style:normal;font-variant:normal;font-weight:normal;font-stretch:normal;text-align:center;line-height:100%;writing-mode:lr-tb;text-anchor:middle;fill:#fde352;fill-opacity:1;stroke:none;font-family:Roadgeek 2005 Series D"
       x="677.98065"
       y="907.49219"
       id="text7150"
       sodipodi:linespacing="100%"
       transform="scale(1.070423,0.93421)"><tspan
         sodipodi:role="line"
         id="tspan7152"
         x="677.98065"
         y="907.49219" /></text>
    <text
       xml:space="preserve"
       style="font-size:642.22637939px;font-style:normal;font-variant:normal;font-weight:normal;font-stretch:normal;text-align:center;line-height:125%;writing-mode:lr-tb;text-anchor:middle;fill:#fde352;fill-opacity:1;stroke:none;font-family:Roadgeek 2005 Series F;-inkscape-font-specification:Roadgeek 2005 Series F"
       x="856.75641"
       y="712.63898"
       id="text2884"
       transform="scale(0.85254822,1.1729542)"
       sodipodi:linespacing="125%"><tspan
         sodipodi:role="line"
         id="tspan2886"
         x="856.75641"
         y="712.63898">XXX</tspan></text>
  </g>
</svg>
