<?xml version="1.0" encoding="UTF-8" standalone="no"?>
<!-- Created with Inkscape (http://www.inkscape.org/) -->

<svg
   xmlns:dc="http://purl.org/dc/elements/1.1/"
   xmlns:cc="http://creativecommons.org/ns#"
   xmlns:rdf="http://www.w3.org/1999/02/22-rdf-syntax-ns#"
   xmlns:svg="http://www.w3.org/2000/svg"
   xmlns="http://www.w3.org/2000/svg"
   xmlns:sodipodi="http://sodipodi.sourceforge.net/DTD/sodipodi-0.dtd"
   xmlns:inkscape="http://www.inkscape.org/namespaces/inkscape"
   width="781"
   height="859"
   id="svg2"
   sodipodi:version="0.32"
   inkscape:version="0.47pre4 r22446"
   version="1.0"
   sodipodi:docname="Australian_Tourist_Route_33.svg">
  <defs
     id="defs4">
    <inkscape:perspective
       sodipodi:type="inkscape:persp3d"
       inkscape:vp_x="0 : 429.5 : 1"
       inkscape:vp_y="0 : 1000 : 0"
       inkscape:vp_z="781 : 429.5 : 1"
       inkscape:persp3d-origin="390.5 : 286.33333 : 1"
       id="perspective13" />
  </defs>
  <sodipodi:namedview
     id="base"
     pagecolor="#ffffff"
     bordercolor="#666666"
     borderopacity="1.0"
     inkscape:pageopacity="0.0"
     inkscape:pageshadow="2"
     inkscape:zoom="0.28175145"
     inkscape:cx="-164.69783"
     inkscape:cy="388.97805"
     inkscape:document-units="px"
     inkscape:current-layer="layer1"
     inkscape:window-width="1024"
     inkscape:window-height="712"
     inkscape:window-x="196"
     inkscape:window-y="25"
     showgrid="false"
     inkscape:window-maximized="0" />
  <metadata
     id="metadata7">
    <rdf:RDF>
      <cc:Work
         rdf:about="">
        <dc:format>image/svg+xml</dc:format>
        <dc:type
           rdf:resource="http://purl.org/dc/dcmitype/StillImage" />
        <dc:title></dc:title>
      </cc:Work>
    </rdf:RDF>
  </metadata>
  <g
     inkscape:label="Layer 1"
     inkscape:groupmode="layer"
     id="layer1">
    <path
       id="path1535"
       d="M 187.85777,824.34048 C 148.22604,784.73134 141.21757,766.29873 63.26662,496.65962 C -6.6321421,254.87369 -12.594642,198.79983 27.740162,162.55348 C 42.8344,148.98923 143.45758,105.2172 225.39776,65.282289 C 396.91796,-18.310926 366.00225,-18.299817 566.12828,66.04728 C 706.79538,125.33423 762.23554,152.88813 777.22677,200.09437 C 792.45228,248.03837 643.53599,773.0838 602.01157,817.86388 C 568.30769,854.2102 556.88157,856.31317 393.10315,856.31317 C 239.62792,856.31317 216.19653,852.66308 187.85777,824.34048 z "
       style="fill:#ffffff;fill-opacity:1;stroke:#000000;stroke-width:5.37365961;stroke-miterlimit:4;stroke-dasharray:none;stroke-opacity:1"
       sodipodi:nodetypes="csssssssc" />
    <path
       id="path1528"
       d="M 203.22467,797.40827 C 166.31631,760.52094 159.78944,743.35496 87.195023,492.24459 C 22.099476,267.07342 16.546697,214.85278 54.10982,181.09716 C 68.166835,168.465 161.87552,127.70085 238.18503,90.51013 C 397.91892,12.661177 369.12763,12.671526 555.50164,91.22256 C 686.50254,146.4355 738.13304,172.09598 752.09411,216.05836 C 766.27337,260.7078 627.59015,749.67378 588.91914,791.37672 C 557.53129,825.22543 546.89033,827.1839 394.36624,827.1839 C 251.43735,827.1839 229.61608,823.78463 203.22467,797.40827 z "
       style="fill:#7a3820"
       sodipodi:nodetypes="csssssssc" />
    <path
       id="path3408"
       d="M 146.74211,232.20041 C 140.02416,232.93092 133.92218,231.16608 128.00922,226.78241 C 123.17151,223.19591 122.68043,222.56204 118.6097,214.64962 C 114.80291,207.25026 114.29222,205.70821 114.11788,201.08672 C 113.67989,189.47612 117.77135,181.94823 127.68004,176.13359 C 138.73677,169.64528 149.34466,169.9264 158.81434,176.95873 C 162.84131,179.94921 163.50441,180.854 167.84253,189.27732 C 172.18065,197.70064 172.53215,198.76592 172.6281,203.78092 C 172.76013,210.68111 169.82401,218.54815 165.49133,222.90322 C 161.02798,227.38963 152.61392,231.56191 146.74211,232.20041 z M 158.51551,218.96559 C 165.57718,212.19634 165.96314,202.0702 159.57035,191.28976 C 153.98444,181.86998 146.67676,177.9959 137.77137,179.73329 C 134.04278,180.46072 132.48322,181.18326 129.68025,183.48183 C 122.87128,189.0655 121.14587,194.33924 123.19448,203.30556 C 126.52179,217.86839 137.9371,226.93613 149.34187,224.07569 C 154.19369,222.85881 154.81535,222.51251 158.51551,218.96559 z M 202.09679,204.35137 C 197.78356,204.90808 191.05921,203.17832 187.88432,200.69535 C 185.59682,198.90636 183.46217,195.36996 174.45311,178.44419 L 163.74166,158.32008 L 167.52715,156.3705 L 171.31263,154.42092 L 181.41118,173.4229 C 192.88448,195.0117 193.95078,196.23959 201.02598,196.01029 C 205.92823,195.8514 213.35125,191.53187 215.21386,187.75422 C 217.75548,182.59943 217.32673,181.18436 206.89507,160.29839 L 197.28004,141.04739 L 201.0207,139.12091 L 204.76136,137.19443 L 214.44472,155.99662 C 225.62828,177.71174 226.61745,180.88278 224.33876,187.71439 C 223.55538,190.06301 221.69357,193.27887 220.20141,194.86074 C 216.96116,198.29579 206.49141,203.78415 202.09679,204.35137 z M 325.6301,140.68673 C 323.54895,141.02514 320.24676,141.01753 318.2919,140.66984 C 314.23534,139.94835 307.24584,135.1816 305.62244,132.02943 C 304.58749,130.01986 304.71065,129.81163 307.90848,128.1647 C 311.18068,126.47949 311.36036,126.50299 313.54486,128.90205 C 317.8715,133.65369 325.29043,134.10186 332.89025,130.07068 C 340.27143,126.15549 342.94356,120.74296 340.16186,115.34174 C 339.19823,113.47065 337.97125,112.40546 336.26115,111.95536 C 332.68102,111.01306 332.59773,111.02084 321.94078,113.29342 C 306.96899,116.48612 302.35717,115.95595 297.35973,110.46761 C 292.49634,105.12652 292.54968,96.93025 297.48875,90.64296 C 300.28112,87.08837 301.42938,86.27284 307.72864,83.37023 C 313.43691,80.73993 315.67106,80.12607 319.16033,80.2292 C 324.17218,80.37735 329.94228,83.1745 332.6843,86.78517 L 334.59007,89.29469 L 331.16661,91.41702 C 328.5691,93.02732 327.51772,93.30469 326.80879,92.56665 C 321.47943,87.01845 317.46148,86.47999 309.96343,90.30913 C 302.05208,94.34933 299.43245,100.25962 303.50243,104.88613 C 305.74843,107.43925 309.0801,107.42957 320.92241,104.83546 C 337.13712,101.28355 342.7369,102.66051 347.18257,111.29269 C 350.17433,117.10178 349.8511,122.45074 346.15618,128.27772 C 343.95985,131.74138 342.76384,132.71986 336.53111,136.15216 C 331.96534,138.66647 328.05757,140.29202 325.6301,140.68673 z M 91.18793,233.06877 L 79.482916,210.34113 L 70.770657,214.82805 L 62.058398,219.31497 L 60.302646,215.90584 L 58.546894,212.49668 L 79.380562,201.76709 L 100.21423,191.03749 L 101.96998,194.44663 L 103.72574,197.85578 L 95.013468,202.3427 L 86.301208,206.82962 L 98.006223,229.55726 L 109.71124,252.2849 L 106.30209,254.04065 L 102.89294,255.7964 L 91.18793,233.06877 z M 229.58594,157.47871 L 216.12517,131.34191 L 230.71092,123.83543 C 238.84029,119.65168 246.82589,116.00283 248.75136,115.59221 C 252.62311,114.76654 257.40367,115.83805 260.94287,118.32481 C 264.05813,120.51368 267.59907,127.47664 267.58626,131.38845 C 267.57409,135.0983 265.3055,140.12163 262.58733,142.45752 C 261.49098,143.39969 260.44858,144.38513 260.27089,144.6474 C 260.0932,144.90966 262.61442,146.03622 265.8736,147.15087 C 269.13277,148.26551 274.83708,151.02424 278.54983,153.28138 C 282.26258,155.53851 286.23033,157.91181 287.36706,158.55541 L 289.43384,159.72554 L 284.87089,162.07552 L 280.30794,164.42549 L 268.7398,157.91937 C 254.72198,150.03552 252.98665,149.74902 244.79034,153.96522 L 238.91758,156.98618 L 244.77008,168.34999 L 250.6226,179.71381 L 246.83465,181.66465 L 243.04671,183.61548 L 229.58594,157.47871 z M 256.37861,138.03022 C 258.93561,134.99096 259.37134,131.56009 257.62981,128.17857 C 254.32093,121.75372 249.43956,121.85283 236.31658,128.61133 L 226.8224,133.50095 L 231.11424,141.83442 L 235.40607,150.16788 L 244.90025,145.27826 C 251.30602,141.97921 255.03988,139.62146 256.37861,138.03022 z M 282.6171,130.167 L 269.15633,104.03022 L 272.94428,102.07938 L 276.73221,100.12855 L 290.19298,126.26533 L 303.65375,152.40211 L 299.8658,154.35295 L 296.07787,156.30378 L 282.6171,130.167 z M 365.43476,91.82826 L 353.72975,69.10063 L 345.39627,73.392468 L 337.06281,77.68431 L 335.30705,74.275156 L 333.55131,70.866014 L 354.42854,60.113983 L 375.30576,49.361953 L 376.73101,52.701679 L 378.15627,56.041406 L 369.74372,60.644986 L 361.33117,65.248576 L 373.02341,87.9514 L 384.71565,110.65423 L 380.92771,112.60506 L 377.13977,114.5559 L 365.43476,91.82826 z "
       style="fill:#ffffff;fill-opacity:1"
       sodipodi:nodetypes="cssssssssccsssssccscccccsscccccssccsssssssssssscccssssssscccccccccccccccccccccssssssscccccccccccccscccccccccccccccccccccccccccccccc" />
    <path
       id="path4287"
       d="M 477.46375,114.33671 L 489.80231,88.265008 L 502.15129,94.109217 C 515.99269,100.65972 519.43195,103.20575 522.31144,109.03343 C 525.98438,116.46696 524.49392,128.13346 518.59989,138.08549 C 514.52576,144.96464 509.57334,149.50168 503.77227,151.66956 C 496.73443,154.29957 492.73569,153.47522 477.4571,146.24456 L 465.12519,140.40842 L 477.46375,114.33671 z M 494.75703,145.22432 C 501.7987,145.71371 507.73575,140.93536 512.5206,130.92753 C 515.73648,124.2013 516.58955,119.57128 515.55472,114.45989 C 514.51141,109.30652 512.08878,107.13678 502.09971,102.40943 L 493.38487,98.285074 L 484.03635,118.03872 L 474.68783,137.79237 L 483.37918,141.415 C 488.15942,143.40743 493.27945,145.12164 494.75703,145.22432 z M 529.60717,139.01384 L 541.94573,112.94212 L 556.49098,119.83089 C 564.59779,123.67035 572.20212,127.71671 573.6701,128.97214 C 578.84525,133.3979 579.95808,140.11617 576.66768,147.06887 C 573.47772,153.80935 567.14703,156.73259 558.55953,155.43044 C 557.23381,155.22941 557.23677,155.7265 558.5798,158.83148 C 559.97412,162.05505 561.34425,169.65205 562.89289,182.74639 L 563.38537,186.91053 L 558.66316,184.64879 L 553.94096,182.38706 L 553.08636,174.42057 C 551.86245,163.01157 550.13926,155.25355 548.36134,153.14807 C 547.51317,152.14363 544.28474,150.12235 541.18701,148.65636 L 535.55481,145.99088 L 530.19022,157.32641 L 524.82563,168.66194 L 521.04711,166.87374 L 517.2686,165.08554 L 529.60717,139.01384 z M 560.73525,148.29332 C 569.2875,148.68909 573.29844,138.6739 566.82818,133.07948 C 565.49082,131.92316 560.40176,129.08418 555.51913,126.77061 L 546.64163,122.56413 L 542.7076,130.87685 L 538.77356,139.18957 L 548.24411,143.67155 C 554.63394,146.69556 558.69724,148.199 560.73525,148.29332 z M 582.50628,164.04859 L 594.84484,137.97688 L 598.62336,139.76508 L 602.40187,141.55328 L 590.0633,167.625 L 577.72474,193.6967 L 573.94624,191.9085 L 570.16772,190.1203 L 582.50628,164.04859 z M 606.58303,177.0617 C 607.79101,160.9726 608.84005,147.08551 608.91424,146.2015 C 609.03524,144.76002 609.44665,144.81159 612.90213,146.70136 L 616.75513,148.8085 L 614.52351,171.80124 C 613.29611,184.44725 612.05872,195.8235 611.77377,197.08181 C 611.07054,200.18686 611.83912,201.0684 613.49397,199.05486 C 614.55701,197.76141 642.80321,170.00229 648.26949,164.87902 C 649.1444,164.05902 650.29571,164.21927 653.1147,165.55338 C 655.14845,166.51585 656.69233,167.55866 656.54556,167.87076 C 656.39886,168.18288 646.34131,177.78133 634.19542,189.20066 L 612.1121,209.96311 L 608.24941,208.13885 L 604.38674,206.31462 L 606.58303,177.0617 z M 650.51947,196.23616 L 662.85804,170.16445 L 681.75059,179.10544 L 700.64313,188.04643 L 699.03375,191.44707 L 697.42437,194.84775 L 682.31033,187.69495 L 667.1963,180.54216 L 663.61991,188.09918 L 660.04352,195.65619 L 674.44531,202.47192 L 688.84709,209.28762 L 687.09474,212.38938 L 685.34239,215.49115 L 671.07569,208.99099 L 656.80898,202.49086 L 652.70403,211.16476 L 648.59906,219.83866 L 664.46879,227.34908 L 680.33854,234.8595 L 678.90796,237.88232 L 677.47741,240.90512 L 657.82918,231.60651 L 638.18091,222.30786 L 650.51947,196.23616 z "
       style="fill:#ffffff;fill-opacity:1"
       sodipodi:nodetypes="cccsssccccsscccccccccsssscccccsccccccccsccccccccccccccccscccssssscccccccccccccccccccccccccccccc" />
  </g>
</svg>
