<svg xmlns="http://www.w3.org/2000/svg" xmlns:xlink="http://www.w3.org/1999/xlink" width="42" height="42" viewBox="0 0 42 42">
  <defs>
    <path id="road_sign_state-a" d="M21.5857872,42.5857865 L3.41421362,24.4142144 C2.633165,23.6331658 2.63316495,22.3668359 3.4142135,21.5857872 L21.5857856,3.41421362 C22.3668342,2.633165 23.6331641,2.63316495 24.4142128,3.4142135 L42.5857864,21.5857856 C43.366835,22.3668342 43.366835,23.6331641 42.5857865,24.4142128 L24.4142144,42.5857864 C23.6331658,43.366835 22.3668359,43.366835 21.5857872,42.5857865 Z"/>
  </defs>
  <g fill="none" fill-rule="evenodd" transform="translate(-2 -2)">
    <rect width="46" height="46" rx="3"/>
    <g fill-rule="nonzero">
      <use fill="#FFF" fill-rule="evenodd" xlink:href="#road_sign_state-a"/>
      <path stroke="#000" stroke-width="2" d="M22.292894,41.8786797 C22.6834183,42.269204 23.3165833,42.2692039 23.7071076,41.8786796 L41.8786797,23.707106 C42.269204,23.3165817 42.2692039,22.6834167 41.8786796,22.2928924 L23.707106,4.12132031 C23.3165817,3.73079604 22.6834167,3.73079606 22.2928924,4.12132037 L4.12132031,22.292894 C3.73079604,22.6834183 3.73079606,23.3165833 4.12132037,23.7071076 L22.292894,41.8786797 Z"/>
    </g>
    <path fill="#000" d="M26.1542969,26.7519531 C26.1542969,26.12695 25.9345725,25.645184 25.4951172,25.3066406 C25.0556619,24.9680973 24.2630266,24.6263038 23.1171875,24.28125 C21.9713484,23.9361962 21.0598992,23.5520854 20.3828125,23.1289062 C19.0872331,22.3151001 18.4394531,21.2539128 18.4394531,19.9453125 C18.4394531,18.7994734 18.9065708,17.8554725 19.8408203,17.1132812 C20.7750698,16.37109 21.9876228,16 23.4785156,16 C24.4681039,16 25.3502565,16.1822898 26.125,16.546875 C26.8997435,16.9114602 27.5084613,17.4306607 27.9511719,18.1044922 C28.3938824,18.7783237 28.6152344,19.5253865 28.6152344,20.3457031 L26.1542969,20.3457031 C26.1542969,19.6035119 25.9215518,19.022463 25.4560547,18.6025391 C24.9905576,18.1826151 24.3248741,17.9726562 23.4589844,17.9726562 C22.6516887,17.9726562 22.0250673,18.1451806 21.5791016,18.4902344 C21.1331358,18.8352882 20.9101562,19.3170542 20.9101562,19.9355469 C20.9101562,20.4563828 21.1510393,20.8909488 21.6328125,21.2392578 C22.1145857,21.5875668 22.9088486,21.9261051 24.015625,22.2548828 C25.1224014,22.5836605 26.0110644,22.9580057 26.6816406,23.3779297 C27.3522169,23.7978537 27.8437484,24.2796197 28.15625,24.8232422 C28.4687516,25.3668647 28.625,26.0032516 28.625,26.7324219 C28.625,27.9173236 28.170903,28.859697 27.2626953,29.5595703 C26.3544876,30.2594436 25.1224036,30.609375 23.5664062,30.609375 C22.5377553,30.609375 21.5921267,30.4189472 20.7294922,30.0380859 C19.8668577,29.6572247 19.1962915,29.1315138 18.7177734,28.4609375 C18.2392554,27.7903612 18,27.009119 18,26.1171875 L20.4707031,26.1171875 C20.4707031,26.9244832 20.7376275,27.549477 21.2714844,27.9921875 C21.8053412,28.434898 22.5703075,28.65625 23.5664062,28.65625 C24.4257855,28.65625 25.0719379,28.4820981 25.5048828,28.1337891 C25.9378277,27.78548 26.1542969,27.3248727 26.1542969,26.7519531 Z"/>
  </g>
</svg>
