<svg xmlns="http://www.w3.org/2000/svg" xmlns:xlink="http://www.w3.org/1999/xlink" width="36" height="36" viewBox="0 0 36 36">
  <defs>
    <path id="road_sign_us-a" d="M16.4706844,37.8940361 L15.8224439,37.8940361 L14.9296088,37.8940361 C9.48106436,37.8940361 5.03922705,33.4378197 5.03922705,27.9734215 C5.03922705,24.5964175 7.18878682,22.1166719 7.18878682,18.6238354 C7.18878682,16.2479155 6.38419326,13.7840105 5,11.9015347 L12.1274442,5.03113735 C13.5933454,6.27265512 15.5669515,7.0595209 17.522584,7.0595209 C19.5114523,7.0595209 21.5330013,6.30762636 22.9989025,5 C24.4659012,6.30762636 26.4885477,7.0595209 28.4763184,7.0595209 C30.4319509,7.0595209 32.4055571,6.27265512 33.8725558,5.03113735 L41,11.9015347 C39.6136246,13.7840105 38.809031,16.2479155 38.809031,18.6238354 C38.809031,22.1166719 40.9607729,24.5964175 40.9607729,27.9734215 C40.9607729,33.4378197 36.5172958,37.8940361 31.0698489,37.8940361 L30.1775561,37.8940361 L29.5271334,37.8940361 C27.0174931,37.8940361 24.6053651,39.0710643 22.9989025,41 C21.3935502,39.0710643 18.9814223,37.8940361 16.4706844,37.8940361 Z"/>
  </defs>
  <g fill="none" fill-rule="evenodd" transform="translate(-5 -5)">
    <rect width="46" height="46" rx="3"/>
    <use fill="#FFF" xlink:href="#road_sign_us-a"/>
    <path stroke="#000" stroke-width="2" d="M22.9990962,39.5395854 C24.7607396,37.8658327 27.1111228,36.8940361 29.5271334,36.8940361 L31.0698489,36.8940361 C35.9645545,36.8940361 39.9607729,32.8859888 39.9607729,27.9734215 C39.9607729,26.7811881 39.7130555,25.8006506 39.0425508,23.9518777 C38.9940702,23.8183671 38.9940702,23.8183671 38.9451573,23.6839426 C38.1065715,21.3788545 37.809031,20.2336517 37.809031,18.6238354 C37.809031,16.3330971 38.4923579,13.9754109 39.7004132,12.037763 L33.7971563,6.34740339 C32.2326235,7.43191652 30.3341671,8.0595209 28.4763184,8.0595209 C26.5253831,8.0595209 24.5608475,7.41739238 22.9991113,6.28236137 C21.4381307,7.41751478 19.4742596,8.0595209 17.522584,8.0595209 C15.6647485,8.0595209 13.766379,7.43192505 12.2026767,6.34756436 L6.29917323,12.0381617 C7.50588649,13.9762447 8.18878682,16.3339244 8.18878682,18.6238354 C8.18878682,20.2335033 7.89156582,21.3786378 7.053863,23.6836364 C7.00499966,23.8180609 7.00499966,23.8180609 6.95656806,23.951572 C6.28671196,25.8004315 6.03922705,26.781043 6.03922705,27.9734215 C6.03922705,32.886506 10.0343216,36.8940361 14.9296088,36.8940361 L16.4706844,36.8940361 C18.8876035,36.8940361 21.2381395,37.8658112 22.9990962,39.5395854 Z"/>
    <path fill="#000" d="M23.2246094,24.7402344 L20.4707031,24.7402344 L20.4707031,30.21875 L18,30.21875 L18,16 L23,16 C24.6406332,16 25.9068966,16.3678349 26.7988281,17.1035156 C27.6907597,17.8391964 28.1367188,18.9036389 28.1367188,20.296875 C28.1367188,21.2474006 27.9072289,22.0432911 27.4482422,22.6845703 C26.9892555,23.3258496 26.3496135,23.8190087 25.5292969,24.1640625 L28.7226562,30.0917969 L28.7226562,30.21875 L26.0761719,30.21875 L23.2246094,24.7402344 Z M20.4707031,22.7578125 L23.0097656,22.7578125 C23.8431031,22.7578125 24.4941383,22.5478537 24.9628906,22.1279297 C25.431643,21.7080057 25.6660156,21.1334672 25.6660156,20.4042969 C25.6660156,19.6425743 25.4495464,19.0533875 25.0166016,18.6367188 C24.5836567,18.22005 23.9375043,18.0052084 23.078125,17.9921875 L20.4707031,17.9921875 L20.4707031,22.7578125 Z"/>
  </g>
</svg>
