<svg xmlns="http://www.w3.org/2000/svg" width="35" height="35" viewBox="0 0 35 35">
  <g fill="none" fill-rule="evenodd" transform="translate(-6 -5)">
    <rect width="46" height="46" rx="3"/>
    <path fill="#7A4500" fill-rule="nonzero" stroke="#FFF" stroke-width="1.5" d="M36.9724048 25.4939934L9.77750419 25.4939934 7.02331482 8.25350564C7.00795355 8.15416425 7 8.05279549 7 7.94939934 7 6.87278507 7.8727071 6 8.94939934 6L37.8005096 6C38.8771239 6 39.749909 6.87278507 39.749909 7.94939934 39.749909 8.0537234 39.7417613 8.15618383 39.7260749 8.25608665L36.9727432 25.4942352 36.9724048 25.4939934zM35.1165766 37.1116338C34.9676425 38.0403276 34.161371 38.749909 33.1913498 38.749909L13.5585592 38.749909C12.588538 38.749909 11.7820325 38.0402808 11.6337222 37.1119457L9.9644126 26.663945 36.7858083 26.663945 35.1165766 37.1116338z"/>
    <path fill="#F2F2F2" fill-rule="nonzero" d="M28.9433751,19.0531697 L26.9222966,16.8075269 C26.8679861,16.7471819 26.872878,16.6542353 26.933223,16.5999248 C26.9602158,16.5756313 26.9952457,16.5621891 27.0315608,16.5621891 L27.8490362,16.5621891 C27.9302221,16.5621891 27.9960362,16.4963749 27.9960362,16.4151891 C27.9960362,16.3788739 27.982594,16.3438441 27.9583005,16.3168512 L25.9372219,14.0712085 C25.8829115,14.0108635 25.8878034,13.9179169 25.9481484,13.8636064 C25.9751412,13.8393129 26.010171,13.8258706 26.0464862,13.8258706 L26.8639616,13.8258706 C26.9451474,13.8258706 27.0109616,13.7600565 27.0109616,13.6788707 C27.0109616,13.6425555 26.9975194,13.6075257 26.9732258,13.5805328 L23.2537313,9.44776119 L19.5342369,13.5805328 C19.4799264,13.6408778 19.4848183,13.7338244 19.5451633,13.7881349 C19.5721561,13.8124284 19.607186,13.8258706 19.6435011,13.8258706 L20.4609765,13.8258706 C20.5421624,13.8258706 20.6079765,13.8916848 20.6079765,13.9728706 C20.6079765,14.0091858 20.5945343,14.0442156 20.5702407,14.0712085 L18.5491622,16.3168512 C18.4948518,16.3771962 18.4997437,16.4701428 18.5600887,16.5244533 C18.5870815,16.5487468 18.6221113,16.5621891 18.6584265,16.5621891 L19.4759019,16.5621891 C19.5570877,16.5621891 19.6229019,16.6280032 19.6229019,16.709189 C19.6229019,16.7455042 19.6094597,16.780534 19.5851661,16.8075269 L17.5640876,19.0531697 C17.5097771,19.1135146 17.5146691,19.2064612 17.575014,19.2607717 C17.6020069,19.2850653 17.6370367,19.2985075 17.6733518,19.2985075 L28.8341108,19.2985075 C28.9152967,19.2985075 28.9811108,19.2326933 28.9811108,19.1515075 C28.9811108,19.1151923 28.9676686,19.0801625 28.9433751,19.0531697 Z M22.2686567,22.7462687 L24.238806,22.7462687 L24.238806,18.8059701 L22.2686567,18.8059701 L22.2686567,22.7462687 Z"/>
  </g>
</svg>
