<svg xmlns="http://www.w3.org/2000/svg" width="50" height="50" viewBox="0 0 50 50">
  <g fill="none">
    <path fill="#FFFEFF" d="M5,0 L45,0 C47.7614237,-4.4408921e-16 50,2.23857625 50,5 L50,45 C50,47.7614237 47.7614237,50 45,50 L5,50 C2.23857625,50 3.33066907e-16,47.7614237 0,45 L0,5 C-4.4408921e-16,2.23857625 2.23857625,5.55111512e-16 5,0 Z"/>
    <path fill="#000" d="M5,2 C3.34314575,2 2,3.34314575 2,5 L2,45 C2,46.6568542 3.34314575,48 5,48 L45,48 C46.6568542,48 48,46.6568542 48,45 L48,5 C48,3.34314575 46.6568542,2 45,2 L5,2 Z"/>
    <path fill="#FFF" d="M5,4 C4.44771525,4 4,4.44771525 4,5 L4,45 C4,45.5522847 4.44771525,46 5,46 L45,46 C45.5522847,46 46,45.5522847 46,45 L46,5 C46,4.44771525 45.5522847,4 45,4 L5,4 Z"/>
    <path fill="#000" d="M15.88,32.58 L13.7,32.58 L11.58,26.48 L9.96,26.48 L9.96,32.58 L8,32.58 L8,18.58 L11.94,18.58 C13.0600056,18.58 13.9666632,18.879997 14.66,19.48 C15.4466706,20.1600034 15.84,21.1533268 15.84,22.46 C15.84,24.3400094 15.106674,25.5666638 13.64,26.14 L15.88,32.58 Z M13.82,22.52 C13.82,21.1599932 13.1400068,20.48 11.78,20.48 L9.96,20.48 L9.96,24.6 L11.78,24.6 C13.1400068,24.6 13.82,23.9066736 13.82,22.52 Z M25.14,27.3 C25.14,29.100009 24.7966701,30.466662 24.11,31.4 C23.4233299,32.333338 22.4866726,32.8 21.3,32.8 C20.166661,32.8 19.2733366,32.3533378 18.62,31.46 C17.9266632,30.526662 17.58,29.1666756 17.58,27.38 C17.58,25.579991 17.9199966,24.2000048 18.6,23.24 C19.2533366,22.3199954 20.179994,21.86 21.38,21.86 C22.5266724,21.86 23.43333,22.3066622 24.1,23.2 C24.7933368,24.1600048 25.14,25.5266578 25.14,27.3 Z M23.2,27.34 C23.2,24.9133212 22.5800062,23.7 21.34,23.7 C20.1266606,23.7 19.52,24.9133212 19.52,27.34 C19.52,29.7533454 20.1333272,30.96 21.36,30.96 C21.9466696,30.96 22.3999984,30.6333366 22.72,29.98 C23.0400016,29.3266634 23.2,28.4466722 23.2,27.34 Z M33.48,32.58 L31.56,32.58 L31.56,31.86 C31.0133306,32.4866698 30.2933378,32.8 29.4,32.8 C28.5866626,32.8 27.9200026,32.5066696 27.4,31.92 C26.8266638,31.2933302 26.54,30.413339 26.54,29.28 C26.54,28.1733278 26.8599968,27.3133364 27.5,26.7 C28.1133364,26.1266638 28.9333282,25.84 29.96,25.84 C30.5466696,25.84 31.0799976,25.9533322 31.56,26.18 L31.56,25.16 C31.56,24.159995 31.1066712,23.66 30.2,23.66 C29.5599968,23.66 28.873337,23.8799978 28.14,24.32 L27.32,22.86 C28.320005,22.19333 29.3266616,21.86 30.34,21.86 C31.4866724,21.86 32.2966643,22.093331 32.77,22.56 C33.2433357,23.026669 33.48,23.8399942 33.48,25 L33.48,32.58 Z M31.56,30.08 L31.56,27.98 C31.1199978,27.713332 30.5933364,27.58 29.98,27.58 C28.9666616,27.58 28.46,28.1333278 28.46,29.24 C28.46,30.4533394 28.8999956,31.06 29.78,31.06 C30.5933374,31.06 31.1866648,30.7333366 31.56,30.08 Z M42.42,32.58 L40.5,32.58 L40.5,31.88 C39.9266638,32.4933364 39.273337,32.8 38.54,32.8 C36.4333228,32.8 35.38,30.9400186 35.38,27.22 C35.38,25.486658 35.6666638,24.1600046 36.24,23.24 C36.8133362,22.3199954 37.6266614,21.86 38.68,21.86 C39.3866702,21.86 39.9933308,22.1199974 40.5,22.64 L40.5,19 L42.42,18 L42.42,32.58 Z M40.5,30.04 L40.5,24.6 C40.0866646,23.9733302 39.5333368,23.66 38.84,23.66 C37.8266616,23.66 37.32,24.8133218 37.32,27.12 C37.32,29.7066796 37.8599946,31 38.94,31 C39.5933366,31 40.1133314,30.6800032 40.5,30.04 Z"/>
  </g>
</svg>
