<svg xmlns="http://www.w3.org/2000/svg" width="617" height="617" viewBox="0 0 617 617">
  <g fill="none" transform="translate(-10 -10)">
    <rect width="450" height="450" x="93.539" y="93.541" fill="#FFF" stroke="#000" stroke-linecap="square" stroke-width="2.5" rx="27" transform="rotate(-45 318.539 318.541)"/>
    <rect width="432" height="432" x="102.539" y="102.541" fill="#000" rx="18" transform="rotate(-45 318.539 318.541)"/>
    <path fill="#FF0" stroke="#FF0" stroke-linecap="square" stroke-width="2.5" d="M318.538802,32.5213941 C317.005092,32.5213941 315.471382,33.1091236 314.296169,34.2843352 L34.2820095,314.298497 C31.9315863,316.648923 31.9315863,320.433338 34.2820095,322.783764 L314.296169,602.798178 C316.646595,605.148604 320.431023,605.148604 322.781435,602.798178 L602.795863,322.783764 C605.146276,320.433338 605.146276,316.648923 602.795863,314.298497 L322.781435,34.2843352 C321.606222,33.1091236 320.072525,32.5213941 318.538802,32.5213941 Z"/>
    <path fill="#000" d="M182.290781 215.307162C172.285388 220.935102 142.202106 220.435871 132.880768 217.891762 119.859808 216.366256 96.3095164 198.392389 87.4265081 190.074923L57.6010801 218.391024 57.6010801 218.391024C71.9694398 232.068343 106.412068 252.958315 127.372863 257.103907 146.188545 260.825248 188.799504 257.914447 203.271301 251.931279L198.964628 271.998326C199.109616 273.115289 200.964592 275.054738 202.015447 275.474017 203.291777 275.962007 206.115523 276.094042 206.823161 274.928885 224.421796 247.962316 251.257596 202.517581 251.257596 202.517581L167.055727 191.426737C167.055727 191.426737 161.490821 191.793536 160.982173 193.065784 160.542868 194.114281 161.347033 199.222922 162.049517 200.087891L182.290781 215.307162M215.535091 61.8998996C225.435311 67.7108639 240.15083 93.9540994 242.645996 103.288648 247.883971 115.306809 244.21212 144.703979 241.498422 156.566694L280.980465 168.078692 280.980465 168.078692C285.563207 148.777966 286.270298 108.501605 279.298378 88.3042595 273.039955 70.1738863 249.070535 34.8237313 236.614603 25.332655L256.120854 18.9498913C257.012909 18.2622362 257.754597 15.6830366 257.587762 14.5639953 257.366755 13.2155462 256.059085 10.7093659 254.696096 10.6846154 222.536198 9.05709713 169.76034 8.75230241 169.76034 8.75230241L202.573296 87.0866556C202.573296 87.0866556 205.692119 91.7100487 207.047436 91.5089487 208.174535 91.3605746 212.183485 88.0936021 212.577114 87.0511478L215.535091 61.8998996M63.9367752 108.510123C64.3553255 97.0381544 80.4759414 71.6338195 87.5094274 65.0088657 95.6040217 54.6962462 123.224346 43.9820588 134.954512 40.7430404L126.35757.525512937 126.35757.525512937C107.193003 5.64792209 71.402269 24.1332658 56.9301289 39.8526245 43.9390616 53.9632474 24.1918097 91.8342831 21.7461233 107.301969L6.87328321 93.1586996C5.84474702 92.6996485 3.22237886 93.2703658 2.31643771 93.9481208 1.23426485 94.7824035-.351541979 97.1225202.273283442 98.3340918 14.097787 127.416589 38.8672463 174.019773 38.8672463 174.019773L92.2579656 107.971367C92.2579656 107.971367 94.8483189 103.032454 94.0283186 101.934756 93.3629818 101.012979 88.5851395 99.03379 87.4807341 99.1818426L63.9367752 108.510123" transform="translate(160.95 193.696)"/>
  </g>
</svg>
