<?xml version="1.0" encoding="UTF-8" standalone="no"?>
<!-- Created with Inkscape (http://www.inkscape.org/) -->

<svg
   xmlns:dc="http://purl.org/dc/elements/1.1/"
   xmlns:cc="http://creativecommons.org/ns#"
   xmlns:rdf="http://www.w3.org/1999/02/22-rdf-syntax-ns#"
   xmlns:svg="http://www.w3.org/2000/svg"
   xmlns="http://www.w3.org/2000/svg"
   xmlns:sodipodi="http://sodipodi.sourceforge.net/DTD/sodipodi-0.dtd"
   xmlns:inkscape="http://www.inkscape.org/namespaces/inkscape"
   width="600.00043"
   height="520"
   id="svg3048"
   version="1.1"
   inkscape:version="0.48.5 r10040"
   sodipodi:docname="PH W2-7.svg">
  <defs
     id="defs3050" />
  <sodipodi:namedview
     id="base"
     pagecolor="#ffffff"
     bordercolor="#666666"
     borderopacity="1.0"
     inkscape:pageopacity="0.0"
     inkscape:pageshadow="2"
     inkscape:zoom="0.65807292"
     inkscape:cx="427.57336"
     inkscape:cy="199.43435"
     inkscape:document-units="px"
     inkscape:current-layer="layer1"
     showgrid="false"
     fit-margin-top="0"
     fit-margin-left="0"
     fit-margin-right="0"
     fit-margin-bottom="0"
     inkscape:window-width="1024"
     inkscape:window-height="578"
     inkscape:window-x="-8"
     inkscape:window-y="-8"
     inkscape:window-maximized="1" />
  <metadata
     id="metadata3053">
    <rdf:RDF>
      <cc:Work
         rdf:about="">
        <dc:format>image/svg+xml</dc:format>
        <dc:type
           rdf:resource="http://purl.org/dc/dcmitype/StillImage" />
        <dc:title />
      </cc:Work>
    </rdf:RDF>
  </metadata>
  <g
     inkscape:label="Layer 1"
     inkscape:groupmode="layer"
     id="layer1"
     transform="translate(-14.285489,-520.93706)">
    <g
       id="g3052"
       transform="matrix(1,0,0,0.99998675,14.291623,520.9282)">
      <path
         id="path3054"
         d="M 4.6771653,468.81496 269.96457,17.043307 c 13.32283,-22.7125983 46.73622,-22.7125983 60.05905,0 l 265.2874,451.771653 c 13.32284,22.7126 -3.36614,51.20079 -30.04724,51.20079 l -530.539371,0 c -26.6811019,0 -43.3700783,-28.48819 -30.0472437,-51.20079 z"
         style="fill:#c31926;fill-opacity:1;fill-rule:nonzero;stroke:none"
         inkscape:connector-curvature="0" />
      <path
         id="path3056"
         d="M 31.03937,483.76772 296.32677,31.996063 c 1.62992,-2.905512 5.84646,-2.905512 7.47638,0 L 569.05512,483.76772 c 1.62992,2.87007 -0.4252,6.37795 -3.79134,6.37795 l -530.539371,0 c -3.259842,0 -5.421259,-3.50788 -3.685039,-6.37795 z"
         style="fill:#ffffff;fill-opacity:1;fill-rule:nonzero;stroke:none"
         inkscape:connector-curvature="0" />
    </g>
    <g
       id="g2997"
       transform="matrix(4.5423972,1.2171317,-1.2235542,4.5663663,-2922.7622,-4084.247)">
      <path
         inkscape:connector-curvature="0"
         id="path3986"
         style="fill:#000000;fill-opacity:1;fill-rule:evenodd;stroke:none"
         d="m 948.83623,814.03129 c -3.50999,-2.475 -7.965,-4.23 -12.32875,-4.59 -6.57125,-0.585 -13.275,1.71 -18.27,6.075 l -2.25,-3.06 c -0.27125,-0.36 -0.54125,-0.63125 -0.99,-0.63125 -0.675,-0.0438 -1.26125,0.49625 -1.26125,1.12625 l -0.675,15.16375 14.31,-5.04 c 0.63,-0.17875 0.945,-0.9 0.72,-1.53 -0.135,-0.45 -0.45,-0.62875 -0.945,-0.80875 l -3.55375,-1.26 c 3.46375,-2.7 8.00875,-3.96 12.37375,-3.60125 3.285,0.315 6.615,1.62125 9.18125,3.555 l 3.68875,-5.39875 z" />
      <path
         inkscape:connector-curvature="0"
         id="path3994"
         style="fill:#000000;fill-opacity:1;fill-rule:evenodd;stroke:none"
         d="m 910.18123,831.26629 c -0.36,4.275 0.405,8.955 2.295,12.915 2.88125,6.03 8.235,10.66375 14.535,12.73375 l -1.48375,3.46625 c -0.18125,0.45 -0.26999,0.80875 -0.0462,1.215 0.315,0.585 1.03625,0.81 1.62,0.495 l 13.36625,-7.11 -11.565,-9.81 c -0.49625,-0.405 -1.26125,-0.36 -1.71,0.17875 -0.27,0.36125 -0.27,0.72125 -0.18125,1.21625 l 0.675,3.73375 c -4.04874,-1.665 -7.46875,-4.90375 -9.35875,-8.91 -1.44125,-2.97 -1.93625,-6.52375 -1.62125,-9.63 l -6.525,-0.49375 z" />
      <path
         inkscape:connector-curvature="0"
         id="path4002"
         style="fill:#000000;fill-opacity:1;fill-rule:evenodd;stroke:none"
         d="m 944.51624,855.88004 c 3.87124,-1.79875 7.56124,-4.85875 10.03499,-8.45875 3.78125,-5.49125 5.08625,-12.465 3.69,-18.9 l 3.78125,-0.45125 c 0.44875,-0.0888 0.80875,-0.17875 1.07875,-0.585 0.315,-0.53875 0.13625,-1.305 -0.405,-1.665 l -12.87,-8.00875 -2.655,14.895 c -0.13375,0.67375 0.315,1.30375 0.99,1.39375 0.45,0.0913 0.765,-0.13375 1.17125,-0.44875 l 2.87875,-2.385 c 0.585,4.275 -0.49375,8.865 -3.015,12.51 -1.84375,2.7 -4.63499,4.95 -7.56,6.255 l 2.88001,5.84875 z" />
    </g>
  </g>
</svg>
