<svg xmlns="http://www.w3.org/2000/svg" width="900" height="900" viewBox="0 0 900 900">
  <g fill="none">
    <circle cx="450" cy="450" r="450" fill="#AF1E2D"/>
    <circle cx="450" cy="450" r="390" fill="#FFF"/>
    <path fill="#000" d="M401.3785,725.74614 C267.560636,702.150435 170,585.882181 170,449.99996 L450,449.99996 L401.3785,725.74614 Z"/>
    <path fill="#000" d="M491.977044,397.693469 C358.159191,374.097766 260.598544,257.829528 260.598544,121.947319 L540.598544,121.947319 L491.977044,397.693469 Z" transform="rotate(120 400.599 259.82)"/>
    <path fill="#000" d="M730.780419,640.179936 C596.962548,616.584229 499.401919,500.315964 499.401919,364.433736 L779.401919,364.433736 L730.780419,640.179936 Z" transform="rotate(-120 639.402 502.307)"/>
    <circle cx="450" cy="450" r="207" fill="#FFF"/>
    <path fill="#000" d="M196.4009 333.2014L300.6046 462.86904C307.2875 471.33383 300.2764 483.63114 289.588 482.19205L207.0118 470.79287 127.1623 494.72045C116.8194 497.78335 108.0038 486.70317 113.313 477.31323L196.4009 333.2014zM677.9502 288.77621L513.5529 314.18544C502.8807 315.74061 495.7365 303.52016 502.327 294.98328L553.487 229.16978 572.6899 148.0542C575.2088 137.5655 589.2123 135.471 594.6896 144.7639L677.9502 288.77621zM475.6489 728.02275L535.8425 572.94589C539.8318 562.92591 553.9871 562.84908 558.085 572.82506L589.5012 650.03767 650.1478 707.22559C657.9718 714.65137 652.784 727.82601 641.9974 727.92304L475.6489 728.02275z"/>
  </g>
</svg>
