<svg xmlns="http://www.w3.org/2000/svg" width="38" height="38" viewBox="0 0 38 38">
  <g fill="none" fill-rule="evenodd" transform="translate(-4 -5)">
    <rect width="46" height="46" rx="3"/>
    <path fill="#007050" stroke="#FFF" stroke-width="1.5" d="M40.6969552 15.6139343C40.0134925 11.735606 38.2919403 8.6406806 37.2538507 7.07387463 36.8379701 6.44521791 36.057791 6.22599403 35.3485373 6.48712836 33.7269254 7.08354627 30.1484179 7.75411343 23.6716418 6.0486806 23.4201791 5.98420299 23.1203582 5.98420299 22.8688955 6.0486806 16.3921194 7.75411343 12.8136119 7.08354627 11.192 6.48712836 10.4795224 6.22599403 9.70256716 6.44521791 9.28346269 7.07387463 8.24859701 8.6406806 6.52059701 11.735606 5.84035821 15.6139343L40.6969552 15.6139343zM22.757994 41.2379821C23.0997254 41.3572657 23.4382328 41.3572657 23.7799642 41.2379821 26.6879045 40.2321313 40.9858149 34.4871761 40.9987104 18.8384597L5.53602388 18.8384597C5.5489194 34.4871761 19.8500537 40.2321313 22.757994 41.2379821"/>
  </g>
</svg>
