<?xml version="1.0" encoding="UTF-8" standalone="no"?>
<!-- Created with Inkscape (http://www.inkscape.org/) -->

<svg
   xmlns:dc="http://purl.org/dc/elements/1.1/"
   xmlns:cc="http://creativecommons.org/ns#"
   xmlns:rdf="http://www.w3.org/1999/02/22-rdf-syntax-ns#"
   xmlns:svg="http://www.w3.org/2000/svg"
   xmlns="http://www.w3.org/2000/svg"
   xmlns:sodipodi="http://sodipodi.sourceforge.net/DTD/sodipodi-0.dtd"
   xmlns:inkscape="http://www.inkscape.org/namespaces/inkscape"
   version="1.1"
   width="265.75"
   height="265.75"
   id="svg2"
   xml:space="preserve"
   inkscape:version="0.48.2 r9819"
   sodipodi:docname="AJAX1.svg"><sodipodi:namedview
     pagecolor="#ffffff"
     bordercolor="#666666"
     borderopacity="1"
     objecttolerance="10"
     gridtolerance="10"
     guidetolerance="10"
     inkscape:pageopacity="0"
     inkscape:pageshadow="2"
     inkscape:window-width="1280"
     inkscape:window-height="1004"
     id="namedview19"
     showgrid="false"
     inkscape:zoom="1.4142136"
     inkscape:cx="190.76191"
     inkscape:cy="169.59687"
     inkscape:window-x="-8"
     inkscape:window-y="-8"
     inkscape:window-maximized="1"
     inkscape:current-layer="svg2"
     fit-margin-top="0"
     fit-margin-left="0"
     fit-margin-right="0"
     fit-margin-bottom="0" /><defs
     id="defs20" /><metadata
     id="metadata8"><rdf:RDF><cc:Work
         rdf:about=""><dc:format>image/svg+xml</dc:format><dc:type
           rdf:resource="http://purl.org/dc/dcmitype/StillImage" /><dc:title /></cc:Work></rdf:RDF></metadata><path
     style="fill:#c0111e;fill-opacity:1;fill-rule:nonzero;stroke:none"
     d="M 132.875,0 C 59.491005,0 0,59.4885 0,132.875 0,206.26 59.491005,265.75 132.875,265.75 206.26,265.75 265.75,206.26 265.75,132.875 265.75,59.4885 206.26,0 132.875,0 z"
     id="path11"
     inkscape:connector-curvature="0"
     sodipodi:nodetypes="sssss" /><path
     inkscape:connector-curvature="0"
     style="fill:#ffffff;fill-rule:nonzero;stroke:none"
     d="m 32.95725,182.79249 c 0,9.56125 2.2205,16.63 6.665125,21.2075 3.63525,3.70375 8.54975,5.55125 14.743625,5.55125 6.1255,0 11.275625,-2.4875 15.450375,-7.47125 3.634125,-4.37375 5.452875,-9.02 5.452875,-13.935 0,-6.93375 -1.71625,-14.44 -5.150125,-22.51875 -4.173625,-9.69375 -10.0305,-17.80625 -17.572,-24.3375 -1.546625,-1.34625 -2.860125,-3.6025 -3.93675,-6.76625 -1.01075,-2.895 -1.514875,-5.65375 -1.514875,-8.28 0,-5.78987 2.49025,-8.68537 7.471875,-8.68537 4.847375,0 7.27175,3.63525 7.27175,10.90662 l 12.420625,0 c 0,-7.47275 -1.986125,-13.36387 -5.95825,-17.67175 -3.63525,-4.0405 -8.247,-6.05962 -13.83425,-6.05962 -5.1855,0 -9.729,1.8165 -13.634,5.45287 -4.24075,4.03938 -6.361125,9.29088 -6.361125,15.7535 0,4.175 1.109625,8.92 3.331375,14.23875 2.088625,4.9825 4.342,8.7525 6.766375,11.31 5.52125,5.7225 8.51675,8.92125 8.988,9.59375 3.02975,3.77125 5.52,8.4825 7.473125,14.13875 1.27925,3.635 1.919,7.10125 1.919,10.4 0,3.50125 -0.77525,6.295 -2.32425,8.3825 -1.48075,2.0875 -3.63525,3.13 -6.462375,3.13 -2.76,0 -4.913375,-1.145 -6.4625,-3.4325 -1.750375,-2.55875 -2.625625,-6.195 -2.625625,-10.9075 l -12.118,0 z"
     id="path13" /><path
     inkscape:connector-curvature="0"
     style="fill:#ffffff;fill-rule:nonzero;stroke:none"
     d="m 90.506125,106.7515 0,12.42062 13.127375,0 0,88.56288 12.82475,0 0,-88.56288 12.523,0 0,-12.42062 -38.475125,0 z"
     id="path15" /><path
     inkscape:connector-curvature="0"
     style="fill:#ffffff;fill-rule:evenodd;stroke:none"
     d="m 167.24125,196.83125 c -4.175,0 -7.105,-3.84 -8.7875,-11.5125 -1.21,-5.85875 -1.81875,-15.04625 -1.81875,-27.57 0,-13.06 0.54,-22.41875 1.6175,-28.07375 1.5475,-8.28125 4.54375,-12.42063 8.98875,-12.42063 4.1725,0 7.00125,4.13938 8.4825,12.42063 0.94125,5.5875 1.4125,14.945 1.4125,28.07375 0,13.53125 -0.4375,22.7225 -1.3125,27.57 -1.3475,7.6725 -4.20625,11.5125 -8.5825,11.5125 z m 0,12.92375 c 8.34625,0.0662 14.10375,-3.29875 17.26625,-10.0975 3.435,-7.405 5.15125,-21.375 5.15125,-41.90875 0,-17.50375 -1.11125,-29.89 -3.3325,-37.16188 -3.3,-10.63712 -9.66125,-15.92162 -19.085,-15.85449 -10.0325,0.066 -16.66375,5.38574 -19.895,15.95462 -2.08625,6.9355 -3.13,19.288 -3.13,37.06175 0,17.0325 1.27875,29.28625 3.83625,36.7575 3.43375,10.09875 9.83,15.18125 19.18875,15.24875 z"
     id="path17" /><path
     inkscape:connector-curvature="0"
     style="fill:#ffffff;fill-rule:evenodd;stroke:none"
     d="m 221.02625,119.47612 7.4725,0 c 2.49125,0 4.74625,1.31225 6.765,3.938 2.155,2.96088 3.2325,6.63088 3.2325,11.00713 0,4.51125 -0.90875,8.31375 -2.7275,11.4125 -1.81625,3.09625 -3.9725,4.645 -6.4625,4.645 l -8.28,0 0,-31.00263 z m -12.32,-12.72462 0,100.9835 12.32,0 0,-43.9275 9.18875,0 c 5.7225,0 10.60375,-2.79375 14.64125,-8.38 4.10875,-5.5875 6.16125,-12.18625 6.16125,-19.79375 0,-7.675 -2.08625,-14.40713 -6.26125,-20.197 -4.17375,-5.78975 -8.885,-8.68412 -14.13625,-8.68525 l -21.91375,0 z"
     id="path19" /><path
     inkscape:connector-curvature="0"
     style="fill:#ffffff;fill-rule:nonzero;stroke:none"
     d="m 39.806625,99.38812 c 2.826,1.31838 5.289375,1.54175 7.388875,0.67025 1.58825,-0.66649 2.74175,-1.77125 3.46075,-3.31299 0.878875,-1.88351 0.85575,-3.70488 -0.06963,-5.46638 -0.836125,-1.5625 -2.19475,-2.78313 -4.0795,-3.662 -1.818875,-0.8485 -4.329875,-1.27575 -7.533,-1.283 -3.223875,-0.0184 -5.93875,0.41012 -8.1445,1.28413 -0.73125,0.28449 -2.0825,0.35774 -4.0515,0.221 -1.960495,-0.1575 -3.431495,-0.46638 -4.416495,-0.92525 C 20.09225,85.8555 19.3965,84.3845 20.275375,82.501 c 0.48825,-1.04987 1.268375,-1.54662 2.337625,-1.4905 0.68725,0.0341 1.629625,0.33075 2.829625,0.88988 l 1.36225,-2.92238 c -2.354625,-1.09862 -4.2785,-1.50025 -5.771375,-1.206 -1.587,0.32838 -2.8345,1.46725 -3.74275,3.4155 -0.7885,1.69062 -0.909375,3.28975 -0.360125,4.79738 0.59325,1.63212 1.919,2.92724 3.973375,3.8855 1.328125,0.61887 3.15075,1.01312 5.47,1.18287 2.13875,0.1635 3.891625,0.094 5.257625,-0.2075 1.44775,-0.3675 2.880875,-0.72875 4.298125,-1.084 1.669875,-0.34188 3.406875,-0.40525 5.209875,-0.1905 1.505125,0.18075 2.77225,0.5115 3.800125,0.99 1.263375,0.58962 2.113,1.33675 2.55,2.24487 0.415,0.89725 0.41875,1.78475 0.0085,2.66363 -0.428375,0.91912 -1.0205,1.4905 -1.776125,1.71262 -1.0485,0.293 -2.546375,0.011 -4.493375,-0.84475 l -1.422125,3.0505 z"
     id="path21" /><path
     inkscape:connector-curvature="0"
     style="fill:#ffffff;fill-rule:nonzero;stroke:none"
     d="m 53.299125,73.2835 0.659125,0.4785 c 2.847875,2.069 3.695125,3.8965 2.54275,5.48338 -0.514,0.70675 -1.355,1.05949 -2.522,1.05837 C 53.166,80.29775 51.236125,79.376 48.18925,77.5425 45.648875,76.01662 43.400375,74.52975 41.446,73.08075 36.00175,69.03788 32.868125,66.33888 32.045375,64.98025 31.313,63.77788 31.3435,62.63163 32.134505,61.5415 c 0.736125,-1.01312 1.69675,-1.35137 2.883375,-1.01437 0.75925,0.20137 1.740625,0.7385 2.94425,1.61375 l 1.958,-2.69413 c -2.312,-1.68087 -4.0405,-2.4975 -5.183125,-2.45237 -2.318,0.0965 -4.074625,0.96675 -5.2685,2.61112 -1.221875,1.68088 -1.5295,3.5315 -0.922875,5.54813 0.682375,2.27775 4.310375,5.80312 10.885,10.57975 8.121375,5.90087 13.361875,8.55475 15.72025,7.9615 1.9665,-0.49813 3.3435,-1.30738 4.129625,-2.4305 1.383125,-1.94338 1.58575,-4.0295 0.60675,-6.25975 -0.185625,-0.42725 -0.5835,-0.96438 -1.193875,-1.6125 -0.59575,-0.6665 -1.151125,-1.1865 -1.6675,-1.56138 l -1.77,-1.24262 -1.95675,2.69537 z"
     id="path23" /><path
     inkscape:connector-curvature="0"
     style="fill:#ffffff;fill-rule:nonzero;stroke:none"
     d="m 40.257125,46.89425 24.165,25.91437 2.462125,-2.29499 -11.430625,-12.257 4.8205,-4.49588 11.4295,12.25825 2.5915,-2.417 -24.165,-25.91425 -2.5915,2.417 10.5615,11.3245 -4.820625,4.49463 -10.56025,-11.3245 -2.462125,2.29487 z"
     id="path25" /><path
     inkscape:connector-curvature="0"
     style="fill:#ffffff;fill-rule:evenodd;stroke:none"
     d="m 83.9265,57.31788 c 2.684375,-1.67725 3.43875,-4.4605 2.262,-8.34838 -0.745875,-2.48775 -2.683125,-6.234125 -5.813,-11.24275 -3.042,-4.868125 -5.57125,-8.203125 -7.589125,-10.006 -3.035875,-2.672125 -5.89475,-3.169 -8.579125,-1.49175 -2.543875,1.589375 -3.262875,4.183375 -2.157,7.782 0.68125,2.2485 2.511,5.756875 5.49075,10.52363 l 0.5445,0.87162 c 3.167625,5.06838 5.64325,8.45213 7.427875,10.15013 2.965125,2.82712 5.769125,3.41437 8.413125,1.7615 z m -1.55025,-2.749 c -1.422125,0.88862 -3.241,0.0744 -5.454125,-2.44263 C 75.578125,50.59913 73.60425,47.7525 71.0005,43.585 L 70.399875,42.62425 C 68.0085,38.797375 66.4595,36.005625 65.75025,34.24775 64.64675,31.456 64.765125,29.640875 66.107875,28.801 c 1.442875,-0.900875 3.244625,-0.133 5.40775,2.3035 1.274375,1.46 3.226375,4.29325 5.85575,8.49975 l 0.618875,0.992375 c 2.429125,3.886755 4.002625,6.717625 4.724125,8.496125 1.116875,2.81125 1.003375,4.6375 -0.338125,5.47613 z"
     id="path27" /><path
     inkscape:connector-curvature="0"
     style="fill:#ffffff;fill-rule:evenodd;stroke:none"
     d="m 100.36325,48.87913 c 2.99325,-1.0315 4.35425,-3.573 4.08212,-7.625755 -0.16725,-2.5915 -1.21225,-6.678375 -3.13487,-12.261875 -1.868875,-5.4285 -3.583875,-9.246875 -5.144,-11.457625 -2.356,-3.286125 -5.0305,-4.414 -8.0225,-3.38375 -2.836875,0.976625 -4.121,3.34225 -3.8525,7.09725 0.1575,2.344875 1.151125,6.17425 2.982125,11.490375 l 0.3345,0.97175 c 1.945875,5.650625 3.5975,9.504375 4.954875,11.56 2.252125,3.42163 4.85225,4.624 7.80025,3.60963 z M 99.471,45.85175 c -1.58575,0.54575 -3.173875,-0.65662 -4.7645,-3.607125 -0.96675,-1.79075 -2.24975,-5.0085 -3.848875,-9.6545 L 90.489,31.51825 C 89.01925,27.252 88.138,24.183125 87.8425,22.3105 c -0.448,-2.96875 0.07688,-4.710625 1.5735,-5.22575 1.608875,-0.55425 3.192125,0.599375 4.75225,3.460625 0.913,1.709 2.17775,4.9085 3.79275,9.599625 l 0.379625,1.106 c 1.492875,4.33225 2.388875,7.44625 2.691625,9.34075 0.45525,2.99075 -0.0648,4.74375 -1.56125,5.26 z"
     id="path29" /><path
     inkscape:connector-curvature="0"
     style="fill:#ffffff;fill-rule:nonzero;stroke:none"
     d="m 105.59763,9.478513 5.54325,34.996367 11.89825,-1.88363 -0.48225,-3.044375 -8.64375,1.368375 -5.06113,-31.951875 -3.25437,0.515138 z"
     id="path31" /><path
     inkscape:connector-curvature="0"
     style="fill:#ffffff;fill-rule:evenodd;stroke:none"
     d="m 149.77375,7.4021 -7.3675,34.658125 3.32875,0.708 3.2325,-15.21475 2.46125,0.522375 c 1.9175,0.40775 3.82875,-0.17575 5.73375,-1.751625 1.9325,-1.593 3.17625,-3.696375 3.73125,-6.307375 0.565,-2.656225 0.29125,-5.117225 -0.82125,-7.38285 -1.09,-2.259487 -2.5925,-3.593712 -4.51,-4.001437 L 149.77375,7.4021 z m 2.6425,3.930663 2.07875,0.4419 c 1.34125,0.284462 2.28125,1.197462 2.82375,2.738087 0.4925,1.431875 0.5475,3.04925 0.16375,4.85225 -0.38875,1.824975 -1.14875,3.24585 -2.28125,4.260225 -1.06875,0.932625 -2.15625,1.2805 -3.26625,1.044875 l -2.2525,-0.4785 2.73375,-12.858837 z"
     id="path33" /><path
     inkscape:connector-curvature="0"
     style="fill:#ffffff;fill-rule:evenodd;stroke:none"
     d="m 169.725,36.81125 7.51375,-11.472125 -3.37,13.317875 -4.14375,-1.84575 z m -9.96375,8.79038 3.075,1.36837 4.90875,-7.277875 5.24375,2.33525 -2.06,8.546125 3.075,1.36838 8.845,-34.84863 -3.14,-1.39775 -19.9475,29.90613 z"
     id="path35" /><path
     inkscape:connector-curvature="0"
     style="fill:#ffffff;fill-rule:nonzero;stroke:none"
     d="m 197.4075,24.177 -1.84875,2.641625 3.6575,2.55975 -18.475,26.384375 2.7,1.88963 18.47375,-26.38313 3.5125,2.4585 1.85,-2.641625 -9.87,-6.909125 z"
     id="path37" /><path
     inkscape:connector-curvature="0"
     style="fill:#ffffff;fill-rule:evenodd;stroke:none"
     d="m 207.8925,56.45238 c 3.6,0.48825 6.77875,-0.71163 9.535,-3.59988 2.165,-2.27537 3.27625,-4.65087 3.33375,-7.124 0.0637,-2.106875 -0.57625,-3.808625 -1.9175,-5.10375 l -4.2825,-4.13575 -24.61375,25.48825 2.47125,2.38775 10.7075,-11.08762 1.63125,1.57587 -7.6225,14.06613 2.4975,2.41212 8.26,-14.87912 z m -0.7475,-4.07225 -1.63125,-1.57475 9.18,-9.508005 1.88625,1.8225 c 0.8,0.7715 0.95375,1.987255 0.465,3.649875 -0.425,1.46125 -1.14625,2.7515 -2.1625,3.87213 -1.115,1.22187 -2.4025,2.04712 -3.86625,2.47312 -1.6125,0.4455 -2.9025,0.20138 -3.87125,-0.73487 z"
     id="path39" /><path
     inkscape:connector-curvature="0"
     style="fill:#ffffff;fill-rule:evenodd;stroke:none"
     d="m 205.995,80.637 c 1.72375,2.65375 4.52,3.3605 8.38625,2.1155 2.47375,-0.78862 6.18625,-2.79175 11.14,-6.00838 4.81375,-3.12624 8.10375,-5.71412 9.87125,-7.76237 2.62,-3.08112 3.06625,-5.9485 1.3425,-8.60362 -1.63375,-2.51588 -4.24,-3.18963 -7.81875,-2.02025 C 226.68,59.07813 223.205,60.969 218.49,64.0305 l -0.8625,0.56038 c -5.0125,3.25437 -8.35125,5.7885 -10.0175,7.60375 -2.775,3.01387 -3.31375,5.82762 -1.615,8.44237 z m 2.72125,-1.59912 c -0.9125,-1.40625 -0.13125,-3.23851 2.34625,-5.49438 1.50375,-1.37088 4.31625,-3.39487 8.4375,-6.07062 l 0.95,-0.61763 c 3.78375,-2.45725 6.54875,-4.05525 8.295,-4.79375 2.77125,-1.1535 4.58875,-1.06562 5.45125,0.26125 0.925,1.427 0.18875,3.24225 -2.20875,5.448 -1.4375,1.3 -4.23625,3.30075 -8.39625,6.00225 L 222.61,74.41012 c -3.84375,2.49513 -6.6475,4.11863 -8.4125,4.87063 -2.79125,1.16575 -4.61875,1.08525 -5.48125,-0.24287 z"
     id="path41" /><path
     inkscape:connector-curvature="0"
     style="fill:#ffffff;fill-rule:nonzero;stroke:none"
     d="M 245.8725,76.66113 213.02,89.935 l 4.5125,11.1695 2.8575,-1.15475 -3.27875,-8.114 29.995,-12.11925 -1.23375,-3.05537 z"
     id="path43" /></svg>