<svg xmlns="http://www.w3.org/2000/svg" width="77" height="96" viewBox="0 0 77 96">
  <g fill="none" fill-rule="evenodd">
    <path fill="#FFF" fill-rule="nonzero" d="M71.276,95.66 C73.888,95.66 76.008,93.54 76.008,90.928 L76.008,5.08 C76.008,2.468 73.892,0.348 71.276,0.348 L5.308,0.348 C2.696,0.348 0.572,2.464 0.572,5.08 L0.572,90.928 C0.572,93.54 2.692,95.66 5.308,95.66 L71.276,95.66 Z"/>
    <path fill="#231F20" fill-rule="nonzero" d="M71.684,94.3 L5.72,94.3 C4.728,94.3 3.792,93.912 3.088,93.212 C2.384,92.512 2,91.576 2,90.58 L2,4.72 C2,2.672 3.668,1 5.72,1 L71.684,1 C72.676,1 73.612,1.388 74.316,2.088 C75.02,2.788 75.404,3.724 75.404,4.72 L75.404,90.58 C75.404,91.572 75.016,92.508 74.316,93.212 C73.616,93.916 72.68,94.3 71.684,94.3 Z M5.72,92.116 L71.684,92.116 C72.528,92.116 73.216,91.428 73.216,90.584 L73.216,4.724 C73.216,4.316 73.056,3.932 72.768,3.64 C72.48,3.348 72.092,3.192 71.684,3.192 L5.72,3.192 C5.312,3.192 4.924,3.352 4.636,3.64 C4.348,3.928 4.184,4.316 4.184,4.724 L4.184,90.584 C4.184,90.992 4.344,91.38 4.636,91.668 C4.928,91.956 5.312,92.12 5.72,92.12 L5.72,92.116 Z"/>
    <path fill="#000" d="M58.0000001,71.0032052 L40.0000001,71.0032052 L40.0000001,71.0032052 C39.4477151,71.003205 39.0000001,70.55549 39.0000001,70.0032052 C39.0000001,70.0032052 39.0000001,70.0032052 39.0000001,70.0032052 L39.0000001,68.0032052 L39.0000001,68.0032052 C39,67.4509202 39.4477151,67.0032052 40.0000001,67.0032052 L58.0000001,67.0032052 L58.0000001,67.0032052 C58.552285,67.0032052 59,67.4509202 59.0000001,68.0032052 L59.0000001,70.0032052 L59.0000001,70.0032052 C59,70.5554902 58.552285,71.0032052 58.0000001,71.0032052 C58.0000001,71.0032052 58.0000001,71.0032052 58.0000001,71.0032052 L58.0000001,71.0032052 Z M58.0007001,62.997005 L47.8552001,63.003205 L47.8552001,63.003205 C47.3900111,63.0031091 47.0129781,62.625921 47.0130741,62.160731 C47.0131105,61.984512 47.0684146,61.812742 47.1712001,61.669605 L55.8751001,49.504605 L55.8751001,49.5046051 C56.2622541,48.9588291 57.0185401,48.8302411 57.5643201,49.2173951 C57.6619168,49.2866268 57.7487191,49.3699341 57.8219011,49.4646051 L57.821901,49.4646049 C58.587406,50.4850749 59.000841,51.7265249 59.000001,53.0022049 L59.000001,61.9975049 L59.000001,61.9974941 C58.9997316,62.5493111 58.552528,62.9966131 58.000712,62.9970051 L58.0007001,62.997005 Z M49.0000001,45.001305 L48.9999997,45.001305 C44.5817197,45.0013048 40.9999997,41.419585 40.9999997,37.001305 C40.9999997,37.001005 40.9999997,37.000705 40.9999998,37.000405 L40.9999998,35.008605 L37.2359998,35.001305 L37.2359998,35.001305 C36.5532658,35.00129 35.9998098,34.447812 35.9998298,33.765075 C35.9998401,33.296839 36.2643968,32.868797 36.6832028,32.659405 L39.3666028,31.317405 L39.3666027,31.317405 C39.7831477,31.109107 40.2424797,31.000676 40.7082027,31.000705 L56.0000027,31.000705 L56.0000027,31.000705 C56.5522877,31.000705 57.0000027,31.44842 57.0000027,32.000705 L57.0000027,37.000205 L57.0000028,37.0013051 C57.0000028,41.4195851 53.4182828,45.0013051 49.0000028,45.0013051 C48.9996361,45.0013051 48.9992694,45.001305 48.9989027,45.001305 L49.0000001,45.001305 Z M56.0000001,29.000405 L40.8285001,29.000405 L40.8285001,29.000405 C40.2980351,29.0004244 39.7892901,28.789704 39.4142001,28.414605 L38.4142001,27.414605 L38.4142001,27.414605 C37.8618601,26.862152 37.8619521,25.966535 38.4144052,25.414195 C38.6795922,25.149062 39.0392072,25.000081 39.4142002,25 L56.0000052,25 L56.0000052,25 C56.5522851,25 57.0000001,25.447715 57.0000052,26 L57.0000052,28 L57.0000002,28.0000548 C57.0001908,28.5523398 56.5526302,29.0002048 56.0003452,29.0004048 C56.0002118,29.0004048 56.0000784,29.0004048 55.999945,29.0004048 L56.0000001,29.000405 Z M51.1370001,47.001605 L51.1370001,47.001605 C51.6022451,47.0013667 51.9795931,47.378329 51.9798311,47.843573 C51.9799215,48.019953 51.9246463,48.191913 51.8218001,48.335205 L41.7378001,62.378405 L41.7378002,62.378405 C41.4560372,62.770794 41.0024722,63.003383 40.5194002,63.003205 L40.0000002,63.003205 L40.0000001,63.003205 C39.4479101,63.003205 39.0002761,62.555794 39.0000001,62.003705 L39.0000001,59.003205 L36.0983001,61.904905 L36.0983,61.9049051 C35.395067,62.6081111 34.4413,63.0031751 33.4468,63.0032051 L24,63.0032051 L23.9999999,63.0032051 C23.4477149,63.0032051 22.9999999,62.5554901 22.9999999,62.0032051 C22.9999999,62.0032051 22.9999999,62.0032051 22.9999999,62.0032051 L22.9999999,61.8197051 L22.9999999,61.8196447 C22.9999999,61.2474717 23.3884919,60.7483447 23.9431589,60.6078947 L32.2499989,58.5032047 L38.2286989,50.2932047 L38.2286988,50.2932049 C39.7344688,48.2258749 42.1379288,47.0031149 44.6954988,47.0032049 L51.1370001,47.001605 Z M19,67 L33,67 C34.1045695,67 35,67.8954305 35,69 L35,69 C35,70.1045695 34.1045695,71 33,71 L19,71 C17.8954305,71 17,70.1045695 17,69 L17,69 C17,67.8954305 17.8954305,67 19,67 Z M25,67 L28,67 C28.5522847,67 29,66.5522847 29,66 L29,66 C29,65.4477153 28.5522847,65 28,65 L25,65 C24.4477153,65 24,65.4477153 24,66 L24,66 C24,66.5522847 24.4477153,67 25,67 Z"/>
  </g>
</svg>
