<svg xmlns="http://www.w3.org/2000/svg" width="77" height="96" viewBox="0 0 77 96">
  <g fill="none" fill-rule="evenodd">
    <path fill="#FFF" fill-rule="nonzero" d="M71.276,95.66 C73.888,95.66 76.008,93.54 76.008,90.928 L76.008,5.08 C76.008,2.468 73.892,0.348 71.276,0.348 L5.308,0.348 C2.696,0.348 0.572,2.464 0.572,5.08 L0.572,90.928 C0.572,93.54 2.692,95.66 5.308,95.66 L71.276,95.66 Z"/>
    <g fill="#000" transform="translate(11 28)">
      <path d="M3,49 C2.447715,48.9999998 2,48.5522848 2,48 L2,1 C1.99999992,0.447715 2.447715,-7.61612995e-14 3,0 L16,0 C16.552285,-2.41411789e-08 17,0.447715 17,1 L17,4.45014606 L8.99051918,6.15261377 C6.55954716,6.66933282 5.00773853,9.05890857 5.52445758,11.4898806 C6.04117664,13.9208526 8.43075238,15.4726612 10.8617244,14.9559422 L17,13.6512114 L17,48 C17,48.552285 16.552285,49 16,49 L19,49 C19.552285,49 20,49.447715 20,50 L20,52 C20,52.552285 19.552285,53 19,53 L1,53 C0.447715,52.9999998 0,52.5522848 0,52 L0,50 C-8.33926848e-08,49.447715 0.447715,49 1,49 L3,49 Z M9.5,30 C10.3284271,30 11,29.3284271 11,28.5 C11,27.6715729 10.3284271,27 9.5,27 C8.67157288,27 8,27.6715729 8,28.5 C8,29.3284271 8.67157288,30 9.5,30 Z M9.5,39 C10.3284271,39 11,38.3284271 11,37.5 C11,36.6715729 10.3284271,36 9.5,36 C8.67157288,36 8,36.6715729 8,37.5 C8,38.3284271 8.67157288,39 9.5,39 Z"/>
      <path d="M3.5,0 L43.5,0 C45.4329966,-3.55085719e-16 47,1.56700338 47,3.5 C47,5.43299662 45.4329966,7 43.5,7 L3.5,7 C1.56700338,7 2.36723813e-16,5.43299662 0,3.5 C-2.36723813e-16,1.56700338 1.56700338,3.55085719e-16 3.5,0 Z M3.5,6 C4.88071187,6 6,4.88071187 6,3.5 C6,2.11928813 4.88071187,1 3.5,1 C2.11928813,1 1,2.11928813 1,3.5 C1,4.88071187 2.11928813,6 3.5,6 Z" transform="rotate(-12 40.272 -23.543)"/>
    </g>
    <path fill="#231F20" fill-rule="nonzero" d="M71.684,94.3 L5.72,94.3 C4.728,94.3 3.792,93.912 3.088,93.212 C2.384,92.512 2,91.576 2,90.58 L2,4.72 C2,2.672 3.668,1 5.72,1 L71.684,1 C72.676,1 73.612,1.388 74.316,2.088 C75.02,2.788 75.404,3.724 75.404,4.72 L75.404,90.58 C75.404,91.572 75.016,92.508 74.316,93.212 C73.616,93.916 72.68,94.3 71.684,94.3 Z M5.72,92.116 L71.684,92.116 C72.528,92.116 73.216,91.428 73.216,90.584 L73.216,4.724 C73.216,4.316 73.056,3.932 72.768,3.64 C72.48,3.348 72.092,3.192 71.684,3.192 L5.72,3.192 C5.312,3.192 4.924,3.352 4.636,3.64 C4.348,3.928 4.184,4.316 4.184,4.724 L4.184,90.584 C4.184,90.992 4.344,91.38 4.636,91.668 C4.928,91.956 5.312,92.12 5.72,92.12 L5.72,92.116 Z"/>
  </g>
</svg>
