<svg xmlns="http://www.w3.org/2000/svg" width="80" height="80" viewBox="0 0 80 80">
  <g fill="none" fill-rule="evenodd">
    <g fill="#FFFFFE">
      <rect width="80" height="80" fill-rule="nonzero" rx="5"/>
      <rect width="70" height="70" x="5" y="5" fill-rule="nonzero" stroke="#000" stroke-width="3" rx="3"/>
    </g>
    <path fill="#000" fill-rule="nonzero" d="M44.1000129,38.7940631 L53.712774,40.0444787 C56.0417918,40.9647014 57.8738535,39.7550539 56.5609995,37.5064453 L41.882254,17.4137291 C40.5545656,15.528757 39.4345602,15.528757 38.114289,17.4137291 L23.4429608,37.5064453 C22.1226896,39.7550539 23.9547513,40.9572802 26.2911863,40.0444787 L35.9039474,38.7940631 L35.9039474,63.0092282 C35.9039474,63.5564164 36.3467231,64 36.8929146,64 L43.1110458,64 C43.6572373,64 44.1000129,63.5564164 44.1000129,63.0092282 L44.1000129,38.7940631 Z" transform="scale(-1 1) rotate(-45 0 136.569)"/>
  </g>
</svg>
