<svg xmlns="http://www.w3.org/2000/svg" width="80" height="80" viewBox="0 0 80 80">
  <g fill="none" fill-rule="evenodd">
    <g fill="#FFFFFE">
      <rect width="80" height="80" fill-rule="nonzero" rx="5"/>
      <rect width="70" height="70" x="5" y="5" fill-rule="nonzero" stroke="#000" stroke-width="3" rx="3"/>
    </g>
    <path fill="#000" fill-rule="nonzero" d="M39.7849271,17.1995727 C40.3128333,16.8843625 40.9463207,16.9906985 41.4976893,17.1881796 C45.5693959,18.5847666 51.4632994,20.6046369 59.1793995,23.2477904 L59.1794031,23.2477801 C60.2243701,23.605734 60.7813043,24.7430261 60.4233504,25.7879932 C60.3390402,26.034118 60.2075198,26.2614292 60.0361597,26.4571876 C54.6279615,32.6354098 50.4988328,37.3576375 47.6487736,40.6238709 C47.277284,40.9808559 46.7063633,41.0833942 46.2058301,41.1289668 C45.0835407,41.1479554 44.2858159,40.0352252 44.3874867,39.0136403 C44.4696054,37.18694 44.559545,35.3640374 44.6377533,33.5373371 C41.7284038,34.2854867 38.6978315,34.8551437 36.1013153,36.4046109 C34.1578386,37.7262153 32.280839,39.2377054 30.9864913,41.1973256 C28.9491646,44.1519469 27.5218628,47.6040686 27.486669,51.2005035 C27.4905795,55.1349349 27.4905795,59.0693663 27.4905795,63 C24.327053,63 21.1635265,63 18,63 C18.0234625,59.2136794 18.0195521,55.4273589 18.0664771,51.6410383 C18.234625,48.6560353 18.5552791,45.6292575 19.6189122,42.8075562 C20.6669037,39.9782595 22.2819054,37.3730279 24.1589051,34.9956592 C25.8051902,32.941096 27.881621,31.2587089 30.0401706,29.7396234 C32.0149307,28.2395265 34.396374,27.3736478 36.7387131,26.5761279 C38.5961607,25.938112 40.5318166,25.5431497 42.4283683,25.0304584 C41.2904373,23.2797124 40.1173125,21.5555504 38.9989335,19.7972089 C38.4319232,18.9237348 38.7995023,17.6173212 39.7888375,17.1995727 L39.7849271,17.1995727 Z" transform="matrix(-1 0 0 1 80 0)"/>
  </g>
</svg>
