<svg xmlns="http://www.w3.org/2000/svg" width="80" height="80" viewBox="0 0 80 80">
  <g fill="none" fill-rule="evenodd">
    <g fill="#FFFFFE">
      <rect width="80" height="80" fill-rule="nonzero" rx="5"/>
      <rect width="70" height="70" x="5" y="5" fill-rule="nonzero" stroke="#000" stroke-width="3" rx="3"/>
    </g>
    <path fill="#000" fill-rule="nonzero" d="M45.4441333,44.5928132 L57.0359922,46.1064742 C59.8445136,47.220428 62.0537645,45.7561178 60.4706171,43.034118 L42.7697769,18.7113563 C41.1687408,16.4295479 39.8181462,16.4295479 38.2260544,18.7113563 L20.5341586,43.034118 C18.9420668,45.7561178 21.1513177,47.2114444 23.9687835,46.1064742 L35.5606424,44.5928132 L35.5606424,61.8006447 C35.5606424,62.4630304 36.0945778,63 36.7532205,63 L44.2515552,63 C44.9101979,63 45.4441333,62.4630304 45.4441333,61.8006447 L45.4441333,44.5928132 Z" transform="matrix(1 0 0 -1 0 80)"/>
  </g>
</svg>
