<svg xmlns="http://www.w3.org/2000/svg" width="80" height="80" viewBox="0 0 80 80">
  <g fill="none" fill-rule="evenodd">
    <g fill="#FFFFFE">
      <rect width="80" height="80" fill-rule="nonzero" rx="5"/>
      <rect width="70" height="70" x="5" y="5" fill-rule="nonzero" stroke="#000" stroke-width="3" rx="3"/>
    </g>
    <path fill="#000" fill-rule="nonzero" d="M32.9673914,67 L28.0294637,67 C27.5957234,67 27.2441074,66.6488296 27.2441074,66.215639 L27.2441074,28.0452999 L19.6104442,29.0352123 C17.7609301,29.7637219 16.3060575,28.8060843 17.348618,27.0259359 L29.0052689,11.1192022 C30.0596097,9.62693259 30.9490257,9.62693259 31.9974764,11.1192022 L43.648237,27.0259359 C44.6966877,28.8060843 43.2418151,29.7578468 41.3864109,29.0352123 L33.7527477,28.0452999 L33.7527477,57.3695366 L48.8728111,43.0226613 L42.7750224,38.3248201 C40.9520843,37.5321502 40.6004861,35.8262479 42.5964427,35.3046945 L62.0866988,32.2994321 C63.8874244,31.9897697 64.5163365,32.6186818 64.202509,34.4152423 L61.1930817,53.9013334 C60.6756932,55.901455 58.9739453,55.5457025 58.1729561,53.7227538 L53.4751148,47.6249651 C40.0708971,60.541655 33.2349892,67 32.9673914,67 Z" transform="matrix(-1 0 0 1 81.28 0)"/>
  </g>
</svg>
