<svg xmlns="http://www.w3.org/2000/svg" width="80" height="80" viewBox="0 0 80 80">
  <g fill="none" fill-rule="evenodd">
    <g fill="#FFFFFE">
      <rect width="80" height="80" fill-rule="nonzero" rx="5"/>
      <rect width="70" height="70" x="5" y="5" fill-rule="nonzero" stroke="#000" stroke-width="3" rx="3"/>
    </g>
    <path fill="#000" fill-rule="nonzero" d="M48.9789689,31.3393178 L40.3117253,32.4550733 C38.2051036,33.2695731 36.5532447,32.1968173 37.7436532,30.1903666 L50.9718999,12.2614814 C52.1623084,10.5795062 53.1721493,10.5795062 54.3692454,12.2614814 L67.6041799,30.1903666 C68.7879007,32.1968173 67.1360418,33.2761951 65.0361077,32.4550733 L56.3688641,31.3393178 L56.3688641,52.946696 C56.3688641,53.0858324 56.3364454,53.2174617 56.2786885,53.3345639 L56.2786885,56.6032455 C56.2786885,57.0906163 55.8787361,57.4857085 55.3853697,57.4857085 L33.5520241,57.4857085 L34.679448,66.0632492 C35.5024657,68.1480681 34.4184912,69.7828308 32.3910572,68.6047427 L14.2746738,55.5134036 C12.5751087,54.3353155 12.5751087,53.3359261 14.2746738,52.1512195 L32.3910572,39.053262 C34.4184912,37.8817923 35.509157,39.516555 34.679448,41.5947555 L33.5520241,50.1722961 L48.9789689,50.1722961 L48.9789689,31.3393178 Z" transform="matrix(-1 0 0 1 81 0)"/>
  </g>
</svg>
