<?xml version="1.0" encoding="UTF-8"?>
<svg width="80px" height="80px" viewBox="0 0 80 80" version="1.1" xmlns="http://www.w3.org/2000/svg" xmlns:xlink="http://www.w3.org/1999/xlink">
    <!-- Generator: Sketch 53.2 (72643) - https://sketchapp.com -->
    <title>ic-left-right</title>
    <desc>Created with Sketch.</desc>
    <g id="Page-1" stroke="none" stroke-width="1" fill="none" fill-rule="evenodd">
        <g id="ic-left-right">
            <g id="bg" fill="#FFFFFE">
                <g>
                    <rect id="Rectangle" fill-rule="nonzero" x="0" y="0" width="80" height="80" rx="5"></rect>
                    <rect id="Rectangle-Copy" stroke="#000000" stroke-width="3" fill-rule="nonzero" x="5" y="5" width="70" height="70" rx="3"></rect>
                </g>
            </g>
            <path d="M38.1000129,38.7940631 L47.712774,40.0444787 C50.0417918,40.9647014 51.8738535,39.7550539 50.5609995,37.5064453 L35.882254,17.4137291 C34.5545656,15.528757 33.4345602,15.528757 32.114289,17.4137291 L17.4429608,37.5064453 C16.1226896,39.7550539 17.9547513,40.9572802 20.2911863,40.0444787 L29.9039474,38.7940631 L29.9039474,63.0092282 C29.9039474,63.5564164 30.3467231,64 30.8929146,64 L37.1110458,64 C37.6572373,64 38.1000129,63.5564164 38.1000129,63.0092282 L38.1000129,38.7940631 Z" id="Path" fill="#000000" fill-rule="nonzero" transform="translate(34.000000, 40.000000) scale(-1, 1) rotate(90.000000) translate(-34.000000, -40.000000) "></path>
            <path d="M50.1000129,38.7940631 L59.712774,40.0444787 C62.0417918,40.9647014 63.8738535,39.7550539 62.5609995,37.5064453 L47.882254,17.4137291 C46.5545656,15.528757 45.4345602,15.528757 44.114289,17.4137291 L29.4429608,37.5064453 C28.1226896,39.7550539 29.9547513,40.9572802 32.2911863,40.0444787 L41.9039474,38.7940631 L41.9039474,63.0092282 C41.9039474,63.5564164 42.3467231,64 42.8929146,64 L49.1110458,64 C49.6572373,64 50.1000129,63.5564164 50.1000129,63.0092282 L50.1000129,38.7940631 Z" id="Path-Copy" fill="#000000" fill-rule="nonzero" transform="translate(46.000000, 40.000000) rotate(90.000000) translate(-46.000000, -40.000000) "></path>
        </g>
    </g>
</svg>