<svg xmlns="http://www.w3.org/2000/svg" width="80" height="80" viewBox="0 0 80 80">
  <g fill="none" fill-rule="evenodd">
    <g fill="#FFFFFE">
      <rect width="80" height="80" fill-rule="nonzero" rx="5"/>
      <rect width="70" height="70" x="5" y="5" fill-rule="nonzero" stroke="#000" stroke-width="3" rx="3"/>
    </g>
    <path fill="#000" fill-rule="nonzero" d="M39.4109271,17.2558481 C39.9388333,16.9406379 40.5723207,17.0469739 41.1236893,17.244455 C45.1953959,18.641042 51.0892994,20.6609123 58.8053995,23.3040658 L58.8054031,23.3040554 C59.8503701,23.6620094 60.4073043,24.7993015 60.0493504,25.8442686 C59.9650402,26.0903934 59.8335198,26.3177045 59.6621597,26.513463 C54.2539615,32.6916851 50.1248328,37.4139129 47.2747736,40.6801462 C46.903284,41.0371313 46.3323633,41.1396696 45.8318301,41.1852422 C44.7095407,41.2042307 43.9118159,40.0915006 44.0134867,39.0699156 C44.0956054,37.2432153 44.185545,35.4203128 44.2637533,33.5936125 C41.3544038,34.3417621 38.3238315,34.9114191 35.7273153,36.4608863 C33.7838386,37.7824907 31.906839,39.2939807 30.6124913,41.253601 C28.5751646,44.2082223 27.1478628,47.660344 27.112669,51.2567789 C27.1165795,55.1912103 27.1165795,59.1256417 27.1165795,63.0562754 C23.953053,63.0562754 20.7895265,63.0562754 17.626,63.0562754 C17.6494625,59.2699548 17.6455521,55.4836343 17.6924771,51.6973137 C17.860625,48.7123107 18.1812791,45.6855329 19.2449122,42.8638316 C20.2929037,40.0345349 21.9079054,37.4293033 23.7849051,35.0519345 C25.4311902,32.9973714 27.507621,31.3149842 29.6661706,29.7958988 C31.6409307,28.2958019 34.022374,27.4299231 36.3647131,26.6324033 C38.2221607,25.9943874 40.1578166,25.5994251 42.0543683,25.0867338 C40.9164373,23.3359878 39.7433125,21.6118257 38.6249335,19.8534843 C38.0579232,18.9800101 38.4255023,17.6735966 39.4148375,17.2558481 L39.4109271,17.2558481 Z"/>
  </g>
</svg>
