<svg xmlns="http://www.w3.org/2000/svg" width="80" height="80" viewBox="0 0 80 80">
  <g fill="none" fill-rule="evenodd">
    <g fill="#FFFFFE">
      <rect width="80" height="80" fill-rule="nonzero" rx="5"/>
      <rect width="70" height="70" x="5" y="5" fill-rule="nonzero" stroke="#000" stroke-width="3" rx="3"/>
    </g>
    <path fill="#000" fill-rule="nonzero" d="M33.3981092,67.0104076 L28.4601815,67.0104076 C28.0264412,67.0104076 27.6748252,66.6592373 27.6748252,66.2260467 L27.6748252,28.0557076 L20.041162,29.0456199 C18.1916479,29.7741296 16.7367754,28.8164919 17.7793359,27.0363435 L29.4359867,11.1296099 C30.4903275,9.63734023 31.3797436,9.63734023 32.4281942,11.1296099 L44.0789549,27.0363435 C45.1274055,28.8164919 43.672533,29.7682545 41.8171288,29.0456199 L34.1834655,28.0557076 L34.1834655,57.3799443 L49.303529,43.033069 L43.2057402,38.3352277 C41.3828022,37.5425578 41.031204,35.8366556 43.0271606,35.3151021 L62.5174167,32.3098398 C64.3181422,32.0001773 64.9470543,32.6290894 64.6332269,34.42565 L61.6237996,53.9117411 C61.1064111,55.9118627 59.4046631,55.5561102 58.603674,53.7331615 L53.9058327,47.6353727 C40.5016149,60.5520627 33.6657071,67.0104076 33.3981092,67.0104076 Z"/>
  </g>
</svg>
