<svg xmlns="http://www.w3.org/2000/svg" width="80" height="80" viewBox="0 0 80 80">
  <g fill="none" fill-rule="evenodd">
    <g fill="#FFFFFE">
      <rect width="80" height="80" fill-rule="nonzero" rx="5"/>
      <rect width="70" height="70" x="5" y="5" fill-rule="nonzero" stroke="#000" stroke-width="3" rx="3"/>
    </g>
    <path fill="#000" fill-rule="nonzero" d="M55.6354368,18.9698499 C59.6326576,21.5160353 61.9848684,26.1942676 61.9771814,30.8878383 C62.0156162,41.923865 61.9963988,52.9598916 61.9848684,63.9959182 C59.6134402,63.9959182 57.2381686,63.9920836 54.8667405,63.9997528 C54.8014013,52.8141762 54.9397666,41.6209302 54.7975578,30.4353536 C54.0557659,21.9378431 40.8072849,20.5152004 36.7908467,27.3063064 C34.9382886,31.1255846 36.1489853,35.5584014 35.795385,39.6384335 C38.908605,38.9482025 42.0026077,38.1621061 45.1273582,37.5370635 C46.5532899,37.2379634 47.1413426,38.9903832 46.2727157,39.9298643 C42.044886,46.0077317 37.8478041,52.1239452 33.5200439,58.1327894 C32.8935564,59.2179859 31.4599378,58.8997127 30.9410677,57.8950432 C26.7390353,51.9325451 22.5649687,45.9504778 18.4190048,39.9490374 C17.6579955,39.1054217 17.9270392,37.4411981 19.2799447,37.5255597 C22.5046257,38.0739099 25.675498,38.9443678 28.8732747,39.6499373 C29.1000401,33.9977124 27.854752,27.7089411 31.3254159,22.7546165 C36.6140465,15.1965871 48.1867695,14.0500368 55.6354368,18.9698499 Z"/>
  </g>
</svg>
