<?xml version="1.0" encoding="UTF-8" standalone="no"?>
<svg
   xmlns:dc="http://purl.org/dc/elements/1.1/"
   xmlns:cc="http://creativecommons.org/ns#"
   xmlns:rdf="http://www.w3.org/1999/02/22-rdf-syntax-ns#"
   xmlns:svg="http://www.w3.org/2000/svg"
   xmlns="http://www.w3.org/2000/svg"
   xmlns:sodipodi="http://sodipodi.sourceforge.net/DTD/sodipodi-0.dtd"
   xmlns:inkscape="http://www.inkscape.org/namespaces/inkscape"
   width="183.05611"
   height="131.17987"
   viewBox="0 0 516.62501 370.21873"
   version="1.1"
   id="svg2"
   inkscape:version="0.48.2 r9819"
   sodipodi:docname="MUTCD M6-2R (blue).svg">
  <metadata
     id="metadata62">
    <rdf:RDF>
      <cc:Work
         rdf:about="">
        <dc:format>image/svg+xml</dc:format>
        <dc:type
           rdf:resource="http://purl.org/dc/dcmitype/StillImage" />
        <dc:title></dc:title>
      </cc:Work>
    </rdf:RDF>
  </metadata>
  <defs
     id="defs60">
    <clipPath
       clipPathUnits="userSpaceOnUse"
       id="clipPath3564">
      <path
         inkscape:connector-curvature="0"
         d="m 63,43 512.622,0 0,313.129 L 63,356.129 63,43 z"
         id="path3566" />
    </clipPath>
  </defs>
  <sodipodi:namedview
     pagecolor="#ffffff"
     bordercolor="#666666"
     borderopacity="1"
     objecttolerance="10"
     gridtolerance="10"
     guidetolerance="10"
     inkscape:pageopacity="0"
     inkscape:pageshadow="2"
     inkscape:window-width="1280"
     inkscape:window-height="1004"
     id="namedview58"
     showgrid="false"
     fit-margin-top="0"
     fit-margin-left="0"
     fit-margin-right="0"
     fit-margin-bottom="0"
     inkscape:zoom="2.7367973"
     inkscape:cx="90.408729"
     inkscape:cy="78.499769"
     inkscape:window-x="-8"
     inkscape:window-y="-8"
     inkscape:window-maximized="1"
     inkscape:current-layer="svg2"
     showguides="true"
     inkscape:guide-bbox="true" />
  <polygon
     points="395,375 315,545 235,375 315,205 "
     id="polygon10"
     style="fill:none;stroke:#ffffff;stroke-width:40"
     transform="translate(28548.678,3150.5852)" />
  <!-- draw the bicycle -->
  <!-- RIGHT -->
  <!-- LANE -->
  <!-- ONLY -->
  <path
     d="m 50.9246,2.119062 414.7956,0 c 26.8703,0 48.7877,21.917301 48.7877,48.797701 l 0,268.392387 c 0,26.8804 -21.9174,48.8078 -48.7877,48.8078 l -414.7956,0 c -26.8904,0 -48.8078,-21.9274 -48.8078,-48.8078 l 0,-268.392387 c 0,-26.8804 21.9174,-48.797701 48.8078,-48.797701"
     style="fill:#ffffff;fill-opacity:1;fill-rule:nonzero;stroke:#000000;stroke-width:4.23333311;stroke-miterlimit:4;stroke-opacity:1;stroke-dasharray:none"
     id="path3654"
     inkscape:connector-curvature="0" />
  <path
     d="m 465.6027,11.874563 c 2.0454,0.06 4.0005,0.2006 6.0458,0.4612 1.9251,0.351 3.7499,0.762 5.6348,1.3034 1.8348,0.6217 3.5493,1.2934 5.3139,2.1056 1.6944,0.8622 3.2786,1.7846 4.9128,2.8173 1.5441,1.1029 2.9779,2.2259 4.4216,3.4791 2.3261,2.2259 4.2712,4.4717 6.1361,7.0986 1.0527,1.6042 1.9551,3.1984 2.8274,4.9028 0.8021,1.7446 1.4839,3.4591 2.0955,5.2939 0.5314,1.895 0.9625,3.7097 1.3134,5.6548 0.2506,2.0454 0.381,3.9804 0.4412,6.0458 l -0.06,270.287387 c -0.1304,1.9953 -0.381,3.8802 -0.7319,5.8453 -0.4412,1.905 -0.9626,3.6897 -1.5742,5.5345 -0.7018,1.7847 -1.4538,3.4591 -2.3361,5.1735 -0.9625,1.6644 -1.9551,3.1984 -3.058,4.7425 -1.1831,1.5039 -2.3862,2.8875 -3.6896,4.2812 -2.3562,2.2158 -4.6622,4.0406 -7.3894,5.7851 -1.6543,0.9726 -3.2986,1.8047 -5.0432,2.5968 -1.7947,0.7219 -3.5493,1.3034 -5.4142,1.8348 -1.925,0.4612 -3.7798,0.772 -5.755,1.0227 l -4.0907,0.2105 -416.7006,-0.05 c -1.9953,-0.1603 -3.8702,-0.391 -5.8353,-0.7419 -1.905,-0.4412 -3.6897,-0.9525 -5.5445,-1.5641 -1.7847,-0.7119 -3.4591,-1.4739 -5.1736,-2.3562 -1.6543,-0.9525 -3.1883,-1.935 -4.7524,-3.058 -1.4939,-1.173 -2.8675,-2.3762 -4.2611,-3.6796 -2.2259,-2.3562 -4.0507,-4.6622 -5.7852,-7.3794 -0.9726,-1.6844 -1.8047,-3.2986 -2.5968,-5.0432 -0.7119,-1.8047 -1.3134,-3.5693 -1.8448,-5.4242 -0.4512,-1.945 -0.7721,-3.7899 -1.0127,-5.755 l -0.2206,-4.1107 0.06,-270.277287 c 0.1604,-1.9953 0.381,-3.8702 0.7319,-5.8453 0.4411,-1.885 0.9625,-3.6897 1.5942,-5.5245 0.7118,-1.8047 1.4638,-3.4791 2.3361,-5.1936 0.9525,-1.6543 1.935,-3.1883 3.0479,-4.7424 1.1831,-1.5039 2.3863,-2.8775 3.6897,-4.2511 2.3461,-2.2459 4.6622,-4.0707 7.3893,-5.8152 1.6644,-0.9525 3.2886,-1.7947 5.0332,-2.5968 1.8248,-0.7019 3.5593,-1.3035 5.4342,-1.8348 1.9251,-0.4412 3.7799,-0.7721 5.735,-1.0227 l 4.1108,-0.2106 414.565,0 z"
     style="fill:#155196;fill-opacity:1;fill-rule:evenodd;stroke:none"
     id="path3678"
     inkscape:connector-curvature="0" />
  <path
     d="M 177.16121,185.41758 258.74473,64.862055 340.37838,185.45768 c 3.6295,5.30388 2.23585,12.59296 -3.06803,16.20241 -3.56934,2.41632 -7.22892,1.97516 -11.61039,0.86225 l -35.39263,-10.64787 -0.0602,113.0559 -63.16531,-0.02 0.0602,-113.05589 -34.82114,10.37716 c -4.80257,1.3435 -8.36188,1.91499 -12.08162,-0.61162 -5.30388,-3.60945 -6.69753,-10.90855 -3.07805,-16.2024"
     style="fill:#ffffff;fill-opacity:1;fill-rule:evenodd;stroke:none"
     id="path3794"
     inkscape:connector-curvature="0" />
</svg>
