<?xml version="1.0" encoding="utf-8"?>
<!-- Generated by IcoMoon.io -->
<!DOCTYPE svg PUBLIC "-//W3C//DTD SVG 1.1//EN" "http://www.w3.org/Graphics/SVG/1.1/DTD/svg11.dtd">
<svg version="1.1" xmlns="http://www.w3.org/2000/svg" xmlns:xlink="http://www.w3.org/1999/xlink" width="24" height="24" viewBox="0 0 24 24">
<path fill="#006f53" d="M23.907 6.087v-2.852c0-0.286-0.234-0.519-0.52-0.519h-13.080c-0.286 0-0.52 0.234-0.52 0.519v2.882h13.51c0.501 0 0.908 0.406 0.91 0.907v-0.937h-0.302z"></path>
<path fill="#fff" d="M23.419 2.446h-13.112c-0.435 0-0.79 0.354-0.79 0.789v2.882h-8.565c-0.502 0-0.91 0.408-0.91 0.91v13.617c0 0.502 0.408 0.91 0.91 0.91h22.345c0.502 0 0.91-0.408 0.91-0.91v-13.619c-0.002-0.5-0.409-0.907-0.91-0.907h-13.51v-2.882c0-0.286 0.234-0.519 0.52-0.519h13.112c0.286 0 0.52 0.234 0.52 0.519v1.824h-0.032v1.028h0.302v-2.852c0-0.435-0.354-0.789-0.79-0.789zM23.306 6.346c0.37 0 0.674 0.303 0.674 0.674v13.617c0 0.37-0.303 0.674-0.674 0.674h-22.345c-0.37 0-0.674-0.303-0.674-0.674v-13.617c0-0.37 0.303-0.674 0.674-0.674h22.345z"></path>
<path fill="#006f53" d="M0.288 7.020v13.617c0 0.37 0.303 0.674 0.674 0.674h22.345c0.37 0 0.674-0.303 0.674-0.674v-13.617c0-0.37-0.303-0.674-0.674-0.674h-22.345c-0.37 0-0.674 0.303-0.674 0.674z"></path>
<path fill="#231f20" d="M24.253 6.087v0-2.852c0-0.459-0.374-0.833-0.833-0.833h-13.112c-0.459 0-0.833 0.374-0.833 0.833v2.838h-8.521c-0.526 0-0.954 0.428-0.954 0.954v13.617c0 0.526 0.428 0.954 0.954 0.954h22.345c0.526 0 0.954-0.428 0.954-0.954v-14.557zM24.209 6.087v0 14.556c0 0.502-0.408 0.91-0.91 0.91h-22.345c-0.502 0-0.91-0.408-0.91-0.91v-13.617c0-0.502 0.408-0.91 0.91-0.91h8.565v-2.882c0-0.435 0.354-0.789 0.79-0.789h13.112c0.435 0 0.79 0.354 0.79 0.789v2.852z"></path>
<path fill="#fff" d="M22.876 16.842c-0.024-0.024-0.057-0.033-0.087-0.026l0.001 0.001c0 0-1.713 0.311-1.898 0.355v0.001c-0.017 0.004-0.033 0.013-0.046 0.026-0.038 0.037-0.038 0.098 0 0.135 0.005 0.005 0.018 0.015 0.018 0.015l0.635 0.388-1.3 1.295 0.407 0.407 1.299-1.296c0 0 0.4 0.691 0.4 0.692s0.010 0.015 0.017 0.022c0.037 0.037 0.098 0.037 0.135 0 0.015-0.015 0.023-0.033 0.026-0.052l0.133-0.525 0.284-1.349 0.001 0.001c0.007-0.031-0.001-0.065-0.026-0.089z"></path>
<path fill="#fff" d="M9.064 7.433v4.658h6.124v-4.658h-6.124z"></path>
<path fill="#231f20" d="M15.13 7.491h-6.007v4.541h6.007v-4.541zM14.961 7.66v0.594h-5.67v-0.594h5.67zM9.292 8.423h5.67v3.44h-5.67v-3.44z"></path>
<path fill="#231f20" d="M9.459 11.385c0.007-0.28 0.068-0.506 0.201-0.735 0.1-0.183 0.254-0.337 0.423-0.462 0.043-0.025 0.075-0.050 0.107-0.075l0.129-0.068 0.118-0.068 0.114-0.065c0.094-0.061 0.162-0.162 0.162-0.262 0-0.179-0.201-0.322-0.438-0.322-0.244 0-0.398 0.118-0.438 0.337l-0.38-0.082c0.082-0.398 0.394-0.642 0.818-0.642 0.455 0 0.818 0.322 0.818 0.718 0 0.186-0.086 0.373-0.244 0.513-0.036 0.029-0.068 0.054-0.1 0.068l-0.118 0.075-0.129 0.068-0.118 0.068c-0.226 0.136-0.351 0.28-0.47 0.549h1.18v0.387h-1.636z"></path>
<path fill="#231f20" d="M12.738 9.649c-0.212 0.351-0.37 0.757-0.448 1.144-0.032 0.205-0.050 0.355-0.050 0.592h-0.387c0.007-0.556 0.111-1.018 0.348-1.528 0.082-0.183 0.183-0.362 0.269-0.495h-1.148v-0.38h1.628v0.38c-0.086 0.108-0.136 0.158-0.211 0.287z"></path>
<path fill="#231f20" d="M13.175 11.385c0.007-0.28 0.068-0.506 0.201-0.735 0.1-0.183 0.254-0.337 0.423-0.462 0.043-0.025 0.075-0.050 0.107-0.075l0.129-0.068 0.118-0.068 0.114-0.065c0.094-0.061 0.162-0.162 0.162-0.262 0-0.179-0.201-0.322-0.438-0.322-0.244 0-0.398 0.118-0.438 0.337l-0.38-0.082c0.082-0.398 0.394-0.642 0.818-0.642 0.455 0 0.818 0.322 0.818 0.718 0 0.186-0.086 0.373-0.244 0.513-0.036 0.029-0.068 0.054-0.1 0.068l-0.118 0.075-0.129 0.068-0.118 0.068c-0.226 0.136-0.351 0.28-0.47 0.549h1.18v0.387h-1.636z"></path>
<path fill="#fff" d="M2.938 16.344l-0.995-1.438v1.438h-0.368v-2.090h0.368l0.958 1.378v-1.378h0.362v2.090h-0.324z"></path>
<path fill="#fff" d="M4.638 16.382c-0.374 0-0.667-0.358-0.667-0.798 0-0.443 0.293-0.802 0.667-0.802s0.667 0.358 0.667 0.802c0 0.44-0.294 0.798-0.667 0.798zM4.638 15.156c-0.178 0-0.293 0.184-0.293 0.427 0 0.24 0.115 0.43 0.293 0.43 0.174 0 0.287-0.19 0.287-0.43 0-0.243-0.112-0.427-0.287-0.427z"></path>
<path fill="#fff" d="M6.775 15.243c-0.050-0.056-0.115-0.087-0.197-0.087-0.066 0-0.14 0.031-0.19 0.081-0.059 0.044-0.081 0.162-0.081 0.212v0.895h-0.374v-1.525h0.374v0.109c0.103-0.103 0.169-0.131 0.293-0.131s0.206 0.022 0.293 0.087l-0.118 0.358z"></path>
<path fill="#fff" d="M8.182 16.301c-0.097 0.050-0.178 0.081-0.281 0.081-0.24 0-0.381-0.184-0.381-0.471v-0.733h-0.25v-0.353h0.25v-0.468l0.381-0.14v0.608h0.315v0.353h-0.315v0.602c0 0.153 0.059 0.228 0.169 0.228 0.075 0 0.103-0.022 0.169-0.081l-0.056 0.374z"></path>
<path fill="#fff" d="M9.694 16.344v-0.91c0-0.153-0.125-0.278-0.281-0.278-0.131 0-0.278 0.066-0.278 0.293v0.895h-0.374v-1.986l0.374-0.14v0.711c0.097-0.125 0.243-0.146 0.353-0.146 0.33 0 0.558 0.222 0.558 0.514v1.048h-0.353z"></path>
<path fill="#fff" d="M11.83 16.344v-2.090h1.525v0.374h-1.145v0.386h0.624v0.384h-0.624v0.57h1.182v0.374h-1.562z"></path>
<path fill="#fff" d="M14.884 16.344v-0.066c-0.103 0.059-0.24 0.094-0.378 0.094-0.274 0-0.552-0.143-0.552-0.534 0-0.371 0.29-0.499 0.593-0.499 0.115 0 0.234 0.018 0.337 0.050-0.022-0.187-0.14-0.246-0.278-0.246-0.143 0-0.306 0.069-0.381 0.115l-0.153-0.322c0.19-0.103 0.365-0.156 0.555-0.156 0.402 0 0.608 0.212 0.608 0.639v0.923h-0.353zM14.884 15.72c-0.128-0.050-0.237-0.072-0.321-0.072-0.184 0-0.271 0.094-0.271 0.19 0 0.1 0.084 0.199 0.262 0.199 0.087 0 0.197-0.025 0.33-0.084v-0.234z"></path>
<path fill="#fff" d="M16.443 16.372c-0.256 0-0.462-0.044-0.652-0.138l0.14-0.33c0.066 0.016 0.321 0.11 0.496 0.11 0.194 0 0.271-0.038 0.271-0.11 0-0.087-0.028-0.103-0.262-0.169-0.228-0.059-0.358-0.118-0.44-0.184-0.103-0.081-0.169-0.206-0.169-0.337 0-0.265 0.234-0.424 0.593-0.424 0.199 0 0.39 0.044 0.593 0.153l-0.138 0.33c-0.14-0.081-0.302-0.125-0.449-0.125-0.159 0-0.225 0.028-0.225 0.103 0 0.072 0.044 0.103 0.262 0.146 0.418 0.081 0.602 0.24 0.602 0.521 0 0.284-0.228 0.452-0.624 0.452z"></path>
<path fill="#fff" d="M18.377 16.301c-0.097 0.050-0.178 0.081-0.281 0.081-0.24 0-0.381-0.184-0.381-0.471v-0.733h-0.25v-0.353h0.25v-0.468l0.381-0.14v0.608h0.315v0.353h-0.315v0.602c0 0.153 0.059 0.228 0.169 0.228 0.075 0 0.103-0.022 0.169-0.081l-0.056 0.374z"></path>
<path fill="#fff" d="M2.846 19.761l-0.337-0.82h-0.558v0.82h-0.374v-2.090h0.961c0.153 0 0.25 0.022 0.358 0.087 0.2 0.11 0.324 0.315 0.324 0.552 0 0.234-0.125 0.44-0.34 0.555l0.384 0.895h-0.418zM2.543 18.046h-0.593v0.521h0.593c0.184 0 0.302-0.103 0.302-0.256 0-0.162-0.118-0.265-0.302-0.265z"></path>
<path fill="#fff" d="M4.102 18.008c-0.109 0-0.19-0.081-0.19-0.19 0-0.103 0.081-0.184 0.19-0.184 0.103 0 0.19 0.081 0.19 0.184s-0.087 0.19-0.19 0.19zM4.293 19.761h-0.374v-1.525h0.374v1.525z"></path>
<path fill="#fff" d="M5.527 19.789c-0.256 0-0.462-0.044-0.652-0.137l0.14-0.33c0.066 0.016 0.322 0.11 0.496 0.11 0.194 0 0.271-0.038 0.271-0.11 0-0.087-0.028-0.103-0.262-0.169-0.228-0.059-0.358-0.118-0.44-0.184-0.103-0.081-0.169-0.206-0.169-0.337 0-0.265 0.234-0.424 0.593-0.424 0.199 0 0.39 0.044 0.593 0.153l-0.138 0.33c-0.14-0.081-0.302-0.125-0.449-0.125-0.159 0-0.225 0.028-0.225 0.103 0 0.072 0.044 0.103 0.262 0.146 0.418 0.081 0.602 0.24 0.602 0.521 0 0.284-0.228 0.452-0.624 0.452z"></path>
<path fill="#fff" d="M6.91 18.008c-0.109 0-0.19-0.081-0.19-0.19 0-0.103 0.081-0.184 0.19-0.184 0.103 0 0.19 0.081 0.19 0.184s-0.087 0.19-0.19 0.19zM7.099 19.761h-0.374v-1.525h0.374v1.525z"></path>
<path fill="#fff" d="M8.715 19.761v-0.917c0-0.169-0.11-0.287-0.278-0.287-0.153 0-0.271 0.14-0.271 0.287v0.917h-0.374v-1.525h0.374v0.125c0.081-0.097 0.212-0.153 0.358-0.153 0.33 0 0.558 0.202 0.558 0.49v1.063h-0.368z"></path>
<path fill="#fff" d="M10.892 20.185c-0.097 0.162-0.206 0.25-0.493 0.368l-0.038 0.016-0.146-0.33c0.302-0.156 0.406-0.281 0.406-0.44v-0.162c-0.097 0.103-0.171 0.162-0.33 0.162-0.003 0-0.006 0-0.010 0-0.327 0-0.593-0.362-0.593-0.792 0-0.415 0.265-0.811 0.57-0.811 0.013 0 0.025 0.003 0.038 0.003 0.162 0.016 0.184 0.038 0.324 0.146v-0.109h0.365v1.51c0 0.222-0.015 0.315-0.094 0.44zM10.621 18.734c-0.081-0.109-0.156-0.162-0.265-0.162-0.178 0-0.293 0.184-0.293 0.434s0.115 0.434 0.293 0.434c0.118 0 0.184-0.053 0.265-0.162v-0.542z"></path>
<path fill="#fff" d="M14.061 19.642c-0.146 0.090-0.337 0.14-0.53 0.14-0.358 0-0.63-0.131-0.864-0.402l0.299-0.234c0.156 0.181 0.325 0.262 0.558 0.262 0.265 0 0.455-0.115 0.455-0.271 0-0.081-0.044-0.146-0.131-0.19-0.075-0.028-0.156-0.059-0.25-0.081l-0.097-0.028-0.097-0.022-0.1-0.031c-0.215-0.050-0.324-0.103-0.412-0.202-0.087-0.097-0.131-0.222-0.131-0.353 0-0.346 0.293-0.58 0.718-0.58 0.309 0 0.565 0.103 0.777 0.321l-0.278 0.25c-0.131-0.137-0.302-0.206-0.499-0.206-0.212 0-0.337 0.081-0.337 0.215 0 0.115 0.072 0.169 0.33 0.228 0.278 0.056 0.462 0.115 0.577 0.174 0.184 0.097 0.302 0.293 0.302 0.521 0 0.212-0.097 0.374-0.294 0.49z"></path>
<path fill="#fff" d="M15.914 19.761v-0.118c-0.19 0.125-0.228 0.14-0.374 0.14-0.33 0-0.558-0.206-0.558-0.49v-1.051h0.374v0.91c0 0.162 0.103 0.278 0.271 0.278 0.153 0 0.287-0.131 0.287-0.271v-0.917h0.35v1.519h-0.35z"></path>
<path fill="#fff" d="M17.882 19.761v-0.917c0-0.169-0.109-0.287-0.278-0.287-0.153 0-0.271 0.14-0.271 0.287v0.917h-0.374v-1.525h0.374v0.125c0.081-0.097 0.212-0.153 0.358-0.153 0.33 0 0.558 0.202 0.558 0.49v1.063h-0.368z"></path>
<path fill="#fff" d="M18.649 5.105v-1.172h-0.199l-0.005-0.225c0.122-0.028 0.187-0.073 0.248-0.17h0.225v1.567h-0.269z"></path>
<path fill="#fff" d="M19.985 5.134c-0.468 0-0.66-0.402-0.66-0.814s0.198-0.81 0.66-0.81c0.468 0 0.655 0.407 0.655 0.802 0 0.402-0.182 0.821-0.655 0.821zM20.359 4.319c0-0.33-0.138-0.529-0.374-0.529-0.281 0-0.379 0.292-0.379 0.522 0 0.349 0.142 0.54 0.379 0.54 0.231 0 0.374-0.215 0.374-0.54v0.007z"></path>
<path fill="#fff" d="M21.706 5.134c-0.468 0-0.66-0.402-0.66-0.814s0.198-0.81 0.66-0.81c0.468 0 0.655 0.407 0.655 0.802 0 0.402-0.182 0.821-0.655 0.821zM22.081 4.319c0-0.33-0.138-0.529-0.374-0.529-0.281 0-0.379 0.292-0.379 0.522 0 0.349 0.142 0.54 0.379 0.54 0.231 0 0.374-0.215 0.374-0.54v0.007z"></path>
<path fill="#fff" d="M11.258 4.852v-1.045h0.762v0.187h-0.572v0.194h0.312v0.192h-0.312v0.286h0.591v0.187h-0.782z"></path>
<path fill="#fff" d="M12.873 4.852l-0.235-0.37-0.23 0.37h-0.22l0.342-0.55-0.312-0.494h0.223l0.198 0.32 0.198-0.32h0.225l-0.309 0.494 0.342 0.55h-0.22z"></path>
<path fill="#fff" d="M13.302 4.852v-1.045h0.187v1.045h-0.187z"></path>
<path fill="#fff" d="M14.148 3.991v0.861h-0.182v-0.861h-0.301v-0.184h0.785v0.184h-0.301z"></path>
</svg>
