<?xml version="1.0" encoding="UTF-8" standalone="no"?>
<svg
   xmlns:dc="http://purl.org/dc/elements/1.1/"
   xmlns:cc="http://creativecommons.org/ns#"
   xmlns:rdf="http://www.w3.org/1999/02/22-rdf-syntax-ns#"
   xmlns:svg="http://www.w3.org/2000/svg"
   xmlns="http://www.w3.org/2000/svg"
   xmlns:sodipodi="http://sodipodi.sourceforge.net/DTD/sodipodi-0.dtd"
   xmlns:inkscape="http://www.inkscape.org/namespaces/inkscape"
   width="459.23471"
   height="154.38852"
   viewBox="0 0 1296.0625 435.71871"
   version="1.1"
   id="svg2"
   inkscape:version="0.48.2 r9819"
   sodipodi:docname="AJAX1.svg">
  <metadata
     id="metadata62">
    <rdf:RDF>
      <cc:Work
         rdf:about="">
        <dc:format>image/svg+xml</dc:format>
        <dc:type
           rdf:resource="http://purl.org/dc/dcmitype/StillImage" />
        <dc:title />
      </cc:Work>
    </rdf:RDF>
  </metadata>
  <defs
     id="defs60" />
  <sodipodi:namedview
     pagecolor="#ffffff"
     bordercolor="#666666"
     borderopacity="1"
     objecttolerance="10"
     gridtolerance="10"
     guidetolerance="10"
     inkscape:pageopacity="0"
     inkscape:pageshadow="2"
     inkscape:window-width="1280"
     inkscape:window-height="1004"
     id="namedview58"
     showgrid="false"
     fit-margin-top="0"
     fit-margin-left="0"
     fit-margin-right="0"
     fit-margin-bottom="0"
     inkscape:zoom="1.7674233"
     inkscape:cx="485.79654"
     inkscape:cy="-123.44745"
     inkscape:window-x="-8"
     inkscape:window-y="-8"
     inkscape:window-maximized="1"
     inkscape:current-layer="svg2" />
  <!-- draw the bicycle -->
  <!-- RIGHT -->
  <!-- LANE -->
  <!-- ONLY -->
  <path
     d="m 129.50884,432.9073 1034.91716,0 c 70.9623,0 128.8075,-63.29974 128.8075,-127.66416 l 0,-174.67897 c 0,-70.962452 -57.8452,-127.7429616 -128.8075,-127.7429616 l -1034.91716,0 C 60.74125,2.8212084 2.83046,59.601718 2.83046,130.56417 l 0,174.67897 c 0,64.36442 57.91079,127.66416 126.67838,127.66416 z"
     style="fill:#ffffff;fill-opacity:1;fill-rule:evenodd;stroke:#000000;stroke-width:5.64444494;stroke-linecap:butt;stroke-linejoin:miter;stroke-miterlimit:7.04349995;stroke-opacity:1;stroke-dasharray:none"
     id="path7242"
     inkscape:connector-curvature="0" />
  <path
     d="m 132.76845,415.46571 1029.46245,0 c 63.2998,0 113.5609,-56.78054 113.5609,-113.56106 l 0,-169.22432 c 0,-62.156262 -50.2611,-112.430672 -113.5609,-112.430672 l -1029.46245,0 c -62.2479,0 -112.43069,50.27441 -112.43069,112.430672 l 0,169.22432 c 0,56.78052 50.18279,113.56106 112.43069,113.56106"
     style="fill:#000000;fill-opacity:1;fill-rule:evenodd;stroke:none"
     id="path7246"
     inkscape:connector-curvature="0" />
  <path
     d="m 129.50884,381.66026 1034.91716,0 c 42.6115,0 76.4171,-41.54704 76.4171,-76.41712 l 0,-174.67897 c 0,-42.598472 -33.8056,-76.417072 -76.4171,-76.417072 l -1034.91716,0 c -41.46799,0 -75.35239,33.8186 -75.35239,76.417072 l 0,174.67897 c 0,34.87008 33.8844,76.41712 75.35239,76.41712"
     style="fill:#ffffff;fill-opacity:1;fill-rule:evenodd;stroke:none"
     id="path7250"
     inkscape:connector-curvature="0" />
  <path
     d="m 388.41232,132.08886 123.06391,0 0,29.8492 -93.93739,0 0,34.22605 50.97089,0 0,29.86232 -50.97089,0 0,48.05312 97.57828,0 0,29.86238 -126.7048,0 0,-171.85307"
     style="fill:#000000;fill-opacity:1;fill-rule:evenodd;stroke:none"
     id="path7254"
     inkscape:connector-curvature="0" />
  <path
     d="m 566.81081,132.08886 28.40372,0 78.63838,113.60043 0,-113.60043 29.84929,0 0,171.85307 -26.93168,0 -80.83319,-116.50521 0,116.50521 -29.12652,0 0,-171.85307"
     style="fill:#000000;fill-opacity:1;fill-rule:evenodd;stroke:none"
     id="path7258"
     inkscape:connector-curvature="0" />
  <path
     d="m 769.24942,132.08886 55.3479,0 c 52.4166,0 81.54289,42.23051 81.54289,86.65601 0,45.14839 -29.12629,85.19706 -77.17931,85.19706 l -59.71148,0 0,-171.85307 z m 29.12609,141.99069 32.04439,0 c 28.39031,0 46.59402,-29.12627 46.59402,-55.33468 0,-29.12631 -19.64961,-56.80681 -48.77591,-56.80681 l -29.8625,0 0,112.14149"
     style="fill:#000000;fill-opacity:1;fill-rule:evenodd;stroke:none"
     id="path7262"
     inkscape:connector-curvature="0" />
</svg>
