<?xml version="1.0" encoding="UTF-8" standalone="no"?>
<!-- Created with Inkscape (http://www.inkscape.org/) -->

<svg
   xmlns:dc="http://purl.org/dc/elements/1.1/"
   xmlns:cc="http://creativecommons.org/ns#"
   xmlns:rdf="http://www.w3.org/1999/02/22-rdf-syntax-ns#"
   xmlns:svg="http://www.w3.org/2000/svg"
   xmlns="http://www.w3.org/2000/svg"
   xmlns:sodipodi="http://sodipodi.sourceforge.net/DTD/sodipodi-0.dtd"
   xmlns:inkscape="http://www.inkscape.org/namespaces/inkscape"
   width="245.47375"
   height="143.2"
   id="svg2"
   version="1.1"
   inkscape:version="0.48.2 r9819"
   sodipodi:docname="Victoria R5-V104.svg"
   style="enable-background:new">
  <defs
     id="defs4" />
  <sodipodi:namedview
     id="base"
     pagecolor="#ffffff"
     bordercolor="#666666"
     borderopacity="1.0"
     inkscape:pageopacity="0.0"
     inkscape:pageshadow="2"
     inkscape:zoom="1.5206955"
     inkscape:cx="134.40861"
     inkscape:cy="143.53452"
     inkscape:document-units="px"
     inkscape:current-layer="layer2"
     showgrid="false"
     fit-margin-top="0"
     fit-margin-left="0"
     fit-margin-right="0"
     fit-margin-bottom="0"
     inkscape:window-width="1280"
     inkscape:window-height="1004"
     inkscape:window-x="-8"
     inkscape:window-y="-8"
     inkscape:window-maximized="1"
     showguides="true"
     inkscape:guide-bbox="true" />
  <metadata
     id="metadata7">
    <rdf:RDF>
      <cc:Work
         rdf:about="">
        <dc:format>image/svg+xml</dc:format>
        <dc:type
           rdf:resource="http://purl.org/dc/dcmitype/StillImage" />
        <dc:title></dc:title>
      </cc:Work>
    </rdf:RDF>
  </metadata>
  <g
     inkscape:groupmode="layer"
     id="layer2"
     inkscape:label="Layer"
     style="display:inline"
     transform="translate(88.20866,663.93055)">
    <g
       id="g3603" />
    <g
       id="g4817"
       transform="matrix(0.0207679,-0.99978433,0.99978433,0.0207679,-7.8775245,373.38928)"
       style="display:inline" />
    <g
       id="g7777" />
    <g
       id="g7870" />
    <g
       transform="matrix(-1,0,0,1,399.91001,0)"
       id="g8065">
      <g
         id="g8071"
         transform="matrix(-1,0,0,1,399.51753,0)" />
    </g>
    <g
       id="g8220"
       style="fill:#000000" />
    <g
       transform="translate(0.04276,0)"
       id="use5805">
      <g
         id="g5872"
         transform="matrix(-1,0,0,1,399.95793,0)"
         style="stroke:#ff00ff" />
    </g>
    <g
       id="g6470"
       transform="translate(0.168235,0)" />
    <g
       id="g6092"
       transform="matrix(0.30641772,-0.58841724,0.58841724,0.30641772,0.83541787,370.4644)"
       style="fill:none;stroke:#00ff00;stroke-width:1.50733972;stroke-miterlimit:4;stroke-dasharray:none" />
    <path
       d="m -67.74616,-663.93055 204.5625,0 1.425,0.05 1.425,0.15 1.4,0.25 1.3875,0.35 1.3625,0.4375 1.325,0.5375 1.2875,0.625 1.2375,0.725 1.18625,0.8 1.125,0.875 1.065,0.9625 0.98625,1.025 0.925,1.1 0.8375,1.1625 0.75,1.2125 0.67625,1.2625 0.57375,1.3 0.4875,1.35 0.38875,1.375 0.2975,1.4 0.2,1.4125 0.0888,1.4375 0.0112,0.6625 0,102.275 -0.0487,1.425 -0.15125,1.425 -0.24875,1.4125 -0.33625,1.3875 -0.4525,1.3625 -0.53625,1.325 -0.625,1.2875 -0.71375,1.2375 -0.7975,1.175 -0.88875,1.125 -0.9625,1.0625 -1.025,1 -1.09875,0.9125 -1.15,0.8375 -1.21375,0.7625 -1.2625,0.6625 -1.3125,0.5875 -1.35,0.4875 -1.375,0.3875 -1.4,0.2875 -1.4125,0.2 -1.425,0.1 -0.6625,0.0125 -204.5625,0 -1.425,-0.05 -1.42505,-0.15 -1.4125,-0.25 -1.3875,-0.35 -1.3625,-0.4375 -1.325,-0.5375 -1.2875,-0.625 -1.2375,-0.725 -1.175,-0.8 -1.125,-0.875 -1.0625,-0.9625 -1,-1.025 -0.9125,-1.1 -0.8375,-1.1625 -0.7625,-1.2125 -0.6625,-1.2625 -0.5875,-1.3125 -0.4875,-1.3375 -0.3875,-1.375 -0.2875,-1.4 -0.2,-1.4125 -0.1,-1.4375 -0.0125,-0.6625 0,-102.275 0.05,-1.4375 0.15,-1.4125 0.25,-1.4125 0.35,-1.3875 0.4375,-1.3625 0.5375,-1.325 0.625,-1.2875 0.725,-1.2375 0.8,-1.175 0.875,-1.1375 0.9625,-1.05 1.025,-1 1.1,-0.9125 1.1625,-0.8375 1.2125,-0.7625 1.2625,-0.6625 1.3125,-0.5875 1.3375,-0.4875 1.375,-0.3875 1.4,-0.2875 1.425,-0.2 1.425,-0.1 0.6625,-0.0125 z"
       style="fill:#fee011;fill-opacity:1;fill-rule:evenodd;stroke:none"
       id="path12111"
       inkscape:connector-curvature="0" />
    <path
       d="m -67.74616,-654.10555 204.5625,0 1.025,0.05 1.025,0.15 1,0.25 0.975,0.3375 0.925,0.4375 0.8875,0.525 0.8375,0.6 0.77375,0.6875 0.70125,0.7625 0.6125,0.825 0.54875,0.875 0.4525,0.925 0.36125,0.9625 0.26375,1 0.1725,1.0125 0.0637,1.025 0.0125,0.2125 0,102.275 -0.0487,1.0375 -0.15125,1.0125 -0.25,1 -0.35125,0.975 -0.425,0.9375 -0.525,0.8875 -0.6125,0.825 -0.68625,0.775 -0.75,0.7 -0.825,0.625 -0.875,0.5375 -0.925,0.4625 -0.975,0.3625 -0.9875,0.2625 -1.025,0.1625 -1.025,0.075 -0.2,0 -204.5625,0 -1.0375,-0.05 -1.0125,-0.15 -1,-0.25 -0.975,-0.3375 -0.9375,-0.4375 -0.8875,-0.525 -0.825,-0.6 -0.775,-0.6875 -0.7,-0.7625 -0.625,-0.8125 -0.5375,-0.8875 -0.4625,-0.925 -0.3625,-0.9625 -0.2625,-1 -0.1625,-1.0125 -0.075,-1.025 0,-0.2125 0,-102.275 0.05,-1.0375 0.15,-1.0125 0.25,-1 0.3375,-0.975 0.4375,-0.9375 0.525,-0.8875 0.6125,-0.8375 0.675,-0.7625 0.7625,-0.7 0.825,-0.625 0.875,-0.5375 0.925,-0.4625 0.9625,-0.3625 1,-0.2625 1.0125,-0.1625 1.025,-0.075 0.2125,0 z m 0,-6.55 204.5625,0 1.3,0.05 1.3125,0.15 1.2875,0.25 1.2625,0.35 1.225,0.4375 1.2,0.5375 1.15,0.6125 1.09875,0.7125 1.05,0.8 0.97625,0.8625 0.92625,0.9375 0.83625,1.0125 0.75,1.075 0.67375,1.125 0.58875,1.1625 0.5,1.2125 0.40125,1.25 0.3125,1.275 0.2,1.2875 0.1125,1.3125 0.0112,0.775 0,102.275 -0.0512,1.3125 -0.14875,1.3 -0.25125,1.2875 -0.3375,1.2625 -0.44875,1.2375 -0.525,1.2 -0.625,1.15 -0.7125,1.1 -0.78625,1.05 -0.87625,0.975 -0.9375,0.9125 -1.01375,0.8375 -1.06125,0.7625 -1.12625,0.675 -1.17375,0.5875 -1.2125,0.4875 -1.25,0.4125 -1.275,0.3 -1.2875,0.2125 -1.3125,0.1125 -0.7625,0.0125 -204.5625,0 -1.3125,-0.05 -1.3,-0.15 -1.2875,-0.25 -1.2625,-0.35 -1.2375,-0.4375 -1.2,-0.5375 -1.15,-0.625 -1.1,-0.7 -1.05,-0.8 -0.975,-0.8625 -0.9125,-0.9375 -0.8375,-1.0125 -0.7625,-1.075 -0.675,-1.1125 -0.5875,-1.175 -0.4875,-1.2125 -0.4125,-1.25 -0.3,-1.275 -0.2125,-1.3 -0.1,-1.3 -0.025,-0.775 0,-102.275 0.05,-1.3125 0.15,-1.3 0.25,-1.2875 0.35,-1.2625 0.4375,-1.2375 0.5375,-1.2 0.625,-1.15 0.7,-1.1 0.8,-1.05 0.8625,-0.975 0.95,-0.9125 1,-0.8375 1.075,-0.7625 1.125,-0.675 1.1625,-0.5875 1.2125,-0.5 1.25,-0.4 1.275,-0.3 1.2875,-0.2125 1.3125,-0.1125 0.775,-0.0125 z"
       style="fill:#000000;fill-opacity:1;fill-rule:evenodd;stroke:none"
       id="path12113"
       inkscape:connector-curvature="0" />
    <path
       d="m -56.45866,-628.88055 0.8375,-0.4625 0.8875,-0.3875 0.9125,-0.2875 0.95,-0.2 0.9625,-0.0875 0.9625,0 0.95,0.1125 0.9375,0.2 0.925,0.3 0.875,0.4 0.825,0.475 0.775,0.575 0.725,0.6375 0.375,0.4 4.2,-3.7375 -0.85,-0.875 -0.9125,-0.8125 -0.975,-0.725 -1.0375,-0.6375 -1.0875,-0.5625 -1.125,-0.475 -1.1625,-0.375 -1.1875,-0.275 -1.2,-0.175 -1.225,-0.0875 -1.2125,0.025 -1.225,0.125 -1.2,0.2125 -1.175,0.3125 -1.15,0.4125 -1.1125,0.5 -1.0625,0.6 -0.2125,0.125 -0.7375,0.5375 -0.6875,0.6125 -0.6125,0.675 -0.5375,0.75 -0.45,0.8 -0.3625,0.8375 -0.2625,0.875 -0.175,0.9 -0.075,0.9125 0.0375,0.9125 0.125,0.9125 0.225,0.8875 0.325,0.8625 0.4125,0.8125 0.5,0.7625 0.575,0.7125 0.65,0.65 0.725,0.5625 0.775,0.4875 0.825,0.4 0.7875,0.275 10.6,3.225 0.5375,0.2125 0.4875,0.3125 0.4375,0.375 0.35,0.4625 0.275,0.5 0.1875,0.55 0.075,0.575 -0.0125,0.5625 -0.1125,0.575 -0.2125,0.5375 -0.3,0.4875 -0.375,0.4375 -0.475,0.375 -0.8875,0.525 -0.95,0.4375 -0.975,0.35 -1.0125,0.25 -1.025,0.1625 -1.0375,0.05 -1.0375,-0.05 -1.025,-0.1375 -1.0125,-0.2375 -0.9875,-0.3375 -0.9375,-0.4375 -0.9,-0.525 -0.85,-0.6 -0.7875,-0.6875 -0.7125,-0.75 -0.3625,-0.45 -4.4625,3.4375 0.825,0.975 0.9,0.925 0.9625,0.8375 1.025,0.775 1.0875,0.675 1.125,0.6 1.175,0.5125 1.2125,0.4125 1.25,0.325 1.2625,0.2125 1.275,0.125 1.275,0.025 1.2875,-0.075 1.2625,-0.1875 1.25,-0.275 1.225,-0.3625 1.2,-0.475 1.15,-0.55 1.1125,-0.65 0.2,-0.125 0.7625,-0.5625 0.6875,-0.6375 0.625,-0.7125 0.55,-0.7625 0.4625,-0.825 0.375,-0.875 0.2875,-0.9 0.1875,-0.925 0.075,-0.95 -0.0125,-0.9375 -0.1125,-0.9375 -0.2125,-0.925 -0.3125,-0.9 -0.4,-0.85 -0.4875,-0.8125 -0.575,-0.75 -0.65,-0.6875 -0.7125,-0.6125 -0.775,-0.5375 -0.8375,-0.4625 -0.875,-0.35 -0.375,-0.125 -10.6,-3.2375 -0.4875,-0.2 -0.45,-0.2875 -0.375,-0.3625 -0.3,-0.425 -0.2125,-0.4875 -0.125,-0.5125 -0.0125,-0.525 0.075,-0.525 0.175,-0.4875 0.2625,-0.4625 0.35,-0.3875 0.4125,-0.3375 z"
       style="fill:#000000;fill-opacity:1;fill-rule:evenodd;stroke:none"
       id="path12115"
       inkscape:connector-curvature="0" />
    <path
       d="m -11.52116,-625.86805 5.1125,-2.3625 -0.5375,-1.025 -0.6125,-0.975 -0.7,-0.925 -0.775,-0.85 -0.8375,-0.7875 -0.9125,-0.7 -0.975,-0.625 -1.0125,-0.5375 -1.0625,-0.45 -1.1,-0.3625 -1.125,-0.25 -1.1375,-0.1625 -1.15,-0.0625 -1.1625,0.0375 -1.1375,0.1375 -1.125,0.2375 -1.1125,0.3375 -1.0625,0.425 -1.0375,0.525 -0.975,0.6 -0.925,0.7 -0.8625,0.7625 -0.7875,0.8375 -0.7125,0.9 -0.6375,0.9625 -0.55,1.025 -0.375,0.85 -0.525,1.4375 -0.425,1.4625 -0.3375,1.4875 -0.225,1.5 -0.1375,1.525 -0.0375,1.525 0.075,1.525 0.1625,1.5125 0.2625,1.5 0.3625,1.4875 0.4625,1.45 0.3625,0.95 0.475,1.05 0.5625,1.0125 0.65,0.95 0.725,0.8875 0.8125,0.825 0.875,0.75 0.925,0.675 1,0.6 1.0375,0.5 1.075,0.4125 1.1125,0.3125 1.125,0.225 1.15,0.1125 1.15,0.025 1.15,-0.075 1.1375,-0.1875 1.125,-0.275 1.0875,-0.375 1.05,-0.4625 1.0125,-0.5625 0.9625,-0.6375 0.9,-0.725 0.825,-0.7875 0.7625,-0.875 0.6875,-0.925 0.6,-0.9875 0.425,-0.825 -5.1125,-2.375 0,0.0125 -0.4125,0.7625 -0.4875,0.725 -0.5875,0.65 -0.6375,0.6 -0.7125,0.5 -0.7625,0.4375 -0.8125,0.325 -0.8375,0.25 -0.875,0.1375 -0.8625,0.05 -0.875,-0.05 -0.8625,-0.1625 -0.8375,-0.2375 -0.8125,-0.35 -0.7625,-0.4375 -0.7,-0.5125 -0.6375,-0.6 -0.575,-0.6625 -0.4875,-0.725 -0.4125,-0.775 -0.125,-0.3 -0.45,-1.25 -0.35,-1.275 -0.25,-1.3 -0.1625,-1.325 -0.0625,-1.325 0.05,-1.325 0.1375,-1.325 0.2375,-1.3 0.3375,-1.2875 0.4375,-1.2625 0.075,-0.1875 0.375,-0.8 0.4625,-0.7375 0.5375,-0.6875 0.625,-0.625 0.675,-0.55 0.75,-0.4625 0.7875,-0.375 0.825,-0.2875 0.85,-0.1875 0.875,-0.0875 0.875,0 0.875,0.1125 0.85,0.2125 0.8125,0.3 0.7875,0.4 0.725,0.475 0.675,0.5625 0.6,0.6375 0.5375,0.7 0.4375,0.75 0.1375,0.2875 z"
       style="fill:#000000;fill-opacity:1;fill-rule:evenodd;stroke:none"
       id="path12117"
       inkscape:connector-curvature="0" />
    <path
       d="m 9.19134,-622.50555 0,-12.7875 -5.625,0 0,32.7375 5.625,0 0,-14.325 14.825,0 0,14.325 5.625,0 0,-32.7375 -5.625,0 0,12.7875 -14.825,0 z"
       style="fill:#000000;fill-opacity:1;fill-rule:evenodd;stroke:none"
       id="path12119"
       inkscape:connector-curvature="0" />
    <path
       d="m 115.55384,-635.29305 -5.625,0 0,32.7375 24.0375,0 0,-5.625 -18.4125,0 0,-27.1125 z"
       style="fill:#000000;fill-opacity:1;fill-rule:evenodd;stroke:none"
       id="path12121"
       inkscape:connector-curvature="0" />
    <path
       d="m -16.90866,-582.10555 -24.0375,0 0,5.625 9.2,0 0,27.1125 5.625,0 0,-27.1125 9.2125,0 0,-5.625 z"
       style="fill:#000000;fill-opacity:1;fill-rule:evenodd;stroke:none"
       id="path12123"
       inkscape:connector-curvature="0" />
    <path
       d="m -2.47116,-549.36805 0,-32.7375 -5.625,0 0,32.7375 5.625,0 z"
       style="fill:#000000;fill-opacity:1;fill-rule:evenodd;stroke:none"
       id="path12125"
       inkscape:connector-curvature="0" />
    <path
       d="m 25.04134,-562.46805 -9.3,-19.6375 -5.7375,0 0,32.7375 5.625,0 0,-19.8375 9.3375,19.5875 9.575,-19.4125 0,19.6625 5.625,0 0,-32.7375 -5.45,0 -9.675,19.6375 z"
       style="fill:#000000;fill-opacity:1;fill-rule:evenodd;stroke:none"
       id="path12127"
       inkscape:connector-curvature="0" />
    <path
       d="m 76.16634,-582.10555 -23.525,0 0,32.7375 24.025,0 0,-5.625 -18.4,0 0,-9.725 9.7125,0 0,-5.625 -9.7125,0 0,-6.1375 17.9,0 0,-5.625 z"
       style="fill:#000000;fill-opacity:1;fill-rule:evenodd;stroke:none"
       id="path12129"
       inkscape:connector-curvature="0" />
    <path
       d="m 104.10384,-574.01805 4.2125,-3.7375 -0.85,-0.875 -0.9125,-0.8125 -0.9875,-0.725 -1.025,-0.65 -1.0875,-0.55 -1.125,-0.475 -1.1625,-0.375 -1.1875,-0.275 -1.2125,-0.175 -1.2125,-0.0875 -1.225,0.025 -1.2125,0.1125 -1.2,0.225 -1.175,0.3125 -1.15,0.4125 -1.1125,0.5 -1.0625,0.6 -0.2125,0.125 -0.75,0.5375 -0.675,0.6125 -0.6125,0.675 -0.5375,0.7375 -0.45,0.8 -0.3625,0.85 -0.275,0.875 -0.1625,0.9 -0.075,0.9125 0.025,0.9125 0.125,0.9125 0.2375,0.8875 0.3125,0.85 0.4125,0.825 0.5,0.7625 0.5875,0.7125 0.65,0.6375 0.725,0.575 0.775,0.4875 0.825,0.3875 0.775,0.2875 10.6125,3.225 0.5375,0.2125 0.4875,0.3125 0.425,0.375 0.3625,0.4625 0.275,0.5 0.175,0.55 0.0875,0.5625 -0.0125,0.575 -0.1125,0.575 -0.2125,0.525 -0.3,0.5 -0.375,0.425 -0.475,0.3875 -0.9,0.525 -0.9375,0.4375 -0.975,0.35 -1.0125,0.25 -1.025,0.1625 -1.0375,0.05 -1.0375,-0.05 -1.0375,-0.1375 -1,-0.25 -0.9875,-0.3375 -0.95,-0.425 -0.9,-0.525 -0.8375,-0.6 -0.7875,-0.6875 -0.7125,-0.75 -0.3625,-0.45 -4.4625,3.425 0.825,0.9875 0.8875,0.925 0.9625,0.8375 1.0375,0.7625 1.075,0.6875 1.1375,0.6 1.175,0.5125 1.2125,0.4125 1.2375,0.325 1.2625,0.2125 1.275,0.125 1.2875,0.025 1.275,-0.0875 1.275,-0.175 1.25,-0.275 1.225,-0.3625 1.1875,-0.475 1.1625,-0.55 1.1,-0.65 0.2,-0.125 0.7625,-0.5625 0.7,-0.6375 0.625,-0.7125 0.55,-0.775 0.4625,-0.825 0.375,-0.8625 0.2875,-0.9 0.175,-0.9375 0.0875,-0.9375 -0.0125,-0.95 -0.1125,-0.9375 -0.2125,-0.9125 -0.3125,-0.9 -0.4,-0.85 -0.4875,-0.8125 -0.575,-0.75 -0.65,-0.6875 -0.7125,-0.625 -0.7875,-0.5375 -0.825,-0.45 -0.875,-0.3625 -0.375,-0.125 -10.6125,-3.225 -0.4875,-0.2 -0.4375,-0.2875 -0.375,-0.3625 -0.3,-0.4375 -0.2125,-0.475 -0.125,-0.5125 -0.025,-0.525 0.075,-0.525 0.175,-0.4875 0.275,-0.4625 0.3375,-0.4 0.425,-0.325 0.8375,-0.475 0.8875,-0.375 0.9125,-0.2875 0.95,-0.2 0.95,-0.0875 0.9625,0 0.9625,0.1125 0.9375,0.2 0.9125,0.3 0.875,0.4 0.8375,0.475 0.775,0.575 0.7125,0.6375 0.375,0.4 z"
       style="fill:#000000;fill-opacity:1;fill-rule:evenodd;stroke:none"
       id="path12131"
       inkscape:connector-curvature="0" />
    <path
       d="m 46.07884,-612.18055 0.3375,0.775 0.4375,0.725 0.5125,0.675 0.5875,0.6125 0.6625,0.525 0.7125,0.45 0.7625,0.3625 0.8,0.275 0.8375,0.175 0.8375,0.075 0.85,-0.025 0.825,-0.125 0.825,-0.225 0.7875,-0.3125 0.7375,-0.4 0.6875,-0.5 0.625,-0.5625 0.55,-0.65 0.475,-0.6875 0.3875,-0.7625 0.175,-0.4 0.4375,-1.3125 0.3375,-1.3375 0.25,-1.3625 0.15,-1.3875 0.0375,-1.3875 -0.05,-1.375 -0.15,-1.3875 -0.25,-1.3625 -0.35,-1.3375 -0.4125,-1.2375 -0.35,-0.775 -0.425,-0.725 -0.5125,-0.675 -0.6,-0.6 -0.65,-0.5375 -0.7125,-0.45 -0.775,-0.3625 -0.8,-0.275 -0.825,-0.175 -0.8375,-0.075 -0.85,0.025 -0.8375,0.125 -0.8125,0.225 -0.7875,0.3125 -0.7375,0.4125 -0.6875,0.4875 -0.625,0.575 -0.5625,0.6375 -0.475,0.7 -0.3875,0.75 -0.1625,0.4 -0.4375,1.3125 -0.35,1.35 -0.2375,1.3625 -0.15,1.375 -0.05,1.3875 0.05,1.3875 0.1625,1.375 0.25,1.3625 0.35,1.3375 0.4125,1.2375 z m -5.275,-15.4625 0.45,-1.0375 0.5375,-1 0.6125,-0.95 0.7,-0.875 0.775,-0.825 0.85,-0.75 0.9125,-0.675 0.9625,-0.5875 1.0125,-0.5125 1.05,-0.4 1.0875,-0.325 1.1,-0.2125 1.125,-0.125 1.1375,-0.025 1.125,0.0875 1.1125,0.175 1.1,0.275 1.0625,0.375 1.0375,0.4625 0.9875,0.5625 0.925,0.6375 0.875,0.7125 0.8,0.7875 0.7375,0.8625 0.65,0.925 0.575,0.975 0.475,1.025 0.175,0.4375 0.5125,1.4875 0.4,1.525 0.3125,1.55 0.225,1.5625 0.1125,1.575 0.0125,1.575 -0.0875,1.575 -0.1875,1.5625 -0.275,1.55 -0.3875,1.525 -0.475,1.5125 -0.1625,0.4375 -0.4375,1.0375 -0.5375,1 -0.6125,0.95 -0.7125,0.8875 -0.775,0.825 -0.8375,0.75 -0.9125,0.6625 -0.9625,0.6 -1.0125,0.5 -1.05,0.4125 -1.0875,0.3125 -1.1125,0.225 -1.125,0.1125 -1.125,0.025 -1.125,-0.075 -1.125,-0.1875 -1.0875,-0.275 -1.075,-0.375 -1.025,-0.4625 -0.9875,-0.55 -0.9375,-0.6375 -0.8625,-0.725 -0.8125,-0.7875 -0.7375,-0.8625 -0.65,-0.925 -0.5625,-0.975 -0.4875,-1.025 -0.175,-0.4375 -0.5,-1.4875 -0.4125,-1.525 -0.3125,-1.55 -0.2125,-1.5625 -0.1125,-1.5625 -0.0125,-1.575 0.075,-1.575 0.1875,-1.575 0.2875,-1.55 0.375,-1.525 0.475,-1.5 0.1625,-0.45 z"
       style="fill:#000000;fill-opacity:1;fill-rule:evenodd;stroke:none"
       id="path12133"
       inkscape:connector-curvature="0" />
    <path
       d="m 80.09134,-612.18055 0.3375,0.775 0.4375,0.725 0.5125,0.675 0.5875,0.6125 0.6625,0.525 0.7125,0.45 0.7625,0.3625 0.8,0.275 0.825,0.175 0.85,0.075 0.8375,-0.025 0.8375,-0.125 0.8125,-0.225 0.7875,-0.3125 0.75,-0.4 0.6875,-0.5 0.625,-0.5625 0.55,-0.65 0.475,-0.6875 0.3875,-0.7625 0.1625,-0.4 0.4375,-1.3125 0.35,-1.3375 0.25,-1.3625 0.1375,-1.3875 0.05,-1.3875 -0.05,-1.375 -0.15,-1.3875 -0.25,-1.3625 -0.35,-1.3375 -0.425,-1.2375 -0.3375,-0.775 -0.4375,-0.725 -0.5125,-0.675 -0.5875,-0.6 -0.6625,-0.5375 -0.7125,-0.45 -0.7625,-0.3625 -0.8,-0.275 -0.825,-0.175 -0.85,-0.075 -0.8375,0.025 -0.8375,0.125 -0.8125,0.225 -0.7875,0.3125 -0.75,0.4125 -0.6875,0.4875 -0.625,0.575 -0.55,0.6375 -0.475,0.7 -0.3875,0.75 -0.1625,0.4 -0.45,1.3125 -0.3375,1.35 -0.25,1.3625 -0.1375,1.375 -0.05,1.3875 0.05,1.3875 0.15,1.375 0.25,1.3625 0.35,1.3375 0.425,1.2375 z m -5.275,-15.4625 0.45,-1.0375 0.525,-1 0.625,-0.95 0.7,-0.875 0.775,-0.825 0.85,-0.75 0.9,-0.675 0.9625,-0.5875 1.0125,-0.5125 1.05,-0.4 1.0875,-0.325 1.1125,-0.2125 1.125,-0.125 1.125,-0.025 1.1375,0.0875 1.1125,0.175 1.1,0.275 1.0625,0.375 1.025,0.4625 0.9875,0.5625 0.9375,0.6375 0.875,0.7125 0.8,0.7875 0.7375,0.8625 0.65,0.925 0.575,0.975 0.475,1.025 0.175,0.4375 0.5,1.4875 0.4125,1.525 0.3125,1.55 0.2125,1.5625 0.1125,1.575 0.025,1.575 -0.0875,1.575 -0.1875,1.5625 -0.2875,1.55 -0.375,1.525 -0.475,1.5125 -0.1625,0.4375 -0.45,1.0375 -0.525,1 -0.625,0.95 -0.7,0.8875 -0.775,0.825 -0.85,0.75 -0.9,0.6625 -0.9625,0.6 -1.0125,0.5 -1.0625,0.4125 -1.075,0.3125 -1.1125,0.225 -1.125,0.1125 -1.1375,0.025 -1.125,-0.075 -1.1125,-0.1875 -1.1,-0.275 -1.0625,-0.375 -1.0375,-0.4625 -0.975,-0.55 -0.9375,-0.6375 -0.875,-0.725 -0.8,-0.7875 -0.7375,-0.8625 -0.65,-0.925 -0.575,-0.975 -0.475,-1.025 -0.175,-0.4375 -0.5,-1.4875 -0.4125,-1.525 -0.3125,-1.55 -0.2125,-1.5625 -0.1125,-1.5625 -0.025,-1.575 0.0875,-1.575 0.1875,-1.575 0.2875,-1.55 0.375,-1.525 0.475,-1.5 0.1625,-0.45 z"
       style="fill:#000000;fill-opacity:1;fill-rule:evenodd;stroke:none"
       id="path12135"
       inkscape:connector-curvature="0" />
  </g>
</svg>
