<?xml version="1.0" encoding="UTF-8" standalone="no"?>
<svg
   xmlns:dc="http://purl.org/dc/elements/1.1/"
   xmlns:cc="http://creativecommons.org/ns#"
   xmlns:rdf="http://www.w3.org/1999/02/22-rdf-syntax-ns#"
   xmlns:svg="http://www.w3.org/2000/svg"
   xmlns="http://www.w3.org/2000/svg"
   xmlns:sodipodi="http://sodipodi.sourceforge.net/DTD/sodipodi-0.dtd"
   xmlns:inkscape="http://www.inkscape.org/namespaces/inkscape"
   width="387.25021"
   height="258.73889"
   viewBox="0 0 1092.9063 730.21863"
   version="1.1"
   id="svg2"
   inkscape:version="0.48.2 r9819"
   sodipodi:docname="AJAX1.svg">
  <metadata
     id="metadata62">
    <rdf:RDF>
      <cc:Work
         rdf:about="">
        <dc:format>image/svg+xml</dc:format>
        <dc:type
           rdf:resource="http://purl.org/dc/dcmitype/StillImage" />
        <dc:title />
      </cc:Work>
    </rdf:RDF>
  </metadata>
  <defs
     id="defs60" />
  <sodipodi:namedview
     pagecolor="#ffffff"
     bordercolor="#666666"
     borderopacity="1"
     objecttolerance="10"
     gridtolerance="10"
     guidetolerance="10"
     inkscape:pageopacity="0"
     inkscape:pageshadow="2"
     inkscape:window-width="1280"
     inkscape:window-height="1004"
     id="namedview58"
     showgrid="false"
     fit-margin-top="0"
     fit-margin-left="0"
     fit-margin-right="0"
     fit-margin-bottom="0"
     inkscape:zoom="0.88371165"
     inkscape:cx="573.73621"
     inkscape:cy="-65.272254"
     inkscape:window-x="-8"
     inkscape:window-y="-8"
     inkscape:window-maximized="1"
     inkscape:current-layer="svg2" />
  <!-- draw the bicycle -->
  <!-- RIGHT -->
  <!-- LANE -->
  <!-- ONLY -->
  <path
     d="m 110.20321,727.39974 871.90317,0 c 59.47562,0 107.97132,-48.48464 107.97132,-107.97134 l 0,-508.63421 c 0,-59.564274 -48.4957,-107.9713448 -107.97132,-107.9713448 l -871.90317,0 C 51.31479,2.8228452 2.83017,51.229916 2.83017,110.79419 l 0,508.63421 c 0,59.4867 48.48462,107.97134 107.37304,107.97134 z"
     style="fill:#ffffff;fill-opacity:1;fill-rule:evenodd;stroke:#000000;stroke-width:5.64444518;stroke-linecap:butt;stroke-linejoin:miter;stroke-miterlimit:11.47399998;stroke-opacity:1;stroke-dasharray:none"
     id="path7130"
     inkscape:connector-curvature="0" />
  <path
     d="m 112.67398,712.66376 867.55991,0 c 52.75031,0 95.09681,-42.35754 95.09681,-95.09675 l 0,-504.97791 c 0,-52.750284 -42.3465,-95.096764 -95.09681,-95.096764 l -867.55991,0 c -52.7503,0 -95.69507,42.34648 -95.69507,95.096764 l 0,504.97791 c 0,52.73921 42.94477,95.09675 95.69507,95.09675"
     style="fill:#000000;fill-opacity:1;fill-rule:evenodd;stroke:none"
     id="path7134"
     inkscape:connector-curvature="0" />
  <path
     d="m 110.20321,683.85665 871.90317,0 c 35.54352,0 64.42822,-28.8847 64.42822,-64.41717 l 0,-508.64529 c 0,-35.621114 -28.8847,-64.417164 -64.42822,-64.417164 l -871.90317,0 c -35.53249,0 -64.41717,28.79605 -64.41717,64.417164 l 0,508.64529 c 0,35.53247 28.88468,64.41717 64.41717,64.41717"
     style="fill:#ffffff;fill-opacity:1;fill-rule:evenodd;stroke:none"
     id="path7138"
     inkscape:connector-curvature="0" />
  <path
     d="m 174.65362,413.28015 30.6685,0 0,150.90504 102.45368,0 0,30.05912 -133.12218,0 0,-180.96416"
     style="fill:#000000;fill-opacity:1;fill-rule:evenodd;stroke:none"
     id="path7142"
     inkscape:connector-curvature="0" />
  <path
     d="m 410.21837,413.28015 33.73759,0 75.45249,180.96416 -34.96739,0 -17.78288,-43.55417 -77.29176,0 -17.18454,43.55417 -33.7376,0 71.77409,-180.96416 z m -7.35689,107.97134 50.91108,0 -26.38069,-64.4172 -24.53039,64.4172"
     style="fill:#000000;fill-opacity:1;fill-rule:evenodd;stroke:none"
     id="path7146"
     inkscape:connector-curvature="0" />
  <path
     d="m 571.56046,413.28015 28.21991,0 84.65971,119.62714 0,-119.62714 31.27791,0 0,180.96416 -28.21991,0 -84.64866,-122.68513 0,122.68513 -31.28896,0 0,-180.96416"
     style="fill:#000000;fill-opacity:1;fill-rule:evenodd;stroke:none"
     id="path7150"
     inkscape:connector-curvature="0" />
  <path
     d="m 785.04345,413.28015 130.05313,0 0,31.28895 -99.38461,0 0,37.41604 55.20995,0 0,31.289 -55.20995,0 0,49.69226 102.45366,0 0,31.27791 -133.12218,0 0,-180.96416"
     style="fill:#000000;fill-opacity:1;fill-rule:evenodd;stroke:none"
     id="path7154"
     inkscape:connector-curvature="0" />
  <path
     d="m 214.52933,135.95612 30.66851,0 0,150.90502 102.45367,0 0,30.05915 -133.12218,0 0,-180.96417"
     style="fill:#000000;fill-opacity:1;fill-rule:evenodd;stroke:none"
     id="path7158"
     inkscape:connector-curvature="0" />
  <path
     d="m 395.50457,135.95612 130.0531,0 0,31.28897 -99.38459,0 0,37.41602 55.20999,0 0,31.28896 -55.20999,0 0,49.69232 102.45368,0 0,31.2779 -133.12219,0 0,-180.96417"
     style="fill:#000000;fill-opacity:1;fill-rule:evenodd;stroke:none"
     id="path7162"
     inkscape:connector-curvature="0" />
  <path
     d="m 583.8367,135.95612 133.12219,0 0,31.28897 -101.83319,0 0,40.48508 57.04919,0 0,31.89838 -57.04919,0 0,77.29174 -31.289,0 0,-180.96417"
     style="fill:#000000;fill-opacity:1;fill-rule:evenodd;stroke:none"
     id="path7166"
     inkscape:connector-curvature="0" />
  <path
     d="m 745.16772,135.95612 133.1222,0 0,30.05912 -50.3017,0 0,150.90505 -32.51883,0 0,-150.90505 -50.30167,0 0,-30.05912"
     style="fill:#000000;fill-opacity:1;fill-rule:evenodd;stroke:none"
     id="path7170"
     inkscape:connector-curvature="0" />
</svg>
