<?xml version="1.0" encoding="UTF-8" standalone="no"?>
<!-- Generator: Adobe Illustrator 13.0.0, SVG Export Plug-In  -->

<svg
   xmlns:dc="http://purl.org/dc/elements/1.1/"
   xmlns:cc="http://creativecommons.org/ns#"
   xmlns:rdf="http://www.w3.org/1999/02/22-rdf-syntax-ns#"
   xmlns:svg="http://www.w3.org/2000/svg"
   xmlns="http://www.w3.org/2000/svg"
   xmlns:sodipodi="http://sodipodi.sourceforge.net/DTD/sodipodi-0.dtd"
   xmlns:inkscape="http://www.inkscape.org/namespaces/inkscape"
   version="1.1"
   x="0px"
   y="0px"
   width="123.34"
   height="41.095001"
   viewBox="-0.451 -0.943 123.34 41.095002"
   enable-background="new -0.451 -0.943 370 828"
   xml:space="preserve"
   id="svg2"
   inkscape:version="0.48.2 r9819"
   sodipodi:docname="AJAX1.svg"><metadata
   id="metadata48"><rdf:RDF><cc:Work
       rdf:about=""><dc:format>image/svg+xml</dc:format><dc:type
         rdf:resource="http://purl.org/dc/dcmitype/StillImage" /><dc:title></dc:title></cc:Work></rdf:RDF></metadata><sodipodi:namedview
   pagecolor="#ffffff"
   bordercolor="#666666"
   borderopacity="1"
   objecttolerance="10"
   gridtolerance="10"
   guidetolerance="10"
   inkscape:pageopacity="0"
   inkscape:pageshadow="2"
   inkscape:window-width="1280"
   inkscape:window-height="1004"
   id="namedview46"
   showgrid="false"
   fit-margin-top="0"
   fit-margin-left="0"
   fit-margin-right="0"
   fit-margin-bottom="0"
   inkscape:zoom="4.5603865"
   inkscape:cx="48.407816"
   inkscape:cy="-8.331226"
   inkscape:window-x="-8"
   inkscape:window-y="-8"
   inkscape:window-maximized="1"
   inkscape:current-layer="svg2" />
<defs
   id="defs4">
</defs>




















<path
   d="m 7.747751,-0.94300022 106.942499,0 c 4.50875,0 8.19875,3.68875002 8.19875,8.19875002 l 0,24.6987512 c 0,4.508751 -3.69,8.197501 -8.19875,8.197501 l -106.942499,0 C 3.239,40.152002 -0.451,36.463252 -0.451,31.954501 l 0,-24.6987512 c 0,-4.51 3.69,-8.19875002 8.198751,-8.19875002"
   style="fill:#f39100;fill-opacity:1;fill-rule:evenodd;stroke:none"
   id="path3787"
   inkscape:connector-curvature="0" /><path
   d="m 7.800251,0.67574978 106.837499,0 c 3.6475,0 6.6325,2.98375002 6.6325,6.63125002 l 0,24.5950012 c 0,3.6475 -2.985,6.631251 -6.6325,6.631251 l -106.837499,0 C 4.15275,38.533252 1.169,35.549501 1.169,31.902001 l 0,-24.5950012 c 0,-3.6475 2.98375,-6.63125002 6.631251,-6.63125002"
   style="fill:#000000;fill-opacity:1;fill-rule:evenodd;stroke:none"
   id="path3791"
   inkscape:connector-curvature="0" /><path
   d="m 7.800251,3.9657498 106.837499,0 c 1.83875,0 3.3425,1.50375 3.3425,3.3425 l 0,24.5937512 c 0,1.83875 -1.50375,3.3425 -3.3425,3.3425 l -106.837499,0 c -1.837501,0 -3.342501,-1.50375 -3.342501,-3.3425 l 0,-24.5937512 c 0,-1.83875 1.505,-3.3425 3.342501,-3.3425"
   style="fill:#f39100;fill-opacity:1;fill-rule:evenodd;stroke:none"
   id="path3795"
   inkscape:connector-curvature="0" /><path
   d="m 11.61275,24.959501 3.131251,-1.05 c 1.1525,2.3275 2.3275,3.0475 4.71625,3.0475 1.2775,0 2.8625,-1.42125 2.8625,-2.84125 0,-2.1425 -1.1525,-3.1725 -5.19,-3.62625 -0.6175,-0.06125 -1.95625,-0.51375 -2.98625,-1.42125 -0.865,-0.7 -1.668751,-1.93625 -1.668751,-3.7475 0,-3.955 3.068751,-6.4675012 6.426251,-6.4675012 2.88375,0 4.655,1.4412512 5.82875,4.5100012 l -3.06875,0.9275 c -0.55625,-1.69 -1.85375,-2.06 -3.13,-2.1425 -1.6075,0 -2.905,1.545 -2.905,2.90375 0,0.90625 0.72125,1.83375 1.525,2.08 1.27625,0.3925 3.15125,0.18625 4.51,0.845 2.10125,1.01 3.79,2.90375 3.79,5.62375 0,3.85125 -2.53375,6.65625 -6.6325,6.65625 -2.47125,0 -6.076251,-2.04375 -7.208751,-5.2975"
   style="fill:#000000;fill-opacity:1;fill-rule:nonzero;stroke:none"
   id="path3799"
   inkscape:connector-curvature="0" /><path
   d="m 38.552751,14.310751 c -0.72125,-1.52375 -1.565,-2.26625 -3.15125,-2.26625 -3.8925,0 -4.3875,5.17 -4.3875,7.8275 0,2.575 0.9275,7.1675 4.34625,7.1675 1.23625,0 2.8425,-1.2975 3.31625,-2.575 l 3.048751,0.7625 c -0.90625,2.945 -3.090001,5.02875 -6.200001,5.02875 -5.6025,0 -7.56,-5.6675 -7.60125,-10.52875 0,-4.38625 1.42125,-10.8750012 7.10625,-10.8750012 2.88375,0 5.191251,1.2562512 6.550001,4.1612512 l -3.027501,1.2975"
   style="fill:#000000;fill-opacity:1;fill-rule:nonzero;stroke:none"
   id="path3803"
   inkscape:connector-curvature="0" /><path
   d="m 45.535252,9.2644998 3.1725,0 0,8.1562512 7.435,0 0,-8.1562512 3.23375,0 0,20.5975012 -3.23375,0 0,-9.02125 -7.435,0 0,9.02125 -3.1725,0 0,-20.5975012"
   style="fill:#000000;fill-opacity:1;fill-rule:nonzero;stroke:none"
   id="path3807"
   inkscape:connector-curvature="0" /><path
   d="m 70.294003,30.257001 c -4.283751,0 -7.271251,-3.13375 -7.271251,-10.71375 0,-7.43625 2.74,-10.6900012 7.271251,-10.6900012 4.69625,0 7.20875,4.6962512 7.20875,10.6900012 0,5.14875 -1.35875,10.71375 -7.20875,10.71375 z m 0,-3.2575 c 2.595,0 3.85125,-2.1425 3.85125,-7.45625 0,-4.86125 -1.235,-7.35375 -3.85125,-7.35375 -2.6575,0 -4.037501,2.04 -4.037501,7.35375 0,5.0875 1.462501,7.45625 4.037501,7.45625"
   style="fill:#000000;fill-opacity:1;fill-rule:nonzero;stroke:none"
   id="path3811"
   inkscape:connector-curvature="0" /><path
   d="m 87.410253,30.257001 c -4.28375,0 -7.27125,-3.13375 -7.27125,-10.71375 0,-7.43625 2.74,-10.6900012 7.27125,-10.6900012 4.69625,0 7.208751,4.6962512 7.208751,10.6900012 0,5.14875 -1.358751,10.71375 -7.208751,10.71375 z m 0,-3.2575 c 2.595,0 3.85125,-2.1425 3.85125,-7.45625 0,-4.86125 -1.235,-7.35375 -3.85125,-7.35375 -2.6575,0 -4.0375,2.04 -4.0375,7.35375 0,5.0875 1.4625,7.45625 4.0375,7.45625"
   style="fill:#000000;fill-opacity:1;fill-rule:nonzero;stroke:none"
   id="path3815"
   inkscape:connector-curvature="0" /><path
   d="m 98.285254,9.2644998 3.151246,0 0,17.5700012 9.4125,0 0,3.0275 -12.563746,0 0,-20.5975012"
   style="fill:#000000;fill-opacity:1;fill-rule:nonzero;stroke:none"
   id="path3819"
   inkscape:connector-curvature="0" /></svg>