<?xml version="1.0" encoding="UTF-8" standalone="no"?>
<svg
   xmlns:dc="http://purl.org/dc/elements/1.1/"
   xmlns:cc="http://creativecommons.org/ns#"
   xmlns:rdf="http://www.w3.org/1999/02/22-rdf-syntax-ns#"
   xmlns:svg="http://www.w3.org/2000/svg"
   xmlns="http://www.w3.org/2000/svg"
   xmlns:sodipodi="http://sodipodi.sourceforge.net/DTD/sodipodi-0.dtd"
   xmlns:inkscape="http://www.inkscape.org/namespaces/inkscape"
   width="458.72534"
   height="154.39958"
   viewBox="0 0 1294.625 435.74993"
   version="1.1"
   id="svg2"
   inkscape:version="0.48.2 r9819"
   sodipodi:docname="AJAX1.svg">
  <metadata
     id="metadata62">
    <rdf:RDF>
      <cc:Work
         rdf:about="">
        <dc:format>image/svg+xml</dc:format>
        <dc:type
           rdf:resource="http://purl.org/dc/dcmitype/StillImage" />
        <dc:title />
      </cc:Work>
    </rdf:RDF>
  </metadata>
  <defs
     id="defs60" />
  <sodipodi:namedview
     pagecolor="#ffffff"
     bordercolor="#666666"
     borderopacity="1"
     objecttolerance="10"
     gridtolerance="10"
     guidetolerance="10"
     inkscape:pageopacity="0"
     inkscape:pageshadow="2"
     inkscape:window-width="1280"
     inkscape:window-height="1004"
     id="namedview58"
     showgrid="false"
     fit-margin-top="0"
     fit-margin-left="0"
     fit-margin-right="0"
     fit-margin-bottom="0"
     inkscape:zoom="0.88371165"
     inkscape:cx="662.14768"
     inkscape:cy="175.48105"
     inkscape:window-x="-8"
     inkscape:window-y="-8"
     inkscape:window-maximized="1"
     inkscape:current-layer="svg2" />
  <!-- draw the bicycle -->
  <!-- RIGHT -->
  <!-- LANE -->
  <!-- ONLY -->
  <path
     d="m 129.50254,432.93659 1034.23346,0 c 70.6602,0 128.0717,-63.37862 128.0717,-128.08474 l 0,-173.96919 c 0,-70.660195 -57.4115,-128.0716096 -128.0717,-128.0716096 l -1034.23346,0 C 60.353867,2.8110504 2.8372955,60.222465 2.8372955,130.88266 l 0,173.96919 c 0,64.70612 57.5165715,128.08474 126.6652445,128.08474 z"
     style="fill:#ffffff;fill-opacity:1;fill-rule:evenodd;stroke:#000000;stroke-width:5.64444494;stroke-linecap:butt;stroke-linejoin:miter;stroke-miterlimit:7.04349995;stroke-opacity:1;stroke-dasharray:none"
     id="path7056"
     inkscape:connector-curvature="0" />
  <path
     d="m 132.43356,415.45553 1029.17324,0 c 62.5768,0 112.8118,-56.80676 112.8118,-112.81182 l 0,-169.63178 c 0,-62.563712 -50.235,-112.811849 -112.8118,-112.811849 l -1029.17324,0 c -61.8671,0 -112.811849,50.248137 -112.811849,112.811849 l 0,169.63178 c 0,56.00506 50.944749,112.81182 112.811849,112.81182"
     style="fill:#000000;fill-opacity:1;fill-rule:evenodd;stroke:none"
     id="path7060"
     inkscape:connector-curvature="0" />
  <path
     d="m 129.50254,381.28209 1034.23346,0 c 42.2437,0 76.4171,-40.83729 76.4171,-76.4171 l 0,-173.98233 c 0,-42.243647 -34.1734,-76.417109 -76.4171,-76.417109 l -1034.23346,0 c -41.44187,0 -75.720496,34.173462 -75.720496,76.417109 l 0,173.98233 c 0,35.57981 34.278626,76.4171 75.720496,76.4171"
     style="fill:#ffffff;fill-opacity:1;fill-rule:evenodd;stroke:none"
     id="path7064"
     inkscape:connector-curvature="0" />
  <path
     d="m 242.30124,132.35474 32.01791,0 72.05343,171.74793 -32.75394,0 -16.73185,-41.48133 -73.51239,0 -16.73185,41.48133 -32.01791,0 67.6766,-171.74793 z m -6.54552,101.87634 48.02685,0 -24.74949,-60.39502 -23.27736,60.39502"
     style="fill:#000000;fill-opacity:1;fill-rule:evenodd;stroke:none"
     id="path7068"
     inkscape:connector-curvature="0" />
  <path
     d="m 395.85839,132.35474 29.11317,0 0,66.95369 77.86292,0 0,-66.95369 29.83603,0 0,171.74793 -29.83603,0 0,-76.41714 -77.86292,0 0,76.41714 -29.11317,0 0,-171.74793"
     style="fill:#000000;fill-opacity:1;fill-rule:evenodd;stroke:none"
     id="path7072"
     inkscape:connector-curvature="0" />
  <path
     d="m 598.16528,132.35474 122.98501,0 0,29.83604 -93.87186,0 0,35.65872 52.39053,0 0,29.83603 -52.39053,0 0,46.58107 96.78976,0 0,29.83607 -125.90291,0 0,-171.74793"
     style="fill:#000000;fill-opacity:1;fill-rule:evenodd;stroke:none"
     id="path7076"
     inkscape:connector-curvature="0" />
  <path
     d="m 828.12638,132.35474 32.01788,0 72.05341,171.74793 -32.75392,0 -16.73185,-41.48133 -73.51237,0 -16.73183,41.48133 -32.01792,0 67.6766,-171.74793 z m -6.54556,101.87634 48.02688,0 -24.74947,-60.39502 -23.27741,60.39502"
     style="fill:#000000;fill-opacity:1;fill-rule:evenodd;stroke:none"
     id="path7080"
     inkscape:connector-curvature="0" />
  <path
     d="m 981.6835,132.35474 56.0313,0 c 49.4858,0 80.7808,42.2042 80.7808,86.60344 0,42.9271 -30.5589,85.14449 -76.4039,85.14449 l -60.4082,0 0,-171.74793 z m 29.8361,141.91186 32.0178,0 c 29.1132,0 45.8451,-29.11317 45.8451,-55.30842 0,-24.7495 -18.1908,-56.7674 -45.8451,-56.7674 l -32.0178,0 0,112.07582"
     style="fill:#000000;fill-opacity:1;fill-rule:evenodd;stroke:none"
     id="path7084"
     inkscape:connector-curvature="0" />
</svg>
