<?xml version="1.0" encoding="UTF-8" standalone="no"?>
<svg
   xmlns:dc="http://purl.org/dc/elements/1.1/"
   xmlns:cc="http://creativecommons.org/ns#"
   xmlns:rdf="http://www.w3.org/1999/02/22-rdf-syntax-ns#"
   xmlns:svg="http://www.w3.org/2000/svg"
   xmlns="http://www.w3.org/2000/svg"
   xmlns:sodipodi="http://sodipodi.sourceforge.net/DTD/sodipodi-0.dtd"
   xmlns:inkscape="http://www.inkscape.org/namespaces/inkscape"
   id="Nederlands_verkeersbord_F7"
   width="305.9375"
   height="204.375"
   viewBox="0 0 305.9375 204.375"
   version="1.1"
   inkscape:version="0.48.2 r9819"
   sodipodi:docname="AJAX1.svg">
  <metadata
     id="metadata9">
    <rdf:RDF>
      <cc:Work
         rdf:about="">
        <dc:format>image/svg+xml</dc:format>
        <dc:type
           rdf:resource="http://purl.org/dc/dcmitype/StillImage" />
        <dc:title />
      </cc:Work>
    </rdf:RDF>
  </metadata>
  <defs
     id="defs7">
    <clipPath
       clipPathUnits="userSpaceOnUse"
       id="clipPath3441">
      <path
         inkscape:connector-curvature="0"
         d="m 233.858,445.744 99.213,0 0,-99.213 -99.213,0 0,99.213 z"
         clip-rule="evenodd"
         id="path3443" />
    </clipPath>
    <clipPath
       clipPathUnits="userSpaceOnUse"
       id="clipPath3447">
      <path
         inkscape:connector-curvature="0"
         d="m 0,842 595.276,0 0,-841.89 L 0,0.11 0,842 z"
         id="path3449" />
    </clipPath>
    <clipPath
       clipPathUnits="userSpaceOnUse"
       id="clipPath3453">
      <path
         inkscape:connector-curvature="0"
         d="m 0,841.98 595.2,0 L 595.2,0 0,0 0,841.98 z"
         id="path3455" />
    </clipPath>
  </defs>
  <sodipodi:namedview
     pagecolor="#ffffff"
     bordercolor="#666666"
     borderopacity="1"
     objecttolerance="10"
     gridtolerance="10"
     guidetolerance="10"
     inkscape:pageopacity="0"
     inkscape:pageshadow="2"
     inkscape:window-width="1280"
     inkscape:window-height="1004"
     id="namedview5"
     showgrid="false"
     fit-margin-top="0"
     fit-margin-left="0"
     fit-margin-right="0"
     fit-margin-bottom="0"
     inkscape:zoom="1.5733333"
     inkscape:cx="161.07411"
     inkscape:cy="162.27962"
     inkscape:window-x="-8"
     inkscape:window-y="-8"
     inkscape:window-maximized="1"
     inkscape:current-layer="Nederlands_verkeersbord_F7" />
  <path
     inkscape:connector-curvature="0"
     d="m 30.98775,203.6334 243.95281,0 c 16.67621,0 30.25415,-13.57794 30.25415,-30.23226 l 0,-142.423042 c 0,-16.679331 -13.57794,-30.23226457 -30.25415,-30.23226457 l -243.95281,0 c -16.65432,0 -30.23225457,13.55293357 -30.23225457,30.23226457 l 0,142.423042 c 0,16.65432 13.57793457,30.23226 30.23225457,30.23226 z"
     style="fill:#ffffff;fill-opacity:1;fill-rule:evenodd;stroke:#000000;stroke-width:1.5;stroke-linecap:butt;stroke-linejoin:miter;stroke-miterlimit:11.47399998;stroke-opacity:1;stroke-dasharray:none"
     id="path5437" />
  <path
     inkscape:connector-curvature="0"
     d="m 31.512985,199.50343 242.924225,0 c 14.77223,0 26.63066,-11.85842 26.63066,-26.62753 l 0,-141.400705 c 0,-14.769102 -11.85843,-26.627528 -26.63066,-26.627528 l -242.924225,0 c -14.769102,0 -26.6275284,11.858426 -26.6275284,26.627528 l 0,141.400705 c 0,14.76911 11.8584264,26.62753 26.6275284,26.62753"
     style="fill:#000000;fill-opacity:1;fill-rule:evenodd;stroke:none"
     id="path5441" />
  <path
     inkscape:connector-curvature="0"
     d="m 30.98775,191.44045 243.95281,0 c 9.97321,0 18.03619,-8.08799 18.03619,-18.03931 l 0,-142.423042 c 0,-9.973208 -8.06298,-18.039314 -18.03619,-18.039314 l -243.95281,0 c -9.951324,0 -18.039314,8.066106 -18.039314,18.039314 l 0,142.423042 c 0,9.95132 8.08799,18.03931 18.039314,18.03931"
     style="fill:#ffffff;fill-opacity:1;fill-rule:evenodd;stroke:none"
     id="path5445" />
  <path
     inkscape:connector-curvature="0"
     d="m 48.536219,38.709679 24.392154,0 c 7.728455,0 14.772229,7.215726 14.772229,15.116132 0,5.152303 -2.576152,12.711933 -8.244311,14.084421 l 9.447974,21.472099 -9.447974,0 -9.104069,-19.75258 -13.227788,0 0,19.75258 -8.588215,0 0,-50.672652 z m 8.588215,8.760166 0,13.39974 15.803939,0 c 3.435911,0 6.527918,-3.092007 6.527918,-6.69987 0,-2.4042 -3.951766,-6.69987 -6.527918,-6.69987 l -15.803939,0"
     style="fill:#000000;fill-opacity:1;fill-rule:evenodd;stroke:none"
     id="path5449" />
  <path
     inkscape:connector-curvature="0"
     d="m 120.50902,89.382331 c -13.91247,0 -20.956245,-11.336318 -20.956245,-25.251913 0,-14.084421 6.527915,-25.420739 20.956245,-25.420739 14.42832,0 20.95624,11.336318 20.95624,25.420739 0,13.915595 -7.21572,25.251913 -20.95624,25.251913 z m 0,-8.588214 c 8.07236,0 12.36803,-7.55963 12.36803,-16.663699 0,-9.276022 -3.77982,-16.832525 -12.36803,-16.832525 -8.41626,0 -12.36803,7.556503 -12.36803,16.832525 0,9.104069 4.12372,16.663699 12.36803,16.663699"
     style="fill:#000000;fill-opacity:1;fill-rule:evenodd;stroke:none"
     id="path5453" />
  <path
     inkscape:connector-curvature="0"
     d="m 171.86948,38.709679 9.44797,0 21.1282,50.672652 -9.79188,0 -4.98035,-12.196077 -21.64405,0 -4.8084,12.196077 -9.44798,0 20.09649,-50.672652 z m -2.0603,30.232264 14.25637,0 -7.38767,-18.036187 -6.8687,18.036187"
     style="fill:#000000;fill-opacity:1;fill-rule:evenodd;stroke:none"
     id="path5457" />
  <path
     inkscape:connector-curvature="0"
     d="m 217.04592,38.709679 16.49175,0 c 14.77223,0 23.87631,12.368029 23.87631,25.592691 0,12.711932 -9.10408,25.079961 -22.50382,25.079961 l -17.86424,0 0,-50.672652 z m 8.76017,41.912486 9.44797,0 c 8.58822,0 13.56857,-8.588214 13.56857,-16.488621 0,-7.043774 -5.32426,-16.663699 -13.56857,-16.663699 l -9.44797,0 0,33.15232"
     style="fill:#000000;fill-opacity:1;fill-rule:evenodd;stroke:none"
     id="path5461" />
  <path
     inkscape:connector-curvature="0"
     d="m 44.584453,115.15948 8.588214,0 5.840111,30.57617 7.559629,-30.57617 8.760166,0 7.728455,30.92007 5.84011,-30.92007 8.760166,0 -9.104069,50.67265 -9.447974,0 -7.900406,-31.7767 -7.900407,31.7767 -9.619925,0 -9.10407,-50.67265"
     style="fill:#000000;fill-opacity:1;fill-rule:evenodd;stroke:none"
     id="path5465" />
  <path
     inkscape:connector-curvature="0"
     d="m 129.09723,165.83213 c -13.91247,0 -20.95624,-11.33632 -20.95624,-25.25191 0,-14.08442 6.52792,-25.42074 20.95624,-25.42074 14.42833,0 20.95624,11.33632 20.95624,25.42074 0,13.91559 -7.21572,25.25191 -20.95624,25.25191 z m 0,-8.58821 c 8.07236,0 12.36803,-7.55963 12.36803,-16.6637 0,-9.2729 -3.77981,-16.83253 -12.36803,-16.83253 -8.41626,0 -12.36803,7.55963 -12.36803,16.83253 0,9.10407 4.12372,16.6637 12.36803,16.6637"
     style="fill:#000000;fill-opacity:1;fill-rule:evenodd;stroke:none"
     id="path5469" />
  <path
     inkscape:connector-curvature="0"
     d="m 164.8257,115.15948 24.39216,0 c 7.72845,0 14.77223,7.21572 14.77223,15.11613 0,5.1523 -2.57616,12.71193 -8.24431,14.08442 l 9.44797,21.4721 -9.44797,0 -9.10407,-19.75258 -13.22779,0 0,19.75258 -8.58822,0 0,-50.67265 z m 8.58822,8.76016 0,13.39974 15.80394,0 c 3.43591,0 6.52792,-3.092 6.52792,-6.69987 0,-2.4042 -3.95177,-6.69987 -6.52792,-6.69987 l -15.80394,0"
     style="fill:#000000;fill-opacity:1;fill-rule:evenodd;stroke:none"
     id="path5473" />
  <path
     inkscape:connector-curvature="0"
     d="m 219.96285,115.15948 8.24431,0 0,22.67263 18.03619,-22.67263 11.1675,0 -12.71194,16.66057 16.48863,34.01208 -9.44797,0 -13.22468,-26.45245 -10.30773,12.19608 0,14.25637 -8.24431,0 0,-50.67265"
     style="fill:#000000;fill-opacity:1;fill-rule:evenodd;stroke:none"
     id="path5477" />
</svg>
