<?xml version="1.0" encoding="UTF-8" standalone="no"?>
<!-- Created with Inkscape (http://www.inkscape.org/) -->

<svg
   xmlns:dc="http://purl.org/dc/elements/1.1/"
   xmlns:cc="http://creativecommons.org/ns#"
   xmlns:rdf="http://www.w3.org/1999/02/22-rdf-syntax-ns#"
   xmlns:svg="http://www.w3.org/2000/svg"
   xmlns="http://www.w3.org/2000/svg"
   xmlns:sodipodi="http://sodipodi.sourceforge.net/DTD/sodipodi-0.dtd"
   xmlns:inkscape="http://www.inkscape.org/namespaces/inkscape"
   id="svg17624"
   version="1.1"
   inkscape:version="0.48.2 r9819"
   width="284.64844"
   height="142.92969"
   xml:space="preserve"
   sodipodi:docname="AA.svg"><metadata
     id="metadata17630"><rdf:RDF><cc:Work
         rdf:about=""><dc:format>image/svg+xml</dc:format><dc:type
           rdf:resource="http://purl.org/dc/dcmitype/StillImage" /><dc:title /></cc:Work></rdf:RDF></metadata><defs
     id="defs17628"><inkscape:perspective
       sodipodi:type="inkscape:persp3d"
       inkscape:vp_x="0 : 0.5 : 1"
       inkscape:vp_y="0 : 1000 : 0"
       inkscape:vp_z="1 : 0.5 : 1"
       inkscape:persp3d-origin="0.5 : 0.33333333 : 1"
       id="perspective17632" /><clipPath
       clipPathUnits="userSpaceOnUse"
       id="clipPath17642"><path
         d="m -2,710 501,0 0,-711 -501,0 0,711 z"
         id="path17644"
         inkscape:connector-curvature="0" /></clipPath><clipPath
       clipPathUnits="userSpaceOnUse"
       id="clipPath17648"><path
         d="m 0,708.06 498,0 0,-708 -498,0 0,708 z"
         id="path17650"
         inkscape:connector-curvature="0" /></clipPath><clipPath
       clipPathUnits="userSpaceOnUse"
       id="clipPath17798"><path
         d="m -2,710 501,0 0,-711 -501,0 0,711 z"
         id="path17800"
         inkscape:connector-curvature="0" /></clipPath><clipPath
       clipPathUnits="userSpaceOnUse"
       id="clipPath17804"><path
         d="m 0,708.06 498,0 0,-708 -498,0 0,708 z"
         id="path17806"
         inkscape:connector-curvature="0" /></clipPath><clipPath
       id="Clip0"><path
         inkscape:connector-curvature="0"
         d="m 0,0 212.597,0 0,269.292 L 0,269.292 0,0 z"
         transform="translate(0.923828,0.879883)"
         id="path7" /></clipPath><clipPath
       id="Clip0-8"><path
         inkscape:connector-curvature="0"
         d="m 0,0 170.079,0 0,113.386 L 0,113.386 0,0 z"
         transform="translate(0.0986328,0.822266)"
         id="path7-8" /></clipPath><clipPath
       id="Clip0-1"><path
         inkscape:connector-curvature="0"
         d="m 0,0 287.009,0 0,159.449 L 0,159.449 0,0 z"
         transform="translate(0.396484,0.267578)"
         id="path7-7" /></clipPath><clipPath
       id="Clip0-9"><path
         inkscape:connector-curvature="0"
         d="m 0,0 170.079,0 0,170.079 L 0,170.079 0,0 z"
         transform="translate(0.460938,0.775391)"
         id="path7-4" /></clipPath><clipPath
       id="Clip0-4"><path
         inkscape:connector-curvature="0"
         d="m 0,0 340.157,0 0,226.771 L 0,226.771 0,0 z"
         transform="translate(0.921875,0.25293)"
         id="path7-5" /></clipPath><clipPath
       id="Clip0-5"><path
         inkscape:connector-curvature="0"
         d="m 0,0 255.119,0 0,170.079 L 0,170.079 0,0 z"
         transform="translate(0.147461,0.0595703)"
         id="path7-1" /></clipPath></defs><sodipodi:namedview
     pagecolor="#ffffff"
     bordercolor="#666666"
     borderopacity="1"
     objecttolerance="10"
     gridtolerance="10"
     guidetolerance="10"
     inkscape:pageopacity="0"
     inkscape:pageshadow="2"
     inkscape:window-width="1280"
     inkscape:window-height="1004"
     id="namedview17626"
     showgrid="false"
     inkscape:zoom="2.0000001"
     inkscape:cx="180.0432"
     inkscape:cy="-9.4855447"
     inkscape:window-x="-8"
     inkscape:window-y="-8"
     inkscape:window-maximized="1"
     inkscape:current-layer="g17634"
     fit-margin-top="0"
     fit-margin-left="0"
     fit-margin-right="0"
     fit-margin-bottom="0"
     showguides="true"
     inkscape:guide-bbox="true" /><g
     id="g17634"
     inkscape:groupmode="layer"
     inkscape:label="GG1999P002"
     transform="matrix(1.25,0,0,-1.25,472.14844,-460.3125)"><path
       inkscape:connector-curvature="0"
       style="fill:#ffffff;fill-rule:nonzero;stroke:#000000;stroke-width:0.95999998;stroke-miterlimit:4;stroke-opacity:1;stroke-dasharray:none"
       d="m -377.23828,-380.06056 c 0,6.26173 5.07617,11.3379 11.3388,11.3379 l 204.0952,0 c 6.262,0 11.338,-5.07617 11.338,-11.3379 l 0,-90.7091 c 0,-6.262 -5.076,-11.339 -11.338,-11.339 l -204.0952,0 c -6.26263,0 -11.3388,5.077 -11.3388,11.339 l 0,90.7091 z"
       id="path11" /><path
       inkscape:connector-curvature="0"
       style="fill:#c0111e;fill-opacity:1;fill-rule:nonzero;stroke:none"
       d="m -374.40332,-380.06055 c 0,4.69629 3.80762,8.50391 8.50387,8.50391 l 204.09513,0 c 4.696,0 8.504,-3.80762 8.504,-8.50391 l 0,-90.70919 c 0,-4.6959 -3.808,-8.5039 -8.504,-8.5039 l -204.09513,0 c -4.69625,0 -8.50387,3.808 -8.50387,8.5039 l 0,90.70919 z"
       id="path13-1" /><path
       inkscape:connector-curvature="0"
       style="fill:#ffffff;fill-rule:nonzero;stroke:none"
       d="m -369.86816,-380.06055 c 0,2.19141 1.77734,3.96778 3.96871,3.96778 l 204.09429,0 c 2.191,0 3.968,-1.77637 3.968,-3.96778 l 0,-90.70922 c 0,-2.191 -1.777,-3.969 -3.968,-3.969 l -204.09429,0 c -2.19137,0 -3.96871,1.778 -3.96871,3.969 l 0,90.70922 z"
       id="path15" /><path
       inkscape:connector-curvature="0"
       style="fill:#000000;fill-rule:nonzero;stroke:none"
       d="m -310.79295,-440.97165 0,31.748 -6.2129,0 -8.9805,-11.8379 -9.1162,11.8379 -6.3037,0 0,-31.748 5.3516,0 0,24.4463 10.0683,-13.0616 9.751,12.6993 0,-24.084 5.4424,0 z"
       id="path17" /><path
       inkscape:connector-curvature="0"
       style="fill:#000000;fill-rule:evenodd;stroke:none"
       d="m -282.08305,-429.72365 c 0,7.0762 -4.4912,11.9736 -11.1123,11.9736 -6.3037,0 -10.5224,-4.8076 -10.5224,-11.9736 0,-7.0293 4.4443,-11.8828 10.8847,-11.8828 6.3506,0 10.75,4.8984 10.75,11.8828 z m -5.1709,0.0908 c 0,-4.3535 -2.3584,-7.2568 -5.7607,-7.2568 -3.4912,0 -5.8047,2.9033 -5.8047,7.2568 0,4.2627 2.3584,7.2569 5.8506,7.2569 3.4473,0 5.7148,-2.9033 5.7148,-7.2569 z"
       id="path19" /><path
       inkscape:connector-curvature="0"
       style="fill:#000000;fill-rule:evenodd;stroke:none"
       d="m -257.36576,-440.97165 0,13.8789 c 0,3.4013 -0.31799,4.9883 -1.45199,6.4853 -1.36,1.7696 -3.629,2.8125 -6.349,2.8125 -2.222,0 -3.628,-0.499 -5.76,-2.2226 l 0,1.7236 -4.808,0 0,-22.6777 4.808,0 0,12.8359 c 0,1.9502 0.317,3.1289 1.134,4.0361 0.816,0.9073 2.313,1.4971 3.583,1.4971 1.315,0 2.631,-0.5898 3.22,-1.4971 0.543,-0.8164 0.725,-1.8144 0.725,-3.9912 l 0,-12.8808 4.89899,0 z"
       id="path21" /><path
       inkscape:connector-curvature="0"
       style="fill:#000000;fill-rule:nonzero;stroke:none"
       d="m -242.21775,-429.13375 0,4.2627 -9.434,0 0,-4.2627 9.434,0 z"
       id="path23" /><path
       inkscape:connector-curvature="0"
       style="fill:#000000;fill-rule:nonzero;stroke:none"
       d="m -212.60276,-414.25785 0,5.0342 -20.092,0 0,-31.748 5.398,0 0,13.5615 13.51501,0 0,4.9883 -13.51501,0 0,8.164 14.694,0 z"
       id="path25" /><path
       inkscape:connector-curvature="0"
       style="fill:#000000;fill-rule:nonzero;stroke:none"
       d="m -196.36576,-422.96585 0,4.9434 c -0.499,0.0459 -0.863,0.0459 -1.089,0.0459 -2.676,0 -4.445,-0.8164 -6.167,-2.9483 l 0,2.6309 -4.763,0 0,-22.6777 4.808,0 0,10.5224 c 0,3.4473 0.679,5.2617 2.267,6.3946 1.179,0.7265 2.359,1.0439 4.944,1.0888 z"
       id="path27" /><path
       inkscape:connector-curvature="0"
       style="fill:#000000;fill-rule:evenodd;stroke:none"
       d="m -186.29776,-412.44335 c 0,1.5869 -1.406,3.0381 -2.994,3.0381 -1.769,0 -3.174,-1.4063 -3.174,-3.0381 0,-1.7236 1.405,-3.084 3.129,-3.084 1.633,0 3.039,1.3604 3.039,3.084 z m -0.636,-28.5283 0,22.6377 -4.897,0 0,-22.6377 4.897,0 z"
       id="path29" /></g></svg>