<?xml version="1.0" encoding="UTF-8" standalone="no"?>
<!-- Created with Inkscape (http://www.inkscape.org/) -->

<svg
   xmlns:dc="http://purl.org/dc/elements/1.1/"
   xmlns:cc="http://creativecommons.org/ns#"
   xmlns:rdf="http://www.w3.org/1999/02/22-rdf-syntax-ns#"
   xmlns:svg="http://www.w3.org/2000/svg"
   xmlns="http://www.w3.org/2000/svg"
   xmlns:sodipodi="http://sodipodi.sourceforge.net/DTD/sodipodi-0.dtd"
   xmlns:inkscape="http://www.inkscape.org/namespaces/inkscape"
   id="svg17624"
   version="1.1"
   inkscape:version="0.48.2 r9819"
   width="213.78906"
   height="89.804688"
   xml:space="preserve"
   sodipodi:docname="AA.svg"><metadata
     id="metadata17630"><rdf:RDF><cc:Work
         rdf:about=""><dc:format>image/svg+xml</dc:format><dc:type
           rdf:resource="http://purl.org/dc/dcmitype/StillImage" /><dc:title /></cc:Work></rdf:RDF></metadata><defs
     id="defs17628"><inkscape:perspective
       sodipodi:type="inkscape:persp3d"
       inkscape:vp_x="0 : 0.5 : 1"
       inkscape:vp_y="0 : 1000 : 0"
       inkscape:vp_z="1 : 0.5 : 1"
       inkscape:persp3d-origin="0.5 : 0.33333333 : 1"
       id="perspective17632" /><clipPath
       clipPathUnits="userSpaceOnUse"
       id="clipPath17642"><path
         d="m -2,710 501,0 0,-711 -501,0 0,711 z"
         id="path17644"
         inkscape:connector-curvature="0" /></clipPath><clipPath
       clipPathUnits="userSpaceOnUse"
       id="clipPath17648"><path
         d="m 0,708.06 498,0 0,-708 -498,0 0,708 z"
         id="path17650"
         inkscape:connector-curvature="0" /></clipPath><clipPath
       clipPathUnits="userSpaceOnUse"
       id="clipPath17798"><path
         d="m -2,710 501,0 0,-711 -501,0 0,711 z"
         id="path17800"
         inkscape:connector-curvature="0" /></clipPath><clipPath
       clipPathUnits="userSpaceOnUse"
       id="clipPath17804"><path
         d="m 0,708.06 498,0 0,-708 -498,0 0,708 z"
         id="path17806"
         inkscape:connector-curvature="0" /></clipPath><clipPath
       id="Clip0"><path
         inkscape:connector-curvature="0"
         d="m 0,0 212.597,0 0,269.292 L 0,269.292 0,0 z"
         transform="translate(0.923828,0.879883)"
         id="path7" /></clipPath><clipPath
       id="Clip0-8"><path
         inkscape:connector-curvature="0"
         d="m 0,0 170.079,0 0,113.386 L 0,113.386 0,0 z"
         transform="translate(0.0986328,0.822266)"
         id="path7-8" /></clipPath><clipPath
       id="Clip0-1"><path
         inkscape:connector-curvature="0"
         d="m 0,0 287.009,0 0,159.449 L 0,159.449 0,0 z"
         transform="translate(0.396484,0.267578)"
         id="path7-7" /></clipPath><clipPath
       id="Clip0-9"><path
         inkscape:connector-curvature="0"
         d="m 0,0 170.079,0 0,170.079 L 0,170.079 0,0 z"
         transform="translate(0.460938,0.775391)"
         id="path7-4" /></clipPath><clipPath
       id="Clip0-4"><path
         inkscape:connector-curvature="0"
         d="m 0,0 340.157,0 0,226.771 L 0,226.771 0,0 z"
         transform="translate(0.921875,0.25293)"
         id="path7-5" /></clipPath><clipPath
       id="Clip0-5"><path
         inkscape:connector-curvature="0"
         d="m 0,0 255.119,0 0,170.079 L 0,170.079 0,0 z"
         transform="translate(0.147461,0.0595703)"
         id="path7-1" /></clipPath></defs><sodipodi:namedview
     pagecolor="#ffffff"
     bordercolor="#666666"
     borderopacity="1"
     objecttolerance="10"
     gridtolerance="10"
     guidetolerance="10"
     inkscape:pageopacity="0"
     inkscape:pageshadow="2"
     inkscape:window-width="1280"
     inkscape:window-height="1004"
     id="namedview17626"
     showgrid="false"
     inkscape:zoom="1.4142136"
     inkscape:cx="-86.409076"
     inkscape:cy="81.940646"
     inkscape:window-x="-8"
     inkscape:window-y="-8"
     inkscape:window-maximized="1"
     inkscape:current-layer="g17634"
     fit-margin-top="0"
     fit-margin-left="0"
     fit-margin-right="0"
     fit-margin-bottom="0"
     showguides="true"
     inkscape:guide-bbox="true" /><g
     id="g17634"
     inkscape:groupmode="layer"
     inkscape:label="GG1999P002"
     transform="matrix(1.25,0,0,-1.25,513.59375,-706.32812)"><path
       inkscape:connector-curvature="0"
       style="fill:#ffffff;fill-rule:nonzero;stroke:#000000;stroke-width:0.95999998;stroke-miterlimit:4;stroke-opacity:1;stroke-dasharray:none"
       d="m -410.39258,-576.88282 c 0,6.26173 5.07715,11.3379 11.3388,11.3379 l 147.4012,0 c 6.263,0 11.339,-5.07617 11.339,-11.3379 l 0,-48.1895 c 0,-6.2617 -5.076,-11.3388 -11.339,-11.3388 l -147.4012,0 c -6.26165,0 -11.3388,5.0771 -11.3388,11.3388 l 0,48.1895 z"
       id="path11" /><path
       inkscape:connector-curvature="0"
       style="fill:#c0111e;fill-opacity:1;fill-rule:nonzero;stroke:none"
       d="m -408.4082,-576.8828 c 0,5.166 4.18847,9.35448 9.35445,9.35448 l 147.40055,0 c 5.167,0 9.355,-4.18848 9.355,-9.35448 l 0,-48.18952 c 0,-5.166 -4.188,-9.3545 -9.355,-9.3545 l -147.40055,0 c -5.16598,0 -9.35445,4.1885 -9.35445,9.3545 l 0,48.18952 z"
       id="path13-1" /><path
       inkscape:connector-curvature="0"
       style="fill:#ffffff;fill-rule:nonzero;stroke:none"
       d="m -405.29004,-576.8828 c 0,3.44432 2.79199,6.23632 6.23629,6.23632 l 147.40071,0 c 3.445,0 6.237,-2.792 6.237,-6.23632 l 0,-48.18948 c 0,-3.4443 -2.792,-6.2363 -6.237,-6.2363 l -147.40071,0 c -3.4443,0 -6.23629,2.792 -6.23629,6.2363 l 0,48.18948 z"
       id="path15" /><path
       inkscape:connector-curvature="0"
       style="fill:#000000;fill-rule:evenodd;stroke:none"
       d="m -377.22655,-586.7656 -9.6094,-28.3184 4.7334,0 2.6084,7.9932 9.0703,0 2.7783,-7.9932 4.5918,0 -9.6943,28.3184 -4.4785,0 z m 5.1308,-15.7891 -5.7832,0 2.835,8.4473 2.9482,-8.4473 z"
       id="path17" /><path
       inkscape:connector-curvature="0"
       style="fill:#000000;fill-rule:nonzero;stroke:none"
       d="m -358.00785,-586.7656 0,-28.3467 4.337,0 0,12.415 10.1757,0 0,-12.415 4.4512,0 0,28.3467 -4.4512,0 0,-11.2256 -10.1757,0 0,11.2256 -4.337,0 z"
       id="path19" /><path
       inkscape:connector-curvature="0"
       style="fill:#000000;fill-rule:nonzero;stroke:none"
       d="m -332.49605,-586.7656 0,-28.3467 17.291,0 0,4.4219 -12.8975,0 0,7.9931 8.2774,0 0,4.4229 -8.2774,0 0,6.9726 11.8486,0 0,4.5362 -16.2421,0 z"
       id="path21" /><path
       inkscape:connector-curvature="0"
       style="fill:#000000;fill-rule:evenodd;stroke:none"
       d="m -302.16575,-586.7656 -9.6096,-28.3184 4.7346,0 2.607,7.9932 9.07,0 2.779,-7.9932 4.593,0 -9.696,28.3184 -4.478,0 z m 5.131,-15.7891 -5.784,0 2.835,8.4473 2.949,-8.4473 z"
       id="path23" /><path
       inkscape:connector-curvature="0"
       style="fill:#000000;fill-rule:evenodd;stroke:none"
       d="m -282.94775,-586.7656 0,-28.3467 7.91,0 c 3.382,0 6.132,1.5019 8.248,4.5068 1.871,2.6455 2.806,5.6885 2.806,9.127 0,4.3847 -0.973,7.9092 -2.92,10.5732 -2.002,2.7598 -4.714,4.1387 -8.134,4.1397 l -7.91,0 z m 4.479,-23.7549 0,19.332 3.26,0 c 2.475,0 4.308,-1.2187 5.5,-3.6562 0.907,-1.833 1.36,-4.044 1.36,-6.6338 0,-2.0029 -0.482,-3.8731 -1.446,-5.6123 -1.284,-2.2862 -3.089,-3.4297 -5.414,-3.4297 l -3.26,0 z"
       id="path25" /></g></svg>