<?xml version="1.0" encoding="UTF-8" standalone="no"?>
<!-- Created with Inkscape (http://www.inkscape.org/) -->

<svg
   xmlns:dc="http://purl.org/dc/elements/1.1/"
   xmlns:cc="http://creativecommons.org/ns#"
   xmlns:rdf="http://www.w3.org/1999/02/22-rdf-syntax-ns#"
   xmlns:svg="http://www.w3.org/2000/svg"
   xmlns="http://www.w3.org/2000/svg"
   xmlns:sodipodi="http://sodipodi.sourceforge.net/DTD/sodipodi-0.dtd"
   xmlns:inkscape="http://www.inkscape.org/namespaces/inkscape"
   id="svg17624"
   version="1.1"
   inkscape:version="0.48.4 r9939"
   width="213.79875"
   height="89.782753"
   xml:space="preserve"
   sodipodi:docname="AJAX1.svg"><metadata
     id="metadata17630"><rdf:RDF><cc:Work
         rdf:about=""><dc:format>image/svg+xml</dc:format><dc:type
           rdf:resource="http://purl.org/dc/dcmitype/StillImage" /><dc:title /></cc:Work></rdf:RDF></metadata><defs
     id="defs17628"><inkscape:perspective
       sodipodi:type="inkscape:persp3d"
       inkscape:vp_x="0 : 0.5 : 1"
       inkscape:vp_y="0 : 1000 : 0"
       inkscape:vp_z="1 : 0.5 : 1"
       inkscape:persp3d-origin="0.5 : 0.33333333 : 1"
       id="perspective17632" /><clipPath
       clipPathUnits="userSpaceOnUse"
       id="clipPath17642"><path
         d="m -2,710 501,0 0,-711 -501,0 0,711 z"
         id="path17644"
         inkscape:connector-curvature="0" /></clipPath><clipPath
       clipPathUnits="userSpaceOnUse"
       id="clipPath17648"><path
         d="m 0,708.06 498,0 0,-708 -498,0 0,708 z"
         id="path17650"
         inkscape:connector-curvature="0" /></clipPath><clipPath
       clipPathUnits="userSpaceOnUse"
       id="clipPath17798"><path
         d="m -2,710 501,0 0,-711 -501,0 0,711 z"
         id="path17800"
         inkscape:connector-curvature="0" /></clipPath><clipPath
       clipPathUnits="userSpaceOnUse"
       id="clipPath17804"><path
         d="m 0,708.06 498,0 0,-708 -498,0 0,708 z"
         id="path17806"
         inkscape:connector-curvature="0" /></clipPath><clipPath
       id="Clip0"><path
         inkscape:connector-curvature="0"
         d="m 0,0 212.597,0 0,269.292 L 0,269.292 0,0 z"
         transform="translate(0.923828,0.879883)"
         id="path7" /></clipPath><clipPath
       id="Clip0-8"><path
         inkscape:connector-curvature="0"
         d="m 0,0 170.079,0 0,113.386 L 0,113.386 0,0 z"
         transform="translate(0.0986328,0.822266)"
         id="path7-8" /></clipPath><clipPath
       id="Clip0-1"><path
         inkscape:connector-curvature="0"
         d="m 0,0 287.009,0 0,159.449 L 0,159.449 0,0 z"
         transform="translate(0.396484,0.267578)"
         id="path7-7" /></clipPath><clipPath
       id="Clip0-9"><path
         inkscape:connector-curvature="0"
         d="m 0,0 170.079,0 0,170.079 L 0,170.079 0,0 z"
         transform="translate(0.460938,0.775391)"
         id="path7-4" /></clipPath><clipPath
       id="Clip0-4"><path
         inkscape:connector-curvature="0"
         d="m 0,0 340.157,0 0,226.771 L 0,226.771 0,0 z"
         transform="translate(0.921875,0.25293)"
         id="path7-5" /></clipPath><clipPath
       id="Clip0-5"><path
         inkscape:connector-curvature="0"
         d="m 0,0 255.119,0 0,170.079 L 0,170.079 0,0 z"
         transform="translate(0.147461,0.0595703)"
         id="path7-1" /></clipPath></defs><sodipodi:namedview
     pagecolor="#ffffff"
     bordercolor="#666666"
     borderopacity="1"
     objecttolerance="10"
     gridtolerance="10"
     guidetolerance="10"
     inkscape:pageopacity="0"
     inkscape:pageshadow="2"
     inkscape:window-width="1280"
     inkscape:window-height="1004"
     id="namedview17626"
     showgrid="false"
     inkscape:zoom="4.4580874"
     inkscape:cx="66.725113"
     inkscape:cy="50.513602"
     inkscape:window-x="-8"
     inkscape:window-y="-8"
     inkscape:window-maximized="1"
     inkscape:current-layer="g17634"
     fit-margin-top="0.6"
     fit-margin-left="0.6"
     fit-margin-right="0.6"
     fit-margin-bottom="0.6"
     showguides="true"
     inkscape:guide-bbox="true" /><g
     id="g17634"
     inkscape:groupmode="layer"
     inkscape:label="GG1999P002"
     transform="matrix(1.25,0,0,-1.25,471.47469,-512.73282)"><path
       inkscape:connector-curvature="0"
       style="fill:#ffffff;fill-rule:nonzero;stroke:#000000;stroke-opacity:1;stroke-width:0.80000000000000004;stroke-miterlimit:4;stroke-dasharray:none"
       d="m -376.69975,-422.00516 c 0,6.26273 5.07617,11.3389 11.3389,11.3389 l 147.4011,0 c 6.262,0 11.339,-5.07617 11.339,-11.3389 l 0,-48.1885 c 0,-6.2627 -5.077,-11.3388 -11.339,-11.3388 l -147.4011,0 c -6.26273,0 -11.3389,5.0761 -11.3389,11.3388 l 0,48.1885 z"
       id="path11" /><path
       inkscape:connector-curvature="0"
       style="fill:#c0111e;fill-opacity:1;fill-rule:nonzero;stroke:none"
       d="m -374.71538,-422.00515 c 0,5.16604 4.1875,9.35451 9.35352,9.35451 l 147.40248,0 c 5.166,0 9.355,-4.18847 9.355,-9.35451 l 0,-48.18849 c 0,-5.1669 -4.189,-9.3544 -9.355,-9.3544 l -147.40248,0 c -5.16602,0 -9.35352,4.1875 -9.35352,9.3544 l 0,48.18849 z"
       id="path13" /><path
       inkscape:connector-curvature="0"
       style="fill:#ffffff;fill-rule:nonzero;stroke:none"
       d="m -371.59722,-422.00515 c 0,3.44436 2.792,6.23635 6.23536,6.23635 l 147.40264,0 c 3.444,0 6.236,-2.79199 6.236,-6.23635 l 0,-48.18855 c 0,-3.4443 -2.792,-6.2363 -6.236,-6.2363 l -147.40264,0 c -3.44336,0 -6.23536,2.792 -6.23536,6.2363 l 0,48.18855 z"
       id="path15" /><path
       inkscape:connector-curvature="0"
       style="fill:#000000;fill-rule:nonzero;stroke:none"
       d="m -337.16989,-431.86231 0,-28.3467 17.291,0 0,4.4219 -12.8975,0 0,7.9941 8.2774,0 0,4.4219 -8.2774,0 0,6.9737 11.8487,0 0,4.5351 -16.2422,0 z"
       id="path17" /><path
       inkscape:connector-curvature="0"
       style="fill:#000000;fill-rule:nonzero;stroke:none"
       d="m -314.83299,-431.86231 0,-28.3467 4.39349,0 0,18.3116 10.7715,-18.3116 3.79791,0 0,28.3467 -4.4785,0 0,-18.4531 -10.7715,18.4531 -3.7129,0 z"
       id="path19" /><path
       inkscape:connector-curvature="0"
       style="fill:#000000;fill-rule:evenodd;stroke:none"
       d="m -289.3213,-431.86231 0,-28.3467 7.90821,0 c 3.38279,0 6.1324,1.503 8.24939,4.5069 1.87,2.6455 2.805,5.6884 2.805,9.1279 0,4.3848 -0.97199,7.9092 -2.91899,10.5732 -2.003,2.7588 -4.7145,4.1387 -8.1354,4.1387 l -7.90821,0 z m 4.4785,-23.7549 0,19.333 3.25981,0 c 2.4756,0 4.30859,-1.2187 5.4993,-3.6572 0.907,-1.833 1.361,-4.0439 1.361,-6.6328 0,-2.0029 -0.48201,-3.874 -1.44601,-5.6123 -1.28539,-2.2871 -3.0901,-3.4307 -5.41429,-3.4307 l -3.25981,0 z"
       id="path21" /><path
       inkscape:connector-curvature="0"
       style="fill:#000000;fill-rule:nonzero;stroke:none"
       d="m -265.1997,-453.46291 c 0.738,-2.1162 2.15501,-3.8926 4.252,-5.3291 1.928,-1.3037 3.80901,-1.9551 5.64201,-1.9551 2.759,0 4.96,0.8497 6.605,2.5508 1.644,1.7012 2.465,3.9024 2.465,6.6045 0,1.7764 -0.501,3.3643 -1.502,4.7627 -0.907,1.2275 -2.135,2.2197 -3.685,2.9766 -0.699,0.3398 -1.747,0.5761 -3.146,0.708 -1.588,0.1699 -2.598,0.3213 -3.03402,0.4541 -0.56599,0.1699 -1.05698,0.5283 -1.47298,1.0771 -0.416,0.5664 -0.62401,1.1621 -0.62401,1.7852 0,0.9834 0.397,1.8994 1.19099,2.75 0.81201,0.8691 1.74802,1.2851 2.806,1.2471 2.23001,-0.0567 3.657,-1.0391 4.28,-2.9473 l 4.195,1.2754 c -0.81198,2.1347 -1.86098,3.7031 -3.14598,4.7051 -1.26602,1.0009 -2.87202,1.5019 -4.81902,1.5019 -2.39999,0 -4.45,-0.8027 -6.15099,-2.4092 -1.776,-1.7002 -2.665,-3.8642 -2.665,-6.4912 0,-2.1543 0.757,-3.874 2.26799,-5.1592 1.36101,-1.1523 2.731,-1.8046 4.11101,-1.956 2.70201,-0.3027 4.58201,-0.8408 5.64001,-1.6152 0.983,-0.7374 1.474,-1.8614 1.474,-3.3731 0,-0.9639 -0.43402,-1.8613 -1.304,-2.6934 -0.85,-0.8125 -1.72902,-1.2187 -2.63502,-1.2187 -1.64498,0 -2.93899,0.3018 -3.88399,0.9072 -0.927,0.6045 -1.786,1.7002 -2.58001,3.2881 l -4.281,-1.4463 z"
       id="path23" /></g></svg>