<?xml version="1.0" encoding="UTF-8" standalone="no"?>
<!-- Created with Inkscape (http://www.inkscape.org/) -->

<svg
   xmlns:dc="http://purl.org/dc/elements/1.1/"
   xmlns:cc="http://creativecommons.org/ns#"
   xmlns:rdf="http://www.w3.org/1999/02/22-rdf-syntax-ns#"
   xmlns:svg="http://www.w3.org/2000/svg"
   xmlns="http://www.w3.org/2000/svg"
   xmlns:sodipodi="http://sodipodi.sourceforge.net/DTD/sodipodi-0.dtd"
   xmlns:inkscape="http://www.inkscape.org/namespaces/inkscape"
   id="svg17624"
   version="1.1"
   inkscape:version="0.48.4 r9939"
   width="213.79875"
   height="89.782753"
   xml:space="preserve"
   sodipodi:docname="AJAX1.svg"><metadata
     id="metadata17630"><rdf:RDF><cc:Work
         rdf:about=""><dc:format>image/svg+xml</dc:format><dc:type
           rdf:resource="http://purl.org/dc/dcmitype/StillImage" /><dc:title /></cc:Work></rdf:RDF></metadata><defs
     id="defs17628"><inkscape:perspective
       sodipodi:type="inkscape:persp3d"
       inkscape:vp_x="0 : 0.5 : 1"
       inkscape:vp_y="0 : 1000 : 0"
       inkscape:vp_z="1 : 0.5 : 1"
       inkscape:persp3d-origin="0.5 : 0.33333333 : 1"
       id="perspective17632" /><clipPath
       clipPathUnits="userSpaceOnUse"
       id="clipPath17642"><path
         d="m -2,710 501,0 0,-711 -501,0 0,711 z"
         id="path17644"
         inkscape:connector-curvature="0" /></clipPath><clipPath
       clipPathUnits="userSpaceOnUse"
       id="clipPath17648"><path
         d="m 0,708.06 498,0 0,-708 -498,0 0,708 z"
         id="path17650"
         inkscape:connector-curvature="0" /></clipPath><clipPath
       clipPathUnits="userSpaceOnUse"
       id="clipPath17798"><path
         d="m -2,710 501,0 0,-711 -501,0 0,711 z"
         id="path17800"
         inkscape:connector-curvature="0" /></clipPath><clipPath
       clipPathUnits="userSpaceOnUse"
       id="clipPath17804"><path
         d="m 0,708.06 498,0 0,-708 -498,0 0,708 z"
         id="path17806"
         inkscape:connector-curvature="0" /></clipPath><clipPath
       id="Clip0"><path
         inkscape:connector-curvature="0"
         d="m 0,0 212.597,0 0,269.292 L 0,269.292 0,0 z"
         transform="translate(0.923828,0.879883)"
         id="path7" /></clipPath><clipPath
       id="Clip0-8"><path
         inkscape:connector-curvature="0"
         d="m 0,0 170.079,0 0,113.386 L 0,113.386 0,0 z"
         transform="translate(0.0986328,0.822266)"
         id="path7-8" /></clipPath><clipPath
       id="Clip0-1"><path
         inkscape:connector-curvature="0"
         d="m 0,0 287.009,0 0,159.449 L 0,159.449 0,0 z"
         transform="translate(0.396484,0.267578)"
         id="path7-7" /></clipPath><clipPath
       id="Clip0-9"><path
         inkscape:connector-curvature="0"
         d="m 0,0 170.079,0 0,170.079 L 0,170.079 0,0 z"
         transform="translate(0.460938,0.775391)"
         id="path7-4" /></clipPath><clipPath
       id="Clip0-4"><path
         inkscape:connector-curvature="0"
         d="m 0,0 340.157,0 0,226.771 L 0,226.771 0,0 z"
         transform="translate(0.921875,0.25293)"
         id="path7-5" /></clipPath><clipPath
       id="Clip0-5"><path
         inkscape:connector-curvature="0"
         d="m 0,0 255.119,0 0,170.079 L 0,170.079 0,0 z"
         transform="translate(0.147461,0.0595703)"
         id="path7-1" /></clipPath></defs><sodipodi:namedview
     pagecolor="#ffffff"
     bordercolor="#666666"
     borderopacity="1"
     objecttolerance="10"
     gridtolerance="10"
     guidetolerance="10"
     inkscape:pageopacity="0"
     inkscape:pageshadow="2"
     inkscape:window-width="1280"
     inkscape:window-height="1004"
     id="namedview17626"
     showgrid="false"
     inkscape:zoom="4.4580874"
     inkscape:cx="56.328211"
     inkscape:cy="47.810462"
     inkscape:window-x="-8"
     inkscape:window-y="-8"
     inkscape:window-maximized="1"
     inkscape:current-layer="g17634"
     fit-margin-top="0.6"
     fit-margin-left="0.6"
     fit-margin-right="0.6"
     fit-margin-bottom="0.6"
     showguides="true"
     inkscape:guide-bbox="true" /><g
     id="g17634"
     inkscape:groupmode="layer"
     inkscape:label="GG1999P002"
     transform="matrix(1.25,0,0,-1.25,471.47469,-512.73282)"><path
       inkscape:connector-curvature="0"
       style="fill:#ffffff;fill-rule:nonzero;stroke:#000000;stroke-opacity:1;stroke-width:0.80000000000000004;stroke-miterlimit:4;stroke-dasharray:none"
       d="m -376.69975,-422.00516 c 0,6.26273 5.07617,11.3389 11.3389,11.3389 l 147.4011,0 c 6.262,0 11.339,-5.07617 11.339,-11.3389 l 0,-48.1885 c 0,-6.2627 -5.077,-11.3388 -11.339,-11.3388 l -147.4011,0 c -6.26273,0 -11.3389,5.0761 -11.3389,11.3388 l 0,48.1885 z"
       id="path11" /><path
       inkscape:connector-curvature="0"
       style="fill:#c0111e;fill-opacity:1;fill-rule:nonzero;stroke:none"
       d="m -374.71538,-422.00515 c 0,5.16604 4.1875,9.35451 9.35352,9.35451 l 147.40248,0 c 5.166,0 9.355,-4.18847 9.355,-9.35451 l 0,-48.18849 c 0,-5.1669 -4.189,-9.3544 -9.355,-9.3544 l -147.40248,0 c -5.16602,0 -9.35352,4.1875 -9.35352,9.3544 l 0,48.18849 z"
       id="path13" /><path
       inkscape:connector-curvature="0"
       style="fill:#ffffff;fill-rule:nonzero;stroke:none"
       d="m -371.59722,-422.00515 c 0,3.44436 2.792,6.23635 6.23536,6.23635 l 147.40264,0 c 3.444,0 6.236,-2.79199 6.236,-6.23635 l 0,-48.18855 c 0,-3.4443 -2.792,-6.2363 -6.236,-6.2363 l -147.40264,0 c -3.44336,0 -6.23536,2.792 -6.23536,6.2363 l 0,48.18855 z"
       id="path15" /><path
       inkscape:connector-curvature="0"
       style="fill:#000000;fill-rule:evenodd;stroke:none"
       d="m -356.14896,-431.88795 0,-28.3467 11.3672,0 c 1.9843,0 3.7412,0.7559 5.2724,2.2676 1.5498,1.5127 2.3243,3.2315 2.3243,5.1592 0,1.8525 -0.3497,3.3359 -1.0489,4.4502 -0.6992,1.1347 -1.8799,2.1074 -3.5429,2.9199 1.5117,0.9453 2.5605,1.9375 3.1464,2.9766 0.5479,0.9257 0.8213,2.0976 0.8213,3.5146 0,1.7578 -0.6513,3.3447 -1.956,4.7627 -1.3985,1.5303 -3.0703,2.2959 -5.0166,2.2959 l -11.3672,0 z m 4.4785,-11.4521 0,6.8603 6.7188,0 c 0.7558,0 1.4072,-0.2461 1.955,-0.7373 0.5674,-0.4727 0.8506,-1.0488 0.8506,-1.7295 0,-1.0205 -0.4062,-1.9932 -1.2187,-2.9189 -0.8311,-0.9834 -1.7569,-1.4746 -2.7774,-1.4746 l -5.5283,0 z m 0,-12.3594 0,7.8525 5.6982,0 c 1.1719,0 2.2207,-0.4814 3.1465,-1.4463 0.9444,-0.9443 1.417,-2.0029 1.417,-3.1748 0,-0.623 -0.3213,-1.3222 -0.9638,-2.0967 -0.6426,-0.7568 -1.2471,-1.1347 -1.8145,-1.1347 l -7.4834,0 z"
       id="path17" /><path
       inkscape:connector-curvature="0"
       style="fill:#000000;fill-rule:nonzero;stroke:none"
       d="m -330.60896,-431.88795 0,-28.3467 17.291,0 0,4.4219 -12.8974,0 0,7.9941 8.2773,0 0,4.4219 -8.2773,0 0,6.9737 11.8486,0 0,4.5351 -16.2422,0 z"
       id="path19" /><path
       inkscape:connector-curvature="0"
       style="fill:#000000;fill-rule:nonzero;stroke:none"
       d="m -293.90096,-439.11645 4.167,1.418 c -0.7363,1.9267 -1.8701,3.4668 -3.4013,4.6201 -1.5303,1.1719 -3.2413,1.7568 -5.1309,1.7568 -6.6709,0 -10.0059,-5.1396 -10.0059,-15.4199 0,-3.8174 0.7364,-6.9824 2.211,-9.4961 1.7763,-3.0234 4.375,-4.5352 7.7949,-4.5352 2.3818,0 4.4697,0.8497 6.2646,2.5508 1.7959,1.7197 2.6934,3.751 2.6934,6.0947 l 0,5.9239 -9.2129,0 0,-4.4785 4.8184,0 0,-1.8135 c 0,-0.7754 -0.4346,-1.5977 -1.3037,-2.4668 -0.9639,-0.9824 -1.9932,-1.4736 -3.0899,-1.4736 -2.0215,0 -3.5332,1.0205 -4.5351,3.0615 -0.8311,1.6816 -1.2471,3.8642 -1.2471,6.5478 0,3.0801 0.2549,5.4141 0.7656,7.001 0.8311,2.627 2.4278,3.9404 4.7901,3.9404 1.0586,0 1.956,-0.2929 2.6933,-0.8789 0.586,-0.4912 1.1621,-1.2754 1.7285,-2.3525 z"
       id="path21" /><path
       inkscape:connector-curvature="0"
       style="fill:#000000;fill-rule:nonzero;stroke:none"
       d="m -282.73196,-460.23465 4.4502,0 0,28.3467 -4.4502,0 0,-28.3467 z"
       id="path23" /><path
       inkscape:connector-curvature="0"
       style="fill:#000000;fill-rule:nonzero;stroke:none"
       d="m -271.64956,-431.88795 0,-28.3467 4.394,0 0,18.3116 10.772,-18.3116 3.797,0 0,28.3467 -4.478,0 0,-18.4531 -10.772,18.4531 -3.713,0 z"
       id="path25" /><path
       inkscape:connector-curvature="0"
       style="fill:#000000;fill-rule:nonzero;stroke:none"
       d="m -246.27956,-453.48855 c 0.736,-2.1162 2.154,-3.8926 4.252,-5.3291 1.927,-1.3037 3.807,-1.9551 5.641,-1.9551 2.758,0 4.96,0.8497 6.604,2.5508 1.644,1.7012 2.467,3.9024 2.467,6.6045 0,1.7764 -0.501,3.3643 -1.502,4.7627 -0.908,1.2275 -2.136,2.2197 -3.686,2.9766 -0.699,0.3398 -1.748,0.5761 -3.146,0.708 -1.588,0.1699 -2.599,0.3213 -3.034,0.4541 -0.567,0.1699 -1.058,0.5283 -1.473,1.0771 -0.416,0.5664 -0.624,1.1621 -0.624,1.7852 0,0.9834 0.397,1.8994 1.19,2.75 0.814,0.8691 1.748,1.2851 2.807,1.2471 2.23,-0.0567 3.656,-1.0391 4.28,-2.9473 l 4.195,1.2754 c -0.812,2.1347 -1.861,3.7031 -3.146,4.7051 -1.266,1.0009 -2.872,1.5019 -4.818,1.5019 -2.401,0 -4.452,-0.8027 -6.153,-2.4092 -1.776,-1.7002 -2.664,-3.8642 -2.664,-6.4912 0,-2.1543 0.756,-3.874 2.268,-5.1592 1.361,-1.1523 2.73,-1.8046 4.11,-1.956 2.702,-0.3027 4.583,-0.8408 5.641,-1.6152 0.983,-0.7374 1.474,-1.8614 1.474,-3.3731 0,-0.9639 -0.434,-1.8613 -1.304,-2.6934 -0.85,-0.8125 -1.729,-1.2187 -2.636,-1.2187 -1.644,0 -2.939,0.3018 -3.884,0.9072 -0.926,0.6045 -1.785,1.7002 -2.579,3.2881 l -4.28,-1.4463 z"
       id="path27" /></g></svg>