<?xml version="1.0" encoding="UTF-8" standalone="no"?>
<!-- Generator: Adobe Illustrator 12.0.1, SVG Export Plug-In  -->

<svg
   xmlns:dc="http://purl.org/dc/elements/1.1/"
   xmlns:cc="http://creativecommons.org/ns#"
   xmlns:rdf="http://www.w3.org/1999/02/22-rdf-syntax-ns#"
   xmlns:svg="http://www.w3.org/2000/svg"
   xmlns="http://www.w3.org/2000/svg"
   xmlns:sodipodi="http://sodipodi.sourceforge.net/DTD/sodipodi-0.dtd"
   xmlns:inkscape="http://www.inkscape.org/namespaces/inkscape"
   version="1.1"
   width="336.61377"
   height="106.29874"
   viewBox="0 0 336.61379 106.29874"
   enable-background="new 0 0 288 288"
   xml:space="preserve"
   id="svg2"
   inkscape:version="0.48.2 r9819"
   sodipodi:docname="AJAX5.svg"><metadata
   id="metadata72"><rdf:RDF><cc:Work
       rdf:about=""><dc:format>image/svg+xml</dc:format><dc:type
         rdf:resource="http://purl.org/dc/dcmitype/StillImage" /><dc:title></dc:title></cc:Work></rdf:RDF></metadata><sodipodi:namedview
   pagecolor="#ffffff"
   bordercolor="#666666"
   borderopacity="1"
   objecttolerance="10"
   gridtolerance="10"
   guidetolerance="10"
   inkscape:pageopacity="0"
   inkscape:pageshadow="2"
   inkscape:window-width="1280"
   inkscape:window-height="1004"
   id="namedview70"
   showgrid="false"
   fit-margin-top="0"
   fit-margin-left="0"
   fit-margin-right="0"
   fit-margin-bottom="0"
   inkscape:zoom="1.1588694"
   inkscape:cx="211.00367"
   inkscape:cy="112.25157"
   inkscape:window-x="-8"
   inkscape:window-y="-8"
   inkscape:window-maximized="1"
   inkscape:current-layer="Group1-1" />
<defs
   id="defs4">
<clipPath
   id="Clip0"><path
     inkscape:connector-curvature="0"
     d="m 0,0 425.197,0 0,340.157 L 0,340.157 0,0 z"
     transform="translate(0.474609,0.964844)"
     id="path7" /></clipPath><clipPath
   id="Clip0-1"><path
     inkscape:connector-curvature="0"
     d="m 0,0 269.291,0 0,141.733 L 0,141.733 0,0 z"
     transform="translate(0.0644531,0.324219)"
     id="path7-7" /></clipPath><clipPath
   id="Clip0-17"><path
     inkscape:connector-curvature="0"
     d="m 0,0 269.291,0 0,141.732 L 0,141.732 0,0 z"
     transform="translate(0.727539,0.548828)"
     id="path7-4" /></clipPath><clipPath
   id="Clip0-174"><path
     inkscape:connector-curvature="0"
     d="m 0,0 340.158,0 0,340.158 L 0,340.158 0,0 z"
     transform="translate(0.630859,0.112305)"
     id="path7-0" /></clipPath><clipPath
   id="Clip0-1740"><path
     inkscape:connector-curvature="0"
     d="m 0,0 269.291,0 0,85.04 L 0,85.04 0,0 z"
     transform="translate(0.40332,0.554688)"
     id="path7-9" /></clipPath><clipPath
   id="Clip0-8"><path
     inkscape:connector-curvature="0"
     d="m 0,0 269.291,0 0,141.732 L 0,141.732 0,0 z"
     transform="translate(0.899414,0.125)"
     id="path7-2" /></clipPath><clipPath
   id="Clip0-5"><path
     inkscape:connector-curvature="0"
     d="m 0,0 340.158,0 0,226.772 L 0,226.772 0,0 z"
     transform="translate(0.420898,0.614258)"
     id="path7-1" /></clipPath><clipPath
   id="Clip0-6"><path
     inkscape:connector-curvature="0"
     d="m 0,0 269.291,0 0,85.039 L 0,85.039 0,0 z"
     transform="translate(0.222656,0.101563)"
     id="path7-14" /></clipPath></defs>
































<g
   transform="matrix(1.2500001,0,0,1.2500001,-3.2214354,-316.51229)"
   id="Background"
   style="fill:#000000"><g
     id="Group1"
     clip-path="url(#Clip0-174)"
     style="fill:#000000"><g
       transform="translate(1.9335936,111.722)"
       id="Background-7"
       style="fill:#000000"><g
         id="Group1-1"
         clip-path="url(#Clip0-5)"
         style="fill:#000000"><path
           inkscape:connector-curvature="0"
           style="fill:#ef7c23;fill-rule:nonzero;stroke:none"
           d="m 0.6435545,155.66061 c 0,-7.82709 6.3447199,-14.1728 14.1727995,-14.1728 l 240.945206,0 c 7.827,0 14.173,6.34571 14.173,14.1728 l 0,56.69339 c 0,7.8281 -6.346,14.1728 -14.173,14.1728 l -240.945206,0 c -7.8280796,0 -14.1727995,-6.3447 -14.1727995,-14.1728 l 0,-56.69339 z"
           id="path11" /><path
           inkscape:connector-curvature="0"
           style="fill:#000000;fill-rule:nonzero;stroke:none"
           d="m 3.4775385,155.66067 c 0,-6.26172 5.07715,-11.3379 11.3388995,-11.3379 l 240.945102,0 c 6.262,0 11.338,5.07618 11.338,11.3379 l 0,56.69339 c 0,6.2617 -5.076,11.3388 -11.338,11.3388 l -240.945102,0 c -6.2617495,0 -11.3388995,-5.0771 -11.3388995,-11.3388 l 0,-56.69339 z"
           id="path13" /><path
           inkscape:connector-curvature="0"
           style="fill:#ef7c23;fill-rule:nonzero;stroke:none"
           d="m 8.0136684,155.66065 c 0,-3.7568 3.0449296,-6.80272 6.8027296,-6.80272 l 240.945272,0 c 3.757,0 6.803,3.04592 6.803,6.80272 l 0,56.69337 c 0,3.7578 -3.046,6.8027 -6.803,6.8027 l -240.945272,0 c -3.7578,0 -6.8027296,-3.0449 -6.8027296,-6.8027 l 0,-56.69337 z"
           id="path15" /><g
           transform="translate(0.4208983,141.38625)"
           id="Background-2"
           style="fill:#000000"><g
             id="Group1-3"
             clip-path="url(#Clip0-6)"
             style="fill:#000000"><path
               inkscape:connector-curvature="0"
               style="fill:#000000;fill-rule:nonzero;stroke:none"
               d="m 0,0 0,4.168 6.5195,0 0,24.1787 4.2803,0 0,-24.1787 6.4912,0 L 17.291,0 0,0 z"
               transform="translate(22.4678,28.457)"
               id="path17" /><path
               inkscape:connector-curvature="0"
               style="fill:#000000;fill-rule:nonzero;stroke:none"
               d="m 0,0 0,28.3467 17.2901,0 0,-4.4219 -12.8965,0 0,-7.9931 8.2764,0 0,-4.4219 -8.2764,0 0,-6.9736 11.8486,0 L 16.2422,0 0,0 z"
               transform="translate(44.8896,28.457)"
               id="path19" /><path
               inkscape:connector-curvature="0"
               style="fill:#000000;fill-rule:nonzero;stroke:none"
               d="m 0,0 0,28.3467 4.5078,0 0,-16.4404 6.5479,16.4404 6.3779,-16.4404 0,16.4404 4.3652,0 L 21.7988,0 17.2637,0 10.998,16.3848 4.2519,0 0,0 z"
               transform="translate(67.2256,28.457)"
               id="path21" /><path
               inkscape:connector-curvature="0"
               style="fill:#000000;fill-rule:evenodd;stroke:none"
               d="m 4.3938,4.1963 6.548,0 c 0.907,0 1.71,0.3496 2.409,1.0488 0.718,0.6807 1.077,1.4356 1.077,2.2676 0,1.0957 -0.303,2.0313 -0.907,2.8067 -0.605,0.7744 -1.379,1.1621 -2.324,1.1621 l -6.803,0 0,-7.2852 z M 0,0 l 0,28.3467 4.3938,0 0,-12.3867 5.867,0 c 2.532,0 4.63,-0.8223 6.293,-2.4658 1.606,-1.6065 2.409,-3.5918 2.409,-5.9532 0,-2.1162 -0.803,-3.9023 -2.409,-5.3574 C 14.9468,0.7285 13.0478,0.001 10.8568,0 L 0,0 z"
               transform="translate(95.6572,28.457)"
               id="path23" /><path
               inkscape:connector-curvature="0"
               style="fill:#000000;fill-rule:evenodd;stroke:none"
               d="m 9.978,29.4522 c 3.647,0 6.293,-1.5684 7.937,-4.7051 1.286,-2.457 1.928,-5.8018 1.928,-10.0352 0,-4.29 -0.842,-7.7763 -2.523,-10.4599 C 15.543,1.418 13.096,0 9.978,0 3.327,0 0,4.9043 0,14.7119 c 0,5.0079 0.926,8.7686 2.778,11.2823 1.701,2.3056 4.101,3.458 7.2,3.458 z m 0,-4.4785 c -3.703,0 -5.556,-3.4209 -5.556,-10.2618 0,-3.5722 0.473,-6.1699 1.417,-7.7949 0.889,-1.5498 2.269,-2.3242 4.139,-2.3242 3.516,0 5.272,3.373 5.272,10.1191 0,3.5909 -0.434,6.2178 -1.303,7.8809 -0.851,1.5869 -2.173,2.3809 -3.969,2.3809 z"
               transform="translate(119.694,27.8906)"
               id="path25" /><path
               inkscape:connector-curvature="0"
               style="fill:#000000;fill-rule:evenodd;stroke:none"
               d="m 4.308,4.4229 5.953,0 c 0.925,0 1.748,0.3213 2.466,0.9639 0.737,0.6425 1.105,1.3984 1.105,2.2675 0,0.9258 -0.321,1.7666 -0.963,2.5225 -0.7,0.7939 -1.512,1.1904 -2.438,1.1904 l -6.123,0 0,-6.9443 z M 0,0 l 0,28.3467 4.308,0 0,-12.415 5.47,0 4.593,12.415 4.592,0 -5.074,-13.3789 c 2.816,-1.8144 4.224,-4.1387 4.224,-6.9736 0,-2.1348 -0.757,-3.9971 -2.268,-5.584 C 14.353,0.8037 12.576,0.001 10.516,0 L 0,0 z"
               transform="translate(146.085,28.457)"
               id="path27" /><path
               inkscape:connector-curvature="0"
               style="fill:#000000;fill-rule:evenodd;stroke:none"
               d="M 9.61,0 0,28.3184 l 4.735,0 2.607,-7.9932 9.071,0 2.778,7.9932 4.593,0 L 14.088,0 9.61,0 z m 5.131,15.7901 -5.784,0 2.835,-8.4483 2.949,8.4483 z"
               transform="translate(170.235,28.457)"
               id="path29" /><path
               inkscape:connector-curvature="0"
               style="fill:#000000;fill-rule:evenodd;stroke:none"
               d="m 4.309,4.4229 5.953,0 c 0.926,0 1.748,0.3213 2.466,0.9639 0.737,0.6425 1.105,1.3984 1.105,2.2675 0,0.9258 -0.321,1.7666 -0.964,2.5225 -0.699,0.7939 -1.511,1.1904 -2.437,1.1904 l -6.123,0 0,-6.9443 z M 0,0 l 0,28.3467 4.309,0 0,-12.415 5.47,0 4.593,12.415 4.592,0 -5.074,-13.3789 c 2.816,-1.8144 4.223,-4.1387 4.223,-6.9736 0,-2.1348 -0.755,-3.9971 -2.267,-5.584 C 14.354,0.8037 12.577,0.001 10.517,0 L 0,0 z"
               transform="translate(199.12,28.457)"
               id="path31" /><path
               inkscape:connector-curvature="0"
               style="fill:#000000;fill-rule:nonzero;stroke:none"
               d="m 0,0 9.95,16.1582 0,12.1885 4.394,0 0,-12.1885 L 24.095,0 18.879,0 12.047,10.9991 5.301,0 0,0 z"
               transform="translate(223.243,28.457)"
               id="path33" /></g></g></g></g></g></g></svg>