<?xml version="1.0" encoding="UTF-8" standalone="no"?>
<!-- Created with Inkscape (http://www.inkscape.org/) -->

<svg
   xmlns:dc="http://purl.org/dc/elements/1.1/"
   xmlns:cc="http://creativecommons.org/ns#"
   xmlns:rdf="http://www.w3.org/1999/02/22-rdf-syntax-ns#"
   xmlns:svg="http://www.w3.org/2000/svg"
   xmlns="http://www.w3.org/2000/svg"
   xmlns:sodipodi="http://sodipodi.sourceforge.net/DTD/sodipodi-0.dtd"
   xmlns:inkscape="http://www.inkscape.org/namespaces/inkscape"
   width="226.5"
   height="95.25"
   id="svg3562"
   version="1.1"
   inkscape:version="0.48.2 r9819"
   sodipodi:docname="MUTCD S4-2P.svg">
  <defs
     id="defs3564">
    <inkscape:perspective
       sodipodi:type="inkscape:persp3d"
       inkscape:vp_x="0 : 526.18109 : 1"
       inkscape:vp_y="0 : 1000 : 0"
       inkscape:vp_z="744.09448 : 526.18109 : 1"
       inkscape:persp3d-origin="372.04724 : 350.78739 : 1"
       id="perspective3570" />
    <inkscape:perspective
       id="perspective3595"
       inkscape:persp3d-origin="301.91901 : 198.427 : 1"
       inkscape:vp_z="603.83801 : 297.6405 : 1"
       inkscape:vp_y="0 : 1000 : 0"
       inkscape:vp_x="0 : 297.6405 : 1"
       sodipodi:type="inkscape:persp3d" />
    <inkscape:perspective
       id="perspective3615"
       inkscape:persp3d-origin="0.5 : 0.33333333 : 1"
       inkscape:vp_z="1 : 0.5 : 1"
       inkscape:vp_y="0 : 1000 : 0"
       inkscape:vp_x="0 : 0.5 : 1"
       sodipodi:type="inkscape:persp3d" />
    <inkscape:perspective
       id="perspective4061"
       inkscape:persp3d-origin="0.5 : 0.33333333 : 1"
       inkscape:vp_z="1 : 0.5 : 1"
       inkscape:vp_y="0 : 1000 : 0"
       inkscape:vp_x="0 : 0.5 : 1"
       sodipodi:type="inkscape:persp3d" />
    <inkscape:perspective
       id="perspective4872"
       inkscape:persp3d-origin="263 : 175.33333 : 1"
       inkscape:vp_z="526 : 263 : 1"
       inkscape:vp_y="0 : 1000 : 0"
       inkscape:vp_x="0 : 263 : 1"
       sodipodi:type="inkscape:persp3d" />
    <inkscape:perspective
       id="perspective4933"
       inkscape:persp3d-origin="0.5 : 0.33333333 : 1"
       inkscape:vp_z="1 : 0.5 : 1"
       inkscape:vp_y="0 : 1000 : 0"
       inkscape:vp_x="0 : 0.5 : 1"
       sodipodi:type="inkscape:persp3d" />
    <inkscape:perspective
       id="perspective4966"
       inkscape:persp3d-origin="0.5 : 0.33333333 : 1"
       inkscape:vp_z="1 : 0.5 : 1"
       inkscape:vp_y="0 : 1000 : 0"
       inkscape:vp_x="0 : 0.5 : 1"
       sodipodi:type="inkscape:persp3d" />
    <inkscape:perspective
       id="perspective3614"
       inkscape:persp3d-origin="0.5 : 0.33333333 : 1"
       inkscape:vp_z="1 : 0.5 : 1"
       inkscape:vp_y="0 : 1000 : 0"
       inkscape:vp_x="0 : 0.5 : 1"
       sodipodi:type="inkscape:persp3d" />
    <inkscape:perspective
       id="perspective3653"
       inkscape:persp3d-origin="0.5 : 0.33333333 : 1"
       inkscape:vp_z="1 : 0.5 : 1"
       inkscape:vp_y="0 : 1000 : 0"
       inkscape:vp_x="0 : 0.5 : 1"
       sodipodi:type="inkscape:persp3d" />
    <inkscape:perspective
       id="perspective3701"
       inkscape:persp3d-origin="0.5 : 0.33333333 : 1"
       inkscape:vp_z="1 : 0.5 : 1"
       inkscape:vp_y="0 : 1000 : 0"
       inkscape:vp_x="0 : 0.5 : 1"
       sodipodi:type="inkscape:persp3d" />
    <inkscape:perspective
       id="perspective4525"
       inkscape:persp3d-origin="0.5 : 0.33333333 : 1"
       inkscape:vp_z="1 : 0.5 : 1"
       inkscape:vp_y="0 : 1000 : 0"
       inkscape:vp_x="0 : 0.5 : 1"
       sodipodi:type="inkscape:persp3d" />
    <inkscape:perspective
       id="perspective4729"
       inkscape:persp3d-origin="301.91901 : 198.427 : 1"
       inkscape:vp_z="603.83801 : 297.6405 : 1"
       inkscape:vp_y="0 : 1000 : 0"
       inkscape:vp_x="0 : 297.6405 : 1"
       sodipodi:type="inkscape:persp3d" />
    <inkscape:perspective
       id="perspective4759"
       inkscape:persp3d-origin="0.5 : 0.33333333 : 1"
       inkscape:vp_z="1 : 0.5 : 1"
       inkscape:vp_y="0 : 1000 : 0"
       inkscape:vp_x="0 : 0.5 : 1"
       sodipodi:type="inkscape:persp3d" />
    <inkscape:perspective
       id="perspective4793"
       inkscape:persp3d-origin="0.5 : 0.33333333 : 1"
       inkscape:vp_z="1 : 0.5 : 1"
       inkscape:vp_y="0 : 1000 : 0"
       inkscape:vp_x="0 : 0.5 : 1"
       sodipodi:type="inkscape:persp3d" />
  </defs>
  <sodipodi:namedview
     id="base"
     pagecolor="#ffffff"
     bordercolor="#666666"
     borderopacity="1.0"
     inkscape:pageopacity="0.0"
     inkscape:pageshadow="2"
     inkscape:zoom="3.4935116"
     inkscape:cx="102.47123"
     inkscape:cy="10.313331"
     inkscape:document-units="px"
     inkscape:current-layer="layer1"
     showgrid="false"
     inkscape:window-width="1280"
     inkscape:window-height="1004"
     inkscape:window-x="-8"
     inkscape:window-y="-8"
     inkscape:window-maximized="1"
     fit-margin-top="0"
     fit-margin-left="0"
     fit-margin-right="0"
     fit-margin-bottom="0" />
  <metadata
     id="metadata3567">
    <rdf:RDF>
      <cc:Work
         rdf:about="">
        <dc:format>image/svg+xml</dc:format>
        <dc:type
           rdf:resource="http://purl.org/dc/dcmitype/StillImage" />
        <dc:title></dc:title>
      </cc:Work>
    </rdf:RDF>
  </metadata>
  <g
     inkscape:label="Livello 1"
     inkscape:groupmode="layer"
     id="layer1"
     transform="translate(1788.9063,2402.7188)">
    <g
       display="none"
       id="Layer_1_1_"
       style="display:none"
       transform="translate(-179.26841,166.65141)">
      <path
         id="path3574"
         enable-background="new    "
         d=""
         display="inline"
         style="fill:none;display:inline"
         inkscape:connector-curvature="0" />
    </g>
    <g
       display="none"
       id="Layer_3"
       transform="translate(-859.87637,144.75832)"
       style="display:none">
      <line
         y2="395.00101"
         x2="154.05701"
         y1="342.67899"
         x1="207.533"
         display="inline"
         id="line7934"
         style="fill:none;display:inline" />
    </g>
    <path
       d="m -1765.6689,-2401.972 180.0145,0 c 12.3995,0 22.5065,10.107 22.5065,22.4971 l 0,48.7539 c 0,12.3995 -10.107,22.5065 -22.5065,22.5065 l -179.1988,-0.1172 c -0.2766,0.01 -0.5391,0.019 -0.8157,0.019 -12.3901,0 -22.4971,-10.1118 -22.4971,-22.5065 l 0,-48.6555 c 0,-12.3901 10.107,-22.4971 22.4971,-22.4971 z"
       style="fill:#ffffff;stroke:#000000;stroke-width:1.50000000000000000;stroke-linecap:butt;stroke-linejoin:miter;stroke-miterlimit:4;stroke-opacity:1;stroke-dasharray:none"
       id="path3151"
       inkscape:connector-curvature="0" />
    <path
       d="m -1765.7064,-2397.4764 180.0895,0 c 9.9008,0 17.964,8.0679 17.964,17.964 l 0,48.8289 c 0,9.8962 -8.0632,17.964 -17.964,17.964 l -180.0895,0 c -9.8867,0 -17.964,-8.0678 -17.964,-17.964 l 0,-48.8289 c 0,-9.8961 8.0773,-17.964 17.964,-17.964"
       style="fill:#000000;fill-opacity:1;fill-rule:evenodd;stroke:none"
       id="path3155"
       inkscape:connector-curvature="0" />
    <path
       d="m -1765.6596,-2390.73 179.9958,0 c 6.2021,0 11.265,5.0676 11.265,11.265 l 0,48.7351 c 0,6.2021 -5.0629,11.265 -11.265,11.265 l -179.9958,0 c -6.1974,0 -11.2509,-5.0629 -11.2509,-11.265 l 0,-48.7351 c 0,-6.1974 5.0535,-11.265 11.2509,-11.265"
       style="fill:#ffffff;fill-opacity:1;fill-rule:evenodd;stroke:none"
       id="path3159"
       inkscape:connector-curvature="0" />
    <path
       d="m -1635.7261,-2360.1843 0,-23.2378 -3.6706,0 0,14.8418 -8.4804,-14.8418 -3.6706,0 0,23.2378 3.6706,0 0,-15.7372 8.8882,15.7372 3.2628,0 z m -19.6516,0 0,-3.755 -10.7681,0 0,-6.3614 6.7693,0 0,-3.7456 -6.7693,0 0,-5.7052 10.0368,0 0,-3.6706 -13.698,0 0,23.2378 14.4293,0 z m -19.8954,0 0,-23.2378 -3.6706,0 0,9.3758 -8.4803,0 0,-9.3758 -3.6706,0 0,23.2378 3.6706,0 0,-10.1164 8.4803,0 0,10.1164 3.6706,0 z m -19.2437,-23.2378 -3.755,0 -1.7861,12.226 -3.019,-12.226 -3.5909,0 -2.9299,12.226 -1.7955,-12.226 -3.7549,0 3.4268,23.2378 3.2581,0 3.5909,-14.9215 3.6706,14.9215 3.2581,0 3.4268,-23.2378 z"
       style="fill:#000000;fill-opacity:1;fill-rule:evenodd;stroke:none"
       id="path3163"
       inkscape:connector-curvature="0" />
    <path
       d="m -1604.6778,-2334.115 0,-4.6457 -7.9131,0 0,3.6753 4.2425,0 0,0.9704 c 0,2.1236 -1.7158,3.5862 -4.0785,3.5862 -1.3782,0 -2.4424,-0.5672 -3.1737,-1.8657 -0.736,-1.4767 -1.1438,-3.9191 -1.1438,-6.3662 0,-1.9595 0.3281,-4.0737 0.8954,-5.466 0.8157,-2.0299 2.0439,-2.855 3.9097,-2.855 1.7954,0 2.7752,0.7314 3.755,2.7753 l 3.5065,-1.383 c -1.547,-3.6706 -3.6706,-5.1379 -7.2615,-5.1379 -2.6112,0 -4.5613,0.9001 -5.9536,2.6112 -1.547,2.0298 -2.6065,5.7051 -2.6065,9.4554 0,2.8503 0.5766,5.7052 1.5564,7.7491 1.3829,2.9393 3.4221,4.2566 6.9287,4.2566 4.2425,0 7.3365,-3.1128 7.3365,-7.36 m -20.7954,6.9381 0,-23.2472 -3.6706,0 0,14.8418 -8.4804,-14.8418 -3.6706,0 0,23.2472 3.6706,0 0,-15.7466 8.8929,15.7466 3.2581,0 z m -21.2783,-23.2472 -3.755,0 0,23.2472 3.755,0 0,-23.2472 z m -9.2211,23.2472 0,-23.2472 -3.6612,0 0,9.3851 -8.4757,0 0,-9.3851 -3.6753,0 0,23.2472 3.6753,0 0,-10.1165 8.4757,0 0,10.1165 3.6612,0 z m -19.6469,-6.6943 c 0,-9.1273 -10.9227,-6.2677 -11.2509,-10.5899 -0.1687,-2.1236 1.8752,-2.7846 3.5862,-2.6956 2.6112,0.075 3.4269,2.0346 3.4269,2.0346 l 3.2581,-0.9798 c -1.1345,-2.8455 -3.3425,-4.7254 -6.6006,-4.7254 -4.1581,0 -7.2615,1.7111 -7.2615,6.2724 0,3.8347 3.1034,5.2176 4.4863,5.7942 3.0237,1.2189 6.6099,1.7158 6.6099,4.8098 0,1.9595 -1.472,3.4221 -3.5862,3.4221 -2.208,0 -4.0035,-1.2235 -4.9832,-3.4221 l -3.4972,1.3079 c 1.547,3.5065 4.4769,5.888 8.4804,5.888 1.9501,0 3.7409,-0.6798 5.0535,-1.8142 1.4626,-1.2986 2.2783,-3.1831 2.2783,-5.302 m -25.1973,-3.5862 -4.641,0 2.3627,-6.5209 2.2783,6.5209 z m 7.51,10.2805 -7.9976,-23.2472 -3.6706,0 -7.9928,23.2472 3.9191,0 2.2783,-6.5255 7.2615,0 2.283,6.5255 3.9191,0 z m -21.0439,0 0,-3.4315 -10.7587,0 0,-19.8157 -3.6706,0 0,23.2472 14.4293,0 z m -17.8515,-19.5766 0,-3.6706 -14.4386,0 0,23.2472 3.6706,0 0,-10.1165 6.7646,0 0,-3.7456 -6.7646,0 0,-5.7145 10.768,0 z"
       style="fill:#000000;fill-opacity:1;fill-rule:evenodd;stroke:none"
       id="path3167"
       inkscape:connector-curvature="0" />
  </g>
</svg>
