<?xml version="1.0" encoding="UTF-8" standalone="no"?>
<!-- Created with Inkscape (http://www.inkscape.org/) -->
<svg
   xmlns:dc="http://purl.org/dc/elements/1.1/"
   xmlns:cc="http://web.resource.org/cc/"
   xmlns:rdf="http://www.w3.org/1999/02/22-rdf-syntax-ns#"
   xmlns:svg="http://www.w3.org/2000/svg"
   xmlns="http://www.w3.org/2000/svg"
   xmlns:sodipodi="http://sodipodi.sourceforge.net/DTD/sodipodi-0.dtd"
   xmlns:inkscape="http://www.inkscape.org/namespaces/inkscape"
   width="601"
   height="601"
   id="svg2"
   sodipodi:version="0.32"
   inkscape:version="0.44"
   version="1.0"
   sodipodi:docbase="C:\Documents and Settings\ltljltlj\Desktop\Signs\Speed Limit Signs"
   sodipodi:docname="Night Speed 5 sign (Outline).svg">
  <defs
     id="defs4" />
  <sodipodi:namedview
     id="base"
     pagecolor="#ffffff"
     bordercolor="#666666"
     borderopacity="1.0"
     gridtolerance="10000"
     guidetolerance="10"
     objecttolerance="10"
     inkscape:pageopacity="0.0"
     inkscape:pageshadow="2"
     inkscape:zoom="1.2866667"
     inkscape:cx="300.00001"
     inkscape:cy="300.00001"
     inkscape:document-units="px"
     inkscape:current-layer="layer1"
     width="601px"
     height="601px"
     inkscape:window-width="1280"
     inkscape:window-height="968"
     inkscape:window-x="-4"
     inkscape:window-y="-4" />
  <metadata
     id="metadata7">
    <rdf:RDF>
      <cc:Work
         rdf:about="">
        <dc:format>image/svg+xml</dc:format>
        <dc:type
           rdf:resource="http://purl.org/dc/dcmitype/StillImage" />
      </cc:Work>
    </rdf:RDF>
  </metadata>
  <g
     inkscape:label="Layer 1"
     inkscape:groupmode="layer"
     id="layer1">
    <path
       style="color:black;fill:white;fill-opacity:1;fill-rule:nonzero;stroke:black;stroke-width:1;stroke-linecap:butt;stroke-linejoin:miter;stroke-miterlimit:4;stroke-dashoffset:0;stroke-opacity:1;marker:none;marker-start:none;marker-mid:none;marker-end:none;visibility:visible;display:inline;overflow:visible"
       d="M 38,0.5 L 563,0.5 C 583.775,0.5 600.5,17.225 600.5,38 L 600.5,563 C 600.5,583.775 583.775,600.5 563,600.5 L 38,600.5 C 17.225,600.5 0.5,583.775 0.5,563 L 0.5,38 C 0.5,17.225 17.225,0.5 38,0.5 z "
       id="rect1872" />
    <path
       style="color:black;fill:black;fill-opacity:1;fill-rule:nonzero;stroke:none;stroke-width:0.8735441;stroke-linecap:butt;stroke-linejoin:miter;stroke-miterlimit:4;stroke-dashoffset:0;stroke-opacity:1;marker:none;marker-start:none;marker-mid:none;marker-end:none;visibility:visible;display:inline;overflow:visible"
       d="M 38,13 L 563,13 C 576.85,13 588,24.15 588,38 L 588,563 C 588,576.85 576.85,588 563,588 L 38,588 C 24.15,588 13,576.85 13,563 L 13,38 C 13,24.15 24.15,13 38,13 z "
       id="rect2760" />
    <path
       style="font-size:373.12701416px;font-style:normal;font-variant:normal;font-weight:normal;font-stretch:normal;text-align:center;line-height:125%;writing-mode:lr-tb;text-anchor:middle;fill:white;fill-opacity:1;font-family:Roadgeek 2005 Series E"
       d="M 401.43354,414.67669 C 401.43332,427.86283 398.82003,439.9899 393.59364,451.05794 C 388.36683,462.12607 381.09059,471.64175 371.76489,479.60498 C 362.43881,487.56825 351.3081,493.78741 338.37271,498.26247 C 325.43701,502.73753 311.38175,504.97506 296.2069,504.97506 C 279.0429,504.97506 262.62485,502.6749 246.95272,498.07458 C 231.28046,493.47427 215.4849,486.44854 199.566,476.99737 L 223.06863,438.93085 C 245.46287,452.618 269.84226,459.46154 296.2069,459.46149 C 315.10907,459.46154 329.90828,455.54254 340.60455,447.70449 C 351.3005,439.86654 356.64856,428.85729 356.64874,414.67669 C 356.64856,407.96608 355.2195,401.56284 352.36156,395.46693 C 349.50327,389.37124 345.70953,384.33442 340.98032,380.35647 C 332.27296,373.3878 318.71493,369.9034 300.30619,369.90327 C 292.0999,369.9034 284.32833,370.64924 276.99145,372.1408 C 269.65438,373.63262 261.38178,376.12066 252.17363,379.60493 L 207.40021,368.03581 L 215.23442,250.49989 L 382.03021,250.49989 L 381.27867,294.53316 L 257.40023,294.53316 L 254.79262,330.35645 C 264.98764,328.11719 273.56769,326.50025 280.53278,325.50562 C 287.49769,324.51133 294.96181,324.0141 302.92519,324.01393 C 317.10558,324.0141 330.22711,326.31426 342.28981,330.91441 C 354.3522,335.5149 364.7997,341.85741 373.63235,349.94197 C 382.46461,358.02684 389.30625,367.60324 394.15729,378.67121 C 399.00791,389.73942 401.43332,401.74123 401.43354,414.67669 L 401.43354,414.67669 z "
       id="text2784" />
    <g
       id="g2838"
       transform="matrix(1.024272,0,0,1,-561.6895,0.5)"
       style="fill:white;fill-opacity:1">
      <path
         id="text2802"
         d="M 704.31489,175.00049 L 662.22883,123.17177 L 662.22883,175.00049 L 648.01112,175.00049 L 648.01112,100.00052 L 662.00337,100.00052 L 704.09285,152.38948 L 704.09285,100.00052 L 718.53261,100.00052 L 718.53261,175.00049 L 704.31489,175.00049 z "
         style="font-size:111.93800354px;font-style:normal;font-variant:normal;font-weight:normal;font-stretch:normal;text-align:center;line-height:125%;writing-mode:lr-tb;text-anchor:middle;fill:white;fill-opacity:1;font-family:Roadgeek 2005 Series F" />
      <path
         id="text2808"
         d="M 750.16701,175.00049 L 750.16701,100.00052 L 764.38472,100.00052 C 764.45757,114.03155 764.49401,126.5321 764.49403,137.50221 C 764.49401,142.20277 764.49401,146.79169 764.49403,151.269 C 764.49401,155.74636 764.49401,159.7574 764.49403,163.30213 C 764.49401,166.84689 764.47579,169.6828 764.43937,171.80987 C 764.40291,173.93695 764.38469,175.00049 764.38472,175.00049 L 750.16701,175.00049 z "
         style="font-size:111.93800354px;font-style:normal;font-variant:normal;font-weight:normal;font-stretch:normal;text-align:center;line-height:125%;writing-mode:lr-tb;text-anchor:middle;fill:white;fill-opacity:1;font-family:Roadgeek 2005 Series F" />
      <path
         id="text2814"
         d="M 1018.6073,114.21823 L 1018.6073,175.00049 L 1004.393,175.00049 L 1004.393,114.21823 L 978.64606,114.21823 L 978.64606,100.00052 L 1043.1211,100.00052 L 1043.1211,114.21823 L 1018.6073,114.21823 z "
         style="font-size:111.93800354px;font-style:normal;font-variant:normal;font-weight:normal;font-stretch:normal;text-align:center;line-height:125%;writing-mode:lr-tb;text-anchor:middle;fill:white;fill-opacity:1;font-family:Roadgeek 2005 Series F" />
      <path
         id="text2820"
         d="M 944.46376,175.00049 L 944.46376,142.31547 L 902.37769,142.31547 L 902.37769,175.00049 L 888.15998,175.00049 L 888.15998,100.00052 L 902.37769,100.00052 L 902.37769,127.87571 L 944.46376,127.87571 L 944.46376,100.00052 L 958.45601,100.00052 L 958.45601,175.00049 L 944.46376,175.00049 z "
         style="font-size:111.93800354px;font-style:normal;font-variant:normal;font-weight:normal;font-stretch:normal;text-align:center;line-height:125%;writing-mode:lr-tb;text-anchor:middle;fill:white;fill-opacity:1;font-family:Roadgeek 2005 Series F" />
      <path
         id="text2826"
         d="M 861.43005,142.31547 C 861.42997,147.01602 860.55318,151.41876 858.79967,155.52373 C 857.04601,159.62873 854.6206,163.22927 851.52343,166.32536 C 848.42612,169.42147 844.788,171.8651 840.60906,173.65626 C 836.43001,175.44742 831.95268,176.34301 827.17705,176.34301 C 822.17815,176.34301 817.3279,175.33583 812.62627,173.32149 C 807.92458,171.30714 803.89419,168.43366 800.53507,164.70102 C 797.47652,161.41932 795.14505,157.44643 793.54065,152.78232 C 791.93622,148.11827 791.13401,143.06134 791.13402,137.61153 C 791.13401,131.79285 792.0666,126.49509 793.93179,121.71823 C 795.79695,116.94147 798.40854,112.85528 801.76656,109.45964 C 805.12454,106.06413 809.13558,103.41496 813.79969,101.51214 C 818.46374,99.609457 823.63226,98.658081 829.30526,98.658005 C 836.91623,98.658081 843.55708,100.59841 849.22782,104.479 C 851.24324,105.74757 852.9974,107.14702 854.49029,108.67736 C 855.98304,110.20783 857.84879,112.3907 860.08753,115.22598 L 848.22008,123.39723 C 845.60786,119.66693 842.80953,117.03656 839.82507,115.5061 C 836.84051,113.97575 833.22118,113.21055 828.96707,113.21049 C 821.72951,113.21055 815.98367,115.41221 811.72955,119.81548 C 807.47537,124.21885 805.3483,130.26359 805.34832,137.94972 C 805.3483,141.45693 805.87096,144.68455 806.9163,147.63259 C 807.96159,150.58069 809.43563,153.09947 811.33841,155.18895 C 813.24113,157.27847 815.5356,158.9011 818.2218,160.05686 C 820.90794,161.21265 823.89302,161.79053 827.17705,161.79052 C 830.23553,161.79053 833.12724,161.21265 835.85217,160.05686 C 838.57701,158.9011 840.87204,157.20388 842.73728,154.9652 C 843.33389,154.14308 843.93057,153.28451 844.5273,152.38948 C 845.12392,151.49449 845.75817,150.18841 846.43006,148.47124 L 829.52731,148.47124 L 829.52731,133.91875 L 861.43005,133.91875 L 861.43005,142.31547 L 861.43005,142.31547 z "
         style="font-size:111.93800354px;font-style:normal;font-variant:normal;font-weight:normal;font-stretch:normal;text-align:center;line-height:125%;writing-mode:lr-tb;text-anchor:middle;fill:white;fill-opacity:1;font-family:Roadgeek 2005 Series F" />
    </g>
  </g>
</svg>
