<svg xmlns="http://www.w3.org/2000/svg" width="513" height="512" viewBox="0 0 513 512">
  <g fill="none" fill-rule="evenodd">
    <circle cx="256" cy="256" r="256" fill="#FFF"/>
    <path fill="#D81E00" d="M257,512 C115.615104,512 1,397.384896 1,256 C1,114.615104 115.615104,0 257,0 C398.384896,0 513,114.615104 513,256 C513,397.384896 398.384896,512 257,512 Z M257,467 C373.532082,467 468,372.532082 468,256 C468,139.467918 373.532082,45 257,45 C140.467918,45 46,139.467918 46,256 C46,372.532082 140.467918,467 257,467 Z"/>
    <g fill="#000" fill-rule="nonzero" transform="translate(93 138)">
      <path d="M284.333 91L274.988 91 267.245 69.195 262.617 76.582 262.617 91 254.073 91 254.073 30.569 262.617 26.119 262.617 54.154C262.617 57.7733514 262.557667 61.1256512 262.439 64.211 263.09167 62.8463265 264.367324 60.4433505 266.266 57.002L273.297 44.275 282.998 44.275 272.941 60.473 284.333 91zM341.115 91L332.571 91 332.571 62.253C332.571 58.7523158 332.452335 56.438339 332.215 55.311 331.56233 52.7003203 330.049345 51.395 327.676 51.395 324.768652 51.395 322.454675 52.8189858 320.734 55.667L320.734 91 312.19 91 312.19 62.253C312.19 58.7523158 312.071335 56.438339 311.834 55.311 311.18133 52.7003203 309.668345 51.395 307.295 51.395 304.387652 51.395 302.073675 52.8189858 300.353 55.667L300.353 91 291.809 91 291.809 44.275 300.353 44.275 300.353 47.479C302.548344 44.6903194 305.455649 43.296 309.075 43.296 313.465689 43.296 316.610324 44.9573167 318.509 48.28 321.416348 44.9573167 325.065311 43.296 329.456 43.296 333.965356 43.296 337.080325 44.8089849 338.801 47.835 340.343674 50.564347 341.115 55.1923007 341.115 61.719L341.115 91zM111.6165 213L.3885 213C1.98317464 182.701182 7.36512082 158.681755 16.5345 140.941 24.5078732 125.791591 38.5607327 109.944749 58.6935 93.4 72.8462374 81.8386089 79.9225 69.7790628 79.9225 57.221 79.9225 38.8822416 71.4509181 29.713 54.5075 29.713 43.7434462 29.713 32.0825628 35.4936089 19.5245 47.055L1.2855 25.826C17.8302494 8.88258195 36.1687327.411 56.3015.411 73.4442524.411 86.6499537 5.19495216 95.919 14.763 105.188046 24.3310478 109.8225 37.1879193 109.8225 53.334 109.8225 65.8920628 107.231193 76.705788 102.0485 85.7755 96.8658074 94.845212 87.8958971 104.662281 75.1385 115.227 62.3811029 125.791719 53.2118612 135.459289 47.6305 144.23 40.4544641 154.994054 35.8698433 168.149922 33.8765 183.698L111.6165 183.698 111.6165 213zM242.1065 108.051C242.1065 140.542496 237.322548 166.156573 227.7545 184.894 216.990446 205.824105 201.043939 216.289 179.9145 216.289 158.984395 216.289 143.237219 205.92377 132.6725 185.193 123.303786 166.654907 118.6195 141.140496 118.6195 108.649 118.6195 76.1575042 123.403452 50.543427 132.9715 31.806 143.536219 10.8758954 159.283395.411 180.2135.411 201.342939.411 217.189781 10.676564 227.7545 31.208 237.322548 49.5467584 242.1065 75.1608356 242.1065 108.051zM212.8045 108.649C212.8045 55.6260682 201.741611 29.115 179.6155 29.115 158.486061 29.115 147.9215 55.4267369 147.9215 108.051 147.9215 161.073932 158.884724 187.585 180.8115 187.585 202.140273 187.585 212.8045 161.273263 212.8045 108.649z"/>
    </g>
  </g>
</svg>
