<?xml version="1.0" encoding="UTF-8" standalone="no"?>
<!-- Created with Inkscape (http://www.inkscape.org/) -->

<svg
   xmlns:dc="http://purl.org/dc/elements/1.1/"
   xmlns:cc="http://creativecommons.org/ns#"
   xmlns:rdf="http://www.w3.org/1999/02/22-rdf-syntax-ns#"
   xmlns:svg="http://www.w3.org/2000/svg"
   xmlns="http://www.w3.org/2000/svg"
   xmlns:sodipodi="http://sodipodi.sourceforge.net/DTD/sodipodi-0.dtd"
   xmlns:inkscape="http://www.inkscape.org/namespaces/inkscape"
   width="606mm"
   height="626mm"
   viewBox="0 0 606.00001 625.99998"
   version="1.1"
   id="svg823"
   inkscape:version="0.92.2 (5c3e80d, 2017-08-06)"
   sodipodi:docname="Singapore Template 2.svg">
  <defs
     id="defs817" />
  <sodipodi:namedview
     id="base"
     pagecolor="#ffffff"
     bordercolor="#666666"
     borderopacity="1.0"
     inkscape:pageopacity="0.0"
     inkscape:pageshadow="2"
     inkscape:zoom="0.16"
     inkscape:cx="802.02203"
     inkscape:cy="976.71602"
     inkscape:document-units="mm"
     inkscape:current-layer="layer1"
     showgrid="false"
     inkscape:window-width="1920"
     inkscape:window-height="1057"
     inkscape:window-x="-8"
     inkscape:window-y="-8"
     inkscape:window-maximized="1"
     inkscape:snap-global="false"
     fit-margin-top="0"
     fit-margin-left="0"
     fit-margin-right="0"
     fit-margin-bottom="0"
     showguides="false" />
  <metadata
     id="metadata820">
    <rdf:RDF>
      <cc:Work
         rdf:about="">
        <dc:format>image/svg+xml</dc:format>
        <dc:type
           rdf:resource="http://purl.org/dc/dcmitype/StillImage" />
        <dc:title></dc:title>
      </cc:Work>
    </rdf:RDF>
  </metadata>
  <g
     inkscape:label="Layer 1"
     inkscape:groupmode="layer"
     id="layer1"
     transform="translate(-299.9,540.99998)">
    <rect
       style="opacity:1;fill:#000000;fill-opacity:1;fill-rule:nonzero;stroke:none;stroke-width:0.06751946;stroke-linecap:square;stroke-linejoin:round;stroke-miterlimit:10;stroke-dasharray:none;stroke-opacity:1;paint-order:stroke fill markers"
       id="rect1368"
       width="604"
       height="624"
       x="300.89999"
       y="-540"
       rx="52"
       ry="52" />
    <rect
       ry="50"
       rx="50"
       y="-537.99994"
       x="302.89999"
       height="620"
       width="600"
       id="rect1370"
       style="opacity:1;fill:#ffffff;fill-opacity:1;fill-rule:nonzero;stroke:none;stroke-width:0.06707946;stroke-linecap:square;stroke-linejoin:round;stroke-miterlimit:10;stroke-dasharray:none;stroke-opacity:1;paint-order:stroke fill markers" />
    <rect
       style="opacity:1;fill:#0046aa;fill-opacity:1;fill-rule:nonzero;stroke:none;stroke-width:0;stroke-linecap:square;stroke-linejoin:miter;stroke-miterlimit:10;stroke-dasharray:none;stroke-opacity:1;paint-order:fill markers stroke"
       id="rect826"
       width="570"
       height="590"
       x="317.89999"
       y="-522.99994"
       rx="35"
       ry="35" />
    <path
       style="opacity:1;fill:#ffffff;fill-opacity:1;stroke:none;stroke-width:13.33825779;stroke-linejoin:bevel;stroke-miterlimit:10;stroke-dasharray:none;stroke-opacity:1"
       d="m 437.89982,-487.99997 c -16.62038,0 -29.99972,13.37918 -29.99972,29.99912 l -8e-5,5.33123 c -1.2e-4,9.14247 4.16871,17.78586 11.32351,23.47758 l 34.90284,27.76685 c 2.385,1.89715 3.77458,4.77843 3.7745,7.82583 v 15.60006 c 8e-5,5.53999 -4.46043,9.99835 -10.00057,9.99835 h -10.0006 c -5.54003,0 -9.99854,-4.45836 -9.99846,-9.99843 l -8e-5,-10.00035 h -20.00114 v 10.00043 c 0,16.61998 13.37942,29.99916 29.99968,29.99916 h 10.0006 c 16.62033,0 29.99972,-13.37914 29.99972,-29.99916 v -15.60006 c 8e-5,-9.14243 -4.16876,-17.78594 -11.32352,-23.47766 l -34.90288,-27.76672 c -2.38487,-1.89716 -3.7745,-4.77856 -3.7745,-7.82588 l 1.2e-4,-0.1304 v 0 l -1.2e-4,-5.20071 c 1.2e-4,-5.54007 4.45851,-9.99834 9.99858,-9.99834 h 10.00056 c 5.54018,4e-5 10.00057,4.45827 10.00069,9.9983 l -1.2e-4,10.00039 19.99915,4e-5 v -10.00039 c 0,-16.61998 -13.37935,-29.9992 -29.99972,-29.9992 z"
       id="path2735"
       inkscape:connector-curvature="0"
       sodipodi:nodetypes="ssccccssssccssssccccccssssccsss" />
    <path
       style="opacity:1;fill:#ffffff;fill-opacity:1;fill-rule:nonzero;stroke:none;stroke-width:0.19641197;stroke-linecap:square;stroke-linejoin:round;stroke-miterlimit:1.41400003;stroke-dasharray:none;stroke-opacity:1;paint-order:stroke fill markers"
       d="m 742.89998,-291.99959 h 19.9999 v 79.99972 l 19.9999,-39.9999 h 20 l -24.9999,49.99987 24.9999,49.9999 h -20 l -19.9999,-39.99988 v 39.99992 h -19.9999 z"
       id="rect20112"
       inkscape:connector-curvature="0"
       sodipodi:nodetypes="cccccccccccc" />
    <path
       sodipodi:nodetypes="ccccc"
       inkscape:connector-curvature="0"
       id="path2279"
       d="m 479.90002,-111.99999 h 20 l -30,140.000015 h -20 z"
       style="opacity:1;fill:#ffffff;fill-opacity:1;fill-rule:nonzero;stroke:none;stroke-width:0.55160266;stroke-linecap:square;stroke-linejoin:round;stroke-miterlimit:1.41400003;stroke-dasharray:none;stroke-opacity:1;paint-order:markers stroke fill" />
    <path
       style="opacity:1;fill:#ffffff;fill-opacity:1;fill-rule:nonzero;stroke:none;stroke-width:0.55160266;stroke-linecap:square;stroke-linejoin:round;stroke-miterlimit:1.41400003;stroke-dasharray:none;stroke-opacity:1;paint-order:markers stroke fill"
       d="m 499.90002,-111.99999 h -20 l 30,140.000015 h 20 z"
       id="path2281"
       inkscape:connector-curvature="0"
       sodipodi:nodetypes="ccccc" />
    <rect
       y="-11.999954"
       x="459.89993"
       height="20"
       width="60"
       id="rect2283"
       style="opacity:1;fill:#ffffff;fill-opacity:1;fill-rule:nonzero;stroke:none;stroke-width:0.76946497;stroke-linecap:square;stroke-linejoin:round;stroke-miterlimit:1.41400003;stroke-dasharray:none;stroke-opacity:1;paint-order:markers stroke fill" />
    <path
       style="opacity:1;fill:#ffffff;fill-opacity:1;fill-rule:nonzero;stroke:none;stroke-width:16.48843765;stroke-linecap:square;stroke-linejoin:miter;stroke-miterlimit:8;stroke-dasharray:none;stroke-opacity:1;paint-order:markers stroke fill"
       d="m 549.90002,28.000025 v -100.0001 h 19.9998 v 11.9998 c 0,-6.648 5.3518,-11.9998 11.9998,-11.9998 h 18.0005 v 19.9998 h -18.0005 c -6.648,0 -11.9998,5.3524 -11.9998,12.0004 v 67.9999 z"
       id="rect9694"
       inkscape:connector-curvature="0" />
    <path
       sodipodi:nodetypes="ssssccssccssssccss"
       inkscape:connector-curvature="0"
       id="path2142"
       d="m 645.90031,-72.000075 c -16.62,0 -30.00029,13.3802 -30.00029,30.0002 v 40.0001994 c 0,16.6200006 13.38029,29.9997006 30.00029,29.9997006 16.62,0 29.9997,-13.3797 29.9997,-29.9997006 h -19.9998 c 0,5.53991 -4.4599,9.9999003 -9.9999,9.9999003 -5.54,0 -10.0005,-4.4599903 -10.0005,-9.9999003 V -12.000186 h 40.0002 v -29.999689 c 0,-16.62 -13.3797,-30.0002 -29.9997,-30.0002 z m 0,20.0003 c 5.54,0 9.9999,4.4599 9.9999,9.9999 v 9.99989 h -20.0004 v -9.99989 c 0,-5.54 4.4605,-9.9999 10.0005,-9.9999 z"
       style="opacity:1;fill:#ffffff;fill-opacity:1;fill-rule:nonzero;stroke:none;stroke-width:26.87698174;stroke-linecap:square;stroke-linejoin:miter;stroke-miterlimit:8;stroke-dasharray:none;stroke-opacity:1;paint-order:markers stroke fill" />
    <path
       style="opacity:1;fill:#ffffff;fill-opacity:1;fill-rule:nonzero;stroke:none;stroke-width:0.19575283;stroke-linecap:square;stroke-linejoin:round;stroke-miterlimit:10;stroke-dasharray:none;stroke-opacity:1;paint-order:stroke fill markers"
       d="m 715.89981,-71.999555 c -11.08,0 -19.9998,8.9198 -19.9998,19.99981 v 9.99991 h 19.9998 v -5.99964 c 0,-2.21601 1.7843,-4.00027 4.0003,-4.00027 h 11.9998 c 2.216,0 4.0003,1.78426 4.0003,4.00027 v 5.91386 l -28.5694,23.97166 c -7.2459,6.080019 -11.4307,15.0551795 -11.4308,24.5140294 v 1.5999903 c 1e-4,11.0799103 8.9201,20.0000203 20,19.9999603 h 12.0001 c 4.432,0 7.9995,-3.56791 7.9995,-8 0,4.43209 3.5685,8 8.0004,8 h 20 c -4.432,6e-5 -7.9995,-3.56794 -7.9995,-8 v -71.99977 c -1e-4,-11.08001 -8.9205,-19.99981 -20.0005,-19.99981 z"
       id="rect815-2"
       inkscape:connector-curvature="0"
       sodipodi:nodetypes="ssccsssscccccscscssss" />
    <path
       style="opacity:1;fill:#0046aa;fill-opacity:1;fill-rule:nonzero;stroke:none;stroke-width:0.31435701;stroke-linecap:square;stroke-linejoin:round;stroke-miterlimit:1.41400003;stroke-dasharray:none;stroke-opacity:1;paint-order:stroke fill markers"
       d="m 720.40001,-9.2515156 c -2.8531,2.39404 -4.5,5.9271401 -4.5,9.65160004 V 4.0003644 c 0,2.216 1.784,3.9997203 4,3.9997203 l 12,4e-5 c 2.2161,10e-6 4,-1.7837603 4,-3.9997803 V -22.258905 Z"
       id="path7367-2"
       inkscape:connector-curvature="0"
       sodipodi:nodetypes="cscssccc" />
    <path
       inkscape:connector-curvature="0"
       id="path13833-5"
       d="m 797.90012,-487.99991 h -19.9999 v 139.99964 h 19.9999 z"
       style="opacity:1;fill:#ffffff;fill-opacity:1;fill-rule:nonzero;stroke:none;stroke-width:0.19315763;stroke-linecap:square;stroke-linejoin:round;stroke-miterlimit:1.41400003;stroke-dasharray:none;stroke-opacity:1;paint-order:stroke fill markers" />
    <rect
       rx="21.99995"
       y="-447.99997"
       x="737.8999"
       height="99.999771"
       width="43.999901"
       id="rect13835-7"
       style="opacity:1;fill:#ffffff;fill-opacity:1;fill-rule:nonzero;stroke:none;stroke-width:0.23386975;stroke-linecap:square;stroke-linejoin:round;stroke-miterlimit:1.41400003;stroke-dasharray:none;stroke-opacity:1;paint-order:stroke fill markers"
       ry="22" />
    <rect
       style="opacity:1;fill:#0046aa;fill-opacity:1;fill-rule:nonzero;stroke:none;stroke-width:0.12213452;stroke-linecap:square;stroke-linejoin:round;stroke-miterlimit:1.41400003;stroke-dasharray:none;stroke-opacity:1;paint-order:stroke fill markers"
       id="rect13837-1"
       width="19.999954"
       height="59.999863"
       x="757.8999"
       y="-428.00003"
       rx="9.9999771"
       ry="10" />
    <path
       style="opacity:1;fill:#ffffff;fill-opacity:1;fill-rule:nonzero;stroke:none;stroke-width:0.46834129;stroke-linecap:square;stroke-linejoin:round;stroke-miterlimit:1.41400003;stroke-dasharray:none;stroke-opacity:1;paint-order:markers stroke fill"
       d="m 502.90002,-291.99995 h 20 v 139.99999 h -20 z"
       id="rect2874"
       inkscape:connector-curvature="0" />
    <path
       style="opacity:1;fill:#ffffff;fill-opacity:1;fill-rule:nonzero;stroke:none;stroke-width:0.47611263;stroke-linecap:square;stroke-linejoin:round;stroke-miterlimit:1.41400003;stroke-dasharray:none;stroke-opacity:1;paint-order:markers stroke fill"
       d="m 562.89992,-152.00001 v -77.99974 c 0,-12.188 -9.8122,-22.00021 -22.0002,-22.00021 -12.188,0 -21.9997,9.81221 -21.9997,22.00021 v 77.99974 h 3.9998 v -70.00024 c 0,-5.53999 4.4599,-9.9999 9.9999,-9.9999 5.54,0 10.0004,4.45991 10.0004,9.9999 v 70.00024 z"
       id="rect2886"
       inkscape:connector-curvature="0"
       sodipodi:nodetypes="csssccssscc" />
    <path
       style="opacity:1;fill:#ffffff;fill-opacity:1;fill-rule:nonzero;stroke:none;stroke-width:26.87698174;stroke-linecap:square;stroke-linejoin:miter;stroke-miterlimit:8;stroke-dasharray:none;stroke-opacity:1;paint-order:markers stroke fill"
       d="m 612.90018,-252.00005 c -16.61996,0 -30.00016,13.3802 -30.00016,30.0002 v 40.0002 c 0,16.62 13.3802,29.99969 30.00016,29.99969 16.62,0 29.9997,-13.37969 29.9997,-29.99969 h -19.9998 c 0,5.53991 -4.4599,9.9999 -9.9999,9.9999 -5.54,0 -10.0005,-4.45999 -10.0005,-9.9999 v -10.00051 h 40.0002 v -29.99969 c 0,-16.62 -13.3797,-30.0002 -29.9997,-30.0002 z m 0,20.0003 c 5.54,0 9.9999,4.4599 9.9999,9.9999 v 9.99989 h -20.0004 v -9.99989 c 0,-5.54 4.4605,-9.9999 10.0005,-9.9999 z"
       id="path2228"
       inkscape:connector-curvature="0"
       sodipodi:nodetypes="ssssccssccssssccss" />
    <path
       style="opacity:1;fill:#ffffff;fill-opacity:1;fill-rule:nonzero;stroke:none;stroke-width:0.19315763;stroke-linecap:square;stroke-linejoin:round;stroke-miterlimit:1.41400003;stroke-dasharray:none;stroke-opacity:1;paint-order:stroke fill markers"
       d="m 497.90002,-308.00014 h 19.9999 v -139.99964 h -19.9999 z"
       id="path2260"
       inkscape:connector-curvature="0" />
    <rect
       ry="22"
       style="opacity:1;fill:#ffffff;fill-opacity:1;fill-rule:nonzero;stroke:none;stroke-width:0.23386975;stroke-linecap:square;stroke-linejoin:round;stroke-miterlimit:1.41400003;stroke-dasharray:none;stroke-opacity:1;paint-order:stroke fill markers"
       id="rect2262"
       width="43.999901"
       height="99.999771"
       x="513.90021"
       y="-447.99997"
       rx="21.99995" />
    <rect
       ry="10"
       rx="9.9999771"
       y="-427.99997"
       x="517.90015"
       height="59.999863"
       width="19.999954"
       id="rect2264"
       style="opacity:1;fill:#0046aa;fill-opacity:1;fill-rule:nonzero;stroke:none;stroke-width:0.12213452;stroke-linecap:square;stroke-linejoin:round;stroke-miterlimit:1.41400003;stroke-dasharray:none;stroke-opacity:1;paint-order:stroke fill markers" />
    <path
       style="opacity:1;fill:#ffffff;fill-opacity:1;fill-rule:nonzero;stroke:none;stroke-width:26.87698174;stroke-linecap:square;stroke-linejoin:miter;stroke-miterlimit:8;stroke-dasharray:none;stroke-opacity:1;paint-order:markers stroke fill"
       d="m 607.90032,-448.00024 c -16.62001,0 -30.0003,13.3802 -30.0003,30.0002 v 40.0002 c 0,16.62 13.38029,29.9997 30.0003,29.9997 16.62,0 29.9997,-13.3797 29.9997,-29.9997 h -19.9998 c 0,5.53991 -4.4599,9.9999 -9.9999,9.9999 -5.54,0 -10.0005,-4.45999 -10.0005,-9.9999 v -10.00051 h 40.0002 v -29.99969 c 0,-16.62 -13.3797,-30.0002 -29.9997,-30.0002 z m 0,20.0003 c 5.54,0 9.9999,4.4599 9.9999,9.9999 v 9.99989 h -20.0004 v -9.99989 c 0,-5.54 4.4605,-9.9999 10.0005,-9.9999 z"
       id="path2277"
       inkscape:connector-curvature="0"
       sodipodi:nodetypes="ssssccssccssssccss" />
    <path
       sodipodi:nodetypes="ssssccssccssssccss"
       inkscape:connector-curvature="0"
       id="path2297"
       d="m 687.90032,-448.00024 c -16.62,0 -30.0003,13.3802 -30.0003,30.0002 v 40.0002 c 0,16.62 13.3803,29.9997 30.0003,29.9997 16.62,0 29.9997,-13.3797 29.9997,-29.9997 h -19.9998 c 0,5.53991 -4.4599,9.9999 -9.9999,9.9999 -5.54,0 -10.0005,-4.45999 -10.0005,-9.9999 v -10.00051 h 40.0002 v -29.99969 c 0,-16.62 -13.3797,-30.0002 -29.9997,-30.0002 z m 0,20.0003 c 5.54,0 9.9999,4.4599 9.9999,9.9999 v 9.99989 h -20.0004 v -9.99989 c 0,-5.54 4.4605,-9.9999 10.0005,-9.9999 z"
       style="opacity:1;fill:#ffffff;fill-opacity:1;fill-rule:nonzero;stroke:none;stroke-width:26.87698174;stroke-linecap:square;stroke-linejoin:miter;stroke-miterlimit:8;stroke-dasharray:none;stroke-opacity:1;paint-order:markers stroke fill" />
    <path
       style="opacity:1;fill:#ffffff;fill-opacity:1;fill-rule:nonzero;stroke:none;stroke-width:0.71131259;stroke-linecap:square;stroke-linejoin:round;stroke-miterlimit:1.41400003;stroke-dasharray:none;stroke-opacity:1;paint-order:markers stroke fill"
       d="m 432.90026,-151.99996 c -16.62,0 -30.00024,-13.37972 -30.00024,-29.99971 v -80.00029 c 0,-16.61999 13.38024,-29.99971 30.00024,-29.99971 h 19.99981 c 16.62,0 29.99972,13.37972 29.99972,29.99971 v 20.00029 h -19.99982 v -20.00029 c 0,-5.53998 -4.4599,-9.99991 -9.9999,-9.99991 h -19.99981 c -5.54,0 -10.00043,4.45993 -10.00043,9.99991 v 80.00029 c 0,5.54 4.46043,9.9999 10.00043,9.9999 h 19.99981 c 5.54,0 9.9999,-4.4599 9.9999,-9.9999 v -20.00028 h 19.99982 v 20.00028 c 0,16.61999 -13.37972,29.99971 -29.99972,29.99971 z"
       id="rect2299"
       inkscape:connector-curvature="0"
       sodipodi:nodetypes="ssssssccssssssssccsss" />
    <path
       style="opacity:1;fill:#ffffff;fill-opacity:1;fill-rule:nonzero;stroke:none;stroke-width:0.74097025;stroke-linecap:square;stroke-linejoin:round;stroke-miterlimit:1.41400003;stroke-dasharray:none;stroke-opacity:1;paint-order:markers stroke fill"
       d="m 692.90028,-252.00004 c -16.62,0 -30.0003,13.38024 -30.0003,30.00024 v 40.00015 c 0,16.61999 13.3803,29.99969 30.0003,29.99969 16.62,0 29.9997,-13.3797 29.9997,-29.99969 h -19.9998 c 0,5.53998 -4.4599,9.9999 -9.9999,9.9999 -5.54,0 -10.0004,-4.45992 -10.0004,-9.9999 v -40.00015 c 0,-5.54 4.4604,-9.99991 10.0004,-9.99991 5.54,0 9.9999,4.45991 9.9999,9.99991 h 19.9998 c 0,-16.62 -13.3797,-30.00024 -29.9997,-30.00024 z"
       id="rect2327"
       inkscape:connector-curvature="0"
       sodipodi:nodetypes="sssssssssssss" />
  </g>
</svg>
