<svg xmlns="http://www.w3.org/2000/svg" width="513" height="512" viewBox="0 0 513 512">
  <g fill="none" fill-rule="evenodd">
    <circle cx="256" cy="256" r="256" fill="#FFF"/>
    <path fill="#D81E00" d="M257,512 C115.615104,512 1,397.384896 1,256 C1,114.615104 115.615104,0 257,0 C398.384896,0 513,114.615104 513,256 C513,397.384896 398.384896,512 257,512 Z M257,467 C373.532082,467 468,372.532082 468,256 C468,139.467918 373.532082,45 257,45 C140.467918,45 46,139.467918 46,256 C46,372.532082 140.467918,467 257,467 Z"/>
    <g fill="#000" fill-rule="nonzero" transform="translate(93 138)">
      <path d="M279.333 91L269.988 91 262.245 69.195 257.617 76.582 257.617 91 249.073 91 249.073 30.569 257.617 26.119 257.617 54.154C257.617 57.7733514 257.557667 61.1256512 257.439 64.211 258.09167 62.8463265 259.367324 60.4433505 261.266 57.002L268.297 44.275 277.998 44.275 267.941 60.473 279.333 91zM336.115 91L327.571 91 327.571 62.253C327.571 58.7523158 327.452335 56.438339 327.215 55.311 326.56233 52.7003203 325.049345 51.395 322.676 51.395 319.768652 51.395 317.454675 52.8189858 315.734 55.667L315.734 91 307.19 91 307.19 62.253C307.19 58.7523158 307.071335 56.438339 306.834 55.311 306.18133 52.7003203 304.668345 51.395 302.295 51.395 299.387652 51.395 297.073675 52.8189858 295.353 55.667L295.353 91 286.809 91 286.809 44.275 295.353 44.275 295.353 47.479C297.548344 44.6903194 300.455649 43.296 304.075 43.296 308.465689 43.296 311.610324 44.9573167 313.509 48.28 316.416348 44.9573167 320.065311 43.296 324.456 43.296 328.965356 43.296 332.080325 44.8089849 333.801 47.835 335.343674 50.564347 336.115 55.1923007 336.115 61.719L336.115 91zM111.3175 33.6C91.98207 56.1247793 78.2282075 83.4331729 70.0555 115.526 63.2781328 142.037466 59.8895 174.528474 59.8895 213L30.5875 213C30.5875 133.664937 47.0323356 73.3672063 79.9225 32.105L.0895 32.105.0895 3.7 111.3175 3.7 111.3175 33.6zM237.0235 108.051C237.0235 140.542496 232.239548 166.156573 222.6715 184.894 211.907446 205.824105 195.960939 216.289 174.8315 216.289 153.901395 216.289 138.154219 205.92377 127.5895 185.193 118.220786 166.654907 113.5365 141.140496 113.5365 108.649 113.5365 76.1575042 118.320452 50.543427 127.8885 31.806 138.453219 10.8758954 154.200395.411 175.1305.411 196.259939.411 212.106781 10.676564 222.6715 31.208 232.239548 49.5467584 237.0235 75.1608356 237.0235 108.051zM207.7215 108.649C207.7215 55.6260682 196.658611 29.115 174.5325 29.115 153.403061 29.115 142.8385 55.4267369 142.8385 108.051 142.8385 161.073932 153.801724 187.585 175.7285 187.585 197.057273 187.585 207.7215 161.273263 207.7215 108.649z"/>
    </g>
  </g>
</svg>
