<?xml version="1.0" encoding="UTF-8" standalone="no"?>
<!-- Created with Inkscape (http://www.inkscape.org/) -->

<svg
   xmlns:dc="http://purl.org/dc/elements/1.1/"
   xmlns:cc="http://creativecommons.org/ns#"
   xmlns:rdf="http://www.w3.org/1999/02/22-rdf-syntax-ns#"
   xmlns:svg="http://www.w3.org/2000/svg"
   xmlns="http://www.w3.org/2000/svg"
   xmlns:sodipodi="http://sodipodi.sourceforge.net/DTD/sodipodi-0.dtd"
   xmlns:inkscape="http://www.inkscape.org/namespaces/inkscape"
   width="606mm"
   height="906mm"
   viewBox="0 0 606 905.99997"
   version="1.1"
   id="svg823"
   inkscape:version="0.92.2 (5c3e80d, 2017-08-06)"
   sodipodi:docname="Singapore Template 2.svg">
  <defs
     id="defs817" />
  <sodipodi:namedview
     id="base"
     pagecolor="#ffffff"
     bordercolor="#666666"
     borderopacity="1.0"
     inkscape:pageopacity="0.0"
     inkscape:pageshadow="2"
     inkscape:zoom="0.10730898"
     inkscape:cx="1874.443"
     inkscape:cy="1539.0593"
     inkscape:document-units="mm"
     inkscape:current-layer="layer1"
     showgrid="false"
     inkscape:window-width="1920"
     inkscape:window-height="1057"
     inkscape:window-x="-8"
     inkscape:window-y="-8"
     inkscape:window-maximized="1"
     inkscape:snap-global="false" />
  <metadata
     id="metadata820">
    <rdf:RDF>
      <cc:Work
         rdf:about="">
        <dc:format>image/svg+xml</dc:format>
        <dc:type
           rdf:resource="http://purl.org/dc/dcmitype/StillImage" />
        <dc:title></dc:title>
      </cc:Work>
    </rdf:RDF>
  </metadata>
  <g
     inkscape:label="Layer 1"
     inkscape:groupmode="layer"
     id="layer1"
     transform="translate(0,609)">
    <rect
       style="opacity:1;fill:#000000;fill-opacity:1;fill-rule:nonzero;stroke:none;stroke-width:0.08126824;stroke-linecap:square;stroke-linejoin:round;stroke-miterlimit:10;stroke-dasharray:none;stroke-opacity:1;paint-order:stroke fill markers"
       id="rect1368"
       width="604"
       height="904"
       x="1"
       y="-608"
       rx="52"
       ry="52" />
    <rect
       ry="50"
       rx="50"
       y="-606"
       x="3"
       height="900"
       width="600"
       id="rect1370"
       style="opacity:1;fill:#ffffff;fill-opacity:1;fill-rule:nonzero;stroke:none;stroke-width:0.08081928;stroke-linecap:square;stroke-linejoin:round;stroke-miterlimit:10;stroke-dasharray:none;stroke-opacity:1;paint-order:stroke fill markers" />
    <rect
       style="opacity:1;fill:#0046aa;fill-opacity:1;fill-rule:nonzero;stroke:none;stroke-width:0;stroke-linecap:square;stroke-linejoin:miter;stroke-miterlimit:10;stroke-dasharray:none;stroke-opacity:1;paint-order:fill markers stroke"
       id="rect826"
       width="576"
       height="876"
       x="15"
       y="-594"
       rx="38"
       ry="38" />
    <path
       style="opacity:1;fill:#ffffff;fill-opacity:1;fill-rule:nonzero;stroke:none;stroke-width:0.10392315;stroke-linecap:square;stroke-linejoin:round;stroke-miterlimit:1.41400003;stroke-dasharray:none;stroke-opacity:1;paint-order:markers stroke fill"
       d="M 102.99994,154.00006 V 198.9999 H 42.999937 V 214 h 75.000103 v -44.99983 h 60 V 214 h 249.9997 v -44.99983 h 60.0005 V 214 h 74.9995 v -15.0001 h -59.9999 v -44.99984 h -89.9997 v 44.99984 h -220 v -44.99984 z"
       id="rect815"
       inkscape:connector-curvature="0"
       sodipodi:nodetypes="ccccccccccccccccccccc" />
    <path
       sodipodi:nodetypes="ssccccssssccssssccccccssssccsss"
       inkscape:connector-curvature="0"
       id="path1438"
       d="m 173.2498,-188.99973 c -12.4652,0 -22.4998,10.03437 -22.4998,22.49931 v 3.99839 c -1e-4,6.85687 3.1265,13.33941 8.4926,17.60818 l 26.1772,20.82511 c 1.7887,1.42287 2.8309,3.58382 2.8308,5.86937 v 11.7 c 1e-4,4.15505 -3.3453,7.49878 -7.5004,7.49878 l -7.5005,-3e-5 c -4.155,0 -7.4989,-3.3437 -7.4988,-7.49875 l -1e-4,-7.50028 H 150.75 v 7.50028 c 0,12.465 10.0346,22.49937 22.4997,22.49937 h 7.5005 c 12.4652,0 22.4998,-10.03431 22.4998,-22.49937 v -11.7 c 0,-6.85682 -3.1266,-13.33944 -8.4926,-17.60822 l -26.1772,-20.82502 c -1.7887,-1.42286 -2.8309,-3.58388 -2.8309,-5.86942 l 1e-4,-0.0978 v 0 l -1e-4,-3.90053 c 1e-4,-4.15505 3.3439,-7.49872 7.4989,-7.49872 h 7.5005 c 4.1551,3e-5 7.5004,3.34367 7.5005,7.49869 l -1e-4,7.50028 14.9994,6e-5 v -7.50028 c 0,-12.46497 -10.0346,-22.49937 -22.4998,-22.49937 z"
       style="opacity:1;fill:#ffffff;fill-opacity:1;fill-rule:nonzero;stroke:none;stroke-width:10.0036869;stroke-linejoin:bevel;stroke-miterlimit:10;stroke-dasharray:none;stroke-opacity:1" />
    <path
       style="opacity:1;fill:#ffffff;fill-opacity:1;fill-rule:nonzero;stroke:none;stroke-width:0.03258763;stroke-linecap:square;stroke-linejoin:round;stroke-miterlimit:10;stroke-dasharray:none;stroke-opacity:1;paint-order:stroke fill markers"
       d="m 288,-358.99973 h 15 V -254 h -15 z"
       id="rect29426"
       inkscape:connector-curvature="0"
       sodipodi:nodetypes="ccccc" />
    <path
       style="opacity:1;fill:#ffffff;fill-opacity:1;fill-rule:nonzero;stroke:none;stroke-width:0.07305802;stroke-linecap:square;stroke-linejoin:round;stroke-miterlimit:1.41400003;stroke-dasharray:none;stroke-opacity:1;paint-order:stroke fill markers"
       d="m 430.5,-254 v -75.00041 h 15 V -254 Z m 0,-89.99967 V -359 h 15 v 15.00033 z"
       id="rect13728"
       inkscape:connector-curvature="0"
       sodipodi:nodetypes="cccccccccc" />
    <path
       sodipodi:nodetypes="cccccccccc"
       inkscape:connector-curvature="0"
       id="path2178"
       d="m 320.2496,-84 v -75.00008 h 15 V -84 Z m 0,-90 v -14.99952 h 15 V -174 Z"
       style="opacity:1;fill:#ffffff;fill-opacity:1;fill-rule:nonzero;stroke:none;stroke-width:0.07305785;stroke-linecap:square;stroke-linejoin:round;stroke-miterlimit:1.41400003;stroke-dasharray:none;stroke-opacity:1;paint-order:stroke fill markers" />
    <path
       inkscape:connector-curvature="0"
       id="path13833-4"
       d="M 453,-18.99979 H 438.0001 V 85.99994 H 453 Z"
       style="opacity:1;fill:#ffffff;fill-opacity:1;fill-rule:nonzero;stroke:none;stroke-width:0.14486821;stroke-linecap:square;stroke-linejoin:round;stroke-miterlimit:1.41400003;stroke-dasharray:none;stroke-opacity:1;paint-order:stroke fill markers" />
    <rect
       rx="16.499962"
       y="11.000183"
       x="407.99991"
       height="74.999825"
       width="32.999924"
       id="rect13835-1"
       style="opacity:1;fill:#ffffff;fill-opacity:1;fill-rule:nonzero;stroke:none;stroke-width:0.1754023;stroke-linecap:square;stroke-linejoin:round;stroke-miterlimit:1.41400003;stroke-dasharray:none;stroke-opacity:1;paint-order:stroke fill markers"
       ry="16.5" />
    <rect
       style="opacity:1;fill:#0046aa;fill-opacity:1;fill-rule:nonzero;stroke:none;stroke-width:0.09160089;stroke-linecap:square;stroke-linejoin:round;stroke-miterlimit:1.41400003;stroke-dasharray:none;stroke-opacity:1;paint-order:stroke fill markers"
       id="rect13837-0"
       width="14.999966"
       height="44.999897"
       x="422.99991"
       y="26.000122"
       rx="7.4999828"
       ry="7.5" />
    <path
       sodipodi:nodetypes="ccccc"
       inkscape:connector-curvature="0"
       id="path2279"
       d="m 175.5,-19 h 15 L 168,86 h -15 z"
       style="opacity:1;fill:#ffffff;fill-opacity:1;fill-rule:nonzero;stroke:none;stroke-width:0.41370198;stroke-linecap:square;stroke-linejoin:round;stroke-miterlimit:1.41400003;stroke-dasharray:none;stroke-opacity:1;paint-order:markers stroke fill" />
    <path
       style="opacity:1;fill:#ffffff;fill-opacity:1;fill-rule:nonzero;stroke:none;stroke-width:0.41370198;stroke-linecap:square;stroke-linejoin:round;stroke-miterlimit:1.41400003;stroke-dasharray:none;stroke-opacity:1;paint-order:markers stroke fill"
       d="m 190.5,-19 h -15 L 198,86 h 15 z"
       id="path2281"
       inkscape:connector-curvature="0"
       sodipodi:nodetypes="ccccc" />
    <rect
       y="56"
       x="160.50005"
       height="15"
       width="45"
       id="rect2283"
       style="opacity:1;fill:#ffffff;fill-opacity:1;fill-rule:nonzero;stroke:none;stroke-width:0.57709873;stroke-linecap:square;stroke-linejoin:round;stroke-miterlimit:1.41400003;stroke-dasharray:none;stroke-opacity:1;paint-order:markers stroke fill" />
    <path
       style="opacity:1;fill:#ffffff;fill-opacity:1;fill-rule:nonzero;stroke:none;stroke-width:20.15773582;stroke-linecap:square;stroke-linejoin:miter;stroke-miterlimit:8;stroke-dasharray:none;stroke-opacity:1;paint-order:markers stroke fill"
       d="M 310.5002,10.99992 C 298.0352,10.99992 288,21.03508 288,33.50007 V 63.50023 C 288,75.96522 298.0352,86 310.5002,86 322.9652,86 333,75.96522 333,63.50023 h -14.9999 c 0,4.15492 -3.3449,7.49992 -7.4999,7.49992 -4.155,0 -7.5003,-3.345 -7.5003,-7.49992 V 55.99985 H 333 V 33.50007 C 333,21.03508 322.9652,10.99992 310.5002,10.99992 Z m 0,15.00023 c 4.155,0 7.4999,3.34492 7.4999,7.49992 v 7.49992 h -15.0002 v -7.49992 c 0,-4.155 3.3453,-7.49992 7.5003,-7.49992 z"
       id="path2294"
       inkscape:connector-curvature="0"
       sodipodi:nodetypes="ssssccssccssssccss" />
    <path
       style="opacity:1;fill:#ffffff;fill-opacity:1;fill-rule:nonzero;stroke:none;stroke-width:0.35125595;stroke-linecap:square;stroke-linejoin:round;stroke-miterlimit:1.41400003;stroke-dasharray:none;stroke-opacity:1;paint-order:markers stroke fill"
       d="m 228,-19 h 15 V 86 h -15 z"
       id="rect2874"
       inkscape:connector-curvature="0" />
    <path
       style="opacity:1;fill:#ffffff;fill-opacity:1;fill-rule:nonzero;stroke:none;stroke-width:0.35708445;stroke-linecap:square;stroke-linejoin:round;stroke-miterlimit:1.41400003;stroke-dasharray:none;stroke-opacity:1;paint-order:markers stroke fill"
       d="M 272.9999,85.99996 V 27.50016 C 272.9999,18.35916 265.6408,11 256.4998,11 247.3588,11 240,18.35916 240,27.50016 v 58.4998 h 2.9998 V 33.49978 c 0,-4.15499 3.345,-7.49993 7.5,-7.49993 4.155,0 7.5003,3.34494 7.5003,7.49993 v 52.50018 z"
       id="rect2886"
       inkscape:connector-curvature="0"
       sodipodi:nodetypes="csssccssscc" />
    <path
       style="opacity:1;fill:#ffffff;fill-opacity:1;fill-rule:nonzero;stroke:none;stroke-width:0.14681461;stroke-linecap:square;stroke-linejoin:round;stroke-miterlimit:10;stroke-dasharray:none;stroke-opacity:1;paint-order:stroke fill markers"
       d="m 362.9999,11.00032 c -8.31,0 -14.9999,6.68985 -14.9999,14.99986 v 7.49993 h 14.9999 v -4.49973 c 0,-1.662 1.3382,-3.0002 3.0002,-3.0002 h 8.9998 c 1.662,0 3.0003,1.3382 3.0003,3.0002 v 4.4354 L 356.5731,51.41452 C 351.1387,55.97454 348.0001,62.7059 348,69.80004 v 1.19999 c 10e-5,8.30993 6.6901,15.00001 15,14.99997 h 9.0001 c 3.324,0 5.9996,-2.67593 5.9996,-6 0,3.32407 2.6764,6 6.0003,6 h 15 c -3.324,4e-5 -5.9996,-2.67596 -5.9996,-6 V 26.00018 C 393.0003,17.69017 386.31,11.00032 378,11.00032 Z"
       id="rect815-2"
       inkscape:connector-curvature="0"
       sodipodi:nodetypes="ssccsssscccccscscssss" />
    <path
       style="opacity:1;fill:#0046aa;fill-opacity:1;fill-rule:nonzero;stroke:none;stroke-width:0.23576775;stroke-linecap:square;stroke-linejoin:round;stroke-miterlimit:1.41400003;stroke-dasharray:none;stroke-opacity:1;paint-order:stroke fill markers"
       d="M 366.375,58.06135 C 364.2352,59.85688 363,62.5067 363,65.30005 v 2.70021 c 0,1.662 1.338,2.99979 3,2.99979 l 9,3e-5 c 1.6621,0 3,-1.33782 3,-2.99984 V 48.3058 Z"
       id="path7367-2"
       inkscape:connector-curvature="0"
       sodipodi:nodetypes="cscssccc" />
    <path
       sodipodi:nodetypes="cccccssccsscccccc"
       inkscape:connector-curvature="0"
       id="path8990"
       d="m 222.75,-189 v 30.00002 h -7.5 v 15.00001 h 7.5 v 45.00011 C 222.75,-90.68985 229.4398,-84 237.7499,-84 H 252.75 v -14.99986 h -11.9999 c -1.662,0 -3.0002,-1.33815 -3.0002,-3.00023 v -41.99988 H 252.75 v -15.00001 H 237.7499 V -189 Z"
       style="opacity:1;fill:#ffffff;fill-opacity:1;fill-rule:nonzero;stroke:none;stroke-width:12.83233929;stroke-linecap:square;stroke-linejoin:miter;stroke-miterlimit:8;stroke-dasharray:none;stroke-opacity:1;paint-order:markers stroke fill" />
    <path
       style="opacity:1;fill:#ffffff;fill-opacity:1;fill-rule:nonzero;stroke:none;stroke-width:12.36631584;stroke-linecap:square;stroke-linejoin:miter;stroke-miterlimit:8;stroke-dasharray:none;stroke-opacity:1;paint-order:markers stroke fill"
       d="m 267.75,-84 v -75 h 14.9998 v 8.99984 c 0,-4.98599 4.0139,-8.99984 8.9999,-8.99984 H 305.25 v 14.99984 h -13.5003 c -4.986,0 -8.9999,4.01429 -8.9999,9.00029 V -84 Z"
       id="rect9694"
       inkscape:connector-curvature="0" />
    <path
       style="opacity:1;fill:#ffffff;fill-opacity:1;fill-rule:nonzero;stroke:none;stroke-width:0.14486821;stroke-linecap:square;stroke-linejoin:round;stroke-miterlimit:1.41400003;stroke-dasharray:none;stroke-opacity:1;paint-order:stroke fill markers"
       d="m 350.25,-54 h 14.9999 V -158.99973 H 350.25 Z"
       id="path2341"
       inkscape:connector-curvature="0" />
    <rect
       ry="16.5"
       style="opacity:1;fill:#ffffff;fill-opacity:1;fill-rule:nonzero;stroke:none;stroke-width:0.1754023;stroke-linecap:square;stroke-linejoin:round;stroke-miterlimit:1.41400003;stroke-dasharray:none;stroke-opacity:1;paint-order:stroke fill markers"
       id="rect2343"
       width="32.999924"
       height="74.999825"
       x="362.25012"
       y="-158.99976"
       rx="16.499962" />
    <rect
       ry="7.5"
       rx="7.4999828"
       y="-143.99976"
       x="365.25012"
       height="44.999897"
       width="14.999966"
       id="rect2345"
       style="opacity:1;fill:#0046aa;fill-opacity:1;fill-rule:nonzero;stroke:none;stroke-width:0.09160089;stroke-linecap:square;stroke-linejoin:round;stroke-miterlimit:1.41400003;stroke-dasharray:none;stroke-opacity:1;paint-order:stroke fill markers" />
    <path
       style="opacity:1;fill:#ffffff;fill-opacity:1;fill-rule:nonzero;stroke:none;stroke-width:0.17607437;stroke-linecap:square;stroke-linejoin:round;stroke-miterlimit:1.41400003;stroke-dasharray:none;stroke-opacity:1;paint-order:markers stroke fill"
       d="m 436.5787,-128.03941 13.0294,10.40151 c 3.5655,2.84633 5.6419,7.16067 5.6419,11.72293 v 6.91508 C 455.2501,-90.68985 448.5601,-84 440.2501,-84 l -15.0002,-2e-5 c -8.31,3e-5 -14.9999,-6.68984 -14.9999,-14.99985 v -7.49995 h 14.9999 v 4.49972 c 0,1.66204 1.3382,3.00023 3.0002,3.00023 h 8.9999 c 1.6619,-2e-5 3.0001,-1.33815 3.0001,-3.00022 l -4e-4,-2.47117 c 0,-0.91239 -0.4152,-1.77515 -1.1282,-2.34442 l -11.9012,-9.5007 z"
       id="path8480"
       inkscape:connector-curvature="0"
       sodipodi:nodetypes="csscssscccssccccc" />
    <path
       sodipodi:nodetypes="csscssscccssccccc"
       inkscape:connector-curvature="0"
       id="path8670"
       d="m 428.9216,-114.95854 -13.0297,-10.4011 c -3.5655,-2.84624 -5.6419,-7.16068 -5.6419,-11.72293 v -6.91756 c 0,-8.31002 6.6899,-14.99988 14.9999,-14.99987 l 15.0002,1e-5 c 8.31,1e-5 14.9999,6.68984 14.9999,14.99986 v 7.49994 h -14.9999 v -4.49972 c 0,-1.66204 -1.3381,-3.00022 -3.0001,-3.00022 h -8.9999 c -1.662,0 -3.0002,1.33815 -3.0002,3.00022 l 4e-4,2.47363 c 0,0.91237 0.4152,1.77515 1.1282,2.34442 l 11.9013,9.5007 z"
       style="opacity:1;fill:#ffffff;fill-opacity:1;fill-rule:nonzero;stroke:none;stroke-width:0.17607437;stroke-linecap:square;stroke-linejoin:round;stroke-miterlimit:1.41400003;stroke-dasharray:none;stroke-opacity:1;paint-order:markers stroke fill" />
    <path
       sodipodi:nodetypes="ssssccccssccssss"
       inkscape:connector-curvature="0"
       id="path60"
       d="m 70.4999,-299.00017 c 12.465,0 22.5001,-10.03478 22.5001,-22.49979 v -15.00025 C 93,-348.96522 82.9649,-359 70.4999,-359 H 40.5 v 105 h 15 v -45.00017 z m 0,-14.99986 H 55.5 v -30.00011 h 14.9999 c 4.155,0 7.5003,3.34492 7.5003,7.49993 v 15.00025 c 0,4.15499 -3.3453,7.49993 -7.5003,7.49993 z"
       style="opacity:1;fill:#ffffff;fill-opacity:1;fill-rule:nonzero;stroke:none;stroke-width:13.86610317;stroke-linecap:square;stroke-linejoin:miter;stroke-miterlimit:8;stroke-dasharray:none;stroke-opacity:1;paint-order:markers stroke fill" />
    <path
       sodipodi:nodetypes="ccccc"
       style="opacity:1;fill:#ffffff;fill-opacity:1;fill-rule:nonzero;stroke:none;stroke-width:12.20519924;stroke-linecap:square;stroke-linejoin:miter;stroke-miterlimit:8;stroke-dasharray:none;stroke-opacity:1;paint-order:markers stroke fill"
       d="M 69,-308.00003 H 84 L 93,-254 H 78 Z"
       id="path62"
       inkscape:connector-curvature="0" />
    <path
       sodipodi:nodetypes="ssssccssccssssccss"
       inkscape:connector-curvature="0"
       id="path2403"
       d="m 130.5002,-329.00008 c -12.465,0 -22.5002,10.03516 -22.5002,22.50015 v 30.00016 C 108,-264.03478 118.0352,-254 130.5002,-254 142.9652,-254 153,-264.03478 153,-276.49977 h -14.9999 c 0,4.15492 -3.3449,7.49992 -7.4999,7.49992 -4.155,0 -7.5004,-3.345 -7.5004,-7.49992 v -7.50038 H 153 v -22.49978 c 0,-12.46499 -10.0348,-22.50015 -22.4998,-22.50015 z m 0,15.00023 c 4.155,0 7.4999,3.34492 7.4999,7.49992 v 7.49992 h -15.0003 v -7.49992 c 0,-4.155 3.3454,-7.49992 7.5004,-7.49992 z"
       style="opacity:1;fill:#ffffff;fill-opacity:1;fill-rule:nonzero;stroke:none;stroke-width:20.15773582;stroke-linecap:square;stroke-linejoin:miter;stroke-miterlimit:8;stroke-dasharray:none;stroke-opacity:1;paint-order:markers stroke fill" />
    <rect
       style="opacity:1;fill:#ffffff;fill-opacity:1;fill-rule:nonzero;stroke:none;stroke-width:0.1754023;stroke-linecap:square;stroke-linejoin:round;stroke-miterlimit:1.41400003;stroke-dasharray:none;stroke-opacity:1;paint-order:stroke fill markers"
       id="rect851-9"
       width="32.999924"
       height="74.999825"
       x="167.99998"
       y="-328.99997"
       rx="16.499962"
       ry="16.5" />
    <rect
       rx="7.4999824"
       y="-313.9996"
       x="182.99998"
       height="44.999897"
       width="14.999965"
       id="rect853-0"
       style="opacity:1;fill:#0046aa;fill-opacity:1;fill-rule:nonzero;stroke:none;stroke-width:0.09160088;stroke-linecap:square;stroke-linejoin:round;stroke-miterlimit:1.41400003;stroke-dasharray:none;stroke-opacity:1;paint-order:stroke fill markers"
       ry="7.5" />
    <path
       style="opacity:1;fill:#ffffff;fill-opacity:1;fill-rule:nonzero;stroke:none;stroke-width:16.14657211;stroke-linecap:square;stroke-linejoin:miter;stroke-miterlimit:8;stroke-dasharray:none;stroke-opacity:1;paint-order:markers stroke fill"
       d="m 198.0003,-328.99989 v 82.50009 c 0,4.15501 -3.3449,7.49992 -7.4999,7.49992 -4.155,0 -7.5004,-3.34491 -7.5004,-7.49992 h -14.9999 c 0,12.46502 10.0353,22.4998 22.5003,22.4998 12.465,0 22.4998,-10.03478 22.4998,-22.4998 v -82.50009 z"
       id="rect64"
       inkscape:connector-curvature="0"
       sodipodi:nodetypes="cssccsscc" />
    <path
       id="path2933"
       d="m 273,-329 h -15 v 75 h 15 z"
       style="opacity:1;fill:#ffffff;fill-opacity:1;fill-rule:nonzero;stroke:none;stroke-width:0.2921558;stroke-linecap:square;stroke-linejoin:round;stroke-miterlimit:1.41400003;stroke-dasharray:none;stroke-opacity:1;paint-order:markers stroke fill"
       inkscape:connector-curvature="0" />
    <path
       sodipodi:nodetypes="csssccssscc"
       inkscape:connector-curvature="0"
       id="path2935"
       d="m 228,-329 v 58.49985 c 0,9.141 7.3591,16.50015 16.5001,16.50015 9.141,0 16.4998,-7.35915 16.4998,-16.50015 V -329 h -2.9998 v 52.50023 c 0,4.155 -3.345,7.49992 -7.5,7.49992 -4.155,0 -7.5003,-3.34492 -7.5003,-7.49992 V -329 Z"
       style="opacity:1;fill:#ffffff;fill-opacity:1;fill-rule:nonzero;stroke:none;stroke-width:0.44877225;stroke-linecap:square;stroke-linejoin:round;stroke-miterlimit:1.41400003;stroke-dasharray:none;stroke-opacity:1;paint-order:markers stroke fill" />
    <path
       sodipodi:nodetypes="ssccsssscccccscscssss"
       inkscape:connector-curvature="0"
       id="path2444"
       d="m 332.9998,-328.99968 c -8.31,0 -14.9998,6.68985 -14.9998,14.99986 v 7.49993 h 14.9998 v -4.49973 c 0,-1.662 1.3383,-3.0002 3.0003,-3.0002 h 8.9998 c 1.662,0 3.0002,1.3382 3.0002,3.0002 v 4.4354 l -21.427,17.97874 c -5.4344,4.56002 -8.573,11.29138 -8.5731,18.38552 v 1.19999 c 10e-5,8.30993 6.6901,15.00001 15,14.99997 h 9.0001 c 3.324,0 5.9996,-2.67593 5.9996,-6 0,3.32407 2.6764,6 6.0003,6 h 15 c -3.324,4e-5 -5.9996,-2.67596 -5.9996,-6 v -53.99982 c -1e-4,-8.31001 -6.6904,-14.99986 -15.0004,-14.99986 z"
       style="opacity:1;fill:#ffffff;fill-opacity:1;fill-rule:nonzero;stroke:none;stroke-width:0.14681461;stroke-linecap:square;stroke-linejoin:round;stroke-miterlimit:10;stroke-dasharray:none;stroke-opacity:1;paint-order:stroke fill markers" />
    <path
       sodipodi:nodetypes="cscssccc"
       inkscape:connector-curvature="0"
       id="path2446"
       d="m 336.375,-281.93865 c -2.1398,1.79553 -3.375,4.44535 -3.375,7.2387 v 2.70021 c 0,1.662 1.338,2.99979 3,2.99979 l 9,3e-5 c 1.6621,0 3,-1.33782 3,-2.99984 v -19.69444 z"
       style="opacity:1;fill:#0046aa;fill-opacity:1;fill-rule:nonzero;stroke:none;stroke-width:0.23576775;stroke-linecap:square;stroke-linejoin:round;stroke-miterlimit:1.41400003;stroke-dasharray:none;stroke-opacity:1;paint-order:stroke fill markers" />
    <path
       sodipodi:nodetypes="cccccssccsscccccc"
       inkscape:connector-curvature="0"
       id="path8990-2"
       d="m 385.5,-359 v 30.00002 H 378 v 15.00001 h 7.5 v 45.00011 c 0,8.31001 6.6898,14.99986 14.9999,14.99986 H 415.5 v -14.99986 h -11.9999 c -1.662,0 -3.0002,-1.33815 -3.0002,-3.00023 v -41.99988 H 415.5 v -15.00001 H 400.4999 V -359 Z"
       style="opacity:1;fill:#ffffff;fill-opacity:1;fill-rule:nonzero;stroke:none;stroke-width:12.83233929;stroke-linecap:square;stroke-linejoin:miter;stroke-miterlimit:8;stroke-dasharray:none;stroke-opacity:1;paint-order:markers stroke fill" />
    <path
       inkscape:connector-curvature="0"
       style="opacity:1;fill:#ffffff;fill-opacity:1;fill-rule:nonzero;stroke:none;stroke-width:0.2921558;stroke-linecap:square;stroke-linejoin:round;stroke-miterlimit:1.41400003;stroke-dasharray:none;stroke-opacity:1;paint-order:markers stroke fill"
       d="m 460.5,-254 h 15 v -75 h -15 z"
       id="path2473" />
    <path
       style="opacity:1;fill:#ffffff;fill-opacity:1;fill-rule:nonzero;stroke:none;stroke-width:0.44877225;stroke-linecap:square;stroke-linejoin:round;stroke-miterlimit:1.41400003;stroke-dasharray:none;stroke-opacity:1;paint-order:markers stroke fill"
       d="m 505.5,-254 v -58.49985 c 0,-9.141 -7.3592,-16.50015 -16.5002,-16.50015 -9.141,0 -16.4997,7.35915 -16.4997,16.50015 V -254 h 2.9997 v -52.50023 c 0,-4.155 3.345,-7.49992 7.5,-7.49992 4.155,0 7.5003,3.34492 7.5003,7.49992 V -254 Z"
       id="path2475"
       inkscape:connector-curvature="0"
       sodipodi:nodetypes="csssccssscc" />
    <rect
       ry="16.5"
       rx="16.499962"
       y="-328.99997"
       x="520.50012"
       height="74.999825"
       width="32.999924"
       id="rect2498"
       style="opacity:1;fill:#ffffff;fill-opacity:1;fill-rule:nonzero;stroke:none;stroke-width:0.1754023;stroke-linecap:square;stroke-linejoin:round;stroke-miterlimit:1.41400003;stroke-dasharray:none;stroke-opacity:1;paint-order:stroke fill markers" />
    <rect
       ry="7.5"
       style="opacity:1;fill:#0046aa;fill-opacity:1;fill-rule:nonzero;stroke:none;stroke-width:0.09160088;stroke-linecap:square;stroke-linejoin:round;stroke-miterlimit:1.41400003;stroke-dasharray:none;stroke-opacity:1;paint-order:stroke fill markers"
       id="rect2500"
       width="14.999965"
       height="44.999897"
       x="535.49988"
       y="-313.9996"
       rx="7.4999824" />
    <path
       sodipodi:nodetypes="cssccsscc"
       inkscape:connector-curvature="0"
       id="path2502"
       d="m 550.5003,-328.99989 v 82.50009 c 0,4.15501 -3.3449,7.49992 -7.4999,7.49992 -4.155,0 -7.5004,-3.34491 -7.5004,-7.49992 h -14.9999 c 0,12.46502 10.0353,22.4998 22.5003,22.4998 12.465,0 22.4998,-10.03478 22.4998,-22.4998 v -82.50009 z"
       style="opacity:1;fill:#ffffff;fill-opacity:1;fill-rule:nonzero;stroke:none;stroke-width:16.14657211;stroke-linecap:square;stroke-linejoin:miter;stroke-miterlimit:8;stroke-dasharray:none;stroke-opacity:1;paint-order:markers stroke fill" />
    <path
       style="opacity:1;fill:#ffffff;fill-opacity:1;fill-rule:nonzero;stroke:none;stroke-width:10.0036869;stroke-linejoin:bevel;stroke-miterlimit:10;stroke-dasharray:none;stroke-opacity:1"
       d="m 179.2498,-528.99977 c -12.4652,0 -22.4997,10.03437 -22.4997,22.49931 l -1e-4,3.99839 c -1e-4,6.85687 3.1265,13.33941 8.4926,17.60818 l 26.1772,20.82511 c 1.7887,1.42287 2.8309,3.58382 2.8308,5.86937 v 11.7 c 1e-4,4.15505 -3.3453,7.49878 -7.5004,7.49878 l -7.5004,-3e-5 c -4.1551,0 -7.4989,-3.3437 -7.4989,-7.49875 v -7.50028 H 156.75 v 7.50028 c 0,12.465 10.0346,22.49937 22.4998,22.49937 h 7.5004 c 12.4653,0 22.4998,-10.03431 22.4998,-22.49937 v -11.7 c 1e-4,-6.85682 -3.1266,-13.33944 -8.4926,-17.60822 l -26.1772,-20.82502 c -1.7887,-1.42286 -2.8309,-3.58388 -2.8309,-5.86942 l 1e-4,-0.0978 v 0 l -1e-4,-3.90053 c 1e-4,-4.15505 3.3439,-7.49872 7.499,-7.49872 h 7.5004 c 4.1551,3e-5 7.5004,3.34367 7.5005,7.49869 l -1e-4,7.50028 14.9994,6e-5 v -7.50028 c 0,-12.46497 -10.0345,-22.49937 -22.4998,-22.49937 z"
       id="path2513"
       inkscape:connector-curvature="0"
       sodipodi:nodetypes="ssccccssssccssssccccccssssccsss" />
    <path
       inkscape:connector-curvature="0"
       id="path2515"
       d="m 224.25,-394 h 14.9999 V -498.99973 H 224.25 Z"
       style="opacity:1;fill:#ffffff;fill-opacity:1;fill-rule:nonzero;stroke:none;stroke-width:0.14486821;stroke-linecap:square;stroke-linejoin:round;stroke-miterlimit:1.41400003;stroke-dasharray:none;stroke-opacity:1;paint-order:stroke fill markers" />
    <rect
       rx="16.499962"
       y="-498.99976"
       x="236.2502"
       height="74.999825"
       width="32.999924"
       id="rect2517"
       style="opacity:1;fill:#ffffff;fill-opacity:1;fill-rule:nonzero;stroke:none;stroke-width:0.1754023;stroke-linecap:square;stroke-linejoin:round;stroke-miterlimit:1.41400003;stroke-dasharray:none;stroke-opacity:1;paint-order:stroke fill markers"
       ry="16.5" />
    <rect
       style="opacity:1;fill:#0046aa;fill-opacity:1;fill-rule:nonzero;stroke:none;stroke-width:0.09160089;stroke-linecap:square;stroke-linejoin:round;stroke-miterlimit:1.41400003;stroke-dasharray:none;stroke-opacity:1;paint-order:stroke fill markers"
       id="rect2519"
       width="14.999966"
       height="44.999897"
       x="239.24995"
       y="-483.99976"
       rx="7.4999828"
       ry="7.5" />
    <path
       style="opacity:1;fill:#ffffff;fill-opacity:1;fill-rule:nonzero;stroke:none;stroke-width:20.15773582;stroke-linecap:square;stroke-linejoin:miter;stroke-miterlimit:8;stroke-dasharray:none;stroke-opacity:1;paint-order:markers stroke fill"
       d="m 306.7502,-499.00012 c -12.465,0 -22.5002,10.03516 -22.5002,22.50015 v 30.00016 c 0,12.46499 10.0352,22.49977 22.5002,22.49977 12.465,0 22.4998,-10.03478 22.4998,-22.49977 h -14.9999 c 0,4.15492 -3.3449,7.49992 -7.4999,7.49992 -4.155,0 -7.5003,-3.345 -7.5003,-7.49992 v -7.50038 H 329.25 v -22.49978 c 0,-12.46499 -10.0348,-22.50015 -22.4998,-22.50015 z m 0,15.00023 c 4.155,0 7.4999,3.34492 7.4999,7.49992 v 7.49992 h -15.0002 v -7.49992 c 0,-4.155 3.3453,-7.49992 7.5003,-7.49992 z"
       id="path2532"
       inkscape:connector-curvature="0"
       sodipodi:nodetypes="ssssccssccssssccss" />
    <path
       sodipodi:nodetypes="ssssccssccssssccss"
       inkscape:connector-curvature="0"
       id="path2552"
       d="m 366.7502,-499.00012 c -12.465,0 -22.5002,10.03516 -22.5002,22.50015 v 30.00016 c 0,12.46499 10.0352,22.49977 22.5002,22.49977 12.465,0 22.4998,-10.03478 22.4998,-22.49977 h -14.9999 c 0,4.15492 -3.3449,7.49992 -7.4999,7.49992 -4.155,0 -7.5003,-3.345 -7.5003,-7.49992 v -7.50038 H 389.25 v -22.49978 c 0,-12.46499 -10.0348,-22.50015 -22.4998,-22.50015 z m 0,15.00023 c 4.155,0 7.4999,3.34492 7.4999,7.49992 v 7.49992 h -15.0002 v -7.49992 c 0,-4.155 3.3453,-7.49992 7.5003,-7.49992 z"
       style="opacity:1;fill:#ffffff;fill-opacity:1;fill-rule:nonzero;stroke:none;stroke-width:20.15773582;stroke-linecap:square;stroke-linejoin:miter;stroke-miterlimit:8;stroke-dasharray:none;stroke-opacity:1;paint-order:markers stroke fill" />
    <path
       style="opacity:1;fill:#ffffff;fill-opacity:1;fill-rule:nonzero;stroke:none;stroke-width:0.14486821;stroke-linecap:square;stroke-linejoin:round;stroke-miterlimit:1.41400003;stroke-dasharray:none;stroke-opacity:1;paint-order:stroke fill markers"
       d="m 449.25,-528.99981 h -14.9999 v 104.99973 H 449.25 Z"
       id="path2565"
       inkscape:connector-curvature="0" />
    <rect
       ry="16.5"
       style="opacity:1;fill:#ffffff;fill-opacity:1;fill-rule:nonzero;stroke:none;stroke-width:0.1754023;stroke-linecap:square;stroke-linejoin:round;stroke-miterlimit:1.41400003;stroke-dasharray:none;stroke-opacity:1;paint-order:stroke fill markers"
       id="rect2567"
       width="32.999924"
       height="74.999825"
       x="404.24994"
       y="-498.99982"
       rx="16.499962" />
    <rect
       ry="7.5"
       rx="7.4999828"
       y="-483.99994"
       x="419.24994"
       height="44.999897"
       width="14.999966"
       id="rect2569"
       style="opacity:1;fill:#0046aa;fill-opacity:1;fill-rule:nonzero;stroke:none;stroke-width:0.09160089;stroke-linecap:square;stroke-linejoin:round;stroke-miterlimit:1.41400003;stroke-dasharray:none;stroke-opacity:1;paint-order:stroke fill markers" />
  </g>
</svg>
