<?xml version="1.0" encoding="UTF-8" standalone="no"?>
<!-- Generator: Adobe Illustrator 12.0.1, SVG Export Plug-In  -->

<svg
   xmlns:dc="http://purl.org/dc/elements/1.1/"
   xmlns:cc="http://creativecommons.org/ns#"
   xmlns:rdf="http://www.w3.org/1999/02/22-rdf-syntax-ns#"
   xmlns:svg="http://www.w3.org/2000/svg"
   xmlns="http://www.w3.org/2000/svg"
   xmlns:sodipodi="http://sodipodi.sourceforge.net/DTD/sodipodi-0.dtd"
   xmlns:inkscape="http://www.inkscape.org/namespaces/inkscape"
   version="1.1"
   width="234.09375"
   height="287.5"
   viewBox="-0.708 0 234.09375 287.5"
   enable-background="new -0.708 0 236 288"
   xml:space="preserve"
   id="svg2"
   inkscape:version="0.48.2 r9819"
   sodipodi:docname="AJAX1.svg"><metadata
   id="metadata38"><rdf:RDF><cc:Work
       rdf:about=""><dc:format>image/svg+xml</dc:format><dc:type
         rdf:resource="http://purl.org/dc/dcmitype/StillImage" /></cc:Work></rdf:RDF></metadata><sodipodi:namedview
   pagecolor="#ffffff"
   bordercolor="#666666"
   borderopacity="1"
   objecttolerance="10"
   gridtolerance="10"
   guidetolerance="10"
   inkscape:pageopacity="0"
   inkscape:pageshadow="2"
   inkscape:window-width="1280"
   inkscape:window-height="1004"
   id="namedview36"
   showgrid="false"
   fit-margin-top="0"
   fit-margin-left="0"
   fit-margin-right="0"
   fit-margin-bottom="0"
   inkscape:zoom="1.6388889"
   inkscape:cx="26.81165"
   inkscape:cy="172.34071"
   inkscape:window-x="-8"
   inkscape:window-y="-8"
   inkscape:window-maximized="1"
   inkscape:current-layer="svg2" />
<defs
   id="defs4">
</defs>
<path
   d="m 19.11775,0.739 h 194.462 c 10.48,0 19.062,8.581 19.062,19.075 v 247.874 c 0,10.496 -8.581,19.073 -19.062,19.073 h -194.462 c -10.493,0 -19.066,-8.577 -19.066,-19.073 V 19.813 c 0,-10.493 8.573,-19.074 19.066,-19.074 z"
   id="path6"
   style="fill:#ffffff;stroke:#000000;stroke-width:1.5;stroke-miterlimit:4;stroke-opacity:1;stroke-dasharray:none"
   inkscape:connector-curvature="0" />

<path
   clip-rule="evenodd"
   d="m 20.13175,5.7 h 192.427 c 8.326,0 15.121,6.808 15.121,15.132 v 245.841 c 0,8.315 -6.795,15.126 -15.121,15.126 h -192.427 c -8.315,0 -15.122,-6.811 -15.122,-15.126 V 20.832 c 0,-8.325 6.807,-15.132 15.122,-15.132"
   id="path10"
   style="fill:#000000;fill-rule:evenodd;stroke:none"
   inkscape:connector-curvature="0" />
<path
   d="m 212.50275,10.147 h -192.304 c -5.93,0 -10.755,4.816 -10.755,10.743 v 245.733 c 0,5.926 4.825,10.746 10.755,10.746 h 192.305 c 5.923,0 10.748,-4.82 10.748,-10.746 V 20.89 c -10e-4,-5.927 -4.826,-10.743 -10.749,-10.743 z"
   id="path12"
   style="fill:#ffffff;fill-opacity:1;stroke:none"
   inkscape:connector-curvature="0" />
<path
   d="m 68.18075,130.366 c -11.515,0 -23.03,-3.932 -31.315,-11.655 -2.387,-1.966 -3.932,-3.511 -7.302,-7.583 l 13.481,-10.111 c 6.6,8.566 15.307,12.217 26.119,12.217 11.515,0 19.52,-5.336 19.52,-13.341 0,-4.494 -2.949,-9.83 -7.302,-12.217 -2.668,-1.264 -5.617,-1.966 -9.268,-1.966 h -4.634 V 68.859 h 4.072 c 7.162,0 12.498,-3.932 12.498,-9.128 0,-5.617 -6.6,-9.97 -16.57,-9.97 -7.864,0 -15.166,3.371 -20.783,9.269 l -12.499,-11.516 c 9.269,-9.549 20.783,-14.604 34.264,-14.604 18.817,0 32.72,11.234 32.72,26.4 0,6.319 -1.966,10.672 -7.583,17.834 9.268,8.285 11.936,13.2 11.936,22.188 -0.001,17.413 -16.149,31.034 -37.354,31.034 z"
   id="path14"
   style="fill:#000000;stroke:none"
   inkscape:connector-curvature="0" />
<path
   d="m 163.52975,130.366 c -12.919,0 -24.434,-3.37 -36.37,-10.532 l 8.847,-14.324 c 8.285,5.055 17.834,7.724 27.523,7.724 14.184,0 22.749,-6.319 22.749,-16.852 0,-5.055 -2.387,-9.97 -5.897,-12.919 -3.37,-2.668 -8.285,-3.932 -15.307,-3.932 -6.179,0 -11.234,0.983 -18.115,3.651 l -16.851,-4.354 2.948,-44.234 h 62.49 v 16.57 h -46.622 l -0.982,13.481 c 7.583,-1.685 12.217,-2.387 18.115,-2.387 21.485,0 37.072,14.604 37.072,34.124 0,19.801 -16.57,33.984 -39.6,33.984 z"
   id="path16"
   style="fill:#000000;stroke:none"
   inkscape:connector-curvature="0" />
<path
   d="m 45.17875,191.094 v -7.523 l 21.076,-23.013 h -19.915 v -6.528 h 27.992 v 7.523 l -20.966,22.902 h 20.966 v 6.639 h -29.153 z"
   id="path18"
   style="fill:#000000;stroke:none"
   inkscape:connector-curvature="0" />
<path
   d="m 96.29275,191.758 c -10.898,0 -15.711,-9.902 -15.711,-19.252 0,-11.838 5.975,-19.141 15.711,-19.141 9.128,0 15.379,7.689 15.379,18.976 0,11.616 -5.975,19.417 -15.379,19.417 z m 0,-31.754 c -5.587,0 -8.962,4.702 -8.962,12.502 0,7.911 3.375,12.613 8.962,12.613 7.026,0 8.741,-6.915 8.741,-12.613 0,-7.8 -3.154,-12.502 -8.741,-12.502 z"
   id="path20"
   style="fill:#000000;stroke:none"
   inkscape:connector-curvature="0" />
<path
   d="m 144.42075,191.094 -17.646,-25.502 v 25.502 h -6.527 V 154.03 h 6.527 l 16.982,24.451 V 154.03 h 6.418 v 37.064 h -5.754 z"
   id="path22"
   style="fill:#000000;stroke:none"
   inkscape:connector-curvature="0" />
<path
   d="M 159.79975,191.094 V 154.03 h 27.051 v 6.639 h -20.303 v 6.859 h 11.064 v 6.805 h -11.064 v 10.123 h 20.967 v 6.639 h -27.715 z"
   id="path24"
   style="fill:#000000;stroke:none"
   inkscape:connector-curvature="0" />
<path
   d="m 52.36975,252.085 -3.651,-8.74 h -16.153 l -3.596,8.74 h -7.302 l 15.6,-37.064 h 6.749 l 15.489,37.064 h -7.136 z m -11.727,-27.826 -5.2,12.503 h 10.4 l -5.2,-12.503 z"
   id="path26"
   style="fill:#000000;stroke:none"
   inkscape:connector-curvature="0" />
<path
   d="m 89.15775,252.085 v -16.153 h -16.652 v 16.153 h -6.638 v -37.064 h 6.638 v 14.328 h 16.651 v -14.328 h 6.638 v 37.064 h -6.637 z"
   id="path28"
   style="fill:#000000;stroke:none"
   inkscape:connector-curvature="0" />
<path
   d="m 105.42075,252.085 v -37.064 h 27.051 v 6.639 h -20.302 v 6.859 h 11.063 v 6.805 h -11.063 v 10.123 h 20.966 v 6.639 h -27.715 z"
   id="path30"
   style="fill:#000000;stroke:none"
   inkscape:connector-curvature="0" />
<path
   d="m 167.87575,252.085 -3.651,-8.74 h -16.153 l -3.596,8.74 h -7.302 l 15.6,-37.064 h 6.749 l 15.49,37.064 h -7.137 z m -11.727,-27.826 -5.2,12.503 h 10.4 l -5.2,-12.503 z"
   id="path32"
   style="fill:#000000;stroke:none"
   inkscape:connector-curvature="0" />
<path
   d="m 202.06375,249.872 c -2.6,1.438 -5.753,2.213 -8.74,2.213 h -11.949 v -37.064 h 11.949 c 3.153,0 6.141,0.774 8.852,2.323 5.753,3.265 8.851,8.852 8.851,16.153 -0.001,7.413 -3.099,13.111 -8.963,16.375 z m -3.153,-26.774 c -1.66,-0.94 -3.597,-1.438 -5.588,-1.438 h -5.2 v 23.787 h 5.2 c 1.991,0 3.762,-0.498 5.366,-1.438 3.872,-2.046 5.698,-5.421 5.698,-10.511 0.001,-4.979 -1.825,-8.353 -5.476,-10.4 z"
   id="path34"
   style="fill:#000000;stroke:none"
   inkscape:connector-curvature="0" />
</svg>