<?xml version="1.0" encoding="UTF-8" standalone="no"?>
<!-- Created with Inkscape (http://www.inkscape.org/) -->
<svg
   xmlns:dc="http://purl.org/dc/elements/1.1/"
   xmlns:cc="http://web.resource.org/cc/"
   xmlns:rdf="http://www.w3.org/1999/02/22-rdf-syntax-ns#"
   xmlns:svg="http://www.w3.org/2000/svg"
   xmlns="http://www.w3.org/2000/svg"
   xmlns:sodipodi="http://sodipodi.sourceforge.net/DTD/sodipodi-0.dtd"
   xmlns:inkscape="http://www.inkscape.org/namespaces/inkscape"
   width="601"
   height="601"
   id="svg2"
   sodipodi:version="0.32"
   inkscape:version="0.44"
   version="1.0"
   sodipodi:docbase="C:\Documents and Settings\ltljltlj\Desktop\Signs\Speed Limit Signs"
   sodipodi:docname="Night Speed 65 sign (Outline).svg">
  <defs
     id="defs4" />
  <sodipodi:namedview
     id="base"
     pagecolor="#ffffff"
     bordercolor="#666666"
     borderopacity="1.0"
     gridtolerance="10000"
     guidetolerance="10"
     objecttolerance="10"
     inkscape:pageopacity="0.0"
     inkscape:pageshadow="2"
     inkscape:zoom="1.2866667"
     inkscape:cx="300.00002"
     inkscape:cy="300.00002"
     inkscape:document-units="px"
     inkscape:current-layer="layer1"
     width="601px"
     height="601px"
     inkscape:window-width="1280"
     inkscape:window-height="968"
     inkscape:window-x="-4"
     inkscape:window-y="-4" />
  <metadata
     id="metadata7">
    <rdf:RDF>
      <cc:Work
         rdf:about="">
        <dc:format>image/svg+xml</dc:format>
        <dc:type
           rdf:resource="http://purl.org/dc/dcmitype/StillImage" />
      </cc:Work>
    </rdf:RDF>
  </metadata>
  <g
     inkscape:label="Layer 1"
     inkscape:groupmode="layer"
     id="layer1">
    <path
       style="color:black;fill:white;fill-opacity:1;fill-rule:nonzero;stroke:black;stroke-width:1;stroke-linecap:butt;stroke-linejoin:miter;marker:none;marker-start:none;marker-mid:none;marker-end:none;stroke-miterlimit:4;stroke-dashoffset:0;stroke-opacity:1;visibility:visible;display:inline;overflow:visible"
       d="M 38,0.5 L 563,0.5 C 583.775,0.5 600.5,17.225 600.5,38 L 600.5,563 C 600.5,583.775 583.775,600.5 563,600.5 L 38,600.5 C 17.225,600.5 0.5,583.775 0.5,563 L 0.5,38 C 0.5,17.225 17.225,0.5 38,0.5 z "
       id="rect1872" />
    <path
       style="color:black;fill:black;fill-opacity:1;fill-rule:nonzero;stroke:none;stroke-width:0.8735441;stroke-linecap:butt;stroke-linejoin:miter;marker:none;marker-start:none;marker-mid:none;marker-end:none;stroke-miterlimit:4;stroke-dashoffset:0;stroke-opacity:1;visibility:visible;display:inline;overflow:visible"
       d="M 38,13 L 563,13 C 576.85,13 588,24.15 588,38 L 588,563 C 588,576.85 576.85,588 563,588 L 38,588 C 24.15,588 13,576.85 13,563 L 13,38 C 13,24.15 24.15,13 38,13 z "
       id="rect2760" />
    <path
       style="font-size:373.12701416px;font-style:normal;font-variant:normal;font-weight:normal;font-stretch:normal;text-align:center;line-height:125%;writing-mode:lr-tb;text-anchor:middle;fill:white;fill-opacity:1;font-family:Roadgeek 2005 Series E"
       d="M 275.52265,427.7375 C 275.52241,438.93471 273.15963,449.25885 268.43428,458.70996 C 263.70848,468.16114 257.11735,476.30659 248.66087,483.14631 C 240.20398,489.98608 230.13035,495.33413 218.43995,499.1905 C 206.7492,503.04687 193.81366,504.97506 179.63329,504.97506 C 164.70869,504.97506 150.84132,502.61227 138.03113,497.8867 C 125.22075,493.16113 113.71426,486.44474 103.51164,477.73752 C 93.316489,469.03034 85.79353,458.39686 80.942741,445.83703 C 76.091873,433.27731 73.666459,418.41548 73.666491,401.25149 C 73.666459,374.87948 79.325759,350.7487 90.644408,328.85907 C 101.96296,306.96978 118.19312,288.68808 139.33493,274.01391 C 146.54655,269.03425 153.88352,264.74138 161.34587,261.13529 C 168.80798,257.52967 176.58145,254.60702 184.66631,252.36735 C 192.75088,250.12817 201.33283,248.51122 210.41217,247.51651 C 219.49117,246.52231 229.50407,246.02508 240.4509,246.02483 L 240.4509,290.79825 L 235.97583,290.79825 C 222.53907,290.79846 210.97185,291.9808 201.27415,294.34528 C 191.57613,296.71017 182.3736,300.50391 173.66653,305.72651 C 162.21875,312.19448 152.88907,319.59598 145.67745,327.93103 C 138.46563,336.26643 131.75114,347.02328 125.53397,360.2016 C 130.99961,358.71385 136.03453,357.41005 140.63874,356.29019 C 145.24275,355.17062 149.7216,354.36215 154.07532,353.86477 C 158.4288,353.36769 162.84313,352.99382 167.31832,352.74316 C 171.79325,352.4928 176.52072,352.36754 181.50074,352.36739 C 195.18009,352.36754 207.74176,354.2331 219.1858,357.96407 C 230.62948,361.69533 240.51712,366.92002 248.84876,373.63818 C 257.17998,380.35659 263.70848,388.31605 268.43428,397.51658 C 273.15963,406.71732 275.52241,416.79095 275.52265,427.7375 L 275.52265,427.7375 z M 230.74923,428.48904 C 230.74904,419.03796 225.89821,411.45048 216.19673,405.72656 C 206.4949,400.00283 193.80987,397.14091 178.1416,397.14081 C 162.46547,397.14091 149.9019,399.9402 140.45085,405.53867 C 130.99961,411.13734 126.27404,418.53694 126.27412,427.7375 C 126.27404,437.43923 130.99961,445.15197 140.45085,450.87575 C 149.9019,456.59962 162.46547,459.46154 178.1416,459.46149 C 193.80987,459.46154 206.4949,456.66225 216.19673,451.06363 C 225.89821,445.46511 230.74904,437.94025 230.74923,428.48904 L 230.74923,428.48904 z M 527.33328,414.67669 C 527.33306,427.86283 524.71976,439.9899 519.49337,451.05794 C 514.26656,462.12607 506.99032,471.64175 497.66462,479.60498 C 488.33854,487.56825 477.20783,493.78741 464.27244,498.26247 C 451.33674,502.73753 437.28149,504.97506 422.10663,504.97506 C 404.94263,504.97506 388.52459,502.6749 372.85245,498.07458 C 357.18019,493.47427 341.38463,486.44854 325.46573,476.99737 L 348.96836,438.93085 C 371.3626,452.618 395.742,459.46154 422.10663,459.46149 C 441.0088,459.46154 455.80801,455.54254 466.50428,447.70449 C 477.20024,439.86654 482.54829,428.85729 482.54847,414.67669 C 482.54829,407.96608 481.11924,401.56284 478.26129,395.46693 C 475.403,389.37124 471.60926,384.33442 466.88005,380.35647 C 458.17269,373.3878 444.61466,369.9034 426.20593,369.90327 C 417.99963,369.9034 410.22806,370.64924 402.89118,372.1408 C 395.55411,373.63262 387.28151,376.12066 378.07336,379.60493 L 333.29994,368.03581 L 341.13415,250.49989 L 507.92994,250.49989 L 507.1784,294.53316 L 383.29996,294.53316 L 380.69235,330.35645 C 390.88737,328.11719 399.46742,326.50025 406.43252,325.50562 C 413.39742,324.51133 420.86155,324.0141 428.82492,324.01393 C 443.00531,324.0141 456.12684,326.31426 468.18955,330.91441 C 480.25193,335.5149 490.69943,341.85741 499.53208,349.94197 C 508.36434,358.02684 515.20598,367.60324 520.05703,378.67121 C 524.90764,389.73942 527.33306,401.74123 527.33328,414.67669 L 527.33328,414.67669 z "
       id="text2784" />
    <g
       id="g2838"
       transform="matrix(1.024272,0,0,1,-561.6895,0.5)"
       style="fill:white;fill-opacity:1">
      <path
         id="text2802"
         d="M 704.31489,175.00049 L 662.22883,123.17177 L 662.22883,175.00049 L 648.01112,175.00049 L 648.01112,100.00052 L 662.00337,100.00052 L 704.09285,152.38948 L 704.09285,100.00052 L 718.53261,100.00052 L 718.53261,175.00049 L 704.31489,175.00049 z "
         style="font-size:111.93800354px;font-style:normal;font-variant:normal;font-weight:normal;font-stretch:normal;text-align:center;line-height:125%;writing-mode:lr-tb;text-anchor:middle;fill:white;fill-opacity:1;font-family:Roadgeek 2005 Series F" />
      <path
         id="text2808"
         d="M 750.16701,175.00049 L 750.16701,100.00052 L 764.38472,100.00052 C 764.45757,114.03155 764.49401,126.5321 764.49403,137.50221 C 764.49401,142.20277 764.49401,146.79169 764.49403,151.269 C 764.49401,155.74636 764.49401,159.7574 764.49403,163.30213 C 764.49401,166.84689 764.47579,169.6828 764.43937,171.80987 C 764.40291,173.93695 764.38469,175.00049 764.38472,175.00049 L 750.16701,175.00049 z "
         style="font-size:111.93800354px;font-style:normal;font-variant:normal;font-weight:normal;font-stretch:normal;text-align:center;line-height:125%;writing-mode:lr-tb;text-anchor:middle;fill:white;fill-opacity:1;font-family:Roadgeek 2005 Series F" />
      <path
         id="text2814"
         d="M 1018.6073,114.21823 L 1018.6073,175.00049 L 1004.393,175.00049 L 1004.393,114.21823 L 978.64606,114.21823 L 978.64606,100.00052 L 1043.1211,100.00052 L 1043.1211,114.21823 L 1018.6073,114.21823 z "
         style="font-size:111.93800354px;font-style:normal;font-variant:normal;font-weight:normal;font-stretch:normal;text-align:center;line-height:125%;writing-mode:lr-tb;text-anchor:middle;fill:white;fill-opacity:1;font-family:Roadgeek 2005 Series F" />
      <path
         id="text2820"
         d="M 944.46376,175.00049 L 944.46376,142.31547 L 902.37769,142.31547 L 902.37769,175.00049 L 888.15998,175.00049 L 888.15998,100.00052 L 902.37769,100.00052 L 902.37769,127.87571 L 944.46376,127.87571 L 944.46376,100.00052 L 958.45601,100.00052 L 958.45601,175.00049 L 944.46376,175.00049 z "
         style="font-size:111.93800354px;font-style:normal;font-variant:normal;font-weight:normal;font-stretch:normal;text-align:center;line-height:125%;writing-mode:lr-tb;text-anchor:middle;fill:white;fill-opacity:1;font-family:Roadgeek 2005 Series F" />
      <path
         id="text2826"
         d="M 861.43005,142.31547 C 861.42997,147.01602 860.55318,151.41876 858.79967,155.52373 C 857.04601,159.62873 854.6206,163.22927 851.52343,166.32536 C 848.42612,169.42147 844.788,171.8651 840.60906,173.65626 C 836.43001,175.44742 831.95268,176.34301 827.17705,176.34301 C 822.17815,176.34301 817.3279,175.33583 812.62627,173.32149 C 807.92458,171.30714 803.89419,168.43366 800.53507,164.70102 C 797.47652,161.41932 795.14505,157.44643 793.54065,152.78232 C 791.93622,148.11827 791.13401,143.06134 791.13402,137.61153 C 791.13401,131.79285 792.0666,126.49509 793.93179,121.71823 C 795.79695,116.94147 798.40854,112.85528 801.76656,109.45964 C 805.12454,106.06413 809.13558,103.41496 813.79969,101.51214 C 818.46374,99.609457 823.63226,98.658081 829.30526,98.658005 C 836.91623,98.658081 843.55708,100.59841 849.22782,104.479 C 851.24324,105.74757 852.9974,107.14702 854.49029,108.67736 C 855.98304,110.20783 857.84879,112.3907 860.08753,115.22598 L 848.22008,123.39723 C 845.60786,119.66693 842.80953,117.03656 839.82507,115.5061 C 836.84051,113.97575 833.22118,113.21055 828.96707,113.21049 C 821.72951,113.21055 815.98367,115.41221 811.72955,119.81548 C 807.47537,124.21885 805.3483,130.26359 805.34832,137.94972 C 805.3483,141.45693 805.87096,144.68455 806.9163,147.63259 C 807.96159,150.58069 809.43563,153.09947 811.33841,155.18895 C 813.24113,157.27847 815.5356,158.9011 818.2218,160.05686 C 820.90794,161.21265 823.89302,161.79053 827.17705,161.79052 C 830.23553,161.79053 833.12724,161.21265 835.85217,160.05686 C 838.57701,158.9011 840.87204,157.20388 842.73728,154.9652 C 843.33389,154.14308 843.93057,153.28451 844.5273,152.38948 C 845.12392,151.49449 845.75817,150.18841 846.43006,148.47124 L 829.52731,148.47124 L 829.52731,133.91875 L 861.43005,133.91875 L 861.43005,142.31547 L 861.43005,142.31547 z "
         style="font-size:111.93800354px;font-style:normal;font-variant:normal;font-weight:normal;font-stretch:normal;text-align:center;line-height:125%;writing-mode:lr-tb;text-anchor:middle;fill:white;fill-opacity:1;font-family:Roadgeek 2005 Series F" />
    </g>
  </g>
</svg>
