<?xml version="1.0" encoding="UTF-8" standalone="no"?>
<!-- Created with Inkscape (http://www.inkscape.org/) -->
<svg
   xmlns:dc="http://purl.org/dc/elements/1.1/"
   xmlns:cc="http://web.resource.org/cc/"
   xmlns:rdf="http://www.w3.org/1999/02/22-rdf-syntax-ns#"
   xmlns:svg="http://www.w3.org/2000/svg"
   xmlns="http://www.w3.org/2000/svg"
   xmlns:sodipodi="http://sodipodi.sourceforge.net/DTD/sodipodi-0.dtd"
   xmlns:inkscape="http://www.inkscape.org/namespaces/inkscape"
   width="601"
   height="601"
   id="svg2"
   sodipodi:version="0.32"
   inkscape:version="0.44"
   version="1.0"
   sodipodi:docbase="C:\Documents and Settings\ltljltlj\Desktop\Signs\Speed Limit Signs"
   sodipodi:docname="Night Speed 60 sign (Outline).svg">
  <defs
     id="defs4" />
  <sodipodi:namedview
     id="base"
     pagecolor="#ffffff"
     bordercolor="#666666"
     borderopacity="1.0"
     gridtolerance="10000"
     guidetolerance="10"
     objecttolerance="10"
     inkscape:pageopacity="0.0"
     inkscape:pageshadow="2"
     inkscape:zoom="1.2866667"
     inkscape:cx="300.00002"
     inkscape:cy="300.00002"
     inkscape:document-units="px"
     inkscape:current-layer="layer1"
     width="601px"
     height="601px"
     inkscape:window-width="1280"
     inkscape:window-height="968"
     inkscape:window-x="-4"
     inkscape:window-y="-4" />
  <metadata
     id="metadata7">
    <rdf:RDF>
      <cc:Work
         rdf:about="">
        <dc:format>image/svg+xml</dc:format>
        <dc:type
           rdf:resource="http://purl.org/dc/dcmitype/StillImage" />
      </cc:Work>
    </rdf:RDF>
  </metadata>
  <g
     inkscape:label="Layer 1"
     inkscape:groupmode="layer"
     id="layer1">
    <path
       style="color:black;fill:white;fill-opacity:1;fill-rule:nonzero;stroke:black;stroke-width:1;stroke-linecap:butt;stroke-linejoin:miter;marker:none;marker-start:none;marker-mid:none;marker-end:none;stroke-miterlimit:4;stroke-dashoffset:0;stroke-opacity:1;visibility:visible;display:inline;overflow:visible"
       d="M 38,0.5 L 563,0.5 C 583.775,0.5 600.5,17.225 600.5,38 L 600.5,563 C 600.5,583.775 583.775,600.5 563,600.5 L 38,600.5 C 17.225,600.5 0.5,583.775 0.5,563 L 0.5,38 C 0.5,17.225 17.225,0.5 38,0.5 z "
       id="rect1872" />
    <path
       style="color:black;fill:black;fill-opacity:1;fill-rule:nonzero;stroke:none;stroke-width:0.8735441;stroke-linecap:butt;stroke-linejoin:miter;marker:none;marker-start:none;marker-mid:none;marker-end:none;stroke-miterlimit:4;stroke-dashoffset:0;stroke-opacity:1;visibility:visible;display:inline;overflow:visible"
       d="M 38,13 L 563,13 C 576.85,13 588,24.15 588,38 L 588,563 C 588,576.85 576.85,588 563,588 L 38,588 C 24.15,588 13,576.85 13,563 L 13,38 C 13,24.15 24.15,13 38,13 z "
       id="rect2760" />
    <path
       style="font-size:373.12701416px;font-style:normal;font-variant:normal;font-weight:normal;font-stretch:normal;text-align:center;line-height:125%;writing-mode:lr-tb;text-anchor:middle;fill:white;fill-opacity:1;font-family:Roadgeek 2005 Series E"
       d="M 264.14715,427.7375 C 264.14692,438.93471 261.78413,449.25885 257.05878,458.70996 C 252.33298,468.16114 245.74185,476.30659 237.28538,483.14631 C 228.82848,489.98608 218.75485,495.33413 207.06446,499.1905 C 195.37371,503.04687 182.43816,504.97506 168.25779,504.97506 C 153.33319,504.97506 139.46582,502.61227 126.65563,497.8867 C 113.84525,493.16113 102.33876,486.44474 92.136143,477.73752 C 81.94099,469.03034 74.418031,458.39686 69.567242,445.83703 C 64.716374,433.27731 62.29096,418.41548 62.290992,401.25149 C 62.29096,374.87948 67.95026,350.7487 79.268909,328.85907 C 90.587459,306.96978 106.81762,288.68808 127.95943,274.01391 C 135.17105,269.03425 142.50803,264.74138 149.97037,261.13529 C 157.43248,257.52967 165.20596,254.60702 173.29081,252.36735 C 181.37538,250.12817 189.95733,248.51122 199.03667,247.51651 C 208.11567,246.52231 218.12857,246.02508 229.0754,246.02483 L 229.0754,290.79825 L 224.60033,290.79825 C 211.16357,290.79846 199.59636,291.9808 189.89865,294.34528 C 180.20063,296.71017 170.9981,300.50391 162.29104,305.72651 C 150.84325,312.19448 141.51357,319.59598 134.30196,327.93103 C 127.09013,336.26643 120.37565,347.02328 114.15847,360.2016 C 119.62411,358.71385 124.65903,357.41005 129.26324,356.29019 C 133.86725,355.17062 138.34611,354.36215 142.69982,353.86477 C 147.0533,353.36769 151.46763,352.99382 155.94282,352.74316 C 160.41775,352.4928 165.14523,352.36754 170.12525,352.36739 C 183.80459,352.36754 196.36627,354.2331 207.8103,357.96407 C 219.25398,361.69533 229.14162,366.92002 237.47326,373.63818 C 245.80448,380.35659 252.33298,388.31605 257.05878,397.51658 C 261.78413,406.71732 264.14692,416.79095 264.14715,427.7375 L 264.14715,427.7375 z M 219.37373,428.48904 C 219.37354,419.03796 214.52271,411.45048 204.82123,405.72656 C 195.1194,400.00283 182.43437,397.14091 166.7661,397.14081 C 151.08997,397.14091 138.5264,399.9402 129.07535,405.53867 C 119.62411,411.13734 114.89854,418.53694 114.89862,427.7375 C 114.89854,437.43923 119.62411,445.15197 129.07535,450.87575 C 138.5264,456.59962 151.08997,459.46154 166.7661,459.46149 C 182.43437,459.46154 195.1194,456.66225 204.82123,451.06363 C 214.52271,445.46511 219.37354,437.94025 219.37373,428.48904 L 219.37373,428.48904 z M 538.70887,374.01395 C 538.70863,390.18351 536.78234,406.04169 532.93,421.58856 C 529.07719,437.13558 522.98329,451.12631 514.64828,463.56079 C 506.31283,475.99535 495.55409,486.00635 482.37202,493.59383 C 469.18957,501.18132 453.1435,504.97506 434.23376,504.97506 C 415.58184,504.97506 399.6022,501.30657 386.29477,493.96959 C 372.98717,486.63263 362.10317,476.87024 353.64274,464.6824 C 345.1822,452.49464 338.96305,438.62726 334.98525,423.08024 C 331.00738,407.53338 329.01847,391.54994 329.0185,375.12987 C 329.01847,358.71005 331.07001,342.72661 335.17314,327.1795 C 339.27619,311.63273 345.6187,297.89061 354.2007,285.95311 C 362.78259,274.01603 373.66659,264.377 386.85273,257.03599 C 400.0387,249.69546 415.83236,246.02508 434.23376,246.02483 C 452.89299,246.02508 468.8138,249.75619 481.99625,257.21818 C 495.17832,264.68065 505.99969,274.44494 514.46039,286.51107 C 522.92066,298.57762 529.07719,312.25901 532.93,327.55526 C 536.78234,342.85187 538.70863,358.33808 538.70887,374.01395 L 538.70887,374.01395 z M 493.93545,375.12987 C 493.93525,348.76548 488.71245,328.11909 478.26703,313.19065 C 467.82124,298.26258 453.1435,290.79846 434.23376,290.79825 C 423.04407,290.79846 413.59293,293.41175 405.8803,298.63815 C 398.16745,303.86495 391.94829,310.5206 387.22281,318.60514 C 382.49714,326.69003 379.07727,335.64395 376.96318,345.46691 C 374.84893,355.29018 373.79184,364.80585 373.79192,374.01395 C 373.79184,401.87408 379.1399,423.20368 389.83611,438.00282 C 400.53213,452.80208 415.33133,460.20169 434.23376,460.20164 C 443.44185,460.20169 451.71444,458.15014 459.05158,454.04701 C 466.38839,449.94397 472.66828,444.09868 477.89126,436.51113 C 483.11388,428.92371 487.09361,419.84454 489.83046,409.27359 C 492.56692,398.70282 493.93525,386.94962 493.93545,374.01395 L 493.93545,375.12987 z "
       id="text2784" />
    <g
       id="g2838"
       transform="matrix(1.024272,0,0,1,-561.6895,0.5)"
       style="fill:white;fill-opacity:1">
      <path
         id="text2802"
         d="M 704.31489,175.00049 L 662.22883,123.17177 L 662.22883,175.00049 L 648.01112,175.00049 L 648.01112,100.00052 L 662.00337,100.00052 L 704.09285,152.38948 L 704.09285,100.00052 L 718.53261,100.00052 L 718.53261,175.00049 L 704.31489,175.00049 z "
         style="font-size:111.93800354px;font-style:normal;font-variant:normal;font-weight:normal;font-stretch:normal;text-align:center;line-height:125%;writing-mode:lr-tb;text-anchor:middle;fill:white;fill-opacity:1;font-family:Roadgeek 2005 Series F" />
      <path
         id="text2808"
         d="M 750.16701,175.00049 L 750.16701,100.00052 L 764.38472,100.00052 C 764.45757,114.03155 764.49401,126.5321 764.49403,137.50221 C 764.49401,142.20277 764.49401,146.79169 764.49403,151.269 C 764.49401,155.74636 764.49401,159.7574 764.49403,163.30213 C 764.49401,166.84689 764.47579,169.6828 764.43937,171.80987 C 764.40291,173.93695 764.38469,175.00049 764.38472,175.00049 L 750.16701,175.00049 z "
         style="font-size:111.93800354px;font-style:normal;font-variant:normal;font-weight:normal;font-stretch:normal;text-align:center;line-height:125%;writing-mode:lr-tb;text-anchor:middle;fill:white;fill-opacity:1;font-family:Roadgeek 2005 Series F" />
      <path
         id="text2814"
         d="M 1018.6073,114.21823 L 1018.6073,175.00049 L 1004.393,175.00049 L 1004.393,114.21823 L 978.64606,114.21823 L 978.64606,100.00052 L 1043.1211,100.00052 L 1043.1211,114.21823 L 1018.6073,114.21823 z "
         style="font-size:111.93800354px;font-style:normal;font-variant:normal;font-weight:normal;font-stretch:normal;text-align:center;line-height:125%;writing-mode:lr-tb;text-anchor:middle;fill:white;fill-opacity:1;font-family:Roadgeek 2005 Series F" />
      <path
         id="text2820"
         d="M 944.46376,175.00049 L 944.46376,142.31547 L 902.37769,142.31547 L 902.37769,175.00049 L 888.15998,175.00049 L 888.15998,100.00052 L 902.37769,100.00052 L 902.37769,127.87571 L 944.46376,127.87571 L 944.46376,100.00052 L 958.45601,100.00052 L 958.45601,175.00049 L 944.46376,175.00049 z "
         style="font-size:111.93800354px;font-style:normal;font-variant:normal;font-weight:normal;font-stretch:normal;text-align:center;line-height:125%;writing-mode:lr-tb;text-anchor:middle;fill:white;fill-opacity:1;font-family:Roadgeek 2005 Series F" />
      <path
         id="text2826"
         d="M 861.43005,142.31547 C 861.42997,147.01602 860.55318,151.41876 858.79967,155.52373 C 857.04601,159.62873 854.6206,163.22927 851.52343,166.32536 C 848.42612,169.42147 844.788,171.8651 840.60906,173.65626 C 836.43001,175.44742 831.95268,176.34301 827.17705,176.34301 C 822.17815,176.34301 817.3279,175.33583 812.62627,173.32149 C 807.92458,171.30714 803.89419,168.43366 800.53507,164.70102 C 797.47652,161.41932 795.14505,157.44643 793.54065,152.78232 C 791.93622,148.11827 791.13401,143.06134 791.13402,137.61153 C 791.13401,131.79285 792.0666,126.49509 793.93179,121.71823 C 795.79695,116.94147 798.40854,112.85528 801.76656,109.45964 C 805.12454,106.06413 809.13558,103.41496 813.79969,101.51214 C 818.46374,99.609457 823.63226,98.658081 829.30526,98.658005 C 836.91623,98.658081 843.55708,100.59841 849.22782,104.479 C 851.24324,105.74757 852.9974,107.14702 854.49029,108.67736 C 855.98304,110.20783 857.84879,112.3907 860.08753,115.22598 L 848.22008,123.39723 C 845.60786,119.66693 842.80953,117.03656 839.82507,115.5061 C 836.84051,113.97575 833.22118,113.21055 828.96707,113.21049 C 821.72951,113.21055 815.98367,115.41221 811.72955,119.81548 C 807.47537,124.21885 805.3483,130.26359 805.34832,137.94972 C 805.3483,141.45693 805.87096,144.68455 806.9163,147.63259 C 807.96159,150.58069 809.43563,153.09947 811.33841,155.18895 C 813.24113,157.27847 815.5356,158.9011 818.2218,160.05686 C 820.90794,161.21265 823.89302,161.79053 827.17705,161.79052 C 830.23553,161.79053 833.12724,161.21265 835.85217,160.05686 C 838.57701,158.9011 840.87204,157.20388 842.73728,154.9652 C 843.33389,154.14308 843.93057,153.28451 844.5273,152.38948 C 845.12392,151.49449 845.75817,150.18841 846.43006,148.47124 L 829.52731,148.47124 L 829.52731,133.91875 L 861.43005,133.91875 L 861.43005,142.31547 L 861.43005,142.31547 z "
         style="font-size:111.93800354px;font-style:normal;font-variant:normal;font-weight:normal;font-stretch:normal;text-align:center;line-height:125%;writing-mode:lr-tb;text-anchor:middle;fill:white;fill-opacity:1;font-family:Roadgeek 2005 Series F" />
    </g>
  </g>
</svg>
