<svg xmlns="http://www.w3.org/2000/svg" width="513" height="512" viewBox="0 0 513 512">
  <g fill="none" fill-rule="evenodd">
    <ellipse cx="256.5" cy="256" fill="#FFF" rx="256.5" ry="256"/>
    <path fill="#D81E00" d="M256.5,512 C114.838962,512 0,397.384896 0,256 C0,114.615104 114.838962,0 256.5,0 C398.161038,0 513,114.615104 513,256 C513,397.384896 398.161038,512 256.5,512 Z M256.5,458 C368.279413,458 458.894531,367.561519 458.894531,256 C458.894531,144.438481 368.279413,54 256.5,54 C144.720587,54 54.1054688,144.438481 54.1054688,256 C54.1054688,367.561519 144.720587,458 256.5,458 Z"/>
    <path fill="#000" fill-rule="nonzero" d="M159.228516,223.128906 L120,223.128906 L120,220.84375 C120,194.310547 139.169922,166 182.207031,166 C220.166016,166 244.667969,187.201172 244.667969,215.130859 C244.667969,240.394531 227.910156,255.248047 213.691406,270.228516 L178.779297,307.425781 L178.779297,309.330078 L247.333984,309.330078 L247.333984,342.337891 L122.412109,342.337891 L122.412109,316.693359 L184.619141,252.328125 C193.632812,243.060547 203.662109,232.523438 203.662109,219.320312 C203.662109,207.640625 194.140625,198.5 181.445312,198.5 C167.480469,198.5 159.228516,208.910156 159.228516,220.462891 L159.228516,223.128906 Z M261.294922,295.238281 L298.873047,295.238281 C300.904297,306.537109 312.710938,313.519531 326.041016,313.519531 C341.275391,313.519531 353.970703,302.474609 353.970703,284.701172 C353.970703,268.197266 341.783203,257.152344 326.294922,257.152344 C312.583984,257.152344 304.585938,265.404297 301.539062,271.117188 L264.849609,271.117188 L271.705078,169.046875 L383.423828,169.046875 L383.423828,201.800781 L304.332031,201.800781 L301.03125,241.410156 L303.0625,241.410156 C306.490234,235.824219 318.169922,226.556641 337.974609,226.556641 C367.554688,226.556641 393.833984,246.361328 393.833984,283.304688 C393.833984,321.390625 366.158203,345.511719 325.787109,345.511719 C286.8125,345.511719 262.056641,323.421875 261.294922,295.238281 Z"/>
  </g>
</svg>
