<svg xmlns="http://www.w3.org/2000/svg" width="513" height="512" viewBox="0 0 513 512">
  <g fill="none" fill-rule="evenodd">
    <ellipse cx="256.5" cy="256" fill="#FFF" rx="256.5" ry="256"/>
    <path fill="#D81E00" d="M256.5,512 C114.838962,512 0,397.384896 0,256 C0,114.615104 114.838962,0 256.5,0 C398.161038,0 513,114.615104 513,256 C513,397.384896 398.161038,512 256.5,512 Z M256.5,458 C368.279413,458 458.894531,367.561519 458.894531,256 C458.894531,144.438481 368.279413,54 256.5,54 C144.720587,54 54.1054688,144.438481 54.1054688,256 C54.1054688,367.561519 144.720587,458 256.5,458 Z"/>
    <path fill="#000" fill-rule="nonzero" d="M116.935547,300.697266 L155.783203,300.697266 C157.433594,307.425781 166.193359,313.773438 178.380859,313.773438 C201.486328,313.773438 212.150391,290.414062 211.134766,260.580078 L208.722656,260.580078 C204.40625,272.132812 191.076172,282.796875 169.240234,282.796875 C140.421875,282.796875 113,264.134766 113,226.556641 C113,188.851562 141.310547,166 179.777344,166 C218.625,166 250.236328,189.232422 250.236328,253.978516 C250.236328,313.646484 224.972656,345.511719 177.873047,345.511719 C137.375,345.511719 118.332031,321.644531 116.935547,300.697266 Z M205.548828,225.414062 C205.548828,208.021484 194.757812,197.230469 179.015625,197.230469 C163.908203,197.230469 152.863281,207.894531 152.863281,225.287109 C152.863281,242.933594 164.162109,253.089844 179.269531,253.089844 C194.123047,253.089844 205.548828,242.933594 205.548828,225.414062 Z M263.435547,259.945312 L263.435547,251.439453 C263.435547,199.769531 289.841797,166.126953 332.498047,166.126953 C375.154297,166.126953 400.671875,199.007812 400.671875,251.439453 L400.671875,259.945312 C400.671875,311.488281 373.884766,345.638672 331.609375,345.638672 C289.333984,345.638672 263.435547,312.25 263.435547,259.945312 Z M305.203125,251.566406 L305.203125,259.818359 C305.203125,292.953125 315.232422,312.376953 331.990234,312.376953 C348.748047,312.376953 358.904297,292.826172 358.904297,259.818359 L358.904297,251.566406 C358.904297,218.685547 348.875,199.388672 331.990234,199.388672 C315.232422,199.388672 305.203125,218.558594 305.203125,251.566406 Z"/>
  </g>
</svg>
