<svg xmlns="http://www.w3.org/2000/svg" width="513" height="512" viewBox="0 0 513 512">
  <g fill="none" fill-rule="evenodd">
    <ellipse cx="256.5" cy="256" fill="#FFF" rx="256.5" ry="256"/>
    <path fill="#D81E00" d="M256.5,512 C114.838962,512 0,397.384896 0,256 C0,114.615104 114.838962,0 256.5,0 C398.161038,0 513,114.615104 513,256 C513,397.384896 398.161038,512 256.5,512 Z M256.5,458 C368.279413,458 458.894531,367.561519 458.894531,256 C458.894531,144.438481 368.279413,54 256.5,54 C144.720587,54 54.1054688,144.438481 54.1054688,256 C54.1054688,367.561519 144.720587,458 256.5,458 Z"/>
    <path fill="#000" fill-rule="nonzero" d="M190,294.191406 L227.578125,294.191406 C229.609375,305.490234 241.416016,312.472656 254.746094,312.472656 C269.980469,312.472656 282.675781,301.427734 282.675781,283.654297 C282.675781,267.150391 270.488281,256.105469 255,256.105469 C241.289062,256.105469 233.291016,264.357422 230.244141,270.070312 L193.554688,270.070312 L200.410156,168 L312.128906,168 L312.128906,200.753906 L233.037109,200.753906 L229.736328,240.363281 L231.767578,240.363281 C235.195312,234.777344 246.875,225.509766 266.679688,225.509766 C296.259766,225.509766 322.539062,245.314453 322.539062,282.257812 C322.539062,320.34375 294.863281,344.464844 254.492188,344.464844 C215.517578,344.464844 190.761719,322.375 190,294.191406 Z"/>
  </g>
</svg>
