<svg xmlns="http://www.w3.org/2000/svg" width="513" height="512" viewBox="0 0 513 512">
  <g fill="none" fill-rule="evenodd">
    <ellipse cx="256.5" cy="256" fill="#FFF" rx="256.5" ry="256"/>
    <path fill="#D81E00" d="M256.5,512 C114.838962,512 0,397.384896 0,256 C0,114.615104 114.838962,0 256.5,0 C398.161038,0 513,114.615104 513,256 C513,397.384896 398.161038,512 256.5,512 Z M256.5,458 C368.279413,458 458.894531,367.561519 458.894531,256 C458.894531,144.438481 368.279413,54 256.5,54 C144.720587,54 54.1054688,144.438481 54.1054688,256 C54.1054688,367.561519 144.720587,458 256.5,458 Z"/>
    <path fill="#000" fill-rule="nonzero" d="M215.138672,342.337891 L173.878906,342.337891 L173.878906,207.386719 L171.847656,207.386719 L133,234.681641 L133,197.865234 L173.878906,169.046875 L215.138672,169.046875 L215.138672,342.337891 Z M243.318359,259.818359 L243.318359,251.3125 C243.318359,199.642578 269.724609,166 312.380859,166 C355.037109,166 380.554688,198.880859 380.554688,251.3125 L380.554688,259.818359 C380.554688,311.361328 353.767578,345.511719 311.492188,345.511719 C269.216797,345.511719 243.318359,312.123047 243.318359,259.818359 Z M285.085938,251.439453 L285.085938,259.691406 C285.085938,292.826172 295.115234,312.25 311.873047,312.25 C328.630859,312.25 338.787109,292.699219 338.787109,259.691406 L338.787109,251.439453 C338.787109,218.558594 328.757812,199.261719 311.873047,199.261719 C295.115234,199.261719 285.085938,218.431641 285.085938,251.439453 Z"/>
  </g>
</svg>
