<svg xmlns="http://www.w3.org/2000/svg" width="513" height="512" viewBox="0 0 513 512">
  <g fill="none" fill-rule="evenodd">
    <ellipse cx="256.5" cy="256" fill="#FFF" rx="256.5" ry="256"/>
    <path fill="#D81E00" d="M256.5,512 C114.838962,512 0,397.384896 0,256 C0,114.615104 114.838962,0 256.5,0 C398.161038,0 513,114.615104 513,256 C513,397.384896 398.161038,512 256.5,512 Z M256.5,458 C368.279413,458 458.894531,367.561519 458.894531,256 C458.894531,144.438481 368.279413,54 256.5,54 C144.720587,54 54.1054688,144.438481 54.1054688,256 C54.1054688,367.561519 144.720587,458 256.5,458 Z"/>
    <path fill="#000" fill-rule="nonzero" d="M216.138672,341.291016 L174.878906,341.291016 L174.878906,206.339844 L172.847656,206.339844 L134,233.634766 L134,196.818359 L174.878906,168 L216.138672,168 L216.138672,341.291016 Z M246.476562,294.191406 L284.054688,294.191406 C286.085938,305.490234 297.892578,312.472656 311.222656,312.472656 C326.457031,312.472656 339.152344,301.427734 339.152344,283.654297 C339.152344,267.150391 326.964844,256.105469 311.476562,256.105469 C297.765625,256.105469 289.767578,264.357422 286.720703,270.070312 L250.03125,270.070312 L256.886719,168 L368.605469,168 L368.605469,200.753906 L289.513672,200.753906 L286.212891,240.363281 L288.244141,240.363281 C291.671875,234.777344 303.351562,225.509766 323.15625,225.509766 C352.736328,225.509766 379.015625,245.314453 379.015625,282.257812 C379.015625,320.34375 351.339844,344.464844 310.96875,344.464844 C271.994141,344.464844 247.238281,322.375 246.476562,294.191406 Z"/>
  </g>
</svg>
