<svg xmlns="http://www.w3.org/2000/svg" width="513" height="512" viewBox="0 0 513 512">
  <g fill="none" fill-rule="evenodd">
    <ellipse cx="256.5" cy="256" fill="#FFF" rx="256.5" ry="256"/>
    <path fill="#D81E00" d="M256.5,512 C114.838962,512 0,397.384896 0,256 C0,114.615104 114.838962,0 256.5,0 C398.161038,0 513,114.615104 513,256 C513,397.384896 398.161038,512 256.5,512 Z M256.5,458 C368.279413,458 458.894531,367.561519 458.894531,256 C458.894531,144.438481 368.279413,54 256.5,54 C144.720587,54 54.1054688,144.438481 54.1054688,256 C54.1054688,367.561519 144.720587,458 256.5,458 Z"/>
    <path fill="#000" fill-rule="nonzero" d="M181.458984,345.511719 C137.914062,345.511719 111,324.564453 111,294.476562 C111,266.800781 131.693359,254.613281 148.197266,251.693359 L148.197266,249.916016 C131.693359,245.091797 117.982422,233.539062 117.982422,211.576172 C117.982422,185.423828 142.611328,166 181.712891,166 C220.941406,166 245.443359,185.423828 245.443359,211.576172 C245.443359,233.792969 231.478516,245.21875 215.228516,249.916016 L215.228516,251.693359 C231.732422,254.613281 252.298828,266.927734 252.298828,294.349609 C252.298828,324.4375 225.257812,345.511719 181.458984,345.511719 Z M181.712891,238.998047 C195.423828,238.998047 205.707031,229.857422 205.707031,216.78125 C205.707031,203.705078 195.423828,194.691406 181.712891,194.691406 C168.001953,194.691406 157.71875,203.705078 157.71875,216.78125 C157.71875,229.857422 168.001953,238.998047 181.712891,238.998047 Z M181.712891,316.947266 C198.216797,316.947266 210.785156,306.664062 210.785156,291.302734 C210.785156,275.941406 198.216797,265.53125 181.712891,265.53125 C165.335938,265.53125 152.640625,275.941406 152.640625,291.302734 C152.640625,306.664062 165.335938,316.947266 181.712891,316.947266 Z M264.609375,259.818359 L264.609375,251.3125 C264.609375,199.642578 291.015625,166 333.671875,166 C376.328125,166 401.845703,198.880859 401.845703,251.3125 L401.845703,259.818359 C401.845703,311.361328 375.058594,345.511719 332.783203,345.511719 C290.507812,345.511719 264.609375,312.123047 264.609375,259.818359 Z M306.376953,251.439453 L306.376953,259.691406 C306.376953,292.826172 316.40625,312.25 333.164062,312.25 C349.921875,312.25 360.078125,292.699219 360.078125,259.691406 L360.078125,251.439453 C360.078125,218.558594 350.048828,199.261719 333.164062,199.261719 C316.40625,199.261719 306.376953,218.431641 306.376953,251.439453 Z"/>
  </g>
</svg>
