<svg xmlns="http://www.w3.org/2000/svg" width="513" height="512" viewBox="0 0 513 512">
  <g fill="none" fill-rule="evenodd">
    <circle cx="256" cy="256" r="256" fill="#FFF"/>
    <path fill="#D81E00" d="M257,512 C115.615104,512 1,397.384896 1,256 C1,114.615104 115.615104,0 257,0 C398.384896,0 513,114.615104 513,256 C513,397.384896 398.384896,512 257,512 Z M257,467 C373.532082,467 468,372.532082 468,256 C468,139.467918 373.532082,45 257,45 C140.467918,45 46,139.467918 46,256 C46,372.532082 140.467918,467 257,467 Z"/>
    <g fill="#000" fill-rule="nonzero" transform="translate(86 138)">
      <path d="M290.333 91L280.988 91 273.245 69.195 268.617 76.582 268.617 91 260.073 91 260.073 30.569 268.617 26.119 268.617 54.154C268.617 57.7733514 268.557667 61.1256512 268.439 64.211 269.09167 62.8463265 270.367324 60.4433505 272.266 57.002L279.297 44.275 288.998 44.275 278.941 60.473 290.333 91zM347.115 91L338.571 91 338.571 62.253C338.571 58.7523158 338.452335 56.438339 338.215 55.311 337.56233 52.7003203 336.049345 51.395 333.676 51.395 330.768652 51.395 328.454675 52.8189858 326.734 55.667L326.734 91 318.19 91 318.19 62.253C318.19 58.7523158 318.071335 56.438339 317.834 55.311 317.18133 52.7003203 315.668345 51.395 313.295 51.395 310.387652 51.395 308.073675 52.8189858 306.353 55.667L306.353 91 297.809 91 297.809 44.275 306.353 44.275 306.353 47.479C308.548344 44.6903194 311.455649 43.296 315.075 43.296 319.465689 43.296 322.610324 44.9573167 324.509 48.28 327.416348 44.9573167 331.065311 43.296 335.456 43.296 339.965356 43.296 343.080325 44.8089849 344.801 47.835 346.343674 50.564347 347.115 55.1923007 347.115 61.719L347.115 91zM119.364 152.901C119.364 172.635099 113.683057 188.13311 102.321 199.3955 90.9589432 210.65789 76.507421 216.289 58.966 216.289 35.2452147 216.289 15.8104091 205.126445.661 182.801L22.189 164.562C33.7503911 180.110078 46.5075969 187.884 60.461 187.884 69.2317105 187.884 76.3578059 184.943863 81.8395 179.0635 87.3211941 173.183137 90.062 164.960719 90.062 154.396 90.062 129.08054 76.3081375 116.423 48.8 116.423L41.923 116.423 41.923 88.317 49.398 88.317C60.3613882 88.317 69.0821343 85.3768627 75.5605 79.4965 82.0388657 73.6161373 85.278 65.4933852 85.278 55.128 85.278 37.586579 76.8064181 28.816 59.863 28.816 50.6936208 28.816 39.9297285 34.6962745 27.571 46.457L9.631 25.826C25.9764151 8.88258195 43.1189103.411 61.059.411 77.2050807.411 90.0619522 4.89595515 99.63 13.866 109.596717 23.4340478 114.58 36.8889133 114.58 54.231 114.58 76.556445 104.713099 91.9049581 84.979 100.277 107.902448 107.65237 119.364 125.193528 119.364 152.901zM247.761 108.051C247.761 140.542496 242.977048 166.156573 233.409 184.894 222.644946 205.824105 206.698439 216.289 185.569 216.289 164.638895 216.289 148.891719 205.92377 138.327 185.193 128.958286 166.654907 124.274 141.140496 124.274 108.649 124.274 76.1575042 129.057952 50.543427 138.626 31.806 149.190719 10.8758954 164.937895.411 185.868.411 206.997439.411 222.844281 10.676564 233.409 31.208 242.977048 49.5467584 247.761 75.1608356 247.761 108.051zM218.459 108.649C218.459 55.6260682 207.396111 29.115 185.27 29.115 164.140561 29.115 153.576 55.4267369 153.576 108.051 153.576 161.073932 164.539224 187.585 186.466 187.585 207.794773 187.585 218.459 161.273263 218.459 108.649z"/>
    </g>
  </g>
</svg>
