<svg xmlns="http://www.w3.org/2000/svg" width="513" height="512" viewBox="0 0 513 512">
  <g fill="none" fill-rule="evenodd">
    <ellipse cx="256.5" cy="256" fill="#FFF" rx="256.5" ry="256"/>
    <path fill="#D81E00" d="M256.5,512 C114.838962,512 0,397.384896 0,256 C0,114.615104 114.838962,0 256.5,0 C398.161038,0 513,114.615104 513,256 C513,397.384896 398.161038,512 256.5,512 Z M256.5,458 C368.279413,458 458.894531,367.561519 458.894531,256 C458.894531,144.438481 368.279413,54 256.5,54 C144.720587,54 54.1054688,144.438481 54.1054688,256 C54.1054688,367.561519 144.720587,458 256.5,458 Z"/>
    <path fill="#000" fill-rule="nonzero" d="M157.228516,223.128906 L118,223.128906 L118,220.84375 C118,194.310547 137.169922,166 180.207031,166 C218.166016,166 242.667969,187.201172 242.667969,215.130859 C242.667969,240.394531 225.910156,255.248047 211.691406,270.228516 L176.779297,307.425781 L176.779297,309.330078 L245.333984,309.330078 L245.333984,342.337891 L120.412109,342.337891 L120.412109,316.693359 L182.619141,252.328125 C191.632812,243.060547 201.662109,232.523438 201.662109,219.320312 C201.662109,207.640625 192.140625,198.5 179.445312,198.5 C165.480469,198.5 157.228516,208.910156 157.228516,220.462891 L157.228516,223.128906 Z M257.136719,259.818359 L257.136719,251.3125 C257.136719,199.642578 283.542969,166 326.199219,166 C368.855469,166 394.373047,198.880859 394.373047,251.3125 L394.373047,259.818359 C394.373047,311.361328 367.585938,345.511719 325.310547,345.511719 C283.035156,345.511719 257.136719,312.123047 257.136719,259.818359 Z M298.904297,251.439453 L298.904297,259.691406 C298.904297,292.826172 308.933594,312.25 325.691406,312.25 C342.449219,312.25 352.605469,292.699219 352.605469,259.691406 L352.605469,251.439453 C352.605469,218.558594 342.576172,199.261719 325.691406,199.261719 C308.933594,199.261719 298.904297,218.431641 298.904297,251.439453 Z"/>
  </g>
</svg>
