<svg xmlns="http://www.w3.org/2000/svg" width="512" height="512" viewBox="0 0 512 512">
  <g fill="none" fill-rule="evenodd">
    <circle cx="256" cy="256" r="256" fill="#FFF"/>
    <path fill="#D81E00" d="M256,512 C114.615104,512 0,397.384896 0,256 C0,114.615104 114.615104,0 256,0 C397.384896,0 512,114.615104 512,256 C512,397.384896 397.384896,512 256,512 Z M256,458 C367.561519,458 458,367.561519 458,256 C458,144.438481 367.561519,54 256,54 C144.438481,54 54,144.438481 54,256 C54,367.561519 144.438481,458 256,458 Z"/>
    <path fill="#000" fill-rule="nonzero" d="M160.501953,329.210047 L125.589844,329.210047 L125.589844,215.020594 L123.871094,215.020594 L91,238.116297 L91,206.963953 L125.589844,182.579188 L160.501953,182.579188 L160.501953,329.210047 Z M221.299429,266.797938 L221.299429,240.694422 L237.090445,240.694422 C249.014273,240.694422 257.070913,233.174891 257.070913,223.292078 C257.070913,213.087 248.369742,206.212 237.197867,206.212 C224.951773,206.212 217.002554,214.590906 216.680288,223.292078 L184.238882,223.292078 C185.098257,197.61825 204.75646,180 238.486929,180 C270.820913,179.893641 290.908804,196.006922 291.123648,218.672938 C291.338492,239.512781 274.473257,249.717859 264.053335,251.329188 L264.053335,253.155359 C278.018179,254.444422 295.098257,264.971766 295.313101,287.852625 C295.527945,317.178797 267.705679,331.895594 237.520132,331.895594 C201.426382,331.895594 182.520132,311.485438 182.090445,288.174891 L214.102163,288.174891 C214.531851,297.950281 224.307242,305.040125 237.305288,305.147547 C251.270132,305.147547 260.615835,297.198328 260.508413,285.919031 C260.400992,275.176844 252.022085,266.797938 237.734976,266.797938 L221.299429,266.797938 Z M305.622296,259.385828 L305.622296,252.188563 C305.622296,208.467859 327.966046,180.001063 364.059796,180.001063 C400.153546,180.001063 421.745343,207.823328 421.745343,252.188563 L421.745343,259.385828 C421.745343,302.999109 399.079327,331.895594 363.307843,331.895594 C327.536358,331.895594 305.622296,303.643641 305.622296,259.385828 Z M340.964093,252.295984 L340.964093,259.278406 C340.964093,287.315516 349.450421,303.751063 363.630108,303.751063 C377.809796,303.751063 386.403546,287.208094 386.403546,259.278406 L386.403546,252.295984 C386.403546,224.473719 377.917218,208.145594 363.630108,208.145594 C349.450421,208.145594 340.964093,224.366297 340.964093,252.295984 Z"/>
  </g>
</svg>
