<svg xmlns="http://www.w3.org/2000/svg" width="513" height="512" viewBox="0 0 513 512">
  <g fill="none" fill-rule="evenodd">
    <circle cx="256" cy="256" r="256" fill="#FFF"/>
    <path fill="#D81E00" d="M257,512 C115.615104,512 1,397.384896 1,256 C1,114.615104 115.615104,0 257,0 C398.384896,0 513,114.615104 513,256 C513,397.384896 398.384896,512 257,512 Z M257,467 C373.532082,467 468,372.532082 468,256 C468,139.467918 373.532082,45 257,45 C140.467918,45 46,139.467918 46,256 C46,372.532082 140.467918,467 257,467 Z"/>
    <g fill="#000" fill-rule="nonzero" transform="translate(82 79)">
      <path d="M291.833 150L282.488 150 274.745 128.195 270.117 135.582 270.117 150 261.573 150 261.573 89.569 270.117 85.119 270.117 113.154C270.117 116.773351 270.057667 120.125651 269.939 123.211 270.59167 121.846327 271.867324 119.443351 273.766 116.002L280.797 103.275 290.498 103.275 280.441 119.473 291.833 150zM348.615 150L340.071 150 340.071 121.253C340.071 117.752316 339.952335 115.438339 339.715 114.311 339.06233 111.70032 337.549345 110.395 335.176 110.395 332.268652 110.395 329.954675 111.818986 328.234 114.667L328.234 150 319.69 150 319.69 121.253C319.69 117.752316 319.571335 115.438339 319.334 114.311 318.68133 111.70032 317.168345 110.395 314.795 110.395 311.887652 110.395 309.573675 111.818986 307.853 114.667L307.853 150 299.309 150 299.309 103.275 307.853 103.275 307.853 106.479C310.048344 103.690319 312.955649 102.296 316.575 102.296 320.965689 102.296 324.110324 103.957317 326.009 107.28 328.916348 103.957317 332.565311 102.296 336.956 102.296 341.465356 102.296 344.580325 103.808985 346.301 106.835 347.843674 109.564347 348.615 114.192301 348.615 120.719L348.615 150zM132.7825 221.469L118.4305 221.469 118.4305 272 90.0255 272 90.0255 221.469 8.9965 221.469 8.9965 198.446 90.6235 62.7 118.4305 62.7 118.4305 193.662 132.7825 193.662 132.7825 221.469zM90.9225 109.344C87.7331507 115.32403 82.4508702 124.692603 75.0755 137.45L54.7435 170.639C51.5541507 176.021027 46.6705329 183.794949 40.0925 193.961 41.886509 193.961 45.1754761 193.861334 49.9595 193.662L90.0255 193.662 90.0255 139.244C90.0255 140.240672 90.324497 130.274105 90.9225 109.344zM249.5185 200.838C249.5185 224.359451 244.136554 242.498603 233.3725 255.256 222.010443 268.6114 205.565608 275.289 184.0375 275.289 163.904733 275.289 146.562906 267.714409 132.0115 252.565L148.4565 230.439C160.017891 241.402388 172.376434 246.884 185.5325 246.884 208.854617 246.884 220.5155 231.934149 220.5155 202.034 220.5155 189.874606 218.123524 180.10737 213.3395 172.732 207.957473 164.758627 200.482548 160.772 190.9145 160.772 179.353109 160.772 170.283533 165.755283 163.7055 175.722L138.5895 170.938 143.9715 62.7 242.9405 62.7 242.9405 91.404 170.8815 91.404 168.1905 140.141C176.363208 134.958307 185.333118 132.367 195.1005 132.367 212.442587 132.367 225.847619 138.446606 235.316 150.606 244.784381 162.765394 249.5185 179.509227 249.5185 200.838z"/>
    </g>
  </g>
</svg>
