<svg xmlns="http://www.w3.org/2000/svg" width="512" height="512" viewBox="0 0 512 512">
  <g fill="none" fill-rule="evenodd">
    <circle cx="256" cy="256" r="256" fill="#FFF"/>
    <path fill="#D81E00" d="M256,512 C114.615104,512 0,397.384896 0,256 C0,114.615104 114.615104,0 256,0 C397.384896,0 512,114.615104 512,256 C512,397.384896 397.384896,512 256,512 Z M256,458 C367.561519,458 458,367.561519 458,256 C458,144.438481 367.561519,54 256,54 C144.438481,54 54,144.438481 54,256 C54,367.561519 144.438481,458 256,458 Z"/>
    <path fill="#000" fill-rule="nonzero" d="M173.501953,329.208984 L138.589844,329.208984 L138.589844,215.019531 L136.871094,215.019531 L104,238.115234 L104,206.962891 L138.589844,182.578125 L173.501953,182.578125 L173.501953,329.208984 Z M267.492788,329.208984 L232.580679,329.208984 L232.580679,215.019531 L230.861929,215.019531 L197.990835,238.115234 L197.990835,206.962891 L232.580679,182.578125 L267.492788,182.578125 L267.492788,329.208984 Z M291.337139,259.384766 L291.337139,252.1875 C291.337139,208.466797 313.680889,180 349.774639,180 C385.868389,180 407.460186,207.822266 407.460186,252.1875 L407.460186,259.384766 C407.460186,302.998047 384.794171,331.894531 349.022686,331.894531 C313.251202,331.894531 291.337139,303.642578 291.337139,259.384766 Z M326.678936,252.294922 L326.678936,259.277344 C326.678936,287.314453 335.165264,303.75 349.344952,303.75 C363.524639,303.75 372.118389,287.207031 372.118389,259.277344 L372.118389,252.294922 C372.118389,224.472656 363.632061,208.144531 349.344952,208.144531 C335.165264,208.144531 326.678936,224.365234 326.678936,252.294922 Z"/>
  </g>
</svg>
