<svg xmlns="http://www.w3.org/2000/svg" width="512" height="512" viewBox="0 0 512 512">
  <g fill="none" fill-rule="evenodd">
    <circle cx="256" cy="256" r="256" fill="#FFF"/>
    <path fill="#D81E00" d="M256,512 C114.615104,512 0,397.384896 0,256 C0,114.615104 114.615104,0 256,0 C397.384896,0 512,114.615104 512,256 C512,397.384896 397.384896,512 256,512 Z M256,458 C367.561519,458 458,367.561519 458,256 C458,144.438481 367.561519,54 256,54 C144.438481,54 54,144.438481 54,256 C54,367.561519 144.438481,458 256,458 Z"/>
    <path fill="#000" fill-rule="nonzero" d="M161.501953,329.208984 L126.589844,329.208984 L126.589844,215.019531 L124.871094,215.019531 L92,238.115234 L92,206.962891 L126.589844,182.578125 L161.501953,182.578125 L161.501953,329.208984 Z M218.969351,228.339844 L185.775992,228.339844 L185.775992,226.40625 C185.775992,203.955078 201.996695,180 238.41271,180 C270.531851,180 291.264273,197.939453 291.264273,221.572266 C291.264273,242.949219 277.084585,255.517578 265.053335,268.193359 L235.51232,299.667969 L235.51232,301.279297 L293.520132,301.279297 L293.520132,329.208984 L187.817007,329.208984 L187.817007,307.509766 L240.453726,253.046875 C248.080679,245.205078 256.567007,236.289062 256.567007,225.117188 C256.567007,215.234375 248.510367,207.5 237.768179,207.5 C225.951773,207.5 218.969351,216.308594 218.969351,226.083984 L218.969351,228.339844 Z M303.507061,259.384766 L303.507061,252.1875 C303.507061,208.466797 325.850811,180 361.944561,180 C398.038311,180 419.630108,207.822266 419.630108,252.1875 L419.630108,259.384766 C419.630108,302.998047 396.964093,331.894531 361.192608,331.894531 C325.421124,331.894531 303.507061,303.642578 303.507061,259.384766 Z M338.848858,252.294922 L338.848858,259.277344 C338.848858,287.314453 347.335186,303.75 361.514874,303.75 C375.694561,303.75 384.288311,287.207031 384.288311,259.277344 L384.288311,252.294922 C384.288311,224.472656 375.801983,208.144531 361.514874,208.144531 C347.335186,208.144531 338.848858,224.365234 338.848858,252.294922 Z"/>
  </g>
</svg>
