<svg xmlns="http://www.w3.org/2000/svg" width="513" height="512" viewBox="0 0 513 512">
  <g fill="none" fill-rule="evenodd">
    <circle cx="256" cy="256" r="256" fill="#FFF"/>
    <path fill="#D81E00" d="M257,512 C115.615104,512 1,397.384896 1,256 C1,114.615104 115.615104,0 257,0 C398.384896,0 513,114.615104 513,256 C513,397.384896 398.384896,512 257,512 Z M257,467 C373.532082,467 468,372.532082 468,256 C468,139.467918 373.532082,45 257,45 C140.467918,45 46,139.467918 46,256 C46,372.532082 140.467918,467 257,467 Z"/>
    <path fill="#000" fill-rule="nonzero" d="M69.5019531,149.208984 L34.5898438,149.208984 L34.5898438,35.0195312 L32.8710938,35.0195312 L0,58.1152344 L0,26.9628906 L34.5898438,2.578125 L69.5019531,2.578125 L69.5019531,149.208984 Z M93.3463041,79.3847656 L93.3463041,72.1875 C93.3463041,28.4667969 115.690054,0 151.783804,0 C187.877554,0 209.469351,27.8222656 209.469351,72.1875 L209.469351,79.3847656 C209.469351,122.998047 186.803335,151.894531 151.031851,151.894531 C115.260367,151.894531 93.3463041,123.642578 93.3463041,79.3847656 Z M128.688101,72.2949219 L128.688101,79.2773438 C128.688101,107.314453 137.174429,123.75 151.354117,123.75 C165.533804,123.75 174.127554,107.207031 174.127554,79.2773438 L174.127554,72.2949219 C174.127554,44.4726562 165.641226,28.1445312 151.354117,28.1445312 C137.174429,28.1445312 128.688101,44.3652344 128.688101,72.2949219 Z M220.637921,79.3847656 L220.637921,72.1875 C220.637921,28.4667969 242.981671,0 279.075421,0 C315.169171,0 336.760968,27.8222656 336.760968,72.1875 L336.760968,79.3847656 C336.760968,122.998047 314.094952,151.894531 278.323468,151.894531 C242.551983,151.894531 220.637921,123.642578 220.637921,79.3847656 Z M255.979718,72.2949219 L255.979718,79.2773438 C255.979718,107.314453 264.466046,123.75 278.645733,123.75 C292.825421,123.75 301.419171,107.207031 301.419171,79.2773438 L301.419171,72.2949219 C301.419171,44.4726562 292.932843,28.1445312 278.645733,28.1445312 C264.466046,28.1445312 255.979718,44.3652344 255.979718,72.2949219 Z" transform="translate(88 180)"/>
  </g>
</svg>
