<svg xmlns="http://www.w3.org/2000/svg" width="560" height="560" viewBox="0 0 560 560">
  <g fill="none" fill-rule="evenodd">
    <circle cx="280" cy="280" r="280" fill="#F00A0A" fill-rule="nonzero"/>
    <circle cx="280" cy="280" r="211" fill="#000" fill-rule="nonzero"/>
    <path fill="#FFF" d="M259.27108,122.453261 L265.684769,116 L270.649594,116 L275.614418,116 L282.028107,122.453261 L288.441796,128.906523 L284.038311,128.906523 C280.11462,128.906523 279.175893,128.576267 275.398226,125.869694 C273.067528,124.199438 270.820271,122.832865 270.404955,122.832865 C269.98964,122.832865 267.840997,124.199438 265.631669,125.869694 C262.020888,128.597146 261.165603,128.906523 257.234326,128.906523 L252.857391,128.906523 L259.27108,122.453261 Z M199.833519,135.346498 C200.618637,133.300434 223.349113,134.008395 228.22291,136.230974 C239.50281,141.372705 240.306891,144.174179 240.306891,178.372668 L240.306891,206.861919 L237.96671,211.550023 C233.45513,220.584589 229.220426,222.495893 212.808817,222.905865 C205.820514,223.080483 200.032643,223.099463 199.945408,222.945723 C199.858173,222.793882 199.602156,213.615067 199.376482,202.549622 L198.964959,182.430631 L195.361763,182.199072 L191.758568,181.967514 L191.758568,177.074424 L191.758568,172.181333 L195.551405,172.181333 L199.344243,172.181333 L199.344243,154.402599 C199.344243,144.62401 199.564228,136.048764 199.833519,135.346498 Z M252.443972,178.634595 L252.443972,134.220973 L271.061116,134.220973 L289.678261,134.220973 L289.45638,140.104829 L289.234499,145.988685 L276.907776,146.197467 L264.581053,146.406249 L264.581053,159.293791 L264.581053,172.181333 L275.580283,172.181333 L286.579512,172.181333 L286.579512,178.254991 L286.579512,184.328649 L275.580283,184.328649 L264.581053,184.328649 L264.581053,197.235171 L264.581053,210.141694 L277.097418,210.141694 L289.613782,210.141694 L289.613782,216.594955 L289.613782,223.048216 L271.028877,223.048216 L252.443972,223.048216 L252.443972,178.634595 Z M301.750863,178.602328 L301.750863,134.15644 L307.559594,134.378508 L313.368325,134.600577 L321.50017,157.376793 C325.973822,169.903712 329.931648,180.01825 330.295761,179.853122 C330.657977,179.689893 331.864099,176.87703 332.973504,173.602949 C334.082909,170.330766 337.638694,160.115633 340.873985,150.906449 L346.758573,134.162134 L352.510411,134.380407 L358.264146,134.600577 L358.264146,178.634595 L358.264146,222.668613 L352.005964,222.888783 L345.747782,223.108953 L345.747782,197.113698 C345.747782,182.212359 345.465215,171.425922 345.084035,171.83969 C344.718026,172.236376 342.453702,178.539694 340.049043,185.847063 C332.69473,208.201919 333.221935,207.104865 329.844413,207.104865 C328.131947,207.104865 326.787386,206.691097 326.557919,206.095119 C326.34552,205.539 323.711394,197.595795 320.703674,188.443552 C317.695953,179.289411 314.932871,171.477169 314.561173,171.080483 C314.168614,170.659123 313.887944,181.314596 313.887944,196.703726 L313.887944,223.048216 L307.819404,223.048216 L301.750863,223.048216 L301.750863,178.602328 Z M223.67909,147.662737 C222.256776,146.821915 219.859703,146.368288 216.846293,146.368288 L212.20386,146.368288 L212.410569,159.085009 L212.619175,171.80173 L216.635791,172.033288 L220.652406,172.262948 L220.428628,177.347738 L220.204851,182.430631 L216.222371,182.660291 L212.239892,182.889951 L212.239892,196.895426 L212.239892,210.900901 L217.381083,210.900901 C227.925172,210.900901 228.16981,210.166368 228.16981,178.583348 C228.16981,151.405628 227.997236,150.217469 223.67909,147.662737 Z M322.990755,255.00135 C343.03211,252.774975 362.515918,267.080336 366.217727,286.736211 C367.260758,292.274628 367.260758,406.637805 366.217727,412.176222 C359.654221,447.027629 311.494664,455.581996 293.139225,425.156767 C287.125681,415.188376 287.33808,417.955687 287.33808,349.456216 C287.33808,289.685731 287.368422,288.398875 288.931072,283.295104 C293.747976,267.560535 306.687242,256.812059 322.990755,255.00135 Z M191,279.609153 L191,256.453333 L231.204081,256.453333 L271.408161,256.453333 L271.398679,268.031243 C271.389197,278.889804 271.222312,280.222213 268.71335,289.478847 C267.243625,294.907179 264.203666,306.181406 261.960202,314.532685 C259.716739,322.883964 257.139505,332.449975 256.233017,335.790487 C255.326529,339.130998 252.937041,348.013723 250.919251,355.529874 C246.280611,372.826512 240.883403,392.854398 235.370513,413.229622 C232.998093,421.998465 230.409481,431.735298 229.618674,434.867027 C227.079369,444.903747 228.769079,443.977514 213.015527,443.977514 C197.58247,443.977514 198.329659,444.341933 200.434684,437.848814 C201.033952,436.000144 203.613082,426.971272 206.165662,417.784865 C208.718242,408.598458 211.619763,398.178339 212.613486,394.629045 C213.609106,391.079752 215.615517,383.905243 217.07576,378.685694 C218.536002,373.466144 221.985588,361.166988 224.741085,351.354234 C231.807142,326.197904 233.231352,321.115011 235.330688,313.583676 C236.350961,309.929991 238.740449,301.40789 240.640661,294.645252 C242.542769,287.882614 244.099729,282.16009 244.099729,281.928531 C244.099729,281.696973 237.443299,281.507171 229.307662,281.507171 L214.515594,281.507171 L214.515594,292.136072 L214.515594,302.764973 L202.757797,302.764973 L191,302.764973 L191,279.609153 Z M333.629665,283.414679 C327.043402,280.005839 319.880628,281.962696 315.983487,288.235645 L314.267228,290.997261 L314.267228,349.511259 L314.267228,408.025256 L316.349496,411.175966 C321.348456,418.735772 332.099255,419.031863 337.555252,411.760556 L339.299957,409.433586 L339.299957,349.456216 L339.299957,289.478847 L337.532495,287.000035 C336.561529,285.637259 334.805445,284.023943 333.629665,283.414679 Z"/>
  </g>
</svg>
