<svg xmlns="http://www.w3.org/2000/svg" width="513" height="512" viewBox="0 0 513 512">
  <g fill="none" fill-rule="evenodd">
    <ellipse cx="256.5" cy="256" fill="#FFF" rx="256.5" ry="256"/>
    <path fill="#D81E00" d="M256.5,512 C114.838962,512 0,397.384896 0,256 C0,114.615104 114.838962,0 256.5,0 C398.161038,0 513,114.615104 513,256 C513,397.384896 398.161038,512 256.5,512 Z M256.5,458 C368.279413,458 458.894531,367.561519 458.894531,256 C458.894531,144.438481 368.279413,54 256.5,54 C144.720587,54 54.1054688,144.438481 54.1054688,256 C54.1054688,367.561519 144.720587,458 256.5,458 Z"/>
    <path fill="#000" fill-rule="nonzero" d="M175.96875,168 L235.509766,168 L235.509766,278.957031 L255.695312,278.957031 L255.695312,311.583984 L235.509766,311.583984 L235.509766,341.291016 L196.535156,341.291016 L196.535156,311.583984 L113,311.583984 L113,278.322266 C132.296875,240.998047 154.640625,204.435547 175.96875,168 Z M149.308594,278.957031 L196.535156,278.957031 L196.535156,197.960938 L194.630859,197.960938 C178.888672,223.732422 163.273438,250.265625 149.308594,278.068359 L149.308594,278.957031 Z M266.863281,294.191406 L304.441406,294.191406 C306.472656,305.490234 318.279297,312.472656 331.609375,312.472656 C346.84375,312.472656 359.539062,301.427734 359.539062,283.654297 C359.539062,267.150391 347.351562,256.105469 331.863281,256.105469 C318.152344,256.105469 310.154297,264.357422 307.107422,270.070312 L270.417969,270.070312 L277.273438,168 L388.992188,168 L388.992188,200.753906 L309.900391,200.753906 L306.599609,240.363281 L308.630859,240.363281 C312.058594,234.777344 323.738281,225.509766 343.542969,225.509766 C373.123047,225.509766 399.402344,245.314453 399.402344,282.257812 C399.402344,320.34375 371.726562,344.464844 331.355469,344.464844 C292.380859,344.464844 267.625,322.375 266.863281,294.191406 Z"/>
  </g>
</svg>
