<svg xmlns="http://www.w3.org/2000/svg" width="513" height="512" viewBox="0 0 513 512">
  <g fill="none" fill-rule="evenodd">
    <circle cx="256" cy="256" r="256" fill="#FFF"/>
    <path fill="#D81E00" d="M257,512 C115.615104,512 1,397.384896 1,256 C1,114.615104 115.615104,0 257,0 C398.384896,0 513,114.615104 513,256 C513,397.384896 398.384896,512 257,512 Z M257,467 C373.532082,467 468,372.532082 468,256 C468,139.467918 373.532082,45 257,45 C140.467918,45 46,139.467918 46,256 C46,372.532082 140.467918,467 257,467 Z"/>
    <g fill="#000" fill-rule="nonzero" transform="translate(118 141)">
      <path d="M225.833 88L216.488 88 208.745 66.195 204.117 73.582 204.117 88 195.573 88 195.573 27.569 204.117 23.119 204.117 51.154C204.117 54.7733514 204.057667 58.1256512 203.939 61.211 204.59167 59.8463265 205.867324 57.4433505 207.766 54.002L214.797 41.275 224.498 41.275 214.441 57.473 225.833 88zM282.615 88L274.071 88 274.071 59.253C274.071 55.7523158 273.952335 53.438339 273.715 52.311 273.06233 49.7003203 271.549345 48.395 269.176 48.395 266.268652 48.395 263.954675 49.8189858 262.234 52.667L262.234 88 253.69 88 253.69 59.253C253.69 55.7523158 253.571335 53.438339 253.334 52.311 252.68133 49.7003203 251.168345 48.395 248.795 48.395 245.887652 48.395 243.573675 49.8189858 241.853 52.667L241.853 88 233.309 88 233.309 41.275 241.853 41.275 241.853 44.479C244.048344 41.6903194 246.955649 40.296 250.575 40.296 254.965689 40.296 258.110324 41.9573167 260.009 45.28 262.916348 41.9573167 266.565311 40.296 270.956 40.296 275.465356 40.296 278.580325 41.8089849 280.301 44.835 281.843674 47.564347 282.615 52.1923007 282.615 58.719L282.615 88zM57.3145 210L28.3115 210 28.3115 45.251.2055 45.251.2055 24.919C9.97288217 23.722994 17.3979746 21.3310179 22.481 17.743 27.5640254 14.1549821 31.2018224 8.47403887 33.3945.7L57.3145.7 57.3145 210zM183.6185 138.838C183.6185 162.359451 178.236554 180.498603 167.4725 193.256 156.110443 206.6114 139.665608 213.289 118.1375 213.289 98.0047327 213.289 80.6629061 205.714409 66.1115 190.565L82.5565 168.439C94.1178911 179.402388 106.476434 184.884 119.6325 184.884 142.954617 184.884 154.6155 169.934149 154.6155 140.034 154.6155 127.874606 152.223524 118.10737 147.4395 110.732 142.057473 102.758627 134.582548 98.772 125.0145 98.772 113.453109 98.772 104.383533 103.755283 97.8055 113.722L72.6895 108.938 78.0715.7 177.0405.7 177.0405 29.404 104.9815 29.404 102.2905 78.141C110.463208 72.9583074 119.433118 70.367 129.2005 70.367 146.542587 70.367 159.947619 76.4466059 169.416 88.606 178.884381 100.765394 183.6185 117.509227 183.6185 138.838z"/>
    </g>
  </g>
</svg>
