<?xml version="1.0" encoding="UTF-8" standalone="no"?>
<!-- Created with Inkscape (http://www.inkscape.org/) -->
<svg
   xmlns:dc="http://purl.org/dc/elements/1.1/"
   xmlns:cc="http://web.resource.org/cc/"
   xmlns:rdf="http://www.w3.org/1999/02/22-rdf-syntax-ns#"
   xmlns:svg="http://www.w3.org/2000/svg"
   xmlns="http://www.w3.org/2000/svg"
   xmlns:sodipodi="http://sodipodi.sourceforge.net/DTD/sodipodi-0.dtd"
   xmlns:inkscape="http://www.inkscape.org/namespaces/inkscape"
   width="601"
   height="601"
   id="svg2"
   sodipodi:version="0.32"
   inkscape:version="0.44"
   version="1.0"
   sodipodi:docbase="C:\Documents and Settings\ltljltlj\Desktop\Signs\Speed Limit Signs"
   sodipodi:docname="Trucks Speed 70 sign (Outline).svg">
  <defs
     id="defs4" />
  <sodipodi:namedview
     id="base"
     pagecolor="#ffffff"
     bordercolor="#666666"
     borderopacity="1.0"
     gridtolerance="10000"
     guidetolerance="10"
     objecttolerance="10"
     inkscape:pageopacity="0.0"
     inkscape:pageshadow="2"
     inkscape:zoom="1.2866667"
     inkscape:cx="300.00003"
     inkscape:cy="300.00003"
     inkscape:document-units="px"
     inkscape:current-layer="layer1"
     width="601px"
     height="601px"
     inkscape:window-width="1280"
     inkscape:window-height="968"
     inkscape:window-x="-4"
     inkscape:window-y="-4" />
  <metadata
     id="metadata7">
    <rdf:RDF>
      <cc:Work
         rdf:about="">
        <dc:format>image/svg+xml</dc:format>
        <dc:type
           rdf:resource="http://purl.org/dc/dcmitype/StillImage" />
      </cc:Work>
    </rdf:RDF>
  </metadata>
  <g
     inkscape:label="Layer 1"
     inkscape:groupmode="layer"
     id="layer1">
    <path
       style="color:black;fill:white;fill-opacity:1;fill-rule:nonzero;stroke:black;stroke-width:1;stroke-linecap:butt;stroke-linejoin:miter;marker:none;marker-start:none;marker-mid:none;marker-end:none;stroke-miterlimit:4;stroke-dashoffset:0;stroke-opacity:1;visibility:visible;display:inline;overflow:visible"
       d="M 38,0.5 L 563,0.5 C 583.775,0.5 600.5,17.225 600.5,38 L 600.5,563 C 600.5,583.775 583.775,600.5 563,600.5 L 38,600.5 C 17.225,600.5 0.5,583.775 0.5,563 L 0.5,38 C 0.5,17.225 17.225,0.5 38,0.5 z "
       id="rect1872" />
    <path
       style="color:black;fill:black;fill-opacity:1;fill-rule:nonzero;stroke:none;stroke-width:0.8735441;stroke-linecap:butt;stroke-linejoin:miter;marker:none;marker-start:none;marker-mid:none;marker-end:none;stroke-miterlimit:4;stroke-dashoffset:0;stroke-opacity:1;visibility:visible;display:inline;overflow:visible"
       d="M 38,9.875 L 563,9.875 C 578.58125,9.875 591.125,22.41875 591.125,38 L 591.125,563 C 591.125,578.58125 578.58125,591.125 563,591.125 L 38,591.125 C 22.41875,591.125 9.875,578.58125 9.875,563 L 9.875,38 C 9.875,22.41875 22.41875,9.875 38,9.875 z "
       id="rect2760" />
    <path
       style="color:black;fill:white;fill-opacity:1;fill-rule:nonzero;stroke:none;stroke-width:0.8735441;stroke-linecap:butt;stroke-linejoin:miter;marker:none;marker-start:none;marker-mid:none;marker-end:none;stroke-miterlimit:4;stroke-dashoffset:0;stroke-opacity:1;visibility:visible;display:inline;overflow:visible"
       d="M 38,25.5 L 563,25.5 C 569.925,25.5 575.5,31.075 575.5,38 L 575.5,563 C 575.5,569.925 569.925,575.5 563,575.5 L 38,575.5 C 31.075,575.5 25.5,569.925 25.5,563 L 25.5,38 C 25.5,31.075 31.075,25.5 38,25.5 z "
       id="rect3647" />
    <path
       style="font-size:373.12701416px;font-style:normal;font-variant:normal;font-weight:normal;font-stretch:normal;text-align:center;line-height:125%;writing-mode:lr-tb;text-anchor:middle;font-family:Roadgeek 2005 Series E"
       d="M 268.45718,307.7847 C 264.22863,311.76273 260.74613,315.05735 258.00967,317.66855 C 255.27281,320.28015 252.91003,322.70556 250.92131,324.9448 C 248.93219,327.18442 247.19189,329.23596 245.7004,331.09944 C 244.20852,332.96328 242.71494,335.14008 241.21964,337.62985 C 232.76277,349.07008 224.86594,362.44023 217.52912,377.74032 C 210.19199,393.04068 204.03356,408.02777 199.05383,422.70162 C 196.56374,430.16394 194.5103,437.31493 192.8935,444.1546 C 191.27642,450.99442 189.90999,457.95942 188.7942,465.04963 C 187.67815,472.13993 186.86968,479.54143 186.36878,487.25414 C 185.86763,494.96691 185.49566,503.54886 185.25286,513 L 140.47944,513 C 140.72228,503.54886 141.03163,495.02954 141.40748,487.44203 C 141.78316,479.85457 142.40565,472.57833 143.27494,465.61328 C 144.14405,458.64833 145.26187,451.80668 146.62839,445.08833 C 147.99473,438.37012 149.6762,431.1584 151.6728,423.45316 C 156.14397,407.77725 161.4275,392.78827 167.52341,378.48616 C 173.6191,364.18432 180.39811,350.81608 187.86047,338.38139 C 189.84926,334.39614 192.3373,330.1659 195.32461,325.69065 C 198.31164,321.21578 202.54188,314.99662 208.01534,307.03316 L 66.601024,307.03316 L 65.849486,262.99989 L 268.45718,262.99989 L 268.45718,307.7847 L 268.45718,307.7847 z M 535.15054,386.51395 C 535.1503,402.68351 533.22401,418.54169 529.37167,434.08856 C 525.51886,449.63558 519.42496,463.62631 511.08995,476.06079 C 502.7545,488.49535 491.99576,498.50635 478.81369,506.09383 C 465.63124,513.68132 449.58517,517.47506 430.67543,517.47506 C 412.02351,517.47506 396.04387,513.80657 382.73644,506.46959 C 369.42884,499.13263 358.54484,489.37024 350.08441,477.1824 C 341.62387,464.99464 335.40472,451.12726 331.42692,435.58024 C 327.44905,420.03338 325.46014,404.04994 325.46017,387.62987 C 325.46014,371.21005 327.51168,355.22661 331.61481,339.6795 C 335.71786,324.13273 342.06037,310.39061 350.64237,298.45311 C 359.22426,286.51603 370.10826,276.877 383.2944,269.53599 C 396.48037,262.19546 412.27403,258.52508 430.67543,258.52483 C 449.33466,258.52508 465.25547,262.25619 478.43792,269.71818 C 491.61999,277.18065 502.44136,286.94494 510.90206,299.01107 C 519.36233,311.07762 525.51886,324.75901 529.37167,340.05526 C 533.22401,355.35187 535.1503,370.83808 535.15054,386.51395 L 535.15054,386.51395 z M 490.37712,387.62987 C 490.37692,361.26548 485.15412,340.61909 474.7087,325.69065 C 464.26291,310.76258 449.58517,303.29846 430.67543,303.29825 C 419.48574,303.29846 410.0346,305.91175 402.32197,311.13815 C 394.60912,316.36495 388.38996,323.0206 383.66448,331.10514 C 378.93881,339.19003 375.51894,348.14395 373.40485,357.96691 C 371.2906,367.79018 370.23351,377.30585 370.23359,386.51395 C 370.23351,414.37408 375.58157,435.70368 386.27778,450.50282 C 396.9738,465.30208 411.773,472.70169 430.67543,472.70164 C 439.88352,472.70169 448.15611,470.65014 455.49325,466.54701 C 462.83006,462.44397 469.10995,456.59868 474.33293,449.01113 C 479.55555,441.42371 483.53528,432.34454 486.27213,421.77359 C 489.00859,411.20282 490.37692,399.44962 490.37712,386.51395 L 490.37712,387.62987 z "
       id="text2779" />
    <g
       id="g2834"
       transform="translate(0.5,0.5)">
      <path
         id="text2792"
         d="M 99.411076,114.92398 L 99.411076,201.56215 L 83.468809,201.56215 L 83.468809,114.92398 L 60.452821,114.92398 L 60.452821,100.78113 L 122.72544,100.78113 L 122.72544,114.92398 L 99.411076,114.92398 z "
         style="font-size:150.41641235px;font-style:normal;font-variant:normal;font-weight:normal;font-stretch:normal;text-align:center;line-height:125%;writing-mode:lr-tb;text-anchor:middle;font-family:Roadgeek 2005 Series D"
         transform="scale(1.007811,0.99225)" />
      <path
         id="text2798"
         d="M 184.04441,201.56215 L 167.79918,157.64173 L 148.69876,157.64173 L 148.69876,201.56215 L 132.7519,201.56215 L 132.7519,100.78113 L 165.99518,100.78113 C 169.9061,100.78123 173.26546,101.00693 176.07328,101.45821 C 178.88098,101.90969 181.53802,102.73825 184.04441,103.94388 C 186.25077,105.04566 188.282,106.47402 190.13809,108.22897 C 191.99405,109.9841 193.59838,111.98931 194.95107,114.24461 C 196.30362,116.50009 197.35633,118.90696 198.10923,121.46523 C 198.86197,124.02366 199.23837,126.55599 199.23845,129.06225 C 199.23837,131.77062 198.86197,134.40318 198.10923,136.95993 C 197.35633,139.51682 196.30362,141.92292 194.95107,144.17825 C 193.59838,146.4337 191.94432,148.46416 189.98891,150.26964 C 188.03335,152.07522 185.90191,153.47987 183.59456,154.48357 L 201.34542,201.56215 L 184.04441,201.56215 z M 183.29159,129.06225 C 183.29153,126.95688 182.74069,124.95167 181.63907,123.0466 C 180.53733,121.14169 178.98273,119.63682 176.97528,118.532 C 175.67157,117.83129 174.46813,117.35542 173.36497,117.1044 C 172.26171,116.85354 170.40645,116.72808 167.79918,116.72799 L 148.69876,116.72799 L 148.69876,141.3965 L 167.79918,141.3965 C 170.30852,141.39656 172.1393,141.29634 173.29153,141.09583 C 174.44365,140.89545 175.67157,140.4433 176.97528,139.73939 C 178.98273,138.63777 180.53733,137.10918 181.63907,135.15363 C 182.74069,133.19822 183.29153,131.16775 183.29159,129.06225 L 183.29159,129.06225 z "
         style="font-size:150.41641235px;font-style:normal;font-variant:normal;font-weight:normal;font-stretch:normal;text-align:center;line-height:125%;writing-mode:lr-tb;text-anchor:middle;font-family:Roadgeek 2005 Series D"
         transform="scale(1.007811,0.99225)" />
      <path
         id="text2804"
         d="M 281.39091,165.46368 C 281.39083,169.37468 280.9647,173.08444 280.1125,176.59297 C 279.26015,180.10154 278.13169,183.35992 276.72712,186.36811 C 275.42339,188.87751 273.71884,191.15967 271.61348,193.21461 C 269.50797,195.26956 267.1516,197.04908 264.54435,198.55318 C 261.93697,200.05728 259.15369,201.23547 256.19451,202.08774 C 253.23522,202.94002 250.20253,203.36615 247.09645,203.36615 C 243.98721,203.36615 240.953,202.94002 237.99379,202.08774 C 235.03452,201.23547 232.25124,200.05728 229.64396,198.55318 C 227.03662,197.04908 224.65499,195.26956 222.49909,193.21461 C 220.34314,191.15967 218.61334,188.87751 217.3097,186.36811 C 215.9081,183.35992 214.80565,180.10154 214.00236,176.59297 C 213.19904,173.08444 212.79738,169.37468 212.79739,165.46368 L 212.79739,100.78113 L 228.74425,100.78113 L 228.74425,165.46368 C 228.74422,172.07993 230.42352,177.34352 233.78215,181.25446 C 237.14072,185.16545 241.57881,187.12094 247.09645,187.12092 C 252.61093,187.12094 257.04749,185.16545 260.40615,181.25446 C 263.76469,177.34352 265.44399,172.07993 265.44406,165.46368 L 265.44406,100.78113 L 281.39091,100.78113 L 281.39091,165.46368 L 281.39091,165.46368 z "
         style="font-size:150.41641235px;font-style:normal;font-variant:normal;font-weight:normal;font-stretch:normal;text-align:center;line-height:125%;writing-mode:lr-tb;text-anchor:middle;font-family:Roadgeek 2005 Series D"
         transform="scale(1.007811,0.99225)" />
      <path
         id="text2810"
         d="M 364.83102,181.10757 C 358.81454,195.94663 348.68672,203.36615 334.44753,203.36615 C 326.92544,203.36615 320.70783,201.91255 315.79466,199.00533 C 310.88144,196.09811 306.81975,191.53532 303.60959,185.31692 C 301.30523,180.8031 299.50122,175.53798 298.19758,169.52154 C 296.89391,163.50517 296.24208,157.33881 296.24209,151.02245 C 296.24208,143.00165 297.2443,135.33043 299.24877,128.00876 C 301.2532,120.68724 304.01047,114.77106 307.52057,110.26019 C 310.52875,106.54823 314.1643,103.73971 318.42723,101.83462 C 322.69009,99.929726 327.67826,98.97723 333.39175,98.977128 C 341.01473,98.97723 347.30808,100.63205 352.27184,103.94159 C 357.23546,107.25132 361.42185,112.46518 364.83102,119.58318 L 349.93994,125.90409 C 348.53523,123.79873 347.25606,122.04369 346.10241,120.63896 C 344.94865,119.2344 343.74521,118.13119 342.49211,117.32933 C 341.23889,116.52763 339.8855,115.97602 338.43195,115.67451 C 336.97829,115.37316 335.29822,115.22244 333.39175,115.22236 C 329.28182,115.22244 325.84824,116.17494 323.09102,118.07985 C 320.33371,119.98492 318.10281,123.19433 316.39829,127.70809 C 315.09461,130.71637 314.11686,134.27618 313.46506,138.38753 C 312.81321,142.49901 312.48729,146.71065 312.48732,151.02245 C 312.48729,156.53703 313.0389,161.82664 314.14214,166.89128 C 315.24532,171.95599 316.79915,176.09188 318.80363,179.29898 C 320.60914,181.90631 322.71534,183.8618 325.12224,185.16544 C 327.52907,186.46911 330.48602,187.12094 333.99308,187.12092 C 337.40519,187.12094 340.36443,186.19369 342.87081,184.33918 C 345.37708,182.4847 347.63247,179.50097 349.63698,175.388 L 364.83102,181.10757 L 364.83102,181.10757 z "
         style="font-size:150.41641235px;font-style:normal;font-variant:normal;font-weight:normal;font-stretch:normal;text-align:center;line-height:125%;writing-mode:lr-tb;text-anchor:middle;font-family:Roadgeek 2005 Series D"
         transform="scale(1.007811,0.99225)" />
      <path
         id="text2816"
         d="M 525.59481,172.53281 C 525.59474,177.1446 524.7417,181.40597 523.03569,185.31692 C 521.32955,189.22791 518.87295,192.637 515.6659,195.54421 C 512.85654,198.05054 509.57216,199.98078 505.81272,201.33493 C 502.05318,202.68908 498.0175,203.36615 493.70569,203.36615 C 484.98094,203.36615 477.53464,201.03503 471.36677,196.37276 C 465.19887,191.71051 460.41038,185.51891 457.00129,177.79793 L 472.19533,172.22985 C 474.30075,177.04361 477.20873,180.72889 480.91928,183.28569 C 484.62978,185.84253 488.89191,187.12094 493.70569,187.12092 C 498.41839,187.12094 502.20389,185.69181 505.0622,182.83354 C 507.9204,179.97531 509.34952,176.44075 509.34958,172.22985 C 509.34952,168.92177 508.472,166.215 506.71702,164.10953 C 504.96192,162.00413 502.68053,160.22384 499.87281,158.76866 C 497.06501,157.31357 493.98107,156.03439 490.62098,154.93113 C 487.26081,153.82797 483.92669,152.62453 480.61861,151.32083 C 479.11295,150.72107 477.25769,149.86956 475.05282,148.7663 C 472.84791,147.66314 470.71722,146.13379 468.66077,144.17825 C 466.60428,142.22282 464.84924,139.79071 463.39564,136.8819 C 461.94202,133.97322 461.21522,130.41341 461.21523,126.20246 C 461.21522,121.29087 462.017,117.10525 463.62057,113.64557 C 465.22412,110.18608 467.40529,107.37832 470.1641,105.22229 C 472.92288,103.06646 476.23252,101.48662 480.09302,100.48276 C 483.95347,99.479107 488.13909,98.97723 492.64991,98.977128 C 499.77101,98.97723 505.71321,100.83249 510.47651,104.54292 C 515.2397,108.25354 518.87448,113.26696 521.38087,119.58318 L 507.24261,123.79712 C 506.44078,122.19364 505.38806,120.74003 504.08446,119.43629 C 502.97966,118.33163 501.44955,117.32788 499.49411,116.42503 C 497.53858,115.52235 495.15772,115.022 492.35154,114.92398 C 490.54596,114.82308 488.66545,114.94779 486.71,115.2981 C 484.75448,115.64858 483.02469,116.27516 481.52062,117.17784 C 480.01649,118.0807 478.81305,119.30938 477.91031,120.86389 C 477.00752,122.41857 476.65712,124.34957 476.85912,126.65691 C 477.05801,129.76311 478.4114,132.14397 480.91928,133.79948 C 483.42711,135.45513 486.48581,136.88426 490.09538,138.08686 C 493.70488,139.2896 497.5906,140.51751 501.75256,141.77062 C 505.91442,143.02384 509.74965,144.82861 513.25826,147.18493 C 516.76675,149.54136 519.69998,152.70027 522.05795,156.66169 C 524.41579,160.6232 525.59474,165.91357 525.59481,172.53281 L 525.59481,172.53281 z "
         style="font-size:150.41641235px;font-style:normal;font-variant:normal;font-weight:normal;font-stretch:normal;text-align:center;line-height:125%;writing-mode:lr-tb;text-anchor:middle;font-family:Roadgeek 2005 Series D"
         transform="scale(1.007811,0.99225)" />
      <path
         id="text2822"
         d="M 431.82305,201.56215 L 406.25483,153.88224 L 395.72458,166.96472 L 395.72458,201.56215 L 379.77773,201.56215 L 379.77773,100.78113 L 395.72458,100.78113 L 395.72458,140.79517 L 427.46223,100.78113 L 448.06828,100.78113 L 416.93197,140.04235 L 450.17525,201.56215 L 431.82305,201.56215 z "
         style="font-size:150.41641235px;font-style:normal;font-variant:normal;font-weight:normal;font-stretch:normal;text-align:center;line-height:125%;writing-mode:lr-tb;text-anchor:middle;font-family:Roadgeek 2005 Series D"
         transform="scale(1.007811,0.99225)" />
    </g>
  </g>
</svg>
