<svg xmlns="http://www.w3.org/2000/svg" width="513" height="512" viewBox="0 0 513 512">
  <g fill="none" fill-rule="evenodd">
    <circle cx="256" cy="256" r="256" fill="#FFF"/>
    <path fill="#D81E00" d="M257,512 C115.615104,512 1,397.384896 1,256 C1,114.615104 115.615104,0 257,0 C398.384896,0 513,114.615104 513,256 C513,397.384896 398.384896,512 257,512 Z M257,467 C373.532082,467 468,372.532082 468,256 C468,139.467918 373.532082,45 257,45 C140.467918,45 46,139.467918 46,256 C46,372.532082 140.467918,467 257,467 Z"/>
    <g fill="#000" fill-rule="nonzero" transform="translate(78 79)">
      <path d="M300.333 150L290.988 150 283.245 128.195 278.617 135.582 278.617 150 270.073 150 270.073 89.569 278.617 85.119 278.617 113.154C278.617 116.773351 278.557667 120.125651 278.439 123.211 279.09167 121.846327 280.367324 119.443351 282.266 116.002L289.297 103.275 298.998 103.275 288.941 119.473 300.333 150zM357.115 150L348.571 150 348.571 121.253C348.571 117.752316 348.452335 115.438339 348.215 114.311 347.56233 111.70032 346.049345 110.395 343.676 110.395 340.768652 110.395 338.454675 111.818986 336.734 114.667L336.734 150 328.19 150 328.19 121.253C328.19 117.752316 328.071335 115.438339 327.834 114.311 327.18133 111.70032 325.668345 110.395 323.295 110.395 320.387652 110.395 318.073675 111.818986 316.353 114.667L316.353 150 307.809 150 307.809 103.275 316.353 103.275 316.353 106.479C318.548344 103.690319 321.455649 102.296 325.075 102.296 329.465689 102.296 332.610324 103.957317 334.509 107.28 337.416348 103.957317 341.065311 102.296 345.456 102.296 349.965356 102.296 353.080325 103.808985 354.801 106.835 356.343674 109.564347 357.115 114.192301 357.115 120.719L357.115 150zM131.1015 208.911C131.1015 228.645099 125.570055 244.641439 114.507 256.9005 103.443945 269.159561 89.6402494 275.289 73.0955 275.289 56.3514163 275.289 42.4978882 269.907054 31.5345 259.143 19.7737745 247.18294 13.8935 230.83777 13.8935 210.107 13.8935 186.585549 22.4647476 169.044391 39.6075 157.483 25.4547626 148.313621 18.3785 134.858755 18.3785 117.118 18.3785 99.576579 23.4116163 85.5735523 33.478 75.1085 43.5443837 64.6434477 56.6504193 59.411 72.7965 59.411 89.1419151 59.411 102.247951 64.6434477 112.115 75.1085 121.982049 85.5735523 126.9155 99.3772476 126.9155 116.52 126.9155 134.46009 119.739572 148.114286 105.3875 157.483 122.530252 168.845057 131.1015 185.987552 131.1015 208.911zM98.2115 116.52C98.2115 97.18457 89.6402524 87.517 72.4975 87.517 55.554082 87.517 47.0825 97.18457 47.0825 116.52 47.0825 124.892042 49.3748104 131.71914 53.9595 137.0015 58.5441896 142.28386 64.8231268 144.925 72.7965 144.925 80.9692075 144.925 87.2481447 142.28386 91.6335 137.0015 96.0188553 131.71914 98.2115 124.892042 98.2115 116.52zM102.3975 209.509C102.3975 198.146943 99.7563597 189.177033 94.474 182.599 89.1916403 176.020967 81.9658792 172.732 72.7965 172.732 63.4277865 172.732 56.0525269 176.020967 50.6705 182.599 45.2884731 189.177033 42.5975 198.146943 42.5975 209.509 42.5975 234.625126 52.9627297 247.183 73.6935 247.183 92.8295957 247.183 102.3975 234.625126 102.3975 209.509zM257.7045 167.051C257.7045 199.542496 252.920548 225.156573 243.3525 243.894 232.588446 264.824105 216.641939 275.289 195.5125 275.289 174.582395 275.289 158.835219 264.92377 148.2705 244.193 138.901786 225.654907 134.2175 200.140496 134.2175 167.649 134.2175 135.157504 139.001452 109.543427 148.5695 90.806 159.134219 69.8758954 174.881395 59.411 195.8115 59.411 216.940939 59.411 232.787781 69.676564 243.3525 90.208 252.920548 108.546758 257.7045 134.160836 257.7045 167.051zM228.4025 167.649C228.4025 114.626068 217.339611 88.115 195.2135 88.115 174.084061 88.115 163.5195 114.426737 163.5195 167.051 163.5195 220.073932 174.482724 246.585 196.4095 246.585 217.738273 246.585 228.4025 220.273263 228.4025 167.649z"/>
    </g>
  </g>
</svg>
