<svg xmlns="http://www.w3.org/2000/svg" width="513" height="512" viewBox="0 0 513 512">
  <g fill="none" fill-rule="evenodd">
    <ellipse cx="256.5" cy="256" fill="#FFF" rx="256.5" ry="256"/>
    <path fill="#D81E00" d="M256.5,512 C114.838962,512 0,397.384896 0,256 C0,114.615104 114.838962,0 256.5,0 C398.161038,0 513,114.615104 513,256 C513,397.384896 398.161038,512 256.5,512 Z M256.5,458 C368.279413,458 458.894531,367.561519 458.894531,256 C458.894531,144.438481 368.279413,54 256.5,54 C144.720587,54 54.1054688,144.438481 54.1054688,256 C54.1054688,367.561519 144.720587,458 256.5,458 Z"/>
    <path fill="#000" fill-rule="nonzero" d="M122,169.046875 L246.921875,169.046875 L246.921875,202.689453 L177.097656,342.337891 L133.298828,342.337891 L205.28125,203.832031 L205.28125,202.054688 L122,202.054688 L122,169.046875 Z M254.535156,259.818359 L254.535156,251.3125 C254.535156,199.642578 280.941406,166 323.597656,166 C366.253906,166 391.771484,198.880859 391.771484,251.3125 L391.771484,259.818359 C391.771484,311.361328 364.984375,345.511719 322.708984,345.511719 C280.433594,345.511719 254.535156,312.123047 254.535156,259.818359 Z M296.302734,251.439453 L296.302734,259.691406 C296.302734,292.826172 306.332031,312.25 323.089844,312.25 C339.847656,312.25 350.003906,292.699219 350.003906,259.691406 L350.003906,251.439453 C350.003906,218.558594 339.974609,199.261719 323.089844,199.261719 C306.332031,199.261719 296.302734,218.431641 296.302734,251.439453 Z"/>
  </g>
</svg>
