<svg xmlns="http://www.w3.org/2000/svg" width="513" height="512" viewBox="0 0 513 512">
  <g fill="none" fill-rule="evenodd">
    <circle cx="256" cy="256" r="256" fill="#FFF"/>
    <path fill="#D81E00" d="M257,512 C115.615104,512 1,397.384896 1,256 C1,114.615104 115.615104,0 257,0 C398.384896,0 513,114.615104 513,256 C513,397.384896 398.384896,512 257,512 Z M257,467 C373.532082,467 468,372.532082 468,256 C468,139.467918 373.532082,45 257,45 C140.467918,45 46,139.467918 46,256 C46,372.532082 140.467918,467 257,467 Z"/>
    <g fill="#000" fill-rule="nonzero" transform="translate(90 138)">
      <path d="M282.333 91L272.988 91 265.245 69.195 260.617 76.582 260.617 91 252.073 91 252.073 30.569 260.617 26.119 260.617 54.154C260.617 57.7733514 260.557667 61.1256512 260.439 64.211 261.09167 62.8463265 262.367324 60.4433505 264.266 57.002L271.297 44.275 280.998 44.275 270.941 60.473 282.333 91zM339.115 91L330.571 91 330.571 62.253C330.571 58.7523158 330.452335 56.438339 330.215 55.311 329.56233 52.7003203 328.049345 51.395 325.676 51.395 322.768652 51.395 320.454675 52.8189858 318.734 55.667L318.734 91 310.19 91 310.19 62.253C310.19 58.7523158 310.071335 56.438339 309.834 55.311 309.18133 52.7003203 307.668345 51.395 305.295 51.395 302.387652 51.395 300.073675 52.8189858 298.353 55.667L298.353 91 289.809 91 289.809 44.275 298.353 44.275 298.353 47.479C300.548344 44.6903194 303.455649 43.296 307.075 43.296 311.465689 43.296 314.610324 44.9573167 316.509 48.28 319.416348 44.9573167 323.065311 43.296 327.456 43.296 331.965356 43.296 335.080325 44.8089849 336.801 47.835 338.343674 50.564347 339.115 55.1923007 339.115 61.719L339.115 91zM119.1015 152.901C119.1015 172.635099 113.420557 188.13311 102.0585 199.3955 90.6964432 210.65789 76.244921 216.289 58.7035 216.289 34.9827147 216.289 15.5479091 205.126445.3985 182.801L21.9265 164.562C33.4878911 180.110078 46.2450969 187.884 60.1985 187.884 68.9692105 187.884 76.0953059 184.943863 81.577 179.0635 87.0586941 173.183137 89.7995 164.960719 89.7995 154.396 89.7995 129.08054 76.0456375 116.423 48.5375 116.423L41.6605 116.423 41.6605 88.317 49.1355 88.317C60.0988882 88.317 68.8196343 85.3768627 75.298 79.4965 81.7763657 73.6161373 85.0155 65.4933852 85.0155 55.128 85.0155 37.586579 76.5439181 28.816 59.6005 28.816 50.4311208 28.816 39.6672285 34.6962745 27.3085 46.457L9.3685 25.826C25.7139151 8.88258195 42.8564103.411 60.7965.411 76.9425807.411 89.7994522 4.89595515 99.3675 13.866 109.334217 23.4340478 114.3175 36.8889133 114.3175 54.231 114.3175 76.556445 104.450599 91.9049581 84.7165 100.277 107.639948 107.65237 119.1015 125.193528 119.1015 152.901zM240.0235 141.838C240.0235 165.359451 234.641554 183.498603 223.8775 196.256 212.515443 209.6114 196.070608 216.289 174.5425 216.289 154.409733 216.289 137.067906 208.714409 122.5165 193.565L138.9615 171.439C150.522891 182.402388 162.881434 187.884 176.0375 187.884 199.359617 187.884 211.0205 172.93415 211.0205 143.034 211.0205 130.874606 208.628524 121.10737 203.8445 113.732 198.462473 105.758627 190.987548 101.772 181.4195 101.772 169.858109 101.772 160.788533 106.755284 154.2105 116.722L129.0945 111.938 134.4765 3.7 233.4455 3.7 233.4455 32.404 161.3865 32.404 158.6955 81.141C166.868208 75.9583074 175.838118 73.367 185.6055 73.367 202.947587 73.367 216.352619 79.4466059 225.821 91.606 235.289381 103.765394 240.0235 120.509227 240.0235 141.838z"/>
    </g>
  </g>
</svg>
