<?xml version="1.0" encoding="UTF-8" standalone="no"?>
<!-- Generator: Adobe Illustrator 12.0.1, SVG Export Plug-In  -->

<svg
   xmlns:dc="http://purl.org/dc/elements/1.1/"
   xmlns:cc="http://creativecommons.org/ns#"
   xmlns:rdf="http://www.w3.org/1999/02/22-rdf-syntax-ns#"
   xmlns:svg="http://www.w3.org/2000/svg"
   xmlns="http://www.w3.org/2000/svg"
   xmlns:sodipodi="http://sodipodi.sourceforge.net/DTD/sodipodi-0.dtd"
   xmlns:inkscape="http://www.inkscape.org/namespaces/inkscape"
   version="1.1"
   width="233.375"
   height="287.5"
   viewBox="-0.069 0 233.375 287.5"
   enable-background="new -0.069 0 234 288"
   xml:space="preserve"
   id="svg2"
   inkscape:version="0.48.2 r9819"
   sodipodi:docname="AJAX1.svg"><metadata
   id="metadata48"><rdf:RDF><cc:Work
       rdf:about=""><dc:format>image/svg+xml</dc:format><dc:type
         rdf:resource="http://purl.org/dc/dcmitype/StillImage" /></cc:Work></rdf:RDF></metadata><sodipodi:namedview
   pagecolor="#ffffff"
   bordercolor="#666666"
   borderopacity="1"
   objecttolerance="10"
   gridtolerance="10"
   guidetolerance="10"
   inkscape:pageopacity="0"
   inkscape:pageshadow="2"
   inkscape:window-width="1280"
   inkscape:window-height="1004"
   id="namedview46"
   showgrid="false"
   fit-margin-top="0"
   fit-margin-left="0"
   fit-margin-right="0"
   fit-margin-bottom="0"
   inkscape:zoom="2.3177389"
   inkscape:cx="84.910692"
   inkscape:cy="169.91326"
   inkscape:window-x="-8"
   inkscape:window-y="-8"
   inkscape:window-maximized="1"
   inkscape:current-layer="svg2" />
<defs
   id="defs4">
</defs>
<path
   d="m 19.7495,0.743 h 193.744 c 10.481,0 19.064,8.581 19.064,19.069 v 247.872 c 0,10.494 -8.583,19.069 -19.064,19.069 H 19.7495 c -10.489,0 -19.067,-8.575 -19.067,-19.069 V 19.813 c 0,-10.489 8.578,-19.07 19.067,-19.07 z"
   id="path6"
   style="fill:#ffffff;stroke:#000000;stroke-width:1.5;stroke-miterlimit:4;stroke-opacity:1;stroke-dasharray:none"
   inkscape:connector-curvature="0" />

<path
   clip-rule="evenodd"
   d="m 20.7665,5.701 h 191.705 c 8.327,0 15.127,6.811 15.127,15.134 V 266.67 c 0,8.313 -6.8,15.127 -15.127,15.127 H 20.7665 c -8.318,0 -15.126,-6.814 -15.126,-15.127 V 20.835 c 0,-8.323 6.808,-15.134 15.126,-15.134"
   id="path10"
   inkscape:connector-curvature="0"
   style="fill:#000000;fill-rule:evenodd;stroke:none" />
<path
   d="M 212.4135,11.491 H 20.8295 c -5.188,0 -9.409,4.216 -9.409,9.399 v 245.727 c 0,5.186 4.221,9.404 9.409,9.404 h 191.584 c 5.186,0 9.406,-4.219 9.406,-9.404 V 20.891 c 0,-5.184 -4.22,-9.4 -9.406,-9.4 z"
   id="path12"
   inkscape:connector-curvature="0"
   style="fill:#ffffff;stroke:none;stroke-opacity:1" />
<path
   d="m 77.3645,56.306 -2.921,-6.271 h -14.647 l -3.007,6.271 h -6.056 l 13.616,-28.778 h 5.454 l 13.659,28.778 h -6.098 z m -10.266,-21.82 -4.768,10.008 h 9.493 l -4.725,-10.008 z"
   id="path14"
   inkscape:connector-curvature="0"
   style="fill:#000000;stroke:none" />
<path
   d="m 109.2775,56.306 -6.357,-10.824 h -8.891 v 10.824 h -5.455 V 27.527 h 17.567 c 5.068,0 9.105,4.038 9.105,8.977 0,3.866 -2.448,7.173 -6.185,8.505 l 6.571,11.296 h -6.355 z m -3.135,-23.324 h -12.113 v 7.087 h 12.112 c 2.019,0 3.65,-1.632 3.65,-3.565 0.001,-1.889 -1.631,-3.522 -3.649,-3.522 z"
   id="path16"
   inkscape:connector-curvature="0"
   style="fill:#000000;stroke:none" />
<path
   d="M 122.5065,56.306 V 27.527 h 22.937 v 5.455 h -17.482 v 5.24 h 10.094 v 5.541 h -10.094 v 7.087 h 17.868 v 5.455 h -23.323 z"
   id="path18"
   inkscape:connector-curvature="0"
   style="fill:#000000;stroke:none" />
<path
   d="m 176.4115,56.306 -2.921,-6.271 h -14.646 l -3.007,6.271 h -6.056 l 13.615,-28.778 h 5.455 l 13.659,28.778 h -6.099 z m -10.265,-21.82 -4.768,10.008 h 9.492 l -4.724,-10.008 z"
   id="path20"
   inkscape:connector-curvature="0"
   style="fill:#000000;stroke:none" />
<path
   d="m 53.3765,103.802 c -5.885,0 -10.008,-1.203 -14.346,-4.338 l 3.135,-4.467 c 3.437,2.32 6.443,3.222 10.996,3.222 4.854,0 7.474,-1.074 7.474,-3.308 0,-1.203 -1.117,-2.448 -2.749,-3.049 -1.375,-0.473 -3.092,-0.902 -6.83,-1.589 -4.381,-0.902 -6.485,-1.718 -7.989,-3.221 -1.503,-1.546 -2.234,-3.136 -2.234,-5.069 0,-3.049 1.632,-5.24 4.854,-6.571 2.019,-0.902 4.553,-1.417 6.958,-1.417 4.038,0 7.688,1.117 11.511,3.436 l -2.92,4.553 c -2.921,-1.804 -5.455,-2.405 -8.977,-2.405 -4.038,0 -5.971,0.688 -5.971,2.32 0,2.491 5.24,2.92 7.087,3.221 3.307,0.602 6.529,1.589 8.375,2.534 2.62,1.417 4.252,4.338 4.252,7.474 0.002,5.452 -4.68,8.674 -12.626,8.674 z"
   id="path22"
   inkscape:connector-curvature="0"
   style="fill:#000000;stroke:none" />
<path
   d="m 90.9165,92.462 h -12.628 v 10.824 h -5.455 V 74.508 h 18.083 c 4.939,0 8.977,4.038 8.977,8.977 0,4.939 -4.038,8.977 -8.977,8.977 z m 0,-12.499 h -12.628 v 7.087 h 12.628 c 1.933,0 3.436,-1.632 3.436,-3.565 0,-1.89 -1.504,-3.522 -3.436,-3.522 z"
   id="path24"
   inkscape:connector-curvature="0"
   style="fill:#000000;stroke:none" />
<path
   d="M 106.7655,103.286 V 74.508 h 22.937 v 5.455 h -17.481 v 5.24 h 10.094 v 5.541 h -10.094 v 7.087 h 17.868 v 5.455 h -23.324 z"
   id="path26"
   inkscape:connector-curvature="0"
   style="fill:#000000;stroke:none" />
<path
   d="M 136.9595,103.286 V 74.508 h 22.938 v 5.455 h -17.482 v 5.24 h 10.094 v 5.541 h -10.094 v 7.087 h 17.868 v 5.455 h -23.324 z"
   id="path28"
   inkscape:connector-curvature="0"
   style="fill:#000000;stroke:none" />
<path
   d="m 179.7835,103.286 h -12.629 V 74.508 h 12.629 c 7.988,0 14.432,6.443 14.432,14.346 0,7.989 -6.443,14.432 -14.432,14.432 z m 0,-23.323 h -7.174 v 17.868 h 7.174 c 4.939,0 8.891,-4.038 8.891,-8.977 0,-4.854 -3.951,-8.891 -8.891,-8.891 z"
   id="path30"
   inkscape:connector-curvature="0"
   style="fill:#000000;stroke:none" />
<path
   d="m 55.5015,149.93 v -28.779 h 5.455 v 23.323 h 19.286 v 5.456 h -24.741 z"
   id="path32"
   inkscape:connector-curvature="0"
   style="fill:#000000;stroke:none" />
<path
   d="m 86.4705,149.93 v -28.779 h 5.455 c 0,0 0.086,28.779 0,28.779 0.086,0 -5.455,0 -5.455,0 z"
   id="path34"
   inkscape:connector-curvature="0"
   style="fill:#000000;stroke:none" />
<path
   d="m 126.7175,149.93 v -17.053 l -10.396,17.053 -9.879,-17.053 v 17.053 h -5.369 v -28.779 h 5.068 l 10.18,18.083 10.695,-18.083 h 5.154 v 28.779 h -5.453 z"
   id="path36"
   inkscape:connector-curvature="0"
   style="fill:#000000;stroke:none" />
<path
   d="m 141.3195,149.93 v -28.779 h 5.455 c 0,0 0.086,28.779 0,28.779 0.086,0 -5.455,0 -5.455,0 z"
   id="path38"
   inkscape:connector-curvature="0"
   style="fill:#000000;stroke:none" />
<path
   d="m 168.3375,126.606 v 23.324 h -5.455 v -23.324 h -9.879 v -5.455 h 24.74 v 5.455 h -9.406 z"
   id="path40"
   inkscape:connector-curvature="0"
   style="fill:#000000;stroke:none" />
<path
   d="m 97.7195,240.684 v 18.904 h -16.263 v -18.904 h -57.546 v -15.012 l 57.546,-59.214 h 16.263 v 59.214 h 13.761 v 15.012 h -13.761 z m -16.263,-52.264 -36.279,37.252 h 36.279 V 188.42 z"
   id="path42"
   inkscape:connector-curvature="0"
   style="fill:#000000;stroke:none" />
<path
   d="m 170.1365,261.256 c -12.788,0 -24.187,-3.336 -36.001,-10.425 l 8.757,-14.178 c 8.201,5.004 17.653,7.645 27.244,7.645 14.039,0 22.518,-6.255 22.518,-16.68 0,-5.004 -2.363,-9.869 -5.838,-12.788 -3.336,-2.642 -8.201,-3.893 -15.151,-3.893 -6.115,0 -11.119,0.974 -17.931,3.614 l -16.68,-4.309 2.919,-43.785 h 61.854 v 16.402 h -46.147 l -0.974,13.344 c 7.507,-1.668 12.094,-2.363 17.932,-2.363 21.267,0 36.696,14.456 36.696,33.777 0,19.6 -16.402,33.639 -39.198,33.639 z"
   id="path44"
   inkscape:connector-curvature="0"
   style="fill:#000000;stroke:none" />
</svg>