<?xml version="1.0" encoding="UTF-8" standalone="no"?>
<!-- Created with Inkscape (http://www.inkscape.org/) -->
<svg
   xmlns:dc="http://purl.org/dc/elements/1.1/"
   xmlns:cc="http://web.resource.org/cc/"
   xmlns:rdf="http://www.w3.org/1999/02/22-rdf-syntax-ns#"
   xmlns:svg="http://www.w3.org/2000/svg"
   xmlns="http://www.w3.org/2000/svg"
   xmlns:sodipodi="http://sodipodi.sourceforge.net/DTD/sodipodi-0.dtd"
   xmlns:inkscape="http://www.inkscape.org/namespaces/inkscape"
   width="601"
   height="601"
   id="svg2"
   sodipodi:version="0.32"
   inkscape:version="0.44"
   version="1.0"
   sodipodi:docbase="C:\Documents and Settings\ltljltlj\Desktop\Signs\Speed Limit Signs"
   sodipodi:docname="Trucks Speed 50 sign (Outline).svg">
  <defs
     id="defs4" />
  <sodipodi:namedview
     id="base"
     pagecolor="#ffffff"
     bordercolor="#666666"
     borderopacity="1.0"
     gridtolerance="10000"
     guidetolerance="10"
     objecttolerance="10"
     inkscape:pageopacity="0.0"
     inkscape:pageshadow="2"
     inkscape:zoom="1.2866667"
     inkscape:cx="300.00003"
     inkscape:cy="300.00003"
     inkscape:document-units="px"
     inkscape:current-layer="layer1"
     width="601px"
     height="601px"
     inkscape:window-width="1280"
     inkscape:window-height="968"
     inkscape:window-x="-4"
     inkscape:window-y="-4" />
  <metadata
     id="metadata7">
    <rdf:RDF>
      <cc:Work
         rdf:about="">
        <dc:format>image/svg+xml</dc:format>
        <dc:type
           rdf:resource="http://purl.org/dc/dcmitype/StillImage" />
      </cc:Work>
    </rdf:RDF>
  </metadata>
  <g
     inkscape:label="Layer 1"
     inkscape:groupmode="layer"
     id="layer1">
    <path
       style="color:black;fill:white;fill-opacity:1;fill-rule:nonzero;stroke:black;stroke-width:1;stroke-linecap:butt;stroke-linejoin:miter;marker:none;marker-start:none;marker-mid:none;marker-end:none;stroke-miterlimit:4;stroke-dashoffset:0;stroke-opacity:1;visibility:visible;display:inline;overflow:visible"
       d="M 38,0.5 L 563,0.5 C 583.775,0.5 600.5,17.225 600.5,38 L 600.5,563 C 600.5,583.775 583.775,600.5 563,600.5 L 38,600.5 C 17.225,600.5 0.5,583.775 0.5,563 L 0.5,38 C 0.5,17.225 17.225,0.5 38,0.5 z "
       id="rect1872" />
    <path
       style="color:black;fill:black;fill-opacity:1;fill-rule:nonzero;stroke:none;stroke-width:0.8735441;stroke-linecap:butt;stroke-linejoin:miter;marker:none;marker-start:none;marker-mid:none;marker-end:none;stroke-miterlimit:4;stroke-dashoffset:0;stroke-opacity:1;visibility:visible;display:inline;overflow:visible"
       d="M 38,9.875 L 563,9.875 C 578.58125,9.875 591.125,22.41875 591.125,38 L 591.125,563 C 591.125,578.58125 578.58125,591.125 563,591.125 L 38,591.125 C 22.41875,591.125 9.875,578.58125 9.875,563 L 9.875,38 C 9.875,22.41875 22.41875,9.875 38,9.875 z "
       id="rect2760" />
    <path
       style="color:black;fill:white;fill-opacity:1;fill-rule:nonzero;stroke:none;stroke-width:0.8735441;stroke-linecap:butt;stroke-linejoin:miter;marker:none;marker-start:none;marker-mid:none;marker-end:none;stroke-miterlimit:4;stroke-dashoffset:0;stroke-opacity:1;visibility:visible;display:inline;overflow:visible"
       d="M 38,25.5 L 563,25.5 C 569.925,25.5 575.5,31.075 575.5,38 L 575.5,563 C 575.5,569.925 569.925,575.5 563,575.5 L 38,575.5 C 31.075,575.5 25.5,569.925 25.5,563 L 25.5,38 C 25.5,31.075 31.075,25.5 38,25.5 z "
       id="rect3647" />
    <path
       style="font-size:373.12701416px;font-style:normal;font-variant:normal;font-weight:normal;font-stretch:normal;text-align:center;line-height:125%;writing-mode:lr-tb;text-anchor:middle;font-family:Roadgeek 2005 Series E"
       d="M 271.63404,427.17669 C 271.63382,440.36283 269.02052,452.4899 263.79413,463.55794 C 258.56732,474.62607 251.29108,484.14175 241.96538,492.10498 C 232.6393,500.06825 221.50859,506.28741 208.5732,510.76247 C 195.6375,515.23753 181.58225,517.47506 166.40739,517.47506 C 149.24339,517.47506 132.82535,515.1749 117.15321,510.57458 C 101.48095,505.97427 85.685389,498.94854 69.76649,489.49737 L 93.26912,451.43085 C 115.66336,465.118 140.04276,471.96154 166.40739,471.96149 C 185.30956,471.96154 200.10877,468.04254 210.80504,460.20449 C 221.501,452.36654 226.84905,441.35729 226.84923,427.17669 C 226.84905,420.46608 225.42,414.06284 222.56205,407.96693 C 219.70376,401.87124 215.91002,396.83442 211.18081,392.85647 C 202.47345,385.8878 188.91542,382.4034 170.50668,382.40327 C 162.30039,382.4034 154.52882,383.14924 147.19194,384.6408 C 139.85487,386.13262 131.58227,388.62066 122.37412,392.10493 L 77.6007,380.53581 L 85.43491,262.99989 L 252.2307,262.99989 L 251.47916,307.03316 L 127.60072,307.03316 L 124.99311,342.85645 C 135.18813,340.61719 143.76818,339.00025 150.73328,338.00562 C 157.69818,337.01133 165.1623,336.5141 173.12568,336.51393 C 187.30607,336.5141 200.4276,338.81426 212.49031,343.41441 C 224.55269,348.0149 235.00019,354.35741 243.83284,362.44197 C 252.6651,370.52684 259.50674,380.10324 264.35779,391.17121 C 269.2084,402.23942 271.63382,414.24123 271.63404,427.17669 L 271.63404,427.17669 z M 531.23333,386.51395 C 531.23309,402.68351 529.3068,418.54169 525.45446,434.08856 C 521.60165,449.63558 515.50775,463.62631 507.17274,476.06079 C 498.8373,488.49535 488.07856,498.50635 474.89648,506.09383 C 461.71404,513.68132 445.66797,517.47506 426.75822,517.47506 C 408.10631,517.47506 392.12666,513.80657 378.81924,506.46959 C 365.51163,499.13263 354.62763,489.37024 346.16721,477.1824 C 337.70667,464.99464 331.48751,451.12726 327.50972,435.58024 C 323.53185,420.03338 321.54293,404.04994 321.54296,387.62987 C 321.54293,371.21005 323.59448,355.22661 327.6976,339.6795 C 331.80065,324.13273 338.14317,310.39061 346.72517,298.45311 C 355.30705,286.51603 366.19105,276.877 379.3772,269.53599 C 392.56316,262.19546 408.35682,258.52508 426.75822,258.52483 C 445.41745,258.52508 461.33827,262.25619 474.52071,269.71818 C 487.70279,277.18065 498.52416,286.94494 506.98486,299.01107 C 515.44512,311.07762 521.60165,324.75901 525.45446,340.05526 C 529.3068,355.35187 531.23309,370.83808 531.23333,386.51395 L 531.23333,386.51395 z M 486.45991,387.62987 C 486.45972,361.26548 481.23691,340.61909 470.79149,325.69065 C 460.34571,310.76258 445.66797,303.29846 426.75822,303.29825 C 415.56854,303.29846 406.11739,305.91175 398.40476,311.13815 C 390.69191,316.36495 384.47275,323.0206 379.74727,331.10514 C 375.02161,339.19003 371.60174,348.14395 369.48765,357.96691 C 367.37339,367.79018 366.31631,377.30585 366.31638,386.51395 C 366.31631,414.37408 371.66436,435.70368 382.36057,450.50282 C 393.05659,465.30208 407.8558,472.70169 426.75822,472.70164 C 435.96631,472.70169 444.23891,470.65014 451.57604,466.54701 C 458.91285,462.44397 465.19274,456.59868 470.41572,449.01113 C 475.63834,441.42371 479.61807,432.34454 482.35492,421.77359 C 485.09139,411.20282 486.45972,399.44962 486.45991,386.51395 L 486.45991,387.62987 z "
       id="text2779" />
    <g
       id="g2834"
       transform="translate(0.5,0.5)">
      <path
         id="text2792"
         d="M 99.411076,114.92398 L 99.411076,201.56215 L 83.468809,201.56215 L 83.468809,114.92398 L 60.452821,114.92398 L 60.452821,100.78113 L 122.72544,100.78113 L 122.72544,114.92398 L 99.411076,114.92398 z "
         style="font-size:150.41641235px;font-style:normal;font-variant:normal;font-weight:normal;font-stretch:normal;text-align:center;line-height:125%;writing-mode:lr-tb;text-anchor:middle;font-family:Roadgeek 2005 Series D"
         transform="scale(1.007811,0.99225)" />
      <path
         id="text2798"
         d="M 184.04441,201.56215 L 167.79918,157.64173 L 148.69876,157.64173 L 148.69876,201.56215 L 132.7519,201.56215 L 132.7519,100.78113 L 165.99518,100.78113 C 169.9061,100.78123 173.26546,101.00693 176.07328,101.45821 C 178.88098,101.90969 181.53802,102.73825 184.04441,103.94388 C 186.25077,105.04566 188.282,106.47402 190.13809,108.22897 C 191.99405,109.9841 193.59838,111.98931 194.95107,114.24461 C 196.30362,116.50009 197.35633,118.90696 198.10923,121.46523 C 198.86197,124.02366 199.23837,126.55599 199.23845,129.06225 C 199.23837,131.77062 198.86197,134.40318 198.10923,136.95993 C 197.35633,139.51682 196.30362,141.92292 194.95107,144.17825 C 193.59838,146.4337 191.94432,148.46416 189.98891,150.26964 C 188.03335,152.07522 185.90191,153.47987 183.59456,154.48357 L 201.34542,201.56215 L 184.04441,201.56215 z M 183.29159,129.06225 C 183.29153,126.95688 182.74069,124.95167 181.63907,123.0466 C 180.53733,121.14169 178.98273,119.63682 176.97528,118.532 C 175.67157,117.83129 174.46813,117.35542 173.36497,117.1044 C 172.26171,116.85354 170.40645,116.72808 167.79918,116.72799 L 148.69876,116.72799 L 148.69876,141.3965 L 167.79918,141.3965 C 170.30852,141.39656 172.1393,141.29634 173.29153,141.09583 C 174.44365,140.89545 175.67157,140.4433 176.97528,139.73939 C 178.98273,138.63777 180.53733,137.10918 181.63907,135.15363 C 182.74069,133.19822 183.29153,131.16775 183.29159,129.06225 L 183.29159,129.06225 z "
         style="font-size:150.41641235px;font-style:normal;font-variant:normal;font-weight:normal;font-stretch:normal;text-align:center;line-height:125%;writing-mode:lr-tb;text-anchor:middle;font-family:Roadgeek 2005 Series D"
         transform="scale(1.007811,0.99225)" />
      <path
         id="text2804"
         d="M 281.39091,165.46368 C 281.39083,169.37468 280.9647,173.08444 280.1125,176.59297 C 279.26015,180.10154 278.13169,183.35992 276.72712,186.36811 C 275.42339,188.87751 273.71884,191.15967 271.61348,193.21461 C 269.50797,195.26956 267.1516,197.04908 264.54435,198.55318 C 261.93697,200.05728 259.15369,201.23547 256.19451,202.08774 C 253.23522,202.94002 250.20253,203.36615 247.09645,203.36615 C 243.98721,203.36615 240.953,202.94002 237.99379,202.08774 C 235.03452,201.23547 232.25124,200.05728 229.64396,198.55318 C 227.03662,197.04908 224.65499,195.26956 222.49909,193.21461 C 220.34314,191.15967 218.61334,188.87751 217.3097,186.36811 C 215.9081,183.35992 214.80565,180.10154 214.00236,176.59297 C 213.19904,173.08444 212.79738,169.37468 212.79739,165.46368 L 212.79739,100.78113 L 228.74425,100.78113 L 228.74425,165.46368 C 228.74422,172.07993 230.42352,177.34352 233.78215,181.25446 C 237.14072,185.16545 241.57881,187.12094 247.09645,187.12092 C 252.61093,187.12094 257.04749,185.16545 260.40615,181.25446 C 263.76469,177.34352 265.44399,172.07993 265.44406,165.46368 L 265.44406,100.78113 L 281.39091,100.78113 L 281.39091,165.46368 L 281.39091,165.46368 z "
         style="font-size:150.41641235px;font-style:normal;font-variant:normal;font-weight:normal;font-stretch:normal;text-align:center;line-height:125%;writing-mode:lr-tb;text-anchor:middle;font-family:Roadgeek 2005 Series D"
         transform="scale(1.007811,0.99225)" />
      <path
         id="text2810"
         d="M 364.83102,181.10757 C 358.81454,195.94663 348.68672,203.36615 334.44753,203.36615 C 326.92544,203.36615 320.70783,201.91255 315.79466,199.00533 C 310.88144,196.09811 306.81975,191.53532 303.60959,185.31692 C 301.30523,180.8031 299.50122,175.53798 298.19758,169.52154 C 296.89391,163.50517 296.24208,157.33881 296.24209,151.02245 C 296.24208,143.00165 297.2443,135.33043 299.24877,128.00876 C 301.2532,120.68724 304.01047,114.77106 307.52057,110.26019 C 310.52875,106.54823 314.1643,103.73971 318.42723,101.83462 C 322.69009,99.929726 327.67826,98.97723 333.39175,98.977128 C 341.01473,98.97723 347.30808,100.63205 352.27184,103.94159 C 357.23546,107.25132 361.42185,112.46518 364.83102,119.58318 L 349.93994,125.90409 C 348.53523,123.79873 347.25606,122.04369 346.10241,120.63896 C 344.94865,119.2344 343.74521,118.13119 342.49211,117.32933 C 341.23889,116.52763 339.8855,115.97602 338.43195,115.67451 C 336.97829,115.37316 335.29822,115.22244 333.39175,115.22236 C 329.28182,115.22244 325.84824,116.17494 323.09102,118.07985 C 320.33371,119.98492 318.10281,123.19433 316.39829,127.70809 C 315.09461,130.71637 314.11686,134.27618 313.46506,138.38753 C 312.81321,142.49901 312.48729,146.71065 312.48732,151.02245 C 312.48729,156.53703 313.0389,161.82664 314.14214,166.89128 C 315.24532,171.95599 316.79915,176.09188 318.80363,179.29898 C 320.60914,181.90631 322.71534,183.8618 325.12224,185.16544 C 327.52907,186.46911 330.48602,187.12094 333.99308,187.12092 C 337.40519,187.12094 340.36443,186.19369 342.87081,184.33918 C 345.37708,182.4847 347.63247,179.50097 349.63698,175.388 L 364.83102,181.10757 L 364.83102,181.10757 z "
         style="font-size:150.41641235px;font-style:normal;font-variant:normal;font-weight:normal;font-stretch:normal;text-align:center;line-height:125%;writing-mode:lr-tb;text-anchor:middle;font-family:Roadgeek 2005 Series D"
         transform="scale(1.007811,0.99225)" />
      <path
         id="text2816"
         d="M 525.59481,172.53281 C 525.59474,177.1446 524.7417,181.40597 523.03569,185.31692 C 521.32955,189.22791 518.87295,192.637 515.6659,195.54421 C 512.85654,198.05054 509.57216,199.98078 505.81272,201.33493 C 502.05318,202.68908 498.0175,203.36615 493.70569,203.36615 C 484.98094,203.36615 477.53464,201.03503 471.36677,196.37276 C 465.19887,191.71051 460.41038,185.51891 457.00129,177.79793 L 472.19533,172.22985 C 474.30075,177.04361 477.20873,180.72889 480.91928,183.28569 C 484.62978,185.84253 488.89191,187.12094 493.70569,187.12092 C 498.41839,187.12094 502.20389,185.69181 505.0622,182.83354 C 507.9204,179.97531 509.34952,176.44075 509.34958,172.22985 C 509.34952,168.92177 508.472,166.215 506.71702,164.10953 C 504.96192,162.00413 502.68053,160.22384 499.87281,158.76866 C 497.06501,157.31357 493.98107,156.03439 490.62098,154.93113 C 487.26081,153.82797 483.92669,152.62453 480.61861,151.32083 C 479.11295,150.72107 477.25769,149.86956 475.05282,148.7663 C 472.84791,147.66314 470.71722,146.13379 468.66077,144.17825 C 466.60428,142.22282 464.84924,139.79071 463.39564,136.8819 C 461.94202,133.97322 461.21522,130.41341 461.21523,126.20246 C 461.21522,121.29087 462.017,117.10525 463.62057,113.64557 C 465.22412,110.18608 467.40529,107.37832 470.1641,105.22229 C 472.92288,103.06646 476.23252,101.48662 480.09302,100.48276 C 483.95347,99.479107 488.13909,98.97723 492.64991,98.977128 C 499.77101,98.97723 505.71321,100.83249 510.47651,104.54292 C 515.2397,108.25354 518.87448,113.26696 521.38087,119.58318 L 507.24261,123.79712 C 506.44078,122.19364 505.38806,120.74003 504.08446,119.43629 C 502.97966,118.33163 501.44955,117.32788 499.49411,116.42503 C 497.53858,115.52235 495.15772,115.022 492.35154,114.92398 C 490.54596,114.82308 488.66545,114.94779 486.71,115.2981 C 484.75448,115.64858 483.02469,116.27516 481.52062,117.17784 C 480.01649,118.0807 478.81305,119.30938 477.91031,120.86389 C 477.00752,122.41857 476.65712,124.34957 476.85912,126.65691 C 477.05801,129.76311 478.4114,132.14397 480.91928,133.79948 C 483.42711,135.45513 486.48581,136.88426 490.09538,138.08686 C 493.70488,139.2896 497.5906,140.51751 501.75256,141.77062 C 505.91442,143.02384 509.74965,144.82861 513.25826,147.18493 C 516.76675,149.54136 519.69998,152.70027 522.05795,156.66169 C 524.41579,160.6232 525.59474,165.91357 525.59481,172.53281 L 525.59481,172.53281 z "
         style="font-size:150.41641235px;font-style:normal;font-variant:normal;font-weight:normal;font-stretch:normal;text-align:center;line-height:125%;writing-mode:lr-tb;text-anchor:middle;font-family:Roadgeek 2005 Series D"
         transform="scale(1.007811,0.99225)" />
      <path
         id="text2822"
         d="M 431.82305,201.56215 L 406.25483,153.88224 L 395.72458,166.96472 L 395.72458,201.56215 L 379.77773,201.56215 L 379.77773,100.78113 L 395.72458,100.78113 L 395.72458,140.79517 L 427.46223,100.78113 L 448.06828,100.78113 L 416.93197,140.04235 L 450.17525,201.56215 L 431.82305,201.56215 z "
         style="font-size:150.41641235px;font-style:normal;font-variant:normal;font-weight:normal;font-stretch:normal;text-align:center;line-height:125%;writing-mode:lr-tb;text-anchor:middle;font-family:Roadgeek 2005 Series D"
         transform="scale(1.007811,0.99225)" />
    </g>
  </g>
</svg>
