<svg xmlns="http://www.w3.org/2000/svg" width="513" height="512" viewBox="0 0 513 512">
  <g fill="none" fill-rule="evenodd">
    <ellipse cx="256.5" cy="256" fill="#FFF" rx="256.5" ry="256"/>
    <path fill="#D81E00" d="M256.5,512 C114.838962,512 0,397.384896 0,256 C0,114.615104 114.838962,0 256.5,0 C398.161038,0 513,114.615104 513,256 C513,397.384896 398.161038,512 256.5,512 Z M256.5,458 C368.279413,458 458.894531,367.561519 458.894531,256 C458.894531,144.438481 368.279413,54 256.5,54 C144.720587,54 54.1054688,144.438481 54.1054688,256 C54.1054688,367.561519 144.720587,458 256.5,458 Z"/>
    <path fill="#000" fill-rule="nonzero" d="M162.337891,268.579381 L162.337891,237.729771 L181,237.729771 C195.091797,237.729771 204.613281,228.843053 204.613281,217.163365 C204.613281,205.102818 194.330078,196.977818 181.126953,196.977818 C166.654297,196.977818 157.259766,206.880162 156.878906,217.163365 L118.539062,217.163365 C119.554688,186.821568 142.787109,166 182.650391,166 C220.863281,165.874303 244.603516,184.917271 244.857422,211.704381 C245.111328,236.333287 225.179688,248.393834 212.865234,250.298131 L212.865234,252.456334 C229.369141,253.979771 249.554688,266.421178 249.808594,293.462193 C250.0625,328.120396 217.181641,345.512974 181.507812,345.512974 C138.851562,345.512974 116.507812,321.391881 116,293.843053 L153.832031,293.843053 C154.339844,305.395787 165.892578,313.774693 181.253906,313.901646 C197.757812,313.901646 208.802734,304.507115 208.675781,291.177037 C208.548828,278.481724 198.646484,268.579381 181.761719,268.579381 L162.337891,268.579381 Z M264.150391,295.239537 L301.728516,295.239537 C303.759766,306.538365 315.566406,313.520787 328.896484,313.520787 C344.130859,313.520787 356.826172,302.475865 356.826172,284.702428 C356.826172,268.198521 344.638672,257.153599 329.150391,257.153599 C315.439453,257.153599 307.441406,265.405553 304.394531,271.118443 L267.705078,271.118443 L274.560547,169.048131 L386.279297,169.048131 L386.279297,201.802037 L307.1875,201.802037 L303.886719,241.411412 L305.917969,241.411412 C309.345703,235.825474 321.025391,226.557896 340.830078,226.557896 C370.410156,226.557896 396.689453,246.362584 396.689453,283.305943 C396.689453,321.391881 369.013672,345.512974 328.642578,345.512974 C289.667969,345.512974 264.912109,323.423131 264.150391,295.239537 Z"/>
  </g>
</svg>
