<svg xmlns="http://www.w3.org/2000/svg" width="513" height="512" viewBox="0 0 513 512">
  <g fill="none" fill-rule="evenodd">
    <ellipse cx="256.5" cy="256" fill="#FFF" rx="256.5" ry="256"/>
    <path fill="#D81E00" d="M256.5,512 C114.838962,512 0,397.384896 0,256 C0,114.615104 114.838962,0 256.5,0 C398.161038,0 513,114.615104 513,256 C513,397.384896 398.161038,512 256.5,512 Z M256.5,458 C368.279413,458 458.894531,367.561519 458.894531,256 C458.894531,144.438481 368.279413,54 256.5,54 C144.720587,54 54.1054688,144.438481 54.1054688,256 C54.1054688,367.561519 144.720587,458 256.5,458 Z"/>
    <path fill="#000" fill-rule="nonzero" d="M161.337891,268.579381 L161.337891,237.729771 L180,237.729771 C194.091797,237.729771 203.613281,228.843053 203.613281,217.163365 C203.613281,205.102818 193.330078,196.977818 180.126953,196.977818 C165.654297,196.977818 156.259766,206.880162 155.878906,217.163365 L117.539062,217.163365 C118.554688,186.821568 141.787109,166 181.650391,166 C219.863281,165.874303 243.603516,184.917271 243.857422,211.704381 C244.111328,236.333287 224.179688,248.393834 211.865234,250.298131 L211.865234,252.456334 C228.369141,253.979771 248.554688,266.421178 248.808594,293.462193 C249.0625,328.120396 216.181641,345.512974 180.507812,345.512974 C137.851562,345.512974 115.507812,321.391881 115,293.843053 L152.832031,293.843053 C153.339844,305.395787 164.892578,313.774693 180.253906,313.901646 C196.757812,313.901646 207.802734,304.507115 207.675781,291.177037 C207.548828,278.481724 197.646484,268.579381 180.761719,268.579381 L161.337891,268.579381 Z M260.992188,259.819615 L260.992188,251.313756 C260.992188,199.643834 287.398438,166.001256 330.054688,166.001256 C372.710938,166.001256 398.228516,198.882115 398.228516,251.313756 L398.228516,259.819615 C398.228516,311.362584 371.441406,345.512974 329.166016,345.512974 C286.890625,345.512974 260.992188,312.124303 260.992188,259.819615 Z M302.759766,251.440709 L302.759766,259.692662 C302.759766,292.827428 312.789062,312.251256 329.546875,312.251256 C346.304688,312.251256 356.460938,292.700474 356.460938,259.692662 L356.460938,251.440709 C356.460938,218.559849 346.431641,199.262974 329.546875,199.262974 C312.789062,199.262974 302.759766,218.432896 302.759766,251.440709 Z"/>
  </g>
</svg>
