<svg xmlns="http://www.w3.org/2000/svg" width="513" height="512" viewBox="0 0 513 512">
  <g fill="none" fill-rule="evenodd">
    <circle cx="256" cy="256" r="256" fill="#FFF"/>
    <path fill="#D81E00" d="M257,512 C115.615104,512 1,397.384896 1,256 C1,114.615104 115.615104,0 257,0 C398.384896,0 513,114.615104 513,256 C513,397.384896 398.384896,512 257,512 Z M257,467 C373.532082,467 468,372.532082 468,256 C468,139.467918 373.532082,45 257,45 C140.467918,45 46,139.467918 46,256 C46,372.532082 140.467918,467 257,467 Z"/>
    <g fill="#000" fill-rule="nonzero" transform="translate(78 79)">
      <path d="M299.833 150L290.488 150 282.745 128.195 278.117 135.582 278.117 150 269.573 150 269.573 89.569 278.117 85.119 278.117 113.154C278.117 116.773351 278.057667 120.125651 277.939 123.211 278.59167 121.846327 279.867324 119.443351 281.766 116.002L288.797 103.275 298.498 103.275 288.441 119.473 299.833 150zM356.615 150L348.071 150 348.071 121.253C348.071 117.752316 347.952335 115.438339 347.715 114.311 347.06233 111.70032 345.549345 110.395 343.176 110.395 340.268652 110.395 337.954675 111.818986 336.234 114.667L336.234 150 327.69 150 327.69 121.253C327.69 117.752316 327.571335 115.438339 327.334 114.311 326.68133 111.70032 325.168345 110.395 322.795 110.395 319.887652 110.395 317.573675 111.818986 315.853 114.667L315.853 150 307.309 150 307.309 103.275 315.853 103.275 315.853 106.479C318.048344 103.690319 320.955649 102.296 324.575 102.296 328.965689 102.296 332.110324 103.957317 334.009 107.28 336.916348 103.957317 340.565311 102.296 344.956 102.296 349.465356 102.296 352.580325 103.808985 354.301 106.835 355.843674 109.564347 356.615 114.192301 356.615 120.719L356.615 150zM133.045 221.469L118.693 221.469 118.693 272 90.288 272 90.288 221.469 9.259 221.469 9.259 198.446 90.886 62.7 118.693 62.7 118.693 193.662 133.045 193.662 133.045 221.469zM91.185 109.344C87.9956507 115.32403 82.7133702 124.692603 75.338 137.45L55.006 170.639C51.8166507 176.021027 46.9330329 183.794949 40.355 193.961 42.149009 193.961 45.4379761 193.861334 50.222 193.662L90.288 193.662 90.288 139.244C90.288 140.240672 90.586997 130.274105 91.185 109.344zM257.256 167.051C257.256 199.542496 252.472048 225.156573 242.904 243.894 232.139946 264.824105 216.193439 275.289 195.064 275.289 174.133895 275.289 158.386719 264.92377 147.822 244.193 138.453286 225.654907 133.769 200.140496 133.769 167.649 133.769 135.157504 138.552952 109.543427 148.121 90.806 158.685719 69.8758954 174.432895 59.411 195.363 59.411 216.492439 59.411 232.339281 69.676564 242.904 90.208 252.472048 108.546758 257.256 134.160836 257.256 167.051zM227.954 167.649C227.954 114.626068 216.891111 88.115 194.765 88.115 173.635561 88.115 163.071 114.426737 163.071 167.051 163.071 220.073932 174.034224 246.585 195.961 246.585 217.289773 246.585 227.954 220.273263 227.954 167.649z"/>
    </g>
  </g>
</svg>
