<?xml version="1.0" encoding="UTF-8" standalone="no"?>
<!-- Generator: Adobe Illustrator 14.0.0, SVG Export Plug-In  -->

<svg
   xmlns:dc="http://purl.org/dc/elements/1.1/"
   xmlns:cc="http://creativecommons.org/ns#"
   xmlns:rdf="http://www.w3.org/1999/02/22-rdf-syntax-ns#"
   xmlns:svg="http://www.w3.org/2000/svg"
   xmlns="http://www.w3.org/2000/svg"
   xmlns:sodipodi="http://sodipodi.sourceforge.net/DTD/sodipodi-0.dtd"
   xmlns:inkscape="http://www.inkscape.org/namespaces/inkscape"
   version="1.1"
   x="0px"
   y="0px"
   width="90.687485"
   height="113.21873"
   viewBox="0 -0.321 90.687488 113.21875"
   enable-background="new 0 -0.321 144 120"
   xml:space="preserve"
   id="svg2"
   inkscape:version="0.48.2 r9819"
   sodipodi:docname="Minimum_Speed_50.svg"><metadata
   id="metadata44"><rdf:RDF><cc:Work
       rdf:about=""><dc:format>image/svg+xml</dc:format><dc:type
         rdf:resource="http://purl.org/dc/dcmitype/StillImage" /><dc:title></dc:title></cc:Work></rdf:RDF></metadata><sodipodi:namedview
   pagecolor="#ffffff"
   bordercolor="#666666"
   borderopacity="1"
   objecttolerance="10"
   gridtolerance="10"
   guidetolerance="10"
   inkscape:pageopacity="0"
   inkscape:pageshadow="2"
   inkscape:window-width="1280"
   inkscape:window-height="962"
   id="namedview42"
   showgrid="false"
   fit-margin-top="0"
   fit-margin-left="0"
   fit-margin-right="0"
   fit-margin-bottom="0"
   inkscape:zoom="2.3202007"
   inkscape:cx="45.343742"
   inkscape:cy="56.609364"
   inkscape:window-x="-8"
   inkscape:window-y="-8"
   inkscape:window-maximized="1"
   inkscape:current-layer="svg2" />
<defs
   id="defs4">
</defs>


















<path
   inkscape:connector-curvature="0"
   d="m 5.963905,112.53945 78.748758,0 c 1.48625,0 2.93,-0.58875 3.98375,-1.64125 1.05,-1.04875 1.64625,-2.4975 1.64625,-3.98375 l 0,-101.24752 c 0,-1.48625 -0.59625,-2.92875 -1.64625,-3.98375 -1.05375,-1.05 -2.4975,-1.64375 -3.98375,-1.64375 l -78.748758,0 c -1.4875,0 -2.9325,0.59375 -3.985,1.64375 -1.04875016,1.055 -1.64000016,2.4975 -1.64000016,3.98375 l 0,101.24752 c 0,1.93375 1.01000016,3.755 2.64375016,4.795 0.9225,0.58875 1.90875,0.7275 2.98125,0.83"
   style="fill:#ffffff;fill-opacity:1;fill-rule:nonzero;stroke:#000000;stroke-width:0.70000011;stroke-miterlimit:4;stroke-opacity:1;stroke-dasharray:none"
   id="path6456" /><path
   inkscape:connector-curvature="0"
   d="m 1.908895,106.91445 0,-101.24502 c 0,-1.06125 0.43875,-2.11875 1.18375,-2.87 0.755,-0.75 1.80875,-1.185 2.87125,-1.185 l 78.746258,0 c 1.06,0 2.11875,0.435 2.86875,1.185 0.75125,0.75125 1.18625,1.80875 1.18625,2.87 l 0,101.24502 c 0,1.0625 -0.435,2.11875 -1.18625,2.87125 -0.75,0.745 -1.80875,1.18375 -2.86875,1.18375 l -78.746258,0 c -1.0625,0 -2.11625,-0.43875 -2.87125,-1.18375 -0.745,-0.7525 -1.18375,-1.80875 -1.18375,-2.87125"
   style="fill:#000000;fill-opacity:1;fill-rule:evenodd;stroke:none"
   id="path6464" /><path
   inkscape:connector-curvature="0"
   d="m 4.117655,106.91195 c 0,0.495 0.19125,0.9625 0.5375,1.31125 0.35125,0.34625 0.8175,0.53875 1.31125,0.53875 l 78.746258,0 c 0.49,0 0.95875,-0.1925 1.30875,-0.53875 0.34875,-0.34875 0.53875,-0.81625 0.53875,-1.31125 l 0,-101.24377 c 0,-0.49375 -0.19,-0.9575 -0.53875,-1.30625 -0.35,-0.35 -0.81875,-0.54 -1.30875,-0.54 l -78.746258,0 c -0.49375,0 -0.96,0.19 -1.31125,0.54 -0.34625,0.34875 -0.5375,0.8125 -0.5375,1.30625 l 0,101.24377 z"
   style="fill:#ffffff;fill-opacity:1;fill-rule:evenodd;stroke:none"
   id="path6468" /><path
   inkscape:connector-curvature="0"
   d="m 77.510163,17.66132 -2.725,8.4025 -2.78,-8.46875 0,8.46875 -2.0975,0 0,-14.99625 2.185,0 2.67375,8.15625 2.65625,-8.15625 2.205,0 0,14.99625 -2.1175,0 0,-8.4025 z"
   style="fill:#000000;fill-opacity:1;fill-rule:evenodd;stroke:none"
   id="path6488" /><path
   inkscape:connector-curvature="0"
   d="m 18.430153,17.66132 -2.73,8.4025 -2.77625,-8.46875 0,8.46875 -2.09875,0 0,-14.99625 2.1875,0 2.6725,8.15625 2.65375,-8.15625 2.2075,0 0,14.99625 -2.11625,0 0,-8.4025 z"
   style="fill:#000000;fill-opacity:1;fill-rule:evenodd;stroke:none"
   id="path6492" /><path
   inkscape:connector-curvature="0"
   d="m 53.255153,17.66132 -2.73,8.4025 -2.775,-8.46875 0,8.46875 -2.1025,0 0,-14.99625 2.1875,0 2.67625,8.15625 2.65625,-8.15625 2.20375,0 0,14.99625 -2.11625,0 0,-8.4025 z"
   style="fill:#000000;fill-opacity:1;fill-rule:evenodd;stroke:none"
   id="path6496" /><path
   inkscape:connector-curvature="0"
   d="m 28.993893,26.06431 0,-14.9975 2.1725,0 3.91125,8.73375 0.0175,-8.73375 2.10375,0 0,14.9975 -1.635,0 -4.46875,-9.94875 0,9.94875 -2.10125,0 z"
   style="fill:#000000;fill-opacity:1;fill-rule:evenodd;stroke:none"
   id="path6500" /><path
   inkscape:connector-curvature="0"
   d="m 66.738893,22.21469 c 0,1.6375 -1.01375,3.14875 -2.52,3.785 -0.99375,0.4175 -2.1425,0.4175 -3.13375,0 -1.53125,-0.645 -2.515,-2.1275 -2.515,-3.785 l 0,-11.1475 2.095,0 0,11.1475 c 0,0.65875 0.34375,1.28625 0.89125,1.6525 0.65875,0.435 1.5425,0.43 2.19625,-0.005 0.55,-0.36625 0.87625,-0.99375 0.87625,-1.6475 l 0,-11.1475 2.11,0 0,11.1475 z"
   style="fill:#000000;fill-opacity:1;fill-rule:evenodd;stroke:none"
   id="path6504" /><path
   inkscape:connector-curvature="0"
   d="m 23.710023,11.06769 2.11875,0 0,14.9975 -2.11875,0 0,-14.9975 z"
   style="fill:#000000;fill-opacity:1;fill-rule:evenodd;stroke:none"
   id="path6506" /><path
   inkscape:connector-curvature="0"
   d="m 40.365023,11.06769 2.11875,0 0,14.9975 -2.11875,0 0,-14.9975 z"
   style="fill:#000000;fill-opacity:1;fill-rule:evenodd;stroke:none"
   id="path6508" /><path
   inkscape:connector-curvature="0"
   d="m 68.455153,46.13319 c 0,1.1575 -0.105,2.21 -0.21,3.15625 -0.2125,1.1575 -0.89626,2.15875 -2.15751,2.15875 l -1.7875,0 0,-10.78375 1.7875,0 c 0.94625,0 1.57875,0.47375 1.94501,1.52375 0.26375,0.6325 0.4225,2.2625 0.4225,3.945 m 2.105,-0.105 c 0,-1.1575 -0.15875,-2.47125 -0.36875,-3.57625 -0.26375,-1.52625 -0.89375,-2.68375 -1.79,-3.31375 -0.525,-0.4225 -1.15751,-0.57875 -2.41876,-0.57875 l -3.84125,0 0,14.99125 4.155,0 c 0.8425,0 1.58001,-0.21 2.10501,-0.68375 1.475,-1.1575 2.15875,-3.3675 2.15875,-6.83875 m -11.14501,7.5225 0,-2.1025 -5.47125,0 0,-4.94625 3.105,0 0,-2.05125 -3.105,0 0,-3.78625 4.8925,0 0,-2.105 -7.04875,0 0,14.99125 7.6275,0 z m -10.355,0 0,-2.1025 -5.47125,0 0,-4.94625 3.10375,0 0,-2.05125 -3.10375,0 0,-3.78625 4.89375,0 0,-2.105 -7.05125,0 0,14.99125 7.62875,0 z m -11.985,-10.78375 c 0,1.36875 -0.68625,2.1575 -1.94875,2.1575 l -2.21,0 0,-4.26 2.21,0 c 1.1575,0 1.94875,0.84 1.94875,2.1025 m 2.10125,0 c 0,-2.525 -1.5775,-4.2075 -3.945,-4.2075 l -4.47,0 0,14.99125 2.155,0 0,-6.575 2.315,0 c 2.52625,0 3.945,-1.4725 3.945,-4.20875 m -11.1425,6.68125 c 0,-2.1575 -1.2625,-3.78625 -4.155,-5.47125 -1.10625,-0.63 -1.42125,-1.05125 -1.42125,-1.78875 0,-0.99875 0.78875,-1.73625 1.79,-1.73625 0.945,0 1.6825,0.68625 1.73625,1.73625 l 2.05,0 c -0.0537,-2.26125 -1.685,-3.8925 -3.78625,-3.8925 -2.15875,0 -3.84,1.73625 -3.84,3.8925 0,1.315 0.62875,2.4725 1.84,3.315 3.05,2.05125 2.21,1.4725 2.525,1.7875 0.89375,0.68625 1.21125,1.315 1.21125,2.1575 0,1.20875 -0.9475,2.26125 -2.105,2.26125 -1.475,0 -2.105,-1.31375 -2.105,-2.57625 l -2.10375,0 c 0,2.47125 1.57625,4.69 4.20875,4.69 2.31375,0 4.155,-1.955 4.155,-4.375"
   style="fill:#000000;fill-opacity:1;fill-rule:evenodd;stroke:none"
   id="path6512" /><g
   style="font-size:52.00001144px;font-style:normal;font-variant:normal;font-weight:normal;font-stretch:normal;line-height:125%;letter-spacing:0px;word-spacing:0px;fill:#000000;fill-opacity:1;stroke:none;font-family:Roadgeek 2005 Series D;-inkscape-font-specification:Roadgeek 2005 Series D"
   id="text3798"><path
     inkscape:connector-curvature="0"
     id="digit4"
     style="font-size:52.00001144px;font-style:normal;font-variant:normal;font-weight:normal;font-stretch:normal;line-height:125%;letter-spacing:0px;word-spacing:0px;fill:#000000;fill-opacity:1;stroke:none;font-family:Roadgeek 2005 Series D;-inkscape-font-specification:Roadgeek 2005 Series D"
     d="m 40.571579,92.145929 0,-4.991937 -3.327958,0 0,-21.163732 -5.459931,0 -17.263781,22.87971 0,3.275959 17.263781,0 0,8.683891 5.459931,0 0,-8.683891 z m -8.787889,-4.991937 -9.931874,0 9.931874,-13.103834 z" /><path
     d="m 73.475871,83.921893 c -0.0065,-2.213203 -0.214525,-4.351674 -0.623992,-6.41542 -0.409523,-2.063698 -0.981515,-3.877173 -1.715979,-5.44043 -1.082261,-2.125442 -2.414743,-3.698421 -3.997449,-4.718941 -1.582751,-1.020453 -3.474225,-1.527445 -5.674428,-1.52098 -1.99224,-0.0032 -3.714717,0.31528 -5.167436,0.955487 -1.452741,0.640276 -2.694224,1.621763 -3.724452,2.944463 -1.181908,1.690009 -2.107062,3.756981 -2.775466,6.200922 -0.668412,2.443991 -1.008574,5.108955 -1.020486,7.994899 0.01083,2.124406 0.236161,4.232544 0.675992,6.324421 0.439823,2.091899 1.029148,3.90104 1.767977,5.42743 1.022647,2.125477 2.344296,3.698455 3.96495,4.718936 1.620635,1.02049 3.644274,1.52748 6.070923,1.52098 1.81996,0.003 3.431938,-0.31524 4.835939,-0.95548 1.40396,-0.64024 2.599944,-1.621731 3.587955,-2.944466 1.227375,-1.584892 2.165529,-3.62803 2.814464,-6.129423 0.648881,-2.501373 0.976043,-5.155503 0.981488,-7.962398 z m -5.51193,0 c -0.01086,1.400749 -0.145187,2.837229 -0.402995,4.309445 -0.257853,1.472243 -0.574182,2.687726 -0.948988,3.646454 -0.58718,1.526405 -1.310837,2.646556 -2.170974,3.360456 -0.860174,0.713913 -1.921826,1.067075 -3.184959,1.059488 -1.109335,0.0011 -2.049656,-0.222075 -2.820965,-0.669491 -0.771336,-0.447405 -1.42566,-1.125563 -1.962974,-2.034475 -0.678168,-1.127727 -1.193828,-2.551208 -1.546981,-4.270447 -0.353172,-1.719215 -0.530836,-3.51969 -0.532993,-5.40143 0.0011,-1.48413 0.115907,-2.948777 0.344497,-4.393946 0.228571,-1.445125 0.5644,-2.701774 1.007486,-3.769951 0.565481,-1.476538 1.280471,-2.566357 2.144972,-3.269459 0.864476,-0.703045 1.917462,-1.051873 3.158961,-1.046486 0.103983,2.9e-5 0.207982,2.9e-5 0.311996,0 1.03022,0.06719 1.907708,0.309859 2.632466,0.72799 0.724722,0.41819 1.355213,1.076848 1.891477,1.975975 0.678137,1.187344 1.193796,2.621658 1.54698,4.302946 0.35314,1.681334 0.530804,3.505642 0.532994,5.472931 z"
     style=""
     id="path3805" /></g></svg>