<svg xmlns="http://www.w3.org/2000/svg" width="205" height="273" viewBox="0 0 205 273">
  <g fill="none">
    <path fill="#FFF" stroke="#C31926" stroke-width="7" d="M200.72262,255.16413 L200.72262,17.47913 C200.72262,10.0735308 194.649778,4.00038 187.24512,4.00038 L17.47012,4.00038 C10.0654668,4.00038 3.992625,10.0735314 3.992625,17.47913 L3.992625,255.16413 C3.992625,262.568633 10.065621,268.64163 17.47012,268.64163 L187.24512,268.64163 C194.649623,268.64163 200.72262,262.568633 200.72262,255.16413 Z"/>
    <path fill="#000" d="M84.716,66 L65.58,66 L65.58,29.6 L84.248,29.6 L84.248,35.84 L72.08,35.84 L72.08,43.536 L80.244,43.536 L80.244,49.672 L72.08,49.672 L72.08,59.76 L84.716,59.76 L84.716,66 Z M111.86,66 L105.62,66 L98.912,49.776 C97.976,47.488 96.832,44.524 96.156,42.392 C96.208,44.628 96.26,48.372 96.26,50.66 L96.26,66 L90.332,66 L90.332,29.6 L96.884,29.6 L103.28,45.564 C104.164,47.748 105.464,51.128 106.14,53.156 C106.088,50.92 105.932,46.968 105.932,44.68 L105.932,29.6 L111.86,29.6 L111.86,66 Z M140.72,47.748 C140.72,60.54 135.208,66 126.68,66 L118.62,66 L118.62,29.6 L126.836,29.6 C135.572,29.6 140.72,34.956 140.72,47.748 Z M134.064,47.852 C134.064,41.144 132.66,35.944 126.836,35.944 L125.12,35.944 L125.12,59.656 L126.836,59.656 C132.66,59.656 134.064,54.56 134.064,47.852 Z"/>
    <g transform="translate(27 95)">
      <circle cx="74.925" cy="75.095" r="74.875" fill="#C31926"/>
      <circle cx="74.925" cy="75.095" r="62.396" fill="#FFF"/>
    </g>
  </g>
</svg>
