<?xml version="1.0" encoding="UTF-8" standalone="no"?>
<!-- Generator: Adobe Illustrator 14.0.0, SVG Export Plug-In  -->

<svg
   xmlns:dc="http://purl.org/dc/elements/1.1/"
   xmlns:cc="http://creativecommons.org/ns#"
   xmlns:rdf="http://www.w3.org/1999/02/22-rdf-syntax-ns#"
   xmlns:svg="http://www.w3.org/2000/svg"
   xmlns="http://www.w3.org/2000/svg"
   xmlns:sodipodi="http://sodipodi.sourceforge.net/DTD/sodipodi-0.dtd"
   xmlns:inkscape="http://www.inkscape.org/namespaces/inkscape"
   version="1.1"
   x="0px"
   y="0px"
   width="90.687485"
   height="113.21873"
   viewBox="0 -0.321 90.687488 113.21875"
   enable-background="new 0 -0.321 144 120"
   xml:space="preserve"
   id="svg2"
   inkscape:version="0.48.2 r9819"
   sodipodi:docname="Minimum_Speed_70.svg"><metadata
   id="metadata44"><rdf:RDF><cc:Work
       rdf:about=""><dc:format>image/svg+xml</dc:format><dc:type
         rdf:resource="http://purl.org/dc/dcmitype/StillImage" /><dc:title></dc:title></cc:Work></rdf:RDF></metadata><sodipodi:namedview
   pagecolor="#ffffff"
   bordercolor="#666666"
   borderopacity="1"
   objecttolerance="10"
   gridtolerance="10"
   guidetolerance="10"
   inkscape:pageopacity="0"
   inkscape:pageshadow="2"
   inkscape:window-width="1280"
   inkscape:window-height="962"
   id="namedview42"
   showgrid="false"
   fit-margin-top="0"
   fit-margin-left="0"
   fit-margin-right="0"
   fit-margin-bottom="0"
   inkscape:zoom="3.7904688"
   inkscape:cx="34.313515"
   inkscape:cy="39.699829"
   inkscape:window-x="-8"
   inkscape:window-y="-8"
   inkscape:window-maximized="1"
   inkscape:current-layer="svg2" />
<defs
   id="defs4">
</defs>


















<path
   inkscape:connector-curvature="0"
   d="m 5.963905,112.53945 78.748758,0 c 1.48625,0 2.93,-0.58875 3.98375,-1.64125 1.05,-1.04875 1.64625,-2.4975 1.64625,-3.98375 l 0,-101.24752 c 0,-1.48625 -0.59625,-2.92875 -1.64625,-3.98375 -1.05375,-1.05 -2.4975,-1.64375 -3.98375,-1.64375 l -78.748758,0 c -1.4875,0 -2.9325,0.59375 -3.985,1.64375 -1.04875016,1.055 -1.64000016,2.4975 -1.64000016,3.98375 l 0,101.24752 c 0,1.93375 1.01000016,3.755 2.64375016,4.795 0.9225,0.58875 1.90875,0.7275 2.98125,0.83"
   style="fill:#ffffff;fill-opacity:1;fill-rule:nonzero;stroke:#000000;stroke-width:0.70000011;stroke-miterlimit:4;stroke-opacity:1;stroke-dasharray:none"
   id="path6456" /><path
   inkscape:connector-curvature="0"
   d="m 1.908895,106.91445 0,-101.24502 c 0,-1.06125 0.43875,-2.11875 1.18375,-2.87 0.755,-0.75 1.80875,-1.185 2.87125,-1.185 l 78.746258,0 c 1.06,0 2.11875,0.435 2.86875,1.185 0.75125,0.75125 1.18625,1.80875 1.18625,2.87 l 0,101.24502 c 0,1.0625 -0.435,2.11875 -1.18625,2.87125 -0.75,0.745 -1.80875,1.18375 -2.86875,1.18375 l -78.746258,0 c -1.0625,0 -2.11625,-0.43875 -2.87125,-1.18375 -0.745,-0.7525 -1.18375,-1.80875 -1.18375,-2.87125"
   style="fill:#000000;fill-opacity:1;fill-rule:evenodd;stroke:none"
   id="path6464" /><path
   inkscape:connector-curvature="0"
   d="m 4.117655,106.91195 c 0,0.495 0.19125,0.9625 0.5375,1.31125 0.35125,0.34625 0.8175,0.53875 1.31125,0.53875 l 78.746258,0 c 0.49,0 0.95875,-0.1925 1.30875,-0.53875 0.34875,-0.34875 0.53875,-0.81625 0.53875,-1.31125 l 0,-101.24377 c 0,-0.49375 -0.19,-0.9575 -0.53875,-1.30625 -0.35,-0.35 -0.81875,-0.54 -1.30875,-0.54 l -78.746258,0 c -0.49375,0 -0.96,0.19 -1.31125,0.54 -0.34625,0.34875 -0.5375,0.8125 -0.5375,1.30625 l 0,101.24377 z"
   style="fill:#ffffff;fill-opacity:1;fill-rule:evenodd;stroke:none"
   id="path6468" /><path
   inkscape:connector-curvature="0"
   d="m 77.510163,17.66132 -2.725,8.4025 -2.78,-8.46875 0,8.46875 -2.0975,0 0,-14.99625 2.185,0 2.67375,8.15625 2.65625,-8.15625 2.205,0 0,14.99625 -2.1175,0 0,-8.4025 z"
   style="fill:#000000;fill-opacity:1;fill-rule:evenodd;stroke:none"
   id="path6488" /><path
   inkscape:connector-curvature="0"
   d="m 18.430153,17.66132 -2.73,8.4025 -2.77625,-8.46875 0,8.46875 -2.09875,0 0,-14.99625 2.1875,0 2.6725,8.15625 2.65375,-8.15625 2.2075,0 0,14.99625 -2.11625,0 0,-8.4025 z"
   style="fill:#000000;fill-opacity:1;fill-rule:evenodd;stroke:none"
   id="path6492" /><path
   inkscape:connector-curvature="0"
   d="m 53.255153,17.66132 -2.73,8.4025 -2.775,-8.46875 0,8.46875 -2.1025,0 0,-14.99625 2.1875,0 2.67625,8.15625 2.65625,-8.15625 2.20375,0 0,14.99625 -2.11625,0 0,-8.4025 z"
   style="fill:#000000;fill-opacity:1;fill-rule:evenodd;stroke:none"
   id="path6496" /><path
   inkscape:connector-curvature="0"
   d="m 28.993893,26.06431 0,-14.9975 2.1725,0 3.91125,8.73375 0.0175,-8.73375 2.10375,0 0,14.9975 -1.635,0 -4.46875,-9.94875 0,9.94875 -2.10125,0 z"
   style="fill:#000000;fill-opacity:1;fill-rule:evenodd;stroke:none"
   id="path6500" /><path
   inkscape:connector-curvature="0"
   d="m 66.738893,22.21469 c 0,1.6375 -1.01375,3.14875 -2.52,3.785 -0.99375,0.4175 -2.1425,0.4175 -3.13375,0 -1.53125,-0.645 -2.515,-2.1275 -2.515,-3.785 l 0,-11.1475 2.095,0 0,11.1475 c 0,0.65875 0.34375,1.28625 0.89125,1.6525 0.65875,0.435 1.5425,0.43 2.19625,-0.005 0.55,-0.36625 0.87625,-0.99375 0.87625,-1.6475 l 0,-11.1475 2.11,0 0,11.1475 z"
   style="fill:#000000;fill-opacity:1;fill-rule:evenodd;stroke:none"
   id="path6504" /><path
   inkscape:connector-curvature="0"
   d="m 23.710023,11.06769 2.11875,0 0,14.9975 -2.11875,0 0,-14.9975 z"
   style="fill:#000000;fill-opacity:1;fill-rule:evenodd;stroke:none"
   id="path6506" /><path
   inkscape:connector-curvature="0"
   d="m 40.365023,11.06769 2.11875,0 0,14.9975 -2.11875,0 0,-14.9975 z"
   style="fill:#000000;fill-opacity:1;fill-rule:evenodd;stroke:none"
   id="path6508" /><path
   inkscape:connector-curvature="0"
   d="m 68.455153,46.13319 c 0,1.1575 -0.105,2.21 -0.21,3.15625 -0.2125,1.1575 -0.89626,2.15875 -2.15751,2.15875 l -1.7875,0 0,-10.78375 1.7875,0 c 0.94625,0 1.57875,0.47375 1.94501,1.52375 0.26375,0.6325 0.4225,2.2625 0.4225,3.945 m 2.105,-0.105 c 0,-1.1575 -0.15875,-2.47125 -0.36875,-3.57625 -0.26375,-1.52625 -0.89375,-2.68375 -1.79,-3.31375 -0.525,-0.4225 -1.15751,-0.57875 -2.41876,-0.57875 l -3.84125,0 0,14.99125 4.155,0 c 0.8425,0 1.58001,-0.21 2.10501,-0.68375 1.475,-1.1575 2.15875,-3.3675 2.15875,-6.83875 m -11.14501,7.5225 0,-2.1025 -5.47125,0 0,-4.94625 3.105,0 0,-2.05125 -3.105,0 0,-3.78625 4.8925,0 0,-2.105 -7.04875,0 0,14.99125 7.6275,0 z m -10.355,0 0,-2.1025 -5.47125,0 0,-4.94625 3.10375,0 0,-2.05125 -3.10375,0 0,-3.78625 4.89375,0 0,-2.105 -7.05125,0 0,14.99125 7.62875,0 z m -11.985,-10.78375 c 0,1.36875 -0.68625,2.1575 -1.94875,2.1575 l -2.21,0 0,-4.26 2.21,0 c 1.1575,0 1.94875,0.84 1.94875,2.1025 m 2.10125,0 c 0,-2.525 -1.5775,-4.2075 -3.945,-4.2075 l -4.47,0 0,14.99125 2.155,0 0,-6.575 2.315,0 c 2.52625,0 3.945,-1.4725 3.945,-4.20875 m -11.1425,6.68125 c 0,-2.1575 -1.2625,-3.78625 -4.155,-5.47125 -1.10625,-0.63 -1.42125,-1.05125 -1.42125,-1.78875 0,-0.99875 0.78875,-1.73625 1.79,-1.73625 0.945,0 1.6825,0.68625 1.73625,1.73625 l 2.05,0 c -0.0537,-2.26125 -1.685,-3.8925 -3.78625,-3.8925 -2.15875,0 -3.84,1.73625 -3.84,3.8925 0,1.315 0.62875,2.4725 1.84,3.315 3.05,2.05125 2.21,1.4725 2.525,1.7875 0.89375,0.68625 1.21125,1.315 1.21125,2.1575 0,1.20875 -0.9475,2.26125 -2.105,2.26125 -1.475,0 -2.105,-1.31375 -2.105,-2.57625 l -2.10375,0 c 0,2.47125 1.57625,4.69 4.20875,4.69 2.31375,0 4.155,-1.955 4.155,-4.375"
   style="fill:#000000;fill-opacity:1;fill-rule:evenodd;stroke:none"
   id="path6512" /><g
   style="font-size:52.00001144px;font-style:normal;font-variant:normal;font-weight:normal;font-stretch:normal;line-height:125%;letter-spacing:0px;word-spacing:0px;fill:#000000;fill-opacity:1;stroke:none;font-family:Roadgeek 2005 Series D;-inkscape-font-specification:Roadgeek 2005 Series D"
   id="text3798"><path
     d="m 40.825577,71.962044 0,-5.51193 -23.607701,0 0,5.51193 16.639789,0 c -0.63376,0.975016 -1.290251,2.080001 -1.969474,3.314958 -0.679258,1.235009 -1.322749,2.521992 -1.930476,3.860951 -1.70516,3.649722 -2.961809,7.257173 -3.769954,10.822363 -0.808166,3.565212 -1.232827,7.341661 -1.273983,11.329354 l 5.615929,0 c 0.0011,-1.673724 0.0639,-3.162204 0.188499,-4.465441 0.124566,-1.303228 0.304397,-2.674709 0.539492,-4.114448 0.579559,-2.82962 1.422381,-5.659248 2.528469,-8.488893 1.106049,-2.829611 2.429864,-5.52924 3.971449,-8.098897 0.527552,-0.894796 1.019378,-1.62712 1.47548,-2.196973 0.456053,-0.569798 0.986879,-1.224122 1.592481,-1.962974 z"
     style=""
     id="path3828" /><path
     d="m 70.456631,88.445835 c -0.08669,-3.265109 -1.226343,-6.016739 -3.418956,-8.254896 -2.192661,-2.238115 -4.91829,-3.403765 -8.176897,-3.496955 -0.816837,-0.0043 -1.61416,0.06936 -2.39197,0.220997 -0.777836,0.151689 -1.783155,0.407352 -3.015961,0.766991 l 0.363995,-5.719928 14.663814,0 0,-5.51193 -20.019746,0 0,17.991772 4.627941,1.55998 c 0.991227,-1.425631 1.881715,-2.396285 2.671466,-2.911963 0.789726,-0.515642 1.771213,-0.758305 2.944463,-0.727991 1.761461,0.03902 3.230441,0.624012 4.406944,1.754979 1.176464,1.131001 1.787456,2.573981 1.832977,4.328944 -0.05744,2.306399 -0.917593,4.18054 -2.580468,5.622429 -1.662913,1.441903 -3.78405,2.18506 -6.363419,2.229472 -1.296744,-0.0065 -2.525228,-0.123493 -3.685453,-0.350996 -1.160244,-0.227491 -2.115731,-0.526487 -2.866464,-0.896988 l -2.703966,4.887938 c 1.236064,0.62833 2.585879,1.11365 4.04945,1.45598 1.463556,0.34233 2.956368,0.51566 4.478443,0.51999 4.500093,-0.0802 8.13571,-1.36281 10.906862,-3.847946 2.771105,-2.485131 4.196752,-5.691753 4.276945,-9.619879 z"
     style=""
     id="path3830" /></g></svg>