<svg xmlns="http://www.w3.org/2000/svg" width="513" height="512" viewBox="0 0 513 512">
  <g fill="none" fill-rule="evenodd">
    <circle cx="256" cy="256" r="256" fill="#FFF"/>
    <path fill="#D81E00" d="M257,512 C115.615104,512 1,397.384896 1,256 C1,114.615104 115.615104,0 257,0 C398.384896,0 513,114.615104 513,256 C513,397.384896 398.384896,512 257,512 Z M257,467 C373.532082,467 468,372.532082 468,256 C468,139.467918 373.532082,45 257,45 C140.467918,45 46,139.467918 46,256 C46,372.532082 140.467918,467 257,467 Z"/>
    <g fill="#000" fill-rule="nonzero" transform="translate(90 138)">
      <path d="M287.333 91L277.988 91 270.245 69.195 265.617 76.582 265.617 91 257.073 91 257.073 30.569 265.617 26.119 265.617 54.154C265.617 57.7733514 265.557667 61.1256512 265.439 64.211 266.09167 62.8463265 267.367324 60.4433505 269.266 57.002L276.297 44.275 285.998 44.275 275.941 60.473 287.333 91zM344.115 91L335.571 91 335.571 62.253C335.571 58.7523158 335.452335 56.438339 335.215 55.311 334.56233 52.7003203 333.049345 51.395 330.676 51.395 327.768652 51.395 325.454675 52.8189858 323.734 55.667L323.734 91 315.19 91 315.19 62.253C315.19 58.7523158 315.071335 56.438339 314.834 55.311 314.18133 52.7003203 312.668345 51.395 310.295 51.395 307.387652 51.395 305.073675 52.8189858 303.353 55.667L303.353 91 294.809 91 294.809 44.275 303.353 44.275 303.353 47.479C305.548344 44.6903194 308.455649 43.296 312.075 43.296 316.465689 43.296 319.610324 44.9573167 321.509 48.28 324.416348 44.9573167 328.065311 43.296 332.456 43.296 336.965356 43.296 340.080325 44.8089849 341.801 47.835 343.343674 50.564347 344.115 55.1923007 344.115 61.719L344.115 91zM117.9055 141.838C117.9055 165.359451 112.523554 183.498603 101.7595 196.256 90.3974432 209.6114 73.9526076 216.289 52.4245 216.289 32.2917327 216.289 14.9499061 208.714409.3985 193.565L16.8435 171.439C28.4048911 182.402388 40.7634342 187.884 53.9195 187.884 77.2416166 187.884 88.9025 172.934149 88.9025 143.034 88.9025 130.874606 86.5105239 121.10737 81.7265 113.732 76.3444731 105.758627 68.8695478 101.772 59.3015 101.772 47.7401089 101.772 38.6705329 106.755283 32.0925 116.722L6.9765 111.938 12.3585 3.7 111.3275 3.7 111.3275 32.404 39.2685 32.404 36.5775 81.141C44.7502075 75.9583074 53.7201178 73.367 63.4875 73.367 80.8295867 73.367 94.2346193 79.4466059 103.703 91.606 113.171381 103.765394 117.9055 120.509227 117.9055 141.838zM245.1065 108.051C245.1065 140.542496 240.322548 166.156573 230.7545 184.894 219.990446 205.824105 204.043939 216.289 182.9145 216.289 161.984395 216.289 146.237219 205.92377 135.6725 185.193 126.303786 166.654907 121.6195 141.140496 121.6195 108.649 121.6195 76.1575042 126.403452 50.543427 135.9715 31.806 146.536219 10.8758954 162.283395.411 183.2135.411 204.342939.411 220.189781 10.676564 230.7545 31.208 240.322548 49.5467584 245.1065 75.1608356 245.1065 108.051zM215.8045 108.649C215.8045 55.6260682 204.741611 29.115 182.6155 29.115 161.486061 29.115 150.9215 55.4267369 150.9215 108.051 150.9215 161.073932 161.884724 187.585 183.8115 187.585 205.140273 187.585 215.8045 161.273263 215.8045 108.649z"/>
    </g>
  </g>
</svg>
