<svg xmlns="http://www.w3.org/2000/svg" width="513" height="512" viewBox="0 0 513 512">
  <g fill="none" fill-rule="evenodd">
    <circle cx="256" cy="256" r="256" fill="#FFF"/>
    <path fill="#D81E00" d="M257,512 C115.615104,512 1,397.384896 1,256 C1,114.615104 115.615104,0 257,0 C398.384896,0 513,114.615104 513,256 C513,397.384896 398.384896,512 257,512 Z M257,467 C373.532082,467 468,372.532082 468,256 C468,139.467918 373.532082,45 257,45 C140.467918,45 46,139.467918 46,256 C46,372.532082 140.467918,467 257,467 Z"/>
    <g fill="#000" fill-rule="nonzero" transform="translate(92 138)">
      <path d="M284.833 91L275.488 91 267.745 69.195 263.117 76.582 263.117 91 254.573 91 254.573 30.569 263.117 26.119 263.117 54.154C263.117 57.7733514 263.057667 61.1256512 262.939 64.211 263.59167 62.8463265 264.867324 60.4433505 266.766 57.002L273.797 44.275 283.498 44.275 273.441 60.473 284.833 91zM341.615 91L333.071 91 333.071 62.253C333.071 58.7523158 332.952335 56.438339 332.715 55.311 332.06233 52.7003203 330.549345 51.395 328.176 51.395 325.268652 51.395 322.954675 52.8189858 321.234 55.667L321.234 91 312.69 91 312.69 62.253C312.69 58.7523158 312.571335 56.438339 312.334 55.311 311.68133 52.7003203 310.168345 51.395 307.795 51.395 304.887652 51.395 302.573675 52.8189858 300.853 55.667L300.853 91 292.309 91 292.309 44.275 300.853 44.275 300.853 47.479C303.048344 44.6903194 305.955649 43.296 309.575 43.296 313.965689 43.296 317.110324 44.9573167 319.009 48.28 321.916348 44.9573167 325.565311 43.296 329.956 43.296 334.465356 43.296 337.580325 44.8089849 339.301 47.835 340.843674 50.564347 341.615 55.1923007 341.615 61.719L341.615 91zM117.9985 148.416C117.9985 169.14677 112.516888 185.641439 101.5535 197.9005 90.5901119 210.159561 75.739927 216.289 57.0025 216.289 39.6604133 216.289 26.1058822 210.109728 16.3385 197.751 5.97311484 184.594934.7905 164.960797.7905 138.848.7905 98.1837967 8.96308494 65.6429554 25.3085 41.2245 41.6539151 16.8060446 64.9756818 3.20168062 95.2745.411L95.2745 27.919C78.1317476 30.1116776 63.8795568 37.7859342 52.5175 50.942 41.7534462 63.3007285 34.876515 78.7489073 31.8865 97.287 39.8598732 88.3169552 50.8230969 83.832 64.7765 83.832 80.5239121 83.832 93.3309507 89.8119402 103.198 101.772 113.065049 113.73206 117.9985 129.279904 117.9985 148.416zM89.5935 149.014C89.5935 137.851278 86.8526941 128.831534 81.371 121.9545 75.8893059 115.077466 68.3645478 111.639 58.7965 111.639 49.4277865 111.639 42.1521926 115.077466 36.9695 121.9545 31.7868074 128.831534 29.1955 138.449272 29.1955 150.808 29.1955 162.170057 31.8366403 171.289466 37.119 178.1665 42.4013597 185.043534 49.6271208 188.482 58.7965 188.482 68.5638822 188.482 76.1384731 184.943869 81.5205 177.8675 86.9025269 170.791131 89.5935 161.173394 89.5935 149.014zM242.2095 108.051C242.2095 140.542496 237.425548 166.156573 227.8575 184.894 217.093446 205.824105 201.146939 216.289 180.0175 216.289 159.087395 216.289 143.340219 205.92377 132.7755 185.193 123.406786 166.654907 118.7225 141.140496 118.7225 108.649 118.7225 76.1575042 123.506452 50.543427 133.0745 31.806 143.639219 10.8758954 159.386395.411 180.3165.411 201.445939.411 217.292781 10.676564 227.8575 31.208 237.425548 49.5467584 242.2095 75.1608356 242.2095 108.051zM212.9075 108.649C212.9075 55.6260682 201.844611 29.115 179.7185 29.115 158.589061 29.115 148.0245 55.4267369 148.0245 108.051 148.0245 161.073932 158.987724 187.585 180.9145 187.585 202.243273 187.585 212.9075 161.273263 212.9075 108.649z"/>
    </g>
  </g>
</svg>
