<svg xmlns="http://www.w3.org/2000/svg" width="513" height="512" viewBox="0 0 513 512">
  <g fill="none" fill-rule="evenodd">
    <ellipse cx="256.5" cy="256" fill="#FFF" rx="256.5" ry="256"/>
    <path fill="#D81E00" d="M256.5,512 C114.838962,512 0,397.384896 0,256 C0,114.615104 114.838962,0 256.5,0 C398.161038,0 513,114.615104 513,256 C513,397.384896 398.161038,512 256.5,512 Z M256.5,458 C368.279413,458 458.894531,367.561519 458.894531,256 C458.894531,144.438481 368.279413,54 256.5,54 C144.720587,54 54.1054688,144.438481 54.1054688,256 C54.1054688,367.561519 144.720587,458 256.5,458 Z"/>
    <path fill="#000" fill-rule="nonzero" d="M248.808594,212.083984 L209.833984,212.083984 C207.167969,204.720703 199.423828,198.119141 187.109375,198.119141 C165.146484,198.119141 153.720703,223.636719 154.863281,251.439453 L157.402344,251.439453 C162.861328,239.759766 175.556641,228.587891 197.773438,228.587891 C225.576172,228.587891 252.363281,247.25 252.363281,284.066406 C252.363281,322.914062 224.179688,345.511719 185.839844,345.511719 C162.099609,345.511719 141.025391,336.878906 128.203125,315.804688 C119.951172,302.220703 115,283.558594 115,258.675781 C115,197.103516 142.548828,166.126953 187.363281,166.126953 C227.988281,166.126953 247.666016,191.136719 248.808594,212.083984 Z M159.306641,285.716797 C159.306641,302.855469 170.605469,313.646484 185.839844,313.646484 C201.328125,313.646484 212.373047,303.744141 212.373047,285.716797 C212.373047,268.324219 200.693359,258.421875 185.966797,258.421875 C169.970703,258.421875 159.306641,269.720703 159.306641,285.716797 Z M261.119141,259.818359 L261.119141,251.3125 C261.119141,199.642578 287.525391,166 330.181641,166 C372.837891,166 398.355469,198.880859 398.355469,251.3125 L398.355469,259.818359 C398.355469,311.361328 371.568359,345.511719 329.292969,345.511719 C287.017578,345.511719 261.119141,312.123047 261.119141,259.818359 Z M302.886719,251.439453 L302.886719,259.691406 C302.886719,292.826172 312.916016,312.25 329.673828,312.25 C346.431641,312.25 356.587891,292.699219 356.587891,259.691406 L356.587891,251.439453 C356.587891,218.558594 346.558594,199.261719 329.673828,199.261719 C312.916016,199.261719 302.886719,218.431641 302.886719,251.439453 Z"/>
  </g>
</svg>
