<svg xmlns="http://www.w3.org/2000/svg" width="513" height="512" viewBox="0 0 513 512">
  <g fill="none" fill-rule="evenodd">
    <ellipse cx="256.5" cy="256" fill="#FFF" rx="256.5" ry="256"/>
    <path fill="#D81E00" d="M256.5,512 C114.838962,512 0,397.384896 0,256 C0,114.615104 114.838962,0 256.5,0 C398.161038,0 513,114.615104 513,256 C513,397.384896 398.161038,512 256.5,512 Z M256.5,458 C368.279413,458 458.894531,367.561519 458.894531,256 C458.894531,144.438481 368.279413,54 256.5,54 C144.720587,54 54.1054688,144.438481 54.1054688,256 C54.1054688,367.561519 144.720587,458 256.5,458 Z"/>
    <path fill="#000" fill-rule="nonzero" d="M174.96875,169.046875 L234.509766,169.046875 L234.509766,280.003906 L254.695312,280.003906 L254.695312,312.630859 L234.509766,312.630859 L234.509766,342.337891 L195.535156,342.337891 L195.535156,312.630859 L112,312.630859 L112,279.369141 C131.296875,242.044922 153.640625,205.482422 174.96875,169.046875 Z M148.308594,280.003906 L195.535156,280.003906 L195.535156,199.007812 L193.630859,199.007812 C177.888672,224.779297 162.273438,251.3125 148.308594,279.115234 L148.308594,280.003906 Z M263.705078,259.818359 L263.705078,251.3125 C263.705078,199.642578 290.111328,166 332.767578,166 C375.423828,166 400.941406,198.880859 400.941406,251.3125 L400.941406,259.818359 C400.941406,311.361328 374.154297,345.511719 331.878906,345.511719 C289.603516,345.511719 263.705078,312.123047 263.705078,259.818359 Z M305.472656,251.439453 L305.472656,259.691406 C305.472656,292.826172 315.501953,312.25 332.259766,312.25 C349.017578,312.25 359.173828,292.699219 359.173828,259.691406 L359.173828,251.439453 C359.173828,218.558594 349.144531,199.261719 332.259766,199.261719 C315.501953,199.261719 305.472656,218.431641 305.472656,251.439453 Z"/>
  </g>
</svg>
