<svg xmlns="http://www.w3.org/2000/svg" width="513" height="512" viewBox="0 0 513 512">
  <g fill="none" fill-rule="evenodd">
    <circle cx="256" cy="256" r="256" fill="#FFF"/>
    <path fill="#D81E00" d="M257,512 C115.615104,512 1,397.384896 1,256 C1,114.615104 115.615104,0 257,0 C398.384896,0 513,114.615104 513,256 C513,397.384896 398.384896,512 257,512 Z M257,467 C373.532082,467 468,372.532082 468,256 C468,139.467918 373.532082,45 257,45 C140.467918,45 46,139.467918 46,256 C46,372.532082 140.467918,467 257,467 Z"/>
    <g fill="#000" fill-rule="nonzero" transform="translate(153 141)">
      <path d="M160.833 88L151.488 88 143.745 66.195 139.117 73.582 139.117 88 130.573 88 130.573 27.569 139.117 23.119 139.117 51.154C139.117 54.7733514 139.057667 58.1256512 138.939 61.211 139.59167 59.8463265 140.867324 57.4433505 142.766 54.002L149.797 41.275 159.498 41.275 149.441 57.473 160.833 88zM217.615 88L209.071 88 209.071 59.253C209.071 55.7523158 208.952335 53.438339 208.715 52.311 208.06233 49.7003203 206.549345 48.395 204.176 48.395 201.268652 48.395 198.954675 49.8189858 197.234 52.667L197.234 88 188.69 88 188.69 59.253C188.69 55.7523158 188.571335 53.438339 188.334 52.311 187.68133 49.7003203 186.168345 48.395 183.795 48.395 180.887652 48.395 178.573675 49.8189858 176.853 52.667L176.853 88 168.309 88 168.309 41.275 176.853 41.275 176.853 44.479C179.048344 41.6903194 181.955649 40.296 185.575 40.296 189.965689 40.296 193.110324 41.9573167 195.009 45.28 197.916348 41.9573167 201.565311 40.296 205.956 40.296 210.465356 40.296 213.580325 41.8089849 215.301 44.835 216.843674 47.564347 217.615 52.1923007 217.615 58.719L217.615 88zM118.506 138.838C118.506 162.359451 113.124054 180.498603 102.36 193.256 90.9979432 206.6114 74.5531076 213.289 53.025 213.289 32.8922327 213.289 15.5504061 205.714409.999 190.565L17.444 168.439C29.0053911 179.402388 41.3639342 184.884 54.52 184.884 77.8421166 184.884 89.503 169.934149 89.503 140.034 89.503 127.874606 87.1110239 118.10737 82.327 110.732 76.9449731 102.758627 69.4700478 98.772 59.902 98.772 48.3406089 98.772 39.2710329 103.755283 32.693 113.722L7.577 108.938 12.959.7 111.928.7 111.928 29.404 39.869 29.404 37.178 78.141C45.3507075 72.9583074 54.3206178 70.367 64.088 70.367 81.4300867 70.367 94.8351193 76.4466059 104.3035 88.606 113.771881 100.765394 118.506 117.509227 118.506 138.838z"/>
    </g>
  </g>
</svg>
