<?xml version="1.0" encoding="UTF-8" standalone="no"?>
<!-- Created with Inkscape (http://www.inkscape.org/) -->

<svg
   xmlns:dc="http://purl.org/dc/elements/1.1/"
   xmlns:cc="http://creativecommons.org/ns#"
   xmlns:rdf="http://www.w3.org/1999/02/22-rdf-syntax-ns#"
   xmlns:svg="http://www.w3.org/2000/svg"
   xmlns="http://www.w3.org/2000/svg"
   xmlns:sodipodi="http://sodipodi.sourceforge.net/DTD/sodipodi-0.dtd"
   xmlns:inkscape="http://www.inkscape.org/namespaces/inkscape"
   width="123.61469"
   height="123.615"
   id="svg2"
   sodipodi:version="0.32"
   inkscape:version="0.48.2 r9819"
   version="1.0"
   sodipodi:docname="AJAX1.svg"
   inkscape:output_extension="org.inkscape.output.svg.inkscape"
   sodipodi:modified="true">
  <defs
     id="defs4" />
  <sodipodi:namedview
     id="base"
     pagecolor="#ffffff"
     bordercolor="#666666"
     borderopacity="1.0"
     inkscape:pageopacity="0.0"
     inkscape:pageshadow="2"
     inkscape:zoom="3.959798"
     inkscape:cx="55.54789"
     inkscape:cy="90.864323"
     inkscape:document-units="px"
     inkscape:current-layer="layer2"
     inkscape:window-width="1280"
     inkscape:window-height="1004"
     inkscape:window-x="-8"
     inkscape:window-y="-8"
     showguides="true"
     inkscape:guide-bbox="true"
     showgrid="false"
     fit-margin-top="0"
     fit-margin-left="0"
     fit-margin-right="0"
     fit-margin-bottom="0"
     inkscape:window-maximized="1" />
  <metadata
     id="metadata7">
    <rdf:RDF>
      <cc:Work
         rdf:about="">
        <dc:format>image/svg+xml</dc:format>
        <dc:type
           rdf:resource="http://purl.org/dc/dcmitype/StillImage" />
      </cc:Work>
    </rdf:RDF>
  </metadata>
  <g
     inkscape:groupmode="layer"
     id="layer2"
     inkscape:label="Dessin"
     transform="translate(327.05646,65.474022)">
    <path
       d="m -325.40084,-7.6774602 56.14126,-56.1399998 c 2.21125,-2.20875 5.8125,-2.20875 8.02,0 l 56.14125,56.1399998 c 2.20875,2.20875 2.20875,5.8125 0,8.02125 l -56.14125,56.1387492 c -2.2075,2.21125 -5.80876,2.21125 -8.02,0 L -325.40084,0.3437898 c -2.20749,-2.20875 -2.20749,-5.8125 0,-8.02125"
       style="fill:#9fd731;fill-opacity:1;fill-rule:evenodd;stroke:none"
       id="path4571"
       inkscape:connector-curvature="0" />
    <g
       id="g4573"
       transform="matrix(1.25,0,0,-1.25,-325.40083,-7.6774602)"
       style="stroke:none">
      <path
         d="m 0,0 44.913,44.912 c 1.769,1.767 4.65,1.767 6.416,0 L 96.242,0 c 1.767,-1.767 1.767,-4.65 0,-6.417 L 51.329,-51.328 c -1.766,-1.769 -4.647,-1.769 -6.416,0 L 0,-6.417 C -1.766,-4.65 -1.766,-1.767 0,0 z"
         style="fill:none;stroke:none"
         id="path4575"
         inkscape:connector-curvature="0" />
    </g>
    <g
       id="g4577"
       transform="matrix(1.25,0,0,-1.25,-207.22446,-3.5749602)"
       style="stroke:none">
      <path
         d="m 0,0 -0.006,-0.074 -0.007,-0.075 -0.014,-0.072 -0.017,-0.071 -0.016,-0.07 -0.025,-0.071 -0.024,-0.068 -0.03,-0.066 -0.031,-0.067 -0.035,-0.062 -0.041,-0.063 -0.041,-0.06 -0.047,-0.061 -0.049,-0.058 -0.082,-0.086 -44.858,-44.857 -0.085,-0.082 -0.059,-0.049 -0.058,-0.047 -0.062,-0.042 -0.062,-0.04 -0.064,-0.034 -0.065,-0.032 -0.068,-0.029 -0.068,-0.026 -0.069,-0.022 -0.07,-0.019 -0.073,-0.016 -0.072,-0.013 -0.074,-0.008 -0.074,-0.006 -0.074,-0.001 -0.073,0.001 -0.074,0.006 -0.074,0.008 -0.073,0.013 -0.071,0.016 -0.07,0.019 -0.071,0.022 -0.068,0.026 -0.066,0.029 -0.067,0.032 -0.062,0.034 -0.063,0.04 -0.06,0.042 -0.061,0.047 -0.057,0.049 -0.084,0.082 -44.861,44.857 -0.079,0.086 -0.052,0.058 -0.045,0.061 -0.043,0.06 -0.038,0.063 -0.035,0.062 -0.033,0.067 -0.028,0.066 -0.027,0.068 -0.021,0.071 -0.02,0.07 -0.016,0.071 -0.011,0.072 -0.01,0.075 -0.005,0.074 -0.002,0.073 0.002,0.074 0.005,0.076 0.01,0.072 0.011,0.072 0.016,0.071 0.02,0.072 0.021,0.071 0.027,0.066 0.028,0.068 0.033,0.065 0.035,0.063 0.038,0.063 0.043,0.06 0.045,0.06 0.052,0.059 0.079,0.085 44.861,44.858 0.084,0.081 0.057,0.051 0.061,0.046 0.06,0.041 0.063,0.04 0.062,0.035 0.067,0.032 0.066,0.03 0.068,0.025 0.071,0.022 0.07,0.019 0.071,0.016 0.073,0.012 0.074,0.008 0.074,0.006 0.073,0.001 0.074,-0.001 0.074,-0.006 0.074,-0.008 0.072,-0.012 0.073,-0.016 0.07,-0.019 0.069,-0.022 0.068,-0.025 0.068,-0.03 0.065,-0.032 0.064,-0.035 0.062,-0.04 0.062,-0.041 0.058,-0.046 0.059,-0.051 0.085,-0.081 L -0.465,1.17 -0.383,1.085 -0.334,1.026 -0.287,0.966 -0.246,0.906 -0.205,0.843 -0.17,0.78 -0.139,0.715 -0.109,0.647 -0.085,0.581 -0.06,0.51 -0.044,0.438 -0.027,0.367 -0.013,0.295 -0.006,0.223 0,0.147 0.003,0.073 0,0 z M 1.89,0.237 1.876,0.401 1.857,0.564 1.829,0.725 1.794,0.887 1.753,1.046 1.701,1.201 1.644,1.357 1.578,1.509 1.504,1.658 1.422,1.803 1.334,1.946 1.237,2.086 1.132,2.222 1.02,2.352 0.889,2.489 l -44.893,44.894 -0.136,0.131 -0.131,0.112 -0.136,0.103 -0.14,0.098 -0.141,0.089 -0.147,0.082 -0.149,0.073 -0.153,0.066 -0.155,0.057 -0.155,0.051 -0.159,0.042 -0.161,0.036 -0.162,0.027 -0.163,0.019 -0.164,0.012 -0.164,0.005 -0.164,-0.005 -0.162,-0.012 -0.164,-0.019 -0.162,-0.027 -0.161,-0.036 -0.158,-0.042 -0.157,-0.051 -0.155,-0.057 -0.151,-0.066 -0.151,-0.073 -0.144,-0.082 -0.144,-0.089 -0.137,-0.098 -0.137,-0.103 -0.132,-0.112 -0.137,-0.131 -44.892,-44.894 -0.13,-0.137 -0.114,-0.13 -0.103,-0.136 -0.097,-0.14 -0.09,-0.143 -0.081,-0.145 -0.073,-0.149 -0.065,-0.152 -0.06,-0.156 -0.049,-0.155 -0.044,-0.159 -0.035,-0.162 -0.027,-0.161 -0.02,-0.163 -0.01,-0.164 -0.004,-0.164 0.004,-0.164 0.01,-0.162 0.02,-0.164 0.027,-0.162 0.035,-0.161 0.044,-0.159 0.049,-0.156 0.06,-0.156 0.065,-0.151 0.073,-0.15 0.081,-0.144 0.09,-0.144 0.097,-0.14 0.103,-0.133 0.114,-0.131 0.13,-0.139 44.892,-44.891 0.137,-0.131 0.132,-0.114 0.137,-0.104 0.137,-0.097 0.144,-0.089 0.144,-0.081 0.151,-0.073 0.151,-0.066 0.155,-0.059 0.157,-0.051 0.158,-0.042 0.161,-0.034 0.162,-0.027 0.164,-0.021 0.162,-0.01 0.164,-0.004 0.164,0.004 0.164,0.01 0.163,0.021 0.162,0.027 0.161,0.034 0.159,0.042 0.155,0.051 0.155,0.059 0.153,0.066 0.149,0.073 0.147,0.081 0.141,0.089 0.14,0.097 0.136,0.104 0.131,0.114 0.136,0.131 44.893,44.891 0.131,0.139 0.112,0.131 0.105,0.133 0.097,0.14 0.088,0.144 0.082,0.144 0.074,0.15 0.066,0.151 0.057,0.156 0.052,0.156 0.041,0.159 0.035,0.161 0.028,0.162 0.019,0.164 0.014,0.162 0.003,0.164 -0.003,0.164 z"
         style="fill:#000000;fill-opacity:1;fill-rule:nonzero;stroke:none"
         id="path4579"
         inkscape:connector-curvature="0" />
    </g>
    <g
       id="g4581"
       transform="matrix(1.25,0,0,-1.25,-287.72571,29.936341)"
       style="stroke:none">
      <path
         d="m 0,0 c 0,-1.664 1.361,-3.024 3.024,-3.024 l 29.852,0 c 1.665,0 3.024,1.36 3.024,3.024 l 0,34.487 -35.9,0 L 0,0 z"
         style="fill:#ffffff;fill-opacity:1;fill-rule:nonzero;stroke:none"
         id="path4583"
         inkscape:connector-curvature="0" />
    </g>
    <g
       id="g4585"
       transform="matrix(1.25,0,0,-1.25,-242.85071,-22.08368)"
       style="stroke:none">
      <path
         d="m 0,0 c 0,1.663 -1.359,3.024 -3.024,3.024 l -29.852,0 C -34.539,3.024 -35.9,1.663 -35.9,0 l 0,-7.129 0.605,0 0,7.129 c 0,1.335 1.084,2.419 2.419,2.419 l 29.852,0 c 1.334,0 2.42,-1.084 2.42,-2.419 l 0,-7.129 0.604,0 L 0,0 z"
         style="fill:#ffffff;fill-opacity:1;fill-rule:nonzero;stroke:none"
         id="path4587"
         inkscape:connector-curvature="0" />
    </g>
    <g
       id="g4589"
       transform="matrix(1.25,0,0,-1.25,-285.70959,-12.77743)"
       style="stroke:none">
      <path
         d="m 0,0 32.676,0 0,-34.171 c 0,-0.779 -0.634,-1.412 -1.413,-1.412 l -29.852,0 C 0.633,-35.583 0,-34.95 0,-34.171 L 0,0 z m -1.008,-34.171 c 0,-1.335 1.084,-2.42 2.419,-2.42 l 29.852,0 c 1.334,0 2.42,1.085 2.42,2.42 l 0,34.487 -34.691,0 0,-34.487 z"
         style="fill:#000000;fill-opacity:1;fill-rule:nonzero;stroke:none"
         id="path4591"
         inkscape:connector-curvature="0" />
    </g>
    <g
       id="g4593"
       transform="matrix(1.25,0,0,-1.25,-244.86447,-13.83493)"
       style="stroke:none">
      <path
         d="m 0,0 -32.676,0 0,6.599 c 0,0.779 0.633,1.411 1.411,1.411 l 29.852,0 C -0.634,8.01 0,7.378 0,6.599 L 0,0 z m -1.413,9.018 -29.852,0 c -1.335,0 -2.419,-1.084 -2.419,-2.419 l 0,-7.129 34.691,0 0,7.129 c 0,1.335 -1.086,2.419 -2.42,2.419"
         style="fill:#000000;fill-opacity:1;fill-rule:nonzero;stroke:none"
         id="path4595"
         inkscape:connector-curvature="0" />
    </g>
    <g
       id="g4597"
       transform="matrix(1.25,0,0,-1.25,-257.86571,-28.68369)"
       style="stroke:none">
      <path
         d="m 0,0 -11.738,0.013 0.021,6.354 -10.417,-2.169 c -0.338,-0.071 -0.475,-0.11 -0.585,-0.11 -0.697,0.001 -1.336,0.668 -1.335,1.363 0.002,0.277 -0.004,0.467 0.308,0.776 l 17.866,17.67 17.815,-17.7 c 0.269,-0.267 0.307,-0.5 0.307,-0.779 -0.003,-0.722 -0.643,-1.36 -1.367,-1.358 -0.113,0 -0.132,0.026 -0.392,0.083 L 0.021,6.512"
         style="fill:#000000;fill-opacity:1;fill-rule:evenodd;stroke:none"
         id="path4599"
         inkscape:connector-curvature="0" />
    </g>
    <g
       id="g4601"
       transform="matrix(1.25,0,0,-1.25,-270.34071,18.98384)"
       style="stroke:none">
      <path
         d="m 0,0 c -2.444,-1.519 -4.691,-2.19 -6.049,-5.566 l 8.915,0 0,-2.929 -12.354,0 c 0.064,2.101 0.502,3.824 1.529,5.539 C -4.774,2.367 0,1.779 0,4.622 0,5.958 -1.528,7.041 -3.312,7.041 -5.158,7.041 -6.303,6.149 -6.623,4.493 L -9.488,5.131 C -8.851,8.124 -6.494,9.97 -3.312,9.97 0.127,9.97 2.866,7.551 2.866,4.558 2.866,2.388 1.616,1.005 0,0"
         style="fill:#000000;fill-opacity:1;fill-rule:nonzero;stroke:none"
         id="path4603"
         inkscape:connector-curvature="0" />
    </g>
    <g
       id="g4605"
       transform="matrix(1.25,0,0,-1.25,-253.32196,11.93254)"
       style="stroke:none">
      <path
         d="m 0,0 c -0.574,0.954 -1.276,1.336 -2.361,1.4 -1.404,0.064 -2.298,-0.638 -2.937,-2.229 -0.447,-1.081 -0.701,-2.738 -0.701,-4.266 0,-1.91 0.383,-3.884 1.084,-5.029 0.574,-0.956 1.341,-1.402 2.49,-1.402 1.34,0 2.171,0.701 2.808,2.293 0.383,0.954 0.703,2.738 0.703,4.138 C 1.086,-3.058 0.703,-1.21 0,0 m 1.981,-12.417 c -1.024,-1.401 -2.491,-2.037 -4.406,-2.037 -2.552,0 -4.148,1.018 -5.234,3.247 -0.766,1.529 -1.275,3.947 -1.275,6.112 0,2.993 0.765,5.668 1.978,7.387 1.084,1.399 2.553,2.037 4.658,2.037 2.298,0 3.893,-1.019 5.044,-3.248 0.766,-1.591 1.211,-3.883 1.211,-6.176 0,-2.864 -0.702,-5.73 -1.976,-7.322"
         style="fill:#000000;fill-opacity:1;fill-rule:nonzero;stroke:none"
         id="path4607"
         inkscape:connector-curvature="0" />
    </g>
    <g
       id="g4609"
       transform="matrix(1.25,0,0,-1.25,-276.97197,-17.53743)"
       style="stroke:none">
      <path
         d="m 0,0 c 0,1.979 -2.369,1.361 -2.439,2.298 -0.036,0.461 0.407,0.601 0.777,0.584 0.567,-0.018 0.742,-0.444 0.742,-0.444 l 0.709,0.214 c -0.249,0.618 -0.726,1.026 -1.433,1.026 -0.903,0 -1.574,-0.373 -1.574,-1.363 0,-0.831 0.671,-1.132 0.972,-1.255 0.655,-0.265 1.434,-0.372 1.434,-1.045 0,-0.423 -0.319,-0.741 -0.779,-0.741 -0.478,0 -0.868,0.266 -1.079,0.741 l -0.759,-0.281 c 0.335,-0.761 0.97,-1.277 1.838,-1.277 0.424,0 0.814,0.145 1.095,0.392 C -0.175,-0.867 0,-0.46 0,0 m 4.157,-0.426 -0.76,0.283 C 3.202,-0.55 2.953,-0.726 2.618,-0.726 c -0.354,0 -0.583,0.123 -0.761,0.389 -0.195,0.317 -0.318,0.867 -0.318,1.414 0,0.425 0.072,0.867 0.195,1.168 0.177,0.442 0.443,0.619 0.848,0.619 0.39,0 0.549,-0.105 0.832,-0.53 L 4.157,2.652 C 3.821,3.359 3.343,3.678 2.582,3.678 2.017,3.678 1.591,3.483 1.29,3.111 0.938,2.669 0.726,1.873 0.726,1.077 c 0,-0.636 0.141,-1.272 0.37,-1.715 0.32,-0.619 0.796,-0.905 1.54,-0.905 0.725,0 1.22,0.375 1.521,1.117 m 4.528,-1.025 0,5.041 -0.797,0 0,-2.035 -1.839,0 0,2.035 -0.796,0 0,-5.041 0.796,0 0,2.193 1.839,0 0,-2.193 0.797,0 z m 4.65,2.511 c 0,0.638 -0.124,1.274 -0.336,1.715 -0.317,0.619 -0.76,0.903 -1.396,0.903 -0.584,0 -0.991,-0.178 -1.29,-0.567 C 9.976,2.635 9.764,1.891 9.764,1.06 c 0,-0.601 0.141,-1.274 0.353,-1.698 0.3,-0.619 0.743,-0.905 1.451,-0.905 0.53,0 0.936,0.181 1.219,0.569 0.355,0.443 0.548,1.238 0.548,2.034 m -0.796,0 c 0,-0.389 -0.088,-0.884 -0.193,-1.149 -0.177,-0.442 -0.408,-0.637 -0.778,-0.637 -0.319,0 -0.531,0.123 -0.691,0.389 -0.194,0.317 -0.301,0.867 -0.301,1.397 0,0.424 0.072,0.884 0.195,1.185 0.178,0.442 0.425,0.637 0.814,0.619 0.3,-0.017 0.495,-0.125 0.654,-0.39 0.194,-0.336 0.3,-0.847 0.3,-1.414 m 5.359,0 c 0,0.638 -0.123,1.274 -0.334,1.715 -0.32,0.619 -0.762,0.903 -1.4,0.903 -0.582,0 -0.989,-0.178 -1.29,-0.567 -0.336,-0.476 -0.548,-1.22 -0.548,-2.051 0,-0.601 0.142,-1.274 0.354,-1.698 0.301,-0.619 0.742,-0.905 1.45,-0.905 0.531,0 0.937,0.181 1.221,0.569 0.352,0.443 0.547,1.238 0.547,2.034 m -0.796,0 c 0,-0.389 -0.088,-0.884 -0.194,-1.149 -0.177,-0.442 -0.407,-0.637 -0.778,-0.637 -0.318,0 -0.53,0.123 -0.69,0.389 -0.195,0.317 -0.299,0.867 -0.299,1.397 0,0.424 0.069,0.884 0.193,1.185 0.177,0.442 0.424,0.637 0.814,0.619 0.301,-0.017 0.495,-0.125 0.654,-0.39 0.196,-0.336 0.3,-0.847 0.3,-1.414 m 5.023,-2.511 0,0.742 -2.335,0 0,4.299 -0.796,0 0,-5.041 3.131,0 z"
         style="fill:#000000;fill-opacity:1;fill-rule:evenodd;stroke:none"
         id="path4611"
         inkscape:connector-curvature="0" />
    </g>
    <g
       id="g4613"
       transform="matrix(1.25,0,0,-1.25,-274.90321,-6.1811602)"
       style="stroke:none">
      <path
         d="m 0,0 c 0,0.55 -0.284,1.025 -0.725,1.255 -0.285,0.142 -0.727,0.284 -1.398,0.426 -0.62,0.14 -0.795,0.264 -0.795,0.547 0,0.319 0.3,0.513 0.812,0.513 0.479,0 0.886,-0.16 1.203,-0.495 l 0.673,0.601 c -0.515,0.53 -1.133,0.779 -1.876,0.779 -1.025,0 -1.732,-0.567 -1.732,-1.398 0,-0.318 0.105,-0.619 0.318,-0.848 0.211,-0.248 0.477,-0.371 0.99,-0.495 L -2.283,0.813 -2.051,0.76 -1.823,0.689 c 0.231,-0.052 0.425,-0.123 0.603,-0.194 0.21,-0.105 0.317,-0.266 0.317,-0.46 0,-0.372 -0.46,-0.653 -1.097,-0.653 -0.566,0 -0.972,0.194 -1.342,0.635 l -0.727,-0.564 c 0.567,-0.655 1.221,-0.977 2.088,-0.977 0.459,0 0.919,0.126 1.272,0.339 C -0.23,-0.902 0,-0.513 0,0 M 5.04,2.034 C 5.04,2.6 4.739,3.096 4.261,3.36 3.978,3.519 3.749,3.572 3.36,3.572 l -2.353,0 0,-5.041 0.92,0 0,1.983 1.433,0 c 0.389,0 0.618,0.036 0.901,0.194 0.478,0.266 0.779,0.796 0.779,1.326 m -0.903,0 c 0,-0.372 -0.3,-0.619 -0.743,-0.619 l -1.467,0 0,1.257 1.467,0 c 0.443,0 0.743,-0.249 0.743,-0.638 m 5.5,-3.503 0,0.902 -2.847,0 0,1.38 1.504,0 0,0.92 -1.504,0 0,0.939 2.758,0 0,0.9 -3.677,0 0,-5.041 3.766,0 z m 4.776,0 0,0.902 -2.847,0 0,1.38 1.503,0 0,0.92 -1.503,0 0,0.939 2.759,0 0,0.9 -3.68,0 0,-5.041 3.768,0 z m 5.041,2.529 c 0,0.991 -0.424,1.752 -1.204,2.194 -0.371,0.214 -0.777,0.318 -1.201,0.318 l -1.627,0 0,-5.041 1.627,0 c 0.406,0 0.83,0.107 1.185,0.301 0.796,0.443 1.22,1.221 1.22,2.228 m -0.904,0 c 0,-0.688 -0.246,-1.148 -0.776,-1.432 -0.213,-0.123 -0.462,-0.195 -0.725,-0.195 l -0.708,0 0,3.239 0.708,0 c 0.263,0 0.531,-0.072 0.761,-0.196 0.494,-0.283 0.74,-0.743 0.74,-1.416"
         style="fill:#000000;fill-opacity:1;fill-rule:evenodd;stroke:none"
         id="path4615"
         inkscape:connector-curvature="0" />
    </g>
    <g
       id="g4617"
       transform="matrix(1.25,0,0,-1.25,-272.05321,4.4726398)"
       style="stroke:none">
      <path
         d="m 0,0 0,0.778 -2.864,0 0,4.263 -0.902,0 L -3.766,0 0,0 z m 1.752,5.041 -0.902,0 0,-5.041 0.902,0 0,5.041 z M 7.766,0 l 0,5.041 -0.885,0 -1.486,-2.989 -1.468,2.989 -0.884,0 0,-5.041 0.884,0 0,3.077 L 5.395,0 6.881,3.077 6.881,0 7.766,0 z m 2.21,5.041 -0.902,0 0,-5.041 0.902,0 0,5.041 z m 4.616,-0.884 0,0.884 -3.785,0 0,-0.884 1.45,0 0,-4.157 0.885,0 0,4.157 1.45,0 z"
         style="fill:#000000;fill-opacity:1;fill-rule:evenodd;stroke:none"
         id="path4619"
         inkscape:connector-curvature="0" />
    </g>
  </g>
  <g
     inkscape:label="Calque 1"
     inkscape:groupmode="layer"
     id="layer1"
     transform="translate(328.34219,56.047183)" />
</svg>
