<?xml version="1.0" encoding="UTF-8" standalone="no"?>
<!-- Generator: Adobe Illustrator 12.0.1, SVG Export Plug-In  -->

<svg
   xmlns:dc="http://purl.org/dc/elements/1.1/"
   xmlns:cc="http://creativecommons.org/ns#"
   xmlns:rdf="http://www.w3.org/1999/02/22-rdf-syntax-ns#"
   xmlns:svg="http://www.w3.org/2000/svg"
   xmlns="http://www.w3.org/2000/svg"
   xmlns:sodipodi="http://sodipodi.sourceforge.net/DTD/sodipodi-0.dtd"
   xmlns:inkscape="http://www.inkscape.org/namespaces/inkscape"
   version="1.1"
   width="233.375"
   height="287.5"
   viewBox="-0.067 0 233.375 287.5"
   enable-background="new -0.067 0 234 288"
   xml:space="preserve"
   id="svg2"
   inkscape:version="0.48.2 r9819"
   sodipodi:docname="AJAX1.svg"><metadata
   id="metadata42"><rdf:RDF><cc:Work
       rdf:about=""><dc:format>image/svg+xml</dc:format><dc:type
         rdf:resource="http://purl.org/dc/dcmitype/StillImage" /></cc:Work></rdf:RDF></metadata><sodipodi:namedview
   pagecolor="#ffffff"
   bordercolor="#666666"
   borderopacity="1"
   objecttolerance="10"
   gridtolerance="10"
   guidetolerance="10"
   inkscape:pageopacity="0"
   inkscape:pageshadow="2"
   inkscape:window-width="1280"
   inkscape:window-height="1004"
   id="namedview40"
   showgrid="false"
   fit-margin-top="0"
   fit-margin-left="0"
   fit-margin-right="0"
   fit-margin-bottom="0"
   inkscape:zoom="2.3177389"
   inkscape:cx="75.792002"
   inkscape:cy="137.18401"
   inkscape:window-x="-8"
   inkscape:window-y="-8"
   inkscape:window-maximized="1"
   inkscape:current-layer="svg2" />
<defs
   id="defs4">
</defs>
<path
   d="m 19.74325,0.741 h 193.746 c 10.481,0 19.065,8.583 19.065,19.07 v 247.875 c 0,10.492 -8.584,19.067 -19.065,19.067 h -193.746 c -10.487,0 -19.065,-8.575 -19.065,-19.067 V 19.811 c 0,-10.487 8.578,-19.07 19.065,-19.07 z"
   id="path6"
   style="fill:#ffffff;stroke:#000000;stroke-width:1.5;stroke-miterlimit:4;stroke-opacity:1;stroke-dasharray:none"
   inkscape:connector-curvature="0" />

<path
   clip-rule="evenodd"
   d="m 20.76025,5.701 h 191.706 c 8.327,0 15.127,6.809 15.127,15.132 v 245.838 c 0,8.311 -6.8,15.127 -15.127,15.127 h -191.706 c -8.316,0 -15.127,-6.816 -15.127,-15.127 V 20.833 c 0,-8.323 6.811,-15.132 15.127,-15.132"
   id="path10"
   inkscape:connector-curvature="0"
   style="fill:#000000;fill-rule:evenodd;stroke:none" />
<path
   d="m 212.40825,11.49 h -191.585 c -5.186,0 -9.407,4.216 -9.407,9.401 v 245.726 c 0,5.186 4.221,9.406 9.407,9.406 h 191.585 c 5.186,0 9.407,-4.221 9.407,-9.406 V 20.891 c 0,-5.185 -4.221,-9.401 -9.407,-9.401 z"
   id="path12"
   inkscape:connector-curvature="0"
   style="fill:#ffffff;stroke:none" />
<path
   d="m 62.40625,67.884 v -39.57 h 28.88 V 35.4 h -21.676 v 7.323 h 11.813 v 7.265 h -11.813 v 10.808 h 22.384 v 7.087 h -29.588 z"
   id="path14"
   inkscape:connector-curvature="0"
   style="fill:#000000;stroke:none" />
<path
   d="m 124.24225,67.884 -18.841,-27.227 v 27.227 h -6.968 v -39.57 h 6.968 l 18.133,26.104 V 28.314 h 6.848 v 39.57 h -6.14 z"
   id="path16"
   inkscape:connector-curvature="0"
   style="fill:#000000;stroke:none" />
<path
   d="m 161.27025,65.522 c -2.773,1.535 -6.141,2.362 -9.328,2.362 h -12.757 v -39.57 h 12.757 c 3.366,0 6.555,0.826 9.448,2.48 6.141,3.484 9.449,9.45 9.449,17.245 0.001,7.916 -3.308,13.998 -9.569,17.483 z m -3.366,-28.585 c -1.772,-1.004 -3.838,-1.536 -5.962,-1.536 h -5.553 v 25.396 h 5.553 c 2.124,0 4.017,-0.531 5.726,-1.535 4.137,-2.185 6.082,-5.789 6.082,-11.222 0,-5.316 -1.945,-8.918 -5.846,-11.103 z"
   id="path18"
   inkscape:connector-curvature="0"
   style="fill:#000000;stroke:none" />
<path
   d="m 87.15925,210.553 v -17.568 l -8.46,17.568 -8.376,-17.568 v 17.568 h -5.07 v -28.778 h 5.07 l 8.376,17.052 8.46,-17.052 h 5.067 v 28.778 h -5.067 z"
   id="path20"
   inkscape:connector-curvature="0"
   style="fill:#000000;stroke:none" />
<path
   d="m 126.89325,198.139 c -1.634,0.902 -2.965,1.117 -5.154,1.117 h -8.206 v 11.297 h -5.24 v -28.778 h 13.446 c 2.189,0 3.521,0.299 5.154,1.201 2.705,1.505 4.423,4.341 4.423,7.603 -0.001,3.009 -1.718,6.055 -4.423,7.56 z m -4.985,-11.21 h -8.376 v 7.173 h 8.376 c 2.535,0 4.253,-1.416 4.253,-3.523 0,-2.234 -1.718,-3.65 -4.253,-3.65 z"
   id="path22"
   inkscape:connector-curvature="0"
   style="fill:#000000;stroke:none" />
<path
   d="m 162.84125,210.553 v -12.542 h -12.93 v 12.542 h -5.154 v -28.778 h 5.154 v 11.124 h 12.93 v -11.124 h 5.154 v 28.778 h -5.154 z"
   id="path24"
   inkscape:connector-curvature="0"
   style="fill:#000000;stroke:none" />
<path
   d="M 61.90125,258.007 V 229.23 h 5.154 v 24.353 h 16.367 v 4.425 h -21.521 z"
   id="path26"
   inkscape:connector-curvature="0"
   style="fill:#000000;stroke:none" />
<path
   d="M 89.43425,258.007 V 229.23 h 5.154 v 28.777 h -5.154 z"
   id="path28"
   inkscape:connector-curvature="0"
   style="fill:#000000;stroke:none" />
<path
   d="M 125.04225,258.007 V 240.44 l -8.46,17.567 -8.376,-17.567 v 17.567 h -5.07 V 229.23 h 5.07 l 8.376,17.051 8.46,-17.051 h 5.067 v 28.777 h -5.067 z"
   id="path30"
   inkscape:connector-curvature="0"
   style="fill:#000000;stroke:none" />
<path
   d="M 138.65825,258.007 V 229.23 h 5.154 v 28.777 h -5.154 z"
   id="path32"
   inkscape:connector-curvature="0"
   style="fill:#000000;stroke:none" />
<path
   d="m 163.05625,234.297 v 23.71 h -5.025 v -23.71 h -8.29 v -5.067 h 21.605 v 5.067 h -8.29 z"
   id="path34"
   inkscape:connector-curvature="0"
   style="fill:#000000;stroke:none" />
<path
   d="m 78.68625,162.204 c -9.205,0 -18.41,-3.141 -25.029,-9.313 -1.909,-1.573 -3.146,-2.808 -5.838,-6.062 l 10.777,-8.079 c 5.274,6.845 12.232,9.763 20.876,9.763 9.202,0 15.602,-4.266 15.602,-10.663 0,-3.594 -2.357,-7.857 -5.836,-9.768 -2.131,-1.007 -4.488,-1.57 -7.409,-1.57 h -3.704 v -13.468 h 3.256 c 5.726,0 9.989,-3.141 9.989,-7.296 0,-4.488 -5.275,-7.967 -13.245,-7.967 -6.287,0 -12.123,2.692 -16.614,7.406 l -9.986,-9.202 c 7.406,-7.631 16.611,-11.671 27.386,-11.671 15.041,0 26.151,8.974 26.151,21.096 0,5.052 -1.57,8.531 -6.059,14.257 7.409,6.622 9.54,10.552 9.54,17.735 0,13.916 -12.909,24.802 -29.857,24.802 z"
   id="path36"
   inkscape:connector-curvature="0"
   style="fill:#000000;stroke:none" />
<path
   d="m 153.77525,162.204 c -10.327,0 -19.532,-2.692 -29.069,-8.416 l 7.068,-11.449 c 6.625,4.045 14.256,6.174 22.001,6.174 11.336,0 18.181,-5.052 18.181,-13.468 0,-4.04 -1.908,-7.97 -4.711,-10.329 -2.695,-2.131 -6.622,-3.141 -12.235,-3.141 -4.937,0 -8.979,0.784 -14.479,2.918 l -13.47,-3.482 2.356,-35.353 h 49.948 v 13.245 h -37.262 l -0.789,10.775 c 6.066,-1.347 9.766,-1.908 14.481,-1.908 17.175,0 29.636,11.671 29.636,27.275 0.001,15.825 -13.246,27.159 -31.656,27.159 z"
   id="path38"
   inkscape:connector-curvature="0"
   style="fill:#000000;stroke:none" />
</svg>