<?xml version="1.0" encoding="UTF-8" standalone="no"?>
<!-- Generator: Adobe Illustrator 14.0.0, SVG Export Plug-In  -->

<svg
   xmlns:dc="http://purl.org/dc/elements/1.1/"
   xmlns:cc="http://creativecommons.org/ns#"
   xmlns:rdf="http://www.w3.org/1999/02/22-rdf-syntax-ns#"
   xmlns:svg="http://www.w3.org/2000/svg"
   xmlns="http://www.w3.org/2000/svg"
   xmlns:sodipodi="http://sodipodi.sourceforge.net/DTD/sodipodi-0.dtd"
   xmlns:inkscape="http://www.inkscape.org/namespaces/inkscape"
   version="1.1"
   x="0px"
   y="0px"
   width="90.687485"
   height="113.21873"
   viewBox="0 -0.321 90.687488 113.21875"
   enable-background="new 0 -0.321 144 120"
   xml:space="preserve"
   id="svg2"
   inkscape:version="0.48.2 r9819"
   sodipodi:docname="Minimum_Speed_30.svg"><metadata
   id="metadata44"><rdf:RDF><cc:Work
       rdf:about=""><dc:format>image/svg+xml</dc:format><dc:type
         rdf:resource="http://purl.org/dc/dcmitype/StillImage" /><dc:title></dc:title></cc:Work></rdf:RDF></metadata><sodipodi:namedview
   pagecolor="#ffffff"
   bordercolor="#666666"
   borderopacity="1"
   objecttolerance="10"
   gridtolerance="10"
   guidetolerance="10"
   inkscape:pageopacity="0"
   inkscape:pageshadow="2"
   inkscape:window-width="1280"
   inkscape:window-height="962"
   id="namedview42"
   showgrid="false"
   fit-margin-top="0"
   fit-margin-left="0"
   fit-margin-right="0"
   fit-margin-bottom="0"
   inkscape:zoom="2.3202007"
   inkscape:cx="45.343742"
   inkscape:cy="56.609364"
   inkscape:window-x="-8"
   inkscape:window-y="-8"
   inkscape:window-maximized="1"
   inkscape:current-layer="svg2" />
<defs
   id="defs4">
</defs>


















<path
   inkscape:connector-curvature="0"
   d="m 5.963905,112.53945 78.748758,0 c 1.48625,0 2.93,-0.58875 3.98375,-1.64125 1.05,-1.04875 1.64625,-2.4975 1.64625,-3.98375 l 0,-101.24752 c 0,-1.48625 -0.59625,-2.92875 -1.64625,-3.98375 -1.05375,-1.05 -2.4975,-1.64375 -3.98375,-1.64375 l -78.748758,0 c -1.4875,0 -2.9325,0.59375 -3.985,1.64375 -1.04875016,1.055 -1.64000016,2.4975 -1.64000016,3.98375 l 0,101.24752 c 0,1.93375 1.01000016,3.755 2.64375016,4.795 0.9225,0.58875 1.90875,0.7275 2.98125,0.83"
   style="fill:#ffffff;fill-opacity:1;fill-rule:nonzero;stroke:#000000;stroke-width:0.70000011;stroke-miterlimit:4;stroke-opacity:1;stroke-dasharray:none"
   id="path6456" /><path
   inkscape:connector-curvature="0"
   d="m 1.908895,106.91445 0,-101.24502 c 0,-1.06125 0.43875,-2.11875 1.18375,-2.87 0.755,-0.75 1.80875,-1.185 2.87125,-1.185 l 78.746258,0 c 1.06,0 2.11875,0.435 2.86875,1.185 0.75125,0.75125 1.18625,1.80875 1.18625,2.87 l 0,101.24502 c 0,1.0625 -0.435,2.11875 -1.18625,2.87125 -0.75,0.745 -1.80875,1.18375 -2.86875,1.18375 l -78.746258,0 c -1.0625,0 -2.11625,-0.43875 -2.87125,-1.18375 -0.745,-0.7525 -1.18375,-1.80875 -1.18375,-2.87125"
   style="fill:#000000;fill-opacity:1;fill-rule:evenodd;stroke:none"
   id="path6464" /><path
   inkscape:connector-curvature="0"
   d="m 4.117655,106.91195 c 0,0.495 0.19125,0.9625 0.5375,1.31125 0.35125,0.34625 0.8175,0.53875 1.31125,0.53875 l 78.746258,0 c 0.49,0 0.95875,-0.1925 1.30875,-0.53875 0.34875,-0.34875 0.53875,-0.81625 0.53875,-1.31125 l 0,-101.24377 c 0,-0.49375 -0.19,-0.9575 -0.53875,-1.30625 -0.35,-0.35 -0.81875,-0.54 -1.30875,-0.54 l -78.746258,0 c -0.49375,0 -0.96,0.19 -1.31125,0.54 -0.34625,0.34875 -0.5375,0.8125 -0.5375,1.30625 l 0,101.24377 z"
   style="fill:#ffffff;fill-opacity:1;fill-rule:evenodd;stroke:none"
   id="path6468" /><path
   inkscape:connector-curvature="0"
   d="m 77.510163,17.66132 -2.725,8.4025 -2.78,-8.46875 0,8.46875 -2.0975,0 0,-14.99625 2.185,0 2.67375,8.15625 2.65625,-8.15625 2.205,0 0,14.99625 -2.1175,0 0,-8.4025 z"
   style="fill:#000000;fill-opacity:1;fill-rule:evenodd;stroke:none"
   id="path6488" /><path
   inkscape:connector-curvature="0"
   d="m 18.430153,17.66132 -2.73,8.4025 -2.77625,-8.46875 0,8.46875 -2.09875,0 0,-14.99625 2.1875,0 2.6725,8.15625 2.65375,-8.15625 2.2075,0 0,14.99625 -2.11625,0 0,-8.4025 z"
   style="fill:#000000;fill-opacity:1;fill-rule:evenodd;stroke:none"
   id="path6492" /><path
   inkscape:connector-curvature="0"
   d="m 53.255153,17.66132 -2.73,8.4025 -2.775,-8.46875 0,8.46875 -2.1025,0 0,-14.99625 2.1875,0 2.67625,8.15625 2.65625,-8.15625 2.20375,0 0,14.99625 -2.11625,0 0,-8.4025 z"
   style="fill:#000000;fill-opacity:1;fill-rule:evenodd;stroke:none"
   id="path6496" /><path
   inkscape:connector-curvature="0"
   d="m 28.993893,26.06431 0,-14.9975 2.1725,0 3.91125,8.73375 0.0175,-8.73375 2.10375,0 0,14.9975 -1.635,0 -4.46875,-9.94875 0,9.94875 -2.10125,0 z"
   style="fill:#000000;fill-opacity:1;fill-rule:evenodd;stroke:none"
   id="path6500" /><path
   inkscape:connector-curvature="0"
   d="m 66.738893,22.21469 c 0,1.6375 -1.01375,3.14875 -2.52,3.785 -0.99375,0.4175 -2.1425,0.4175 -3.13375,0 -1.53125,-0.645 -2.515,-2.1275 -2.515,-3.785 l 0,-11.1475 2.095,0 0,11.1475 c 0,0.65875 0.34375,1.28625 0.89125,1.6525 0.65875,0.435 1.5425,0.43 2.19625,-0.005 0.55,-0.36625 0.87625,-0.99375 0.87625,-1.6475 l 0,-11.1475 2.11,0 0,11.1475 z"
   style="fill:#000000;fill-opacity:1;fill-rule:evenodd;stroke:none"
   id="path6504" /><path
   inkscape:connector-curvature="0"
   d="m 23.710023,11.06769 2.11875,0 0,14.9975 -2.11875,0 0,-14.9975 z"
   style="fill:#000000;fill-opacity:1;fill-rule:evenodd;stroke:none"
   id="path6506" /><path
   inkscape:connector-curvature="0"
   d="m 40.365023,11.06769 2.11875,0 0,14.9975 -2.11875,0 0,-14.9975 z"
   style="fill:#000000;fill-opacity:1;fill-rule:evenodd;stroke:none"
   id="path6508" /><path
   inkscape:connector-curvature="0"
   d="m 68.455153,46.13319 c 0,1.1575 -0.105,2.21 -0.21,3.15625 -0.2125,1.1575 -0.89626,2.15875 -2.15751,2.15875 l -1.7875,0 0,-10.78375 1.7875,0 c 0.94625,0 1.57875,0.47375 1.94501,1.52375 0.26375,0.6325 0.4225,2.2625 0.4225,3.945 m 2.105,-0.105 c 0,-1.1575 -0.15875,-2.47125 -0.36875,-3.57625 -0.26375,-1.52625 -0.89375,-2.68375 -1.79,-3.31375 -0.525,-0.4225 -1.15751,-0.57875 -2.41876,-0.57875 l -3.84125,0 0,14.99125 4.155,0 c 0.8425,0 1.58001,-0.21 2.10501,-0.68375 1.475,-1.1575 2.15875,-3.3675 2.15875,-6.83875 m -11.14501,7.5225 0,-2.1025 -5.47125,0 0,-4.94625 3.105,0 0,-2.05125 -3.105,0 0,-3.78625 4.8925,0 0,-2.105 -7.04875,0 0,14.99125 7.6275,0 z m -10.355,0 0,-2.1025 -5.47125,0 0,-4.94625 3.10375,0 0,-2.05125 -3.10375,0 0,-3.78625 4.89375,0 0,-2.105 -7.05125,0 0,14.99125 7.62875,0 z m -11.985,-10.78375 c 0,1.36875 -0.68625,2.1575 -1.94875,2.1575 l -2.21,0 0,-4.26 2.21,0 c 1.1575,0 1.94875,0.84 1.94875,2.1025 m 2.10125,0 c 0,-2.525 -1.5775,-4.2075 -3.945,-4.2075 l -4.47,0 0,14.99125 2.155,0 0,-6.575 2.315,0 c 2.52625,0 3.945,-1.4725 3.945,-4.20875 m -11.1425,6.68125 c 0,-2.1575 -1.2625,-3.78625 -4.155,-5.47125 -1.10625,-0.63 -1.42125,-1.05125 -1.42125,-1.78875 0,-0.99875 0.78875,-1.73625 1.79,-1.73625 0.945,0 1.6825,0.68625 1.73625,1.73625 l 2.05,0 c -0.0537,-2.26125 -1.685,-3.8925 -3.78625,-3.8925 -2.15875,0 -3.84,1.73625 -3.84,3.8925 0,1.315 0.62875,2.4725 1.84,3.315 3.05,2.05125 2.21,1.4725 2.525,1.7875 0.89375,0.68625 1.21125,1.315 1.21125,2.1575 0,1.20875 -0.9475,2.26125 -2.105,2.26125 -1.475,0 -2.105,-1.31375 -2.105,-2.57625 l -2.10375,0 c 0,2.47125 1.57625,4.69 4.20875,4.69 2.31375,0 4.155,-1.955 4.155,-4.375"
   style="fill:#000000;fill-opacity:1;fill-rule:evenodd;stroke:none"
   id="path6512" /><g
   style="font-size:52.00001144px;font-style:normal;font-variant:normal;font-weight:normal;font-stretch:normal;line-height:125%;letter-spacing:0px;word-spacing:0px;fill:#000000;fill-opacity:1;stroke:none;font-family:Roadgeek 2005 Series D;-inkscape-font-specification:Roadgeek 2005 Series D"
   id="text3079"><path
     d="m 40.207584,89.337964 c 0.02381,-1.671549 -0.205858,-3.073363 -0.688993,-4.205447 -0.483185,-1.132052 -1.36284,-2.26087 -2.638965,-3.386457 0.742049,-1.0638 1.259876,-2.030121 1.55348,-2.898964 0.293554,-0.868799 0.434386,-1.809119 0.422495,-2.820963 -0.07694,-3.014851 -1.119094,-5.525983 -3.126462,-7.533405 -2.007412,-2.007358 -4.518544,-3.04951 -7.533403,-3.12646 -2.292318,0.02062 -4.337623,0.655443 -6.135923,1.904477 -1.798316,1.2491 -3.167631,2.988909 -4.107948,5.219432 l 5.147935,1.923976 c 0.595816,-1.143958 1.328139,-2.001946 2.196972,-2.573968 0.868811,-0.571964 1.88713,-0.85796 3.054962,-0.857989 1.436464,0.02603 2.619448,0.468023 3.548954,1.325983 0.929469,0.858017 1.410463,1.976002 1.442982,3.353958 -0.0033,1.09851 -0.295764,1.943498 -0.877488,2.534968 -0.581761,0.591515 -1.43325,0.890511 -2.554468,0.896989 l -1.195985,0 -0.155998,0 0,-0.155998 0,5.615929 c 0.133233,1.6e-5 0.256731,1.6e-5 0.370495,0 0.113733,1.6e-5 0.198232,1.6e-5 0.253497,0 1.232801,0.06285 2.043123,0.132181 2.430969,0.207997 0.387811,0.07585 0.756139,0.249179 1.104986,0.519993 0.628307,0.457176 1.113634,1.076834 1.455982,1.858977 0.342307,0.78217 0.515638,1.635825 0.519993,2.560968 -0.02927,1.802653 -0.607762,3.267299 -1.735478,4.393943 -1.127754,1.126658 -2.629234,1.707317 -4.504443,1.741979 -1.649909,-0.0076 -3.030057,-0.460406 -4.140449,-1.358484 -1.110412,-0.898066 -1.879568,-2.195881 -2.307469,-3.89345 l -5.407932,1.559981 c 0.769153,2.844803 2.1818,5.098105 4.237946,6.759914 2.056131,1.661817 4.508765,2.511137 7.357908,2.547967 3.617186,-0.0628 6.509646,-1.19815 8.677389,-3.405957 2.167698,-2.2078 3.279183,-5.111094 3.334459,-8.709889 z"
     style=""
     id="path3090" /></g><g
   transform="translate(12.293731,0.72716892)"
   style="font-size:52.00001144px;font-style:normal;font-variant:normal;font-weight:normal;font-stretch:normal;line-height:125%;letter-spacing:0px;word-spacing:0px;fill:#000000;fill-opacity:1;stroke:none;font-family:Roadgeek 2005 Series D;-inkscape-font-specification:Roadgeek 2005 Series D"
   id="text3006"><path
     inkscape:connector-curvature="0"
     d="m 57.746745,87.126713 c -0.08669,-3.26511 -1.226344,-6.016739 -3.418957,-8.254896 -2.19266,-2.238115 -4.91829,-3.403766 -8.176896,-3.496955 -0.816838,-0.0043 -1.61416,0.06936 -2.39197,0.220997 -0.777836,0.151689 -1.783156,0.407352 -3.015962,0.76699 l 0.363995,-5.719927 14.663815,0 0,-5.511931 -20.019747,0 0,17.991773 4.627942,1.55998 c 0.991227,-1.425632 1.881714,-2.396285 2.671465,-2.911963 0.789727,-0.515642 1.771213,-0.758305 2.944464,-0.727991 1.761461,0.03902 3.23044,0.624012 4.406944,1.754979 1.176464,1.131001 1.787455,2.573981 1.832977,4.328944 -0.05744,2.306399 -0.917593,4.180539 -2.580468,5.622429 -1.662913,1.441903 -3.784051,2.18506 -6.363419,2.229472 -1.296745,-0.0065 -2.525228,-0.123493 -3.685454,-0.350996 -1.160244,-0.227492 -2.11573,-0.526488 -2.866463,-0.896988 l -2.703966,4.887938 c 1.236063,0.628327 2.585878,1.113653 4.049449,1.455982 1.463556,0.34233 2.956369,0.51566 4.478443,0.51999 4.500094,-0.0802 8.135711,-1.362812 10.906862,-3.847949 2.771106,-2.48513 4.196753,-5.691753 4.276946,-9.619878 z"
     id="path3779" /></g></svg>