<svg xmlns="http://www.w3.org/2000/svg" width="513" height="512" viewBox="0 0 513 512">
  <g fill="none" fill-rule="evenodd">
    <ellipse cx="256.5" cy="256" fill="#FFF" rx="256.5" ry="256"/>
    <path fill="#D81E00" d="M256.5,512 C114.838962,512 0,397.384896 0,256 C0,114.615104 114.838962,0 256.5,0 C398.161038,0 513,114.615104 513,256 C513,397.384896 398.161038,512 256.5,512 Z M256.5,458 C368.279413,458 458.894531,367.561519 458.894531,256 C458.894531,144.438481 368.279413,54 256.5,54 C144.720587,54 54.1054688,144.438481 54.1054688,256 C54.1054688,367.561519 144.720587,458 256.5,458 Z"/>
    <path fill="#000" fill-rule="nonzero" d="M116,295.238281 L153.578125,295.238281 C155.609375,306.537109 167.416016,313.519531 180.746094,313.519531 C195.980469,313.519531 208.675781,302.474609 208.675781,284.701172 C208.675781,268.197266 196.488281,257.152344 181,257.152344 C167.289062,257.152344 159.291016,265.404297 156.244141,271.117188 L119.554688,271.117188 L126.410156,169.046875 L238.128906,169.046875 L238.128906,201.800781 L159.037109,201.800781 L155.736328,241.410156 L157.767578,241.410156 C161.195312,235.824219 172.875,226.556641 192.679688,226.556641 C222.259766,226.556641 248.539062,246.361328 248.539062,283.304688 C248.539062,321.390625 220.863281,345.511719 180.492188,345.511719 C141.517578,345.511719 116.761719,323.421875 116,295.238281 Z M259.833984,259.818359 L259.833984,251.3125 C259.833984,199.642578 286.240234,166 328.896484,166 C371.552734,166 397.070312,198.880859 397.070312,251.3125 L397.070312,259.818359 C397.070312,311.361328 370.283203,345.511719 328.007812,345.511719 C285.732422,345.511719 259.833984,312.123047 259.833984,259.818359 Z M301.601562,251.439453 L301.601562,259.691406 C301.601562,292.826172 311.630859,312.25 328.388672,312.25 C345.146484,312.25 355.302734,292.699219 355.302734,259.691406 L355.302734,251.439453 C355.302734,218.558594 345.273438,199.261719 328.388672,199.261719 C311.630859,199.261719 301.601562,218.431641 301.601562,251.439453 Z"/>
  </g>
</svg>
