<svg xmlns="http://www.w3.org/2000/svg" width="513" height="512" viewBox="0 0 513 512">
  <g fill="none" fill-rule="evenodd">
    <circle cx="256" cy="256" r="256" fill="#FFF"/>
    <path fill="#D81E00" d="M257,512 C115.615104,512 1,397.384896 1,256 C1,114.615104 115.615104,0 257,0 C398.384896,0 513,114.615104 513,256 C513,397.384896 398.384896,512 257,512 Z M257,467 C373.532082,467 468,372.532082 468,256 C468,139.467918 373.532082,45 257,45 C140.467918,45 46,139.467918 46,256 C46,372.532082 140.467918,467 257,467 Z"/>
    <g fill="#000" fill-rule="nonzero" transform="translate(97 138)">
      <path d="M276.833 91L267.488 91 259.745 69.195 255.117 76.582 255.117 91 246.573 91 246.573 30.569 255.117 26.119 255.117 54.154C255.117 57.7733514 255.057667 61.1256512 254.939 64.211 255.59167 62.8463265 256.867324 60.4433505 258.766 57.002L265.797 44.275 275.498 44.275 265.441 60.473 276.833 91zM333.615 91L325.071 91 325.071 62.253C325.071 58.7523158 324.952335 56.438339 324.715 55.311 324.06233 52.7003203 322.549345 51.395 320.176 51.395 317.268652 51.395 314.954675 52.8189858 313.234 55.667L313.234 91 304.69 91 304.69 62.253C304.69 58.7523158 304.571335 56.438339 304.334 55.311 303.68133 52.7003203 302.168345 51.395 299.795 51.395 296.887652 51.395 294.573675 52.8189858 292.853 55.667L292.853 91 284.309 91 284.309 44.275 292.853 44.275 292.853 47.479C295.048344 44.6903194 297.955649 43.296 301.575 43.296 305.965689 43.296 309.110324 44.9573167 311.009 48.28 313.916348 44.9573167 317.565311 43.296 321.956 43.296 326.465356 43.296 329.580325 44.8089849 331.301 47.835 332.843674 50.564347 333.615 55.1923007 333.615 61.719L333.615 91zM111.354 213L.126 213C1.72067464 182.701182 7.10262082 158.681755 16.272 140.941 24.2453732 125.791591 38.2982327 109.944749 58.431 93.4 72.5837374 81.8386089 79.66 69.7790628 79.66 57.221 79.66 38.8822416 71.188418 29.713 54.245 29.713 43.4809462 29.713 31.8200628 35.4936089 19.262 47.055L1.023 25.826C17.5677494 8.88258195 35.9062327.411 56.039.411 73.1817524.411 86.3874537 5.19495216 95.6565 14.763 104.925546 24.3310478 109.56 37.1879193 109.56 53.334 109.56 65.8920628 106.968693 76.705788 101.786 85.7755 96.6033074 94.845212 87.6333971 104.662281 74.876 115.227 62.1186029 125.791719 52.9493612 135.459289 47.368 144.23 40.1919641 154.994054 35.6073433 168.149922 33.614 183.698L111.354 183.698 111.354 213zM234.369 141.838C234.369 165.359451 228.987054 183.498603 218.223 196.256 206.860943 209.6114 190.416108 216.289 168.888 216.289 148.755233 216.289 131.413406 208.714409 116.862 193.565L133.307 171.439C144.868391 182.402388 157.226934 187.884 170.383 187.884 193.705117 187.884 205.366 172.93415 205.366 143.034 205.366 130.874606 202.974024 121.10737 198.19 113.732 192.807973 105.758627 185.333048 101.772 175.765 101.772 164.203609 101.772 155.134033 106.755284 148.556 116.722L123.44 111.938 128.822 3.7 227.791 3.7 227.791 32.404 155.732 32.404 153.041 81.141C161.213708 75.9583074 170.183618 73.367 179.951 73.367 197.293087 73.367 210.698119 79.4466059 220.1665 91.606 229.634881 103.765394 234.369 120.509227 234.369 141.838z"/>
    </g>
  </g>
</svg>
