<?xml version="1.0" encoding="UTF-8" standalone="no"?>
<!-- Created with Inkscape (http://www.inkscape.org/) -->
<svg
   xmlns:dc="http://purl.org/dc/elements/1.1/"
   xmlns:cc="http://web.resource.org/cc/"
   xmlns:rdf="http://www.w3.org/1999/02/22-rdf-syntax-ns#"
   xmlns:svg="http://www.w3.org/2000/svg"
   xmlns="http://www.w3.org/2000/svg"
   xmlns:sodipodi="http://sodipodi.sourceforge.net/DTD/sodipodi-0.dtd"
   xmlns:inkscape="http://www.inkscape.org/namespaces/inkscape"
   width="601"
   height="601"
   id="svg2"
   sodipodi:version="0.32"
   inkscape:version="0.44"
   version="1.0"
   sodipodi:docbase="C:\Documents and Settings\ltljltlj\Desktop\Signs\Speed Limit Signs"
   sodipodi:docname="Night Speed 20 sign (Outline).svg">
  <defs
     id="defs4" />
  <sodipodi:namedview
     id="base"
     pagecolor="#ffffff"
     bordercolor="#666666"
     borderopacity="1.0"
     gridtolerance="10000"
     guidetolerance="10"
     objecttolerance="10"
     inkscape:pageopacity="0.0"
     inkscape:pageshadow="2"
     inkscape:zoom="1.2866667"
     inkscape:cx="300.00001"
     inkscape:cy="300.00001"
     inkscape:document-units="px"
     inkscape:current-layer="layer1"
     width="601px"
     height="601px"
     inkscape:window-width="1280"
     inkscape:window-height="968"
     inkscape:window-x="-4"
     inkscape:window-y="-4" />
  <metadata
     id="metadata7">
    <rdf:RDF>
      <cc:Work
         rdf:about="">
        <dc:format>image/svg+xml</dc:format>
        <dc:type
           rdf:resource="http://purl.org/dc/dcmitype/StillImage" />
      </cc:Work>
    </rdf:RDF>
  </metadata>
  <g
     inkscape:label="Layer 1"
     inkscape:groupmode="layer"
     id="layer1">
    <path
       style="color:black;fill:white;fill-opacity:1;fill-rule:nonzero;stroke:black;stroke-width:1;stroke-linecap:butt;stroke-linejoin:miter;stroke-miterlimit:4;stroke-dashoffset:0;stroke-opacity:1;marker:none;marker-start:none;marker-mid:none;marker-end:none;visibility:visible;display:inline;overflow:visible"
       d="M 38,0.5 L 563,0.5 C 583.775,0.5 600.5,17.225 600.5,38 L 600.5,563 C 600.5,583.775 583.775,600.5 563,600.5 L 38,600.5 C 17.225,600.5 0.5,583.775 0.5,563 L 0.5,38 C 0.5,17.225 17.225,0.5 38,0.5 z "
       id="rect1872" />
    <path
       style="color:black;fill:black;fill-opacity:1;fill-rule:nonzero;stroke:none;stroke-width:0.8735441;stroke-linecap:butt;stroke-linejoin:miter;stroke-miterlimit:4;stroke-dashoffset:0;stroke-opacity:1;marker:none;marker-start:none;marker-mid:none;marker-end:none;visibility:visible;display:inline;overflow:visible"
       d="M 38,13 L 563,13 C 576.85,13 588,24.15 588,38 L 588,563 C 588,576.85 576.85,588 563,588 L 38,588 C 24.15,588 13,576.85 13,563 L 13,38 C 13,24.15 24.15,13 38,13 z "
       id="rect2760" />
    <path
       style="font-size:373.12701416px;font-style:normal;font-variant:normal;font-weight:normal;font-stretch:normal;text-align:center;line-height:125%;writing-mode:lr-tb;text-anchor:middle;fill:white;fill-opacity:1;font-family:Roadgeek 2005 Series E"
       d="M 69.76649,500.5 C 69.766473,485.57554 71.320788,472.2054 74.429439,460.38953 C 77.538047,448.57374 82.702016,436.44857 89.921361,424.01397 C 101.11087,405.60519 114.6651,390.61621 130.5841,379.04697 C 146.50294,367.47798 166.03151,358.5848 189.16987,352.36739 C 203.35024,348.38971 213.17526,343.97538 218.64494,339.12439 C 224.11429,334.27372 226.84905,328.11719 226.84923,320.65478 C 226.84905,311.44674 222.62071,304.29385 214.16419,299.19611 C 205.70734,294.09876 193.51953,291.54999 177.60074,291.54978 C 161.18068,291.54999 146.87681,293.72679 134.68909,298.08019 C 122.5012,302.43399 111.05925,309.33636 100.36318,318.78733 L 69.76649,284.83149 C 99.364877,258.96062 134.44039,246.02508 174.99314,246.02483 C 189.66696,246.02508 202.97448,247.76728 214.91572,251.25143 C 226.85665,254.73608 236.9929,259.71216 245.32453,266.1797 C 253.65576,272.6477 260.12354,280.4819 264.72786,289.68233 C 269.33176,298.88317 271.63382,309.20731 271.63404,320.65478 C 271.63382,331.10057 269.45702,340.98821 265.10363,350.31774 C 260.74982,359.64758 254.46613,367.91828 246.25256,375.12987 C 242.02402,378.11337 236.98721,381.09864 231.1421,384.08569 C 225.29664,387.07298 218.02039,389.93299 209.31335,392.66575 C 200.85651,395.15579 193.83078,397.33259 188.23614,399.19615 C 182.64123,401.05991 177.72967,402.9881 173.50145,404.98071 C 169.27298,406.97352 165.47924,409.15032 162.12021,411.51112 C 158.76096,413.8721 155.21393,416.66948 151.47912,419.90329 C 145.76279,424.87566 140.85123,429.9751 136.74443,435.20163 C 132.63746,440.4283 128.46985,447.26994 124.24158,455.72658 L 271.63404,455.72658 L 271.63404,500.5 L 69.76649,500.5 z M 531.23333,374.01395 C 531.23309,390.18351 529.3068,406.04169 525.45446,421.58856 C 521.60165,437.13558 515.50775,451.12631 507.17274,463.56079 C 498.8373,475.99535 488.07856,486.00635 474.89648,493.59383 C 461.71404,501.18132 445.66797,504.97506 426.75822,504.97506 C 408.10631,504.97506 392.12666,501.30657 378.81924,493.96959 C 365.51163,486.63263 354.62763,476.87024 346.16721,464.6824 C 337.70667,452.49464 331.48751,438.62726 327.50972,423.08024 C 323.53185,407.53338 321.54293,391.54994 321.54296,375.12987 C 321.54293,358.71005 323.59448,342.72661 327.6976,327.1795 C 331.80065,311.63273 338.14317,297.89061 346.72517,285.95311 C 355.30705,274.01603 366.19105,264.377 379.3772,257.03599 C 392.56316,249.69546 408.35682,246.02508 426.75822,246.02483 C 445.41745,246.02508 461.33827,249.75619 474.52071,257.21818 C 487.70279,264.68065 498.52416,274.44494 506.98486,286.51107 C 515.44512,298.57762 521.60165,312.25901 525.45446,327.55526 C 529.3068,342.85187 531.23309,358.33808 531.23333,374.01395 L 531.23333,374.01395 z M 486.45991,375.12987 C 486.45972,348.76548 481.23691,328.11909 470.79149,313.19065 C 460.34571,298.26258 445.66797,290.79846 426.75822,290.79825 C 415.56854,290.79846 406.11739,293.41175 398.40476,298.63815 C 390.69191,303.86495 384.47275,310.5206 379.74727,318.60514 C 375.02161,326.69003 371.60174,335.64395 369.48765,345.46691 C 367.37339,355.29018 366.31631,364.80585 366.31638,374.01395 C 366.31631,401.87408 371.66436,423.20368 382.36057,438.00282 C 393.05659,452.80208 407.8558,460.20169 426.75822,460.20164 C 435.96631,460.20169 444.23891,458.15014 451.57604,454.04701 C 458.91285,449.94397 465.19274,444.09868 470.41572,436.51113 C 475.63834,428.92371 479.61807,419.84454 482.35492,409.27359 C 485.09139,398.70282 486.45972,386.94962 486.45991,374.01395 L 486.45991,375.12987 z "
       id="text2784" />
    <g
       id="g2838"
       transform="matrix(1.024272,0,0,1,-561.6895,0.5)"
       style="fill:white;fill-opacity:1">
      <path
         id="text2802"
         d="M 704.31489,175.00049 L 662.22883,123.17177 L 662.22883,175.00049 L 648.01112,175.00049 L 648.01112,100.00052 L 662.00337,100.00052 L 704.09285,152.38948 L 704.09285,100.00052 L 718.53261,100.00052 L 718.53261,175.00049 L 704.31489,175.00049 z "
         style="font-size:111.93800354px;font-style:normal;font-variant:normal;font-weight:normal;font-stretch:normal;text-align:center;line-height:125%;writing-mode:lr-tb;text-anchor:middle;fill:white;fill-opacity:1;font-family:Roadgeek 2005 Series F" />
      <path
         id="text2808"
         d="M 750.16701,175.00049 L 750.16701,100.00052 L 764.38472,100.00052 C 764.45757,114.03155 764.49401,126.5321 764.49403,137.50221 C 764.49401,142.20277 764.49401,146.79169 764.49403,151.269 C 764.49401,155.74636 764.49401,159.7574 764.49403,163.30213 C 764.49401,166.84689 764.47579,169.6828 764.43937,171.80987 C 764.40291,173.93695 764.38469,175.00049 764.38472,175.00049 L 750.16701,175.00049 z "
         style="font-size:111.93800354px;font-style:normal;font-variant:normal;font-weight:normal;font-stretch:normal;text-align:center;line-height:125%;writing-mode:lr-tb;text-anchor:middle;fill:white;fill-opacity:1;font-family:Roadgeek 2005 Series F" />
      <path
         id="text2814"
         d="M 1018.6073,114.21823 L 1018.6073,175.00049 L 1004.393,175.00049 L 1004.393,114.21823 L 978.64606,114.21823 L 978.64606,100.00052 L 1043.1211,100.00052 L 1043.1211,114.21823 L 1018.6073,114.21823 z "
         style="font-size:111.93800354px;font-style:normal;font-variant:normal;font-weight:normal;font-stretch:normal;text-align:center;line-height:125%;writing-mode:lr-tb;text-anchor:middle;fill:white;fill-opacity:1;font-family:Roadgeek 2005 Series F" />
      <path
         id="text2820"
         d="M 944.46376,175.00049 L 944.46376,142.31547 L 902.37769,142.31547 L 902.37769,175.00049 L 888.15998,175.00049 L 888.15998,100.00052 L 902.37769,100.00052 L 902.37769,127.87571 L 944.46376,127.87571 L 944.46376,100.00052 L 958.45601,100.00052 L 958.45601,175.00049 L 944.46376,175.00049 z "
         style="font-size:111.93800354px;font-style:normal;font-variant:normal;font-weight:normal;font-stretch:normal;text-align:center;line-height:125%;writing-mode:lr-tb;text-anchor:middle;fill:white;fill-opacity:1;font-family:Roadgeek 2005 Series F" />
      <path
         id="text2826"
         d="M 861.43005,142.31547 C 861.42997,147.01602 860.55318,151.41876 858.79967,155.52373 C 857.04601,159.62873 854.6206,163.22927 851.52343,166.32536 C 848.42612,169.42147 844.788,171.8651 840.60906,173.65626 C 836.43001,175.44742 831.95268,176.34301 827.17705,176.34301 C 822.17815,176.34301 817.3279,175.33583 812.62627,173.32149 C 807.92458,171.30714 803.89419,168.43366 800.53507,164.70102 C 797.47652,161.41932 795.14505,157.44643 793.54065,152.78232 C 791.93622,148.11827 791.13401,143.06134 791.13402,137.61153 C 791.13401,131.79285 792.0666,126.49509 793.93179,121.71823 C 795.79695,116.94147 798.40854,112.85528 801.76656,109.45964 C 805.12454,106.06413 809.13558,103.41496 813.79969,101.51214 C 818.46374,99.609457 823.63226,98.658081 829.30526,98.658005 C 836.91623,98.658081 843.55708,100.59841 849.22782,104.479 C 851.24324,105.74757 852.9974,107.14702 854.49029,108.67736 C 855.98304,110.20783 857.84879,112.3907 860.08753,115.22598 L 848.22008,123.39723 C 845.60786,119.66693 842.80953,117.03656 839.82507,115.5061 C 836.84051,113.97575 833.22118,113.21055 828.96707,113.21049 C 821.72951,113.21055 815.98367,115.41221 811.72955,119.81548 C 807.47537,124.21885 805.3483,130.26359 805.34832,137.94972 C 805.3483,141.45693 805.87096,144.68455 806.9163,147.63259 C 807.96159,150.58069 809.43563,153.09947 811.33841,155.18895 C 813.24113,157.27847 815.5356,158.9011 818.2218,160.05686 C 820.90794,161.21265 823.89302,161.79053 827.17705,161.79052 C 830.23553,161.79053 833.12724,161.21265 835.85217,160.05686 C 838.57701,158.9011 840.87204,157.20388 842.73728,154.9652 C 843.33389,154.14308 843.93057,153.28451 844.5273,152.38948 C 845.12392,151.49449 845.75817,150.18841 846.43006,148.47124 L 829.52731,148.47124 L 829.52731,133.91875 L 861.43005,133.91875 L 861.43005,142.31547 L 861.43005,142.31547 z "
         style="font-size:111.93800354px;font-style:normal;font-variant:normal;font-weight:normal;font-stretch:normal;text-align:center;line-height:125%;writing-mode:lr-tb;text-anchor:middle;fill:white;fill-opacity:1;font-family:Roadgeek 2005 Series F" />
    </g>
  </g>
</svg>
