<svg xmlns="http://www.w3.org/2000/svg" width="513" height="512" viewBox="0 0 513 512">
  <g fill="none" fill-rule="evenodd">
    <circle cx="256" cy="256" r="256" fill="#FFF"/>
    <path fill="#D81E00" d="M257,512 C115.615104,512 1,397.384896 1,256 C1,114.615104 115.615104,0 257,0 C398.384896,0 513,114.615104 513,256 C513,397.384896 398.384896,512 257,512 Z M257,467 C373.532082,467 468,372.532082 468,256 C468,139.467918 373.532082,45 257,45 C140.467918,45 46,139.467918 46,256 C46,372.532082 140.467918,467 257,467 Z"/>
    <g fill="#000" fill-rule="nonzero" transform="translate(114 138)">
      <path d="M233.833 91L224.488 91 216.745 69.195 212.117 76.582 212.117 91 203.573 91 203.573 30.569 212.117 26.119 212.117 54.154C212.117 57.7733514 212.057667 61.1256512 211.939 64.211 212.59167 62.8463265 213.867324 60.4433505 215.766 57.002L222.797 44.275 232.498 44.275 222.441 60.473 233.833 91zM290.615 91L282.071 91 282.071 62.253C282.071 58.7523158 281.952335 56.438339 281.715 55.311 281.06233 52.7003203 279.549345 51.395 277.176 51.395 274.268652 51.395 271.954675 52.8189858 270.234 55.667L270.234 91 261.69 91 261.69 62.253C261.69 58.7523158 261.571335 56.438339 261.334 55.311 260.68133 52.7003203 259.168345 51.395 256.795 51.395 253.887652 51.395 251.573675 52.8189858 249.853 55.667L249.853 91 241.309 91 241.309 44.275 249.853 44.275 249.853 47.479C252.048344 44.6903194 254.955649 43.296 258.575 43.296 262.965689 43.296 266.110324 44.9573167 268.009 48.28 270.916348 44.9573167 274.565311 43.296 278.956 43.296 283.465356 43.296 286.580325 44.8089849 288.301 47.835 289.843674 50.564347 290.615 55.1923007 290.615 61.719L290.615 91zM57.577 213L28.574 213 28.574 48.251.468 48.251.468 27.919C10.2353822 26.722994 17.6604746 24.3310179 22.7435 20.743 27.8265254 17.1549821 31.4643224 11.4740389 33.657 3.7L57.577 3.7 57.577 213zM191.356 108.051C191.356 140.542496 186.572048 166.156573 177.004 184.894 166.239946 205.824105 150.293439 216.289 129.164 216.289 108.233895 216.289 92.4867195 205.92377 81.922 185.193 72.5532865 166.654907 67.869 141.140496 67.869 108.649 67.869 76.1575042 72.6529522 50.543427 82.221 31.806 92.7857195 10.8758954 108.532895.411 129.463.411 150.592439.411 166.439281 10.676564 177.004 31.208 186.572048 49.5467584 191.356 75.1608356 191.356 108.051zM162.054 108.649C162.054 55.6260682 150.991111 29.115 128.865 29.115 107.735561 29.115 97.171 55.4267369 97.171 108.051 97.171 161.073932 108.134224 187.585 130.061 187.585 151.389773 187.585 162.054 161.273263 162.054 108.649z"/>
    </g>
  </g>
</svg>
