<?xml version="1.0" encoding="UTF-8" standalone="no"?>
<!-- Generator: Adobe Illustrator 12.0.1, SVG Export Plug-In  -->

<svg
   xmlns:dc="http://purl.org/dc/elements/1.1/"
   xmlns:cc="http://creativecommons.org/ns#"
   xmlns:rdf="http://www.w3.org/1999/02/22-rdf-syntax-ns#"
   xmlns:svg="http://www.w3.org/2000/svg"
   xmlns="http://www.w3.org/2000/svg"
   xmlns:sodipodi="http://sodipodi.sourceforge.net/DTD/sodipodi-0.dtd"
   xmlns:inkscape="http://www.inkscape.org/namespaces/inkscape"
   version="1.1"
   width="302.75"
   height="152.125"
   viewBox="-1 0 302.75 152.125"
   enable-background="new -1 0 289 288"
   xml:space="preserve"
   id="svg2"
   inkscape:version="0.48.2 r9819"
   sodipodi:docname="AJAX1.svg"><metadata
   id="metadata22"><rdf:RDF><cc:Work
       rdf:about=""><dc:format>image/svg+xml</dc:format><dc:type
         rdf:resource="http://purl.org/dc/dcmitype/StillImage" /><dc:title></dc:title></cc:Work></rdf:RDF></metadata><sodipodi:namedview
   pagecolor="#ffffff"
   bordercolor="#666666"
   borderopacity="1"
   objecttolerance="10"
   gridtolerance="10"
   guidetolerance="10"
   inkscape:pageopacity="0"
   inkscape:pageshadow="2"
   inkscape:window-width="1280"
   inkscape:window-height="1004"
   id="namedview20"
   showgrid="false"
   fit-margin-top="0"
   fit-margin-left="0"
   fit-margin-right="0"
   fit-margin-bottom="0"
   inkscape:zoom="2.3177389"
   inkscape:cx="120.95484"
   inkscape:cy="64.565457"
   inkscape:window-x="-8"
   inkscape:window-y="-8"
   inkscape:window-maximized="1"
   inkscape:current-layer="svg2"
   showguides="true"
   inkscape:guide-bbox="true" />
<defs
   id="defs4">
</defs>







<path
   inkscape:connector-curvature="0"
   d="m 300.99337,126.27711 c 0,13.80625 -11.29625,25.10375 -25.10375,25.10375 l -251.0325,0 c -13.807495,0 -25.103745,-11.2975 -25.103745,-25.10375 l 0,-100.41375 c 0,-13.80625 11.29625,-25.1025 25.103745,-25.1025 l 251.0325,0 c 13.8075,0 25.10375,11.29625 25.10375,25.1025 l 0,100.41375 z"
   style="fill:#ffffff;stroke:#000000;stroke-width:1.5;stroke-linecap:butt;stroke-linejoin:miter;stroke-miterlimit:4;stroke-opacity:1;stroke-dasharray:none"
   id="path6813" /><path
   inkscape:connector-curvature="0"
   d="m 292.62563,126.27711 c 0,9.205 -7.53125,16.735 -16.73501,16.735 l -251.03374,0 c -9.205,0 -16.735005,-7.53 -16.735005,-16.735 l 0,-100.41375 c 0,-9.20375 7.530005,-16.735 16.735005,-16.735 l 251.03374,0 c 9.20376,0 16.73501,7.53125 16.73501,16.735 l 0,100.41375"
   style="fill:#bf2033;fill-opacity:1;fill-rule:nonzero;stroke:none"
   id="path6825" /><path
   inkscape:connector-curvature="0"
   d="m 40.80876,119.06838 c -13.515,0 -22.8725,-9.5875 -23.45,-23.21875 l 11.6675,0 c 0.6925,6.585 5.31375,11.6675 11.7825,11.6675 6.58499,0 11.66749,-5.19875 11.66749,-12.36 0,-8.77875 -5.0825,-15.94125 -10.97374,-15.94125 l -5.66125,0 0,-11.43625 5.89125,0 c 3.35,0 8.54875,-5.775 8.54875,-12.475 0,-6.46875 -3.69625,-10.6275 -9.4725,-10.6275 -5.31375,0 -8.5475,3.23375 -9.125,8.77875 l -11.6675,-1.38625 c 1.155,-11.08875 9.7025,-18.94375 20.7925,-18.94375 11.7825,0 20.90875,9.24125 20.90875,21.25375 0,6.93125 -1.96376,12.47625 -7.50876,18.945 6.35251,5.89125 9.47251,13.4 9.47251,21.8325 0,13.74625 -9.47251,23.91125 -22.8725,23.91125"
   style="fill:#ffffff;fill-opacity:1;fill-rule:nonzero;stroke:none"
   id="path6829" /><path
   inkscape:connector-curvature="0"
   d="m 71.1875,69.6275 29.34125,0 0,11.09 -29.34125,0 0,-11.09 z"
   style="fill:#ffffff;fill-opacity:1;fill-rule:nonzero;stroke:none"
   id="path6831" /><path
   inkscape:connector-curvature="0"
   d="m 155.05038,117.68224 -10.16501,0 -7.85499,-43.43375 -7.855,43.43375 -10.6275,0 -13.16875,-83.17125 11.7825,0 6.93125,44.35875 8.20124,-44.35875 9.35625,0 7.85501,44.35875 7.39375,-44.35875 11.55124,0 -13.39999,83.17125 z"
   style="fill:#ffffff;fill-opacity:1;fill-rule:nonzero;stroke:none"
   id="path6835" /><path
   inkscape:connector-curvature="0"
   d="m 199.63849,59.34738 -5.775,23.79625 11.8975,0 -6.1225,-23.79625 z m 14.90125,58.335 -5.89125,-22.75625 -17.78875,0 -5.54499,22.75625 -12.01376,0 20.79251,-83.17125 11.66749,0 20.6775,83.17125 -11.89875,0 z"
   style="fill:#ffffff;fill-opacity:1;fill-rule:nonzero;stroke:none"
   id="path6839" /><path
   inkscape:connector-curvature="0"
   d="m 263.86376,80.02426 0,37.6575 -11.89875,0 0,-37.6575 -20.56126,-45.5125 12.70751,0 13.97625,30.03375 13.74624,-30.03375 12.7075,0 -20.6775,45.5125 z"
   style="fill:#ffffff;fill-opacity:1;fill-rule:nonzero;stroke:none"
   id="path6843" /></svg>