<svg xmlns="http://www.w3.org/2000/svg" width="900" height="900" viewBox="0 0 900 900">
  <g fill="none">
    <polygon fill="#000" points="0 263.674 263.575 .099 636.326 .099 899.901 263.674 899.901 636.425 636.326 900 263.575 900 0 636.425"/>
    <polygon fill="#FFF" points="633.874 6.019 893.981 266.126 893.981 633.972 633.874 894.08 266.027 894.08 5.92 633.973 5.92 266.126 266.027 6.019"/>
    <polygon fill="#AF1E2D" points="834.777 609.449 609.351 834.875 290.551 834.875 65.124 609.449 65.124 290.649 290.551 65.223 609.351 65.223 834.777 290.649"/>
    <polyline fill="#FFF" points="319.857 662.197 322.102 662.275 324.322 662.432 326.515 662.719 328.656 663.137 330.745 663.633 332.781 664.234 334.766 664.965 336.698 665.774 338.551 666.662 340.353 667.654 342.076 668.724 343.747 669.873 345.314 671.127 346.802 672.432 348.238 673.816 349.544 675.278 350.771 676.792 351.893 678.359 352.938 680.004 353.852 681.701 354.661 683.45 355.366 685.226 355.966 687.08 356.097 687.55 356.097 687.576 356.045 687.602 355.81 687.654 355.366 687.785 354.792 687.967 354.06 688.176 353.225 688.411 352.259 688.698 351.215 688.985 350.092 689.325 347.716 690.004 345.288 690.709 342.938 691.388 341.815 691.727 340.797 692.014 339.857 692.301 339.021 692.536 338.316 692.745 337.768 692.902 337.376 693.006 337.168 693.059 337.141 693.085 337.115 693.033 337.089 692.902 336.985 692.641 336.802 692.119 336.384 691.1 335.914 690.134 335.392 689.221 334.818 688.333 334.191 687.523 333.512 686.74 332.807 686.009 332.05 685.33 331.267 684.704 330.457 684.103 329.596 683.555 328.708 683.085 326.88 682.223 325.001 681.57 323.042 681.127 321.058 680.839 319.048 680.761 317.089 680.865 315.131 681.153 313.277 681.649 312.363 681.962 311.476 682.302 310.64 682.719 309.805 683.163 309.021 683.659 308.264 684.207 307.559 684.808 306.88 685.435 306.254 686.14 305.653 686.871 305.131 687.654 304.661 688.463 304.243 689.351 303.878 690.265 303.565 691.231 303.33 692.249 303.173 693.32 303.095 693.868 303.068 694.181 303.068 694.547 303.016 695.905 303.068 697.21 303.225 698.437 303.46 699.612 303.773 700.735 304.165 701.779 304.635 702.745 305.157 703.685 305.784 704.573 306.463 705.382 307.194 706.166 308.003 706.923 308.865 707.628 309.779 708.281 310.745 708.907 311.763 709.482 313.93 710.604 316.254 711.596 318.708 712.536 321.293 713.398 323.956 714.26 326.698 715.095 332.285 716.871 335.079 717.837 337.846 718.881 340.562 720.03 343.199 721.309 345.732 722.771 346.959 723.555 348.134 724.364 349.309 725.252 350.405 726.192 350.666 726.401 350.875 726.609 351.319 727.001 352.128 727.81 353.669 729.534 355.053 731.335 356.306 733.215 357.403 735.173 358.369 737.21 359.178 739.299 359.857 741.414 360.379 743.581 360.771 745.774 361.032 747.993 361.136 750.213 361.084 752.432 360.927 754.625 360.588 756.792 360.144 758.933 359.543 761.048 358.812 763.084 357.925 765.069 356.906 767.001 355.758 768.829 354.452 770.552 353.016 772.197 352.651 772.588 352.442 772.797 352.102 773.111 350.692 774.39 349.23 775.617 347.716 776.766 346.123 777.836 344.504 778.855 342.833 779.795 341.11 780.682 339.335 781.492 337.533 782.223 335.705 782.876 333.852 783.476 331.946 783.998 330.04 784.442 328.108 784.808 326.149 785.095 324.191 785.33 322.207 785.461 320.249 785.539 318.264 785.539 316.28 785.461 314.322 785.304 312.363 785.069 310.405 784.729 308.473 784.338 306.567 783.868 304.687 783.319 302.807 782.667 300.98 781.962 299.178 781.152 297.429 780.265 295.706 779.299 294.035 778.254 292.416 777.131 290.849 775.904 289.335 774.599 287.899 773.189 286.489 771.727 285.183 770.16 283.93 768.489 282.755 766.766 281.633 764.938 280.614 763.006 279.674 760.996 278.839 758.881 278.082 756.688 277.429 754.416 277.272 753.816 277.272 753.763 277.455 753.711 277.794 753.607 278.317 753.424 278.995 753.215 279.805 752.954 280.693 752.667 281.711 752.327 282.781 751.988 285.105 751.231 287.533 750.474 289.883 749.69 291.006 749.351 292.05 749.011 293.016 748.698 293.878 748.411 294.635 748.176 295.236 747.967 295.679 747.837 295.941 747.732 296.019 747.732 296.045 747.706 296.045 747.81 296.071 748.019 296.358 749.612 296.724 751.152 297.194 752.615 297.742 753.998 298.395 755.304 299.1 756.557 299.883 757.732 300.745 758.829 301.659 759.873 302.651 760.839 303.669 761.727 304.766 762.562 305.888 763.319 307.063 763.998 308.264 764.625 309.491 765.173 310.771 765.643 312.076 766.061 313.382 766.4 314.713 766.662 316.045 766.87 317.377 767.027 318.734 767.079 320.066 767.079 321.397 767.027 322.729 766.897 324.034 766.688 325.314 766.427 326.567 766.087 327.794 765.695 328.995 765.225 330.144 764.703 331.267 764.103 332.311 763.424 333.329 762.693 334.296 761.91 335.183 761.048 335.993 760.108 336.75 759.116 337.455 758.071 338.055 756.949 338.551 755.774 338.995 754.521 339.335 753.189 339.57 751.831 339.7 750.369 339.726 750.004 339.752 749.586 339.752 748.672 339.622 746.923 339.335 745.33 338.943 743.842 338.395 742.484 337.716 741.231 336.906 740.082 335.993 739.038 334.948 738.072 333.826 737.184 332.598 736.374 331.293 735.643 329.909 734.938 328.447 734.312 326.907 733.711 325.314 733.163 323.669 732.641 321.972 732.145 318.447 731.179 314.844 730.213 311.162 729.194 307.481 728.072 305.679 727.445 303.878 726.766 302.102 726.035 300.353 725.226 298.656 724.364 297.011 723.398 295.418 722.354 293.904 721.231 292.442 720.004 291.032 718.672 289.726 717.21 288.525 715.617 287.403 713.92 286.384 712.066 285.471 710.082 284.661 707.941 283.982 705.644 283.695 704.416 283.46 703.163 283.225 701.858 283.042 700.526 282.886 699.142 282.781 697.706 282.703 696.218 282.677 695.461 282.677 693.711 282.834 691.414 283.173 689.168 283.695 687.001 284.374 684.86 285.21 682.798 286.202 680.787 287.351 678.855 288.656 677.001 290.066 675.226 291.632 673.555 293.304 671.962 295.105 670.474 297.011 669.09 299.022 667.811 301.11 666.662 303.303 665.618 305.575 664.704 307.925 663.92 310.353 663.294 312.833 662.798 315.366 662.432 317.951 662.249 319.256 662.197 319.857 662.197"/>
    <polygon fill="#FFF" points="418.865 785.539 400.354 785.539 400.354 679.455 371.999 679.455 371.999 662.197 447.22 662.197 447.22 679.455 418.865 679.455"/>
    <polygon fill="#FFF" points="570.982 662.197 614.246 662.197 616.805 662.275 619.259 662.484 621.635 662.798 623.932 663.215 626.126 663.738 628.241 664.39 630.277 665.121 632.209 665.931 634.063 666.871 635.812 667.863 637.509 668.959 639.076 670.108 640.59 671.335 642 672.641 643.306 673.999 644.533 675.435 645.682 676.923 646.726 678.437 647.692 680.004 648.554 681.623 649.337 683.268 650.016 684.965 650.616 686.688 651.113 688.411 651.53 690.16 651.844 691.936 652.079 693.711 652.209 695.513 652.235 697.288 652.183 699.064 652.053 700.839 651.791 702.615 651.478 704.364 651.034 706.087 650.512 707.784 649.912 709.455 649.18 711.1 648.371 712.719 647.483 714.26 646.491 715.774 645.395 717.236 644.194 718.646 642.914 719.978 641.53 721.257 640.042 722.484 638.476 723.607 636.778 724.677 635.003 725.643 633.149 726.531 631.165 727.341 629.102 728.045 626.935 728.646 624.664 729.142 622.314 729.508 619.859 729.795 617.275 729.952 615.969 729.977 589.337 729.977 589.337 785.539 570.826 785.539 570.826 662.223 570.852 662.197"/>
    <polygon fill="#AF1E2D" points="589.311 680.709 618.476 680.709 620.12 680.865 621.165 681.048 622.183 681.283 623.149 681.596 624.063 681.936 624.951 682.328 625.786 682.798 626.57 683.293 627.301 683.816 628.006 684.416 628.658 685.017 629.259 685.67 629.833 686.374 630.355 687.079 631.269 688.62 632 690.213 632.549 691.91 632.888 693.633 633.097 695.382 633.097 697.158 632.914 698.907 632.523 700.656 631.974 702.301 631.243 703.92 630.799 704.677 630.329 705.408 629.781 706.113 629.207 706.792 628.58 707.445 627.927 708.045 627.196 708.62 626.439 709.142 625.603 709.612 624.768 710.056 623.854 710.421 622.888 710.761 621.896 711.048 620.825 711.257 619.729 711.414 618.58 711.518 618.293 711.518 618.136 711.544 589.337 711.544 589.311 711.518"/>
    <polygon fill="#FFF" points="501.004 662.197 503.771 662.275 506.487 662.484 509.176 662.85 511.787 663.346 514.372 664.025 516.852 664.86 519.28 665.879 521.63 667.079 523.902 668.463 524.998 669.221 526.095 670.03 527.139 670.892 528.158 671.779 529.176 672.745 530.142 673.764 531.108 674.808 532.022 675.931 532.936 677.106 533.797 678.333 534.633 679.612 535.442 680.944 536.226 682.328 536.957 683.79 537.688 685.304 538.367 686.871 539.019 688.489 539.62 690.186 540.194 691.936 540.743 693.737 541.239 695.617 541.709 697.549 542.152 699.56 542.544 701.622 542.883 703.763 543.197 705.983 543.458 708.254 543.693 710.578 543.876 712.98 544.032 715.461 544.111 718.019 544.163 720.63 544.137 726.035 544.058 728.698 543.954 731.283 543.771 733.79 543.588 736.218 543.327 738.594 543.066 740.891 542.753 743.111 542.387 745.278 541.996 747.366 541.552 749.403 541.108 751.361 540.586 753.267 540.064 755.095 539.489 756.87 538.889 758.594 538.262 760.239 537.583 761.831 536.878 763.372 536.173 764.834 535.39 766.27 534.607 767.628 533.797 768.933 532.936 770.16 532.074 771.361 531.16 772.484 530.246 773.581 529.28 774.599 528.314 775.591 527.296 776.505 526.278 777.393 525.207 778.228 524.137 779.011 521.917 780.421 519.62 781.648 517.244 782.693 514.79 783.581 512.257 784.286 509.672 784.808 507.009 785.199 504.32 785.46 501.552 785.539 498.784 785.513 496.069 785.382 493.38 785.147 490.769 784.782 488.184 784.259 485.703 783.607 483.275 782.797 480.925 781.805 478.654 780.656 477.557 780.004 476.461 779.299 475.416 778.541 474.372 777.732 473.38 776.896 472.388 775.983 471.448 775.017 470.508 773.972 469.594 772.902 468.732 771.753 467.871 770.552 467.061 769.273 466.278 767.941 465.521 766.557 464.79 765.095 464.111 763.555 463.432 761.936 462.805 760.265 462.231 758.515 461.657 756.714 461.134 754.808 460.638 752.824 460.194 750.787 459.777 748.646 459.411 746.427 459.072 744.155 458.784 741.753 458.523 739.299 458.288 736.766 458.132 734.129 457.975 731.387 457.897 728.568 457.845 725.669 457.845 722.667 457.871 719.743 457.975 716.923 458.08 714.181 458.262 711.518 458.471 708.959 458.706 706.479 459.019 704.077 459.333 701.779 459.698 699.534 460.116 697.393 460.56 695.33 461.03 693.346 461.552 691.414 462.1 689.586 462.701 687.837 463.301 686.14 463.98 684.521 464.659 682.98 465.364 681.492 466.121 680.082 466.905 678.724 467.714 677.445 468.549 676.244 469.437 675.069 470.325 673.972 471.239 672.954 472.205 671.962 473.171 671.048 474.189 670.187 475.207 669.351 476.252 668.594 477.322 667.889 478.419 667.236 479.542 666.61 481.839 665.539 484.241 664.625 486.696 663.868 489.202 663.268 491.787 662.824 494.45 662.51 497.139 662.301 499.907 662.223 500.586 662.197"/>
    <polygon fill="#AF1E2D" points="501.004 680.709 502.466 680.761 503.902 680.891 505.312 681.153 506.722 681.518 508.053 681.988 509.385 682.563 510.664 683.294 511.918 684.129 513.119 685.069 514.267 686.166 515.364 687.419 516.408 688.803 517.401 690.317 518.34 691.988 519.202 693.816 520.011 695.8 520.743 697.967 521.421 700.291 522.022 702.771 522.518 705.461 522.962 708.307 523.301 711.335 523.458 712.928 523.562 714.573 523.667 716.244 523.745 717.993 523.797 719.769 523.823 721.596 523.797 725.408 523.771 727.262 523.693 729.064 523.615 730.813 523.51 732.51 523.38 734.181 523.223 735.774 522.884 738.855 522.44 741.753 521.944 744.442 521.343 746.975 520.69 749.325 519.985 751.518 519.176 753.554 518.34 755.408 517.427 757.105 516.461 758.672 515.442 760.082 514.372 761.335 513.223 762.458 512.074 763.45 510.847 764.312 509.594 765.043 508.288 765.669 506.957 766.165 505.573 766.531 504.189 766.818 502.753 766.975 501.291 767.053 499.829 767.027 498.393 766.923 496.983 766.766 495.599 766.505 494.241 766.139 492.91 765.695 491.63 765.121 490.377 764.442 489.202 763.607 488.027 762.667 486.931 761.596 485.886 760.343 484.894 758.959 483.954 757.393 483.066 755.669 482.257 753.737 481.5 751.649 481.16 750.526 480.821 749.351 480.508 748.124 480.22 746.844 479.933 745.539 479.672 744.155 479.437 742.719 479.228 741.205 479.019 739.664 478.837 738.072 478.68 736.401 478.549 734.677 478.419 732.902 478.341 731.048 478.262 729.142 478.21 727.158 478.184 725.121 478.184 723.032 478.21 720.996 478.262 719.012 478.314 717.079 478.419 715.226 478.523 713.424 478.654 711.701 478.811 710.03 478.993 708.411 479.176 706.844 479.385 705.33 479.62 703.894 479.881 702.51 480.142 701.153 480.455 699.873 480.743 698.646 481.082 697.445 481.787 695.252 482.57 693.215 483.406 691.388 484.32 689.717 485.286 688.228 486.304 686.897 487.374 685.722 488.497 684.677 489.672 683.79 490.873 683.033 492.126 682.38 493.432 681.858 494.764 681.466 496.147 681.126 497.531 680.918 498.967 680.761 500.429 680.709"/>
    <polygon fill="#FF0" points="305.9 278.757 307.704 278.532 309.282 278.081 310.634 277.18 311.987 276.052 313.114 274.7 314.016 273.122 314.466 271.544 314.692 269.74 314.692 267.937 314.241 266.133 313.565 264.555 312.663 262.977 309.958 260.723 308.38 260.047 306.802 259.821 304.998 259.821 303.42 260.047 301.842 260.723 300.49 261.85 299.363 262.977 298.235 264.555 297.559 266.133 297.108 267.937 297.108 269.74 297.334 271.544 298.686 274.7 299.813 276.052 301.166 277.18 302.744 278.081 304.322 278.532"/>
    <polygon fill="#FFF" points="302.925 233.418 306.976 233.643 311.026 234.318 314.626 235.668 318.226 237.243 321.377 239.268 324.302 241.743 327.002 244.444 329.477 247.369 331.277 250.744 332.852 254.344 333.977 257.945 334.652 261.995 334.877 264.02 334.877 265.82 334.652 268.52 333.752 273.471 331.952 278.421 329.477 282.696 326.552 286.746 322.727 290.122 320.702 291.697 319.801 292.372 319.576 292.822 319.801 293.047 321.827 295.972 325.877 300.697 327.452 304.073 328.127 306.323 328.577 308.798 329.027 311.948 329.252 315.773 329.477 316.673 329.477 480.709 329.252 481.384 329.027 482.509 327.452 487.235 324.752 491.285 321.152 494.66 316.876 497.36 312.151 498.935 307.201 499.385 302.475 498.71 298.425 496.91 294.6 494.21 291.675 490.61 289.199 486.785 287.399 482.284 287.174 481.384 286.949 480.709 286.949 325.449 286.724 324.549 286.274 322.974 285.599 322.524 284.924 322.524 283.799 323.199 283.574 323.199 283.574 323.424 283.124 323.649 282.674 324.324 278.174 329.499 270.073 340.075 262.873 351.326 256.572 362.801 250.722 374.727 245.997 387.103 241.496 399.704 237.896 412.305 234.746 425.356 231.821 438.406 227.545 464.733 225.745 477.784 225.52 479.359 225.52 480.484 225.295 481.159 225.07 482.284 223.27 487.01 220.345 491.06 216.52 494.435 212.019 497.135 207.069 498.71 202.119 499.16 197.168 498.485 192.443 496.685 188.168 493.985 184.568 490.385 182.092 486.56 180.742 482.059 180.742 297.997 180.292 297.772 179.392 297.547 173.542 294.847 168.142 291.022 163.641 286.296 160.041 280.671 157.791 274.371 157.116 270.995 156.891 267.395 156.891 263.57 157.566 259.295 158.466 255.469 160.041 251.644 162.066 248.269 164.316 244.894 167.016 241.968 170.167 239.493 173.542 237.243 177.142 235.443 180.967 234.093 185.018 233.193 189.068 232.968 193.793 232.968 198.293 233.868 202.569 235.218 206.394 237.018 209.769 239.268 212.919 242.193 215.62 245.344 217.87 248.719 219.895 252.544 221.47 256.594 222.595 260.87 223.045 265.145 223.27 269.645 223.27 373.602 223.945 371.577 227.995 360.776 232.271 350.651 236.771 340.975 241.496 331.974 246.222 323.874 251.172 316.448 256.122 309.923 260.848 304.073 265.798 299.122 270.523 295.072 275.249 292.147 279.749 290.122 281.774 289.447 282.224 289.447 281.999 289.222 281.549 288.997 278.624 285.846 276.149 282.471 274.124 278.871 272.548 274.821 271.423 270.545 271.198 266.045 270.973 264.92 271.648 258.845 272.773 255.019 274.124 251.419 276.149 248.044 278.399 244.894 280.874 242.193 283.799 239.718 287.174 237.468 290.55 235.893 294.15 234.543 298.2 233.643 302.25 233.418"/>
    <polyline fill="#FFF" points="535.348 457.426 535.348 251.24 535.122 249.887 534.671 247.631 532.641 243.119 529.257 239.284 525.197 236.126 520.459 234.096 515.271 233.193 512.789 233.193 510.308 233.419 505.345 235.224 500.608 238.156 496.773 241.766 494.066 246.052 493.163 248.308 492.712 250.564 492.712 444.117 492.035 445.921 490.456 449.305 488.652 452.463 486.396 455.396 483.914 457.877 481.433 460.133 478.5 461.938 472.635 464.871 466.093 466.45 459.325 466.901 452.783 465.999 446.467 463.968 440.602 460.81 437.895 458.554 435.639 456.298 433.383 453.591 431.578 450.659 429.774 447.275 429.097 445.47 428.871 444.568 428.646 444.117 428.646 378.697 428.871 376.892 429.322 373.508 430.45 370.35 432.029 367.643 434.06 365.162 436.767 362.906 439.699 360.875 442.857 359.071 446.693 357.492 455.039 354.559 459.551 353.431 460.905 353.205 461.581 353.205 462.483 352.98 462.935 352.077 463.16 351.175 462.935 350.273 462.258 349.37 461.581 349.37 461.13 349.145 458.874 349.37 454.137 348.694 449.625 347.566 445.565 345.535 441.955 343.279 438.571 340.121 435.864 336.738 433.383 333.128 431.578 329.068 429.999 324.556 429.322 320.044 428.871 315.532 428.871 313.051 429.097 312.149 429.097 310.795 428.871 308.088 428.871 298.162 429.322 298.162 435.639 295.455 441.504 291.395 446.241 286.432 448.046 283.499 449.851 280.341 451.204 277.183 452.107 273.799 452.783 270.19 453.009 266.58 452.783 262.294 451.881 258.008 450.527 253.947 448.723 250.112 446.467 246.503 443.76 243.345 440.602 240.412 437.218 237.931 433.609 235.9 429.548 234.321 425.262 233.419 420.976 232.968 416.013 233.193 411.275 233.87 406.989 235.449 402.929 237.254 399.319 239.735 396.161 242.894 393.454 246.277 390.973 249.887 389.168 253.947 387.815 258.459 386.687 262.971 386.235 267.483 386.235 330.872 387.138 335.158 388.491 338.994 390.747 342.603 393.905 345.761 397.515 348.468 399.545 349.37 400.222 349.596 401.124 350.047 401.575 350.724 401.575 351.401 401.124 352.077 400.222 352.529 397.515 353.431 393.905 355.01 390.747 357.492 388.491 360.424 386.687 364.485 386.235 366.966 386.01 369.899 386.01 373.057 386.235 373.734 386.235 388.622 386.01 392.909 386.01 456.298 386.01 458.103 386.461 461.487 387.138 464.645 388.04 467.578 391.198 473.217 395.259 478.18 400.447 482.692 406.538 486.527 413.306 489.911 420.75 492.843 428.871 495.099 437.218 496.904 446.016 498.257 455.039 498.934 464.063 499.385 473.312 499.16 482.11 498.257 490.682 496.904 498.577 494.874 506.022 492.392 513.015 489.008 519.106 485.173 524.294 480.662 528.58 475.473 531.964 469.608 534.22 463.292 534.897 459.682 535.122 457.877 535.348 457.426"/>
    <polygon fill="#FFF" points="743.011 285.755 743.011 480.436 742.785 482.466 741.883 486.301 739.852 489.911 737.371 493.069 733.987 495.776 730.378 497.806 726.317 498.934 722.031 499.385 717.97 498.934 713.684 497.581 709.849 495.55 706.466 492.843 703.759 489.685 701.728 486.301 700.6 482.692 700.375 480.887 700.375 292.523 700.149 290.041 699.472 285.53 698.344 281.469 696.765 278.085 694.735 274.927 692.254 272.445 689.772 270.19 686.84 268.385 680.523 265.678 673.756 264.324 667.214 263.648 661.123 263.422 654.581 264.099 648.039 265.227 641.497 267.483 638.564 269.062 635.857 270.866 633.15 273.122 630.894 275.829 629.09 278.762 627.51 282.146 626.382 286.206 625.931 290.492 625.706 291.846 625.706 431.935 625.931 431.71 626.834 430.581 630.443 425.844 634.052 420.204 637.662 413.437 641.046 405.767 643.978 397.42 646.685 388.622 648.941 379.148 649.392 376.892 648.49 376.441 647.136 375.313 644.204 373.057 641.722 370.35 639.692 367.417 638.113 364.034 636.985 360.65 636.308 356.815 636.083 355.01 636.083 352.529 636.985 346.889 639.015 341.701 641.948 337.189 645.783 333.354 650.295 330.421 655.483 328.165 661.123 327.263 666.762 327.489 672.177 329.068 677.139 331.549 681.426 334.933 684.809 338.993 687.516 343.956 689.096 349.145 689.321 352.077 689.321 357.717 688.193 368.771 685.937 380.953 682.779 393.36 678.718 406.218 673.756 419.077 668.116 431.935 662.025 444.117 655.258 455.847 648.264 466.675 640.82 476.15 636.985 480.436 633.15 484.497 629.315 488.106 625.48 491.264 621.645 493.746 617.81 496.002 613.975 497.806 610.14 498.709 606.305 499.385 604.049 499.385 602.019 499.16 597.733 498.032 593.898 496.227 590.289 493.746 587.356 490.813 585.1 487.429 583.521 483.82 583.295 482.015 583.07 481.113 583.07 283.725 583.747 275.829 585.326 268.611 587.807 262.068 591.191 256.654 595.252 251.692 600.214 247.631 605.854 244.022 611.945 241.089 618.487 238.607 625.48 236.803 632.925 235.224 640.369 234.096 648.264 233.419 664.281 232.968 680.072 233.419 687.742 234.096 695.186 234.998 702.405 236.577 709.173 238.382 715.489 240.863 721.354 243.796 726.543 247.631 731.28 251.917 735.341 257.106 738.499 262.971 740.98 269.964 742.334 277.634 742.785 281.92 743.011 284.176"/>
    <polygon fill="#FFF" points="535.303 548.631 535.303 594.015 534.797 596.033 533.277 599.815 530.997 603.092 528.464 605.866 525.171 607.883 521.624 609.396 518.078 609.9 514.278 609.648 510.732 608.639 507.438 606.875 504.399 604.605 502.119 601.58 500.345 598.05 499.586 594.268 499.586 582.669 499.079 582.669 496.292 581.913 490.973 579.644 486.16 576.618 482.107 572.584 478.814 567.793 476.534 562.498 475.267 556.699 475.014 553.673 475.267 550.396 476.534 543.84 479.32 538.041 483.373 532.998 488.186 528.712 494.013 525.686 500.345 523.921 503.892 523.669 506.932 523.669 513.011 524.678 518.584 526.947 523.397 529.972 527.704 534.007 531.25 538.797 534.037 544.092 535.05 546.866 535.303 548.379"/>
    <circle cx="303.243" cy="264.583" r="7.993" fill="#AF1E2D"/>
  </g>
</svg>
