<?xml version="1.0" encoding="UTF-8" standalone="no"?>
<!-- Generator: Adobe Illustrator 12.0.1, SVG Export Plug-In  -->

<svg
   xmlns:dc="http://purl.org/dc/elements/1.1/"
   xmlns:cc="http://creativecommons.org/ns#"
   xmlns:rdf="http://www.w3.org/1999/02/22-rdf-syntax-ns#"
   xmlns:svg="http://www.w3.org/2000/svg"
   xmlns="http://www.w3.org/2000/svg"
   xmlns:sodipodi="http://sodipodi.sourceforge.net/DTD/sodipodi-0.dtd"
   xmlns:inkscape="http://www.inkscape.org/namespaces/inkscape"
   version="1.1"
   width="302.75"
   height="152.09375"
   viewBox="-1 0 302.75 152.09375"
   enable-background="new -1 0 289 288"
   xml:space="preserve"
   id="svg2"
   inkscape:version="0.48.2 r9819"
   sodipodi:docname="AJAX1.svg"><metadata
   id="metadata22"><rdf:RDF><cc:Work
       rdf:about=""><dc:format>image/svg+xml</dc:format><dc:type
         rdf:resource="http://purl.org/dc/dcmitype/StillImage" /><dc:title /></cc:Work></rdf:RDF></metadata><sodipodi:namedview
   pagecolor="#ffffff"
   bordercolor="#666666"
   borderopacity="1"
   objecttolerance="10"
   gridtolerance="10"
   guidetolerance="10"
   inkscape:pageopacity="0"
   inkscape:pageshadow="2"
   inkscape:window-width="1280"
   inkscape:window-height="1004"
   id="namedview20"
   showgrid="false"
   fit-margin-top="0"
   fit-margin-left="0"
   fit-margin-right="0"
   fit-margin-bottom="0"
   inkscape:zoom="1.6388889"
   inkscape:cx="156.32883"
   inkscape:cy="85.264723"
   inkscape:window-x="-8"
   inkscape:window-y="-8"
   inkscape:window-maximized="1"
   inkscape:current-layer="svg2" />
<defs
   id="defs4">
</defs>







<path
   inkscape:connector-curvature="0"
   d="m 300.98986,126.25387 c 0,13.8075 -11.29625,25.10375 -25.10375,25.10375 l -251.032498,0 c -13.8075,0 -25.10375,-11.29625 -25.10375,-25.10375 l 0,-100.41375 c 0,-13.80625 11.29625,-25.1025 25.10375,-25.1025 l 251.032498,0 c 13.8075,0 25.10375,11.29625 25.10375,25.1025 l 0,100.41375 z"
   style="fill:#ffffff;stroke:#000000;stroke-width:1.5;stroke-linecap:butt;stroke-linejoin:miter;stroke-miterlimit:4;stroke-opacity:1;stroke-dasharray:none"
   id="path3963" /><path
   inkscape:connector-curvature="0"
   d="m 292.62213,126.25387 c 0,9.205 -7.53125,16.735 -16.735,16.735 l -251.033755,0 c -9.205,0 -16.735,-7.53 -16.735,-16.735 l 0,-100.41375 c 0,-9.20375 7.53,-16.735 16.735,-16.735 l 251.033755,0 c 9.20375,0 16.735,7.53125 16.735,16.735 l 0,100.41375 z"
   style="fill:#bf2033;fill-opacity:1;fill-rule:nonzero;stroke:none"
   id="path3967" /><path
   inkscape:connector-curvature="0"
   d="m 63.229635,97.67811 0,20.205 -12.02375,0 0,-20.205 -34.70875,0 0,-8.55375 34.70875,-54.9125 12.02375,0 0,52.31 4.958755,0 0,11.15625 -4.958755,0 z m -12.02375,-42.64125 -19.9575,31.485 19.9575,0 0,-31.485 z"
   style="fill:#ffffff;fill-opacity:1;fill-rule:nonzero;stroke:none"
   id="path3971" /><path
   inkscape:connector-curvature="0"
   d="m 78.2275,69.54 29.3775,0 0,11.15625 -29.3775,0 0,-11.15625 z"
   style="fill:#ffffff;fill-opacity:1;fill-rule:nonzero;stroke:none"
   id="path3973" /><path
   inkscape:connector-curvature="0"
   d="m 162.51812,117.88325 -10.28875,0 -7.9325,-43.7575 -7.93374,43.7575 -10.53625,0 -13.26375,-83.67125 11.77625,0 7.065,44.625 8.18124,-44.625 9.42126,0 7.93374,44.625 7.3125,-44.625 11.77626,0 -13.51125,83.67125 z"
   style="fill:#ffffff;fill-opacity:1;fill-rule:nonzero;stroke:none"
   id="path3977" /><path
   inkscape:connector-curvature="0"
   d="m 218.67,117.88325 -5.82625,-22.9325 -17.97375,0 -5.5775,22.9325 -12.02375,0 20.82376,-83.67125 11.77625,0 20.82499,83.67125 -12.02375,0 z M 203.67125,59.127 l -5.82624,24.1725 12.02375,0 -6.1975,-24.1725 z"
   style="fill:#ffffff;fill-opacity:1;fill-rule:nonzero;stroke:none"
   id="path3981" /><path
   inkscape:connector-curvature="0"
   d="m 263.4175,79.952 0,37.93125 -12.02375,0 0,-37.93125 -20.5775,-45.74 12.64376,0 14.13124,30.245 13.76001,-30.245 12.89125,0 -20.825,45.74 z"
   style="fill:#ffffff;fill-opacity:1;fill-rule:nonzero;stroke:none"
   id="path3985" /></svg>