<svg id="svg" version="1.1" width="400" height="398.00000000000006" viewBox="0 0 400 398.00000000000006" xmlns="http://www.w3.org/2000/svg" xmlns:xlink="http://www.w3.org/1999/xlink" ><g id="svgg"><path id="path0" d="M130.051 29.329 C 129.063 29.587,121.490 36.756,116.984 41.699 C 116.638 42.078,115.922 42.760,115.392 43.215 C 114.862 43.669,113.613 44.923,112.616 46.001 C 111.620 47.078,109.829 48.882,108.636 50.008 C 107.444 51.134,106.237 52.298,105.956 52.595 C 103.752 54.919,100.569 58.112,98.924 59.650 C 97.840 60.663,96.587 61.914,96.138 62.430 C 95.690 62.945,95.035 63.642,94.683 63.979 C 94.083 64.551,90.197 68.424,89.068 69.575 C 88.787 69.861,83.184 75.461,76.617 82.020 C 70.050 88.578,64.382 94.255,64.022 94.634 C 63.662 95.013,62.945 95.688,62.430 96.134 C 61.914 96.580,60.673 97.834,59.672 98.920 C 58.671 100.007,56.790 101.919,55.493 103.170 C 52.693 105.869,52.690 105.872,49.926 108.619 C 48.735 109.802,47.761 110.916,47.761 111.093 C 47.761 111.270,47.448 111.586,47.065 111.795 C 46.682 112.005,45.383 113.189,44.179 114.428 C 42.975 115.667,41.765 116.890,41.491 117.146 C 37.701 120.679,36.617 121.784,36.617 122.109 C 36.617 122.322,36.214 122.765,35.721 123.094 C 35.229 123.422,33.438 125.064,31.741 126.742 L 28.657 129.792 28.657 201.000 C 28.657 262.741,28.734 272.276,29.235 272.721 C 31.854 275.048,36.617 279.853,36.985 280.541 C 37.236 281.010,37.709 281.393,38.037 281.393 C 38.365 281.393,39.004 282.020,39.456 282.786 C 39.908 283.552,40.425 284.179,40.604 284.179 C 41.001 284.179,48.159 291.293,48.159 291.688 C 48.159 291.842,48.686 292.279,49.329 292.659 C 49.972 293.039,50.610 293.700,50.746 294.127 C 50.881 294.555,51.473 295.135,52.060 295.416 C 52.647 295.697,53.362 296.419,53.650 297.019 C 53.938 297.619,54.328 298.109,54.517 298.109 C 54.940 298.109,62.090 305.220,62.090 305.640 C 62.090 305.806,62.529 306.142,63.065 306.387 C 63.602 306.631,64.317 307.364,64.653 308.014 C 64.990 308.665,65.612 309.308,66.036 309.442 C 66.461 309.577,67.173 310.306,67.619 311.062 C 68.066 311.819,68.661 312.438,68.942 312.439 C 69.223 312.440,69.811 312.976,70.249 313.632 C 70.687 314.287,71.161 314.824,71.303 314.825 C 71.728 314.827,75.622 318.770,75.622 319.198 C 75.622 319.416,76.248 319.999,77.013 320.494 C 77.778 320.988,78.508 321.708,78.633 322.094 C 78.759 322.479,79.374 323.060,80.000 323.383 C 80.626 323.707,81.247 324.316,81.380 324.736 C 81.514 325.157,82.198 325.951,82.901 326.501 C 85.006 328.148,89.950 333.023,89.950 333.452 C 89.950 333.672,90.577 334.222,91.343 334.674 C 92.109 335.126,92.736 335.764,92.736 336.092 C 92.736 336.420,93.119 336.893,93.587 337.144 C 94.569 337.669,103.881 347.066,103.881 347.531 C 103.881 347.701,104.426 348.122,105.092 348.467 C 105.758 348.811,106.472 349.537,106.678 350.079 C 106.884 350.621,107.330 351.172,107.669 351.302 C 108.526 351.630,117.811 360.861,117.811 361.383 C 117.811 361.617,118.258 362.012,118.804 362.260 C 119.350 362.509,120.150 363.311,120.581 364.043 C 121.013 364.775,121.631 365.373,121.954 365.373 C 122.277 365.373,122.859 365.910,123.247 366.567 C 123.635 367.224,124.078 367.761,124.231 367.761 C 124.384 367.761,125.017 368.317,125.638 368.996 C 127.935 371.508,122.781 371.343,198.982 371.343 L 268.635 371.343 270.437 370.468 C 271.428 369.987,272.239 369.445,272.239 369.265 C 272.239 368.814,276.512 364.577,276.967 364.577 C 277.169 364.577,277.704 363.950,278.156 363.184 C 278.608 362.418,279.248 361.791,279.578 361.791 C 279.908 361.791,280.460 361.246,280.805 360.580 C 281.149 359.914,281.875 359.200,282.417 358.994 C 282.960 358.788,283.522 358.310,283.667 357.932 C 283.987 357.097,290.441 350.647,290.956 350.647 C 291.158 350.647,291.599 350.112,291.937 349.459 C 292.275 348.805,292.969 348.165,293.479 348.037 C 294.008 347.905,294.680 347.232,295.041 346.474 C 295.390 345.742,296.044 345.026,296.495 344.883 C 296.945 344.740,297.313 344.455,297.313 344.249 C 297.313 343.769,304.407 336.716,304.890 336.716 C 305.090 336.716,305.529 336.182,305.867 335.529 C 306.205 334.876,307.015 334.066,307.668 333.728 C 308.321 333.390,308.856 332.841,308.856 332.509 C 308.856 332.176,309.392 331.598,310.047 331.225 C 310.703 330.852,311.240 330.409,311.241 330.240 C 311.245 329.808,315.596 325.572,316.036 325.572 C 316.235 325.572,316.674 325.037,317.012 324.384 C 317.350 323.730,318.056 323.088,318.580 322.956 C 319.140 322.816,319.740 322.219,320.033 321.514 C 320.323 320.811,320.985 320.152,321.622 319.930 C 322.277 319.701,322.811 319.157,322.959 318.567 C 323.095 318.027,323.649 317.383,324.190 317.137 C 324.731 316.890,325.174 316.534,325.174 316.346 C 325.174 315.835,329.329 311.642,329.834 311.642 C 330.074 311.642,330.639 311.015,331.092 310.249 C 331.544 309.483,332.170 308.856,332.485 308.856 C 332.799 308.856,333.422 308.235,333.870 307.476 C 334.329 306.698,335.128 305.984,335.700 305.840 C 336.259 305.700,336.716 305.347,336.716 305.056 C 336.716 304.483,343.657 297.313,344.212 297.313 C 344.397 297.313,344.757 296.856,345.012 296.297 C 345.266 295.738,345.995 295.100,346.631 294.878 C 347.338 294.632,347.881 294.101,348.029 293.513 C 348.162 292.985,348.805 292.275,349.459 291.937 C 350.112 291.599,350.647 291.050,350.647 290.718 C 350.647 290.385,351.183 289.807,351.838 289.434 C 352.494 289.061,353.031 288.630,353.032 288.476 C 353.036 288.011,357.160 283.953,357.916 283.668 C 358.303 283.523,358.797 282.935,359.015 282.362 C 359.235 281.782,359.928 281.126,360.577 280.881 C 361.248 280.627,361.841 280.054,361.972 279.531 C 362.098 279.031,362.723 278.351,363.361 278.022 C 363.999 277.692,364.634 277.065,364.772 276.629 C 364.910 276.194,365.550 275.526,366.193 275.146 C 366.837 274.766,367.363 274.321,367.363 274.157 C 367.363 273.993,367.900 273.247,368.557 272.499 L 369.751 271.139 369.751 200.713 L 369.751 130.288 368.756 129.353 C 368.209 128.839,367.759 128.226,367.756 127.990 C 367.754 127.755,367.127 127.158,366.363 126.663 C 365.600 126.168,364.975 125.501,364.975 125.181 C 364.975 124.860,364.441 124.321,363.788 123.984 C 363.135 123.646,362.324 122.835,361.987 122.182 C 361.649 121.529,361.102 120.995,360.772 120.995 C 360.442 120.995,359.802 120.368,359.350 119.602 C 358.898 118.836,358.360 118.209,358.154 118.209 C 357.702 118.209,350.647 111.148,350.647 110.695 C 350.647 110.520,350.190 110.168,349.631 109.914 C 349.072 109.659,348.427 108.914,348.199 108.258 C 347.951 107.546,347.502 107.065,347.087 107.065 C 346.315 107.065,345.075 105.873,345.075 105.130 C 345.075 104.867,344.771 104.535,344.399 104.392 C 343.545 104.065,337.339 97.880,336.739 96.759 C 336.492 96.298,336.022 95.920,335.694 95.920 C 335.366 95.920,334.739 95.313,334.301 94.570 C 333.863 93.827,333.154 93.128,332.726 93.016 C 332.297 92.904,331.632 92.259,331.247 91.583 C 330.862 90.907,330.397 90.352,330.214 90.351 C 330.031 90.349,328.907 89.318,327.716 88.060 C 326.525 86.801,325.363 85.592,325.134 85.373 C 324.905 85.154,324.304 84.552,323.797 84.034 C 321.932 82.129,320.767 80.956,319.443 79.652 C 319.082 79.296,318.347 78.557,317.810 78.010 C 317.273 77.463,316.695 76.884,316.526 76.723 C 312.764 73.151,311.642 71.992,311.642 71.677 C 311.642 71.468,311.271 71.180,310.818 71.036 C 310.365 70.892,309.666 70.233,309.263 69.572 C 308.861 68.910,308.116 68.162,307.607 67.908 C 307.099 67.654,306.475 67.031,306.221 66.522 C 305.968 66.014,305.219 65.268,304.557 64.866 C 303.896 64.464,303.237 63.764,303.093 63.311 C 302.950 62.858,302.645 62.488,302.417 62.488 C 301.922 62.488,297.713 58.345,297.709 57.854 C 297.708 57.666,297.177 57.211,296.529 56.843 C 295.882 56.474,295.240 55.729,295.104 55.186 C 294.952 54.578,294.477 54.103,293.869 53.951 C 293.326 53.814,292.580 53.173,292.212 52.526 C 291.844 51.878,291.407 51.347,291.241 51.346 C 290.816 51.342,283.781 44.206,283.781 43.778 C 283.781 43.585,283.294 43.193,282.698 42.907 C 282.103 42.622,281.406 41.968,281.150 41.455 C 280.895 40.943,280.144 40.194,279.483 39.791 C 278.821 39.389,278.162 38.689,278.019 38.236 C 277.875 37.784,277.598 37.413,277.404 37.413 C 276.886 37.413,272.637 33.247,272.637 32.738 C 272.637 32.500,272.111 32.073,271.467 31.788 C 270.824 31.503,270.124 30.888,269.911 30.421 C 269.613 29.767,269.037 29.514,267.399 29.317 C 265.022 29.031,131.144 29.043,130.051 29.329 M101.420 142.617 C 102.440 143.595,103.029 143.781,105.940 144.046 C 109.050 144.330,111.443 145.212,111.443 146.076 C 111.443 146.492,113.699 147.264,114.912 147.264 C 116.492 147.264,120.519 151.609,120.848 153.670 C 121.021 154.749,121.494 155.662,122.212 156.302 C 123.610 157.548,123.799 158.925,124.031 169.589 C 124.198 177.269,124.160 177.845,123.433 178.743 L 122.657 179.701 110.252 179.701 C 95.247 179.701,96.716 180.508,96.716 172.276 L 96.716 166.396 95.522 165.174 C 94.866 164.502,94.328 163.780,94.328 163.568 C 94.328 163.357,93.712 163.184,92.958 163.184 C 90.681 163.184,90.348 164.091,90.348 170.290 L 90.348 175.627 91.770 176.968 C 92.551 177.705,93.375 178.308,93.599 178.308 C 93.824 178.308,95.031 179.381,96.282 180.691 C 97.533 182.001,99.116 183.269,99.799 183.507 C 100.483 183.745,101.327 184.375,101.674 184.905 C 102.022 185.436,102.536 185.871,102.817 185.871 C 103.097 185.871,103.910 186.472,104.623 187.208 C 105.335 187.943,106.623 188.756,107.484 189.014 C 108.554 189.335,109.243 189.857,109.660 190.662 C 109.995 191.310,110.435 191.841,110.638 191.841 C 110.840 191.841,112.265 193.095,113.803 194.627 C 115.342 196.159,116.851 197.413,117.157 197.413 C 117.464 197.413,117.940 197.957,118.215 198.622 C 118.491 199.287,119.065 200.018,119.491 200.246 C 119.918 200.474,120.526 201.281,120.842 202.039 C 121.159 202.797,121.688 203.521,122.017 203.648 C 123.099 204.063,123.847 206.209,124.192 209.892 C 124.379 211.886,124.725 213.582,124.960 213.660 C 126.509 214.176,126.567 214.636,126.567 226.271 C 126.567 237.747,126.428 239.019,124.996 240.597 C 124.599 241.035,124.152 242.243,124.003 243.282 C 123.785 244.805,123.468 245.372,122.364 246.215 C 121.611 246.789,120.995 247.589,120.995 247.994 C 120.995 249.166,118.680 251.491,117.078 251.928 C 116.112 252.192,115.394 252.729,114.944 253.526 C 114.407 254.477,113.993 254.728,112.954 254.736 C 111.134 254.749,108.594 255.378,108.274 255.895 C 107.440 257.246,103.808 257.677,93.134 257.694 C 81.661 257.713,80.189 257.557,78.506 256.141 C 77.857 255.595,76.560 255.075,75.420 254.904 C 74.058 254.700,73.112 254.268,72.343 253.499 C 71.732 252.888,70.836 252.262,70.351 252.108 C 69.433 251.817,68.633 251.118,64.787 247.244 C 64.191 246.644,63.495 245.529,63.240 244.768 C 62.984 244.006,62.424 242.994,61.994 242.518 C 61.455 241.922,61.108 240.722,60.876 238.656 C 60.691 237.007,60.339 234.978,60.093 234.147 C 59.307 231.491,59.731 215.520,60.611 214.640 C 61.764 213.488,85.397 213.339,86.802 214.476 C 87.760 215.251,87.761 215.260,87.863 224.541 C 87.919 229.651,88.049 234.203,88.152 234.658 C 88.566 236.486,93.622 237.220,94.158 235.530 C 94.313 235.042,94.952 234.164,95.578 233.580 C 96.714 232.518,96.716 232.508,96.716 227.480 L 96.716 222.443 95.550 221.371 C 94.840 220.718,94.201 219.571,93.919 218.440 C 93.556 216.990,93.206 216.479,92.325 216.114 C 91.677 215.845,91.028 215.166,90.803 214.519 C 90.473 213.573,90.119 213.348,88.602 213.120 C 87.182 212.907,86.575 212.560,85.765 211.499 C 85.199 210.757,84.538 210.149,84.296 210.149 C 83.789 210.149,78.407 206.609,77.811 205.884 C 77.592 205.617,76.735 205.120,75.907 204.778 C 75.079 204.437,74.199 203.714,73.952 203.173 C 73.706 202.632,73.272 202.189,72.988 202.189 C 72.704 202.189,71.972 201.562,71.360 200.796 C 70.749 200.030,70.070 199.402,69.851 199.401 C 67.805 199.389,66.474 198.514,66.046 196.900 C 65.802 195.978,65.175 194.771,64.652 194.218 C 64.129 193.664,63.493 192.589,63.238 191.830 C 62.984 191.070,62.463 190.090,62.082 189.652 C 59.942 187.197,58.618 166.356,60.299 161.592 C 60.627 160.661,60.896 159.287,60.896 158.538 C 60.896 157.621,61.202 156.890,61.833 156.299 C 62.349 155.817,63.081 154.820,63.460 154.083 C 63.838 153.346,64.475 152.658,64.876 152.553 C 65.277 152.448,65.715 151.920,65.851 151.379 C 66.005 150.768,66.591 150.189,67.401 149.851 C 68.118 149.551,68.913 148.847,69.169 148.285 C 69.442 147.687,69.963 147.264,70.425 147.264 C 70.860 147.264,71.821 146.733,72.560 146.084 C 74.254 144.597,75.608 144.080,77.810 144.080 C 79.279 144.080,79.677 143.899,80.382 142.908 C 81.418 141.453,81.998 141.383,92.412 141.445 L 100.247 141.493 101.420 142.617 M240.726 142.790 C 241.586 143.837,242.079 144.086,243.289 144.083 C 245.327 144.078,250.204 145.470,251.025 146.291 C 251.392 146.659,252.187 147.132,252.791 147.342 C 253.395 147.553,254.251 148.338,254.692 149.086 C 255.134 149.835,255.676 150.448,255.897 150.448 C 256.664 150.448,259.902 154.059,260.899 156.028 C 261.452 157.118,262.063 158.010,262.256 158.010 C 262.889 158.010,263.483 160.463,263.483 163.080 C 263.483 165.431,263.582 165.731,264.677 166.692 L 265.871 167.739 265.871 199.769 L 265.871 231.798 264.823 233.310 C 264.032 234.450,263.704 235.548,263.485 237.782 C 263.255 240.137,262.940 241.127,261.946 242.628 C 261.259 243.666,260.697 244.759,260.697 245.057 C 260.697 245.355,260.078 245.964,259.321 246.410 C 258.565 246.857,257.836 247.569,257.701 247.993 C 257.566 248.418,256.944 249.030,256.318 249.353 C 255.693 249.677,255.062 250.317,254.916 250.776 C 254.770 251.234,254.176 251.777,253.594 251.980 C 253.013 252.184,252.248 252.858,251.894 253.478 C 251.424 254.301,250.744 254.733,249.370 255.079 C 248.335 255.339,247.092 255.812,246.608 256.129 C 243.003 258.492,220.728 258.534,218.016 256.184 C 217.208 255.485,216.257 255.178,214.336 254.999 C 210.962 254.684,211.166 254.822,205.274 248.853 C 200.953 244.476,200.199 243.528,200.199 242.469 C 200.199 241.648,199.854 240.907,199.182 240.283 C 198.445 239.600,198.132 238.856,198.044 237.581 C 197.977 236.613,197.715 234.823,197.462 233.604 C 197.129 232.003,197.034 222.435,197.119 199.176 C 197.245 164.730,197.321 163.303,199.243 159.689 C 199.769 158.700,200.199 157.569,200.199 157.175 C 200.199 156.781,200.826 155.980,201.592 155.396 C 202.358 154.812,202.985 154.091,202.985 153.794 C 202.985 153.497,203.488 152.994,204.102 152.677 C 204.716 152.359,205.421 151.654,205.669 151.109 C 205.918 150.564,206.492 150.001,206.945 149.857 C 207.399 149.713,208.030 149.092,208.349 148.476 C 208.684 147.827,209.393 147.243,210.036 147.086 C 210.645 146.937,211.785 146.376,212.569 145.839 C 213.384 145.279,215.227 144.627,216.878 144.312 C 218.804 143.945,220.091 143.454,220.750 142.835 C 222.050 141.614,224.227 141.360,232.766 141.433 L 239.660 141.493 240.726 142.790 M193.035 144.876 C 193.791 145.631,193.831 146.202,193.831 156.175 C 193.831 169.772,194.735 168.517,184.822 168.682 C 180.329 168.757,177.130 168.976,176.826 169.229 C 176.420 169.565,176.318 178.084,176.318 211.591 C 176.318 251.037,176.277 253.569,175.622 254.144 C 175.239 254.480,174.309 255.241,173.555 255.835 L 172.184 256.915 159.293 256.915 L 146.402 256.915 145.241 255.616 L 144.080 254.316 144.074 212.034 C 144.070 188.778,143.935 169.543,143.772 169.287 C 143.570 168.970,141.170 168.781,136.180 168.690 C 126.491 168.514,127.363 169.751,127.363 156.175 C 127.363 146.202,127.403 145.631,128.159 144.876 C 128.942 144.093,129.486 144.080,160.597 144.080 C 191.708 144.080,192.252 144.093,193.035 144.876 M318.693 144.726 C 319.740 145.082,321.003 145.692,321.500 146.083 C 321.997 146.473,323.303 146.917,324.403 147.068 C 325.946 147.280,326.589 147.595,327.218 148.445 C 327.687 149.080,328.734 149.756,329.688 150.039 C 331.931 150.704,332.241 151.022,332.935 153.356 C 333.264 154.465,333.921 155.786,334.395 156.290 C 335.871 157.861,336.095 160.843,336.107 179.104 C 336.120 197.728,335.987 199.586,334.510 201.341 C 333.979 201.972,333.351 203.396,333.113 204.505 C 332.712 206.371,332.514 206.622,330.478 207.839 C 326.387 210.283,325.775 210.546,324.168 210.547 C 322.886 210.547,322.356 210.786,321.518 211.741 L 320.470 212.935 313.501 212.935 C 309.669 212.935,306.249 213.044,305.903 213.177 C 305.340 213.393,305.274 215.588,305.274 233.867 L 305.274 254.316 304.112 255.616 L 302.951 256.915 290.083 256.915 L 277.214 256.915 275.292 255.765 C 272.450 254.063,272.610 257.576,272.728 199.455 C 272.840 144.409,272.814 145.171,274.562 144.531 C 276.575 143.793,316.465 143.970,318.693 144.726 M230.018 164.263 C 229.355 166.007,229.472 235.215,230.139 235.882 C 230.494 236.236,231.031 236.299,231.846 236.082 L 233.035 235.764 233.124 200.767 L 233.213 165.771 232.035 164.478 C 230.608 162.911,230.535 162.903,230.018 164.263 M305.751 166.050 C 304.987 166.814,305.077 190.386,305.847 191.025 C 307.043 192.017,308.615 191.370,309.180 189.652 C 309.932 187.361,309.697 167.180,308.906 166.230 C 308.270 165.463,306.442 165.359,305.751 166.050 " stroke="none" fill="#fc0504" fill-rule="evenodd"></path><path id="path1" d="M127.761 28.548 C 126.843 28.896,28.501 127.351,27.313 129.110 L 26.269 130.658 26.269 200.692 C 26.269 264.169,26.328 270.852,26.908 272.072 C 27.783 273.917,126.381 372.500,128.047 373.196 C 130.502 374.222,268.476 373.960,270.171 372.926 C 272.697 371.386,370.575 273.133,370.976 271.735 C 371.470 270.010,371.468 130.927,370.973 129.626 C 370.624 128.708,273.991 31.692,271.096 29.353 L 269.741 28.259 199.050 28.290 C 160.169 28.307,128.090 28.423,127.761 28.548 M267.399 29.317 C 269.037 29.514,269.613 29.767,269.911 30.421 C 270.124 30.888,270.824 31.503,271.467 31.788 C 272.111 32.073,272.637 32.500,272.637 32.738 C 272.637 33.247,276.886 37.413,277.404 37.413 C 277.598 37.413,277.875 37.784,278.019 38.236 C 278.162 38.689,278.821 39.389,279.483 39.791 C 280.144 40.194,280.895 40.943,281.150 41.455 C 281.406 41.968,282.103 42.622,282.698 42.907 C 283.294 43.193,283.781 43.585,283.781 43.778 C 283.781 44.206,290.816 51.342,291.241 51.346 C 291.407 51.347,291.844 51.878,292.212 52.526 C 292.580 53.173,293.326 53.814,293.869 53.951 C 294.477 54.103,294.952 54.578,295.104 55.186 C 295.240 55.729,295.882 56.474,296.529 56.843 C 297.177 57.211,297.708 57.666,297.709 57.854 C 297.713 58.345,301.922 62.488,302.417 62.488 C 302.645 62.488,302.950 62.858,303.093 63.311 C 303.237 63.764,303.896 64.464,304.557 64.866 C 305.219 65.268,305.968 66.014,306.221 66.522 C 306.475 67.031,307.099 67.654,307.607 67.908 C 308.116 68.162,308.861 68.910,309.263 69.572 C 309.666 70.233,310.365 70.892,310.818 71.036 C 311.271 71.180,311.642 71.468,311.642 71.677 C 311.642 71.992,312.764 73.151,316.526 76.723 C 316.695 76.884,317.273 77.463,317.810 78.010 C 318.347 78.557,319.082 79.296,319.443 79.652 C 320.767 80.956,321.932 82.129,323.797 84.034 C 324.304 84.552,324.905 85.154,325.134 85.373 C 325.363 85.592,326.525 86.801,327.716 88.060 C 328.907 89.318,330.031 90.349,330.214 90.351 C 330.397 90.352,330.862 90.907,331.247 91.583 C 331.632 92.259,332.297 92.904,332.726 93.016 C 333.154 93.128,333.863 93.827,334.301 94.570 C 334.739 95.313,335.366 95.920,335.694 95.920 C 336.022 95.920,336.492 96.298,336.739 96.759 C 337.339 97.880,343.545 104.065,344.399 104.392 C 344.771 104.535,345.075 104.867,345.075 105.130 C 345.075 105.873,346.315 107.065,347.087 107.065 C 347.502 107.065,347.951 107.546,348.199 108.258 C 348.427 108.914,349.072 109.659,349.631 109.914 C 350.190 110.168,350.647 110.520,350.647 110.695 C 350.647 111.148,357.702 118.209,358.154 118.209 C 358.360 118.209,358.898 118.836,359.350 119.602 C 359.802 120.368,360.442 120.995,360.772 120.995 C 361.102 120.995,361.649 121.529,361.987 122.182 C 362.324 122.835,363.135 123.646,363.788 123.984 C 364.441 124.321,364.975 124.860,364.975 125.181 C 364.975 125.501,365.600 126.168,366.363 126.663 C 367.127 127.158,367.754 127.755,367.756 127.990 C 367.759 128.226,368.209 128.839,368.756 129.353 L 369.751 130.288 369.751 200.713 L 369.751 271.139 368.557 272.499 C 367.900 273.247,367.363 273.993,367.363 274.157 C 367.363 274.321,366.837 274.766,366.193 275.146 C 365.550 275.526,364.910 276.194,364.772 276.629 C 364.634 277.065,363.999 277.692,363.361 278.022 C 362.723 278.351,362.098 279.031,361.972 279.531 C 361.841 280.054,361.248 280.627,360.577 280.881 C 359.928 281.126,359.235 281.782,359.015 282.362 C 358.797 282.935,358.303 283.523,357.916 283.668 C 357.160 283.953,353.036 288.011,353.032 288.476 C 353.031 288.630,352.494 289.061,351.838 289.434 C 351.183 289.807,350.647 290.385,350.647 290.718 C 350.647 291.050,350.112 291.599,349.459 291.937 C 348.805 292.275,348.162 292.985,348.029 293.513 C 347.881 294.101,347.338 294.632,346.631 294.878 C 345.995 295.100,345.266 295.738,345.012 296.297 C 344.757 296.856,344.397 297.313,344.212 297.313 C 343.657 297.313,336.716 304.483,336.716 305.056 C 336.716 305.347,336.259 305.700,335.700 305.840 C 335.128 305.984,334.329 306.698,333.870 307.476 C 333.422 308.235,332.799 308.856,332.485 308.856 C 332.170 308.856,331.544 309.483,331.092 310.249 C 330.639 311.015,330.074 311.642,329.834 311.642 C 329.329 311.642,325.174 315.835,325.174 316.346 C 325.174 316.534,324.731 316.890,324.190 317.137 C 323.649 317.383,323.095 318.027,322.959 318.567 C 322.811 319.157,322.277 319.701,321.622 319.930 C 320.985 320.152,320.323 320.811,320.033 321.514 C 319.740 322.219,319.140 322.816,318.580 322.956 C 318.056 323.088,317.350 323.730,317.012 324.384 C 316.674 325.037,316.235 325.572,316.036 325.572 C 315.596 325.572,311.245 329.808,311.241 330.240 C 311.240 330.409,310.703 330.852,310.047 331.225 C 309.392 331.598,308.856 332.176,308.856 332.509 C 308.856 332.841,308.321 333.390,307.668 333.728 C 307.015 334.066,306.205 334.876,305.867 335.529 C 305.529 336.182,305.090 336.716,304.890 336.716 C 304.407 336.716,297.313 343.769,297.313 344.249 C 297.313 344.455,296.945 344.740,296.495 344.883 C 296.044 345.026,295.390 345.742,295.041 346.474 C 294.680 347.232,294.008 347.905,293.479 348.037 C 292.969 348.165,292.275 348.805,291.937 349.459 C 291.599 350.112,291.158 350.647,290.956 350.647 C 290.441 350.647,283.987 357.097,283.667 357.932 C 283.522 358.310,282.960 358.788,282.417 358.994 C 281.875 359.200,281.149 359.914,280.805 360.580 C 280.460 361.246,279.908 361.791,279.578 361.791 C 279.248 361.791,278.608 362.418,278.156 363.184 C 277.704 363.950,277.169 364.577,276.967 364.577 C 276.512 364.577,272.239 368.814,272.239 369.265 C 272.239 369.445,271.428 369.987,270.437 370.468 L 268.635 371.343 198.982 371.343 C 122.781 371.343,127.935 371.508,125.638 368.996 C 125.017 368.317,124.384 367.761,124.231 367.761 C 124.078 367.761,123.635 367.224,123.247 366.567 C 122.859 365.910,122.277 365.373,121.954 365.373 C 121.631 365.373,121.013 364.775,120.581 364.043 C 120.150 363.311,119.350 362.509,118.804 362.260 C 118.258 362.012,117.811 361.617,117.811 361.383 C 117.811 360.861,108.526 351.630,107.669 351.302 C 107.330 351.172,106.884 350.621,106.678 350.079 C 106.472 349.537,105.758 348.811,105.092 348.467 C 104.426 348.122,103.881 347.701,103.881 347.531 C 103.881 347.066,94.569 337.669,93.587 337.144 C 93.119 336.893,92.736 336.420,92.736 336.092 C 92.736 335.764,92.109 335.126,91.343 334.674 C 90.577 334.222,89.950 333.672,89.950 333.452 C 89.950 333.023,85.006 328.148,82.901 326.501 C 82.198 325.951,81.514 325.157,81.380 324.736 C 81.247 324.316,80.626 323.707,80.000 323.383 C 79.374 323.060,78.759 322.479,78.633 322.094 C 78.508 321.708,77.778 320.988,77.013 320.494 C 76.248 319.999,75.622 319.416,75.622 319.198 C 75.622 318.770,71.728 314.827,71.303 314.825 C 71.161 314.824,70.687 314.287,70.249 313.632 C 69.811 312.976,69.223 312.440,68.942 312.439 C 68.661 312.438,68.066 311.819,67.619 311.062 C 67.173 310.306,66.461 309.577,66.036 309.442 C 65.612 309.308,64.990 308.665,64.653 308.014 C 64.317 307.364,63.602 306.631,63.065 306.387 C 62.529 306.142,62.090 305.806,62.090 305.640 C 62.090 305.220,54.940 298.109,54.517 298.109 C 54.328 298.109,53.938 297.619,53.650 297.019 C 53.362 296.419,52.647 295.697,52.060 295.416 C 51.473 295.135,50.881 294.555,50.746 294.127 C 50.610 293.700,49.972 293.039,49.329 292.659 C 48.686 292.279,48.159 291.842,48.159 291.688 C 48.159 291.293,41.001 284.179,40.604 284.179 C 40.425 284.179,39.908 283.552,39.456 282.786 C 39.004 282.020,38.365 281.393,38.037 281.393 C 37.709 281.393,37.236 281.010,36.985 280.541 C 36.617 279.853,31.854 275.048,29.235 272.721 C 28.734 272.276,28.657 262.741,28.657 201.000 L 28.657 129.792 31.741 126.742 C 33.438 125.064,35.229 123.422,35.721 123.094 C 36.214 122.765,36.617 122.322,36.617 122.109 C 36.617 121.784,37.701 120.679,41.491 117.146 C 41.765 116.890,42.975 115.667,44.179 114.428 C 45.383 113.189,46.682 112.005,47.065 111.795 C 47.448 111.586,47.761 111.270,47.761 111.093 C 47.761 110.916,48.735 109.802,49.926 108.619 C 52.690 105.872,52.693 105.869,55.493 103.170 C 56.790 101.919,58.671 100.007,59.672 98.920 C 60.673 97.834,61.914 96.580,62.430 96.134 C 62.945 95.688,63.662 95.013,64.022 94.634 C 64.382 94.255,70.050 88.578,76.617 82.020 C 83.184 75.461,88.787 69.861,89.068 69.575 C 90.197 68.424,94.083 64.551,94.683 63.979 C 95.035 63.642,95.690 62.945,96.138 62.430 C 96.587 61.914,97.840 60.663,98.924 59.650 C 100.569 58.112,103.752 54.919,105.956 52.595 C 106.237 52.298,107.444 51.134,108.636 50.008 C 109.829 48.882,111.620 47.078,112.616 46.001 C 113.613 44.923,114.862 43.669,115.392 43.215 C 115.922 42.760,116.638 42.078,116.984 41.699 C 121.490 36.756,129.063 29.587,130.051 29.329 C 131.144 29.043,265.022 29.031,267.399 29.317 M82.897 141.567 C 81.597 141.698,81.028 142.001,80.382 142.908 C 79.677 143.899,79.279 144.080,77.810 144.080 C 75.608 144.080,74.254 144.597,72.560 146.084 C 71.821 146.733,70.860 147.264,70.425 147.264 C 69.963 147.264,69.442 147.687,69.169 148.285 C 68.913 148.847,68.118 149.551,67.401 149.851 C 66.591 150.189,66.005 150.768,65.851 151.379 C 65.715 151.920,65.277 152.448,64.876 152.553 C 64.475 152.658,63.838 153.346,63.460 154.083 C 63.081 154.820,62.349 155.817,61.833 156.299 C 61.202 156.890,60.896 157.621,60.896 158.538 C 60.896 159.287,60.627 160.661,60.299 161.592 C 58.618 166.356,59.942 187.197,62.082 189.652 C 62.463 190.090,62.984 191.070,63.238 191.830 C 63.493 192.589,64.129 193.664,64.652 194.218 C 65.175 194.771,65.802 195.978,66.046 196.900 C 66.474 198.514,67.805 199.389,69.851 199.401 C 70.070 199.402,70.749 200.030,71.360 200.796 C 71.972 201.562,72.704 202.189,72.988 202.189 C 73.272 202.189,73.706 202.632,73.952 203.173 C 74.199 203.714,75.079 204.437,75.907 204.778 C 76.735 205.120,77.592 205.617,77.811 205.884 C 78.407 206.609,83.789 210.149,84.296 210.149 C 84.538 210.149,85.199 210.757,85.765 211.499 C 86.575 212.560,87.182 212.907,88.602 213.120 C 90.119 213.348,90.473 213.573,90.803 214.519 C 91.028 215.166,91.677 215.845,92.325 216.114 C 93.206 216.479,93.556 216.990,93.919 218.440 C 94.201 219.571,94.840 220.718,95.550 221.371 L 96.716 222.443 96.716 227.480 C 96.716 232.508,96.714 232.518,95.578 233.580 C 94.952 234.164,94.313 235.042,94.158 235.530 C 93.622 237.220,88.566 236.486,88.152 234.658 C 88.049 234.203,87.919 229.651,87.863 224.541 C 87.761 215.260,87.760 215.251,86.802 214.476 C 85.397 213.339,61.764 213.488,60.611 214.640 C 59.731 215.520,59.307 231.491,60.093 234.147 C 60.339 234.978,60.691 237.007,60.876 238.656 C 61.108 240.722,61.455 241.922,61.994 242.518 C 62.424 242.994,62.984 244.006,63.240 244.768 C 63.495 245.529,64.191 246.644,64.787 247.244 C 68.633 251.118,69.433 251.817,70.351 252.108 C 70.836 252.262,71.732 252.888,72.343 253.499 C 73.112 254.268,74.058 254.700,75.420 254.904 C 76.560 255.075,77.857 255.595,78.506 256.141 C 81.418 258.591,106.737 258.382,108.274 255.895 C 108.594 255.378,111.134 254.749,112.954 254.736 C 113.993 254.728,114.407 254.477,114.944 253.526 C 115.394 252.729,116.112 252.192,117.078 251.928 C 118.680 251.491,120.995 249.166,120.995 247.994 C 120.995 247.589,121.611 246.789,122.364 246.215 C 123.468 245.372,123.785 244.805,124.003 243.282 C 124.152 242.243,124.599 241.035,124.996 240.597 C 126.428 239.019,126.567 237.747,126.567 226.271 C 126.567 214.636,126.509 214.176,124.960 213.660 C 124.725 213.582,124.379 211.886,124.192 209.892 C 123.847 206.209,123.099 204.063,122.017 203.648 C 121.688 203.521,121.159 202.797,120.842 202.039 C 120.526 201.281,119.918 200.474,119.491 200.246 C 119.065 200.018,118.491 199.287,118.215 198.622 C 117.940 197.957,117.464 197.413,117.157 197.413 C 116.851 197.413,115.342 196.159,113.803 194.627 C 112.265 193.095,110.840 191.841,110.638 191.841 C 110.435 191.841,109.995 191.310,109.660 190.662 C 109.243 189.857,108.554 189.335,107.484 189.014 C 106.623 188.756,105.335 187.943,104.623 187.208 C 103.910 186.472,103.097 185.871,102.817 185.871 C 102.536 185.871,102.022 185.436,101.674 184.905 C 101.327 184.375,100.483 183.745,99.799 183.507 C 99.116 183.269,97.533 182.001,96.282 180.691 C 95.031 179.381,93.824 178.308,93.599 178.308 C 93.375 178.308,92.551 177.705,91.770 176.968 L 90.348 175.627 90.348 170.290 C 90.348 164.091,90.681 163.184,92.958 163.184 C 93.712 163.184,94.328 163.357,94.328 163.568 C 94.328 163.780,94.866 164.502,95.522 165.174 L 96.716 166.396 96.716 172.276 C 96.716 180.508,95.247 179.701,110.252 179.701 L 122.657 179.701 123.433 178.743 C 124.160 177.845,124.198 177.269,124.031 169.589 C 123.799 158.925,123.610 157.548,122.212 156.302 C 121.494 155.662,121.021 154.749,120.848 153.670 C 120.519 151.609,116.492 147.264,114.912 147.264 C 113.699 147.264,111.443 146.492,111.443 146.076 C 111.443 145.212,109.050 144.330,105.940 144.046 C 103.029 143.781,102.440 143.595,101.420 142.617 L 100.247 141.493 92.412 141.445 C 88.103 141.419,83.821 141.474,82.897 141.567 M223.804 141.641 C 222.458 141.815,221.393 142.232,220.750 142.835 C 220.091 143.454,218.804 143.945,216.878 144.312 C 215.227 144.627,213.384 145.279,212.569 145.839 C 211.785 146.376,210.645 146.937,210.036 147.086 C 209.393 147.243,208.684 147.827,208.349 148.476 C 208.030 149.092,207.399 149.713,206.945 149.857 C 206.492 150.001,205.918 150.564,205.669 151.109 C 205.421 151.654,204.716 152.359,204.102 152.677 C 203.488 152.994,202.985 153.497,202.985 153.794 C 202.985 154.091,202.358 154.812,201.592 155.396 C 200.826 155.980,200.199 156.781,200.199 157.175 C 200.199 157.569,199.769 158.700,199.243 159.689 C 197.321 163.303,197.245 164.730,197.119 199.176 C 197.034 222.435,197.129 232.003,197.462 233.604 C 197.715 234.823,197.977 236.613,198.044 237.581 C 198.132 238.856,198.445 239.600,199.182 240.283 C 199.854 240.907,200.199 241.648,200.199 242.469 C 200.199 243.528,200.953 244.476,205.274 248.853 C 211.166 254.822,210.962 254.684,214.336 254.999 C 216.257 255.178,217.208 255.485,218.016 256.184 C 220.728 258.534,243.003 258.492,246.608 256.129 C 247.092 255.812,248.335 255.339,249.370 255.079 C 250.744 254.733,251.424 254.301,251.894 253.478 C 252.248 252.858,253.013 252.184,253.594 251.980 C 254.176 251.777,254.770 251.234,254.916 250.776 C 255.062 250.317,255.693 249.677,256.318 249.353 C 256.944 249.030,257.566 248.418,257.701 247.993 C 257.836 247.569,258.565 246.857,259.321 246.410 C 260.078 245.964,260.697 245.355,260.697 245.057 C 260.697 244.759,261.259 243.666,261.946 242.628 C 262.940 241.127,263.255 240.137,263.485 237.782 C 263.704 235.548,264.032 234.450,264.823 233.310 L 265.871 231.798 265.871 199.769 L 265.871 167.739 264.677 166.692 C 263.582 165.731,263.483 165.431,263.483 163.080 C 263.483 160.463,262.889 158.010,262.256 158.010 C 262.063 158.010,261.452 157.118,260.899 156.028 C 259.902 154.059,256.664 150.448,255.897 150.448 C 255.676 150.448,255.134 149.835,254.692 149.086 C 254.251 148.338,253.395 147.553,252.791 147.342 C 252.187 147.132,251.392 146.659,251.025 146.291 C 250.204 145.470,245.327 144.078,243.289 144.083 C 242.079 144.086,241.586 143.837,240.726 142.790 L 239.660 141.493 232.766 141.433 C 228.973 141.401,224.941 141.494,223.804 141.641 M100.314 144.090 C 101.118 144.663,102.365 144.968,104.617 145.141 C 107.283 145.347,107.987 145.557,109.046 146.460 C 109.738 147.050,111.320 147.854,112.563 148.246 C 116.661 149.538,120.995 155.128,120.995 159.122 C 120.995 159.585,121.443 160.624,121.990 161.431 C 122.956 162.854,122.985 163.099,122.985 169.718 C 122.985 179.241,124.365 178.308,110.275 178.308 C 96.408 178.308,97.764 179.090,97.569 170.985 C 97.376 162.950,96.435 161.496,91.826 162.114 C 87.500 162.694,87.342 176.575,91.628 179.443 C 92.495 180.023,94.129 181.305,95.259 182.293 C 96.389 183.280,98.588 184.935,100.147 185.970 C 101.705 187.005,103.207 188.125,103.483 188.458 C 103.760 188.791,104.749 189.402,105.681 189.814 C 106.659 190.246,108.792 191.992,110.716 193.934 C 112.553 195.787,114.622 197.596,115.315 197.954 C 117.972 199.328,122.701 207.388,122.966 210.994 C 123.162 213.655,123.346 214.246,124.283 215.224 L 125.373 216.362 125.373 226.336 C 125.373 235.881,125.337 236.357,124.533 237.378 C 124.072 237.965,123.427 239.615,123.101 241.045 C 122.740 242.627,122.091 244.139,121.443 244.907 C 120.857 245.601,120.120 246.676,119.806 247.294 C 119.492 247.913,118.878 248.611,118.441 248.845 C 118.003 249.079,116.539 250.140,115.187 251.203 C 113.835 252.265,112.485 253.137,112.186 253.139 C 111.886 253.142,110.506 253.500,109.119 253.935 C 107.731 254.370,106.145 254.726,105.594 254.726 C 105.043 254.726,104.060 255.174,103.410 255.721 L 102.227 256.716 93.157 256.716 C 84.787 256.716,84.012 256.657,83.107 255.945 C 82.568 255.521,81.603 255.057,80.964 254.915 C 78.547 254.376,75.785 253.396,74.826 252.736 C 74.279 252.359,73.175 251.838,72.374 251.578 C 70.721 251.042,65.036 245.640,64.407 244.007 C 64.191 243.445,63.746 241.463,63.420 239.602 C 63.093 237.741,62.481 235.660,62.060 234.978 C 61.000 233.262,60.880 216.590,61.919 215.551 C 63.074 214.396,85.323 214.634,86.147 215.810 C 86.665 216.550,86.767 218.253,86.772 226.258 C 86.779 236.519,86.759 236.395,88.571 237.323 C 91.916 239.036,93.712 238.699,95.904 235.946 L 97.512 233.926 97.501 227.510 L 97.490 221.095 96.307 219.531 C 95.657 218.671,95.124 217.728,95.124 217.434 C 95.124 216.670,90.722 212.277,89.626 211.948 C 89.119 211.796,88.134 211.177,87.437 210.574 C 86.739 209.971,85.184 208.830,83.980 208.039 C 82.776 207.249,81.267 206.191,80.625 205.689 C 79.984 205.187,78.787 204.506,77.965 204.177 C 77.143 203.847,75.217 202.386,73.686 200.931 C 72.036 199.362,70.407 198.176,69.685 198.017 C 68.356 197.725,66.866 196.131,66.866 195.002 C 66.866 194.610,66.445 193.784,65.930 193.165 C 64.587 191.550,64.229 190.743,63.682 188.084 C 63.415 186.784,62.813 185.202,62.344 184.569 C 61.026 182.788,60.802 163.249,62.080 161.521 C 62.533 160.907,63.015 159.822,63.151 159.108 C 63.471 157.423,64.318 155.759,65.730 154.039 C 66.354 153.277,66.866 152.442,66.866 152.182 C 66.866 151.727,69.083 150.144,72.649 148.055 C 73.587 147.505,74.732 146.714,75.194 146.296 C 75.668 145.867,76.981 145.408,78.213 145.241 C 79.413 145.078,80.888 144.577,81.491 144.127 C 83.164 142.879,98.570 142.849,100.314 144.090 M239.756 144.115 C 240.350 144.582,241.770 145.076,242.997 145.243 C 244.307 145.421,245.538 145.865,246.073 146.354 C 246.564 146.802,247.819 147.291,248.863 147.441 C 250.988 147.745,258.266 154.307,259.703 157.214 C 260.082 157.980,260.755 159.004,261.199 159.490 C 261.798 160.146,262.078 161.184,262.283 163.520 C 262.472 165.673,262.831 167.105,263.419 168.057 L 264.279 169.447 264.279 199.925 C 264.279 230.049,264.269 230.418,263.453 231.801 C 262.902 232.735,262.551 234.213,262.398 236.244 C 262.220 238.590,261.964 239.529,261.278 240.343 C 260.790 240.924,260.104 242.082,259.756 242.916 C 259.401 243.765,257.653 245.864,255.782 247.689 C 249.358 253.950,249.115 254.096,244.371 254.541 C 242.002 254.764,241.180 255.020,240.353 255.791 L 239.313 256.761 230.801 256.639 C 222.708 256.523,222.227 256.473,221.031 255.621 C 220.333 255.122,218.387 254.446,216.653 254.099 C 214.937 253.755,213.047 253.129,212.454 252.707 C 211.861 252.285,211.223 251.940,211.037 251.940 C 210.318 251.940,202.261 243.185,201.463 241.537 C 200.998 240.576,200.547 238.708,200.454 237.359 C 200.339 235.673,199.966 234.372,199.248 233.146 L 198.209 231.373 198.209 199.919 L 198.209 168.466 199.078 167.361 C 199.679 166.597,200.108 165.164,200.472 162.709 C 201.154 158.101,201.353 157.763,206.437 152.581 C 210.202 148.745,210.998 148.123,212.736 147.664 C 213.831 147.374,215.532 146.743,216.517 146.260 C 217.502 145.778,219.204 145.169,220.299 144.907 C 221.393 144.645,222.736 144.179,223.284 143.871 C 225.084 142.859,238.409 143.056,239.756 144.115 M128.159 144.876 C 127.403 145.631,127.363 146.202,127.363 156.175 C 127.363 169.751,126.491 168.514,136.180 168.690 C 141.170 168.781,143.570 168.970,143.772 169.287 C 143.935 169.543,144.070 188.778,144.074 212.034 L 144.080 254.316 145.241 255.616 L 146.402 256.915 159.293 256.915 L 172.184 256.915 173.555 255.835 C 174.309 255.241,175.239 254.480,175.622 254.144 C 176.277 253.569,176.318 251.037,176.318 211.591 C 176.318 178.084,176.420 169.565,176.826 169.229 C 177.130 168.976,180.329 168.757,184.822 168.682 C 194.735 168.517,193.831 169.772,193.831 156.175 C 193.831 146.202,193.791 145.631,193.035 144.876 C 192.252 144.093,191.708 144.080,160.597 144.080 C 129.486 144.080,128.942 144.093,128.159 144.876 M274.562 144.531 C 272.814 145.171,272.840 144.409,272.728 199.455 C 272.610 257.576,272.450 254.063,275.292 255.765 L 277.214 256.915 290.083 256.915 L 302.951 256.915 304.112 255.616 L 305.274 254.316 305.274 233.867 C 305.274 215.588,305.340 213.393,305.903 213.177 C 306.249 213.044,309.669 212.935,313.501 212.935 L 320.470 212.935 321.518 211.741 C 322.356 210.786,322.886 210.547,324.168 210.547 C 325.775 210.546,326.387 210.283,330.478 207.839 C 332.514 206.622,332.712 206.371,333.113 204.505 C 333.351 203.396,333.979 201.972,334.510 201.341 C 335.987 199.586,336.120 197.728,336.107 179.104 C 336.095 160.843,335.871 157.861,334.395 156.290 C 333.921 155.786,333.264 154.465,332.935 153.356 C 332.241 151.022,331.931 150.704,329.688 150.039 C 328.734 149.756,327.687 149.080,327.218 148.445 C 326.589 147.595,325.946 147.280,324.403 147.068 C 323.303 146.917,321.997 146.473,321.500 146.083 C 319.037 144.146,318.159 144.078,296.205 144.111 C 283.899 144.130,275.196 144.299,274.562 144.531 M191.867 145.686 C 192.886 146.231,193.072 165.221,192.073 166.591 C 191.555 167.300,190.838 167.380,183.376 167.562 C 177.305 167.711,175.078 167.900,174.587 168.307 C 173.984 168.809,173.930 172.313,173.930 210.965 L 173.930 253.077 172.882 253.901 C 171.319 255.131,147.014 255.193,145.908 253.971 C 145.271 253.267,145.226 250.385,145.250 211.484 C 145.270 178.349,145.170 169.546,144.766 168.756 C 144.258 167.762,144.250 167.761,136.963 167.550 C 130.384 167.359,129.614 167.264,129.113 166.578 C 128.217 165.352,128.309 147.004,129.216 146.001 C 129.991 145.145,190.288 144.841,191.867 145.686 M317.733 146.427 C 319.004 147.060,320.829 147.696,321.788 147.839 C 322.747 147.983,324.195 148.551,325.005 149.100 C 325.815 149.650,327.124 150.362,327.915 150.682 C 330.449 151.708,333.134 156.040,333.134 159.102 C 333.134 159.625,333.582 160.640,334.129 161.358 L 335.124 162.662 335.120 178.744 C 335.117 194.657,335.107 194.847,334.205 196.816 C 333.704 197.910,332.954 199.970,332.540 201.393 C 331.556 204.770,330.963 205.647,328.994 206.635 C 328.097 207.085,326.986 207.798,326.526 208.219 C 326.065 208.640,324.779 209.129,323.668 209.304 C 322.556 209.480,321.142 209.964,320.525 210.380 C 319.555 211.034,318.475 211.156,312.532 211.279 C 303.465 211.468,304.478 208.773,304.478 232.707 C 304.478 253.217,304.412 254.039,302.738 254.488 C 299.794 255.278,277.511 254.713,276.178 253.815 L 274.826 252.904 274.826 199.849 L 274.826 146.795 275.765 146.034 C 276.662 145.309,277.596 145.274,296.064 145.275 L 315.423 145.277 317.733 146.427 M229.591 162.398 C 229.230 162.609,228.465 163.583,227.891 164.561 L 226.848 166.340 226.957 200.501 C 227.075 238.062,226.924 235.792,229.425 237.432 C 230.617 238.213,233.393 237.608,234.023 236.431 C 234.631 235.294,234.577 165.140,233.967 163.801 C 233.352 162.452,230.865 161.654,229.591 162.398 M232.035 164.478 L 233.213 165.771 233.124 200.767 L 233.035 235.764 231.846 236.082 C 229.511 236.706,229.622 238.474,229.614 200.353 C 229.607 161.274,229.573 161.775,232.035 164.478 M304.890 164.750 C 304.270 165.908,304.331 191.535,304.955 192.159 C 305.458 192.662,307.951 192.806,309.023 192.395 C 309.370 192.262,310.201 191.342,310.870 190.351 L 312.086 188.549 311.963 177.611 L 311.841 166.674 310.282 165.327 C 308.398 163.700,305.611 163.401,304.890 164.750 M308.906 166.230 C 309.697 167.180,309.932 187.361,309.180 189.652 C 308.615 191.370,307.043 192.017,305.847 191.025 C 305.077 190.386,304.987 166.814,305.751 166.050 C 306.442 165.359,308.270 165.463,308.906 166.230 " stroke="none" fill="#f15755" fill-rule="evenodd"></path><path id="path2" d="M0.000 199.005 L 0.000 398.010 200.000 398.010 L 400.000 398.010 400.000 199.005 L 400.000 0.000 200.000 0.000 L 0.000 0.000 0.000 199.005 M337.340 16.751 C 338.639 16.989,340.254 17.523,340.930 17.937 C 341.605 18.352,343.462 18.876,345.056 19.102 C 348.201 19.548,348.603 19.701,349.353 20.740 C 349.627 21.119,350.733 21.722,351.810 22.079 C 352.888 22.437,354.007 23.017,354.298 23.367 C 354.588 23.717,355.363 24.247,356.020 24.545 C 356.677 24.843,358.557 26.244,360.199 27.658 C 361.841 29.073,363.661 30.533,364.245 30.902 C 364.828 31.272,365.476 31.948,365.684 32.405 C 365.892 32.861,366.605 33.862,367.269 34.627 C 370.895 38.809,371.741 39.900,371.741 40.392 C 371.741 40.690,372.191 41.469,372.741 42.122 C 373.291 42.776,374.014 44.083,374.347 45.027 C 374.680 45.971,375.293 47.107,375.708 47.551 C 376.743 48.656,377.313 50.298,377.313 52.173 C 377.313 53.038,377.753 55.003,378.289 56.539 C 380.139 61.832,380.100 58.725,380.100 200.736 C 380.100 342.400,380.127 340.191,378.303 345.412 C 377.759 346.970,377.313 348.880,377.313 349.657 C 377.313 351.316,376.515 353.406,375.587 354.176 C 375.226 354.475,374.732 355.457,374.490 356.359 C 374.247 357.260,373.529 358.653,372.895 359.454 C 372.260 360.255,371.741 361.183,371.741 361.516 C 371.741 361.849,371.192 362.629,370.521 363.250 C 369.850 363.870,369.054 364.826,368.753 365.373 C 368.072 366.612,363.813 371.011,361.240 373.134 C 360.179 374.010,358.667 375.308,357.881 376.020 C 357.095 376.731,356.233 377.313,355.968 377.313 C 355.702 377.313,354.949 377.763,354.296 378.313 C 353.642 378.863,352.332 379.587,351.385 379.921 C 350.438 380.255,349.207 380.966,348.649 381.500 C 347.874 382.243,346.906 382.573,344.539 382.902 C 342.837 383.139,340.660 383.669,339.701 384.080 C 335.985 385.673,336.069 385.672,195.224 385.672 C 53.553 385.672,54.307 385.680,50.547 384.027 C 49.562 383.594,47.423 383.070,45.793 382.863 C 43.510 382.574,42.595 382.263,41.807 381.508 C 41.245 380.969,40.010 380.255,39.063 379.921 C 38.115 379.587,36.806 378.863,36.152 378.313 C 35.499 377.763,34.715 377.313,34.411 377.313 C 34.106 377.313,32.911 376.514,31.755 375.536 C 30.598 374.559,29.088 373.286,28.400 372.709 C 25.340 370.143,19.104 363.078,19.104 362.179 C 19.104 362.026,18.577 361.237,17.932 360.426 C 17.288 359.614,16.550 358.291,16.292 357.485 C 16.035 356.679,15.388 355.552,14.855 354.980 C 14.163 354.237,13.781 353.200,13.519 351.353 C 13.318 349.930,12.677 347.849,12.095 346.727 C 10.412 343.483,10.385 341.128,10.388 200.398 C 10.392 60.401,10.414 58.503,12.104 55.246 C 12.706 54.085,13.264 52.205,13.404 50.865 C 13.585 49.138,13.943 48.149,14.763 47.118 C 15.376 46.347,16.091 45.057,16.353 44.251 C 16.616 43.445,17.342 42.198,17.967 41.479 C 18.593 40.760,19.104 39.915,19.104 39.601 C 19.104 38.712,24.514 32.459,27.796 29.556 C 31.715 26.088,33.506 24.677,33.988 24.677 C 34.279 24.677,35.181 24.149,35.992 23.504 C 36.804 22.860,38.127 22.122,38.933 21.864 C 39.739 21.607,40.871 20.955,41.450 20.416 C 42.222 19.696,43.180 19.352,45.059 19.119 C 46.466 18.944,48.231 18.476,48.983 18.079 C 49.734 17.681,51.333 17.137,52.537 16.871 C 55.518 16.210,333.746 16.093,337.340 16.751 M55.522 21.319 C 54.209 21.624,51.556 22.149,49.627 22.485 C 47.699 22.821,45.281 23.517,44.254 24.031 C 43.228 24.545,41.672 25.192,40.796 25.467 C 39.920 25.743,38.843 26.296,38.403 26.697 C 37.962 27.097,36.887 27.721,36.014 28.083 C 35.142 28.444,33.980 29.162,33.433 29.678 C 32.886 30.194,31.531 31.384,30.422 32.323 C 27.954 34.413,25.075 37.545,25.075 38.140 C 25.075 38.381,24.701 38.779,24.245 39.023 C 23.789 39.267,23.141 40.123,22.806 40.924 C 22.472 41.726,21.775 42.884,21.258 43.497 C 20.742 44.111,20.136 45.277,19.912 46.088 C 19.688 46.899,18.967 48.617,18.309 49.907 C 17.652 51.196,17.114 52.719,17.114 53.290 C 17.114 53.861,16.621 56.209,16.019 58.507 L 14.925 62.687 14.925 201.194 C 14.925 330.759,14.969 339.830,15.605 341.692 C 15.979 342.786,16.580 345.294,16.940 347.264 C 17.324 349.365,18.071 351.751,18.747 353.035 C 19.380 354.239,19.899 355.524,19.900 355.890 C 19.900 356.256,20.351 357.091,20.901 357.745 C 21.451 358.399,22.162 359.557,22.480 360.319 C 22.799 361.081,23.605 362.306,24.273 363.041 C 24.940 363.776,26.065 365.041,26.773 365.851 C 27.481 366.661,28.307 367.557,28.609 367.841 C 28.911 368.126,29.730 368.940,30.428 369.652 C 31.127 370.363,31.876 370.945,32.093 370.945 C 32.310 370.945,32.999 371.478,33.623 372.130 C 34.247 372.782,35.400 373.524,36.185 373.779 C 36.970 374.034,38.200 374.755,38.919 375.380 C 39.638 376.006,40.626 376.517,41.114 376.517 C 41.602 376.517,43.078 377.042,44.393 377.684 C 46.749 378.833,47.623 379.025,56.318 380.295 C 62.380 381.180,329.909 381.050,335.522 380.159 C 342.252 379.091,344.791 378.527,345.425 377.961 C 345.779 377.644,347.144 377.080,348.458 376.707 C 349.771 376.334,351.235 375.673,351.710 375.238 C 352.186 374.803,353.485 374.025,354.596 373.510 C 355.708 372.995,356.617 372.425,356.617 372.243 C 356.617 372.062,357.192 371.573,357.895 371.158 C 359.278 370.341,365.373 364.455,365.373 363.936 C 365.373 363.762,365.882 363.074,366.504 362.407 C 367.127 361.740,367.872 360.567,368.161 359.801 C 368.450 359.035,368.993 358.050,369.368 357.612 C 370.326 356.494,370.945 355.206,370.945 354.333 C 370.945 353.924,371.375 352.703,371.900 351.620 C 373.320 348.692,373.682 347.273,374.133 342.857 C 374.358 340.652,374.718 338.235,374.933 337.486 C 375.471 335.610,375.469 66.374,374.931 64.498 C 374.715 63.745,374.349 61.239,374.116 58.928 C 373.658 54.376,373.089 51.890,372.287 50.934 C 372.007 50.599,371.501 49.266,371.164 47.973 C 370.827 46.679,370.124 45.162,369.602 44.601 C 369.080 44.041,368.448 42.940,368.198 42.155 C 367.948 41.370,367.210 40.218,366.558 39.593 C 365.906 38.969,365.373 38.256,365.373 38.009 C 365.373 37.762,364.791 37.002,364.080 36.321 C 363.368 35.639,361.995 34.252,361.028 33.238 C 360.060 32.224,358.762 31.132,358.142 30.811 C 357.522 30.491,357.015 30.044,357.015 29.818 C 357.015 29.593,356.164 29.039,355.124 28.588 C 354.085 28.137,352.786 27.362,352.239 26.867 C 351.692 26.372,350.527 25.742,349.652 25.466 C 348.776 25.191,347.232 24.551,346.220 24.044 C 345.208 23.537,342.790 22.850,340.847 22.516 C 338.903 22.183,336.149 21.643,334.726 21.317 C 330.950 20.452,59.241 20.454,55.522 21.319 M270.846 28.199 C 271.850 28.816,278.078 34.828,280.251 37.278 C 280.607 37.681,283.204 40.269,286.022 43.029 C 288.839 45.789,291.986 48.924,293.015 49.994 C 294.592 51.635,309.978 67.036,311.561 68.558 C 313.052 69.992,363.681 120.660,364.232 121.270 C 364.590 121.666,366.077 123.065,367.537 124.378 C 368.997 125.692,370.541 127.325,370.967 128.007 C 371.727 129.225,371.741 130.598,371.741 201.126 L 371.741 273.004 321.379 323.363 C 289.059 355.682,270.630 373.832,269.936 374.026 C 268.553 374.413,129.102 374.426,127.727 374.039 C 126.686 373.746,29.470 276.943,26.691 273.433 L 25.274 271.642 25.274 201.393 C 25.274 162.756,25.414 130.643,25.585 130.030 C 25.996 128.557,126.170 28.312,127.688 27.854 C 130.266 27.076,269.564 27.412,270.846 28.199 M81.592 145.065 C 81.045 145.373,79.670 145.744,78.537 145.890 C 77.112 146.072,76.202 146.447,75.582 147.107 C 75.090 147.631,74.494 148.060,74.259 148.061 C 74.024 148.061,72.777 148.778,71.489 149.653 C 70.200 150.528,68.922 151.244,68.647 151.244 C 68.372 151.244,67.785 152.015,67.342 152.958 C 66.899 153.900,66.240 154.917,65.879 155.217 C 64.877 156.049,64.080 157.828,64.080 159.231 C 64.080 160.071,63.671 160.957,62.855 161.887 L 61.630 163.281 61.760 172.885 L 61.891 182.488 62.956 183.881 C 63.662 184.803,64.181 186.188,64.494 187.983 C 64.786 189.664,65.304 191.099,65.859 191.764 C 66.350 192.354,67.129 193.694,67.589 194.742 C 68.284 196.324,68.744 196.788,70.292 197.473 C 71.318 197.927,73.216 199.370,74.510 200.680 C 75.930 202.118,77.400 203.211,78.220 203.437 C 78.967 203.643,80.235 204.432,81.039 205.190 C 81.842 205.947,82.734 206.567,83.020 206.567 C 83.306 206.567,84.669 207.421,86.049 208.465 C 87.428 209.508,89.255 210.792,90.107 211.319 C 92.211 212.617,94.921 215.385,96.014 217.352 C 96.510 218.244,97.229 219.541,97.611 220.233 C 98.646 222.106,98.614 232.724,97.566 235.025 C 95.688 239.148,92.818 240.331,89.160 238.490 C 85.987 236.892,85.983 236.875,85.976 225.785 C 85.970 216.667,85.929 216.125,85.200 215.735 C 83.824 214.999,63.074 215.192,62.317 215.949 C 61.788 216.477,61.692 217.859,61.692 224.874 L 61.692 233.173 62.703 234.375 C 63.565 235.400,64.876 240.962,64.876 243.599 C 64.876 244.143,71.529 250.746,72.078 250.746 C 72.381 250.746,73.894 251.371,75.439 252.135 C 76.985 252.898,79.198 253.703,80.357 253.923 C 81.557 254.150,82.976 254.752,83.651 255.320 C 84.834 256.316,84.860 256.318,93.110 256.318 L 101.383 256.318 102.886 255.124 C 103.954 254.275,104.821 253.930,105.886 253.930 C 106.710 253.930,108.342 253.484,109.513 252.939 C 110.684 252.394,111.910 251.945,112.239 251.941 C 112.567 251.937,113.988 251.039,115.395 249.947 C 116.803 248.854,118.097 247.960,118.271 247.960 C 118.444 247.960,118.884 247.378,119.248 246.667 C 119.612 245.955,120.433 244.708,121.071 243.896 C 121.784 242.988,122.351 241.667,122.540 240.472 C 122.709 239.401,123.237 237.896,123.712 237.126 C 125.107 234.869,125.044 217.489,123.634 215.595 C 122.927 214.646,122.625 213.583,122.429 211.356 C 122.269 209.541,121.901 208.014,121.482 207.433 C 121.105 206.910,120.438 205.912,120.000 205.215 C 119.562 204.517,118.732 203.328,118.156 202.571 C 117.579 201.813,116.984 200.787,116.833 200.290 C 116.672 199.761,115.787 198.989,114.697 198.428 C 113.673 197.900,111.433 196.008,109.719 194.223 C 108.004 192.438,106.001 190.726,105.268 190.420 C 104.534 190.113,103.430 189.394,102.813 188.822 C 102.196 188.249,101.154 187.504,100.498 187.166 C 99.101 186.447,97.871 185.543,94.943 183.085 C 93.770 182.100,92.211 180.935,91.480 180.498 C 85.774 177.084,86.168 162.150,91.984 161.353 C 96.962 160.670,98.303 162.709,98.306 170.969 C 98.309 178.282,97.334 177.666,109.213 177.849 C 120.654 178.026,121.663 177.913,122.086 176.400 C 122.955 173.299,122.429 162.882,121.345 161.718 C 120.655 160.977,120.220 159.959,120.060 158.715 C 119.449 153.959,116.549 150.618,111.244 148.559 C 110.368 148.219,109.199 147.525,108.646 147.016 C 107.861 146.293,106.992 146.035,104.666 145.829 C 103.030 145.685,101.088 145.322,100.349 145.022 C 98.411 144.236,83.004 144.271,81.592 145.065 M221.007 145.443 C 219.208 145.927,217.414 146.613,217.021 146.969 C 216.627 147.325,215.413 147.810,214.322 148.046 C 211.929 148.565,210.149 149.245,210.149 149.641 C 210.149 149.801,208.443 151.678,206.357 153.811 C 202.069 158.198,201.536 159.186,201.148 163.471 C 200.914 166.046,200.711 166.670,199.839 167.478 L 198.806 168.435 198.697 199.566 L 198.588 230.698 199.784 232.464 C 200.724 233.851,200.982 234.666,200.988 236.268 C 200.996 238.677,201.895 241.458,202.996 242.483 C 203.428 242.886,203.781 243.383,203.781 243.588 C 203.781 245.890,212.754 252.315,217.690 253.546 C 219.539 254.008,221.598 254.775,222.267 255.252 C 223.397 256.058,224.018 256.128,231.107 256.242 L 238.731 256.365 239.914 255.209 C 240.942 254.204,241.483 254.023,244.056 253.829 C 245.684 253.706,247.631 253.346,248.384 253.029 C 250.392 252.182,258.576 244.087,259.147 242.383 C 259.402 241.619,260.016 240.547,260.511 240.000 C 261.200 239.240,261.479 238.301,261.695 236.020 C 261.851 234.378,262.227 232.431,262.531 231.693 C 263.360 229.682,263.350 170.276,262.521 168.068 C 262.211 167.242,261.867 165.546,261.756 164.297 C 261.645 163.049,261.277 161.527,260.939 160.914 C 260.601 160.302,259.962 159.085,259.520 158.209 C 257.880 154.959,250.666 148.394,248.483 148.164 C 247.199 148.029,246.223 147.642,245.521 146.989 C 244.824 146.339,243.764 145.916,242.337 145.718 C 241.161 145.556,239.808 145.210,239.330 144.950 C 237.698 144.064,224.856 144.409,221.007 145.443 M130.950 146.016 C 129.127 146.348,128.862 147.987,129.031 157.897 C 129.190 167.247,128.478 166.507,137.559 166.766 C 143.884 166.946,144.597 167.038,145.108 167.738 C 145.586 168.393,145.672 174.937,145.672 210.743 C 145.672 243.059,145.784 253.087,146.149 253.453 C 147.043 254.346,171.652 254.112,172.476 253.202 C 173.080 252.535,173.134 248.998,173.134 210.478 L 173.134 168.482 173.971 167.723 C 174.720 167.046,175.667 166.944,182.908 166.766 C 188.804 166.621,191.148 166.426,191.524 166.049 C 192.118 165.453,192.292 146.786,191.708 146.202 C 191.324 145.818,133.026 145.639,130.950 146.016 M277.427 146.017 C 275.878 146.461,275.902 145.610,275.861 200.475 L 275.821 252.691 276.705 253.311 C 277.922 254.163,302.523 254.250,303.224 253.405 C 303.525 253.043,303.695 246.528,303.770 232.475 L 303.881 212.070 304.997 211.110 C 306.069 210.188,306.351 210.149,312.027 210.149 C 316.814 210.149,318.419 209.999,320.462 209.358 C 321.850 208.923,323.353 208.565,323.803 208.562 C 324.253 208.560,325.206 208.126,325.920 207.599 C 326.634 207.072,327.730 206.429,328.356 206.170 C 329.926 205.520,331.279 203.297,332.092 200.036 C 332.469 198.524,333.216 196.538,333.752 195.623 L 334.726 193.960 334.726 178.586 L 334.726 163.212 333.532 161.852 C 332.876 161.104,332.338 160.052,332.338 159.513 C 332.338 156.700,329.246 151.244,327.652 151.244 C 327.316 151.244,325.950 150.637,324.615 149.896 C 323.281 149.154,321.383 148.421,320.398 148.265 C 319.413 148.110,317.801 147.508,316.816 146.927 L 315.025 145.871 296.716 145.803 C 286.647 145.766,277.967 145.862,277.427 146.017 M233.622 162.355 C 235.160 163.450,235.142 163.012,235.184 200.280 C 235.228 239.537,235.409 237.098,232.359 238.366 L 230.388 239.185 228.637 237.901 C 225.979 235.952,226.074 237.361,226.079 199.801 L 226.084 165.771 227.297 163.980 C 229.241 161.112,231.177 160.614,233.622 162.355 M310.647 164.543 L 312.637 166.283 312.760 177.527 L 312.883 188.771 311.567 190.699 C 309.679 193.466,306.831 194.261,304.730 192.608 L 303.682 191.783 303.683 178.578 C 303.684 166.116,303.729 165.300,304.473 164.080 C 305.710 162.050,307.993 162.222,310.647 164.543 " stroke="none" fill="#faf9f9" fill-rule="evenodd"></path><path id="path3" d="M127.688 27.854 C 126.170 28.312,25.996 128.557,25.585 130.030 C 25.414 130.643,25.274 162.756,25.274 201.393 L 25.274 271.642 26.691 273.433 C 29.470 276.943,126.686 373.746,127.727 374.039 C 129.102 374.426,268.553 374.413,269.936 374.026 C 270.630 373.832,289.059 355.682,321.379 323.363 L 371.741 273.004 371.741 201.126 C 371.741 130.598,371.727 129.225,370.967 128.007 C 370.541 127.325,368.997 125.692,367.537 124.378 C 366.077 123.065,364.590 121.666,364.232 121.270 C 363.681 120.660,313.052 69.992,311.561 68.558 C 309.978 67.036,294.592 51.635,293.015 49.994 C 291.986 48.924,288.839 45.789,286.022 43.029 C 283.204 40.269,280.607 37.681,280.251 37.278 C 278.078 34.828,271.850 28.816,270.846 28.199 C 269.564 27.412,130.266 27.076,127.688 27.854 M271.096 29.353 C 273.991 31.692,370.624 128.708,370.973 129.626 C 371.468 130.927,371.470 270.010,370.976 271.735 C 370.575 273.133,272.697 371.386,270.171 372.926 C 268.476 373.960,130.502 374.222,128.047 373.196 C 126.381 372.500,27.783 273.917,26.908 272.072 C 26.328 270.852,26.269 264.169,26.269 200.692 L 26.269 130.658 27.313 129.110 C 28.501 127.351,126.843 28.896,127.761 28.548 C 128.090 28.423,160.169 28.307,199.050 28.290 L 269.741 28.259 271.096 29.353 M81.491 144.127 C 80.888 144.577,79.413 145.078,78.213 145.241 C 76.981 145.408,75.668 145.867,75.194 146.296 C 74.732 146.714,73.587 147.505,72.649 148.055 C 69.083 150.144,66.866 151.727,66.866 152.182 C 66.866 152.442,66.354 153.277,65.730 154.039 C 64.318 155.759,63.471 157.423,63.151 159.108 C 63.015 159.822,62.533 160.907,62.080 161.521 C 60.802 163.249,61.026 182.788,62.344 184.569 C 62.813 185.202,63.415 186.784,63.682 188.084 C 64.229 190.743,64.587 191.550,65.930 193.165 C 66.445 193.784,66.866 194.610,66.866 195.002 C 66.866 196.131,68.356 197.725,69.685 198.017 C 70.407 198.176,72.036 199.362,73.686 200.931 C 75.217 202.386,77.143 203.847,77.965 204.177 C 78.787 204.506,79.984 205.187,80.625 205.689 C 81.267 206.191,82.776 207.249,83.980 208.039 C 85.184 208.830,86.739 209.971,87.437 210.574 C 88.134 211.177,89.119 211.796,89.626 211.948 C 90.722 212.277,95.124 216.670,95.124 217.434 C 95.124 217.728,95.657 218.671,96.307 219.531 L 97.490 221.095 97.501 227.510 L 97.512 233.926 95.904 235.946 C 93.712 238.699,91.916 239.036,88.571 237.323 C 86.759 236.395,86.779 236.519,86.772 226.258 C 86.767 218.253,86.665 216.550,86.147 215.810 C 85.323 214.634,63.074 214.396,61.919 215.551 C 60.880 216.590,61.000 233.262,62.060 234.978 C 62.481 235.660,63.093 237.741,63.420 239.602 C 63.746 241.463,64.191 243.445,64.407 244.007 C 65.036 245.640,70.721 251.042,72.374 251.578 C 73.175 251.838,74.279 252.359,74.826 252.736 C 75.785 253.396,78.547 254.376,80.964 254.915 C 81.603 255.057,82.568 255.521,83.107 255.945 C 84.012 256.657,84.787 256.716,93.157 256.716 L 102.227 256.716 103.410 255.721 C 104.060 255.174,105.043 254.726,105.594 254.726 C 106.145 254.726,107.731 254.370,109.119 253.935 C 110.506 253.500,111.886 253.142,112.186 253.139 C 112.485 253.137,113.835 252.265,115.187 251.203 C 116.539 250.140,118.003 249.079,118.441 248.845 C 118.878 248.611,119.492 247.913,119.806 247.294 C 120.120 246.676,120.857 245.601,121.443 244.907 C 122.091 244.139,122.740 242.627,123.101 241.045 C 123.427 239.615,124.072 237.965,124.533 237.378 C 125.337 236.357,125.373 235.881,125.373 226.336 L 125.373 216.362 124.283 215.224 C 123.346 214.246,123.162 213.655,122.966 210.994 C 122.701 207.388,117.972 199.328,115.315 197.954 C 114.622 197.596,112.553 195.787,110.716 193.934 C 108.792 191.992,106.659 190.246,105.681 189.814 C 104.749 189.402,103.760 188.791,103.483 188.458 C 103.207 188.125,101.705 187.005,100.147 185.970 C 98.588 184.935,96.389 183.280,95.259 182.293 C 94.129 181.305,92.495 180.023,91.628 179.443 C 89.371 177.933,88.745 175.841,88.796 169.979 C 88.851 163.574,89.282 162.455,91.826 162.114 C 96.435 161.496,97.376 162.950,97.569 170.985 C 97.764 179.090,96.408 178.308,110.275 178.308 C 124.365 178.308,122.985 179.241,122.985 169.718 C 122.985 163.099,122.956 162.854,121.990 161.431 C 121.443 160.624,120.995 159.585,120.995 159.122 C 120.995 155.128,116.661 149.538,112.563 148.246 C 111.320 147.854,109.738 147.050,109.046 146.460 C 107.987 145.557,107.283 145.347,104.617 145.141 C 102.365 144.968,101.118 144.663,100.314 144.090 C 98.570 142.849,83.164 142.879,81.491 144.127 M223.284 143.871 C 222.736 144.179,221.393 144.645,220.299 144.907 C 219.204 145.169,217.502 145.778,216.517 146.260 C 215.532 146.743,213.831 147.374,212.736 147.664 C 210.998 148.123,210.202 148.745,206.437 152.581 C 201.353 157.763,201.154 158.101,200.472 162.709 C 200.108 165.164,199.679 166.597,199.078 167.361 L 198.209 168.466 198.209 199.919 L 198.209 231.373 199.248 233.146 C 199.966 234.372,200.339 235.673,200.454 237.359 C 200.547 238.708,200.998 240.576,201.463 241.537 C 202.261 243.185,210.318 251.940,211.037 251.940 C 211.223 251.940,211.861 252.285,212.454 252.707 C 213.047 253.129,214.937 253.755,216.653 254.099 C 218.387 254.446,220.333 255.122,221.031 255.621 C 222.227 256.473,222.708 256.523,230.801 256.639 L 239.313 256.761 240.353 255.791 C 241.180 255.020,242.002 254.764,244.371 254.541 C 249.115 254.096,249.358 253.950,255.782 247.689 C 257.653 245.864,259.401 243.765,259.756 242.916 C 260.104 242.082,260.790 240.924,261.278 240.343 C 261.964 239.529,262.220 238.590,262.398 236.244 C 262.551 234.213,262.902 232.735,263.453 231.801 C 264.269 230.418,264.279 230.049,264.279 199.925 L 264.279 169.447 263.419 168.057 C 262.831 167.105,262.472 165.673,262.283 163.520 C 262.078 161.184,261.798 160.146,261.199 159.490 C 260.755 159.004,260.082 157.980,259.703 157.214 C 258.266 154.307,250.988 147.745,248.863 147.441 C 247.819 147.291,246.564 146.802,246.073 146.354 C 245.538 145.865,244.307 145.421,242.997 145.243 C 241.770 145.076,240.350 144.582,239.756 144.115 C 238.409 143.056,225.084 142.859,223.284 143.871 M100.349 145.022 C 101.088 145.322,103.030 145.685,104.666 145.829 C 106.992 146.035,107.861 146.293,108.646 147.016 C 109.199 147.525,110.368 148.219,111.244 148.559 C 116.549 150.618,119.449 153.959,120.060 158.715 C 120.220 159.959,120.655 160.977,121.345 161.718 C 122.429 162.882,122.955 173.299,122.086 176.400 C 121.663 177.913,120.654 178.026,109.213 177.849 C 97.334 177.666,98.309 178.282,98.306 170.969 C 98.303 162.709,96.962 160.670,91.984 161.353 C 86.168 162.150,85.774 177.084,91.480 180.498 C 92.211 180.935,93.770 182.100,94.943 183.085 C 97.871 185.543,99.101 186.447,100.498 187.166 C 101.154 187.504,102.196 188.249,102.813 188.822 C 103.430 189.394,104.534 190.113,105.268 190.420 C 106.001 190.726,108.004 192.438,109.719 194.223 C 111.433 196.008,113.673 197.900,114.697 198.428 C 115.787 198.989,116.672 199.761,116.833 200.290 C 116.984 200.787,117.579 201.813,118.156 202.571 C 118.732 203.328,119.562 204.517,120.000 205.215 C 120.438 205.912,121.105 206.910,121.482 207.433 C 121.901 208.014,122.269 209.541,122.429 211.356 C 122.625 213.583,122.927 214.646,123.634 215.595 C 125.044 217.489,125.107 234.869,123.712 237.126 C 123.237 237.896,122.709 239.401,122.540 240.472 C 122.351 241.667,121.784 242.988,121.071 243.896 C 120.433 244.708,119.612 245.955,119.248 246.667 C 118.884 247.378,118.444 247.960,118.271 247.960 C 118.097 247.960,116.803 248.854,115.395 249.947 C 113.988 251.039,112.567 251.937,112.239 251.941 C 111.910 251.945,110.684 252.394,109.513 252.939 C 108.342 253.484,106.710 253.930,105.886 253.930 C 104.821 253.930,103.954 254.275,102.886 255.124 L 101.383 256.318 93.110 256.318 C 84.860 256.318,84.834 256.316,83.651 255.320 C 82.976 254.752,81.557 254.150,80.357 253.923 C 79.198 253.703,76.985 252.898,75.439 252.135 C 73.894 251.371,72.381 250.746,72.078 250.746 C 71.529 250.746,64.876 244.143,64.876 243.599 C 64.876 240.962,63.565 235.400,62.703 234.375 L 61.692 233.173 61.692 224.874 C 61.692 217.859,61.788 216.477,62.317 215.949 C 63.074 215.192,83.824 214.999,85.200 215.735 C 85.929 216.125,85.970 216.667,85.976 225.785 C 85.983 236.875,85.987 236.892,89.160 238.490 C 92.818 240.331,95.688 239.148,97.566 235.025 C 98.614 232.724,98.646 222.106,97.611 220.233 C 97.229 219.541,96.510 218.244,96.014 217.352 C 94.921 215.385,92.211 212.617,90.107 211.319 C 89.255 210.792,87.428 209.508,86.049 208.465 C 84.669 207.421,83.306 206.567,83.020 206.567 C 82.734 206.567,81.842 205.947,81.039 205.190 C 80.235 204.432,78.967 203.643,78.220 203.437 C 77.400 203.211,75.930 202.118,74.510 200.680 C 73.216 199.370,71.318 197.927,70.292 197.473 C 68.744 196.788,68.284 196.324,67.589 194.742 C 67.129 193.694,66.350 192.354,65.859 191.764 C 65.304 191.099,64.786 189.664,64.494 187.983 C 64.181 186.188,63.662 184.803,62.956 183.881 L 61.891 182.488 61.760 172.885 L 61.630 163.281 62.855 161.887 C 63.671 160.957,64.080 160.071,64.080 159.231 C 64.080 157.828,64.877 156.049,65.879 155.217 C 66.240 154.917,66.899 153.900,67.342 152.958 C 67.785 152.015,68.372 151.244,68.647 151.244 C 68.922 151.244,70.200 150.528,71.489 149.653 C 72.777 148.778,74.024 148.061,74.259 148.061 C 74.494 148.060,75.090 147.631,75.582 147.107 C 76.202 146.447,77.112 146.072,78.537 145.890 C 79.670 145.744,81.045 145.373,81.592 145.065 C 83.004 144.271,98.411 144.236,100.349 145.022 M239.330 144.950 C 239.808 145.210,241.161 145.556,242.337 145.718 C 243.764 145.916,244.824 146.339,245.521 146.989 C 246.223 147.642,247.199 148.029,248.483 148.164 C 250.666 148.394,257.880 154.959,259.520 158.209 C 259.962 159.085,260.601 160.302,260.939 160.914 C 261.277 161.527,261.645 163.049,261.756 164.297 C 261.867 165.546,262.211 167.242,262.521 168.068 C 263.350 170.276,263.360 229.682,262.531 231.693 C 262.227 232.431,261.851 234.378,261.695 236.020 C 261.479 238.301,261.200 239.240,260.511 240.000 C 260.016 240.547,259.402 241.619,259.147 242.383 C 258.576 244.087,250.392 252.182,248.384 253.029 C 247.631 253.346,245.684 253.706,244.056 253.829 C 241.483 254.023,240.942 254.204,239.914 255.209 L 238.731 256.365 231.107 256.242 C 224.018 256.128,223.397 256.058,222.267 255.252 C 221.598 254.775,219.539 254.008,217.690 253.546 C 212.754 252.315,203.781 245.890,203.781 243.588 C 203.781 243.383,203.428 242.886,202.996 242.483 C 201.895 241.458,200.996 238.677,200.988 236.268 C 200.982 234.666,200.724 233.851,199.784 232.464 L 198.588 230.698 198.697 199.566 L 198.806 168.435 199.839 167.478 C 200.711 166.670,200.914 166.046,201.148 163.471 C 201.536 159.186,202.069 158.198,206.357 153.811 C 208.443 151.678,210.149 149.801,210.149 149.641 C 210.149 149.245,211.929 148.565,214.322 148.046 C 215.413 147.810,216.627 147.325,217.021 146.969 C 219.247 144.955,236.470 143.396,239.330 144.950 M129.216 146.001 C 128.309 147.004,128.217 165.352,129.113 166.578 C 129.614 167.264,130.384 167.359,136.963 167.550 C 144.250 167.761,144.258 167.762,144.766 168.756 C 145.170 169.546,145.270 178.349,145.250 211.484 C 145.226 250.385,145.271 253.267,145.908 253.971 C 147.014 255.193,171.319 255.131,172.882 253.901 L 173.930 253.077 173.930 210.965 C 173.930 172.313,173.984 168.809,174.587 168.307 C 175.078 167.900,177.305 167.711,183.376 167.562 C 190.838 167.380,191.555 167.300,192.073 166.591 C 193.072 165.221,192.886 146.231,191.867 145.686 C 190.288 144.841,129.991 145.145,129.216 146.001 M275.765 146.034 L 274.826 146.795 274.826 199.849 L 274.826 252.904 276.178 253.815 C 277.511 254.713,299.794 255.278,302.738 254.488 C 304.412 254.039,304.478 253.217,304.478 232.707 C 304.478 208.773,303.465 211.468,312.532 211.279 C 318.475 211.156,319.555 211.034,320.525 210.380 C 321.142 209.964,322.556 209.480,323.668 209.304 C 324.779 209.129,326.065 208.640,326.526 208.219 C 326.986 207.798,328.097 207.085,328.994 206.635 C 330.963 205.647,331.556 204.770,332.540 201.393 C 332.954 199.970,333.704 197.910,334.205 196.816 C 335.107 194.847,335.117 194.657,335.120 178.744 L 335.124 162.662 334.129 161.358 C 333.582 160.640,333.134 159.625,333.134 159.102 C 333.134 156.040,330.449 151.708,327.915 150.682 C 327.124 150.362,325.815 149.650,325.005 149.100 C 324.195 148.551,322.747 147.983,321.788 147.839 C 320.829 147.696,319.004 147.060,317.733 146.427 L 315.423 145.277 296.064 145.275 C 277.596 145.274,276.662 145.309,275.765 146.034 M191.708 146.202 C 192.292 146.786,192.118 165.453,191.524 166.049 C 191.148 166.426,188.804 166.621,182.908 166.766 C 175.667 166.944,174.720 167.046,173.971 167.723 L 173.134 168.482 173.134 210.478 C 173.134 248.998,173.080 252.535,172.476 253.202 C 171.652 254.112,147.043 254.346,146.149 253.453 C 145.784 253.087,145.672 243.059,145.672 210.743 C 145.672 174.937,145.586 168.393,145.108 167.738 C 144.597 167.038,143.884 166.946,137.559 166.766 C 128.478 166.507,129.190 167.247,129.031 157.897 C 128.862 147.987,129.127 146.348,130.950 146.016 C 133.026 145.639,191.324 145.818,191.708 146.202 M316.816 146.927 C 317.801 147.508,319.413 148.110,320.398 148.265 C 321.383 148.421,323.281 149.154,324.615 149.896 C 325.950 150.637,327.316 151.244,327.652 151.244 C 329.246 151.244,332.338 156.700,332.338 159.513 C 332.338 160.052,332.876 161.104,333.532 161.852 L 334.726 163.212 334.726 178.586 L 334.726 193.960 333.752 195.623 C 333.216 196.538,332.469 198.524,332.092 200.036 C 331.279 203.297,329.926 205.520,328.356 206.170 C 327.730 206.429,326.634 207.072,325.920 207.599 C 325.206 208.126,324.253 208.560,323.803 208.562 C 323.353 208.565,321.850 208.923,320.462 209.358 C 318.419 209.999,316.814 210.149,312.027 210.149 C 306.351 210.149,306.069 210.188,304.997 211.110 L 303.881 212.070 303.770 232.475 C 303.695 246.528,303.525 253.043,303.224 253.405 C 302.523 254.250,277.922 254.163,276.705 253.311 L 275.821 252.691 275.861 200.475 C 275.882 171.756,276.023 147.817,276.174 147.278 C 276.594 145.771,277.147 145.731,296.716 145.803 L 315.025 145.871 316.816 146.927 M229.380 161.701 C 228.902 161.969,227.965 162.995,227.297 163.980 L 226.084 165.771 226.079 199.801 C 226.074 237.361,225.979 235.952,228.637 237.901 L 230.388 239.185 232.359 238.366 C 233.580 237.858,234.500 237.173,234.777 236.565 C 235.271 235.480,235.367 165.770,234.876 164.016 C 234.344 162.114,231.086 160.742,229.380 161.701 M232.076 162.392 C 232.991 162.646,233.671 163.152,233.967 163.801 C 234.577 165.140,234.631 235.294,234.023 236.431 C 233.393 237.608,230.617 238.213,229.425 237.432 C 226.924 235.792,227.075 238.062,226.957 200.501 L 226.848 166.340 227.891 164.561 C 229.366 162.044,229.876 161.780,232.076 162.392 M304.473 164.080 C 303.729 165.300,303.684 166.116,303.683 178.578 L 303.682 191.783 304.730 192.608 C 306.831 194.261,309.679 193.466,311.567 190.699 L 312.883 188.771 312.760 177.527 L 312.637 166.283 310.647 164.543 C 307.993 162.222,305.710 162.050,304.473 164.080 M310.282 165.327 L 311.841 166.674 311.963 177.611 L 312.086 188.549 310.870 190.351 C 310.201 191.342,309.370 192.262,309.023 192.395 C 307.951 192.806,305.458 192.662,304.955 192.159 C 304.331 191.535,304.270 165.908,304.890 164.750 C 305.611 163.401,308.398 163.700,310.282 165.327 " stroke="none" fill="#c28786" fill-rule="evenodd"></path><path id="path4" d="M52.537 16.871 C 51.333 17.137,49.734 17.681,48.983 18.079 C 48.231 18.476,46.466 18.944,45.059 19.119 C 43.180 19.352,42.222 19.696,41.450 20.416 C 40.871 20.955,39.739 21.607,38.933 21.864 C 38.127 22.122,36.804 22.860,35.992 23.504 C 35.181 24.149,34.279 24.677,33.988 24.677 C 33.136 24.677,26.817 30.165,23.983 33.368 C 20.465 37.344,19.104 39.082,19.104 39.601 C 19.104 39.915,18.593 40.760,17.967 41.479 C 17.342 42.198,16.616 43.445,16.353 44.251 C 16.091 45.057,15.376 46.347,14.763 47.118 C 13.943 48.149,13.585 49.138,13.404 50.865 C 13.264 52.205,12.706 54.085,12.104 55.246 C 10.414 58.503,10.392 60.401,10.388 200.398 C 10.385 341.128,10.412 343.483,12.095 346.727 C 12.677 347.849,13.318 349.930,13.519 351.353 C 13.781 353.200,14.163 354.237,14.855 354.980 C 15.388 355.552,16.035 356.679,16.292 357.485 C 16.550 358.291,17.288 359.614,17.932 360.426 C 18.577 361.237,19.104 362.026,19.104 362.179 C 19.104 363.078,25.340 370.143,28.400 372.709 C 29.088 373.286,30.598 374.559,31.755 375.536 C 32.911 376.514,34.106 377.313,34.411 377.313 C 34.715 377.313,35.499 377.763,36.152 378.313 C 36.806 378.863,38.115 379.587,39.063 379.921 C 40.010 380.255,41.245 380.969,41.807 381.508 C 42.595 382.263,43.510 382.574,45.793 382.863 C 47.423 383.070,49.562 383.594,50.547 384.027 C 54.307 385.680,53.553 385.672,195.224 385.672 C 336.069 385.672,335.985 385.673,339.701 384.080 C 340.660 383.669,342.837 383.139,344.539 382.902 C 346.906 382.573,347.874 382.243,348.649 381.500 C 349.207 380.966,350.438 380.255,351.385 379.921 C 352.332 379.587,353.642 378.863,354.296 378.313 C 354.949 377.763,355.702 377.313,355.968 377.313 C 356.233 377.313,357.095 376.731,357.881 376.020 C 358.667 375.308,360.179 374.010,361.240 373.134 C 363.813 371.011,368.072 366.612,368.753 365.373 C 369.054 364.826,369.850 363.870,370.521 363.250 C 371.192 362.629,371.741 361.849,371.741 361.516 C 371.741 361.183,372.260 360.255,372.895 359.454 C 373.529 358.653,374.247 357.260,374.490 356.359 C 374.732 355.457,375.226 354.475,375.587 354.176 C 376.515 353.406,377.313 351.316,377.313 349.657 C 377.313 348.880,377.759 346.970,378.303 345.412 C 380.127 340.191,380.100 342.400,380.100 200.736 C 380.100 58.725,380.139 61.832,378.289 56.539 C 377.753 55.003,377.313 53.038,377.313 52.173 C 377.313 50.298,376.743 48.656,375.708 47.551 C 375.293 47.107,374.680 45.971,374.347 45.027 C 374.014 44.083,373.291 42.776,372.741 42.122 C 372.191 41.469,371.741 40.690,371.741 40.392 C 371.741 39.900,370.895 38.809,367.269 34.627 C 366.605 33.862,365.892 32.861,365.684 32.405 C 365.476 31.948,364.828 31.272,364.245 30.902 C 363.661 30.533,361.841 29.073,360.199 27.658 C 358.557 26.244,356.677 24.843,356.020 24.545 C 355.363 24.247,354.588 23.717,354.298 23.367 C 354.007 23.017,352.888 22.437,351.810 22.079 C 350.733 21.722,349.627 21.119,349.353 20.740 C 348.603 19.701,348.201 19.548,345.056 19.102 C 343.462 18.876,341.605 18.352,340.930 17.937 C 340.254 17.523,338.639 16.989,337.340 16.751 C 333.746 16.093,55.518 16.210,52.537 16.871 M334.726 21.317 C 336.149 21.643,338.903 22.183,340.847 22.516 C 342.790 22.850,345.208 23.537,346.220 24.044 C 347.232 24.551,348.776 25.191,349.652 25.466 C 350.527 25.742,351.692 26.372,352.239 26.867 C 352.786 27.362,354.085 28.137,355.124 28.588 C 356.164 29.039,357.015 29.593,357.015 29.818 C 357.015 30.044,357.522 30.491,358.142 30.811 C 358.762 31.132,360.060 32.224,361.028 33.238 C 361.995 34.252,363.368 35.639,364.080 36.321 C 364.791 37.002,365.373 37.762,365.373 38.009 C 365.373 38.256,365.906 38.969,366.558 39.593 C 367.210 40.218,367.948 41.370,368.198 42.155 C 368.448 42.940,369.080 44.041,369.602 44.601 C 370.124 45.162,370.827 46.679,371.164 47.973 C 371.501 49.266,372.007 50.599,372.287 50.934 C 373.089 51.890,373.658 54.376,374.116 58.928 C 374.349 61.239,374.715 63.745,374.931 64.498 C 375.469 66.374,375.471 335.610,374.933 337.486 C 374.718 338.235,374.358 340.652,374.133 342.857 C 373.682 347.273,373.320 348.692,371.900 351.620 C 371.375 352.703,370.945 353.924,370.945 354.333 C 370.945 355.206,370.326 356.494,369.368 357.612 C 368.993 358.050,368.450 359.035,368.161 359.801 C 367.872 360.567,367.127 361.740,366.504 362.407 C 365.882 363.074,365.373 363.762,365.373 363.936 C 365.373 364.455,359.278 370.341,357.895 371.158 C 357.192 371.573,356.617 372.062,356.617 372.243 C 356.617 372.425,355.708 372.995,354.596 373.510 C 353.485 374.025,352.186 374.803,351.710 375.238 C 351.235 375.673,349.771 376.334,348.458 376.707 C 347.144 377.080,345.779 377.644,345.425 377.961 C 344.791 378.527,342.252 379.091,335.522 380.159 C 329.909 381.050,62.380 381.180,56.318 380.295 C 47.623 379.025,46.749 378.833,44.393 377.684 C 43.078 377.042,41.602 376.517,41.114 376.517 C 40.626 376.517,39.638 376.006,38.919 375.380 C 38.200 374.755,36.970 374.034,36.185 373.779 C 35.400 373.524,34.247 372.782,33.623 372.130 C 32.999 371.478,32.310 370.945,32.093 370.945 C 31.876 370.945,31.127 370.363,30.428 369.652 C 29.730 368.940,28.911 368.126,28.609 367.841 C 28.307 367.557,27.481 366.661,26.773 365.851 C 26.065 365.041,24.940 363.776,24.273 363.041 C 23.605 362.306,22.799 361.081,22.480 360.319 C 22.162 359.557,21.451 358.399,20.901 357.745 C 20.351 357.091,19.900 356.256,19.900 355.890 C 19.899 355.524,19.380 354.239,18.747 353.035 C 18.071 351.751,17.324 349.365,16.940 347.264 C 16.580 345.294,15.979 342.786,15.605 341.692 C 14.969 339.830,14.925 330.759,14.925 201.194 L 14.925 62.687 16.019 58.507 C 16.621 56.209,17.114 53.861,17.114 53.290 C 17.114 52.719,17.652 51.196,18.309 49.907 C 18.967 48.617,19.688 46.899,19.912 46.088 C 20.136 45.277,20.742 44.111,21.258 43.497 C 21.775 42.884,22.472 41.726,22.806 40.924 C 23.141 40.123,23.789 39.267,24.245 39.023 C 24.701 38.779,25.075 38.381,25.075 38.140 C 25.075 37.545,27.954 34.413,30.422 32.323 C 31.531 31.384,32.886 30.194,33.433 29.678 C 33.980 29.162,35.142 28.444,36.014 28.083 C 36.887 27.721,37.962 27.097,38.403 26.697 C 38.843 26.296,39.920 25.743,40.796 25.467 C 41.672 25.192,43.228 24.545,44.254 24.031 C 45.281 23.517,47.699 22.821,49.627 22.485 C 51.556 22.149,54.209 21.624,55.522 21.319 C 59.241 20.454,330.950 20.452,334.726 21.317 " stroke="none" fill="#9d9d9d" fill-rule="evenodd"></path></g></svg>