<?xml version="1.0" encoding="UTF-8" standalone="no"?>
<!-- Created with Inkscape (http://www.inkscape.org/) -->

<svg
   xmlns:dc="http://purl.org/dc/elements/1.1/"
   xmlns:cc="http://creativecommons.org/ns#"
   xmlns:rdf="http://www.w3.org/1999/02/22-rdf-syntax-ns#"
   xmlns:svg="http://www.w3.org/2000/svg"
   xmlns="http://www.w3.org/2000/svg"
   xmlns:sodipodi="http://sodipodi.sourceforge.net/DTD/sodipodi-0.dtd"
   xmlns:inkscape="http://www.inkscape.org/namespaces/inkscape"
   width="708mm"
   height="708mm"
   viewBox="0 0 707.99998 708"
   version="1.1"
   id="svg8"
   inkscape:version="0.92.2 (5c3e80d, 2017-08-06)"
   sodipodi:docname="11.svg">
  <defs
     id="defs2" />
  <sodipodi:namedview
     id="base"
     pagecolor="#ffffff"
     bordercolor="#666666"
     borderopacity="1.0"
     inkscape:pageopacity="0.0"
     inkscape:pageshadow="2"
     inkscape:zoom="0.16523969"
     inkscape:cx="1582.2902"
     inkscape:cy="984.45227"
     inkscape:document-units="mm"
     inkscape:current-layer="layer1"
     showgrid="false"
     inkscape:window-width="1920"
     inkscape:window-height="1057"
     inkscape:window-x="-8"
     inkscape:window-y="-8"
     inkscape:window-maximized="1"
     inkscape:measure-start="0,0"
     inkscape:measure-end="0,0"
     fit-margin-top="0"
     fit-margin-left="0"
     fit-margin-right="0"
     fit-margin-bottom="0"
     showguides="false"
     inkscape:snap-global="true" />
  <metadata
     id="metadata5">
    <rdf:RDF>
      <cc:Work
         rdf:about="">
        <dc:format>image/svg+xml</dc:format>
        <dc:type
           rdf:resource="http://purl.org/dc/dcmitype/StillImage" />
        <dc:title></dc:title>
      </cc:Work>
    </rdf:RDF>
  </metadata>
  <g
     inkscape:label="Layer 1"
     inkscape:groupmode="layer"
     id="layer1"
     transform="translate(-42.564505,577.69995)">
    <path
       style="fill:#000000;fill-opacity:1;stroke:none;stroke-width:0.70599961"
       d="m 542.78165,-576.69971 206.78245,206.78228 10e-6,292.434754 L 542.78181,129.30005 250.3471,129.29973 43.564635,-77.482689 43.564505,-369.91723 250.34702,-576.69984 Z"
       id="path3831"
       inkscape:connector-curvature="0"
       sodipodi:nodetypes="ccccccccc" />
    <path
       sodipodi:nodetypes="ccccccccc"
       inkscape:connector-curvature="0"
       id="path2111"
       d="m 541.53931,126.29983 -289.94951,5.4e-4 -205.025185,-205.025758 -3e-5,-289.949462 205.025535,-205.02512 h 289.94939 l 205.0251,205.02507 10e-6,289.949597 z"
       style="fill:#ffffff;fill-opacity:1;stroke:none;stroke-width:0.69999999" />
    <path
       style="fill:#f00a0a;fill-opacity:1;stroke:none;stroke-width:0.65800059"
       d="m 532.84088,105.30005 -272.55264,-2.4e-4 -192.723575,-192.723307 -1.6e-4,-272.552573 192.723705,-192.72342 272.55242,-4.7e-4 192.72388,192.72386 -1.6e-4,272.552695 z"
       id="path2113"
       inkscape:connector-curvature="0"
       sodipodi:nodetypes="ccccccccc" />
    <g
       aria-label="STOP"
       style="font-style:normal;font-variant:normal;font-weight:bold;font-stretch:normal;font-size:313.53555298px;line-height:0;font-family:Giaothong1;-inkscape-font-specification:'Giaothong1 Bold';letter-spacing:0.13493749px;word-spacing:0px;fill:#ffffff;fill-opacity:1;stroke:none;stroke-width:1.63299751"
       id="text847"
       transform="matrix(-1,0,0,1,789.12862,-4)">
      <path
         d="m 593.40469,-167.18887 q 0,5.97065 -0.45928,9.03252 -0.45928,2.90878 -4.5928,9.03252 -4.28662,6.12374 -15.61554,6.12374 -6.27684,0 -11.48202,-2.60259 -5.35827,-2.75568 -7.80777,-6.88921 -2.60259,-4.28662 -2.75568,-8.87942 -0.1531,-4.59281 -0.1531,-6.12375 v -14.69698 q 0,-6.27683 0.45928,-9.3387 0.45928,-3.21496 3.82734,-6.73612 3.21496,-3.67424 9.33871,-6.58302 6.12374,-3.06187 21.28,-8.72633 15.15626,-5.66446 25.56662,-17.75885 10.41036,-12.09439 10.41036,-33.0682 v -9.33871 q 0,-21.43309 -14.2377,-36.89554 -14.39079,-15.46245 -35.67079,-15.46245 -21.58619,0 -36.13008,15.15626 -14.69698,15.15626 -14.69698,37.20173 v 9.33871 h 29.85324 v -9.33871 q 0,-4.43971 0.61238,-7.50158 0.61237,-3.21496 5.05208,-9.18561 4.28662,-5.97065 14.69698,-5.97065 9.03252,0 14.85008,6.42993 5.81755,6.42993 5.81755,16.22791 v 9.33871 q 0,5.97065 -0.45928,8.72633 -0.45928,2.60259 -3.21496,6.12374 -2.90878,3.36806 -8.26705,5.97065 -5.35828,2.4495 -20.51454,7.96086 -15.15626,5.35828 -26.79137,17.75885 -11.63511,12.40058 -11.63511,33.68058 v 16.99338 q 0,10.41036 2.14331,18.21813 1.99022,7.80777 12.70677,21.73928 10.56345,13.93151 36.58935,13.93151 26.94446,0 39.19195,-17.60575 12.24748,-17.75885 12.24748,-36.28317 v -7.50158 h -30.15943 z"
         style="font-style:normal;font-variant:normal;font-weight:bold;font-stretch:normal;font-family:Giaothong1;-inkscape-font-specification:'Giaothong1 Bold';letter-spacing:0.13493749px;fill:#ffffff;fill-opacity:1;stroke:none;stroke-width:1.63299751"
         id="path849"
         inkscape:connector-curvature="0" />
      <path
         d="m 470.33564,-115.13707 v -181.26274 h 35.05842 v -27.86302 H 404.81161 v 27.86302 h 35.6708 v 181.26274 z"
         style="font-style:normal;font-variant:normal;font-weight:bold;font-stretch:normal;font-family:Giaothong1;-inkscape-font-specification:'Giaothong1 Bold';letter-spacing:0.13493749px;fill:#ffffff;fill-opacity:1;stroke:none;stroke-width:1.63299751"
         id="path851"
         inkscape:connector-curvature="0" />
      <path
         d="m 376.81365,-304.51377 q -7.19539,-10.10417 -18.21813,-15.76863 -11.02273,-5.81756 -22.96403,-5.81756 -11.48201,0 -21.73928,4.7459 -10.25727,4.59281 -16.99338,12.85986 -6.73612,8.11396 -9.18561,16.5341 -2.4495,8.42015 -2.4495,18.52432 v 106.5531 q 0,9.4918 1.68403,16.5341 1.68403,7.0423 7.34849,15.76863 5.66446,8.72633 16.68719,15.00317 10.86964,6.27683 23.7295,6.27683 14.69698,0 27.09756,-7.50158 12.40057,-7.50158 17.29956,-16.99338 4.899,-9.64489 5.81756,-15.46245 0.91856,-5.81755 0.91856,-13.62532 v -106.5531 q 0,-9.4918 -1.99022,-16.6872 -2.14331,-7.19539 -7.0423,-14.39079 z m -58.02245,16.38101 q 6.27684,-8.57324 16.22792,-8.57324 5.35827,0 10.56345,3.06187 5.20518,2.90878 7.1954,6.58303 1.99021,3.52115 2.60259,7.34849 0.61237,3.67424 0.61237,6.27683 v 106.5531 q 0,3.21496 -0.45928,7.0423 -0.45928,3.67425 -4.89899,10.10417 -4.59281,6.42993 -15.61554,6.42993 -5.66446,0 -10.10418,-2.60259 -4.5928,-2.75568 -6.58302,-6.12374 -2.14331,-3.52115 -2.75568,-6.58302 -0.61238,-3.21497 -0.61238,-8.26705 v -106.5531 q 0,-6.27683 0.45929,-8.72633 0.45928,-2.60259 3.36805,-5.97065 z"
         style="font-style:normal;font-variant:normal;font-weight:bold;font-stretch:normal;font-family:Giaothong1;-inkscape-font-specification:'Giaothong1 Bold';letter-spacing:0.13493749px;fill:#ffffff;fill-opacity:1;stroke:none;stroke-width:1.63299751"
         id="path853"
         inkscape:connector-curvature="0" />
      <path
         d="m 254.97272,-115.13707 v -209.12576 h -48.83685 q -9.1856,0 -18.21812,3.82734 -9.18561,3.67424 -15.30936,9.79798 -6.12374,6.12374 -10.25725,14.69698 -4.28663,8.42014 -4.28663,16.22792 v 30.31251 q 0,11.63511 3.21497,20.82072 3.06187,9.03252 10.71654,16.6872 7.65468,7.65468 16.68721,11.02273 8.87941,3.21497 20.82073,3.21497 h 15.61554 v 82.51741 z M 191.592,-231.79434 q -2.75568,-2.75568 -3.52115,-5.81755 -0.76548,-3.21497 -0.76548,-7.96087 v -3.82734 -27.25064 q 0,-8.72634 5.35828,-14.3908 5.20519,-5.66446 14.3908,-5.66446 h 18.06503 v 70.88231 h -15.61554 q -6.27684,0 -10.10418,-1.07166 -3.98043,-1.07165 -7.80776,-4.89899 z"
         style="font-style:normal;font-variant:normal;font-weight:bold;font-stretch:normal;font-family:Giaothong1;-inkscape-font-specification:'Giaothong1 Bold';letter-spacing:0.13493749px;fill:#ffffff;fill-opacity:1;stroke:none;stroke-width:1.63299751"
         id="path855"
         inkscape:connector-curvature="0" />
    </g>
  </g>
</svg>
