<svg xmlns="http://www.w3.org/2000/svg" width="1001" height="1001" viewBox="0 0 1001 1001">
  <g fill="none">
    <polygon fill="#FAD214" points="293.093 1000.2 .2 707.307 .2 293.094 293.093 .2 707.307 .2 1000.2 293.094 1000.2 707.307 707.307 1000.2"/>
    <polygon fill="#000" points="301.378 980.2 20.2 699.023 20.2 301.378 301.377 20.2 699.022 20.2 980.2 301.378 980.2 699.023 699.022 980.2"/>
    <polygon fill="#FAD214" points="313.804 950.2 50.2 686.596 50.2 313.804 313.804 50.2 686.596 50.2 950.2 313.804 950.2 686.596 686.596 950.2"/>
    <polygon fill="#000" points="960.2 313.8 40.2 313.8 40.2 686.6 960.2 686.6"/>
    <g fill="#FAD214" transform="translate(237.484 347.11)">
      <polygon points="130.578 40.179 132.157 39.981 133.54 39.586 134.725 38.797 135.909 37.809 136.897 36.624 137.687 35.242 138.082 33.86 138.279 32.28 138.279 30.7 137.884 29.121 137.292 27.738 136.502 26.356 134.132 24.381 132.75 23.789 131.368 23.591 129.788 23.591 128.406 23.789 127.023 24.381 125.838 25.369 124.851 26.356 123.864 27.738 123.271 29.121 122.877 30.7 122.877 32.28 123.074 33.86 124.259 36.624 125.246 37.809 126.431 38.797 127.813 39.586 129.195 39.981"/>
      <polygon points="127.972 .463 131.52 .66 135.068 1.251 138.222 2.434 141.375 3.814 144.135 5.588 146.697 7.756 149.062 10.121 151.23 12.683 152.807 15.64 154.187 18.794 155.173 21.947 155.764 25.495 155.961 27.269 155.961 28.846 155.764 31.211 154.975 35.548 153.399 39.884 151.23 43.629 148.668 47.177 145.317 50.133 143.543 51.513 142.755 52.104 142.558 52.499 142.755 52.696 144.529 55.258 148.077 59.397 149.456 62.354 150.048 64.325 150.442 66.493 150.836 69.253 151.033 72.603 151.23 73.392 151.23 217.081 151.033 217.673 150.836 218.658 149.456 222.797 147.091 226.345 143.937 229.302 140.193 231.667 136.053 233.047 131.717 233.441 127.578 232.85 124.03 231.273 120.679 228.908 118.117 225.754 115.949 222.403 114.372 218.461 114.175 217.673 113.978 217.081 113.978 81.079 113.78 80.29 113.386 78.911 112.795 78.516 112.204 78.516 111.218 79.108 111.021 79.108 111.021 79.305 110.627 79.502 110.233 80.093 106.291 84.627 99.195 93.891 92.887 103.746 87.368 113.798 82.244 124.245 78.104 135.086 74.162 146.123 71.009 157.161 68.249 168.593 65.687 180.026 61.942 203.087 60.365 214.519 60.168 215.899 60.168 216.884 59.971 217.475 59.774 218.461 58.197 222.6 55.634 226.148 52.284 229.105 48.342 231.47 44.005 232.85 39.669 233.244 35.333 232.653 31.193 231.076 27.448 228.71 24.295 225.557 22.127 222.206 20.944 218.264 20.944 57.032 20.55 56.835 19.761 56.638 14.637 54.272 9.906 50.922 5.964 46.783 2.81 41.855 .839 36.336 .248 33.379 .051 30.226 .051 26.875 .642 23.13 1.431 19.779 2.81 16.428 4.584 13.472 6.555 10.515 8.921 7.953 11.68 5.785 14.637 3.814 17.79 2.237 21.141 1.054 24.689 .266 28.237 .069 32.376 .069 36.318 .857 40.063 2.04 43.414 3.617 46.371 5.588 49.13 8.15 51.495 10.909 53.466 13.866 55.24 17.217 56.62 20.765 57.606 24.51 58 28.255 58.197 32.197 58.197 123.259 58.788 121.485 62.336 112.024 66.081 103.155 70.023 94.679 74.162 86.795 78.302 79.699 82.638 73.195 86.974 67.479 91.113 62.354 95.45 58.018 99.589 54.47 103.728 51.907 107.67 50.133 109.444 49.542 109.838 49.542 109.641 49.345 109.247 49.148 106.685 46.388 104.517 43.432 102.743 40.278 101.363 36.73 100.377 32.985 100.18 29.043 99.983 28.058 100.574 22.736 101.56 19.385 102.743 16.231 104.517 13.275 106.488 10.515 108.656 8.15 111.218 5.982 114.175 4.011 117.131 2.631 120.285 1.448 123.833 .66 127.381 .463"/>
      <polyline points="331.566 196.686 331.566 16.075 331.368 14.889 330.973 12.913 329.195 8.961 326.231 5.602 322.674 2.835 318.524 1.057 313.979 .266 311.805 .266 309.632 .464 305.284 2.045 301.135 4.614 297.775 7.775 295.404 11.53 294.614 13.506 294.218 15.482 294.218 185.028 293.626 186.608 292.242 189.572 290.662 192.339 288.685 194.908 286.512 197.082 284.338 199.058 281.769 200.638 276.631 203.207 270.901 204.59 264.973 204.986 259.242 204.195 253.709 202.417 248.572 199.65 246.2 197.674 244.224 195.698 242.248 193.327 240.667 190.758 239.086 187.794 238.494 186.213 238.296 185.423 238.098 185.028 238.098 127.722 238.296 126.141 238.691 123.177 239.679 120.41 241.063 118.039 242.841 115.866 245.212 113.889 247.781 112.111 250.548 110.53 253.907 109.147 261.218 106.578 265.17 105.59 266.356 105.392 266.949 105.392 267.739 105.195 268.135 104.404 268.332 103.614 268.135 102.824 267.542 102.033 266.949 102.033 266.554 101.836 264.578 102.033 260.428 101.44 256.476 100.452 252.919 98.674 249.757 96.698 246.793 93.931 244.422 90.967 242.248 87.806 240.667 84.249 239.284 80.297 238.691 76.345 238.296 72.392 238.296 70.219 238.494 69.428 238.494 68.243 238.296 65.871 238.296 57.177 238.691 57.177 244.224 54.806 249.362 51.248 253.512 46.901 255.093 44.332 256.673 41.566 257.859 38.799 258.649 35.835 259.242 32.674 259.44 29.512 259.242 25.757 258.452 22.003 257.266 18.446 255.685 15.087 253.709 11.925 251.338 9.159 248.572 6.59 245.608 4.416 242.446 2.638 238.889 1.254 235.134 .464 231.38 .069 227.033 .266 222.883 .859 219.128 2.242 215.571 3.823 212.41 5.997 209.643 8.763 207.272 11.727 205.098 14.889 203.518 18.446 202.332 22.398 201.344 26.35 200.949 30.302 200.949 85.83 201.739 89.584 202.925 92.943 204.901 96.105 207.667 98.872 210.829 101.243 212.607 102.033 213.2 102.231 213.991 102.626 214.386 103.219 214.386 103.812 213.991 104.404 213.2 104.8 210.829 105.59 207.667 106.973 204.901 109.147 202.925 111.716 201.344 115.273 200.949 117.446 200.751 120.015 200.751 122.782 200.949 123.375 200.949 136.417 200.751 140.171 200.751 195.698 200.751 197.279 201.146 200.243 201.739 203.01 202.529 205.579 205.296 210.519 208.853 214.866 213.398 218.818 218.733 222.177 224.661 225.142 231.182 227.71 238.296 229.686 245.608 231.267 253.314 232.453 261.218 233.046 269.123 233.441 277.224 233.243 284.931 232.453 292.44 231.267 299.356 229.489 305.877 227.315 312.003 224.351 317.338 220.992 321.883 217.04 325.638 212.495 328.602 207.357 330.578 201.824 331.171 198.662 331.368 197.082 331.566 196.686"/>
      <polygon points="513.471 46.308 513.471 216.842 513.273 218.621 512.483 221.98 510.705 225.142 508.531 227.908 505.567 230.279 502.405 232.058 498.848 233.046 495.094 233.441 491.537 233.046 487.782 231.86 484.423 230.082 481.459 227.71 479.088 224.944 477.309 221.98 476.321 218.818 476.124 217.237 476.124 52.237 475.926 50.063 475.333 46.111 474.345 42.554 472.962 39.59 471.183 36.823 469.01 34.65 466.836 32.674 464.267 31.093 458.734 28.722 452.806 27.536 447.076 26.943 441.74 26.745 436.01 27.338 430.279 28.326 424.548 30.302 421.98 31.686 419.608 33.266 417.237 35.242 415.261 37.614 413.68 40.183 412.297 43.147 411.309 46.704 410.914 50.458 410.716 51.644 410.716 174.357 410.914 174.159 411.704 173.171 414.866 169.021 418.028 164.081 421.189 158.153 424.153 151.435 426.722 144.123 429.093 136.417 431.069 128.117 431.465 126.141 430.674 125.746 429.489 124.758 426.92 122.782 424.746 120.41 422.968 117.842 421.584 114.878 420.596 111.914 420.004 108.554 419.806 106.973 419.806 104.8 420.596 99.86 422.375 95.315 424.944 91.363 428.303 88.003 432.255 85.434 436.8 83.458 441.74 82.668 446.68 82.866 451.423 84.249 455.77 86.422 459.525 89.386 462.489 92.943 464.86 97.291 466.243 101.836 466.441 104.404 466.441 109.345 465.453 119.027 463.477 129.698 460.71 140.566 457.153 151.83 452.806 163.093 447.866 174.357 442.531 185.028 436.602 195.303 430.477 204.788 423.956 213.088 420.596 216.842 417.237 220.399 413.878 223.561 410.519 226.327 407.159 228.501 403.8 230.477 400.441 232.058 397.081 232.848 393.722 233.441 391.746 233.441 389.967 233.243 386.213 232.255 382.854 230.674 379.692 228.501 377.123 225.932 375.147 222.968 373.764 219.806 373.566 218.225 373.369 217.435 373.369 44.53 373.961 37.614 375.345 31.29 377.518 25.56 380.482 20.817 384.039 16.47 388.387 12.913 393.327 9.751 398.662 7.182 404.393 5.009 410.519 3.428 417.04 2.045 423.56 1.057 430.477 .464 444.507 .069 458.339 .464 465.058 1.057 471.579 1.847 477.902 3.23 483.83 4.811 489.363 6.985 494.501 9.554 499.046 12.913 503.195 16.668 506.752 21.213 509.519 26.35 511.693 32.476 512.878 39.195 513.273 42.949 513.471 44.925"/>
      <polygon points="331.527 276.578 331.527 316.334 331.083 318.1 329.752 321.414 327.755 324.285 325.536 326.714 322.651 328.481 319.544 329.806 316.438 330.248 313.109 330.027 310.003 329.144 307.118 327.598 304.455 325.61 302.458 322.959 300.905 319.867 300.239 316.554 300.239 306.395 299.796 306.395 297.355 305.732 292.695 303.744 288.479 301.094 284.928 297.56 282.044 293.364 280.047 288.725 278.937 283.646 278.715 280.995 278.937 278.124 280.047 272.382 282.488 267.302 286.038 262.884 290.254 259.13 295.358 256.479 300.905 254.933 304.012 254.712 306.674 254.712 312 255.596 316.882 257.584 321.098 260.234 324.87 263.768 327.976 267.964 330.417 272.602 331.305 275.032 331.527 276.357"/>
      <circle cx="128.25" cy="27.762" r="7.001"/>
    </g>
  </g>
</svg>
