<svg xmlns="http://www.w3.org/2000/svg" width="1010" height="1010" viewBox="0 0 1010 1010">
  <g fill="none">
    <polygon fill="#000" points="1010 295.822 1010 714.178 714.178 1010 295.822 1010 0 714.178 0 295.822 295.822 0 714.178 0"/>
    <polygon fill="#FFF" points="1000 292.893 1000 707.107 707.107 1000 292.893 1000 0 707.107 0 292.893 292.893 0 707.107 0" transform="translate(5 5)"/>
    <polygon fill="#ED1C24" points="940 275.32 940 664.68 664.68 940 275.32 940 0 664.68 0 275.32 275.32 0 664.68 0" transform="translate(35 35)"/>
    <path fill="#FFF" d="M767.74953 254.81707L769.06327 263.57537 772.56662 271.45787 778.25948 278.02657 786.14193 282.84357 794.46237 288.09867 801.46897 294.22947 804.09655 299.48437 804.09655 304.30157 802.78271 313.93557 801.46897 317.87697 797.52774 326.19727 805.4103 323.13187 813.29275 318.31477 820.29935 311.74597 823.36482 308.24267 828.61979 300.79817 832.56102 292.91567 834.75062 283.71957 835.1885 274.52327 835.1885 268.83027 833.43688 259.63407 830.37141 251.31377 827.30605 246.49667 822.05107 239.92787 815.04438 235.54877 806.72404 232.48337 796.65198 231.60747 792.27277 232.04537 783.07657 234.23497 776.06987 239.05207 769.93914 246.49667 767.74953 254.81707zM697.68297 369.11307L692.86598 375.24387 686.73505 382.25057 670.97013 398.01547 666.59092 401.51877 659.14635 407.649659 650.38813 414.218349 650.38813 517.566448 653.45349 516.690648 661.77393 514.938946 673.15964 512.311446 679.29057 510.997746 688.48677 509.246147 696.80711 508.808147 703.37593 508.808147 712.57213 510.559846 721.33045 513.625246 729.65079 518.004349 727.46118 520.631949 720.0167 528.514249 712.57213 534.645249 705.56543 539.900149 698.55874 543.403549 698.12095 543.403549 691.55214 546.031049 683.66968 548.220649 674.91136 550.410149 664.40132 552.599749 652.57763 554.351349 655.20522 561.358049 658.70847 569.678449 663.08758 577.998849 667.90467 585.881349 673.15964 593.325849 678.85259 600.332554 685.42131 606.90126 692.428 612.59417 699.87258 618.28707 705.56543 622.22837 713.88587 627.04547 722.20631 630.98667 730.52675 634.48997 739.28507 637.11747 747.60541 639.30697 756.80161 641.05867 766.43579 641.93457 776.06987 642.37257 780.88696 642.37257 790.52104 641.49657 799.71734 640.18297 808.91364 637.99337 817.23398 635.36587 825.11644 631.86247 832.56102 627.92127 840.00559 623.10417 847.01219 617.84927 853.58101 611.71827 859.71184 605.14956 865.84257 597.705049 871.09764 589.384649 875.91464 580.626349 880.29385 572.305949 883.35921 563.547649 885.9868 554.789349 887.73852 546.031049 889.05217 537.272749 889.05217 523.697249 888.61428 512.749346 887.73852 502.677347 885.54892 493.481149 883.35921 485.160749 880.29385 477.278249 876.35262 470.271549 873.72513 466.330349 868.03218 459.761649 861.90144 453.630749 854.45687 449.689549 846.13643 446.624049 836.94013 444.872449 826.86816 443.996649 820.73733 444.872449 811.10315 446.186249 808.91364 446.624049 800.15532 448.813649 790.52104 452.754949 793.58661 443.996649 798.84158 436.989949 805.84828 432.172849 815.04438 430.421249 821.61309 430.859149 831.68516 433.048749 840.44348 435.676249 849.63978 436.989949 857.52223 436.114049 864.52893 433.924549 871.09764 430.421249 877.22848 425.604149 882.48345 419.473349 887.73852 412.028849 892.11763 403.27058 896.05886 393.19847 899.99999 381.81257 898.68635 382.68847 890.36591 386.62967 881.60759 387.50557 878.10424 387.50557 869.7839 386.19177 860.5876 383.12627 851.3914 378.30927 846.13643 375.24387 838.25397 369.98887 829.49565 363.85807 825.9923 369.55087 820.73733 376.11967 815.04438 383.12627 807.5998 390.57087 798.84158 398.45337 794.02439 402.83258 786.57991 408.525449 777.38361 415.094249 777.38361 514.500946 782.2007 512.749346 790.95902 510.121846 801.03109 508.808147 808.47566 507.932247 817.67196 507.056547 826.86816 506.618547 835.62648 507.932247 844.3848 510.559846 852.70514 514.500946 857.52223 518.880249 861.90144 526.324749 863.65307 535.520949 863.21519 538.148549 861.02558 545.155149 856.64647 552.161749 849.63978 559.168449 840.44348 565.737149 831.68516 570.554249 822.48896 574.933449 814.16862 577.998849 805.84828 579.750449 797.52774 580.188449 788.76952 580.188449 778.69736 579.312549 769.93914 577.998849 762.05658 575.809349 754.17412 572.743749 746.72954 568.364649 739.28507 563.109649 731.84039 556.540949 725.27168 549.096349 727.0234 546.906749 733.59211 538.148549 739.28507 529.828049 744.10206 522.383549 747.16753 515.814848 748.91915 512.311446 752.4225 503.115147 753.73624 494.794849 752.86038 485.598549 750.67077 476.402449 747.16753 468.519849 742.35043 461.513249 735.78172 455.382449 733.59211 453.192749 726.14754 449.251649 717.8271 446.186249 708.19302 444.434549 697.68297 443.996649 695.49337 444.434549 685.42131 445.310449 679.72835 446.624049 671.40801 449.251649 660.89797 453.630749 660.89797 453.192749 663.96354 444.434549 669.21851 436.989949 675.78722 432.172849 684.54554 430.421249 690.67638 430.859149 701.18632 433.048749 711.25838 436.114049 719.57872 436.989949 721.76833 436.552049 729.21291 435.676249 736.2195 433.486649 742.78822 429.983249 748.48117 425.166249 754.17412 419.035349 758.99121 411.590849 763.8082 403.27058 767.74953 393.19847 771.69076 381.81257 762.93244 386.19177 753.73624 387.50557 749.79491 387.50557 741.91245 386.19177 732.71625 383.56417 723.08207 379.18507 716.07548 374.80587 708.19302 369.55087 700.74834 363.85807 697.68297 369.11307zM614.04111 382.25057L605.72067 385.75377 596.962341 387.06757 593.02111 386.62967 584.700672 385.31587 575.504571 382.68847 565.870289 378.30927 559.301574 374.80587 551.419116 369.55087 543.536559 363.85807 539.59543 369.55087 534.778239 376.11967 529.523267 382.68847 522.516671 389.69517 514.634213 397.13957 505.875892 405.022159 501.934663 408.087549 493.614226 414.218349 493.614226 521.069849 501.058801 517.566448 509.817121 513.625246 518.137462 510.997746 519.013423 510.559846 529.085486 508.808147 536.967844 507.932247 542.660797 508.370247 551.856998 509.246147 561.053298 511.435646 566.30827 513.625246 574.190728 518.880249 579.007719 525.448949 580.321562 533.331349 580.321562 536.396849 578.569938 544.717249 575.06659 553.037649 569.811618 560.482249 562.366941 567.051049 555.360345 572.305949 547.039907 576.247149 538.719568 579.312549 529.961248 581.064249 520.327066 581.502149 511.568746 581.502149 501.496682 580.188449 492.300483 578.436749 483.980045 575.809349 476.973449 572.305949 473.907982 570.554249 467.339267 566.175049 459.456809 560.482249 449.822632 553.475649 452.012232 546.031049 455.077602 535.520949 455.953562 531.141849 456.391342 521.507649 455.953562 512.311446 455.077602 502.239447 453.325972 493.043149 451.136372 484.284849 448.071002 476.402449 444.129772 468.957749 441.502292 465.016549 435.809332 458.447849 429.240622 452.754949 421.796042 448.813649 413.037722 445.748249 403.84153 443.996649 393.76947 443.120749 389.82814 443.558649 380.63204 444.434549 371.43574 446.624049 362.23944 449.689549 355.23294 452.754949 358.29831 443.558649 363.99116 436.989949 370.55998 432.172849 379.75608 430.421249 385.88701 430.859149 395.95907 433.924549 405.59315 436.989949 413.913582 438.303749 416.541072 438.303749 423.985552 436.989949 430.992242 434.800349 437.560962 431.297049 443.691892 426.042049 449.384742 419.911349 454.201832 412.466649 458.580942 403.70838 462.522276 394.07427 466.025624 382.68847 464.2739 384.00217 456.829322 388.38127 447.633022 389.69517 444.129772 389.69517 436.247212 387.94337 427.051112 384.87797 417.416832 379.62307 411.723982 376.11967 403.84153 370.86477 395.08321 363.85807 391.14198 369.55087 386.76277 375.68187 381.06982 382.25057 374.06332 389.69517 366.18077 397.13957 357.42245 405.022159 353.04334 408.525449 345.16088 415.094249 345.16088 518.880249 352.16738 515.814848 360.9257 512.311446 369.68411 509.246147 370.99776 508.808147 381.06982 506.180647 388.95238 505.304747 393.33149 505.304747 402.96567 506.180647 411.723982 508.808147 417.854812 510.997746 425.299392 516.252748 429.678502 522.821549 431.430222 531.141849 430.992242 534.645249 429.240622 542.965549 425.737272 551.285949 420.482302 558.730549 413.037722 565.737149 406.46901 570.554249 398.58646 574.495449 390.26612 577.560949 381.5078 579.750449 371.87372 580.188449 365.74279 580.188449 356.1087 578.874749 346.9124 577.123049 338.15418 574.057649 330.27163 570.554249 322.82715 565.737149 319.76168 563.547649 315.38257 558.730549 308.81386 552.599749 300.49342 544.279349 290.85924 534.207249 331.58537 417.283749 329.39586 416.407949 323.70291 412.904649 314.94459 407.211659 301.36918 399.32917 296.99007 396.70187 287.35589 391.44677 278.59767 386.62967 271.15309 383.12627 264.1464 380.49887 262.83265 380.06097 253.19847 376.55757 244.44025 373.05427 235.24395 370.42677 226.04765 368.23717 208.53111 364.73377 199.77279 363.85807 194.07984 366.48557 186.19738 370.86477 177.87704 375.24387 169.99449 379.62307 161.67405 384.44017 152.91573 389.69517 148.9745 392.32247 135.83707 399.76717 125.32702 405.897959 117.88255 410.715049 112.62758 413.780449 109.99999 415.094249 109.99999 510.121846 112.18959 508.808147 120.94791 504.866947 129.70623 502.239447 138.46455 501.363547 145.03327 501.801547 155.10533 503.553147 162.55001 507.056547 168.24286 511.873546 171.30823 518.880249 169.5565 521.069849 163.86365 525.448949 154.66745 531.579749 141.53002 539.900149 138.90244 541.213949 129.26835 547.782649 121.82368 554.789349 116.13092 561.358049 113.06546 567.926749 112.18959 574.495449 112.18959 576.685049 112.62758 586.319149 113.94132 595.953449 116.5687 605.14956 119.63417 613.46997 123.5754 621.35257 126.20289 625.73167 132.33372 632.73827 139.34042 637.99337 146.78499 641.93457 155.54331 644.56207 164.73951 644.99997 171.30823 644.99997 180.50443 643.24837 189.26285 640.62087 197.14521 636.67957 204.58988 631.42457 206.77949 629.67287 212.91022 622.66617 216.85155 615.22167 219.47894 606.46336 220.3548 596.829249 219.91692 587.195049 217.72731 578.436749 214.22396 570.992149 209.40687 565.737149 202.83816 561.795949 194.9557 559.168449 185.32152 558.292649 179.19079 562.233849 170.43247 571.430149 163.42577 575.809349 159.48444 574.495449 155.10533 569.240549 155.98119 566.175049 159.48444 560.920049 165.61538 554.789349 174.37369 547.344649 185.32152 539.024349 186.19738 538.148549 194.9557 531.141849 201.9623 524.135149 207.65525 517.128548 211.59648 509.683947 213.78608 501.801547 214.66195 493.919049 213.78608 484.722749 211.1586 476.402449 207.21727 468.519849 201.08654 461.513249 193.64196 455.382449 188.38689 451.003249 180.06655 446.624049 172.18409 443.558649 163.42577 440.931249 154.22947 439.617449 144.59539 439.179549 135.83707 439.179549 127.95461 440.493349 135.39909 434.362349 143.28164 429.983249 151.60208 426.917849 159.04666 424.728249 168.24286 423.414549 177.87704 422.976649 181.38029 422.976649 190.13861 423.852549 199.33481 425.604149 209.84485 428.231649 212.91022 429.107549 219.91692 431.734949 227.79938 435.238349 236.5577 439.617449 245.7539 445.310449 255.38808 451.441149 261.51891 455.820349 271.15309 463.264949 278.15969 469.833649 282.10092 475.526449 283.41466 480.781549 244.44025 589.384649 247.50562 594.201749 252.32271 599.456749 259.32931 606.02546 268.08763 613.03217 278.59767 620.47657 279.03545 620.91457 288.66973 627.48327 297.86583 632.73827 306.62425 637.11747 314.94459 640.62087 322.82715 643.24837 330.70961 644.56207 337.7162 644.99997 347.35038 644.99997 357.42245 644.12417 367.49451 642.81037 376.69071 640.62087 385.44903 637.99337 393.33149 634.92787 401.21405 631.42457 408.22074 627.04547 414.789452 621.79047 420.920182 616.09747 425.299392 617.84927 431.430222 620.91457 440.188542 624.85577 451.136372 629.67287 463.835919 635.80377 471.718377 638.86917 482.228421 642.37257 490.548759 644.56207 496.241712 644.99997 500.62082 644.99997 510.692884 644.56207 519.889185 643.24837 529.085486 641.49657 536.967844 638.86917 545.288283 635.80377 553.17084 631.86247 560.615317 627.48327 567.622013 622.22837 573.752847 616.53547 579.88368 609.96677 586.014414 602.960044 591.269386 595.515449 593.02111 592.450149 597.400322 584.567549 601.779428 575.809349 604.406918 567.488749 607.47239 558.730549 609.6619 549.534249 610.97574 540.338049 611.8515 531.141849 612.28938 521.507649 611.8515 512.749346 610.53776 503.115147 608.34815 493.919049 605.28279 485.598549 601.341448 477.716049 596.086479 470.271549 592.583129 466.330349 586.014414 460.199449 579.007719 455.382449 570.68738 451.003249 562.366941 448.375749 552.732859 446.624049 542.222916 446.186249 532.588734 447.062049 523.830414 448.813649 514.634213 451.879149 512.444608 452.754949 503.686287 457.572049 504.124168 455.382449 508.065497 446.186249 512.882489 438.303749 519.451205 432.172849 528.209524 430.421249 533.902477 430.859149 544.412521 433.924549 554.046602 436.989949 562.366941 438.303749 565.432408 438.303749 572.876985 436.989949 579.88368 434.362349 586.452395 430.859149 592.145348 426.042049 597.838103 419.473349 602.655298 412.028849 607.03441 403.27058 610.97574 393.19847 614.47899 381.81257 614.04111 382.25057zM350.38578 798.22256C350.41438 804.00326 354.05333 808.51546 364.10329 810.60646L386.20377 815.55996C398.15105 817.97486 407.46595 827.58026 407.54216 840.51826 407.46596 859.74506 392.76564 874.15326 370.19997 874.24056 352.30688 874.15356 343.57461 869.35046 329.99999 854.99786L343.14595 843.94766C352.88956 854.65016 360.45641 858.28916 370.19997 858.23676 382.86966 858.28876 390.87474 854.06916 390.96681 844.51926 390.87471 838.35106 386.36256 832.96566 378.20189 831.18266L357.6256 826.80076C342.70143 823.65076 333.53258 811.71776 333.61988 798.98466 333.53258 780.57236 347.6502 768.92826 370.00947 768.88226 370.00947 768.88226 395.82195 768.92826 405.63696 785.45756L391.7289 795.93626C384.17952 783.91916 367.72323 783.93346 367.72323 783.93346 356.23637 783.91946 350.41437 790.03176 350.38578 798.22256"/>
    <polyline fill="#FFF" points="467.366 786.601 467.366 871.954 450.409 871.954 450.409 786.601 422.593 786.601 422.593 771.168 495.182 771.168 495.182 786.601 467.366 786.601"/>
    <path fill="#FFF" d="M556.332435 767.35346C525.120284 767.41546 508.539232 790.69886 508.521772 820.88696 508.539072 854.29956 526.722294 874.96976 556.332435 874.99996 589.011625 874.96996 604.446295 851.82446 604.541575 820.88696 604.446275 789.97166 587.847855 767.41536 556.332435 767.35346zM556.332435 783.36276C575.476685 783.43076 586.689415 795.93816 586.630986 820.88696 586.689465 843.96546 578.679005 859.11046 556.332435 859.18986 534.871825 859.11086 526.142944 845.13076 526.233444 820.88696 526.142944 798.70386 533.998595 783.43106 556.332435 783.36276zM629.3162 770.594963L629.3162 871.95746 646.82868 871.95746 647.02789 834.99466 667.03957 834.99466C689.7259 835.00466 699.91424 816.80226 699.99999 802.59576 699.91429 787.40326 691.16808 770.52846 664.73959 770.594963L629.3162 770.594963 629.3162 770.594963zM646.82868 786.02496L665.69943 786.02496C676.03841 785.95396 683.60859 792.50676 683.61033 802.79496 683.61033 813.90076 676.90293 819.42606 665.50022 819.36566L646.82868 819.36566 646.82868 786.02496 646.82868 786.02496z"/>
  </g>
</svg>
