<?xml version="1.0" encoding="UTF-8" standalone="no"?>
<!-- Created with Inkscape (http://www.inkscape.org/) -->

<svg
   xmlns:dc="http://purl.org/dc/elements/1.1/"
   xmlns:cc="http://creativecommons.org/ns#"
   xmlns:rdf="http://www.w3.org/1999/02/22-rdf-syntax-ns#"
   xmlns:svg="http://www.w3.org/2000/svg"
   xmlns="http://www.w3.org/2000/svg"
   xmlns:sodipodi="http://sodipodi.sourceforge.net/DTD/sodipodi-0.dtd"
   xmlns:inkscape="http://www.inkscape.org/namespaces/inkscape"
   id="svg17624"
   version="1.1"
   inkscape:version="0.48.2 r9819"
   width="321.02499"
   height="285.59531"
   xml:space="preserve"
   sodipodi:docname="AJAX1.svg"><metadata
     id="metadata17630"><rdf:RDF><cc:Work
         rdf:about=""><dc:format>image/svg+xml</dc:format><dc:type
           rdf:resource="http://purl.org/dc/dcmitype/StillImage" /><dc:title /></cc:Work></rdf:RDF></metadata><defs
     id="defs17628"><inkscape:perspective
       sodipodi:type="inkscape:persp3d"
       inkscape:vp_x="0 : 0.5 : 1"
       inkscape:vp_y="0 : 1000 : 0"
       inkscape:vp_z="1 : 0.5 : 1"
       inkscape:persp3d-origin="0.5 : 0.33333333 : 1"
       id="perspective17632" /><clipPath
       clipPathUnits="userSpaceOnUse"
       id="clipPath17642"><path
         d="m -2,710 501,0 0,-711 -501,0 0,711 z"
         id="path17644"
         inkscape:connector-curvature="0" /></clipPath><clipPath
       clipPathUnits="userSpaceOnUse"
       id="clipPath17648"><path
         d="m 0,708.06 498,0 0,-708 -498,0 0,708 z"
         id="path17650"
         inkscape:connector-curvature="0" /></clipPath><clipPath
       clipPathUnits="userSpaceOnUse"
       id="clipPath17798"><path
         d="m -2,710 501,0 0,-711 -501,0 0,711 z"
         id="path17800"
         inkscape:connector-curvature="0" /></clipPath><clipPath
       clipPathUnits="userSpaceOnUse"
       id="clipPath17804"><path
         d="m 0,708.06 498,0 0,-708 -498,0 0,708 z"
         id="path17806"
         inkscape:connector-curvature="0" /></clipPath><clipPath
       id="Clip0"><path
         inkscape:connector-curvature="0"
         d="m 0,0 212.597,0 0,269.292 L 0,269.292 0,0 z"
         transform="translate(0.923828,0.879883)"
         id="path7" /></clipPath></defs><sodipodi:namedview
     pagecolor="#ffffff"
     bordercolor="#666666"
     borderopacity="1"
     objecttolerance="10"
     gridtolerance="10"
     guidetolerance="10"
     inkscape:pageopacity="0"
     inkscape:pageshadow="2"
     inkscape:window-width="1280"
     inkscape:window-height="1004"
     id="namedview17626"
     showgrid="false"
     inkscape:zoom="32.036157"
     inkscape:cx="320.46583"
     inkscape:cy="274.81324"
     inkscape:window-x="-8"
     inkscape:window-y="-8"
     inkscape:window-maximized="1"
     inkscape:current-layer="g17634"
     fit-margin-top="0.2"
     fit-margin-left="0.2"
     fit-margin-right="0.2"
     fit-margin-bottom="0.2"
     showguides="true"
     inkscape:guide-bbox="true" /><g
     id="g17634"
     inkscape:groupmode="layer"
     inkscape:label="GG1999P002"
     transform="matrix(1.25,0,0,-1.25,1.528125,325.825)"><path
       inkscape:connector-curvature="0"
       style="fill:#ffffff;fill-rule:nonzero;stroke:#000000;stroke-width:1.36000001;stroke-miterlimit:4;stroke-opacity:1;stroke-dasharray:none"
       d="m -0.369516,242.80334 c 0,9.39354 7.61524,17.0078 17.0078,17.0078 l 221.103196,0 c 9.393,0 17.008,-7.61426 17.008,-17.0078 l 0,-192.756201 c 0,-9.393 -7.615,-17.008 -17.008,-17.008 l -221.103196,0 c -9.39256,0 -17.0078,7.615 -17.0078,17.008 l 0,192.756201 z"
       id="path11" /><path
       inkscape:connector-curvature="0"
       style="fill:#c0111e;fill-opacity:1;fill-rule:nonzero;stroke:none"
       d="m 3.59923,242.8034 c 0,7.20115 5.83787,13.039 13.0391,13.039 l 221.1029,0 c 7.202,0 13.039,-5.83785 13.039,-13.039 l 0,-192.756005 c 0,-7.201 -5.837,-13.039 -13.039,-13.039 l -221.1029,0 c -7.20123,0 -13.0391,5.838 -13.0391,13.039 l 0,192.756005 z"
       id="path13" /><path
       inkscape:connector-curvature="0"
       style="fill:#ffffff;fill-rule:nonzero;stroke:none"
       d="m 9.5524,242.80334 c 0,3.914 3.1728,7.0869 7.0859,7.0869 l 221.1031,0 c 3.914,0 7.087,-3.1729 7.087,-7.0869 l 0,-192.756097 c 0,-3.914 -3.173,-7.087 -7.087,-7.087 l -221.1031,0 c -3.9131,0 -7.0859,3.173 -7.0859,7.087 l 0,192.756097 z"
       id="path15" /><path
       inkscape:connector-curvature="0"
       style="fill:#c0111e;fill-opacity:1;fill-rule:nonzero;stroke:none"
       d="m 33.7877,103.94424 0,-5.616997 7.5742,0 0,-36.934 6.2549,0 0,36.934 7.4463,0 0,5.616997 -21.2754,0 z"
       id="path17" /><path
       inkscape:connector-curvature="0"
       style="fill:#c0111e;fill-opacity:1;fill-rule:evenodd;stroke:none"
       d="m 79.1451,82.115243 c 1.8731,0.652 3.3907,2.028 4.5528,4.128 1.0498,1.927 1.5752,3.985 1.5752,6.168 0,2.809 -0.8653,5.39 -2.5957,7.744997 -1.8438,2.524 -4.0274,3.787 -6.5528,3.788 l -14.2539,0 0,-42.550997 5.8711,0 0,19.743 5.5322,0 5.6582,-19.743 6.3409,0 -6.128,20.722 z m -3.957,5.148 -7.4463,0 0,10.596 7.4893,0 c 2.5527,0 3.8291,-1.745 3.8291,-5.235 0,-1.418 -0.3116,-2.623 -0.9356,-3.617 -0.709,-1.162 -1.6875,-1.744 -2.9365,-1.744 z"
       id="path19" /><path
       inkscape:connector-curvature="0"
       style="fill:#c0111e;fill-opacity:1;fill-rule:evenodd;stroke:none"
       d="m 102.379,79.093243 2.977,11.446 3.022,-11.446 -5.999,0 z m -10.1704,-17.7 6.169,0 2.8514,11.829 8.68,0 3.063,-11.829 6.085,0 -10.679,42.550997 -5.999,0 -10.1704,-42.550997 z"
       id="path21" /><path
       inkscape:connector-curvature="0"
       style="fill:#c0111e;fill-opacity:1;fill-rule:nonzero;stroke:none"
       d="m 125.737,103.94424 0,-42.550997 5.914,0 0,20.552 8.724,0 0,6.084 -8.724,0 0,10.043 15.361,0 0,5.871997 -21.275,0 z"
       id="path23" /><path
       inkscape:connector-curvature="0"
       style="fill:#c0111e;fill-opacity:1;fill-rule:nonzero;stroke:none"
       d="m 153.905,103.94424 0,-42.550997 5.914,0 0,20.552 8.723,0 0,6.084 -8.723,0 0,10.043 15.36,0 0,5.871997 -21.274,0 z"
       id="path25" /><path
       inkscape:connector-curvature="0"
       style="fill:#c0111e;fill-opacity:1;fill-rule:nonzero;stroke:none"
       d="m 182.072,61.393243 5.957,0 0,42.550997 -5.957,0 0,-42.550997 z"
       id="path27" /><path
       inkscape:connector-curvature="0"
       style="fill:#c0111e;fill-opacity:1;fill-rule:nonzero;stroke:none"
       d="m 214.622,72.711243 c 0,-1.815 -0.468,-3.304 -1.404,-4.467 -0.936,-1.164 -2.099,-1.745 -3.489,-1.745 -4.397,0 -6.596,5.673 -6.596,17.02 0,3.659 0.327,6.737 0.979,9.233 1.05,3.971 2.851,5.957 5.404,5.957 1.362,0 2.553,-0.539 3.574,-1.617 1.021,-1.078 1.532,-2.226 1.532,-3.446 l 5.915,0 c 0,3.319 -1.036,5.999 -3.107,8.041997 -2.071,2.071 -4.709,3.105 -7.914,3.105 -8.226,0 -12.34,-7.090997 -12.34,-21.273997 0,-6.468 0.624,-11.432 1.872,-14.893 1.958,-5.361 5.49,-8.041 10.596,-8.041 3.262,0 5.9,1.077 7.913,3.233 2.015,2.184 3.022,5.149 3.022,8.893 l -5.957,0 z"
       id="path29" /><path
       inkscape:connector-curvature="0"
       style="fill:#c0111e;fill-opacity:1;fill-rule:nonzero;stroke:none"
       d="m 37.0475,199.44784 c 0,-4.0283 0.9365,-7.0068 2.8086,-8.9365 1.5312,-1.5596 3.6025,-2.3389 6.2119,-2.3389 2.582,0 4.7519,1.0489 6.5107,3.1485 1.5313,1.8427 2.2969,3.8007 2.2969,5.8711 0,2.9218 -0.7227,6.0849 -2.1689,9.4892 -1.7598,4.084 -4.2276,7.502 -7.4043,10.2539 -0.6524,0.5674 -1.2051,1.5186 -1.6592,2.8506 -0.4258,1.2207 -0.6387,2.3828 -0.6387,3.4893 0,2.4394 1.0498,3.6591 3.1484,3.6591 2.043,0 3.0645,-1.5312 3.0645,-4.5947 l 5.2334,0 c 0,3.1485 -0.8369,5.6309 -2.5107,7.4463 -1.5313,1.7022 -3.4747,2.5527 -5.8291,2.5527 -2.1846,0 -4.0997,-0.7656 -5.7442,-2.2978 -1.7871,-1.7022 -2.6807,-3.9141 -2.6807,-6.6377 0,-1.7588 0.4678,-3.7578 1.4043,-6 0.879,-2.0986 1.8291,-3.6875 2.8506,-4.7656 2.3262,-2.4112 3.5879,-3.7578 3.7871,-4.042 1.2764,-1.5889 2.3252,-3.5742 3.1485,-5.9571 0.539,-1.5312 0.8086,-2.9921 0.8086,-4.3818 0,-1.4756 -0.3262,-2.6523 -0.9795,-3.5322 -0.6231,-0.8789 -1.5313,-1.3184 -2.7227,-1.3184 -1.1631,0 -2.0703,0.4815 -2.7226,1.4463 -0.7383,1.0772 -1.1065,2.6094 -1.1065,4.5957 l -5.1064,0 z"
       id="path31" /><path
       inkscape:connector-curvature="0"
       style="fill:#c0111e;fill-opacity:1;fill-rule:nonzero;stroke:none"
       d="m 61.3863,231.48794 0,-5.2334 5.5313,0 0,-37.3164 5.4033,0 0,37.3164 5.2764,0 0,5.2334 -16.211,0 z"
       id="path33" /><path
       inkscape:connector-curvature="0"
       style="fill:#c0111e;fill-opacity:1;fill-rule:evenodd;stroke:none"
       d="m 92.658796,214.25454 -3.4883,0 0,12 3.4883,0 c 1.1065,0 2.0283,-0.7247 2.7666,-2.1709 0.624,-1.2481 0.9356,-2.6094 0.9356,-4.085 0,-1.248 -0.3545,-2.4961 -1.0635,-3.7441 -0.794,-1.3331 -1.6739,-2 -2.6387,-2 z m 4.8506,-3.5313 c 2.695604,1.9854 4.042604,4.9785 4.042604,8.9775 0,4.2832 -0.978,7.418 -2.936204,9.4034 -1.5312,1.5888 -3.5449,2.3828 -6.042,2.3838 l -8.5517,0 0,-42.5498 5.1484,0 0,19.9121 3.1485,0 4.2548,-19.9121 5.276204,0 -4.340604,21.7851 z"
       id="path35" /><path
       inkscape:connector-curvature="0"
       style="fill:#c0111e;fill-opacity:1;fill-rule:evenodd;stroke:none"
       d="m 108.488,188.93814 5.446,0 2,10.7226 7.319,0 2.382,-10.7226 5.447,0 -8.978,42.5498 -5.319,0 -8.297,-42.5498 z m 8.681,15.998 2.424,12.4668 2.809,-12.4668 -5.233,0 z"
       id="path37" /><path
       inkscape:connector-curvature="0"
       style="fill:#c0111e;fill-opacity:1;fill-rule:nonzero;stroke:none"
       d="m 137.719,188.93814 5.319,0 0,42.5498 -5.319,0 0,-42.5498 z"
       id="path39" /><path
       inkscape:connector-curvature="0"
       style="fill:#c0111e;fill-opacity:1;fill-rule:nonzero;stroke:none"
       d="m 163.588,223.99864 5.235,0 c 0,2.4111 -0.795,4.3965 -2.383,5.957 -1.589,1.5889 -3.532,2.3828 -5.83,2.3828 -3.914,0 -6.566,-2.2548 -7.956,-6.7656 -1.022,-3.2334 -1.532,-8.4248 -1.532,-15.5732 0,-7.375 0.61,-12.6797 1.83,-15.9141 1.474,-3.999 4.127,-5.9844 7.956,-5.956 3.887,0.0283 6.468,2.0419 7.744,6.041 0.171,0.54 0.256,2.9228 0.256,7.1484 l 0,8.3408 -7.915,0 0,-5.3613 2.808,0 0,-5.3623 c 0,-3.6299 -1.021,-5.4453 -3.063,-5.4453 -2.837,0 -4.255,4.4961 -4.255,13.4883 l 0,3.0625 c 0,0.3125 0,0.9648 0,1.958 -0.028,0.9922 -0.042,1.8008 -0.042,2.4258 0,8.3671 1.361,12.5517 4.084,12.5517 0.879,0 1.604,-0.3125 2.17,-0.9365 0.596,-0.5957 0.893,-1.2764 0.893,-2.042 z"
       id="path41" /><path
       inkscape:connector-curvature="0"
       style="fill:#c0111e;fill-opacity:1;fill-rule:nonzero;stroke:none"
       d="m 176.779,231.48794 0,-42.5498 5.36,0 0,19.8701 7.192,0 0,-19.8701 5.276,0 0,42.5498 -5.276,0 0,-17.3604 -7.192,0 0,17.3604 -5.36,0 z"
       id="path43" /><path
       inkscape:connector-curvature="0"
       style="fill:#c0111e;fill-opacity:1;fill-rule:nonzero;stroke:none"
       d="m 201.16,231.48794 0,-5.2334 5.531,0 0,-37.3164 5.403,0 0,37.3164 5.278,0 0,5.2334 -16.212,0 z"
       id="path45" /><path
       inkscape:connector-curvature="0"
       style="fill:#c0111e;fill-opacity:1;fill-rule:evenodd;stroke:none"
       d="m 62.524,142.87224 2.9786,11.448 3.0214,-11.448 -6,0 z m -10.1689,-17.699 6.1689,0 2.8516,11.828 8.6797,0 3.0635,-11.828 6.0849,0 -10.6797,42.55 -6,0 -10.1689,-42.55 z"
       id="path47" /><path
       inkscape:connector-curvature="0"
       style="fill:#c0111e;fill-opacity:1;fill-rule:nonzero;stroke:none"
       d="m 86.138304,167.72324 0,-42.55 6.042,0 0,19.318 11.700696,0 0,-19.318 5.66,0 0,42.55 -5.66,0 0,-17.233 -11.700696,0 0,17.233 -6.042,0 z"
       id="path49" /><path
       inkscape:connector-curvature="0"
       style="fill:#c0111e;fill-opacity:1;fill-rule:nonzero;stroke:none"
       d="m 118.689,167.72324 0,-42.55 21.274,0 0,5.999 -15.445,0 0,14.041 9.063,0 0,5.829 -9.063,0 0,10.681 14.765,0 0,6 -20.594,0 z"
       id="path51" /><path
       inkscape:connector-curvature="0"
       style="fill:#c0111e;fill-opacity:1;fill-rule:evenodd;stroke:none"
       d="m 154.942,142.87224 2.978,11.448 3.021,-11.448 -5.999,0 z m -10.17,-17.699 6.169,0 2.852,11.828 8.679,0 3.065,-11.828 6.084,0 -10.68,42.55 -5.999,0 -10.17,-42.55 z"
       id="path53" /><path
       inkscape:connector-curvature="0"
       style="fill:#c0111e;fill-opacity:1;fill-rule:evenodd;stroke:none"
       d="m 188.172,167.72324 -9.659,0 0,-42.55 9.659,0 c 5.389,0 9.134,2.113 11.234,6.339 1.673,3.348 2.51,8.709 2.51,16.084 0,6.27 -0.908,11.021 -2.723,14.2549 -2.213,3.9141 -5.887,5.8721 -11.021,5.8721 z m -0.212,-5.8721 c 3.261,0 5.474,-1.4619 6.637,-4.3829 0.794,-2.015 1.192,-5.348 1.192,-10 l 0,-2.425 c 0,-4.369 -0.355,-7.517 -1.064,-9.446 -1.078,-2.95 -3.149,-4.425 -6.213,-4.425 l -4.085,0 0,30.6789 3.533,0 z"
       id="path55" /></g></svg>