<?xml version="1.0" encoding="utf-8"?>
<!-- Generator: Adobe Illustrator 15.0.0, SVG Export Plug-In . SVG Version: 6.00 Build 0)  -->
<!DOCTYPE svg PUBLIC "-//W3C//DTD SVG 1.1//EN" "http://www.w3.org/Graphics/SVG/1.1/DTD/svg11.dtd">
<svg version="1.1" id="Layer_1" xmlns="http://www.w3.org/2000/svg" xmlns:xlink="http://www.w3.org/1999/xlink" x="0px" y="0px"
	 width="566.93px" height="566.93px" viewBox="0 0 566.93 566.93" enable-background="new 0 0 566.93 566.93" xml:space="preserve">
<g>
	<g>
		<polyline fill-rule="evenodd" clip-rule="evenodd" fill="#E94E1B" points="250.047,33.604 268.168,15.481 292.14,12.753 
			547.104,267.715 549.504,293.485 291.413,551.576 268.79,550.646 8.406,290.26 10.553,273.098 		"/>
		<path fill-rule="evenodd" clip-rule="evenodd" d="M272.291,21.985L272.291,21.985c4.867-4.866,12.594-5.043,17.247-0.392
			l8.701-8.703c-9.37-9.371-24.822-9.126-34.496,0.548"/>
		<path fill-rule="evenodd" clip-rule="evenodd" d="M542.145,291.839L542.145,291.839c4.867-4.866,4.991-12.648,0.277-17.362
			l8.702-8.702c9.37,9.371,9.126,24.823-0.548,34.497"/>
		<path fill-rule="evenodd" clip-rule="evenodd" d="M290.247,543.737L290.247,543.737c-4.866,4.865-12.646,4.991-17.361,0.276
			l-8.707,8.706c9.37,9.369,24.827,9.12,34.5-0.553"/>
		<path fill-rule="evenodd" clip-rule="evenodd" d="M20.394,273.883L20.394,273.883c-4.868,4.866-5.044,12.595-0.393,17.245
			l-8.707,8.706c-9.371-9.37-9.121-24.825,0.551-34.5"/>
		
			<rect x="136.026" y="-34.46" transform="matrix(-0.7072 -0.707 0.707 -0.7072 140.9583 345.6971)" fill-rule="evenodd" clip-rule="evenodd" width="12.082" height="356.237"/>
		
			<rect x="241.794" y="137.646" transform="matrix(-0.7071 -0.7071 0.7071 -0.7071 616.0657 542.7817)" fill-rule="evenodd" clip-rule="evenodd" width="357.305" height="12.306"/>
		
			<rect x="414.427" y="243.941" transform="matrix(-0.7071 -0.7071 0.7071 -0.7071 419.3763 1017.8164)" fill-rule="evenodd" clip-rule="evenodd" width="12.082" height="356.237"/>
		
			<rect x="-36.446" y="415.884" transform="matrix(-0.7071 -0.7071 0.7071 -0.7071 -55.6668 821.0221)" fill-rule="evenodd" clip-rule="evenodd" width="357.305" height="12.313"/>
	</g>
	<path fill-rule="evenodd" clip-rule="evenodd" d="M240.716,141.167l68.639-68.734l68.639,68.734v68.65l-45.771-45.759l0.006,67.676
		c0,63.667-95.055,76.975-95.055,128.696v80.294h-52.312c0,0,0-73.226,0-80.294c0-85.173,101.619-89.49,101.619-150.999
		l-0.006-45.373l-45.759,45.759V141.167z"/>
</g>
</svg>
