<?xml version="1.0" encoding="UTF-8" standalone="no"?>
<!-- Created with Inkscape (http://www.inkscape.org/) -->

<svg
   xmlns:dc="http://purl.org/dc/elements/1.1/"
   xmlns:cc="http://creativecommons.org/ns#"
   xmlns:rdf="http://www.w3.org/1999/02/22-rdf-syntax-ns#"
   xmlns:svg="http://www.w3.org/2000/svg"
   xmlns="http://www.w3.org/2000/svg"
   xmlns:sodipodi="http://sodipodi.sourceforge.net/DTD/sodipodi-0.dtd"
   xmlns:inkscape="http://www.inkscape.org/namespaces/inkscape"
   width="702mm"
   height="702mm"
   viewBox="0 0 702 702"
   version="1.1"
   id="svg8"
   inkscape:version="0.92.2 (5c3e80d, 2017-08-06)"
   sodipodi:docname="Vietnam_road_sign_P129.svg">
  <defs
     id="defs2" />
  <sodipodi:namedview
     id="base"
     pagecolor="#ffffff"
     bordercolor="#666666"
     borderopacity="1.0"
     inkscape:pageopacity="0.0"
     inkscape:pageshadow="2"
     inkscape:zoom="0.2784233"
     inkscape:cx="1243.0432"
     inkscape:cy="2059.2838"
     inkscape:document-units="mm"
     inkscape:current-layer="layer1"
     showgrid="false"
     inkscape:window-width="1920"
     inkscape:window-height="1057"
     inkscape:window-x="-8"
     inkscape:window-y="-8"
     inkscape:window-maximized="1" />
  <metadata
     id="metadata5">
    <rdf:RDF>
      <cc:Work
         rdf:about="">
        <dc:format>image/svg+xml</dc:format>
        <dc:type
           rdf:resource="http://purl.org/dc/dcmitype/StillImage" />
        <dc:title></dc:title>
      </cc:Work>
    </rdf:RDF>
  </metadata>
  <g
     inkscape:label="Layer 1"
     inkscape:groupmode="layer"
     id="layer1"
     transform="translate(0,405)">
    <circle
       style="opacity:1;fill:#f00a0a;fill-opacity:1;fill-rule:nonzero;stroke:none;stroke-width:315.81494141;stroke-linecap:round;stroke-linejoin:round;stroke-miterlimit:4;stroke-dasharray:none;stroke-opacity:1;paint-order:stroke fill markers"
       id="path815"
       cx="351"
       cy="-54"
       r="350" />
    <circle
       cy="-54"
       cx="351"
       id="circle817"
       style="opacity:1;fill:#ffffff;fill-opacity:1;fill-rule:nonzero;stroke:none;stroke-width:225.58209229;stroke-linecap:round;stroke-linejoin:round;stroke-miterlimit:4;stroke-dasharray:none;stroke-opacity:1;paint-order:stroke fill markers"
       r="250" />
    <rect
       style="opacity:1;fill:#000000;fill-opacity:1;fill-rule:nonzero;stroke:none;stroke-width:4.53034163;stroke-linecap:round;stroke-linejoin:miter;stroke-miterlimit:4;stroke-dasharray:none;stroke-opacity:1;paint-order:stroke fill markers"
       id="rect824"
       width="420"
       height="70"
       x="141"
       y="-89"
       rx="35"
       ry="35" />
    <g
       aria-label="KIỂM TRA"
       style="font-style:normal;font-variant:normal;font-weight:bold;font-stretch:normal;font-size:98.25907135px;line-height:0;font-family:Giaothong2;-inkscape-font-specification:'Giaothong2 Bold';letter-spacing:0px;word-spacing:0px;fill:#000000;fill-opacity:1;stroke:none;stroke-width:0.51176596"
       id="text828"
       transform="translate(-0.5,-2)">
      <path
         d="M 174.46303,88 Q 174,88 174,87.49488 V 27.17472 q 0,-0.50511 0.46303,-0.50511 h 9.1764 q 0.50513,0 0.50513,0.50511 v 29.97066 q 6.01938,-7.61894 12.03877,-15.11161 6.01939,-7.53475 12.08087,-15.1537 0.21047,-0.21046 0.37884,-0.21046 h 10.86016 q 0.33675,0 0.46303,0.29464 0.12628,0.29466 -0.0842,0.54723 l -19.11051,23.53033 q 5.34589,9.13432 10.5655,18.10025 5.2617,8.96594 10.64969,18.10026 0.12628,0.29466 0,0.54721 Q 221.90251,88 221.56577,88 h -10.86015 q -0.25256,0 -0.42094,-0.25255 L 194.12074,58.87122 q -2.6098,2.69399 -5.00914,5.21961 -2.39933,2.52562 -4.96704,5.2196 V 87.49488 Q 184.14456,88 183.63943,88 Z"
         style="line-height:0;fill:#000000;fill-opacity:1;stroke:none;stroke-width:0.44899854"
         id="path859"
         inkscape:connector-curvature="0" />
      <path
         d="m 228.7217,88 q -0.50513,0 -0.50513,-0.50512 V 27.17472 q 0,-0.50511 0.50513,-0.50511 h 9.13431 q 0.50513,0 0.50513,0.50511 V 87.49488 Q 238.36114,88 237.85601,88 Z"
         style="line-height:0;fill:#000000;fill-opacity:1;stroke:none;stroke-width:0.44899854"
         id="path861"
         inkscape:connector-curvature="0" />
      <path
         d="m 251.0734,88 q -0.50512,0 -0.50512,-0.50512 V 27.17472 q 0,-0.50511 0.50512,-0.50511 h 38.55776 q 0.50513,0 0.50513,0.50511 v 8.6713 q 0,0.50511 -0.50513,0.50511 h -28.91832 v 16.16396 h 24.58268 q 0.50513,0 0.50513,0.50511 v 8.16617 q 0,0.46303 -0.50513,0.46303 h -24.58268 v 16.75326 h 28.91832 q 0.50513,0 0.50513,0.50512 v 8.5871 Q 290.13629,88 289.63116,88 Z m 4.08309,-66.76047 q -0.37885,0 -0.46303,-0.33676 -0.0842,-0.33674 0.16837,-0.54721 l 12.37552,-9.80781 h 5.68264 l 12.5439,9.80781 q 0.29466,0.21047 0.16838,0.54721 -0.0842,0.33676 -0.46303,0.33676 h -7.07173 l -8.41873,-4.54611 q -1.85211,1.13652 -3.74633,2.27305 -1.89421,1.13653 -3.74633,2.27306 z m 26.47689,-6.14567 q -1.72584,0 -2.77818,0 v -1.93631 q 0.46303,-2.6519 3.2833,-4.3356405 4.41983,-1.8521199 4.04099,-4.3777399 -0.58931,-2.56771 -3.95681,-2.6098 -4.46192,0.0842 -4.71448,4.33564 h -6.27195 q 0,-2.35724 0.84187,-3.91471 0.88397,-1.55746 2.35725,-3.0307396 2.90446,-2.77817 7.57685,-2.86236 4.92495,0.0842 8.08197,2.77818 1.43119,1.4311796 2.23097,2.7781796 0.79977,1.347 0.84187,3.40958 -0.25257,2.90446 -3.24121,5.0933304 -2.52562,1.22071 -3.87261,1.93631 l -0.50513,0.54721 -0.54721,0.84187 -0.0842,1.347 q -1.51537,0 -3.2833,0 z"
         style="line-height:0;fill:#000000;fill-opacity:1;stroke:none;stroke-width:0.44899854"
         id="path863"
         inkscape:connector-curvature="0" />
      <path
         d="m 299.10223,88 q -0.50513,0 -0.50513,-0.50512 V 27.17472 q 0,-0.50511 0.50513,-0.50511 h 8.62919 q 0.29466,0 0.46303,0.29464 l 16.87954,38.2631 q 4.08308,-9.63943 8.20825,-19.1105 4.12518,-9.51315 8.25035,-19.1526 0.12629,-0.29464 0.46303,-0.29464 h 8.6292 q 0.50512,0 0.50512,0.50511 V 87.49488 Q 351.12994,88 350.62482,88 h -9.13432 q -0.50512,0 -0.50512,-0.50512 v -35.6112 q -2.94656,6.86126 -5.9352,13.63833 -2.98865,6.77708 -5.89311,13.59624 -0.16837,0.25256 -0.46302,0.25256 h -7.61895 q -0.29466,0 -0.46303,-0.25256 L 308.74166,51.79949 V 87.49488 Q 308.74166,88 308.23655,88 Z"
         style="line-height:0;fill:#000000;fill-opacity:1;stroke:none;stroke-width:0.44899854"
         id="path865"
         inkscape:connector-curvature="0" />
      <path
         d="m 395.49662,88 q -0.50513,0 -0.50513,-0.50512 V 35.80392 h -16.03766 q -0.50513,0 -0.50513,-0.50513 v -8.12407 q 0,-0.50511 0.50513,-0.50511 h 42.1778 q 0.50513,0 0.50513,0.50511 v 8.12407 q 0,0.50513 -0.50513,0.50513 H 405.13606 V 87.49488 Q 405.13606,88 404.63094,88 Z"
         style="line-height:0;fill:#000000;fill-opacity:1;stroke:none;stroke-width:0.44899854"
         id="path867"
         inkscape:connector-curvature="0" />
      <path
         d="m 438.01118,35.80392 v 17.30047 h 13.34368 q 4.88286,0 7.32429,-2.69399 2.44143,-2.69399 2.44143,-6.39823 0,-2.10467 -0.75769,-3.74633 -0.71558,-1.64165 -2.10468,-2.69399 -1.22071,-0.84188 -2.86236,-1.3049 -1.59956,-0.46303 -3.49378,-0.46303 z M 428.37175,88 q -0.50513,0 -0.50513,-0.50512 V 27.17472 q 0,-0.50511 0.50513,-0.50511 h 23.61451 q 3.91471,0 7.07173,1.09443 3.15702,1.05234 5.51427,3.03074 1.22071,1.13653 2.31514,2.6098 1.13653,1.43118 1.9784,3.11493 0.88397,1.68375 1.3891,3.57796 0.50511,1.89421 0.50511,3.9147 0,2.98865 -0.84187,5.68264 -0.84187,2.6519 -2.35724,4.96705 -1.55746,2.14677 -3.62005,3.78842 -2.06259,1.59956 -4.67239,2.56772 3.40959,6.52451 6.86126,13.1332 3.45168,6.56661 6.86126,13.09112 0.12628,0.29466 0,0.54721 Q 472.8647,88 472.57004,88 h -10.86015 q -0.12628,0 -0.25256,-0.0842 -0.12628,-0.12628 -0.21047,-0.21046 L 448.91343,62.2387 h -10.90225 v 25.25617 q 0,0.50512 -0.50513,0.50512 z"
         style="line-height:0;fill:#000000;fill-opacity:1;stroke:none;stroke-width:0.44899854"
         id="path869"
         inkscape:connector-curvature="0" />
      <path
         d="m 476.93871,87.95791 q -0.29466,0 -0.42094,-0.21046 -0.12628,-0.21047 -0.0421,-0.46304 l 22.05705,-60.36224 q 0.0842,-0.33676 0.42095,-0.33676 h 7.53475 q 0.12628,0 0.25257,0.12629 0.16837,0.0842 0.21046,0.21047 l 22.01496,60.36224 q 0.0842,0.25257 -0.0421,0.46304 -0.12629,0.21046 -0.37885,0.21046 h -9.63943 q -0.33676,0 -0.42094,-0.33675 l -4.54611,-13.30159 h -22.22543 q -1.17863,3.40959 -2.35724,6.6929 -1.13653,3.2412 -2.31516,6.60869 -0.0421,0.12629 -0.21047,0.25256 -0.12627,0.0842 -0.25255,0.0842 z m 33.96955,-22.68846 q -0.0842,-0.29466 -0.25256,-0.6314 -0.12629,-0.33675 -0.21047,-0.58931 -0.71559,-2.06259 -1.3049,-3.78843 -0.58932,-1.76793 -1.05235,-3.07284 -0.29465,-0.84187 -0.58931,-1.64164 -0.25256,-0.79978 -0.50511,-1.51537 -0.21048,-0.6735 -0.42095,-1.26281 -0.21047,-0.6314 -0.42093,-1.22072 -0.37884,-1.22071 -0.79978,-2.44143 -0.37884,-1.22071 -0.79978,-2.52562 -0.21046,-0.5893 -0.46303,-1.3049 -0.21046,-0.71559 -0.46303,-1.51537 -0.12627,-0.42093 -0.21047,-0.6314 -0.0421,-0.25257 -0.12627,-0.46303 -0.0842,-0.25257 -0.21047,-0.54722 -0.0842,-0.29465 -0.25256,-0.84187 -0.46303,1.38909 -0.88397,2.56771 -0.37884,1.17862 -0.71559,2.18887 -0.0842,0.25255 -0.12628,0.46303 -0.0421,0.21047 -0.12629,0.42094 -0.21046,0.71558 -0.46303,1.34699 -0.21047,0.6314 -0.42093,1.26281 -0.21047,0.67349 -0.42094,1.3049 -0.21047,0.63141 -0.42093,1.22072 -0.42094,1.2628 -0.88397,2.65189 -0.42094,1.38909 -0.96815,2.90446 -0.54722,1.51537 -1.13653,3.2833 -0.58931,1.72584 -1.51537,4.37774 z"
         style="line-height:0;fill:#000000;fill-opacity:1;stroke:none;stroke-width:0.44899854"
         id="path871"
         inkscape:connector-curvature="0" />
    </g>
  </g>
</svg>
