<svg xmlns="http://www.w3.org/2000/svg" width="20" height="24" viewBox="0 0 20 24">
  <g fill="none" fill-rule="evenodd">
    <path fill="#1A1919" fill-rule="nonzero" d="M0.884,0.06 C1.061,0.033 1.241,0.038 1.42,0.041 C7.246,0.042 13.071,0.017 18.896,0.052 C19.145,0.054 19.371,0.19 19.553,0.349 C19.765,0.542 19.948,0.786 20,1.074 L20,23.008 C19.928,23.445 19.589,23.794 19.213,24 L0.785,24 C0.411,23.793 0.074,23.446 0,23.012 L0,1.099 C0.069,0.619 0.467,0.276 0.875,0.063 C0.878,0.062 0.882,0.06 0.884,0.06 Z M0.969,0.194 C0.432,0.356 0.035,0.911 0.076,1.474 C0.079,8.58 0.076,15.687 0.078,22.793 C0.11,23.446 0.714,24.01 1.373,23.977 C7.039,23.981 12.704,23.977 18.37,23.979 C18.598,23.982 18.829,23.976 19.051,23.916 C19.453,23.788 19.759,23.44 19.882,23.042 C19.937,22.858 19.918,22.664 19.92,22.474 C19.919,15.423 19.921,8.372 19.919,1.322 C19.913,1.011 19.746,0.729 19.543,0.505 C19.294,0.246 18.934,0.134 18.581,0.139 C12.86,0.138 7.14,0.138 1.419,0.138 C1.267,0.142 1.116,0.16 0.968,0.194 L0.969,0.194 Z"/>
    <path fill="#1A1919" fill-rule="nonzero" d="M1.274,0.433 C1.357,0.422 1.44,0.417 1.524,0.415 C7.175,0.416 12.825,0.416 18.476,0.415 C18.698,0.424 18.934,0.437 19.124,0.565 C19.332,0.682 19.48,0.883 19.575,1.099 C19.667,1.3 19.641,1.525 19.643,1.739 C19.642,8.722 19.643,15.705 19.642,22.687 C19.637,23.011 19.448,23.319 19.191,23.508 C18.942,23.696 18.616,23.707 18.317,23.702 C12.686,23.699 7.055,23.705 1.424,23.699 C0.87,23.718 0.365,23.237 0.353,22.685 C0.352,15.702 0.353,8.719 0.352,1.736 C0.355,1.564 0.337,1.389 0.378,1.22 C0.492,0.817 0.841,0.465 1.272,0.433 L1.274,0.433 Z M1.234,0.986 C1.012,1.058 0.868,1.297 0.887,1.527 C0.889,8.562 0.887,15.596 0.888,22.631 C0.881,22.836 1.012,23.036 1.198,23.119 C1.368,23.19 1.557,23.164 1.736,23.169 C7.332,23.168 12.929,23.169 18.525,23.168 C18.827,23.197 19.121,22.942 19.11,22.635 C19.111,15.581 19.111,8.527 19.11,1.473 C19.118,1.166 18.826,0.927 18.529,0.949 C12.949,0.945 7.368,0.948 1.788,0.947 C1.603,0.949 1.413,0.932 1.233,0.985 L1.234,0.986 Z"/>
    <path fill="#FFFFFE" fill-rule="nonzero" d="M0.969,0.194 C1.117,0.16 1.268,0.142 1.42,0.138 C7.141,0.138 12.861,0.138 18.582,0.139 C18.935,0.134 19.295,0.246 19.544,0.505 C19.747,0.729 19.913,1.012 19.92,1.322 C19.922,8.373 19.92,15.424 19.921,22.474 C19.919,22.663 19.937,22.858 19.883,23.042 C19.76,23.44 19.454,23.788 19.052,23.916 C18.83,23.975 18.599,23.982 18.371,23.979 C12.705,23.977 7.04,23.981 1.374,23.977 C0.715,24.01 0.11,23.446 0.079,22.793 C0.077,15.687 0.081,8.58 0.077,1.474 C0.036,0.911 0.433,0.356 0.97,0.194 L0.969,0.194 Z M1.274,0.433 C0.843,0.465 0.494,0.818 0.38,1.22 C0.339,1.389 0.356,1.564 0.354,1.736 C0.355,8.719 0.354,15.702 0.355,22.685 C0.366,23.237 0.872,23.718 1.426,23.699 C7.057,23.704 12.688,23.698 18.319,23.702 C18.618,23.708 18.944,23.696 19.193,23.508 C19.45,23.319 19.638,23.011 19.644,22.687 C19.645,15.704 19.644,8.722 19.645,1.739 C19.642,1.525 19.668,1.3 19.577,1.099 C19.482,0.884 19.334,0.683 19.126,0.565 C18.936,0.437 18.699,0.424 18.478,0.415 C12.827,0.416 7.177,0.416 1.526,0.415 C1.442,0.417 1.359,0.422 1.276,0.433 L1.274,0.433 Z"/>
    <path fill="#FFFFFE" fill-rule="nonzero" d="M1.234,0.986 C1.413,0.933 1.603,0.95 1.789,0.948 C7.369,0.95 12.95,0.946 18.53,0.95 C18.827,0.928 19.119,1.167 19.111,1.474 C19.112,8.528 19.112,15.582 19.111,22.636 C19.123,22.943 18.828,23.199 18.526,23.169 C12.93,23.17 7.333,23.168 1.737,23.17 C1.558,23.165 1.369,23.191 1.199,23.12 C1.013,23.037 0.882,22.837 0.889,22.632 C0.888,15.597 0.89,8.563 0.888,1.528 C0.869,1.299 1.013,1.059 1.235,0.987 L1.234,0.986 Z"/>
    <path fill="#FFFFFE" fill-rule="nonzero" d="M5.177,17.972 C5.386,17.891 5.641,17.879 5.835,18.006 C6.055,18.152 6.117,18.426 6.192,18.662 C6.329,19.203 6.283,19.786 6.094,20.309 C6.004,20.502 5.869,20.727 5.633,20.744 C5.376,20.811 5.075,20.709 4.948,20.467 C4.657,19.903 4.641,19.232 4.789,18.625 C4.847,18.377 4.956,18.113 5.178,17.972 L5.177,17.972 Z"/>
    <circle cx="10" cy="8" r="2" fill="#FA1818"/>
    <circle cx="10" cy="12" r="2" fill="#F5A623"/>
    <circle cx="10" cy="16" r="2" fill="#44D321"/>
    <path fill="#000" fill-rule="nonzero" d="M16,10.6666667 L13.6,10.6666667 L13.6,9.33333333 C14.6666667,8.76 16,8 16,6.66666667 L13.6,6.66666667 C13.6,5.2 12,4 10.0133333,4 C8.02666667,4 6.4,5.2 6.4,6.66666667 L4,6.66666667 C4,8 5.33333333,8.76 6.4,9.33333333 L6.4,10.6666667 L4,10.6666667 C4,12 5.33333333,12.76 6.4,13.3333333 L6.4,14.6666667 L4,14.6666667 C4,16.16 5.13333333,16.8666667 6.4,17.3333333 C6.4,18.8 8.01333333,20 9.98666667,20 C11.96,20 13.5733333,18.8 13.5733333,17.3333333 C14.9066667,16.8666667 15.9333333,16.16 15.9733333,14.6666667 L13.6,14.6666667 L13.6,13.3333333 C14.6666667,12.76 16,12 16,10.6666667 Z M10,17.3333333 C9.26362033,17.3333333 8.66666667,16.7363797 8.66666667,16 C8.66666667,15.2636203 9.26362033,14.6666667 10,14.6666667 C10.7363797,14.6666667 11.3333333,15.2636203 11.3333333,16 C11.3333333,16.7363797 10.7363797,17.3333333 10,17.3333333 Z M10,13.3333333 C9.26362033,13.3333333 8.66666667,12.7363797 8.66666667,12 C8.66666667,11.2636203 9.26362033,10.6666667 10,10.6666667 C10.7363797,10.6666667 11.3333333,11.2636203 11.3333333,12 C11.3333333,12.7363797 10.7363797,13.3333333 10,13.3333333 Z M10,9.33333333 C9.26362033,9.33333333 8.66666667,8.73637967 8.66666667,8 C8.66666667,7.26362033 9.26362033,6.66666667 10,6.66666667 C10.7363797,6.66666667 11.3333333,7.26362033 11.3333333,8 C11.3333333,8.73637967 10.7363797,9.33333333 10,9.33333333 Z"/>
  </g>
</svg>
