<?xml version="1.0" encoding="UTF-8" standalone="no"?>
<!-- Created with Inkscape (http://www.inkscape.org/) -->

<svg
   xmlns:dc="http://purl.org/dc/elements/1.1/"
   xmlns:cc="http://creativecommons.org/ns#"
   xmlns:rdf="http://www.w3.org/1999/02/22-rdf-syntax-ns#"
   xmlns:svg="http://www.w3.org/2000/svg"
   xmlns="http://www.w3.org/2000/svg"
   xmlns:sodipodi="http://sodipodi.sourceforge.net/DTD/sodipodi-0.dtd"
   xmlns:inkscape="http://www.inkscape.org/namespaces/inkscape"
   width="90.71875"
   height="68.1875"
   id="svg2"
   sodipodi:version="0.32"
   inkscape:version="0.48.2 r9819"
   version="1.0"
   sodipodi:docname="MUTCD R13-1.svg"
   inkscape:output_extension="org.inkscape.output.svg.inkscape">
  <defs
     id="defs4">
    <inkscape:perspective
       sodipodi:type="inkscape:persp3d"
       inkscape:vp_x="0 : 300.5 : 1"
       inkscape:vp_y="0 : 1000 : 0"
       inkscape:vp_z="601 : 300.5 : 1"
       inkscape:persp3d-origin="300.5 : 200.33333 : 1"
       id="perspective3380" />
    <inkscape:perspective
       id="perspective3990"
       inkscape:persp3d-origin="375 : 250 : 1"
       inkscape:vp_z="750 : 375 : 1"
       inkscape:vp_y="0 : 1000 : 0"
       inkscape:vp_x="0 : 375 : 1"
       sodipodi:type="inkscape:persp3d" />
  </defs>
  <sodipodi:namedview
     id="base"
     pagecolor="#ffffff"
     bordercolor="#666666"
     borderopacity="1.0"
     gridtolerance="10000"
     guidetolerance="10"
     objecttolerance="10"
     inkscape:pageopacity="0.0"
     inkscape:pageshadow="2"
     inkscape:zoom="1.8196215"
     inkscape:cx="24.37771"
     inkscape:cy="-126.09011"
     inkscape:document-units="px"
     inkscape:current-layer="layer1"
     width="601px"
     height="601px"
     inkscape:window-width="1280"
     inkscape:window-height="1004"
     inkscape:window-x="-8"
     inkscape:window-y="-8"
     showgrid="false"
     fit-margin-top="0"
     fit-margin-left="0"
     fit-margin-right="0"
     fit-margin-bottom="0"
     inkscape:window-maximized="1" />
  <metadata
     id="metadata7">
    <rdf:RDF>
      <cc:Work
         rdf:about="">
        <dc:format>image/svg+xml</dc:format>
        <dc:type
           rdf:resource="http://purl.org/dc/dcmitype/StillImage" />
        <dc:title></dc:title>
      </cc:Work>
    </rdf:RDF>
  </metadata>
  <g
     inkscape:label="Layer 1"
     inkscape:groupmode="layer"
     id="layer1"
     transform="translate(-5817.9375,12354.313)">
    <rect
       style="color:#000000;fill:#000000;fill-opacity:1;fill-rule:nonzero;stroke:none;stroke-width:0.8735441;marker:none;visibility:visible;display:inline;overflow:visible"
       id="rect3653"
       width="0"
       height="27.202072"
       x="578.73834"
       y="298.1684"
       rx="249.48199"
       ry="27.202072" />
    <path
       inkscape:connector-curvature="0"
       d="m 5823.9356,-12353.966 78.7313,0 c 3.0987,0 5.6337,2.535 5.6337,5.635 l 0,56.23 c 0,3.1 -2.535,5.635 -5.6337,5.635 l -78.7313,0 c -3.0975,0 -5.6337,-2.535 -5.6337,-5.635 l 0,-56.23 c 0,-3.1 2.5362,-5.635 5.6337,-5.635"
       style="fill:#ffffff;fill-opacity:1;fill-rule:nonzero;stroke:#000000;stroke-width:0.7;stroke-miterlimit:4;stroke-opacity:1;stroke-dasharray:none"
       id="path16839" />
    <path
       inkscape:connector-curvature="0"
       style="fill:#000000;fill-opacity:1;fill-rule:evenodd;stroke:none"
       d="m 5823.9375,-12352.563 c -2.3237,0 -4.2188,1.893 -4.2188,4.219 l 0,56.25 c 0,2.326 1.8951,4.218 4.2188,4.218 l 78.7187,0 c 2.3263,0 4.25,-1.892 4.25,-4.218 l 0,-56.25 c 0,-2.326 -1.9237,-4.219 -4.25,-4.219 l -78.7187,0 z m 0,2.344 78.7187,0 c 1.0362,0 1.9063,0.839 1.9063,1.875 l 0,56.25 c 0,1.037 -0.87,1.875 -1.9063,1.875 l -78.7187,0 c -1.035,0 -1.875,-0.838 -1.875,-1.875 l 0,-56.25 c 0,-1.036 0.84,-1.875 1.875,-1.875 z"
       id="path16847" />
    <path
       inkscape:connector-curvature="0"
       d="m 5900.2518,-12323.977 -6.1812,-11.44 5.7862,-7.299 -3.8137,0 -5.9175,7.43 0,-7.43 -2.9588,0 0,18.738 2.9588,0 0,-6.442 1.9725,-2.434 4.735,8.877 3.4187,0 z m -16.785,-3.813 -2.8275,-1.053 c -0.7225,1.513 -1.6425,2.171 -2.8925,2.171 -1.3162,0 -2.17,-0.461 -2.8275,-1.447 -0.7237,-1.184 -1.1837,-3.223 -1.1837,-5.259 0,-1.579 0.2637,-3.224 0.7225,-4.341 0.6587,-1.644 1.645,-2.3 3.1562,-2.3 1.4475,0 2.0388,0.392 3.0913,1.971 l 2.7612,-1.182 c -1.25,-2.632 -3.025,-3.815 -5.8525,-3.815 -2.1037,0 -3.6812,0.722 -4.7987,2.104 -1.315,1.643 -2.105,4.603 -2.105,7.562 0,2.366 0.5275,4.734 1.3825,6.376 1.1825,2.303 2.9587,3.364 5.72,3.364 2.695,0 4.5362,-1.391 5.6537,-4.152 m -16.3887,-2.893 0,-12.032 -2.96,0 0,12.032 c 0,2.433 -1.3813,4.011 -3.4188,4.011 -2.0387,0 -3.42,-1.578 -3.42,-4.011 l 0,-12.032 -2.9587,0 0,12.032 c 0,1.446 0.3287,2.761 0.855,3.879 0.985,1.842 3.2212,3.166 5.5237,3.166 2.3,0 4.5363,-1.325 5.5225,-3.166 0.5263,-1.118 0.8563,-2.433 0.8563,-3.879 m -18.825,-6.772 c 0,0.788 -0.4588,1.577 -1.1825,1.972 -0.46,0.264 -0.79,0.329 -1.71,0.329 l -3.55,0 0,-4.603 3.55,0 c 0.9862,0 1.25,0.07 1.71,0.329 0.7237,0.395 1.1825,1.184 1.1825,1.973 m 3.355,13.478 -3.2888,-8.745 c 1.71,-0.788 2.8925,-2.761 2.8925,-4.733 0,-1.908 -1.1825,-3.88 -2.8262,-4.669 -0.9213,-0.46 -1.9075,-0.591 -3.3538,-0.591 l -6.18,0 0,18.738 2.9588,0 0,-8.152 3.55,0 3.025,8.152 3.2225,0 z m -15.1413,-16.108 0,-2.63 -11.5712,0 0,2.63 4.275,0 0,16.108 2.9575,0 0,-16.108 4.3387,0 z"
       style="fill:#000000;fill-opacity:1;fill-rule:evenodd;stroke:none"
       id="path16855" />
    <path
       inkscape:connector-curvature="0"
       d="m 5900.8593,-12297.727 0,-3.025 -8.6787,0 0,-5.128 5.4575,0 0,-3.024 -5.4575,0 0,-4.603 8.0887,0 0,-2.958 -11.0475,0 0,18.738 11.6375,0 z m -14.0325,-16.11 0,-2.629 -11.5725,0 0,2.629 4.275,0 0,16.11 2.9588,0 0,-16.11 4.3387,0 z m -13.9675,9.404 0,-12.032 -2.9587,0 0,12.032 c 0,2.433 -1.3813,4.011 -3.4188,4.011 -2.04,0 -3.4187,-1.578 -3.4187,-4.011 l 0,-12.032 -2.9588,0 0,12.032 c 0,1.446 0.3263,2.761 0.8538,3.879 0.9862,1.841 3.2212,3.166 5.5237,3.166 2.3,0 4.5363,-1.325 5.5225,-3.166 0.5263,-1.118 0.855,-2.433 0.855,-3.879 m -19.425,-2.631 c 0,1.446 -0.3287,3.289 -0.7225,4.274 -0.6587,1.645 -1.5125,2.368 -2.8937,2.368 -1.1838,0 -1.9725,-0.461 -2.565,-1.447 -0.7238,-1.184 -1.1163,-3.223 -1.1163,-5.195 0,-1.578 0.2625,-3.288 0.7225,-4.404 0.6563,-1.645 1.5775,-2.369 3.025,-2.302 1.1175,0.07 1.8413,0.46 2.4313,1.446 0.7237,1.25 1.1187,3.157 1.1187,5.26 m 2.9588,0 c 0,-2.366 -0.46,-4.734 -1.2488,-6.376 -1.1825,-2.302 -2.8287,-3.354 -5.1937,-3.354 -2.1713,0 -3.6838,0.656 -4.8,2.104 -1.25,1.776 -2.0388,4.537 -2.0388,7.626 0,2.236 0.525,4.735 1.315,6.312 1.1163,2.303 2.7613,3.364 5.3913,3.364 1.9725,0 3.4837,-0.667 4.5362,-2.114 1.3163,-1.643 2.0388,-4.603 2.0388,-7.562 m -18.965,-4.141 c 0,0.788 -0.4588,1.577 -1.1825,1.972 -0.46,0.263 -0.79,0.329 -1.71,0.329 l -3.5488,0 0,-4.603 3.5488,0 c 0.9862,0 1.25,0.07 1.71,0.329 0.7237,0.394 1.1825,1.184 1.1825,1.973 m 3.355,13.478 -3.2888,-8.745 c 1.71,-0.789 2.8925,-2.762 2.8925,-4.734 0,-1.907 -1.1825,-3.879 -2.8262,-4.669 -0.9213,-0.459 -1.9075,-0.591 -3.3538,-0.591 l -6.1787,0 0,18.738 2.9587,0 0,-8.153 3.5488,0 3.025,8.153 3.2225,0 z"
       style="fill:#000000;fill-opacity:1;fill-rule:evenodd;stroke:none"
       id="path16859" />
  </g>
</svg>
