<?xml version="1.0" encoding="UTF-8" standalone="no"?>
<svg
   xmlns:dc="http://purl.org/dc/elements/1.1/"
   xmlns:cc="http://creativecommons.org/ns#"
   xmlns:rdf="http://www.w3.org/1999/02/22-rdf-syntax-ns#"
   xmlns:svg="http://www.w3.org/2000/svg"
   xmlns="http://www.w3.org/2000/svg"
   xmlns:sodipodi="http://sodipodi.sourceforge.net/DTD/sodipodi-0.dtd"
   xmlns:inkscape="http://www.inkscape.org/namespaces/inkscape"
   id="Nederlands_verkeersbord_F7"
   width="310.21875"
   height="412.73749"
   viewBox="0 0 310.21875 412.73749"
   version="1.1"
   inkscape:version="0.48.2 r9819"
   sodipodi:docname="AJAX1.svg">
  <metadata
     id="metadata9">
    <rdf:RDF>
      <cc:Work
         rdf:about="">
        <dc:format>image/svg+xml</dc:format>
        <dc:type
           rdf:resource="http://purl.org/dc/dcmitype/StillImage" />
        <dc:title />
      </cc:Work>
    </rdf:RDF>
  </metadata>
  <defs
     id="defs7" />
  <sodipodi:namedview
     pagecolor="#ffffff"
     bordercolor="#666666"
     borderopacity="1"
     objecttolerance="10"
     gridtolerance="10"
     guidetolerance="10"
     inkscape:pageopacity="0"
     inkscape:pageshadow="2"
     inkscape:window-width="1280"
     inkscape:window-height="1004"
     id="namedview5"
     showgrid="false"
     fit-margin-top="0.3"
     fit-margin-left="0"
     fit-margin-right="0"
     fit-margin-bottom="0"
     inkscape:zoom="1.2727732"
     inkscape:cx="100.31936"
     inkscape:cy="-63.446035"
     inkscape:window-x="-8"
     inkscape:window-y="-8"
     inkscape:window-maximized="1"
     inkscape:current-layer="Nederlands_verkeersbord_F7" />
  <path
     inkscape:connector-curvature="0"
     d="m 31.951213,411.74859 246.460617,0 c 16.90857,0 30.81487,-13.13072 30.81487,-30.29364 l 0,-349.07955 c 0,-17.17543 -13.9063,-31.08592 -30.81487,-31.08592 l -246.460617,0 c -17.033661,0 -30.96081432,13.91049 -30.96081432,31.08592 l 0,349.07955 c 0,17.16292 13.92715332,30.29364 30.96081432,30.29364 z"
     style="fill:#ffffff;fill-opacity:1;fill-rule:evenodd;stroke:#000000;stroke-width:2;stroke-linecap:butt;stroke-linejoin:miter;stroke-miterlimit:8.52033329;stroke-opacity:1;stroke-dasharray:none"
     id="path3265-1" />
  <path
     inkscape:connector-curvature="0"
     d="m 32.347345,406.94081 245.664175,0 c 14.57765,0 26.01126,-11.57956 26.01126,-25.88616 l 0,-348.2998 c 0,-14.16484 -11.43361,-26.01126 -26.01126,-26.01126 l -245.664175,0 c -14.181513,0 -26.0112552,11.84642 -26.0112552,26.01126 l 0,348.2998 c 0,14.3066 11.8297422,25.88616 26.0112552,25.88616"
     style="fill:#000000;fill-opacity:1;fill-rule:evenodd;stroke:none"
     id="path3269-7" />
  <path
     inkscape:connector-curvature="0"
     d="m 32.347345,396.53714 245.664175,0 c 8.32711,0 15.87863,-7.02613 15.87863,-15.48249 l 0,-348.2998 c 0,-8.58147 -7.55152,-15.98704 -15.87863,-15.98704 l -245.664175,0 c -8.598142,0 -15.878625,7.40557 -15.878625,15.98704 l 0,348.2998 c 0,8.45636 7.280483,15.48249 15.878625,15.48249"
     style="fill:#ffffff;fill-opacity:1;fill-rule:evenodd;stroke:none"
     id="path3273-4" />
  <path
     inkscape:connector-curvature="0"
     d="m 39.498563,164.7626 c 0.504548,-14.68606 0,-30.68979 0,-45.64689 0,-2.07655 4.55343,-2.07655 7.009447,-4.02802 3.648581,-8.20202 9.373726,-20.28612 11.850591,-27.05789 1.9473,-6.35894 26.011255,-5.58336 40.568055,-5.05796 13.785384,3.89875 15.482494,10.13262 16.783474,18.45972 0,11.30852 0,33.16665 0,33.16665 l 12.0841,0 0,-42.79473 145.53876,0 0,66.20403 -21.71217,0 c -14.18152,-38.1162 -54.75374,-22.63372 -55.67527,0.52122 l -80.23542,0 C 108.684,127.44282 60.305901,128.09331 62.511728,167.36455 l -19.635621,0 -3.377544,-2.60195 z m 25.615125,-71.26201 26.407388,0 2.45602,21.19097 -36.414928,0 7.55152,-21.19097 z m 158.019002,89.34229 c 11.70465,0 21.06169,-9.35705 21.06169,-20.68225 0,-11.5587 -9.35704,-21.45782 -21.06169,-21.45782 -11.70464,0 -21.06169,9.89912 -21.06169,21.45782 0,11.3252 9.35705,20.68225 21.06169,20.68225 z m -133.704854,0 c 11.575384,0 20.807334,-9.35705 20.807334,-20.68225 0,-11.5587 -9.23195,-21.45782 -20.807334,-21.45782 -12.213368,0 -21.316057,9.89912 -21.316057,21.45782 0,11.3252 9.102689,20.68225 21.316057,20.68225"
     style="fill:#000000;fill-opacity:1;fill-rule:evenodd;stroke:none"
     id="path3277-0" />
  <path
     inkscape:connector-curvature="0"
     d="m 37.542924,249.72658 11.083348,0 0,71.34123 29.980911,0 0,10.82898 -41.064259,0 0,-82.17021"
     style="fill:#000000;fill-opacity:1;fill-rule:evenodd;stroke:none"
     id="path3281-9" />
  <path
     inkscape:connector-curvature="0"
     d="m 109.96831,297.85449 11.66711,0 -6.27138,-22.24593 -5.39573,22.24593 z m -19.906664,34.03813 19.906664,-82.17021 11.66711,0 19.78157,82.17021 -11.50033,0 -5.52082,-22.41271 -16.43321,0 -5.47913,22.41271 -12.421854,0"
     style="fill:#000000;fill-opacity:1;fill-rule:evenodd;stroke:none"
     id="path3285-4" />
  <path
     inkscape:connector-curvature="0"
     d="m 160.69401,249.72658 11.41693,0 22.12082,47.50244 0,-47.50244 11.41693,0 0,82.17021 -8.78161,0 -24.75614,-53.65291 0,53.65291 -11.41693,0 0,-82.17021"
     style="fill:#000000;fill-opacity:1;fill-rule:evenodd;stroke:none"
     id="path3289-8" />
  <path
     inkscape:connector-curvature="0"
     d="m 231.1971,249.72658 39.68405,0 0,12.2509 -27.85014,0 0,20.36533 16.60001,0 0,10.83315 -16.60001,0 0,27.13711 29.23036,0 0,11.58372 -41.06427,0 0,-82.17021"
     style="fill:#000000;fill-opacity:1;fill-rule:evenodd;stroke:none"
     id="path3293-8" />
</svg>
