<svg xmlns="http://www.w3.org/2000/svg" width="349" height="113" viewBox="0 0 349 113">
  <g fill="none">
    <path fill="#0046AA" d="M348.22262,95.16413 C348.22262,104.50163 340.58262,112.14163 331.24512,112.14163 L17.47012,112.14163 C8.132625,112.14163 0.492625,104.50163 0.492625,95.16413 L0.492625,17.47913 C0.492625,8.14038 8.132625,0.50038 17.47012,0.50038 L331.24512,0.50038 C340.58262,0.50038 348.22262,8.14038 348.22262,17.47913 L348.22262,95.16413 Z"/>
    <path fill="#FFF" d="M17.47012,4.74539 C10.466375,4.74539 4.736375,10.47539 4.736375,17.47914 L4.736375,95.16414 C4.736375,102.16789 10.466375,107.89789 17.47012,107.89789 L331.24512,107.89789 C338.24887,107.89789 343.97887,102.16789 343.97887,95.16414 L343.97887,17.47914 C343.97887,10.47539 338.24887,4.74539 331.24512,4.74539 L17.47012,4.74539 Z M336.90512,95.16414 C336.90512,98.27664 334.35762,100.82289 331.24512,100.82289 L17.47012,100.82289 C14.357625,100.82289 11.810125,98.27664 11.810125,95.16414 L11.810125,17.47914 C11.810125,14.36664 14.357625,11.81914 17.47012,11.81914 L331.24512,11.81914 C334.35762,11.81914 336.90512,14.36664 336.90512,17.47914 L336.90512,95.16414 Z"/>
    <path fill="#FFF" d="M70.58,44.24 L63.04,44.24 L63.04,74.4 L56.54,74.4 L56.54,44.24 L49,44.24 L49,38 L70.58,38 L70.58,44.24 Z M96.736,59.84 C96.736,69.304 93.928,74.972 85.92,74.972 C78.172,74.972 75.104,68.992 75.104,59.944 L75.104,38 L81.604,38 L81.604,59.944 C81.604,66.236 83.008,68.524 85.972,68.524 C88.988,68.524 90.236,66.236 90.236,59.944 L90.236,38 L96.736,38 L96.736,59.84 Z M124.868,74.4 L118.628,74.4 L111.92,58.176 C110.984,55.888 109.84,52.924 109.164,50.792 C109.216,53.028 109.268,56.772 109.268,59.06 L109.268,74.4 L103.34,74.4 L103.34,38 L109.892,38 L116.288,53.964 C117.172,56.148 118.472,59.528 119.148,61.556 C119.096,59.32 118.94,55.368 118.94,53.08 L118.94,38 L124.868,38 L124.868,74.4 Z M150.764,74.4 L131.628,74.4 L131.628,38 L150.296,38 L150.296,44.24 L138.128,44.24 L138.128,51.936 L146.292,51.936 L146.292,58.072 L138.128,58.072 L138.128,68.16 L150.764,68.16 L150.764,74.4 Z M174.268,74.4 L156.38,74.4 L156.38,38 L162.88,38 L162.88,68.056 L174.268,68.056 L174.268,74.4 Z M212.904,74.4 L206.664,74.4 L199.956,58.176 C199.02,55.888 197.876,52.924 197.2,50.792 C197.252,53.028 197.304,56.772 197.304,59.06 L197.304,74.4 L191.376,74.4 L191.376,38 L197.928,38 L204.324,53.964 C205.208,56.148 206.508,59.528 207.184,61.556 C207.132,59.32 206.976,55.368 206.976,53.08 L206.976,38 L212.904,38 L212.904,74.4 Z M242.7,74.4 L235.992,74.4 L234.276,66.808 L226.112,66.808 L224.396,74.4 L217.74,74.4 L227.048,38 L233.392,38 L242.7,74.4 Z M232.872,60.724 L231.884,56.408 C231.26,53.6 230.428,49.388 230.168,47.568 C229.908,49.44 229.18,53.34 228.504,56.304 L227.516,60.724 L232.872,60.724 Z M274.056,74.4 L268.128,74.4 L268.128,62.648 C268.128,58.332 268.18,54.328 268.232,51.624 C267.504,54.224 266.308,58.28 264.956,62.44 L260.744,75.336 L256.532,62.44 C255.18,58.332 253.984,54.224 253.256,51.624 C253.308,54.328 253.36,58.332 253.36,62.648 L253.36,74.4 L247.536,74.4 L247.536,38 L254.088,38 L258.404,51.468 C259.496,54.848 260.536,57.968 260.848,59.684 C261.212,57.864 262.252,54.692 263.292,51.468 L267.608,38 L274.056,38 L274.056,74.4 Z M299.952,74.4 L280.816,74.4 L280.816,38 L299.484,38 L299.484,44.24 L287.316,44.24 L287.316,51.936 L295.48,51.936 L295.48,58.072 L287.316,58.072 L287.316,68.16 L299.952,68.16 L299.952,74.4 Z"/>
  </g>
</svg>
