<svg xmlns="http://www.w3.org/2000/svg" width="604" height="694" viewBox="0 0 604 694">
  <g fill="none" fill-rule="evenodd" transform="translate(-26)">
    <path fill="#000" fill-rule="nonzero" d="M78,0 L578,0 C606.718807,-5.27555926e-15 630,23.281193 630,52 L630,642 C630,670.718807 606.718807,694 578,694 L78,694 C49.281193,694 26,670.718807 26,642 L26,52 C26,23.281193 49.281193,5.27555926e-15 78,0 Z"/>
    <path fill="#FFF" fill-rule="nonzero" d="M78,2 L578,2 C605.614237,2 628,24.3857625 628,52 L628,642 C628,669.614237 605.614237,692 578,692 L78,692 C50.3857625,692 28,669.614237 28,642 L28,52 C28,24.3857625 50.3857625,2 78,2 Z"/>
    <path fill="#0046AA" fill-rule="nonzero" d="M78,12 L578,12 C600.09139,12 618,29.90861 618,52 L618,642 C618,664.09139 600.09139,682 578,682 L78,682 C55.90861,682 38,664.09139 38,642 L38,52 C38,29.90861 55.90861,12 78,12 Z"/>
    <polygon fill="#FFF" fill-rule="nonzero" points="281.526 190.524 87.546 480.623 69.977 415.054 33.207 478.741 65.966 601 188.225 568.241 224.995 504.554 159.426 522.123 353.406 232.024" transform="scale(1 -1) rotate(-10 -4330.274 0)"/>
    <polygon fill="#FFF" fill-rule="nonzero" points="551.526 190.524 357.546 480.623 339.977 415.054 303.207 478.741 335.966 601 458.225 568.241 494.995 504.554 429.426 522.123 623.406 232.024" transform="rotate(170 463.306 395.762)"/>
    <polygon fill="#FFF" points="253 11 327.86 398 402.719 11"/>
  </g>
</svg>
