<svg xmlns="http://www.w3.org/2000/svg" width="604" height="694" viewBox="0 0 604 694">
  <g fill="none" fill-rule="evenodd">
    <path fill="#000" fill-rule="nonzero" d="M52,0 L552,0 C580.718807,-5.27555926e-15 604,23.281193 604,52 L604,642 C604,670.718807 580.718807,694 552,694 L52,694 C23.281193,694 3.51703951e-15,670.718807 0,642 L0,52 C-3.51703951e-15,23.281193 23.281193,5.27555926e-15 52,0 Z"/>
    <path fill="#FFF" fill-rule="nonzero" d="M52,2 L552,2 C579.614237,2 602,24.3857625 602,52 L602,642 C602,669.614237 579.614237,692 552,692 L52,692 C24.3857625,692 2,669.614237 2,642 L2,52 C2,24.3857625 24.3857625,2 52,2 Z"/>
    <path fill="#0046AA" fill-rule="nonzero" d="M52,12 L552,12 C574.09139,12 592,29.90861 592,52 L592,642 C592,664.09139 574.09139,682 552,682 L52,682 C29.90861,682 12,664.09139 12,642 L12,52 C12,29.90861 29.90861,12 52,12 Z"/>
    <path fill="#FFF" fill-rule="nonzero" d="M300.367401,113.518488 C304.374689,111.120149 309.183434,111.929228 313.368823,113.431801 C344.280852,124.059408 389.028656,139.430636 447.612237,159.545487 L447.612236,159.545491 C455.551985,162.271627 459.778452,170.918036 457.052315,178.857785 C456.413337,180.718779 455.419111,182.438008 454.124825,183.92004 C413.055894,230.946311 381.701334,266.888579 360.061145,291.746844 C357.241202,294.463034 352.907394,295.243217 349.107892,295.589965 C340.588695,295.734443 334.533239,287.268018 335.305012,279.495089 C335.928368,265.596282 336.611091,251.726371 337.204764,237.827565 C315.120156,243.520007 292.115357,247.854355 272.405439,259.643779 C257.652684,269.699464 243.40455,281.199932 233.579275,296.110086 C218.114113,318.5909 207.279595,344.857044 207.012442,372.221222 C207.042126,402.157114 207.042126,552.093005 207.042126,582 C183.028084,582 159.014042,582 135,582 C135.178102,553.191039 135.148418,404.382078 135.504621,375.573118 C136.781017,352.861138 139.215073,329.831307 147.289015,308.361841 C155.244223,286.834583 167.503555,267.012169 181.751689,248.923494 C194.248489,233.290948 210.010487,220.490176 226.395841,208.931917 C241.386065,197.518136 259.463384,190.929929 277.243868,184.861843 C291.343583,180.007374 306.036971,177.002226 320.433523,173.101314 C311.795592,159.78042 302.890508,146.661796 294.400995,133.283111 C290.096872,126.637112 292.887131,116.697009 300.397085,113.518488 L300.367401,113.518488 Z" transform="matrix(-1 0 0 1 604 0)"/>
    <path fill="#FFF" stroke="#979797" d="M72 35.5C67.8578644 35.5 64.5 38.8578644 64.5 43L64.5 107C64.5 111.142136 67.8578644 114.5 72 114.5L86 114.5C90.1421356 114.5 93.5 111.142136 93.5 107L93.5 43C93.5 38.8578644 90.1421356 35.5 86 35.5L72 35.5zM72 173.5C67.8578644 173.5 64.5 176.857864 64.5 181L64.5 245C64.5 249.142136 67.8578644 252.5 72 252.5L86 252.5C90.1421356 252.5 93.5 249.142136 93.5 245L93.5 181C93.5 176.857864 90.1421356 173.5 86 173.5L72 173.5zM72 311.5C67.8578644 311.5 64.5 314.857864 64.5 319L64.5 383C64.5 387.142136 67.8578644 390.5 72 390.5L86 390.5C90.1421356 390.5 93.5 387.142136 93.5 383L93.5 319C93.5 314.857864 90.1421356 311.5 86 311.5L72 311.5zM72 449.5C67.8578644 449.5 64.5 452.857864 64.5 457L64.5 521C64.5 525.142136 67.8578644 528.5 72 528.5L86 528.5C90.1421356 528.5 93.5 525.142136 93.5 521L93.5 457C93.5 452.857864 90.1421356 449.5 86 449.5L72 449.5zM72 587.5C67.8578644 587.5 64.5 590.857864 64.5 595L64.5 659C64.5 663.142136 67.8578644 666.5 72 666.5L86 666.5C90.1421356 666.5 93.5 663.142136 93.5 659L93.5 595C93.5 590.857864 90.1421356 587.5 86 587.5L72 587.5zM518 35.5C513.857864 35.5 510.5 38.8578644 510.5 43L510.5 107C510.5 111.142136 513.857864 114.5 518 114.5L532 114.5C536.142136 114.5 539.5 111.142136 539.5 107L539.5 43C539.5 38.8578644 536.142136 35.5 532 35.5L518 35.5zM518 173.5C513.857864 173.5 510.5 176.857864 510.5 181L510.5 245C510.5 249.142136 513.857864 252.5 518 252.5L532 252.5C536.142136 252.5 539.5 249.142136 539.5 245L539.5 181C539.5 176.857864 536.142136 173.5 532 173.5L518 173.5zM518 311.5C513.857864 311.5 510.5 314.857864 510.5 319L510.5 383C510.5 387.142136 513.857864 390.5 518 390.5L532 390.5C536.142136 390.5 539.5 387.142136 539.5 383L539.5 319C539.5 314.857864 536.142136 311.5 532 311.5L518 311.5zM518 449.5C513.857864 449.5 510.5 452.857864 510.5 457L510.5 521C510.5 525.142136 513.857864 528.5 518 528.5L532 528.5C536.142136 528.5 539.5 525.142136 539.5 521L539.5 457C539.5 452.857864 536.142136 449.5 532 449.5L518 449.5zM518 587.5C513.857864 587.5 510.5 590.857864 510.5 595L510.5 659C510.5 663.142136 513.857864 666.5 518 666.5L532 666.5C536.142136 666.5 539.5 663.142136 539.5 659L539.5 595C539.5 590.857864 536.142136 587.5 532 587.5L518 587.5z"/>
  </g>
</svg>
