<svg xmlns="http://www.w3.org/2000/svg" width="2170" height="2170" viewBox="0 0 2170 2170">
  <g fill="none" transform="translate(5 5)">
    <path fill="#FFF" stroke="#000" stroke-width="10" d="M2160,2025 C2160,2099.5625 2099.5625,2160 2025,2160 L135,2160 C60.440625,2160 0,2099.5625 0,2025 L0,135 C0,60.4406 60.440625,0 135,0 L2025,0 C2099.5625,0 2160,60.4406 2160,135 L2160,2025 Z"/>
    <path fill="#000064" d="M135,2115 C85.3735,2115 45,2074.625 45,2025 L45,135 C45,85.3735 85.3735,45 135,45 L2025,45 C2074.625,45 2115,85.3735 2115,135 L2115,2025 C2115,2074.625 2074.625,2115 2025,2115 L135,2115 Z"/>
    <path fill="#FFF" d="M727.004225,857.992692 C626.507543,878.461762 312.497187,923.480882 239,941.22498 C329.586899,1019.02924 509.66657,1165.95651 603.857099,1248.5687 C633.460918,1274.02819 653.133418,1297.01382 672.907176,1286.48945 C672.907176,1286.48945 682.100993,1274.77555 679.77035,1252.8607 C677.484119,1229.80319 668.686617,1166.83103 668.686617,1166.83103 L773.774499,1198.99313 C854.546014,1221.03151 963.088399,1337.21329 974.058277,1441.04035 L975.217389,1879 L1187.79312,1877.9982 L1192.39692,1444.01954 C1203.36696,1340.19248 1309.78845,1220.39443 1399.51102,1197.33329 L1493.42663,1167.36138 C1493.42663,1167.36138 1487.30127,1223.86554 1484.91664,1242.45973 C1484.91664,1242.45973 1478.95108,1278.61725 1492.77832,1289.23947 C1503.61209,1294.04336 1509.80165,1289.44793 1539.40545,1263.98844 C1601.01041,1204.0146 1864.93424,993.78198 1922,940.236275 C1792.64556,911.780021 1588.20713,888.812191 1453.44658,859.781953 C1437.04322,856.614434 1426.48542,855.375429 1411.72117,853.175366 C1393.91409,850.5219 1386.05055,847.437022 1377.42859,862.921545 C1373.35322,870.778412 1385.03447,890.681294 1396.15151,904.905123 C1407.78059,919.305107 1441.076,964.079585 1441.076,964.079585 L1298.49651,1006.86524 C1243.95003,1020.76592 1143.34477,1091.69028 1081.6575,1169.10306 C1019.97055,1091.69028 907.091415,1016.67651 849.987647,1001.2417 L722.078537,963.562293 C722.078537,963.562293 769.600551,898.0822 782.508275,885.472075 C785.953619,881.475895 788.491817,863.894258 787.420186,862.152914 C781.209832,852.061201 770.601237,849.654916 727.004225,857.992692 Z"/>
    <path fill="#FFF" d="M1084.70844,254 L1323.62628,675.915919 C1326.02846,679.877978 1330.91896,686.104915 1330.98984,691.07502 C1331.11002,699.514777 1330.42149,710.199992 1314.50005,711.505325 C1311.99877,711.457135 1309.61216,711.049854 1307.33664,710.351809 L1176.39361,671.060744 C1169.41662,668.814211 1170.55853,668.833149 1169.42019,668.81425 C1164.49817,668.733257 1168.98963,667.451283 1168.79171,672.376324 L1168.20944,1772 L991.296472,1766.46563 L987.617304,1197.36625 L991.119626,668.993636 L984.625605,671.117275 C978.375051,672.582988 979.367482,672.233951 978.374568,672.584333 L852.254439,706.469341 L840.062741,707.345795 C840.062741,707.345795 831.157164,707.199919 829,690.890244 L830.992307,684.733472 L1084.70844,254 Z"/>
  </g>
</svg>
