<svg xmlns="http://www.w3.org/2000/svg" width="205" height="273" viewBox="0 0 205 273">
  <g fill="none" fill-rule="evenodd">
    <path fill="#FFF" fill-rule="nonzero" stroke="#C31926" stroke-width="7" d="M200.72262,255.16413 L200.72262,17.47913 C200.72262,10.0735308 194.649778,4.00038 187.24512,4.00038 L17.47012,4.00038 C10.0654668,4.00038 3.992625,10.0735314 3.992625,17.47913 L3.992625,255.16413 C3.992625,262.568633 10.065621,268.64163 17.47012,268.64163 L187.24512,268.64163 C194.649623,268.64163 200.72262,262.568633 200.72262,255.16413 Z"/>
    <path fill="#000" fill-rule="nonzero" d="M62.324,225.748 C62.324,236.252 58.632,244.572 50.208,244.572 C41.732,244.572 38.144,236.304 38.144,225.852 C38.144,215.348 41.836,207.028 50.312,207.028 C58.736,207.028 62.324,215.296 62.324,225.748 Z M55.668,225.852 C55.668,218.104 54.056,213.528 50.208,213.528 C46.308,213.528 44.8,218 44.8,225.748 C44.8,233.496 46.412,238.072 50.312,238.072 C54.16,238.072 55.668,233.6 55.668,225.852 Z M87.284,213.84 L79.744,213.84 L79.744,244 L73.244,244 L73.244,213.84 L65.704,213.84 L65.704,207.6 L87.284,207.6 L87.284,213.84 Z M113.284,244 L106.784,244 L106.784,228.296 L98.464,228.296 L98.464,244 L91.964,244 L91.964,207.6 L98.464,207.6 L98.464,221.952 L106.784,221.952 L106.784,207.6 L113.284,207.6 L113.284,244 Z M139.18,244 L120.044,244 L120.044,207.6 L138.712,207.6 L138.712,213.84 L126.544,213.84 L126.544,221.536 L134.708,221.536 L134.708,227.672 L126.544,227.672 L126.544,237.76 L139.18,237.76 L139.18,244 Z M166.168,244 L159.096,244 L153.428,230.168 L151.296,230.168 L151.296,244 L144.796,244 L144.796,207.6 L154.468,207.6 C161.54,207.6 166.064,211.396 166.064,218.936 C166.064,224.032 163.464,227.204 159.928,228.868 L166.168,244 Z M159.564,219.04 C159.564,215.764 158.056,213.944 154.156,213.944 L151.296,213.944 L151.296,224.084 L154.52,224.084 C157.848,224.084 159.564,222.368 159.564,219.04 Z"/>
    <g transform="matrix(-1 0 0 1 177.05 25.22)">
      <circle cx="74.875" cy="74.875" r="74.875" fill="#C31926" fill-rule="nonzero"/>
      <circle cx="74.875" cy="74.875" r="62.396" fill="#FFF" fill-rule="nonzero"/>
      <path fill="#000" fill-rule="nonzero" d="M46.1730699,126.039958 L46.1730699,64.8917371 C46.1730699,52.4875857 56.2263095,42.4292995 68.6355923,42.4292995 L121.048285,42.4292995 L129.783731,51.1647354 L121.04829,59.9001789 L63.6439567,126.039958 L46.1730699,126.039958 Z"/>
      <path fill="#FFF" fill-rule="nonzero" d="M63.6439642,129.783721 L63.6439642,64.8918245 C63.6439642,62.1353486 65.8780183,59.9001714 68.6356223,59.9001714 L129.783731,59.9001714 L63.6439642,129.783721 Z"/>
      <path stroke="#C31926" stroke-width="12.5" d="M22.8128745,22.8128416 L126.937607,126.937557"/>
    </g>
  </g>
</svg>
