<svg xmlns="http://www.w3.org/2000/svg" width="604" height="694" viewBox="0 0 604 694">
  <g fill="none" fill-rule="evenodd">
    <path fill="#000" fill-rule="nonzero" d="M52,0 L552,0 C580.718807,-5.27555926e-15 604,23.281193 604,52 L604,642 C604,670.718807 580.718807,694 552,694 L52,694 C23.281193,694 3.51703951e-15,670.718807 0,642 L0,52 C-3.51703951e-15,23.281193 23.281193,5.27555926e-15 52,0 Z"/>
    <path fill="#FFF" fill-rule="nonzero" d="M52,2 L552,2 C579.614237,2 602,24.3857625 602,52 L602,642 C602,669.614237 579.614237,692 552,692 L52,692 C24.3857625,692 2,669.614237 2,642 L2,52 C2,24.3857625 24.3857625,2 52,2 Z"/>
    <path fill="#0046AA" fill-rule="nonzero" d="M52,12 L552,12 C574.09139,12 592,29.90861 592,52 L592,642 C592,664.09139 574.09139,682 552,682 L52,682 C29.90861,682 12,664.09139 12,642 L12,52 C12,29.90861 29.90861,12 52,12 Z"/>
    <path fill="#FFF" d="M266.928891,306.699672 L369.538167,306.389072 L369.538167,243.410129 L464.589871,338.674001 L369.538167,433.99769 L369.538167,370.229266 L266.992783,370.530543 L267.213874,591.407819 L203.385641,591.407819 L202.978943,197.051704 L140,197.051704 L235.263872,102 L330.587561,197.051704 L266.819137,197.051704 L266.928891,306.699672 Z"/>
  </g>
</svg>
