<?xml version="1.0" encoding="UTF-8" standalone="no"?>
<!-- Created with Inkscape (http://www.inkscape.org/) -->

<svg
   xmlns:dc="http://purl.org/dc/elements/1.1/"
   xmlns:cc="http://creativecommons.org/ns#"
   xmlns:rdf="http://www.w3.org/1999/02/22-rdf-syntax-ns#"
   xmlns:svg="http://www.w3.org/2000/svg"
   xmlns="http://www.w3.org/2000/svg"
   xmlns:sodipodi="http://sodipodi.sourceforge.net/DTD/sodipodi-0.dtd"
   xmlns:inkscape="http://www.inkscape.org/namespaces/inkscape"
   id="svg17624"
   version="1.1"
   inkscape:version="0.48.2 r9819"
   width="267.82187"
   height="321.02499"
   xml:space="preserve"
   sodipodi:docname="AJAX1.svg"><metadata
     id="metadata17630"><rdf:RDF><cc:Work
         rdf:about=""><dc:format>image/svg+xml</dc:format><dc:type
           rdf:resource="http://purl.org/dc/dcmitype/StillImage" /><dc:title /></cc:Work></rdf:RDF></metadata><defs
     id="defs17628"><inkscape:perspective
       sodipodi:type="inkscape:persp3d"
       inkscape:vp_x="0 : 0.5 : 1"
       inkscape:vp_y="0 : 1000 : 0"
       inkscape:vp_z="1 : 0.5 : 1"
       inkscape:persp3d-origin="0.5 : 0.33333333 : 1"
       id="perspective17632" /><clipPath
       clipPathUnits="userSpaceOnUse"
       id="clipPath17642"><path
         d="m -2,710 501,0 0,-711 -501,0 0,711 z"
         id="path17644"
         inkscape:connector-curvature="0" /></clipPath><clipPath
       clipPathUnits="userSpaceOnUse"
       id="clipPath17648"><path
         d="m 0,708.06 498,0 0,-708 -498,0 0,708 z"
         id="path17650"
         inkscape:connector-curvature="0" /></clipPath><clipPath
       clipPathUnits="userSpaceOnUse"
       id="clipPath17798"><path
         d="m -2,710 501,0 0,-711 -501,0 0,711 z"
         id="path17800"
         inkscape:connector-curvature="0" /></clipPath><clipPath
       clipPathUnits="userSpaceOnUse"
       id="clipPath17804"><path
         d="m 0,708.06 498,0 0,-708 -498,0 0,708 z"
         id="path17806"
         inkscape:connector-curvature="0" /></clipPath><clipPath
       id="Clip0"><path
         inkscape:connector-curvature="0"
         d="m 0,0 212.597,0 0,269.292 L 0,269.292 0,0 z"
         transform="translate(0.923828,0.879883)"
         id="path7" /></clipPath><clipPath
       id="Clip0-8"><path
         inkscape:connector-curvature="0"
         d="m 0,0 170.079,0 0,113.386 L 0,113.386 0,0 z"
         transform="translate(0.0986328,0.822266)"
         id="path7-8" /></clipPath><clipPath
       id="Clip0-1"><path
         inkscape:connector-curvature="0"
         d="m 0,0 287.009,0 0,159.449 L 0,159.449 0,0 z"
         transform="translate(0.396484,0.267578)"
         id="path7-7" /></clipPath></defs><sodipodi:namedview
     pagecolor="#ffffff"
     bordercolor="#666666"
     borderopacity="1"
     objecttolerance="10"
     gridtolerance="10"
     guidetolerance="10"
     inkscape:pageopacity="0"
     inkscape:pageshadow="2"
     inkscape:window-width="1280"
     inkscape:window-height="1004"
     id="namedview17626"
     showgrid="false"
     inkscape:zoom="1.4158115"
     inkscape:cx="64.537178"
     inkscape:cy="84.079034"
     inkscape:window-x="-8"
     inkscape:window-y="-8"
     inkscape:window-maximized="1"
     inkscape:current-layer="g17634"
     fit-margin-top="0.2"
     fit-margin-left="0.2"
     fit-margin-right="0.2"
     fit-margin-bottom="0.2"
     showguides="true"
     inkscape:guide-bbox="true" /><g
     id="g17634"
     inkscape:groupmode="layer"
     inkscape:label="GG1999P002"
     transform="matrix(1.25,0,0,-1.25,675.04375,-71.948438)"><path
       inkscape:connector-curvature="0"
       style="fill:#ffffff;fill-rule:nonzero;stroke:#000000;stroke-width:1.36000001;stroke-miterlimit:4;stroke-opacity:1;stroke-dasharray:none"
       d="m -539.20475,-72.586799 c 0,7.8272 6.3457,14.1729 14.1738,14.1729 l 184.2522,0 c 7.827,0 14.173,-6.3457 14.173,-14.1729 l 0,-226.773101 c 0,-7.827 -6.346,-14.172 -14.173,-14.172 l -184.2522,0 c -7.8281,0 -14.1738,6.345 -14.1738,14.172 l 0,226.773101 z"
       id="path11" /><path
       inkscape:connector-curvature="0"
       style="fill:#c0111e;fill-opacity:1;fill-rule:nonzero;stroke:none"
       d="m -535.236,-72.583739 c 0,5.63664 4.56836,10.205 10.2051,10.205 l 184.2519,0 c 5.636,0 10.204,-4.56836 10.204,-10.205 l 0,-226.772001 c 0,-5.635 -4.568,-10.204 -10.204,-10.204 l -184.2519,0 c -5.63674,0 -10.2051,4.569 -10.2051,10.204 l 0,226.772001 z"
       id="path13" /><path
       inkscape:connector-curvature="0"
       style="fill:#ffffff;fill-rule:nonzero;stroke:none"
       d="m -529.28288,-72.583791 c 0,2.3486 1.90335,4.2519 4.25195,4.2519 l 184.25205,0 c 2.349,0 4.252,-1.9033 4.252,-4.2519 l 0,-226.772099 c 0,-2.347 -1.903,-4.252 -4.252,-4.252 l -184.25205,0 c -2.3486,0 -4.25195,1.905 -4.25195,4.252 l 0,226.772099 z"
       id="path15" /><path
       inkscape:connector-curvature="0"
       style="fill:#000000;fill-rule:nonzero;stroke:none"
       d="m -373.37763,-272.42969 -28.346,0 c 0,42.856 -27.1713,79.363 -65.2262,93.238 l 0.3291,-14.355 c 0.1367,-3.128 -2.2881,-5.773 -5.4151,-5.91 -1.9648,-0.086 -3.7373,0.835 -4.8193,2.31 l -38.5205,50.7103 62.1045,14.084 c 1.7773,0.4346 3.7265,9.6e-4 5.1767,-1.3271 2.3076,-2.1153 2.4639,-5.7002 0.3496,-8.0088 l -9.5117,-10.8203 c 21.9586,-8.0171 41.1006,-21.8901 55.5329,-39.7301 l 0.002,55.8736 -13.422,-5.2363 c -2.8933,-1.1983 -6.2083,0.1748 -7.4073,3.0674 -0.751,1.8174 -0.493,3.7968 0.524,5.3183 l 34.4777,53.542999 34.478,-53.542999 c 1.017,-1.5215 1.275,-3.5009 0.522,-5.3183 -1.197,-2.8926 -4.513,-4.2657 -7.405,-3.0674 l -13.422,5.2363 -8e-4,-136.0646 z"
       id="path17" /></g></svg>