<?xml version="1.0" encoding="UTF-8" standalone="no"?>
<!-- Created with Inkscape (http://www.inkscape.org/) -->

<svg
   xmlns:dc="http://purl.org/dc/elements/1.1/"
   xmlns:cc="http://creativecommons.org/ns#"
   xmlns:rdf="http://www.w3.org/1999/02/22-rdf-syntax-ns#"
   xmlns:svg="http://www.w3.org/2000/svg"
   xmlns="http://www.w3.org/2000/svg"
   xmlns:sodipodi="http://sodipodi.sourceforge.net/DTD/sodipodi-0.dtd"
   xmlns:inkscape="http://www.inkscape.org/namespaces/inkscape"
   id="svg17624"
   version="1.1"
   inkscape:version="0.48.2 r9819"
   width="212.59875"
   height="212.59875"
   xml:space="preserve"
   sodipodi:docname="AA.svg"><metadata
     id="metadata17630"><rdf:RDF><cc:Work
         rdf:about=""><dc:format>image/svg+xml</dc:format><dc:type
           rdf:resource="http://purl.org/dc/dcmitype/StillImage" /><dc:title /></cc:Work></rdf:RDF></metadata><defs
     id="defs17628"><inkscape:perspective
       sodipodi:type="inkscape:persp3d"
       inkscape:vp_x="0 : 0.5 : 1"
       inkscape:vp_y="0 : 1000 : 0"
       inkscape:vp_z="1 : 0.5 : 1"
       inkscape:persp3d-origin="0.5 : 0.33333333 : 1"
       id="perspective17632" /><clipPath
       clipPathUnits="userSpaceOnUse"
       id="clipPath17642"><path
         d="m -2,710 501,0 0,-711 -501,0 0,711 z"
         id="path17644"
         inkscape:connector-curvature="0" /></clipPath><clipPath
       clipPathUnits="userSpaceOnUse"
       id="clipPath17648"><path
         d="m 0,708.06 498,0 0,-708 -498,0 0,708 z"
         id="path17650"
         inkscape:connector-curvature="0" /></clipPath><clipPath
       clipPathUnits="userSpaceOnUse"
       id="clipPath17798"><path
         d="m -2,710 501,0 0,-711 -501,0 0,711 z"
         id="path17800"
         inkscape:connector-curvature="0" /></clipPath><clipPath
       clipPathUnits="userSpaceOnUse"
       id="clipPath17804"><path
         d="m 0,708.06 498,0 0,-708 -498,0 0,708 z"
         id="path17806"
         inkscape:connector-curvature="0" /></clipPath><clipPath
       id="Clip0"><path
         inkscape:connector-curvature="0"
         d="m 0,0 212.597,0 0,269.292 L 0,269.292 0,0 z"
         transform="translate(0.923828,0.879883)"
         id="path7" /></clipPath></defs><sodipodi:namedview
     pagecolor="#ffffff"
     bordercolor="#666666"
     borderopacity="1"
     objecttolerance="10"
     gridtolerance="10"
     guidetolerance="10"
     inkscape:pageopacity="0"
     inkscape:pageshadow="2"
     inkscape:window-width="1280"
     inkscape:window-height="1004"
     id="namedview17626"
     showgrid="false"
     inkscape:zoom="1.4158115"
     inkscape:cx="114.71493"
     inkscape:cy="55.300947"
     inkscape:window-x="-8"
     inkscape:window-y="-8"
     inkscape:window-maximized="1"
     inkscape:current-layer="g17634"
     fit-margin-top="0"
     fit-margin-left="0"
     fit-margin-right="0"
     fit-margin-bottom="0"
     showguides="true"
     inkscape:guide-bbox="true" /><g
     id="g17634"
     inkscape:groupmode="layer"
     inkscape:label="GG1999P002"
     transform="matrix(1.25,0,0,-1.25,157.29126,92.996179)"><path
       inkscape:connector-curvature="0"
       style="fill:#ffffff;fill-rule:nonzero;stroke:none"
       d="m -125.03286,-10.642161 c 0,46.965804 37.272053,84.23884 84.238853,84.23884 46.967,0 84.240347,-37.273036 84.240347,-84.23884 0,-46.966896 -37.273347,-84.23956 -84.240347,-84.23956 -46.9668,0 -84.238853,37.272664 -84.238853,84.23956 z"
       id="path13"
       sodipodi:nodetypes="sssss" /><path
       inkscape:connector-curvature="0"
       style="fill:#000000;fill-rule:nonzero;stroke:none"
       d="m -74.80956,-10.660724 0,-53.291196 17.0078,0 0,53.291196 c 0.0107,5.9521995 4.8154,10.75689951 10.7451,10.77149951 l 25.0652,0 -1.728,-8.69040001 c -0.169,-0.8525 -0.013,-1.7714995 0.509,-2.5517995 1.042,-1.5615 3.154,-1.9814 4.715,-0.9384 l 0.198,0.1416 28.527004,20.5438995 -28.527004,20.5430005 -0.198,0.1416 c -1.561,1.043 -3.673,0.623 -4.715,-0.9385 -0.522,-0.7803 -0.678,-1.6992 -0.509,-2.5517 l 1.728,-8.6905 -25.0124,0 c -15.3809,0 -27.8057,-12.4375005 -27.8057,-27.7803 z"
       id="path11" /><path
       inkscape:connector-curvature="0"
       style="fill:#c0111e;fill-opacity:1;fill-rule:nonzero;stroke:none"
       d="m -80.267607,-60.743057 c 10.8584,-8.567 24.5693,-13.679 39.4736,-13.679 35.225,0 63.78,28.554 63.78,63.779896 0,14.9004041 -5.11,28.608404 -13.673,39.464804 l -89.5806,-89.5657 z m -24.305703,50.100896 c 0,-14.9078 5.114303,-28.620896 13.684603,-39.481896 l 89.5837,89.5698 c -10.861,8.5742 -24.577496,13.6914 -39.489,13.6914 -35.2246,0 -63.779303,-28.5547 -63.779303,-63.779304 z m -21.2597,0 c 0,46.965804 38.072203,85.039104 85.039003,85.039104 46.967,0 85.04,-38.0733 85.04,-85.039104 0,-46.966896 -38.073,-85.039896 -85.04,-85.039896 -46.9668,0 -85.039003,38.073 -85.039003,85.039896 z"
       id="path13-0" /></g></svg>