<?xml version="1.0" standalone="no"?>
<!DOCTYPE svg PUBLIC "-//W3C//DTD SVG 20010904//EN"
 "http://www.w3.org/TR/2001/REC-SVG-20010904/DTD/svg10.dtd">
<svg version="1.0" xmlns="http://www.w3.org/2000/svg"
 width="144.000000pt" height="102.000000pt" viewBox="0 0 144.000000 102.000000"
 preserveAspectRatio="xMidYMid meet">
<metadata>
Created by potrace 1.15, written by Peter Selinger 2001-2017
</metadata>
<g transform="translate(0.000000,102.000000) scale(0.100000,-0.100000)"
fill="#000000" stroke="none">
<path d="M0 510 l0 -510 720 0 720 0 0 510 0 510 -720 0 -720 0 0 -510z m1350
482 c19 -9 45 -33 58 -51 l23 -35 -3 -400 c-3 -397 -3 -401 -25 -432 -47 -66
-29 -64 -682 -64 -561 0 -594 1 -629 19 -22 11 -46 35 -60 59 -23 41 -23 41
-20 436 3 381 4 396 24 423 47 65 27 63 684 63 547 0 598 -1 630 -18z"/>
<path d="M105 981 c-11 -5 -31 -21 -45 -36 l-25 -27 -3 -388 c-3 -432 -2 -442
60 -480 32 -19 49 -20 628 -20 573 0 596 1 627 20 64 39 64 38 61 475 l-3 395
-33 32 -32 33 -608 2 c-334 1 -616 -2 -627 -6z m1229 -62 l26 -20 0 -385 0
-385 -25 -24 -24 -25 -591 0 -591 0 -24 25 -25 24 0 381 0 381 25 24 24 25
589 0 c581 0 590 0 616 -21z"/>
<path d="M190 740 c0 -123 1 -130 20 -130 17 0 20 7 20 50 l0 50 36 0 c33 0
36 -3 56 -50 17 -40 25 -50 44 -50 29 0 29 -3 4 52 l-20 45 23 42 c20 38 21
43 7 68 -22 39 -55 53 -127 53 l-63 0 0 -130z"/>
<path d="M594 859 c-70 -34 -73 -202 -5 -239 65 -34 151 14 151 84 0 36 0 36
-45 36 -41 0 -45 -2 -45 -25 0 -18 5 -25 20 -25 25 0 26 -16 1 -30 -35 -18
-60 -12 -76 20 -23 45 -19 97 10 125 29 30 35 31 68 5 23 -19 57 -18 57 0 0 5
-14 20 -31 34 -32 27 -69 32 -105 15z"/>
<path d="M797 864 c-4 -4 -7 -63 -7 -131 l0 -123 25 0 c24 0 25 3 25 55 l0 55
55 0 55 0 0 -55 c0 -52 1 -55 25 -55 l26 0 -3 128 c-3 123 -4 127 -25 130 -21
3 -23 0 -23 -47 l0 -51 -54 0 -55 0 -3 47 c-2 34 -8 49 -18 51 -9 1 -19 0 -23
-4z"/>
<path d="M1042 848 c2 -18 11 -24 36 -26 l32 -3 0 -105 0 -104 25 0 25 0 0
104 0 105 33 3 c24 2 33 8 35 26 3 21 1 22 -93 22 -94 0 -96 -1 -93 -22z"/>
<path d="M220 325 l0 -125 95 0 c88 0 95 1 95 20 0 18 -7 20 -70 20 l-70 0 0
105 0 105 -25 0 -25 0 0 -125z"/>
<path d="M505 358 c-21 -51 -45 -108 -52 -125 -13 -32 -12 -33 11 -33 17 0 27
8 36 30 12 28 16 30 67 30 51 0 55 -2 64 -30 8 -23 17 -30 36 -30 16 0 23 4
20 13 -89 215 -100 237 -122 237 -19 0 -28 -15 -60 -92z"/>
<path d="M740 325 l0 -125 25 0 c25 0 25 1 25 82 l0 83 57 -83 c43 -63 62 -82
80 -82 23 0 23 1 23 125 l0 125 -25 0 c-25 0 -25 -1 -25 -82 l0 -83 -57 83
c-43 63 -62 82 -80 82 -23 0 -23 -1 -23 -125z"/>
<path d="M1010 325 l0 -125 95 0 c88 0 95 1 95 20 0 18 -7 20 -70 20 l-70 0 0
35 c0 33 2 35 35 35 31 0 35 3 35 25 0 22 -4 25 -35 25 -31 0 -35 3 -35 25 0
24 2 25 65 25 58 0 65 2 65 20 0 19 -7 20 -90 20 l-90 0 0 -125z"/>
</g>
</svg>
