<?xml version="1.0" encoding="UTF-8" standalone="no"?>
<!-- Generator: Adobe Illustrator 14.0.0, SVG Export Plug-In  -->

<svg
   xmlns:dc="http://purl.org/dc/elements/1.1/"
   xmlns:cc="http://creativecommons.org/ns#"
   xmlns:rdf="http://www.w3.org/1999/02/22-rdf-syntax-ns#"
   xmlns:svg="http://www.w3.org/2000/svg"
   xmlns="http://www.w3.org/2000/svg"
   xmlns:sodipodi="http://sodipodi.sourceforge.net/DTD/sodipodi-0.dtd"
   xmlns:inkscape="http://www.inkscape.org/namespaces/inkscape"
   version="1.1"
   x="0px"
   y="0px"
   width="450.79999"
   height="750.79999"
   viewBox="0 -0.321 450.80003 750.80016"
   enable-background="new 0 -0.321 144 120"
   xml:space="preserve"
   id="svg2"
   inkscape:version="0.92.2 (5c3e80d, 2017-08-06)"
   sodipodi:docname="Philippines_road_sign_R3-14P.svg"><metadata
     id="metadata44"><rdf:RDF><cc:Work
         rdf:about=""><dc:format>image/svg+xml</dc:format><dc:type
           rdf:resource="http://purl.org/dc/dcmitype/StillImage" /><dc:title></dc:title></cc:Work></rdf:RDF></metadata><sodipodi:namedview
     pagecolor="#ffffff"
     bordercolor="#666666"
     borderopacity="1"
     objecttolerance="10"
     gridtolerance="10"
     guidetolerance="10"
     inkscape:pageopacity="0"
     inkscape:pageshadow="2"
     inkscape:window-width="1366"
     inkscape:window-height="705"
     id="namedview42"
     showgrid="false"
     fit-margin-top="0.4"
     fit-margin-left="0.4"
     fit-margin-right="0.4"
     fit-margin-bottom="0.4"
     inkscape:zoom="0.96601662"
     inkscape:cx="281.80311"
     inkscape:cy="251.22558"
     inkscape:window-x="-4"
     inkscape:window-y="-4"
     inkscape:window-maximized="1"
     inkscape:current-layer="g971"
     showguides="true" /><defs
     id="defs4" /><g
     id="g915"><g
       id="g939"><g
         id="g971"><g
           id="g998"><path
             sodipodi:nodetypes="sssssssss"
             id="path4229"
             style="fill:#ffffff;fill-opacity:1;fill-rule:nonzero;stroke:#000000;stroke-width:1;stroke-miterlimit:4;stroke-dasharray:none;stroke-opacity:1"
             d="M 0.9,60.099639 C 0.9,27.23109 27.528188,0.579 60.367641,0.579 H 390.43226 C 423.28488,0.579 449.9,27.23109 449.9,60.099639 V 690.05858 c 0,32.86811 -26.61512,59.52042 -59.46774,59.52042 H 60.367641 C 27.528188,749.579 0.9,722.92669 0.9,690.05858 Z"
             inkscape:connector-curvature="0" /><path
             inkscape:connector-curvature="0"
             d="m 443.6701,689.97911 c 0,28.9198 -23.4501,52.37 -52.37,52.37 H 60.499899 c -28.9315,0 -52.3698996,-23.4502 -52.3698996,-52.37 V 59.17862 c 0,-28.91943 23.4383996,-52.36979 52.3698996,-52.36979 H 391.3001 c 28.9199,0 52.37,23.45036 52.37,52.36979 z"
             style="fill:#c31926;fill-opacity:1;fill-rule:nonzero;stroke:none;stroke-width:2.50000048;stroke-miterlimit:4;stroke-dasharray:none;stroke-opacity:1"
             id="path4231"
             sodipodi:nodetypes="sssssssss" /><path
             sodipodi:nodetypes="sssssssss"
             id="path4323"
             style="fill:#ffffff;fill-opacity:1;fill-rule:nonzero;stroke:none;stroke-width:2.50000048;stroke-miterlimit:4;stroke-dasharray:none;stroke-opacity:1"
             d="m 430.90038,59.17905 c 0,-21.86813 -17.73217,-39.60032 -39.60037,-39.60032 H 60.500379 c -21.87698,0 -39.60026,17.73219 -39.60026,39.60032 v 630.79983 c 0,21.86786 17.72328,39.60021 39.60026,39.60021 H 391.30001 c 21.8682,0 39.60037,-17.73235 39.60037,-39.60021 z"
             inkscape:connector-curvature="0" /><circle
             style="fill:#c31926;fill-opacity:1;stroke:none;stroke-width:3.75;stroke-linejoin:round;stroke-miterlimit:2.61312604;stroke-dasharray:none;stroke-opacity:1"
             id="circle4334"
             r="175.00005"
             cy="209.57887"
             cx="225.90004" /><circle
             transform="scale(-1,1)"
             r="145.00005"
             cy="209.57887"
             cx="-225.90004"
             id="circle4336"
             style="fill:#ffffff;fill-opacity:1;stroke:none;stroke-width:3.75;stroke-linejoin:round;stroke-miterlimit:2.61312604;stroke-dasharray:none;stroke-opacity:1" /><path
             sodipodi:nodetypes="cssccccc"
             id="path4166"
             style="fill:#000000;fill-opacity:1;fill-rule:nonzero;stroke:none;stroke-width:2.50000048;stroke-miterlimit:4;stroke-dasharray:none;stroke-opacity:1"
             d="M 292.97988,329.18883 V 186.25757 c 0,-28.99627 -23.50074,-52.50886 -52.50904,-52.50886 H 117.95979 l -20.419801,20.42024 20.420201,20.42021 134.17924,154.59967 z"
             inkscape:connector-curvature="0" /><path
             inkscape:connector-curvature="0"
             d="M 252.13942,331.7488 V 186.25777 c 0,-6.44361 -5.2224,-11.66863 -11.66865,-11.66863 H 97.539989 Z"
             style="fill:#ffffff;fill-opacity:1;fill-rule:nonzero;stroke:none;stroke-width:2.50000048;stroke-miterlimit:4;stroke-dasharray:none;stroke-opacity:1"
             id="path4168"
             sodipodi:nodetypes="csscc" /><path
             style="fill:none;stroke:#c31926;stroke-width:30.00000572;stroke-linecap:butt;stroke-linejoin:miter;stroke-miterlimit:4;stroke-dasharray:none;stroke-opacity:1"
             d="M 347.5223,87.95654 104.27753,331.20134"
             id="path4189"
             inkscape:connector-curvature="0"
             sodipodi:nodetypes="cc" /><g
             id="g891"
             transform="translate(-338.57613,15.295988)"><path
               d="m 537.55479,478.91367 -30.464,-48.68267 h -0.224 v 48.68267 H 493.57613 V 404.247 h 13.44 l 29.344,47.936 h 0.224 v -47.936 h 13.29066 v 74.66667 z"
               style="font-style:normal;font-variant:normal;font-weight:normal;font-stretch:normal;font-size:medium;line-height:1.25;font-family:ClearviewHwy-3B;-inkscape-font-specification:ClearviewHwy-3B;font-variant-ligatures:normal;font-variant-caps:normal;font-variant-numeric:normal;font-feature-settings:normal;text-align:start;letter-spacing:0px;word-spacing:0px;writing-mode:lr-tb;text-anchor:start;fill:#000000;fill-opacity:1;stroke:none"
               id="path842"
               inkscape:connector-curvature="0" /><path
               d="m 619.29146,441.50567 q 0,-5.89867 -0.82133,-10.82667 -0.74667,-5.00267 -2.76267,-8.58667 -1.94133,-3.584 -5.376,-5.6 -3.36,-2.016 -8.512,-2.016 -5.152,0 -8.512,2.016 -3.28533,2.016 -5.22667,5.67467 -1.94133,3.584 -2.76266,8.58667 -0.74667,4.928 -0.74667,10.752 0,5.97333 0.74667,10.976 0.82133,4.928 2.76266,8.58666 2.016,3.584 5.376,5.6 3.43467,2.016 8.66134,2.016 5.07733,0 8.36266,-2.016 3.36,-2.09066 5.30134,-5.67466 1.94133,-3.65867 2.688,-8.66134 0.82133,-5.00266 0.82133,-10.82666 z m 14.48533,0 q 0,8.81066 -2.016,15.97866 -2.016,7.09334 -6.048,12.17067 -3.95733,5.00267 -9.93066,7.76533 -5.89867,2.76267 -13.73867,2.76267 -7.91467,0 -13.888,-2.76267 -5.97333,-2.76266 -10.00533,-7.76533 -4.032,-5.07733 -6.048,-12.17067 -2.016,-7.168 -2.016,-15.97866 0,-8.58667 1.94133,-15.68 2.016,-7.09334 5.97334,-12.17067 4.032,-5.07733 10.00533,-7.84 6.048,-2.76266 14.03733,-2.76266 7.91467,0 13.81333,2.76266 5.97334,2.76267 9.93067,7.84 3.95733,5.07733 5.97333,12.17067 2.016,7.09333 2.016,15.68 z"
               style="font-style:normal;font-variant:normal;font-weight:normal;font-stretch:normal;font-size:medium;line-height:1.25;font-family:ClearviewHwy-3B;-inkscape-font-specification:ClearviewHwy-3B;font-variant-ligatures:normal;font-variant-caps:normal;font-variant-numeric:normal;font-feature-settings:normal;text-align:start;letter-spacing:0px;word-spacing:0px;writing-mode:lr-tb;text-anchor:start;fill:#000000;fill-opacity:1;stroke:none"
               id="path844"
               inkscape:connector-curvature="0" /></g><g
             id="g880"
             transform="translate(-394.35613,48.629328)"
             style="fill:#000000;fill-opacity:1"><path
               d="m 517.99213,602.86033 v 62.72 H 504.1788 v -62.72 h -17.32267 v -11.94667 h 48.45866 v 11.94667 z"
               style="font-style:normal;font-variant:normal;font-weight:normal;font-stretch:normal;font-size:medium;line-height:1.25;font-family:ClearviewHwy-3B;-inkscape-font-specification:ClearviewHwy-3B;font-variant-ligatures:normal;font-variant-caps:normal;font-variant-numeric:normal;font-feature-settings:normal;text-align:start;letter-spacing:0px;word-spacing:0px;writing-mode:lr-tb;text-anchor:start;fill:#000000;fill-opacity:1;stroke:none"
               id="path856"
               inkscape:connector-curvature="0" /><path
               d="m 604.04779,635.26566 q 0,7.54133 -1.344,13.44 -1.26933,5.824 -4.33066,9.856 -3.06134,4.032 -8.21334,6.19733 -5.07733,2.09067 -12.69333,2.09067 -7.616,0 -12.69333,-2.09067 -5.07734,-2.09066 -8.13867,-6.12266 -3.06133,-4.032 -4.33067,-9.856 -1.26933,-5.89867 -1.26933,-13.51467 v -44.352 h 13.81333 v 44.72533 q 0,4.40534 0.448,7.98934 0.448,3.50933 1.792,6.12266 1.344,2.53867 3.808,3.95734 2.464,1.344 6.57067,1.344 4.10667,0 6.57067,-1.41867 2.53866,-1.41867 3.88266,-3.95733 1.41867,-2.61334 1.86667,-6.12267 0.448,-3.584 0.448,-7.91467 v -44.72533 h 13.81333 z"
               style="font-style:normal;font-variant:normal;font-weight:normal;font-stretch:normal;font-size:medium;line-height:1.25;font-family:ClearviewHwy-3B;-inkscape-font-specification:ClearviewHwy-3B;font-variant-ligatures:normal;font-variant-caps:normal;font-variant-numeric:normal;font-feature-settings:normal;text-align:start;letter-spacing:0px;word-spacing:0px;writing-mode:lr-tb;text-anchor:start;fill:#000000;fill-opacity:1;stroke:none"
               id="path858"
               inkscape:connector-curvature="0" /><path
               d="m 662.27028,613.31366 q 0,-6.19733 -3.136,-9.10933 -3.06133,-2.98667 -9.70666,-2.98667 -2.38934,0 -4.62934,0.14933 -2.16533,0.0747 -4.48,0.29867 v 23.44533 h 10.45334 q 2.83733,0 4.928,-0.59733 2.16533,-0.59733 3.584,-1.94133 1.49333,-1.41867 2.24,-3.65867 0.74666,-2.31467 0.74666,-5.6 z m 0.74667,52.26667 -8.512,-26.05867 q -0.59733,-1.86667 -1.344,-2.61333 -0.74667,-0.74667 -2.464,-0.74667 h -10.45333 v 29.41867 h -13.81333 v -74.21867 q 5.824,-0.672 11.34933,-0.896 5.6,-0.29866 11.424,-0.29866 5.67466,0 10.60266,1.19466 5.00267,1.12 8.66134,3.73334 3.73333,2.61333 5.824,6.94399 2.16533,4.256 2.16533,10.528 0,7.54134 -2.98667,12.39467 -2.912,4.85333 -8.736,7.24267 v 0.14933 q 0.97067,0.224 1.568,1.568 0.59734,1.344 1.04534,2.464 l 10.304,29.19467 z"
               style="font-style:normal;font-variant:normal;font-weight:normal;font-stretch:normal;font-size:medium;line-height:1.25;font-family:ClearviewHwy-3B;-inkscape-font-specification:ClearviewHwy-3B;font-variant-ligatures:normal;font-variant-caps:normal;font-variant-numeric:normal;font-feature-settings:normal;text-align:start;letter-spacing:0px;word-spacing:0px;writing-mode:lr-tb;text-anchor:start;fill:#000000;fill-opacity:1;stroke:none"
               id="path860"
               inkscape:connector-curvature="0" /><path
               d="m 740.26312,665.58033 -30.464,-48.68267 h -0.224 v 48.68267 h -13.29066 v -74.66667 h 13.44 l 29.344,47.936 h 0.224 v -47.936 h 13.29066 v 74.66667 z"
               style="font-style:normal;font-variant:normal;font-weight:normal;font-stretch:normal;font-size:medium;line-height:1.25;font-family:ClearviewHwy-3B;-inkscape-font-specification:ClearviewHwy-3B;font-variant-ligatures:normal;font-variant-caps:normal;font-variant-numeric:normal;font-feature-settings:normal;text-align:start;letter-spacing:0px;word-spacing:0px;writing-mode:lr-tb;text-anchor:start;fill:#000000;fill-opacity:1;stroke:none"
               id="path862"
               inkscape:connector-curvature="0" /></g><g
             transform="translate(0,1.3963478)"
             aria-label="LEFT"
             style="font-style:normal;font-variant:normal;font-weight:normal;font-stretch:normal;font-size:74.66666412px;line-height:1.25;font-family:ClearviewHwy-1B;-inkscape-font-specification:'ClearviewHwy-1B, Normal';font-variant-ligatures:normal;font-variant-caps:normal;font-variant-numeric:normal;font-feature-settings:normal;text-align:start;letter-spacing:0px;word-spacing:0px;writing-mode:lr-tb;text-anchor:start;fill:#000000;fill-opacity:1;stroke:none"
             id="text919"><path
               inkscape:connector-curvature="0"
               d="m 115,604.08264 v -74.66666 h 13.81334 v 62.944 h 25.31199 v 11.72266 z"
               style="font-style:normal;font-variant:normal;font-weight:normal;font-stretch:normal;font-family:ClearviewHwy-3B;-inkscape-font-specification:ClearviewHwy-3B;fill:#000000;fill-opacity:1"
               id="path941" /><path
               inkscape:connector-curvature="0"
               d="m 172.02083,604.08264 v -74.66666 h 41.51467 v 11.79733 h -27.70133 v 18.21867 h 25.01333 v 11.872 h -25.01333 v 21.28 h 28.672 v 11.49866 z"
               style="font-style:normal;font-variant:normal;font-weight:normal;font-stretch:normal;font-family:ClearviewHwy-3B;-inkscape-font-specification:ClearviewHwy-3B;fill:#000000;fill-opacity:1"
               id="path943" /><path
               inkscape:connector-curvature="0"
               d="m 246.93834,541.21331 v 18.592 h 24.19199 v 11.94667 h -24.19199 v 32.33066 H 233.125 v -74.66666 h 40.768 v 11.79733 z"
               style="font-style:normal;font-variant:normal;font-weight:normal;font-stretch:normal;font-family:ClearviewHwy-3B;-inkscape-font-specification:ClearviewHwy-3B;fill:#000000;fill-opacity:1"
               id="path945" /><path
               inkscape:connector-curvature="0"
               d="m 316.166,541.36264 v 62.72 h -13.81333 v -62.72 H 285.03 v -11.94666 h 48.45867 v 11.94666 z"
               style="font-style:normal;font-variant:normal;font-weight:normal;font-stretch:normal;font-family:ClearviewHwy-3B;-inkscape-font-specification:ClearviewHwy-3B;fill:#000000;fill-opacity:1"
               id="path947" /></g></g></g></g></g></svg>