<svg xmlns="http://www.w3.org/2000/svg" width="205" height="273" viewBox="0 0 205 273">
  <g fill="none" fill-rule="evenodd">
    <path fill="#FFF" fill-rule="nonzero" stroke="#C31926" stroke-width="7" d="M200.72262,255.16413 L200.72262,17.47913 C200.72262,10.0735308 194.649778,4.00038 187.24512,4.00038 L17.47012,4.00038 C10.0654668,4.00038 3.992625,10.0735314 3.992625,17.47913 L3.992625,255.16413 C3.992625,262.568633 10.065621,268.64163 17.47012,268.64163 L187.24512,268.64163 C194.649623,268.64163 200.72262,262.568633 200.72262,255.16413 Z"/>
    <path fill="#000" fill-rule="nonzero" d="M62.324,225.748 C62.324,236.252 58.632,244.572 50.208,244.572 C41.732,244.572 38.144,236.304 38.144,225.852 C38.144,215.348 41.836,207.028 50.312,207.028 C58.736,207.028 62.324,215.296 62.324,225.748 Z M55.668,225.852 C55.668,218.104 54.056,213.528 50.208,213.528 C46.308,213.528 44.8,218 44.8,225.748 C44.8,233.496 46.412,238.072 50.312,238.072 C54.16,238.072 55.668,233.6 55.668,225.852 Z M87.284,213.84 L79.744,213.84 L79.744,244 L73.244,244 L73.244,213.84 L65.704,213.84 L65.704,207.6 L87.284,207.6 L87.284,213.84 Z M113.284,244 L106.784,244 L106.784,228.296 L98.464,228.296 L98.464,244 L91.964,244 L91.964,207.6 L98.464,207.6 L98.464,221.952 L106.784,221.952 L106.784,207.6 L113.284,207.6 L113.284,244 Z M139.18,244 L120.044,244 L120.044,207.6 L138.712,207.6 L138.712,213.84 L126.544,213.84 L126.544,221.536 L134.708,221.536 L134.708,227.672 L126.544,227.672 L126.544,237.76 L139.18,237.76 L139.18,244 Z M166.168,244 L159.096,244 L153.428,230.168 L151.296,230.168 L151.296,244 L144.796,244 L144.796,207.6 L154.468,207.6 C161.54,207.6 166.064,211.396 166.064,218.936 C166.064,224.032 163.464,227.204 159.928,228.868 L166.168,244 Z M159.564,219.04 C159.564,215.764 158.056,213.944 154.156,213.944 L151.296,213.944 L151.296,224.084 L154.52,224.084 C157.848,224.084 159.564,222.368 159.564,219.04 Z"/>
    <g transform="translate(27 25)">
      <circle cx="74.925" cy="75.095" r="74.875" fill="#C31926" fill-rule="nonzero"/>
      <circle cx="74.925" cy="75.095" r="62.396" fill="#FFF" fill-rule="nonzero"/>
      <path fill="#000" fill-rule="nonzero" d="M42.4792163,95.0613444 L42.4792163,62.615416 C42.4792163,44.6954676 57.0052063,30.1694775 74.9251473,30.1694775 C92.8451281,30.1694775 107.371083,44.6954676 107.371083,62.615416 L107.371083,122.515597 L74.9251498,122.515597 L74.9251498,95.0613444 L59.9501032,95.0613444 L51.2146597,103.796788 L42.4792163,95.0613444 Z"/>
      <path fill="#FFF" fill-rule="nonzero" d="M59.9501032,125.011423 L59.9501032,62.6154135 C59.9501032,54.3446681 66.6544068,47.6403644 74.9251498,47.6403644 C83.1959101,47.6403644 89.9001963,54.3446681 89.9001963,62.6154135 L89.9001963,125.011423 L59.9501032,125.011423 Z"/>
      <path stroke="#C31926" stroke-width="12.5" d="M22.8627958,23.032217 L126.987527,127.156937"/>
    </g>
  </g>
</svg>
