<?xml version="1.0" encoding="UTF-8" standalone="no"?>
<!-- Created with Inkscape (http://www.inkscape.org/) -->

<svg
   xmlns:dc="http://purl.org/dc/elements/1.1/"
   xmlns:cc="http://creativecommons.org/ns#"
   xmlns:rdf="http://www.w3.org/1999/02/22-rdf-syntax-ns#"
   xmlns:svg="http://www.w3.org/2000/svg"
   xmlns="http://www.w3.org/2000/svg"
   xmlns:sodipodi="http://sodipodi.sourceforge.net/DTD/sodipodi-0.dtd"
   xmlns:inkscape="http://www.inkscape.org/namespaces/inkscape"
   width="702mm"
   height="702mm"
   viewBox="0 0 702 702"
   version="1.1"
   id="svg8"
   inkscape:version="0.92.2 (5c3e80d, 2017-08-06)"
   sodipodi:docname="11.svg">
  <defs
     id="defs2" />
  <sodipodi:namedview
     id="base"
     pagecolor="#ffffff"
     bordercolor="#666666"
     borderopacity="1.0"
     inkscape:pageopacity="0.0"
     inkscape:pageshadow="2"
     inkscape:zoom="0.175"
     inkscape:cx="727.09487"
     inkscape:cy="1036.0463"
     inkscape:document-units="mm"
     inkscape:current-layer="layer1"
     showgrid="false"
     inkscape:window-width="1920"
     inkscape:window-height="1057"
     inkscape:window-x="-8"
     inkscape:window-y="-8"
     inkscape:window-maximized="1" />
  <metadata
     id="metadata5">
    <rdf:RDF>
      <cc:Work
         rdf:about="">
        <dc:format>image/svg+xml</dc:format>
        <dc:type
           rdf:resource="http://purl.org/dc/dcmitype/StillImage" />
        <dc:title />
      </cc:Work>
    </rdf:RDF>
  </metadata>
  <g
     inkscape:label="Layer 1"
     inkscape:groupmode="layer"
     id="layer1"
     transform="translate(0,405)">
    <circle
       style="opacity:1;fill:#f00a0a;fill-opacity:1;fill-rule:nonzero;stroke:none;stroke-width:315.81494141;stroke-linecap:round;stroke-linejoin:round;stroke-miterlimit:4;stroke-dasharray:none;stroke-opacity:1;paint-order:stroke fill markers"
       id="path815"
       cx="351"
       cy="-54"
       r="350" />
    <circle
       cy="-54"
       cx="351"
       id="circle817"
       style="opacity:1;fill:#ffffff;fill-opacity:1;fill-rule:nonzero;stroke:none;stroke-width:225.58209229;stroke-linecap:round;stroke-linejoin:round;stroke-miterlimit:4;stroke-dasharray:none;stroke-opacity:1;paint-order:stroke fill markers"
       r="250" />
    <path
       style="opacity:1;fill:#000000;fill-opacity:1;fill-rule:nonzero;stroke:none;stroke-width:7.55756998;stroke-linecap:round;stroke-linejoin:miter;stroke-miterlimit:4;stroke-dasharray:none;stroke-opacity:1;paint-order:stroke fill markers"
       d="M 272.25,64.29998 V -54.00025 c 0,-58.16999 46.8297,-104.99979 104.9997,-104.99979 58.17,0 105.0004,46.8298 105.0004,104.99979 V 132.89999 H 429.7499 V -54.00025 c 0,-29.08501 -23.4152,-52.49963 -52.5002,-52.49963 -29.085,0 -52.4996,23.41462 -52.4996,52.49963 V 64.29998 H 351 L 298.5,143.4 246,64.29998 Z"
       id="rect829"
       inkscape:connector-curvature="0"
       sodipodi:nodetypes="csssccsssccccc" />
    <path
       sodipodi:nodetypes="cccccccc"
       inkscape:connector-curvature="0"
       id="path23887"
       d="m 193.5,-159 h 183.75 v 52.50015 H 193.5 V -80.25 l -79.1,-52.5 79.1,-52.5 z"
       style="opacity:1;fill:#000000;fill-opacity:1;fill-rule:nonzero;stroke:none;stroke-width:7.55756998;stroke-linecap:round;stroke-linejoin:miter;stroke-miterlimit:4;stroke-dasharray:none;stroke-opacity:1;paint-order:stroke fill markers" />
    <rect
       transform="rotate(-45)"
       style="opacity:1;fill:#f00a0a;fill-opacity:1;fill-rule:nonzero;stroke:none;stroke-width:72.09967804;stroke-linecap:round;stroke-linejoin:round;stroke-miterlimit:4;stroke-dasharray:none;stroke-opacity:1;paint-order:stroke fill markers"
       id="rect46932"
       width="50"
       height="680"
       x="261.37817"
       y="-129.98932" />
    <path
       style="opacity:1;fill:#000000;fill-opacity:1;fill-rule:nonzero;stroke:none;stroke-width:63.73634338;stroke-linecap:round;stroke-linejoin:round;stroke-miterlimit:4;stroke-dasharray:none;stroke-opacity:1;paint-order:stroke fill markers"
       d="m 311.22223,-289.2 c -4.09885,0.0164 -11.2796,3.09622 -12.53325,9.73486 l -7.64444,45.93168 c -4.33432,-0.005 -10.02823,5.46812 -10.04454,8.49594 v 25.66503 c 1.1988,3.11276 3.46853,5.51983 5.86676,7.5225 v 20.79738 c 0,3.18688 4.77711,5.75261 10.71107,5.75261 5.93395,0 10.71102,-2.56573 10.71102,-5.75261 v -20.79738 c 14.56049,1.71639 28.84943,2.92603 42.71117,2.92055 13.86173,0.005 28.15063,-1.20416 42.71112,-2.92055 v 20.79738 c 0,3.18688 4.77711,5.75261 10.71107,5.75261 5.93396,0 10.71102,-2.56573 10.71102,-5.75261 v -20.79738 c 2.39818,-2.00267 4.66797,-4.40974 5.86677,-7.5225 v -25.66503 c -0.0164,-3.02782 -5.70997,-8.50072 -10.04432,-8.49594 l -7.6444,-45.93168 c -1.25365,-6.63864 -8.43463,-9.71846 -12.53352,-9.73486 z m 8.90467,8.36308 h 30.87312 30.87312 c 7.00435,0.005 14.48471,4.03992 15.56445,9.29239 l 4.61324,27.43516 c 0.10627,0.681 -0.34098,2.08845 -0.84431,2.87619 -1.02329,1.35302 -2.80329,2.1263 -5.42231,2.1241 -1.00454,0 -6.31098,-0.39834 -6.31098,-0.39834 -19.01236,-1.08412 -24.91379,-1.03989 -38.47326,-1.23893 -13.55933,0.19904 -19.46062,0.15481 -38.47298,1.23893 0,0 -5.30667,0.39834 -6.31116,0.39834 -2.61902,0.002 -4.39907,-0.77108 -5.42236,-2.1241 -0.50329,-0.78774 -0.95058,-2.19519 -0.84431,-2.87619 l 4.61325,-27.43516 c 1.07973,-5.25247 8.56013,-9.28779 15.56449,-9.29239 z m 18.91747,52.79035 h 23.91125 l 23.99992,2.1241 -0.009,4.60195 h -71.90237 v -4.60195 z m -40.26654,0.88495 a 9.7777798,9.7350006 0 0 1 9.77764,9.73509 9.7777798,9.7350006 0 0 1 -9.77764,9.73486 9.7777798,9.7350006 0 0 1 -9.77787,-9.73486 9.7777798,9.7350006 0 0 1 9.77787,-9.73509 z m 104.44456,0 a 9.7777803,9.735001 0 0 1 9.77764,9.73509 9.7777803,9.735001 0 0 1 -9.77764,9.73486 9.7777803,9.735001 0 0 1 -9.77787,-9.73486 9.7777803,9.735001 0 0 1 9.77787,-9.73509 z m -88.169,10.53154 h 71.90215 v 6.72605 h -71.91109 z m -0.009,11.41649 h 71.90237 l 0.009,4.60195 -23.99992,2.1241 h -23.91129 l -23.99992,-2.1241 z"
       id="rect10823"
       inkscape:connector-curvature="0" />
  </g>
</svg>
