<svg xmlns="http://www.w3.org/2000/svg" width="604" height="694" viewBox="0 0 604 694">
  <g fill="none">
    <path fill="#000" d="M52,0 L552,0 C580.718807,-5.27555926e-15 604,23.281193 604,52 L604,642 C604,670.718807 580.718807,694 552,694 L52,694 C23.281193,694 3.51703951e-15,670.718807 0,642 L0,52 C-3.51703951e-15,23.281193 23.281193,5.27555926e-15 52,0 Z"/>
    <path fill="#FFF" d="M52,2 L552,2 C579.614237,2 602,24.3857625 602,52 L602,642 C602,669.614237 579.614237,692 552,692 L52,692 C24.3857625,692 2,669.614237 2,642 L2,52 C2,24.3857625 24.3857625,2 52,2 Z"/>
    <path fill="#0046AA" d="M52,12 L552,12 C574.09139,12 592,29.90861 592,52 L592,642 C592,664.09139 574.09139,682 552,682 L52,682 C29.90861,682 12,664.09139 12,642 L12,52 C12,29.90861 29.90861,12 52,12 Z"/>
    <path fill="#FFF" d="M258.950027,276.181758 L203.40347,287.664831 C201.263708,288.52962 198.933158,289.020191 196.478229,289.020191 C186.277054,289.020191 178,280.721781 178,270.494286 C178,267.450953 178.746449,264.598902 180.040235,262.062832 L180.015323,262.029571 L302.50003,86 L425.984677,262.029571 L425.959765,262.062832 C427.253611,264.598902 428,267.450953 428,270.494286 C428,280.721781 419.722946,289.020191 409.521771,289.020191 C407.075106,289.020191 404.736292,288.52962 402.604854,287.664831 L346.058237,276.181758 L346.058237,609 L258.950027,609 L258.950027,276.181758 Z"/>
  </g>
</svg>
