<svg xmlns="http://www.w3.org/2000/svg" width="604" height="1204" viewBox="0 0 604 1204">
  <g fill="none">
    <rect width="604" height="1204" fill="#000" rx="52"/>
    <rect width="600" height="1200" x="2" y="2" fill="#FFF" rx="50"/>
    <rect width="580" height="1180" x="12" y="12" fill="#0046AA" rx="40"/>
    <polygon fill="#FFF" points="203 1113 203 252 98 357 98 245 252 91 406 245 406 357 301 252 301 1113"/>
    <path fill="#FFF" d="M365.035038,430.506177 L488.90553,430.506138 C524.967794,430.506138 554,459.49926 554,495.513037 L462.868055,521.515531 L365.035038,521.515531 L423.619943,580.021858 L313.150943,580.021858 L209,476.010927 L313.150813,372 L423.619943,372" transform="matrix(-1 0 0 1 763 0)"/>
  </g>
</svg>
