<svg xmlns="http://www.w3.org/2000/svg" width="25" height="25" viewBox="0 0 25 25">
  <g fill="none">
    <path fill="#0725FF" d="M1.921,0.111 C2.077,0.027 2.257,0.045 2.427,0.044 C6.197,0.032 9.967,0.026 13.736,0.033 C17.143,0.038 20.55,0.031 23.956,0.042 C24.439,0.212 24.81,0.621 24.999,1.092 L24.999,22.908 C24.849,23.399 24.454,23.781 23.999,24.001 L2.043,24.001 C1.822,23.884 1.6,23.759 1.429,23.573 C1.233,23.373 1.111,23.117 0.999,22.864 L0.999,1.181 C1.181,0.74 1.474,0.316 1.92,0.112 L1.921,0.111 Z M2.34,0.15 C1.635,0.214 1.071,0.917 1.121,1.616 C1.122,8.602 1.121,15.588 1.121,22.574 C1.123,22.928 1.312,23.25 1.543,23.506 C1.821,23.793 2.22,23.919 2.614,23.915 C9.554,23.915 16.494,23.915 23.434,23.915 C23.816,23.917 24.2,23.795 24.475,23.522 C24.714,23.263 24.909,22.935 24.911,22.573 C24.91,15.54 24.91,8.506 24.911,1.472 C24.911,1.122 24.727,0.802 24.501,0.547 C24.227,0.258 23.829,0.121 23.435,0.126 C16.591,0.126 9.748,0.126 2.904,0.126 C2.716,0.126 2.527,0.119 2.341,0.149 L2.34,0.15 Z"/>
    <path fill="#0725FF" d="M22.26,0.456 C22.776,0.442 23.305,0.385 23.81,0.518 C24.193,0.607 24.451,0.967 24.556,1.327 C24.618,1.801 24.579,2.282 24.576,2.758 C24.578,9.315 24.574,15.873 24.578,22.431 C24.621,22.777 24.426,23.098 24.176,23.319 C23.911,23.525 23.568,23.578 23.241,23.583 C16.794,23.583 10.346,23.583 3.898,23.583 C3.47,23.58 3.041,23.592 2.612,23.568 C2.264,23.541 1.873,23.451 1.662,23.145 C1.409,22.823 1.445,22.387 1.452,22.002 C1.452,16.157 1.452,10.313 1.452,4.468 C1.446,3.962 1.469,3.454 1.431,2.949 C1.412,2.44 1.415,1.929 1.477,1.423 C1.551,1.086 1.716,0.725 2.041,0.565 C2.2,0.479 2.388,0.478 2.564,0.461 C9.128,0.456 15.693,0.466 22.257,0.456 L22.26,0.456 Z M2.483,1.051 C2.325,1.066 2.178,1.16 2.107,1.303 C2.012,1.453 2.041,1.636 2.038,1.803 C2.038,8.505 2.038,15.208 2.038,21.911 C2.04,22.182 1.992,22.469 2.085,22.729 C2.274,23.044 2.681,22.996 2.996,23.001 C9.73,22.997 16.464,23.001 23.197,22.999 C23.377,22.992 23.566,22.996 23.733,22.917 C23.905,22.824 24.034,22.633 23.999,22.432 C23.993,16.475 23.998,10.518 23.997,4.562 C24.001,3.626 23.976,2.69 24.039,1.755 C24.036,1.46 23.881,1.063 23.536,1.05 C23.107,1.03 22.676,1.046 22.247,1.041 C15.703,1.041 9.158,1.041 2.614,1.041 C2.582,1.043 2.517,1.048 2.485,1.05 L2.483,1.051 Z"/>
    <g fill="#0725FF" transform="translate(2 3)">
      <path d="M13.707.978C14.239.888 14.825.904 15.302 1.183 15.591 1.393 15.859 1.65 16.028 1.969 16.314 2.588 16.503 3.257 16.543 3.94 16.575 4.579 16.527 5.224 16.368 5.845 16.284 6.218 16.133 6.575 15.934 6.901 15.651 7.422 15.069 7.743 14.486 7.784 14.014 7.82 13.507 7.778 13.096 7.522 12.834 7.329 12.589 7.1 12.424 6.817 11.923 5.799 11.772 4.629 11.93 3.51 12.007 2.984 12.128 2.453 12.398 1.988 12.516 1.793 12.622 1.583 12.796 1.431 13.056 1.209 13.366 1.036 13.707.978zM13.896 2.032C13.581 2.112 13.378 2.4 13.236 2.673 13.017 3.225 12.922 3.823 12.928 4.415 12.911 5.044 13.06 5.673 13.332 6.238 13.479 6.48 13.729 6.68 14.018 6.71 14.344 6.762 14.72 6.699 14.935 6.426 15.224 6.131 15.309 5.713 15.4 5.325 15.585 4.368 15.53 3.333 15.069 2.458 14.974 2.305 14.832 2.185 14.682 2.089 14.431 2.003 14.156 1.962 13.895 2.031L13.896 2.032zM5.849 1.036C6.195 1.036 6.54 1.036 6.886 1.036 7.685 2.451 8.481 3.868 9.28 5.283 9.281 3.867 9.28 2.451 9.28 1.036 9.626 1.036 9.971 1.036 10.317 1.036 10.317 3.254 10.317 5.471 10.317 7.688 10.014 7.688 9.712 7.688 9.409 7.688 8.568 6.193 7.728 4.696 6.886 3.201 6.885 4.697 6.886 6.192 6.886 7.688 6.54 7.688 6.195 7.688 5.849 7.688 5.849 5.47 5.849 3.253 5.849 1.036zM19.173 11.69C19.643 11.55 20.188 11.565 20.609 11.84 20.93 12.022 21.156 12.337 21.28 12.679 21.013 12.756 20.745 12.833 20.477 12.909 20.4 12.76 20.284 12.634 20.148 12.538 19.837 12.409 19.435 12.418 19.179 12.66 18.92 12.891 18.848 13.362 19.138 13.596 19.681 13.818 20.343 13.75 20.813 14.148 21.499 14.624 21.715 15.682 21.211 16.364 21.031 16.665 20.736 16.866 20.42 17.001 19.858 17.165 19.221 17.097 18.731 16.764 18.345 16.543 18.074 16.166 17.908 15.76 18.171 15.662 18.433 15.563 18.696 15.466 18.842 15.799 19.124 16.09 19.48 16.191 19.769 16.258 20.107 16.262 20.353 16.071 20.541 15.92 20.663 15.681 20.651 15.437 20.662 15.157 20.453 14.923 20.233 14.78 19.683 14.544 19.041 14.543 18.536 14.198 18.28 13.917 18.096 13.545 18.115 13.156 18.103 12.756 18.307 12.387 18.565 12.095 18.726 11.906 18.954 11.795 19.173 11.688L19.173 11.69zM.561 11.683C1.641 11.683 2.721 11.683 3.8 11.683 3.8 11.933 3.8 12.183 3.8 12.433 3.399 12.433 2.997 12.433 2.596 12.433 2.596 13.957 2.596 15.481 2.596 17.004 2.319 17.004 2.043 17.004 1.766 17.004 1.766 15.48 1.766 13.956 1.766 12.432 1.364 12.432.963 12.432.562 12.432.562 12.182.562 11.932.562 11.683L.561 11.683zM4.452 11.683C4.729 11.683 5.005 11.683 5.282 11.683 5.282 12.856 5.283 14.03 5.281 15.204 5.286 15.478 5.402 15.741 5.569 15.954 5.827 16.243 6.271 16.3 6.62 16.162 6.975 16.008 7.161 15.615 7.196 15.249 7.198 14.061 7.197 12.873 7.196 11.685 7.473 11.681 7.75 11.684 8.027 11.684 8.027 12.825 8.026 13.966 8.028 15.108 8.037 15.54 7.926 15.979 7.704 16.35 7.39 16.77 6.891 17.06 6.363 17.084 5.858 17.128 5.348 16.938 4.984 16.589 4.726 16.372 4.607 16.043 4.521 15.727 4.429 15.401 4.454 15.062 4.452 14.728 4.452 13.713 4.452 12.698 4.452 11.684L4.452 11.683zM8.933 11.683C9.503 11.683 10.074 11.682 10.644 11.684 11.014 11.703 11.415 11.706 11.729 11.929 12.278 12.255 12.533 12.983 12.354 13.589 12.267 13.85 12.144 14.118 11.922 14.292 11.819 14.378 11.705 14.447 11.591 14.517 11.896 15.347 12.203 16.176 12.507 17.005 12.209 17.005 11.911 17.006 11.613 17.005 11.33 16.231 11.044 15.458 10.76 14.684 10.427 14.683 10.095 14.684 9.762 14.684 9.762 15.458 9.762 16.231 9.762 17.005 9.485 17.006 9.209 17.005 8.932 17.006 8.932 15.232 8.932 13.458 8.932 11.684L8.933 11.683zM9.762 13.829C10.152 13.827 10.542 13.836 10.932 13.824 11.224 13.828 11.485 13.601 11.568 13.331 11.67 12.944 11.321 12.538 10.93 12.543 10.542 12.53 10.154 12.543 9.766 12.536 9.758 12.967 9.765 13.399 9.763 13.83L9.762 13.829zM13.414 11.683C13.69 11.682 13.967 11.683 14.243 11.683 14.882 12.815 15.519 13.949 16.157 15.081 16.158 13.948 16.157 12.816 16.157 11.683 16.434 11.683 16.71 11.683 16.987 11.683 16.987 13.457 16.987 15.231 16.987 17.004 16.745 17.005 16.503 17.004 16.261 17.004 15.588 15.808 14.916 14.61 14.242 13.414 14.242 14.611 14.242 15.807 14.242 17.004 13.965 17.004 13.689 17.004 13.412 17.004 13.412 15.23 13.412 13.456 13.412 11.683L13.414 11.683z"/>
    </g>
    <path fill="#FFFFFE" d="M2.34,0.15 C2.526,0.12 2.715,0.127 2.903,0.127 C9.747,0.127 16.59,0.127 23.434,0.127 C23.828,0.121 24.226,0.259 24.5,0.548 C24.726,0.803 24.911,1.123 24.91,1.473 C24.909,8.507 24.909,15.54 24.91,22.574 C24.908,22.936 24.713,23.265 24.474,23.523 C24.199,23.796 23.815,23.918 23.433,23.916 C16.493,23.916 9.553,23.916 2.613,23.916 C2.219,23.921 1.82,23.794 1.542,23.507 C1.311,23.251 1.123,22.929 1.12,22.575 C1.12,15.589 1.121,8.603 1.12,1.617 C1.07,0.918 1.634,0.215 2.339,0.151 L2.34,0.15 Z M22.26,0.456 C15.695,0.466 9.131,0.456 2.567,0.461 C2.391,0.478 2.202,0.479 2.044,0.565 C1.719,0.725 1.554,1.085 1.48,1.423 C1.418,1.929 1.415,2.441 1.434,2.949 C1.472,3.455 1.449,3.962 1.455,4.468 C1.455,10.313 1.455,16.158 1.455,22.002 C1.448,22.387 1.412,22.823 1.665,23.145 C1.875,23.451 2.267,23.541 2.615,23.568 C3.043,23.592 3.472,23.58 3.901,23.583 C10.349,23.583 16.796,23.583 23.244,23.583 C23.57,23.578 23.914,23.525 24.179,23.319 C24.429,23.098 24.624,22.777 24.581,22.431 C24.576,15.874 24.581,9.316 24.579,2.758 C24.582,2.281 24.621,1.8 24.559,1.327 C24.454,0.967 24.196,0.607 23.813,0.518 C23.307,0.384 22.779,0.441 22.263,0.456 L22.26,0.456 Z"/>
    <path fill="#FFFFFE" d="M2.483,1.051 C2.515,1.049 2.58,1.044 2.612,1.042 C9.156,1.042 15.701,1.042 22.245,1.042 C22.675,1.047 23.105,1.031 23.534,1.051 C23.879,1.064 24.034,1.461 24.037,1.756 C23.974,2.691 23.999,3.627 23.995,4.563 C23.996,10.52 23.992,16.477 23.997,22.433 C24.032,22.635 23.902,22.825 23.731,22.918 C23.565,22.997 23.376,22.994 23.195,23 C16.461,23.001 9.727,22.998 2.994,23.002 C2.679,22.997 2.272,23.044 2.083,22.73 C1.99,22.47 2.038,22.183 2.036,21.912 C2.036,15.209 2.036,8.506 2.036,1.804 C2.04,1.636 2.011,1.453 2.105,1.304 C2.176,1.16 2.323,1.067 2.481,1.052 L2.483,1.051 Z M15.707,3.978 C15.366,4.036 15.057,4.209 14.796,4.431 C14.622,4.583 14.516,4.793 14.398,4.988 C14.128,5.452 14.008,5.984 13.93,6.51 C13.772,7.629 13.923,8.799 14.424,9.817 C14.589,10.1 14.835,10.328 15.096,10.522 C15.507,10.778 16.013,10.82 16.486,10.784 C17.069,10.743 17.65,10.422 17.934,9.901 C18.133,9.575 18.284,9.219 18.368,8.845 C18.527,8.224 18.576,7.579 18.543,6.94 C18.503,6.257 18.314,5.588 18.028,4.969 C17.859,4.65 17.592,4.393 17.302,4.183 C16.825,3.904 16.239,3.888 15.707,3.978 Z M7.849,4.036 C7.849,6.254 7.849,8.471 7.849,10.688 C8.195,10.688 8.54,10.688 8.886,10.688 C8.886,9.192 8.885,7.697 8.886,6.201 C9.727,7.696 10.567,9.193 11.409,10.688 C11.712,10.688 12.014,10.688 12.317,10.688 C12.317,8.47 12.317,6.253 12.317,4.036 C11.971,4.036 11.626,4.036 11.28,4.036 C11.28,5.452 11.28,6.868 11.28,8.283 C10.482,6.868 9.685,5.451 8.886,4.036 C8.54,4.036 8.195,4.036 7.849,4.036 Z M21.173,14.69 C20.954,14.796 20.726,14.908 20.565,15.097 C20.307,15.388 20.104,15.758 20.115,16.158 C20.096,16.546 20.28,16.919 20.536,17.2 C21.041,17.545 21.683,17.546 22.233,17.782 C22.453,17.926 22.662,18.159 22.651,18.439 C22.663,18.683 22.541,18.921 22.353,19.073 C22.107,19.264 21.769,19.259 21.48,19.193 C21.125,19.092 20.842,18.801 20.696,18.468 C20.433,18.565 20.17,18.664 19.908,18.762 C20.074,19.167 20.345,19.544 20.731,19.766 C21.221,20.098 21.857,20.167 22.42,20.003 C22.737,19.868 23.032,19.667 23.211,19.366 C23.715,18.684 23.499,17.626 22.813,17.15 C22.343,16.752 21.681,16.82 21.138,16.598 C20.848,16.364 20.919,15.893 21.179,15.662 C21.435,15.421 21.837,15.411 22.148,15.54 C22.284,15.636 22.401,15.761 22.477,15.911 C22.745,15.835 23.013,15.758 23.28,15.681 C23.156,15.339 22.93,15.024 22.609,14.842 C22.188,14.566 21.644,14.552 21.173,14.692 L21.173,14.69 Z M2.561,14.683 C2.561,14.933 2.561,15.182 2.561,15.432 C2.962,15.432 3.364,15.432 3.765,15.432 C3.765,16.956 3.765,18.48 3.765,20.004 C4.042,20.004 4.318,20.004 4.595,20.004 C4.595,18.48 4.595,16.956 4.595,15.433 C4.997,15.433 5.398,15.433 5.799,15.433 C5.799,15.183 5.799,14.933 5.799,14.683 C4.72,14.683 3.64,14.683 2.56,14.683 L2.561,14.683 Z M6.452,14.683 C6.452,15.698 6.452,16.713 6.452,17.727 C6.454,18.061 6.429,18.4 6.521,18.726 C6.607,19.042 6.726,19.37 6.984,19.588 C7.349,19.937 7.858,20.127 8.363,20.083 C8.891,20.059 9.39,19.768 9.704,19.349 C9.926,18.977 10.036,18.539 10.028,18.107 C10.026,16.965 10.028,15.824 10.027,14.683 C9.75,14.683 9.473,14.68 9.196,14.684 C9.197,15.872 9.198,17.06 9.196,18.248 C9.161,18.615 8.975,19.008 8.62,19.161 C8.271,19.299 7.826,19.243 7.569,18.953 C7.402,18.74 7.286,18.476 7.281,18.203 C7.283,17.029 7.281,15.856 7.282,14.682 C7.005,14.682 6.729,14.682 6.452,14.682 L6.452,14.683 Z M10.933,14.683 C10.933,16.457 10.933,18.231 10.933,20.005 C11.21,20.005 11.487,20.005 11.763,20.004 C11.762,19.23 11.763,18.457 11.763,17.683 C12.096,17.683 12.428,17.682 12.761,17.683 C13.045,18.457 13.33,19.23 13.614,20.004 C13.912,20.005 14.21,20.004 14.508,20.004 C14.203,19.175 13.896,18.346 13.592,17.516 C13.706,17.446 13.82,17.376 13.923,17.291 C14.146,17.117 14.268,16.849 14.355,16.588 C14.534,15.983 14.279,15.255 13.73,14.928 C13.415,14.705 13.014,14.701 12.645,14.683 C12.075,14.681 11.504,14.683 10.934,14.682 L10.933,14.683 Z M15.414,14.683 C15.414,16.457 15.414,18.231 15.414,20.004 C15.691,20.004 15.967,20.004 16.244,20.004 C16.244,18.807 16.244,17.611 16.244,16.414 C16.917,17.611 17.589,18.808 18.263,20.004 C18.505,20.004 18.747,20.004 18.989,20.004 C18.988,18.23 18.989,16.456 18.989,14.683 C18.712,14.683 18.436,14.683 18.159,14.683 C18.159,15.816 18.159,16.948 18.159,18.081 C17.52,16.949 16.884,15.815 16.245,14.683 C15.969,14.683 15.692,14.683 15.416,14.683 L15.414,14.683 Z"/>
    <path fill="#FFFFFE" d="M15.896 5.032C16.157 4.963 16.432 5.003 16.683 5.09 16.834 5.186 16.975 5.306 17.07 5.459 17.531 6.334 17.586 7.369 17.401 8.326 17.31 8.714 17.225 9.132 16.936 9.427 16.721 9.699 16.344 9.763 16.019 9.711 15.731 9.681 15.481 9.481 15.333 9.239 15.061 8.674 14.912 8.045 14.929 7.416 14.923 6.823 15.018 6.226 15.237 5.674 15.379 5.401 15.582 5.113 15.897 5.033L15.896 5.032zM11.762 16.829C11.764 16.398 11.758 15.966 11.765 15.535 12.153 15.542 12.542 15.529 12.929 15.542 13.32 15.537 13.668 15.943 13.567 16.33 13.484 16.6 13.223 16.828 12.931 16.823 12.541 16.835 12.152 16.826 11.761 16.828L11.762 16.829z"/>
  </g>
</svg>
