<?xml version="1.0" encoding="UTF-8" standalone="no"?>
<!-- Generator: Adobe Illustrator 14.0.0, SVG Export Plug-In  -->

<svg
   xmlns:dc="http://purl.org/dc/elements/1.1/"
   xmlns:cc="http://creativecommons.org/ns#"
   xmlns:rdf="http://www.w3.org/1999/02/22-rdf-syntax-ns#"
   xmlns:svg="http://www.w3.org/2000/svg"
   xmlns="http://www.w3.org/2000/svg"
   xmlns:sodipodi="http://sodipodi.sourceforge.net/DTD/sodipodi-0.dtd"
   xmlns:inkscape="http://www.inkscape.org/namespaces/inkscape"
   version="1.1"
   x="0px"
   y="0px"
   width="81.687485"
   height="101.93748"
   viewBox="0 -0.321 81.687488 101.9375"
   enable-background="new 0 -0.321 144 120"
   xml:space="preserve"
   id="svg2"
   inkscape:version="0.48.2 r9819"
   sodipodi:docname="AJAX1.svg"><metadata
   id="metadata44"><rdf:RDF><cc:Work
       rdf:about=""><dc:format>image/svg+xml</dc:format><dc:type
         rdf:resource="http://purl.org/dc/dcmitype/StillImage" /><dc:title></dc:title></cc:Work></rdf:RDF></metadata><sodipodi:namedview
   pagecolor="#ffffff"
   bordercolor="#666666"
   borderopacity="1"
   objecttolerance="10"
   gridtolerance="10"
   guidetolerance="10"
   inkscape:pageopacity="0"
   inkscape:pageshadow="2"
   inkscape:window-width="1280"
   inkscape:window-height="1004"
   id="namedview42"
   showgrid="false"
   fit-margin-top="0"
   fit-margin-left="0"
   fit-margin-right="0"
   fit-margin-bottom="0"
   inkscape:zoom="3.7904688"
   inkscape:cx="45.229371"
   inkscape:cy="65.195878"
   inkscape:window-x="-8"
   inkscape:window-y="-8"
   inkscape:window-maximized="1"
   inkscape:current-layer="svg2" />
<defs
   id="defs4">
</defs>


















<path
   inkscape:connector-curvature="0"
   d="m 5.39988,101.2804 70.868768,0 c 1.3425,0 2.63625,-0.5325 3.58875,-1.4825 0.9475,-0.9475 1.47625,-2.24625 1.47625,-3.58375 l 0,-91.12002 c 0,-1.33875 -0.52875,-2.63875 -1.47625,-3.58625 -0.9525,-0.94875 -2.24625,-1.48125 -3.58875,-1.48125 l -70.868768,0 c -1.3375,0 -2.64125,0.5325 -3.58875,1.48125 -0.94500016,0.9475 -1.47375016,2.2475 -1.47375016,3.58625 l 0,91.12002 c 0,1.74125 0.90750016,3.38 2.37750016,4.31375 0.8325,0.53375 1.71875,0.655 2.685,0.7525"
   style="fill:#ffffff;fill-opacity:1;fill-rule:nonzero;stroke:#000000;stroke-width:0.70000017;stroke-miterlimit:4;stroke-opacity:1;stroke-dasharray:none"
   id="path3971" /><path
   inkscape:connector-curvature="0"
   d="m 1.74987,96.21165 0,-91.11752 c 0,-0.95625 0.39625,-1.905 1.0675,-2.58375 0.67625,-0.6725 1.62625,-1.06625 2.5825,-1.06625 l 70.868768,0 c 0.95125,0 1.90625,0.39375 2.58,1.06625 0.67625,0.67875 1.07,1.6275 1.07,2.58375 l 0,91.11752 c 0,0.9575 -0.39375,1.9075 -1.07,2.585 -0.67375,0.675 -1.62875,1.065 -2.58,1.065 l -70.868768,0 c -0.95625,0 -1.90625,-0.39 -2.5825,-1.065 -0.67125,-0.6775 -1.0675,-1.6275 -1.0675,-2.585"
   style="fill:#000000;fill-opacity:1;fill-rule:evenodd;stroke:none"
   id="path3979" /><path
   inkscape:connector-curvature="0"
   d="m 3.73737,96.21165 c 0,0.4475 0.17375,0.865 0.48625,1.17875 0.315,0.31375 0.735,0.485 1.17875,0.485 l 70.868768,0 c 0.44125,0 0.86125,-0.17125 1.17625,-0.485 0.3125,-0.31375 0.48375,-0.73125 0.48375,-1.17875 l 0,-91.11627 c 0,-0.44625 -0.17125,-0.8625 -0.48375,-1.17875 -0.315,-0.315 -0.735,-0.48375 -1.17625,-0.48375 l -70.868768,0 c -0.44375,0 -0.86375,0.16875 -1.17875,0.48375 -0.3125,0.31625 -0.48625,0.7325 -0.48625,1.17875 l 0,91.11627 z"
   style="fill:#ffffff;fill-opacity:1;fill-rule:evenodd;stroke:none"
   id="path3983" /><path
   inkscape:connector-curvature="0"
   d="m 61.162388,36.37413 -8.79125,20.15126 c -0.1325,0.30125 -0.3475,0.565 -0.60375,0.77125 -0.515,0.42 -1.23,0.5925 -1.8775,0.44375 -0.495,-0.11625 -1.01251,-0.43625 -1.25501,-0.9 -0.0975,-0.1925 -0.16375,-0.40375 -0.205,-0.61375 l -1.155,-6.045 -29.11375,16.8075 -5.01625,-8.6875 29.11375,-16.80875 -4.63625,-3.98626 c -0.17125,-0.1475 -0.33,-0.33 -0.45,-0.52375 -0.5,-0.81625 -0.175,-1.92875 0.53,-2.51375 0.4275,-0.35375 1.04,-0.62625 1.60875,-0.56 l 21.85126,2.465 z"
   style="fill:#000000;fill-opacity:1;fill-rule:evenodd;stroke:none"
   id="path3987" /><path
   inkscape:connector-curvature="0"
   d="m 22.983638,25.77288 -4.67125,-8.4175 -1.6675,2.27125 0,6.14625 -2.81,0 0,-18 2.81,0 0,7.105 5.2125,-7.105 3.4575,0 -5.16625,7.0825 6.0625,10.9175 -3.2275,0 z"
   style="fill:#000000;fill-opacity:1;fill-rule:evenodd;stroke:none"
   id="path3991" /><path
   inkscape:connector-curvature="0"
   d="m 44.189878,87.7704 c 0,1.52125 -0.62,3.00625 -1.695,4.0825 -1.10875,1.1025 -2.6075,1.6925 -4.165,1.68125 -1.6425,-0.0163 -3.26125,-0.75 -4.32375,-2.00875 -1.045,-1.2325 -1.41875,-2.825 -1.69625,-4.37875 -0.3075,-1.72251 -0.34,-3.51126 -0.0813,-5.24626 0.14375,-0.97625 0.345,-1.95875 0.6375,-2.90125 0.49125,-1.565 1.6525,-2.845 3.1475,-3.5075 2.6025,-1.15 5.64625,-0.29375 7.23125,2.0775 0.35125,0.52625 0.55625,1.10625 0.75125,1.7075 l -2.695,0.89375 c -0.12875,-0.5175 -0.3,-0.93375 -0.65625,-1.34875 -0.70375,-0.82 -1.82375,-1.19 -2.87625,-0.96375 -1.07,0.23 -1.855,0.99375 -2.2,2.02 -0.35875,1.06625 -0.56375,2.1925 -0.65125,3.31625 -0.0913,1.18375 -0.045,2.39875 0.14875,3.56751 0.1,0.625 0.23125,1.25 0.44125,1.84625 0.50375,1.4575 1.92625,2.375 3.465,2.065 1.3675,-0.2725 2.3925,-1.50625 2.3925,-2.9025 l 0,-0.67875 -3.09875,0 0,-2.95001 5.92375,0 0,3.62876 z"
   style="fill:#000000;fill-opacity:1;fill-rule:evenodd;stroke:none"
   id="path3995" /><path
   inkscape:connector-curvature="0"
   d="m 60.497388,75.27289 0,18.00001 -2.84625,0 0,-7.86626 -6.40375,0 0,7.86626 -2.84626,0 0,-18.00001 2.84626,0 0,7.2525 6.40375,0 0,-7.2525 2.84625,0 z"
   style="fill:#000000;fill-opacity:1;fill-rule:evenodd;stroke:none"
   id="path3999" /><path
   inkscape:connector-curvature="0"
   style="fill:#000000;fill-opacity:1;fill-rule:evenodd;stroke:none"
   d="m 8.78126,75.26989 0,18.00001 2.812498,0 0,-7.87501 3.21875,0 3.03125,7.87501 3,0 -3.1875,-8.34376 c 0.4075,-0.2125 0.80625,-0.4175 1.15625,-0.71875 0.85875,-0.7475 1.475,-1.78625 1.6875,-2.90625 0.315,-1.645 -0.22375,-3.34875 -1.40625,-4.53125 -0.945,-0.9425 -2.2275,-1.5 -3.5625,-1.5 l -6.749998,0 z m 2.812498,2.8125 3.9375,0.0312 c 0.7475,0.005 1.42875,0.3725 1.84375,1 0.48875,0.7375 0.48625,1.73125 0,2.46875 -0.4075,0.62 -1.09875,1 -1.84375,1 l -3.9375,0 0,-4.5 z"
   id="path4003" /><path
   inkscape:connector-curvature="0"
   style="fill:#000000;fill-opacity:1;fill-rule:evenodd;stroke:none"
   d="m 58.281268,7.76988 0,18 2.8125,0 0,-7.875 4.28125,0 c 0.48375,-0.0225 0.94,-0.0487 1.40625,-0.1875 1.43375,-0.4375 2.6475,-1.51625 3.21875,-2.90625 0.635,-1.54625 0.46125,-3.3575 -0.46875,-4.75 -0.9375,-1.40625 -2.52625,-2.28125 -4.21875,-2.28125 l -7.03125,0 z m 2.8125,2.8125 4.21875,0 c 0.745,0 1.42875,0.3875 1.84375,1 0.50875,0.75 0.50875,1.7475 0,2.5 -0.4175,0.6175 -1.09375,1 -1.84375,1 l -4.21875,0 0,-4.5 z"
   id="path4007" /><path
   inkscape:connector-curvature="0"
   d="m 70.753638,78.10402 0,15.16876 -2.81125,0 0,-15.16876 -4.0625,0 0,-2.83125 10.9575,0 0,2.83125 -4.08375,0 z"
   style="fill:#000000;fill-opacity:1;fill-rule:evenodd;stroke:none"
   id="path4011" /><path
   inkscape:connector-curvature="0"
   d="m 43.933628,25.77288 0,-18 10.39501,0 0,2.83125 -7.58251,0 0,4.4825 5.79251,0 0,2.81 -5.79251,0 0,5.06625 8.14626,0 0,2.81 -10.95876,0 z"
   style="fill:#000000;fill-opacity:1;fill-rule:evenodd;stroke:none"
   id="path4015" /><path
   inkscape:connector-curvature="0"
   d="m 29.592378,25.77288 0,-18 10.395,0 0,2.83125 -7.585,0 0,4.4825 5.79625,0 0,2.81 -5.79625,0 0,5.06625 8.14625,0 0,2.81 -10.95625,0 z"
   style="fill:#000000;fill-opacity:1;fill-rule:evenodd;stroke:none"
   id="path4019" /><path
   inkscape:connector-curvature="0"
   d="m 27.881258,93.2724 -2.81,0 0,-18.00001 2.81,0 0,18.00001 z"
   style="fill:#000000;fill-opacity:1;fill-rule:evenodd;stroke:none"
   id="path4029" /></svg>