<svg xmlns="http://www.w3.org/2000/svg" width="1546" height="2170" viewBox="0 0 1546 2170">
  <g fill="none" transform="translate(5 5)">
    <path fill="#FFF" stroke="#000" stroke-width="10" d="M1536,2025 C1536,2099.5625 1475.5625,2160 1401,2160 L135,2160 C60.440625,2160 0,2099.5625 0,2025 L0,135 C0,60.4406 60.440625,0 135,0 L1401,0 C1475.5625,0 1536,60.4406 1536,135 L1536,2025 Z"/>
    <path fill="#000064" d="M135,2115 C85.3735,2115 45,2074.625 45,2025 L45,135 C45,85.3735 85.3735,45 135,45 L1401,45 C1450.625,45 1491,85.3735 1491,135 L1491,2025 C1491,2074.625 1450.625,2115 1401,2115 L135,2115 Z"/>
    <polygon fill="#FFF" points="542.62 263 325 801.794 438.997 799.25 438.223 1915.194 648.839 1914.393 649.508 1204.808 982.243 1467.462 983.276 1914.675 1206.318 1915.016 1210.739 1409.283 649.766 930.592 649.889 800.191 759.301 799.036"/>
  </g>
</svg>
