<svg xmlns="http://www.w3.org/2000/svg" width="604" height="694" viewBox="0 0 604 694">
  <g fill="none" fill-rule="evenodd">
    <path fill="#000" fill-rule="nonzero" d="M52,0 L552,0 C580.718807,-5.27555926e-15 604,23.281193 604,52 L604,642 C604,670.718807 580.718807,694 552,694 L52,694 C23.281193,694 3.51703951e-15,670.718807 0,642 L0,52 C-3.51703951e-15,23.281193 23.281193,5.27555926e-15 52,0 Z"/>
    <path fill="#FFF" fill-rule="nonzero" d="M52,2 L552,2 C579.614237,2 602,24.3857625 602,52 L602,642 C602,669.614237 579.614237,692 552,692 L52,692 C24.3857625,692 2,669.614237 2,642 L2,52 C2,24.3857625 24.3857625,2 52,2 Z"/>
    <path fill="#0046AA" fill-rule="nonzero" d="M52,12 L552,12 C574.09139,12 592,29.90861 592,52 L592,642 C592,664.09139 574.09139,682 552,682 L52,682 C29.90861,682 12,664.09139 12,642 L12,52 C12,29.90861 29.90861,12 52,12 Z"/>
    <path fill="#FFF" stroke="#979797" d="M72 31.5C67.8578644 31.5 64.5 34.8578644 64.5 39L64.5 103C64.5 107.142136 67.8578644 110.5 72 110.5L86 110.5C90.1421356 110.5 93.5 107.142136 93.5 103L93.5 39C93.5 34.8578644 90.1421356 31.5 86 31.5L72 31.5zM72 169.5C67.8578644 169.5 64.5 172.857864 64.5 177L64.5 241C64.5 245.142136 67.8578644 248.5 72 248.5L86 248.5C90.1421356 248.5 93.5 245.142136 93.5 241L93.5 177C93.5 172.857864 90.1421356 169.5 86 169.5L72 169.5zM72 307.5C67.8578644 307.5 64.5 310.857864 64.5 315L64.5 379C64.5 383.142136 67.8578644 386.5 72 386.5L86 386.5C90.1421356 386.5 93.5 383.142136 93.5 379L93.5 315C93.5 310.857864 90.1421356 307.5 86 307.5L72 307.5zM72 445.5C67.8578644 445.5 64.5 448.857864 64.5 453L64.5 517C64.5 521.142136 67.8578644 524.5 72 524.5L86 524.5C90.1421356 524.5 93.5 521.142136 93.5 517L93.5 453C93.5 448.857864 90.1421356 445.5 86 445.5L72 445.5zM72 583.5C67.8578644 583.5 64.5 586.857864 64.5 591L64.5 655C64.5 659.142136 67.8578644 662.5 72 662.5L86 662.5C90.1421356 662.5 93.5 659.142136 93.5 655L93.5 591C93.5 586.857864 90.1421356 583.5 86 583.5L72 583.5zM518 31.5C513.857864 31.5 510.5 34.8578644 510.5 39L510.5 103C510.5 107.142136 513.857864 110.5 518 110.5L532 110.5C536.142136 110.5 539.5 107.142136 539.5 103L539.5 39C539.5 34.8578644 536.142136 31.5 532 31.5L518 31.5zM518 169.5C513.857864 169.5 510.5 172.857864 510.5 177L510.5 241C510.5 245.142136 513.857864 248.5 518 248.5L532 248.5C536.142136 248.5 539.5 245.142136 539.5 241L539.5 177C539.5 172.857864 536.142136 169.5 532 169.5L518 169.5zM518 307.5C513.857864 307.5 510.5 310.857864 510.5 315L510.5 379C510.5 383.142136 513.857864 386.5 518 386.5L532 386.5C536.142136 386.5 539.5 383.142136 539.5 379L539.5 315C539.5 310.857864 536.142136 307.5 532 307.5L518 307.5zM518 445.5C513.857864 445.5 510.5 448.857864 510.5 453L510.5 517C510.5 521.142136 513.857864 524.5 518 524.5L532 524.5C536.142136 524.5 539.5 521.142136 539.5 517L539.5 453C539.5 448.857864 536.142136 445.5 532 445.5L518 445.5zM518 583.5C513.857864 583.5 510.5 586.857864 510.5 591L510.5 655C510.5 659.142136 513.857864 662.5 518 662.5L532 662.5C536.142136 662.5 539.5 659.142136 539.5 655L539.5 591C539.5 586.857864 536.142136 583.5 532 583.5L518 583.5z"/>
    <path fill="#FFF" fill-rule="nonzero" d="M300.367401,113.518488 C304.374689,111.120149 309.183434,111.929228 313.368823,113.431801 C344.280852,124.059408 389.028656,139.430636 447.612237,159.545487 L447.612236,159.545491 C455.551985,162.271627 459.778452,170.918036 457.052315,178.857785 C456.413337,180.718779 455.419111,182.438008 454.124825,183.92004 C413.055894,230.946311 381.701334,266.888579 360.061145,291.746844 C357.241202,294.463034 352.907394,295.243217 349.107892,295.589965 C340.588695,295.734443 334.533239,287.268018 335.305012,279.495089 C335.928368,265.596282 336.611091,251.726371 337.204764,237.827565 C315.120156,243.520007 292.115357,247.854355 272.405439,259.643779 C257.652684,269.699464 243.40455,281.199932 233.579275,296.110086 C218.114113,318.5909 207.279595,344.857044 207.012442,372.221222 C207.042126,402.157114 207.042126,552.093005 207.042126,582 C183.028084,582 159.014042,582 135,582 C135.178102,553.191039 135.148418,404.382078 135.504621,375.573118 C136.781017,352.861138 139.215073,329.831307 147.289015,308.361841 C155.244223,286.834583 167.503555,267.012169 181.751689,248.923494 C194.248489,233.290948 210.010487,220.490176 226.395841,208.931917 C241.386065,197.518136 259.463384,190.929929 277.243868,184.861843 C291.343583,180.007374 306.036971,177.002226 320.433523,173.101314 C311.795592,159.78042 302.890508,146.661796 294.400995,133.283111 C290.096872,126.637112 292.887131,116.697009 300.397085,113.518488 L300.367401,113.518488 Z" transform="matrix(-1 0 0 1 604 0)"/>
  </g>
</svg>
