<?xml version="1.0" encoding="UTF-8" standalone="no"?>
<!-- Created with Inkscape (http://www.inkscape.org/) -->

<svg
   xmlns:dc="http://purl.org/dc/elements/1.1/"
   xmlns:cc="http://creativecommons.org/ns#"
   xmlns:rdf="http://www.w3.org/1999/02/22-rdf-syntax-ns#"
   xmlns:svg="http://www.w3.org/2000/svg"
   xmlns="http://www.w3.org/2000/svg"
   xmlns:sodipodi="http://sodipodi.sourceforge.net/DTD/sodipodi-0.dtd"
   xmlns:inkscape="http://www.inkscape.org/namespaces/inkscape"
   id="svg17624"
   version="1.1"
   inkscape:version="0.48.2 r9819"
   width="212.59874"
   height="212.5975"
   xml:space="preserve"
   sodipodi:docname="AA.svg"><metadata
     id="metadata17630"><rdf:RDF><cc:Work
         rdf:about=""><dc:format>image/svg+xml</dc:format><dc:type
           rdf:resource="http://purl.org/dc/dcmitype/StillImage" /><dc:title /></cc:Work></rdf:RDF></metadata><defs
     id="defs17628"><inkscape:perspective
       sodipodi:type="inkscape:persp3d"
       inkscape:vp_x="0 : 0.5 : 1"
       inkscape:vp_y="0 : 1000 : 0"
       inkscape:vp_z="1 : 0.5 : 1"
       inkscape:persp3d-origin="0.5 : 0.33333333 : 1"
       id="perspective17632" /><clipPath
       clipPathUnits="userSpaceOnUse"
       id="clipPath17642"><path
         d="m -2,710 501,0 0,-711 -501,0 0,711 z"
         id="path17644"
         inkscape:connector-curvature="0" /></clipPath><clipPath
       clipPathUnits="userSpaceOnUse"
       id="clipPath17648"><path
         d="m 0,708.06 498,0 0,-708 -498,0 0,708 z"
         id="path17650"
         inkscape:connector-curvature="0" /></clipPath><clipPath
       clipPathUnits="userSpaceOnUse"
       id="clipPath17798"><path
         d="m -2,710 501,0 0,-711 -501,0 0,711 z"
         id="path17800"
         inkscape:connector-curvature="0" /></clipPath><clipPath
       clipPathUnits="userSpaceOnUse"
       id="clipPath17804"><path
         d="m 0,708.06 498,0 0,-708 -498,0 0,708 z"
         id="path17806"
         inkscape:connector-curvature="0" /></clipPath><clipPath
       id="Clip0"><path
         inkscape:connector-curvature="0"
         d="m 0,0 212.597,0 0,269.292 L 0,269.292 0,0 z"
         transform="translate(0.923828,0.879883)"
         id="path7" /></clipPath></defs><sodipodi:namedview
     pagecolor="#ffffff"
     bordercolor="#666666"
     borderopacity="1"
     objecttolerance="10"
     gridtolerance="10"
     guidetolerance="10"
     inkscape:pageopacity="0"
     inkscape:pageshadow="2"
     inkscape:window-width="1280"
     inkscape:window-height="1004"
     id="namedview17626"
     showgrid="false"
     inkscape:zoom="1.4158115"
     inkscape:cx="224.49626"
     inkscape:cy="54.493889"
     inkscape:window-x="-8"
     inkscape:window-y="-8"
     inkscape:window-maximized="1"
     inkscape:current-layer="g17634"
     fit-margin-top="0"
     fit-margin-left="0"
     fit-margin-right="0"
     fit-margin-bottom="0"
     showguides="true"
     inkscape:guide-bbox="true" /><g
     id="g17634"
     inkscape:groupmode="layer"
     inkscape:label="GG1999P002"
     transform="matrix(1.25,0,0,-1.25,156.88842,93.801964)"><path
       inkscape:connector-curvature="0"
       style="fill:#ffffff;fill-rule:nonzero;stroke:none"
       d="m -124.71061,-9.9974289 c 0,46.9667999 37.272066,84.2393679 84.238866,84.2393679 46.967,0 84.240334,-37.272568 84.240334,-84.2393679 0,-46.9670001 -37.273334,-84.2390321 -84.240334,-84.2390321 -46.9668,0 -84.238866,37.272032 -84.238866,84.2390321 z"
       id="path13"
       sodipodi:nodetypes="sssss" /><path
       inkscape:connector-curvature="0"
       style="fill:#000000;fill-rule:nonzero;stroke:none"
       d="m -6.456006,-9.9974626 0,-53.2905984 -17.008004,0 0,53.2905984 c -0.011,5.9521 -4.8153,10.75680005 -10.745,10.77150005 l -25.0654,0 1.7285,-8.69050005 c 0.1699,-0.8525 0.0137,-1.7715 -0.5078,-2.5517004 -1.043,-1.5616 -3.1553,-1.9815 -4.7168,-0.9385 l -0.1963,0.1416 -28.5283,20.5430004 28.5283,20.5438996 0.1963,0.1416 c 1.5615,1.043 3.6738,0.6231 4.7168,-0.9385 0.5215,-0.7802 0.6777,-1.6992 0.5078,-2.5527 l -1.7285,-8.6904 25.0137,0 c 15.3807,0 27.804704,-12.4365996 27.804704,-27.7792996 z"
       id="path11" /><path
       inkscape:connector-curvature="0"
       style="fill:#c0111e;fill-opacity:1;fill-rule:nonzero;stroke:none"
       d="m 9.343256,-49.830429 c 8.739,10.915 13.966,24.763 13.966,39.8330001 0,35.2245999 -28.555,63.7792999 -63.781,63.7792999 -15.0703,0 -28.9199,-5.2266 -39.8349,-13.9668 l 89.6499,-89.6455 z M -104.25104,-9.9974289 c 0,-35.2250001 28.554696,-63.7800001 63.779296,-63.7800001 14.742704,0 28.317,5.002 39.118,13.401 l -89.4979,89.4942 c -8.3984,-10.8008 -13.399396,-24.3739999 -13.399396,-39.1151999 z m -21.2597,0 c 0,46.9667999 38.072196,85.0389999 85.038996,85.0389999 46.967,0 85.04,-38.0722 85.04,-85.0389999 0,-46.9670001 -38.073,-85.0390001 -85.04,-85.0390001 -46.9668,0 -85.038996,38.072 -85.038996,85.0390001 z"
       id="path13-9" /></g></svg>