<?xml version="1.0" encoding="UTF-8" standalone="no"?>
<!-- Created with Inkscape (http://www.inkscape.org/) -->

<svg
   xmlns:dc="http://purl.org/dc/elements/1.1/"
   xmlns:cc="http://creativecommons.org/ns#"
   xmlns:rdf="http://www.w3.org/1999/02/22-rdf-syntax-ns#"
   xmlns:svg="http://www.w3.org/2000/svg"
   xmlns="http://www.w3.org/2000/svg"
   xmlns:sodipodi="http://sodipodi.sourceforge.net/DTD/sodipodi-0.dtd"
   xmlns:inkscape="http://www.inkscape.org/namespaces/inkscape"
   id="svg17624"
   version="1.1"
   inkscape:version="0.48.2 r9819"
   width="212.59875"
   height="212.60001"
   xml:space="preserve"
   sodipodi:docname="AA.svg"><metadata
     id="metadata17630"><rdf:RDF><cc:Work
         rdf:about=""><dc:format>image/svg+xml</dc:format><dc:type
           rdf:resource="http://purl.org/dc/dcmitype/StillImage" /><dc:title /></cc:Work></rdf:RDF></metadata><defs
     id="defs17628"><inkscape:perspective
       sodipodi:type="inkscape:persp3d"
       inkscape:vp_x="0 : 0.5 : 1"
       inkscape:vp_y="0 : 1000 : 0"
       inkscape:vp_z="1 : 0.5 : 1"
       inkscape:persp3d-origin="0.5 : 0.33333333 : 1"
       id="perspective17632" /><clipPath
       clipPathUnits="userSpaceOnUse"
       id="clipPath17642"><path
         d="m -2,710 501,0 0,-711 -501,0 0,711 z"
         id="path17644"
         inkscape:connector-curvature="0" /></clipPath><clipPath
       clipPathUnits="userSpaceOnUse"
       id="clipPath17648"><path
         d="m 0,708.06 498,0 0,-708 -498,0 0,708 z"
         id="path17650"
         inkscape:connector-curvature="0" /></clipPath><clipPath
       clipPathUnits="userSpaceOnUse"
       id="clipPath17798"><path
         d="m -2,710 501,0 0,-711 -501,0 0,711 z"
         id="path17800"
         inkscape:connector-curvature="0" /></clipPath><clipPath
       clipPathUnits="userSpaceOnUse"
       id="clipPath17804"><path
         d="m 0,708.06 498,0 0,-708 -498,0 0,708 z"
         id="path17806"
         inkscape:connector-curvature="0" /></clipPath><clipPath
       id="Clip0"><path
         inkscape:connector-curvature="0"
         d="m 0,0 212.597,0 0,269.292 L 0,269.292 0,0 z"
         transform="translate(0.923828,0.879883)"
         id="path7" /></clipPath></defs><sodipodi:namedview
     pagecolor="#ffffff"
     bordercolor="#666666"
     borderopacity="1"
     objecttolerance="10"
     gridtolerance="10"
     guidetolerance="10"
     inkscape:pageopacity="0"
     inkscape:pageshadow="2"
     inkscape:window-width="1280"
     inkscape:window-height="1004"
     id="namedview17626"
     showgrid="false"
     inkscape:zoom="1.4158115"
     inkscape:cx="225.7609"
     inkscape:cy="56.094541"
     inkscape:window-x="-8"
     inkscape:window-y="-8"
     inkscape:window-maximized="1"
     inkscape:current-layer="g17634"
     fit-margin-top="0"
     fit-margin-left="0"
     fit-margin-right="0"
     fit-margin-bottom="0"
     showguides="true"
     inkscape:guide-bbox="true" /><g
     id="g17634"
     inkscape:groupmode="layer"
     inkscape:label="GG1999P002"
     transform="matrix(1.25,0,0,-1.25,158.15307,92.203855)"><path
       inkscape:connector-curvature="0"
       style="fill:#ffffff;fill-rule:nonzero;stroke:none"
       d="m -125.72225,-11.276012 c 0,46.965796 37.272989,84.239312 84.238893,84.239312 46.966896,0 84.239507,-37.273516 84.239507,-84.239312 0,-46.966904 -37.272611,-84.240688 -84.239507,-84.240688 -46.965904,0 -84.238893,37.273784 -84.238893,84.240688 z"
       id="path13"
       sodipodi:nodetypes="sssss" /><path
       inkscape:connector-curvature="0"
       style="fill:#000000;fill-rule:nonzero;stroke:none"
       d="m -7.46825,-30.0785 8.69,1.728 c 0.853,0.169 1.772,0.013 2.553,-0.508 1.561,-1.043 1.981,-3.155 0.938,-4.716 l -0.141,-0.198 -20.544,-28.527 -20.5434,28.527 -0.1416,0.198 c -1.0439,1.561 -0.624,3.673 0.9375,4.716 0.7813,0.521 1.7002,0.677 2.5528,0.508 l 8.6907,-1.728 0.002,29.574 c 0,9.3936 -7.6156,17.0078 -17.0091,17.0078 -9.3926,0 -17.0079,-7.6142 -17.0079,-17.0078 l 0,-59.812 -17.0078,0 0,59.812 c 0,18.7861 15.2295,34.0156 34.0157,34.0156 18.7871,0 34.0161,-15.2295 34.0161,-34.0156 l -0.001,-29.574 z"
       id="path11" /><path
       id="path4232"
       d="m -80.958961,-61.374916 c 10.8593,-8.568 24.5703,-13.681 39.475596,-13.681 35.224904,0 63.779904,28.555 63.779904,63.779904 0,14.905296 -5.113,28.616196 -13.682,39.475596 l -89.5735,-89.5745 z m -24.303699,50.098904 c 0,-14.906504 5.1132,-28.617904 13.680599,-39.475904 l 89.5736,89.5746 c -10.858,8.5673 -24.5688,13.6806 -39.474896,13.6806 -35.224704,0 -63.779303,-28.5547 -63.779303,-63.779296 z m -21.2598,0 c 0,46.965796 38.073199,85.039096 85.039103,85.039096 46.966896,0 85.039896,-38.0733 85.039896,-85.039096 0,-46.966904 -38.073,-85.040904 -85.039896,-85.040904 -46.965904,0 -85.039103,38.074 -85.039103,85.040904 z"
       style="fill:#c0111e;fill-opacity:1;fill-rule:nonzero;stroke:none"
       inkscape:connector-curvature="0" /></g></svg>