<svg xmlns="http://www.w3.org/2000/svg" width="320" height="320" viewBox="0 0 320 320">
  <g fill="none">
    <path fill="#C31926" d="M320,300.000092 C320,310.999894 314.062128,320 306.804945,320 L13.1950513,320 C5.93787198,320 0,310.999894 0,300.000092 L0,20.0013805 C0,9.00010584 5.93787198,0 13.1950513,0 L306.804945,0 C314.062128,0 320,9.00010584 320,20.0013805 L320,300.000092 Z"/>
    <path fill="#FFF" d="M192.28974,89.297615 C191.33974,88.632615 190.18224,88.242615 188.93474,88.242615 C185.70099,88.242615 183.07849,90.863865 183.07849,94.098865 C183.07849,94.705115 183.17099,95.290115 183.34224,95.840115 L188.53099,113.131365 L113.13099,113.131365 L113.13099,236.11262 L142.41224,236.11262 L142.41224,142.41263 L188.53099,142.41263 L183.34224,159.70387 C183.17099,160.25387 183.07849,160.83885 183.07849,161.44512 C183.07849,164.67886 185.70099,167.30137 188.93474,167.30137 C190.18224,167.30137 191.33974,166.91137 192.28974,166.24634 L247.82474,127.77138 L192.28974,89.297615 Z"/>
    <path fill="#FFF" d="M159.98125,37 C92.06,37 37,92.059995 37,159.98127 C37,227.90127 92.06,282.96251 159.98125,282.96251 C227.9025,282.96251 282.9625,227.90126 282.9625,159.98127 C282.9625,92.059995 227.9025,37 159.98125,37 M60.425,159.98127 C60.425,136.71001 68.41,115.304995 81.78875,98.352495 L221.61,238.17377 C204.65875,251.55248 183.2525,259.53751 159.98125,259.53751 C104.9975,259.53751 60.425,214.96501 60.425,159.98127 M238.17375,221.61002 L98.3525,81.788745 C115.305,68.409995 136.71,60.424995 159.98125,60.424995 C214.965,60.424995 259.5375,104.997495 259.5375,159.98127 C259.5375,183.2525 251.5525,204.6575 238.17375,221.61002"/>
  </g>
</svg>
