<svg xmlns="http://www.w3.org/2000/svg" width="604" height="694" viewBox="0 0 604 694">
  <g fill="none">
    <path fill="#000" d="M52,0 L552,0 C580.718807,-5.27555926e-15 604,23.281193 604,52 L604,642 C604,670.718807 580.718807,694 552,694 L52,694 C23.281193,694 3.51703951e-15,670.718807 0,642 L0,52 C-3.51703951e-15,23.281193 23.281193,5.27555926e-15 52,0 Z"/>
    <path fill="#FFF" d="M52,2 L552,2 C579.614237,2 602,24.3857625 602,52 L602,642 C602,669.614237 579.614237,692 552,692 L52,692 C24.3857625,692 2,669.614237 2,642 L2,52 C2,24.3857625 24.3857625,2 52,2 Z"/>
    <path fill="#0046AA" d="M52,12 L552,12 C574.09139,12 592,29.90861 592,52 L592,642 C592,664.09139 574.09139,682 552,682 L52,682 C29.90861,682 12,664.09139 12,642 L12,52 C12,29.90861 29.90861,12 52,12 Z"/>
    <path fill="#FFF" d="M496.833491,202.261097 L415.281968,82 L333.730444,202.261097 C332.362728,204.240692 331.563936,206.642639 331.563936,209.228466 C331.563936,216.011954 337.066408,221.514021 343.850396,221.514021 C345.172139,221.514021 346.445034,221.304167 347.637476,220.91928 L384.031374,209.228466 L384.031374,377.519876 C346.445034,330.026841 294.319526,294.572271 234.369875,277.876444 L259.376672,249.397862 C260.207071,248.458345 260.905296,247.372297 261.43112,246.162705 C264.134946,239.939479 261.278947,232.702035 255.055148,229.998409 C252.684631,228.969824 250.161827,228.745719 247.802803,229.211168 L105,256.100902 L182.83053,378.80417 C184.103426,380.844101 185.985473,382.536381 188.358863,383.564966 C194.582547,386.268593 201.820525,383.412575 204.521477,377.192338 C205.050174,375.979872 205.366243,374.730055 205.486924,373.480238 L209.21079,335.934021 C309.462099,359.769606 384.031374,449.891445 384.031374,557.430271 L384.031374,611 L446.532562,611 L446.532562,209.228466 L482.92646,220.91928 C484.118901,221.304281 485.391797,221.514021 486.71354,221.514021 C493.497528,221.514021 499,216.011954 499,209.228466 C499,206.642639 498.198334,204.240692 496.833491,202.261097"/>
  </g>
</svg>
