<svg xmlns="http://www.w3.org/2000/svg" width="320" height="320" viewBox="0 0 320 320">
  <g fill="none">
    <path fill="#C31926" d="M320,300.000092 C320,310.999894 314.062128,320 306.804945,320 L13.1950513,320 C5.93787198,320 0,310.999894 0,300.000092 L0,20.0013805 C0,9.00010584 5.93787198,0 13.1950513,0 L306.804945,0 C314.062128,0 320,9.00010584 320,20.0013805 L320,300.000092 Z"/>
    <path fill="#FFF" d="M161.45125,82 C129.1075,82 102.88875,108.21875 102.88875,140.56253 L102.88875,177.89627 L85.5975,172.70752 C85.0475,172.53627 84.4625,172.44377 83.85625,172.44377 C80.6225,172.44377 78,175.06627 78,178.30002 C78,179.54752 78.39,180.70502 79.055,181.655 L117.52875,237.19 L156.00375,181.655 C156.66875,180.70501 157.05875,179.54876 157.05875,178.30002 C157.05875,175.06627 154.4375,172.44377 151.2025,172.44377 C150.59625,172.44377 150.01125,172.53627 149.46125,172.70752 L132.17,177.89627 L132.17,140.56252 C132.17,124.39125 145.28,111.28125 161.45125,111.28125 C177.6225,111.28125 190.7325,124.39125 190.7325,140.56252 L190.7325,237.19 L220.01375,237.19 L220.01375,140.56252 C220.01375,108.21875 193.795,82 161.45125,82"/>
    <path fill="#FFF" d="M159.98125,37 C92.06,37 37,92.059995 37,159.98127 C37,227.90127 92.06,282.96251 159.98125,282.96251 C227.9025,282.96251 282.9625,227.90126 282.9625,159.98127 C282.9625,92.059995 227.9025,37 159.98125,37 M60.425,159.98127 C60.425,136.71001 68.41,115.304995 81.78875,98.352495 L221.61,238.17377 C204.65875,251.55248 183.2525,259.53751 159.98125,259.53751 C104.9975,259.53751 60.425,214.96501 60.425,159.98127 M238.17375,221.61002 L98.3525,81.788745 C115.305,68.409995 136.71,60.424995 159.98125,60.424995 C214.965,60.424995 259.5375,104.997495 259.5375,159.98127 C259.5375,183.2525 251.5525,204.6575 238.17375,221.61002"/>
  </g>
</svg>
