<svg xmlns="http://www.w3.org/2000/svg" width="585" height="261" viewBox="0 0 585 261">
  <g fill="none" fill-rule="evenodd" transform="translate(1 1)">
    <path fill="#FFF" fill-rule="nonzero" stroke="#000" stroke-width=".6" d="M582.940102,242.812514 C582.940102,251.715639 575.653351,259.000012 566.747323,259.000012 L16.1928517,259.000012 C7.2868385,259.000012 7.3227342e-05,251.715639 7.3227342e-05,242.812514 L7.3227342e-05,16.187512 C7.3227342e-05,7.28440498 7.2868385,1.19907409e-05 16.1928517,1.19907409e-05 L566.747323,1.19907409e-05 C575.653351,1.19907409e-05 582.940102,7.28440498 582.940102,16.187512 L582.940102,242.812514 Z"/>
    <path fill="#FFF" fill-rule="nonzero" stroke="#000" stroke-width="7" d="M566.747323,7.54688699 L16.1928517,7.54688699 C11.4460718,7.54688699 7.5482678,11.4434204 7.5482678,16.187512 L7.5482678,242.812514 C7.5482678,247.556606 11.4460718,251.453139 16.1928517,251.453139 L566.747323,251.453139 C571.494103,251.453139 575.391907,247.556606 575.391907,242.812514 L575.391907,16.187512 C575.391907,11.4434204 571.494103,7.54688699 566.747323,7.54688699 Z"/>
    <g transform="matrix(-1 0 0 1 539 55)">
      <circle cx="74.875" cy="74.875" r="74.875" fill="#C31926" fill-rule="nonzero"/>
      <circle cx="74.875" cy="74.875" r="62.396" fill="#FFF" fill-rule="nonzero"/>
      <path fill="#000" fill-rule="nonzero" d="M46.1730699,126.039958 L46.1730699,64.8917371 C46.1730699,52.4875857 56.2263095,42.4292995 68.6355923,42.4292995 L121.048285,42.4292995 L129.783731,51.1647354 L121.04829,59.9001789 L63.6439567,126.039958 L46.1730699,126.039958 Z"/>
      <path fill="#FFF" fill-rule="nonzero" d="M63.6439642,129.783721 L63.6439642,64.8918245 C63.6439642,62.1353486 65.8780183,59.9001714 68.6356223,59.9001714 L129.783731,59.9001714 L63.6439642,129.783721 Z"/>
      <path stroke="#C31926" stroke-width="12.5" d="M22.8128745,22.8128416 L126.937607,126.937557"/>
    </g>
    <g transform="translate(44 55)">
      <circle cx="74.875" cy="74.875" r="74.875" fill="#C31926" fill-rule="nonzero"/>
      <circle cx="74.875" cy="74.875" r="62.396" fill="#FFF" fill-rule="nonzero"/>
      <path fill="#000" fill-rule="nonzero" d="M46.1730699,126.039958 L46.1730699,64.8917371 C46.1730699,52.4875857 56.2263095,42.4292995 68.6355923,42.4292995 L121.048285,42.4292995 L129.783731,51.1647354 L121.04829,59.9001789 L63.6439567,126.039958 L46.1730699,126.039958 Z"/>
      <path fill="#FFF" fill-rule="nonzero" d="M63.6439642,129.783721 L63.6439642,64.8918245 C63.6439642,62.1353486 65.8780183,59.9001714 68.6356223,59.9001714 L129.783731,59.9001714 L63.6439642,129.783721 Z"/>
      <path stroke="#C31926" stroke-width="12.5" d="M22.8128745,22.8128416 L126.937607,126.937557"/>
    </g>
    <g transform="translate(217 55)">
      <circle cx="74.925" cy="75.095" r="74.875" fill="#C31926" fill-rule="nonzero"/>
      <circle cx="74.925" cy="75.095" r="62.396" fill="#FFF" fill-rule="nonzero"/>
      <path fill="#000" fill-rule="nonzero" d="M42.4792163,95.0613444 L42.4792163,62.615416 C42.4792163,44.6954676 57.0052063,30.1694775 74.9251473,30.1694775 C92.8451281,30.1694775 107.371083,44.6954676 107.371083,62.615416 L107.371083,122.515597 L74.9251498,122.515597 L74.9251498,95.0613444 L59.9501032,95.0613444 L51.2146597,103.796788 L42.4792163,95.0613444 Z"/>
      <path fill="#FFF" fill-rule="nonzero" d="M59.9501032,125.011423 L59.9501032,62.6154135 C59.9501032,54.3446681 66.6544068,47.6403644 74.9251498,47.6403644 C83.1959101,47.6403644 89.9001963,54.3446681 89.9001963,62.6154135 L89.9001963,125.011423 L59.9501032,125.011423 Z"/>
      <path stroke="#C31926" stroke-width="12.5" d="M22.8627958,23.032217 L126.987527,127.156937"/>
    </g>
  </g>
</svg>
