<?xml version="1.0" encoding="UTF-8" standalone="no"?>
<!-- Generator: Adobe Illustrator 14.0.0, SVG Export Plug-In  -->

<svg
   xmlns:dc="http://purl.org/dc/elements/1.1/"
   xmlns:cc="http://creativecommons.org/ns#"
   xmlns:rdf="http://www.w3.org/1999/02/22-rdf-syntax-ns#"
   xmlns:svg="http://www.w3.org/2000/svg"
   xmlns="http://www.w3.org/2000/svg"
   xmlns:sodipodi="http://sodipodi.sourceforge.net/DTD/sodipodi-0.dtd"
   xmlns:inkscape="http://www.inkscape.org/namespaces/inkscape"
   version="1.1"
   x="0px"
   y="0px"
   width="452.90005"
   height="752.90015"
   viewBox="0 -0.321 452.90009 752.90031"
   enable-background="new 0 -0.321 144 120"
   xml:space="preserve"
   id="svg2"
   inkscape:version="0.92.2 (5c3e80d, 2017-08-06)"
   sodipodi:docname="Philippines_road_sign_R2-7P.svg"><metadata
     id="metadata44"><rdf:RDF><cc:Work
         rdf:about=""><dc:format>image/svg+xml</dc:format><dc:type
           rdf:resource="http://purl.org/dc/dcmitype/StillImage" /><dc:title></dc:title></cc:Work></rdf:RDF></metadata><sodipodi:namedview
     pagecolor="#ffffff"
     bordercolor="#666666"
     borderopacity="1"
     objecttolerance="10"
     gridtolerance="10"
     guidetolerance="10"
     inkscape:pageopacity="0"
     inkscape:pageshadow="2"
     inkscape:window-width="1366"
     inkscape:window-height="705"
     id="namedview42"
     showgrid="false"
     fit-margin-top="1.45"
     fit-margin-left="1.45"
     fit-margin-right="1.45"
     fit-margin-bottom="1.45"
     inkscape:zoom="0.52618688"
     inkscape:cx="543.92077"
     inkscape:cy="350.09857"
     inkscape:window-x="-4"
     inkscape:window-y="-4"
     inkscape:window-maximized="1"
     inkscape:current-layer="g320" /><defs
     id="defs4" /><g
     id="g1059"><g
       id="g1038"><g
         id="g979"><g
           id="g161"><g
             id="g1151"><g
               id="g137"><g
                 id="g102"><g
                   id="g296"><g
                     id="g320"><text
                       id="text29"
                       y="570.38361"
                       x="469.77551"
                       style="font-style:normal;font-variant:normal;font-weight:normal;font-stretch:normal;font-size:74.66666412px;line-height:1.25;font-family:ClearviewHwy-1B;-inkscape-font-specification:'ClearviewHwy-1B, Normal';font-variant-ligatures:normal;font-variant-caps:normal;font-variant-numeric:normal;font-feature-settings:normal;text-align:start;letter-spacing:0px;word-spacing:0px;writing-mode:lr-tb;text-anchor:start;fill:#000000;fill-opacity:1;stroke:none"
                       xml:space="preserve"><tspan
                         y="639.45026"
                         x="469.77551"
                         id="tspan27"
                         sodipodi:role="line" /></text>
<g
                       id="g397"><path
                         sodipodi:nodetypes="sssssssss"
                         id="path4911"
                         style="fill:#ffffff;fill-opacity:1;fill-rule:nonzero;stroke:#000000;stroke-width:1;stroke-opacity:1"
                         d="m 1.95,691.10846 c 0,32.8685 26.62823,59.5207 59.46761,59.5207 h 330.06476 c 32.8526,0 59.4677,-26.6522 59.4677,-59.5207 V 61.14949 c 0,-32.86822 -26.6151,-59.52049 -59.4677,-59.52049 H 61.41761 C 28.57823,1.629 1.95,28.28127 1.95,61.14949 Z"
                         inkscape:connector-curvature="0" /><path
                         inkscape:connector-curvature="0"
                         d="m 441.45007,60.7286 c 0,-27.39001 -22.2095,-49.59978 -49.5996,-49.59978 H 61.049811 c -27.40112,0 -49.59981,22.20977 -49.59981,49.59978 v 630.80106 c 0,27.3898 22.19869,49.5997 49.59981,49.5997 H 391.85047 c 27.3901,0 49.5996,-22.2099 49.5996,-49.5997 z"
                         style="fill:#000000;fill-opacity:1;fill-rule:nonzero;stroke:none"
                         id="path4913"
                         sodipodi:nodetypes="sssssssss" /><path
                         sodipodi:nodetypes="sssssssss"
                         id="path4915"
                         style="fill:#ffffff;fill-opacity:1;fill-rule:nonzero;stroke:none"
                         d="m 26.449871,60.72885 c 0,-19.10672 15.4932,-34.60004 34.60014,-34.60004 H 391.85007 c 19.1147,0 34.6001,15.49332 34.6001,34.60004 v 630.80001 c 0,19.1069 -15.4854,34.6005 -34.6001,34.6005 H 61.050011 c -19.10694,0 -34.60014,-15.4936 -34.60014,-34.6005 z"
                         inkscape:connector-curvature="0" /><path
                         id="path14622-1"
                         d="m 411.45005,226.12905 c 0,-102.17274 -82.82731,-185.000038 -185.00002,-185.000038 -102.17271,0 -185.000048,82.827298 -185.000048,185.000038 0,102.17275 82.827338,185.00004 185.000048,185.00004 102.1727,0 185.00002,-82.82729 185.00002,-185.00004 z"
                         style="fill:#084597;fill-opacity:1;stroke:none"
                         inkscape:connector-curvature="0"
                         sodipodi:nodetypes="sssss" /><path
                         sodipodi:nodetypes="ccccccc"
                         inkscape:connector-curvature="0"
                         id="path4179"
                         d="m 135.90013,335.17914 36.99993,37.00001 37.00017,-37.00001 -6e-5,-34.88397 -37.00005,37 -37.00012,-37 z"
                         style="fill:#ffffff;fill-opacity:1;stroke:none;stroke-width:10.20000076;stroke-miterlimit:4;stroke-dasharray:none;stroke-opacity:1" /><path
                         style="fill:none;stroke:#ffffff;stroke-width:24.66000366;stroke-linecap:butt;stroke-linejoin:miter;stroke-miterlimit:4;stroke-dasharray:none;stroke-opacity:1"
                         d="M 172.89994,76.179126 V 348.17913"
                         id="path4235"
                         inkscape:connector-curvature="0"
                         sodipodi:nodetypes="cc" /><path
                         style="fill:#ffffff;fill-opacity:1;stroke:none;stroke-width:10.20000076;stroke-miterlimit:4;stroke-dasharray:none;stroke-opacity:1"
                         d="m 320.89996,113.17915 -36.99993,-37.000024 -37.00017,37.000024 6e-5,34.88396 37.00005,-36.99999 37.00012,36.99999 z"
                         id="path4206"
                         inkscape:connector-curvature="0"
                         sodipodi:nodetypes="ccccccc" /><path
                         sodipodi:nodetypes="cc"
                         inkscape:connector-curvature="0"
                         id="path4208"
                         d="M 283.90015,372.17915 V 100.17916"
                         style="fill:none;stroke:#ffffff;stroke-width:24.66000366;stroke-linecap:butt;stroke-linejoin:miter;stroke-miterlimit:4;stroke-dasharray:none;stroke-opacity:1" /><g
                         transform="translate(-460.28786,-20.367294)"
                         id="g367"><path
                           inkscape:connector-curvature="0"
                           id="path340"
                           style="font-style:normal;font-variant:normal;font-weight:normal;font-stretch:normal;font-size:medium;line-height:1.25;font-family:ClearviewHwy-3B;-inkscape-font-specification:ClearviewHwy-3B;font-variant-ligatures:normal;font-variant-caps:normal;font-variant-numeric:normal;font-feature-settings:normal;text-align:start;letter-spacing:0px;word-spacing:0px;writing-mode:lr-tb;text-anchor:start;fill:#000000;fill-opacity:1;stroke:none"
                           d="m 603.92386,518.95711 v 62.72 h -13.81333 v -62.72 h -17.32267 v -11.94667 h 48.45866 v 11.94667 z" /><path
                           inkscape:connector-curvature="0"
                           id="path342"
                           style="font-style:normal;font-variant:normal;font-weight:normal;font-stretch:normal;font-size:medium;line-height:1.25;font-family:ClearviewHwy-3B;-inkscape-font-specification:ClearviewHwy-3B;font-variant-ligatures:normal;font-variant-caps:normal;font-variant-numeric:normal;font-feature-settings:normal;text-align:start;letter-spacing:0px;word-spacing:0px;writing-mode:lr-tb;text-anchor:start;fill:#000000;fill-opacity:1;stroke:none"
                           d="m 709.27713,581.67711 h -15.75466 l -12.544,-50.25067 h -0.52267 l -12.39467,50.25067 h -15.97866 l -15.82934,-74.66667 h 14.70934 l 9.55733,56.896 h 0.29867 l 13.888,-56.896 h 12.61866 l 13.664,56.97067 h 0.448 l 9.632,-56.97067 h 14.41067 z" /><path
                           inkscape:connector-curvature="0"
                           id="path344"
                           style="font-style:normal;font-variant:normal;font-weight:normal;font-stretch:normal;font-size:medium;line-height:1.25;font-family:ClearviewHwy-3B;-inkscape-font-specification:ClearviewHwy-3B;font-variant-ligatures:normal;font-variant-caps:normal;font-variant-numeric:normal;font-feature-settings:normal;text-align:start;letter-spacing:0px;word-spacing:0px;writing-mode:lr-tb;text-anchor:start;fill:#000000;fill-opacity:1;stroke:none"
                           d="m 785.13985,544.26911 q 0,-5.89867 -0.82134,-10.82667 -0.74666,-5.00266 -2.76266,-8.58666 -1.94134,-3.584 -5.376,-5.6 -3.36,-2.016 -8.512,-2.016 -5.152,0 -8.512,2.016 -3.28533,2.016 -5.22667,5.67466 -1.94133,3.584 -2.76266,8.58667 -0.74667,4.928 -0.74667,10.752 0,5.97333 0.74667,10.976 0.82133,4.928 2.76266,8.58667 2.016,3.584 5.376,5.6 3.43467,2.016 8.66133,2.016 5.07734,0 8.36267,-2.016 3.36,-2.09067 5.30133,-5.67467 1.94134,-3.65867 2.688,-8.66133 0.82134,-5.00267 0.82134,-10.82667 z m 14.48538,0 q 0,8.81067 -2.016,15.97867 -2.016,7.09333 -6.048,12.17066 -3.9574,5.00267 -9.93072,7.76534 -5.89866,2.76266 -13.73866,2.76266 -7.91467,0 -13.888,-2.76266 -5.97333,-2.76267 -10.00533,-7.76534 -4.032,-5.07733 -6.048,-12.17066 -2.016,-7.168 -2.016,-15.97867 0,-8.58667 1.94133,-15.68 2.016,-7.09333 5.97333,-12.17067 4.032,-5.07733 10.00534,-7.84 6.04799,-2.76266 14.03733,-2.76266 7.91466,0 13.81333,2.76266 5.97335,2.76267 9.93065,7.84 3.9574,5.07734 5.9734,12.17067 2.016,7.09333 2.016,15.68 z" /></g><g
                         transform="translate(-403.39765,13.409936)"
                         id="g1128"><path
                           inkscape:connector-curvature="0"
                           id="path1112"
                           style="font-style:normal;font-variant:normal;font-weight:normal;font-stretch:normal;font-size:medium;line-height:1.25;font-family:ClearviewHwy-3B;-inkscape-font-specification:ClearviewHwy-3B;font-variant-ligatures:normal;font-variant-caps:normal;font-variant-numeric:normal;font-feature-settings:normal;text-align:start;letter-spacing:0px;word-spacing:0px;writing-mode:lr-tb;text-anchor:start;fill:#000000;fill-opacity:1;stroke:none"
                           d="m 586.42165,669.16921 h -15.75467 l -12.544,-50.25067 h -0.52267 l -12.39466,50.25067 h -15.97867 l -15.82933,-74.66667 h 14.70933 l 9.55734,56.896 h 0.29866 l 13.888,-56.896 h 12.61867 l 13.664,56.97067 h 0.448 l 9.632,-56.97067 h 14.41066 z" /><path
                           inkscape:connector-curvature="0"
                           id="path1114"
                           style="font-style:normal;font-variant:normal;font-weight:normal;font-stretch:normal;font-size:medium;line-height:1.25;font-family:ClearviewHwy-3B;-inkscape-font-specification:ClearviewHwy-3B;font-variant-ligatures:normal;font-variant-caps:normal;font-variant-numeric:normal;font-feature-settings:normal;text-align:start;letter-spacing:0px;word-spacing:0px;writing-mode:lr-tb;text-anchor:start;fill:#000000;fill-opacity:1;stroke:none"
                           d="m 644.99531,607.27054 h -0.59733 l -9.03467,33.22667 h 18.96533 z m 17.09867,61.89867 -5.07734,-17.024 h -24.192 l -5.152,17.024 h -14.56 l 23.52,-74.89067 h 16.42667 l 23.968,74.89067 z" /><path
                           inkscape:connector-curvature="0"
                           id="path1116"
                           style="font-style:normal;font-variant:normal;font-weight:normal;font-stretch:normal;font-size:medium;line-height:1.25;font-family:ClearviewHwy-3B;-inkscape-font-specification:ClearviewHwy-3B;font-variant-ligatures:normal;font-variant-caps:normal;font-variant-numeric:normal;font-feature-settings:normal;text-align:start;letter-spacing:0px;word-spacing:0px;writing-mode:lr-tb;text-anchor:start;fill:#000000;fill-opacity:1;stroke:none"
                           d="m 721.19732,640.19854 v 28.97067 h -13.81334 v -28.448 l -22.848,-46.21867 h 15.30667 l 14.56,33.74933 14.56,-33.74933 h 14.70933 z" /></g></g></g></g></g></g></g></g></g></g></g></svg>