<?xml version="1.0" encoding="UTF-8" standalone="no"?>
<!-- Created with Inkscape (http://www.inkscape.org/) -->

<svg
   xmlns:dc="http://purl.org/dc/elements/1.1/"
   xmlns:cc="http://creativecommons.org/ns#"
   xmlns:rdf="http://www.w3.org/1999/02/22-rdf-syntax-ns#"
   xmlns:svg="http://www.w3.org/2000/svg"
   xmlns="http://www.w3.org/2000/svg"
   xmlns:sodipodi="http://sodipodi.sourceforge.net/DTD/sodipodi-0.dtd"
   xmlns:inkscape="http://www.inkscape.org/namespaces/inkscape"
   width="606mm"
   height="456mm"
   viewBox="0 0 606 455.99998"
   version="1.1"
   id="svg823"
   inkscape:version="0.92.2 (5c3e80d, 2017-08-06)"
   sodipodi:docname="Singapore Template 2.svg">
  <defs
     id="defs817" />
  <sodipodi:namedview
     id="base"
     pagecolor="#ffffff"
     bordercolor="#666666"
     borderopacity="1.0"
     inkscape:pageopacity="0.0"
     inkscape:pageshadow="2"
     inkscape:zoom="0.16759756"
     inkscape:cx="1516.6441"
     inkscape:cy="739.01072"
     inkscape:document-units="mm"
     inkscape:current-layer="layer1"
     showgrid="false"
     inkscape:window-width="1920"
     inkscape:window-height="1057"
     inkscape:window-x="-8"
     inkscape:window-y="-8"
     inkscape:window-maximized="1"
     inkscape:snap-global="false"
     inkscape:measure-start="0,0"
     inkscape:measure-end="0,0" />
  <metadata
     id="metadata820">
    <rdf:RDF>
      <cc:Work
         rdf:about="">
        <dc:format>image/svg+xml</dc:format>
        <dc:type
           rdf:resource="http://purl.org/dc/dcmitype/StillImage" />
        <dc:title></dc:title>
      </cc:Work>
    </rdf:RDF>
  </metadata>
  <g
     inkscape:label="Layer 1"
     inkscape:groupmode="layer"
     id="layer1"
     transform="translate(0,159)">
    <rect
       style="opacity:1;fill:#000000;fill-opacity:1;fill-rule:nonzero;stroke:none;stroke-width:0.05759232;stroke-linecap:square;stroke-linejoin:round;stroke-miterlimit:10;stroke-dasharray:none;stroke-opacity:1;paint-order:stroke fill markers"
       id="rect1368"
       width="604"
       height="454"
       x="1"
       y="-158"
       rx="52"
       ry="52" />
    <rect
       ry="50"
       rx="50"
       y="-156"
       x="3"
       height="450"
       width="600"
       id="rect1370"
       style="opacity:1;fill:#ffffff;fill-opacity:1;fill-rule:nonzero;stroke:none;stroke-width:0.05714786;stroke-linecap:square;stroke-linejoin:round;stroke-miterlimit:10;stroke-dasharray:none;stroke-opacity:1;paint-order:stroke fill markers" />
    <rect
       style="opacity:1;fill:#0046aa;fill-opacity:1;fill-rule:nonzero;stroke:none;stroke-width:0;stroke-linecap:square;stroke-linejoin:miter;stroke-miterlimit:10;stroke-dasharray:none;stroke-opacity:1;paint-order:fill markers stroke"
       id="rect826"
       width="570"
       height="420"
       x="18"
       y="-141"
       rx="35"
       ry="35" />
    <path
       style="opacity:1;fill:#ffffff;fill-opacity:1;fill-rule:nonzero;stroke:none;stroke-width:12.13786507;stroke-linecap:round;stroke-linejoin:miter;stroke-miterlimit:4;stroke-dasharray:none;stroke-opacity:1"
       d="m 270.49993,-79.99985 h -9.99998 V -20 h -9.99997 V -79.99985 H 240.5 v -9.99997 h 29.99993 z"
       id="rect819"
       inkscape:connector-curvature="0"
       sodipodi:nodetypes="ccccccccc" />
    <path
       style="opacity:1;fill:#ffffff;fill-opacity:1;fill-rule:nonzero;stroke:none;stroke-width:6.66905975;stroke-linejoin:bevel;stroke-miterlimit:10;stroke-dasharray:none;stroke-opacity:1"
       d="m 122.5,-89.99972 v 55.00016 c 0,8.31 6.68958,14.99956 14.99956,14.99956 h 10.00042 c 8.30995,0 14.99956,-6.68956 14.99956,-14.99956 v -55.00016 h -9.99938 v 55.00016 c 0,2.77001 -2.23021,4.99919 -5.00018,4.99919 h -10.00042 c -2.76999,0 -4.99917,-2.22918 -4.99917,-4.99919 v -55.00016 z"
       id="path1829"
       inkscape:connector-curvature="0"
       sodipodi:nodetypes="cssssccsssscc" />
    <path
       style="opacity:1;fill:#ffffff;fill-opacity:1;fill-rule:nonzero;stroke:none;stroke-width:30.32117081;stroke-linecap:square;stroke-linejoin:round;stroke-miterlimit:4;stroke-dasharray:none;stroke-opacity:1;paint-order:stroke fill markers"
       d="m 143.99998,153.00003 h 29.99999 v 10 h -19.99999 v 17.99999 h 19.99999 V 191 h -19.99999 v 22 h 19.99999 v 10 h -29.99999 z"
       id="rect852"
       inkscape:connector-curvature="0"
       sodipodi:nodetypes="ccccccccccccc" />
    <path
       style="opacity:1;fill:#ffffff;fill-opacity:1;fill-rule:nonzero;stroke:none;stroke-width:0.11035942;stroke-linecap:square;stroke-linejoin:round;stroke-miterlimit:10;stroke-dasharray:none;stroke-opacity:1;paint-order:stroke fill markers"
       d="m 99,223 h 10 V 193.00001 L 123.99999,223 h 10 l -15,-34.99998 15,-34.99999 h -10 L 109,183.00002 V 153.00003 H 99 Z"
       id="rect8225"
       inkscape:connector-curvature="0"
       sodipodi:nodetypes="cccccccccccc" />
    <path
       style="opacity:1;fill:#ffffff;fill-opacity:1;fill-rule:nonzero;stroke:none;stroke-width:0.14370809;stroke-linecap:square;stroke-linejoin:round;stroke-miterlimit:10;stroke-dasharray:none;stroke-opacity:1;paint-order:stroke fill markers"
       d="M 426.99985,153.00017 V 223 h 10 v -32.0001 h 20 V 223 h 10.0001 v -69.99983 h -10.0001 v 27.99984 h -20 v -27.99984 z"
       id="rect8207"
       inkscape:connector-curvature="0"
       sodipodi:nodetypes="ccccccccccccc" />
    <path
       style="opacity:1;fill:#ffffff;fill-opacity:1;fill-rule:nonzero;stroke:none;stroke-width:0.1474946;stroke-linecap:square;stroke-linejoin:round;stroke-miterlimit:10;stroke-dasharray:none;stroke-opacity:1;paint-order:stroke fill markers"
       d="m 356.9999,153.00001 h 9.99995 V 223 h -9.99995 z"
       id="rect8214"
       inkscape:connector-curvature="0" />
    <path
       sodipodi:nodetypes="ccccccccc"
       inkscape:connector-curvature="0"
       id="path1477"
       d="m 506.99985,163.00003 h -10 V 223 h -10 v -59.99997 h -10 v -10 h 30 z"
       style="opacity:1;fill:#ffffff;fill-opacity:1;fill-rule:nonzero;stroke:none;stroke-width:12.13789177;stroke-linecap:round;stroke-linejoin:miter;stroke-miterlimit:4;stroke-dasharray:none;stroke-opacity:1" />
    <path
       style="opacity:1;fill:#ffffff;fill-opacity:1;fill-rule:nonzero;stroke:none;stroke-width:0.04870619;stroke-linecap:square;stroke-linejoin:round;stroke-miterlimit:1.41400003;stroke-dasharray:none;stroke-opacity:1;paint-order:stroke fill markers"
       d="m 393.49958,-20 v -50.00005 h 10.0004 V -20 Z m 0,-59.99951 v -10.00017 h 10.0004 v 10.00017 z"
       id="rect13728"
       inkscape:connector-curvature="0"
       sodipodi:nodetypes="cccccccccc" />
    <path
       style="opacity:1;fill:#ffffff;fill-opacity:1;fill-rule:nonzero;stroke:none;stroke-width:0.04870619;stroke-linecap:square;stroke-linejoin:round;stroke-miterlimit:1.41400003;stroke-dasharray:none;stroke-opacity:1;paint-order:stroke fill markers"
       d="M 291.99967,101 V 50.99995 h 10.0004 V 101 Z m 0,-59.99951 V 31.00032 h 10.0004 v 10.00017 z"
       id="rect13728-9"
       inkscape:connector-curvature="0"
       sodipodi:nodetypes="cccccccccc" />
    <path
       style="opacity:1;fill:#ffffff;fill-opacity:1;fill-rule:nonzero;stroke:none;stroke-width:0.02172508;stroke-linecap:square;stroke-linejoin:round;stroke-miterlimit:10;stroke-dasharray:none;stroke-opacity:1;paint-order:stroke fill markers"
       d="m 351.99957,31.00018 h 10.0004 V 101 h -10.0004 z"
       id="rect29426"
       inkscape:connector-curvature="0"
       sodipodi:nodetypes="ccccc" />
    <path
       style="opacity:1;fill:#ffffff;fill-opacity:1;fill-rule:nonzero;stroke:none;stroke-width:2.04278803;stroke-linecap:square;stroke-linejoin:round;stroke-miterlimit:10;stroke-dasharray:none;stroke-opacity:1;paint-order:markers stroke fill"
       d="m 186.5,-60 h 30 v 10 h -30 z"
       id="rect10797"
       inkscape:connector-curvature="0" />
    <path
       id="path2601"
       d="m 308.50003,-70 h -10 v 50 h 10 z"
       style="opacity:1;fill:#ffffff;fill-opacity:1;fill-rule:nonzero;stroke:none;stroke-width:0.19477072;stroke-linecap:square;stroke-linejoin:round;stroke-miterlimit:1.41400003;stroke-dasharray:none;stroke-opacity:1;paint-order:markers stroke fill"
       inkscape:connector-curvature="0" />
    <path
       sodipodi:nodetypes="csssccssscc"
       inkscape:connector-curvature="0"
       id="path2603"
       d="m 278.5,-70 v 38.99989 c 0,6.09395 4.90611,11.00011 11.00012,11.00011 6.094,0 10.99986,-4.90616 10.99986,-11.00011 V -70 h -1.99985 v 35.00014 c 0,2.77 -2.23001,4.99995 -5.00001,4.99995 -2.77,0 -5.0002,-2.22995 -5.0002,-4.99995 V -70 Z"
       style="opacity:1;fill:#ffffff;fill-opacity:1;fill-rule:nonzero;stroke:none;stroke-width:0.29918179;stroke-linecap:square;stroke-linejoin:round;stroke-miterlimit:1.41400003;stroke-dasharray:none;stroke-opacity:1;paint-order:markers stroke fill" />
    <path
       inkscape:connector-curvature="0"
       style="opacity:1;fill:#ffffff;fill-opacity:1;fill-rule:nonzero;stroke:none;stroke-width:0.19477072;stroke-linecap:square;stroke-linejoin:round;stroke-miterlimit:1.41400003;stroke-dasharray:none;stroke-opacity:1;paint-order:markers stroke fill"
       d="m 353.49998,-20 h 10 v -50 h -10 z"
       id="path10846" />
    <path
       style="opacity:1;fill:#ffffff;fill-opacity:1;fill-rule:nonzero;stroke:none;stroke-width:0.29918179;stroke-linecap:square;stroke-linejoin:round;stroke-miterlimit:1.41400003;stroke-dasharray:none;stroke-opacity:1;paint-order:markers stroke fill"
       d="m 383.49998,-20 v -38.99989 c 0,-6.09395 -4.9061,-11.00011 -11.0001,-11.00011 -6.094,0 -10.9998,4.90616 -10.9998,11.00011 V -20 h 1.9998 v -35.00014 c 0,-2.77 2.23,-4.99995 5,-4.99995 2.77,0 5.0002,2.22995 5.0002,4.99995 V -20 Z"
       id="path10848"
       inkscape:connector-curvature="0"
       sodipodi:nodetypes="csssccssscc" />
    <path
       id="path10860"
       d="m 413.49998,-20 h 10 v -50 h -10 z"
       style="opacity:1;fill:#ffffff;fill-opacity:1;fill-rule:nonzero;stroke:none;stroke-width:0.19477072;stroke-linecap:square;stroke-linejoin:round;stroke-miterlimit:1.41400003;stroke-dasharray:none;stroke-opacity:1;paint-order:markers stroke fill"
       inkscape:connector-curvature="0" />
    <path
       sodipodi:nodetypes="csssccssscc"
       inkscape:connector-curvature="0"
       id="path10862"
       d="m 443.49998,-20 v -38.99989 c 0,-6.09395 -4.9061,-11.00011 -11.0001,-11.00011 -6.094,0 -10.9998,4.90616 -10.9998,11.00011 V -20 h 1.9998 v -35.00014 c 0,-2.77 2.23,-4.99995 5,-4.99995 2.77,0 5.0002,2.22995 5.0002,4.99995 V -20 Z"
       style="opacity:1;fill:#ffffff;fill-opacity:1;fill-rule:nonzero;stroke:none;stroke-width:0.29918179;stroke-linecap:square;stroke-linejoin:round;stroke-miterlimit:1.41400003;stroke-dasharray:none;stroke-opacity:1;paint-order:markers stroke fill" />
    <path
       inkscape:connector-curvature="0"
       id="path2396"
       d="m 318.5,-20 v -50 h 9.9999 v 5.99985 c 0,-3.324 2.6759,-5.99985 5.9999,-5.99985 h 9.00026 v 9.99985 h -9.00026 c -3.324,0 -5.9999,2.6762 -5.9999,6.00024 V -20 Z"
       style="opacity:1;fill:#ffffff;fill-opacity:1;fill-rule:nonzero;stroke:none;stroke-width:8.24422073;stroke-linecap:square;stroke-linejoin:miter;stroke-miterlimit:8;stroke-dasharray:none;stroke-opacity:1;paint-order:markers stroke fill" />
    <rect
       style="opacity:1;fill:#ffffff;fill-opacity:1;fill-rule:nonzero;stroke:none;stroke-width:0.11693481;stroke-linecap:square;stroke-linejoin:round;stroke-miterlimit:1.41400003;stroke-dasharray:none;stroke-opacity:1;paint-order:stroke fill markers"
       id="rect851-3"
       width="21.999943"
       height="49.999863"
       x="453.5"
       y="-69.999969"
       rx="10.999971"
       ry="10.999998" />
    <rect
       rx="4.9999866"
       y="-60"
       x="463.5"
       height="29.999918"
       width="9.9999733"
       id="rect853-8"
       style="opacity:1;fill:#0046aa;fill-opacity:1;fill-rule:nonzero;stroke:none;stroke-width:0.06106723;stroke-linecap:square;stroke-linejoin:round;stroke-miterlimit:1.41400003;stroke-dasharray:none;stroke-opacity:1;paint-order:stroke fill markers"
       ry="4.999999" />
    <path
       style="opacity:1;fill:#ffffff;fill-opacity:1;fill-rule:nonzero;stroke:none;stroke-width:0.78129834;stroke-linecap:square;stroke-linejoin:round;stroke-miterlimit:10;stroke-dasharray:none;stroke-opacity:1;paint-order:markers stroke fill"
       d="m 453.49998,-14.99994 c 0,8.30999 6.69,14.99994 15,14.99994 8.31,0 15,-6.68995 15,-14.99994 V -70 h -10 v 55.00006 c 0,2.77 -2.23,4.99987 -5,4.99987 -2.77,0 -4.9999,-2.22987 -4.9999,-4.99987 z"
       id="rect2316"
       inkscape:connector-curvature="0"
       sodipodi:nodetypes="sssccssss" />
    <path
       style="opacity:1;fill:#ffffff;fill-opacity:1;fill-rule:nonzero;stroke:none;stroke-width:1.9791795;stroke-linecap:square;stroke-linejoin:round;stroke-miterlimit:10;stroke-dasharray:none;stroke-opacity:1;paint-order:markers stroke fill"
       d="m 179,101 h 10 L 174,31 h -10 z"
       id="rect10900"
       inkscape:connector-curvature="0"
       sodipodi:nodetypes="ccccc" />
    <path
       sodipodi:nodetypes="ccccc"
       inkscape:connector-curvature="0"
       id="path10923"
       d="m 189,101 h -10 l 15,-70 h 10 z"
       style="opacity:1;fill:#ffffff;fill-opacity:1;fill-rule:nonzero;stroke:none;stroke-width:1.9791795;stroke-linecap:square;stroke-linejoin:round;stroke-miterlimit:10;stroke-dasharray:none;stroke-opacity:1;paint-order:markers stroke fill" />
    <path
       sodipodi:nodetypes="ssssccssccssssccss"
       inkscape:connector-curvature="0"
       id="path7545"
       d="M 226.99992,51 C 218.68993,51 212,57.69013 212,66.00012 V 86.00005 C 212,94.31004 218.68993,101 226.99992,101 c 8.31,0 15.00012,-6.68996 15.00012,-14.99995 h -10.00009 c 0,2.77 -2.23003,5.00006 -5.00003,5.00006 -2.76999,0 -4.99986,-2.23006 -4.99986,-5.00006 v -5.00003 h 19.99998 V 66.00012 C 242.00004,57.69013 235.30992,51 226.99992,51 Z m 0,10.00009 c 2.77,0 5.00003,2.23003 5.00003,5.00003 v 4.99986 h -9.99989 v -4.99986 c 0,-2.77 2.22987,-5.00003 4.99986,-5.00003 z"
       style="opacity:1;fill:#ffffff;fill-opacity:1;fill-rule:nonzero;stroke:none;stroke-width:0.66756433;stroke-linecap:square;stroke-linejoin:miter;stroke-miterlimit:1.41400003;stroke-dasharray:none;stroke-opacity:1;paint-order:markers stroke fill" />
    <path
       style="opacity:1;fill:#ffffff;fill-opacity:1;fill-rule:nonzero;stroke:none;stroke-width:0.23417062;stroke-linecap:square;stroke-linejoin:round;stroke-miterlimit:1.41400003;stroke-dasharray:none;stroke-opacity:1;paint-order:markers stroke fill"
       d="m 252,31 h 10 v 70 h -10 z"
       id="rect2874-7"
       inkscape:connector-curvature="0" />
    <path
       style="opacity:1;fill:#ffffff;fill-opacity:1;fill-rule:nonzero;stroke:none;stroke-width:0.23805642;stroke-linecap:square;stroke-linejoin:round;stroke-miterlimit:1.41400003;stroke-dasharray:none;stroke-opacity:1;paint-order:markers stroke fill"
       d="M 281.99993,101 V 62.00011 C 281.99993,55.9061 277.09386,51 270.99987,51 264.90587,51 260,55.9061 260,62.00011 V 101 h 1.99987 V 65.99986 c 0,-2.77 2.23,-4.99996 5,-4.99996 2.77,0 5.0002,2.22996 5.0002,4.99996 V 101 Z"
       id="rect2886"
       inkscape:connector-curvature="0"
       sodipodi:nodetypes="csssccssscc" />
    <path
       sodipodi:nodetypes="sssssssssssss"
       inkscape:connector-curvature="0"
       id="path2394"
       d="M 327.00017,51 C 318.69013,51 312,57.68989 312,65.99993 V 86.00008 C 312,94.31011 318.69013,101 327.00017,101 c 8.31004,0 14.9999,-6.68989 14.9999,-14.99992 h -9.99993 c 0,2.77002 -2.22996,4.99997 -4.99997,4.99997 -2.77001,0 -5.00022,-2.22995 -5.00022,-4.99997 V 65.99993 c 0,-2.77002 2.23021,-4.99998 5.00022,-4.99998 2.77001,0 4.99997,2.22996 4.99997,4.99998 h 9.99993 C 342.00007,57.68989 335.31021,51 327.00017,51 Z"
       style="opacity:1;fill:#ffffff;fill-opacity:1;fill-rule:nonzero;stroke:none;stroke-width:1.57084489;stroke-linecap:square;stroke-linejoin:round;stroke-miterlimit:10;stroke-dasharray:none;stroke-opacity:1;paint-order:markers stroke fill" />
    <path
       style="opacity:1;fill:#ffffff;fill-opacity:1;fill-rule:nonzero;stroke:none;stroke-width:0.66756433;stroke-linecap:square;stroke-linejoin:miter;stroke-miterlimit:1.41400003;stroke-dasharray:none;stroke-opacity:1;paint-order:markers stroke fill"
       d="m 386.99997,51 c -8.31,0 -15,6.69013 -15,15.00012 v 19.99993 c 0,8.30999 6.69,14.99995 15,14.99995 8.3099,0 15.0001,-6.68996 15.0001,-14.99995 h -10.0001 c 0,2.77 -2.23,5.00006 -5,5.00006 -2.77,0 -4.9999,-2.23006 -4.9999,-5.00006 v -5.00003 h 20 V 66.00012 C 402.00007,57.69013 395.30987,51 386.99997,51 Z m 0,10.00009 c 2.77,0 5,2.23003 5,5.00003 v 4.99986 h -9.9999 v -4.99986 c 0,-2.77 2.2299,-5.00003 4.9999,-5.00003 z"
       id="path10982"
       inkscape:connector-curvature="0"
       sodipodi:nodetypes="ssssccssccssssccss" />
    <path
       style="opacity:1;fill:#ffffff;fill-opacity:1;fill-rule:nonzero;stroke:none;stroke-width:0.117383;stroke-linecap:square;stroke-linejoin:round;stroke-miterlimit:1.41400003;stroke-dasharray:none;stroke-opacity:1;paint-order:markers stroke fill"
       d="m 429.55247,71.64039 8.6863,6.93436 c 2.377,1.89755 3.7613,4.77376 3.7613,7.81527 v 4.61006 c 0,5.54006 -4.46,9.99992 -10,9.99992 h -10.0001 c -5.5401,0 -10,-4.45991 -10,-9.99992 v -4.99996 h 10 v 2.9998 c 0,1.10806 0.8921,2.00016 2.0001,2.00016 h 5.9999 c 1.108,0 2.0001,-0.8921 2.0001,-2.00016 l -2e-4,-1.6474 c 0,-0.6083 -0.2768,-1.18345 -0.7522,-1.56295 l -7.9341,-6.33382 z"
       id="path2529"
       inkscape:connector-curvature="0"
       sodipodi:nodetypes="csscssscccssccccc" />
    <path
       sodipodi:nodetypes="csscssscccssccccc"
       inkscape:connector-curvature="0"
       id="path2531"
       d="m 424.44777,80.36095 -8.6865,-6.93406 c -2.377,-1.8975 -3.7613,-4.77376 -3.7613,-7.81527 v -4.6117 c 0,-5.54006 4.4599,-9.99992 10,-9.99992 h 10.0001 c 5.54,0 10,4.45986 10,9.99992 v 4.99995 h -10 v -2.99979 c 0,-1.10806 -0.8921,-2.00016 -2.0001,-2.00016 h -5.9999 c -1.108,0 -2.0001,0.8921 -2.0001,2.00016 l 2e-4,1.64905 c 10e-5,0.60825 0.2769,1.18344 0.7522,1.56294 l 7.9342,6.33382 z"
       style="opacity:1;fill:#ffffff;fill-opacity:1;fill-rule:nonzero;stroke:none;stroke-width:0.117383;stroke-linecap:square;stroke-linejoin:round;stroke-miterlimit:1.41400003;stroke-dasharray:none;stroke-opacity:1;paint-order:markers stroke fill" />
    <path
       sodipodi:nodetypes="ccccccccccccc"
       inkscape:connector-curvature="0"
       id="path11011"
       d="m 184,153.00003 h 29.99999 v 10 H 194 v 17.99999 h 19.99999 V 191 H 194 v 22 h 19.99999 v 10 H 184 Z"
       style="opacity:1;fill:#ffffff;fill-opacity:1;fill-rule:nonzero;stroke:none;stroke-width:30.32117081;stroke-linecap:square;stroke-linejoin:round;stroke-miterlimit:4;stroke-dasharray:none;stroke-opacity:1;paint-order:stroke fill markers" />
    <path
       sodipodi:nodetypes="ssssccccsccssssc"
       inkscape:connector-curvature="0"
       id="path2306"
       d="m 243.9998,198.0001 c 8.31,0 15.00015,-6.6901 15.00015,-15.00008 v -15.00016 c 0,-8.31 -6.69015,-14.99985 -15.00015,-14.99985 H 224 V 223 h 9.99995 v -24.9999 z m -9.9999,-10.00014 v -25.00005 h 10.0002 c 2.77,0 4.99995,2.23 4.99995,4.99995 v 15.00016 c 0,2.77 -2.22995,4.99994 -4.99995,4.99994 z"
       style="opacity:1;fill:#ffffff;fill-opacity:1;fill-rule:nonzero;stroke:none;stroke-width:1.47444534;stroke-linecap:square;stroke-linejoin:round;stroke-miterlimit:10;stroke-dasharray:none;stroke-opacity:1;paint-order:markers stroke fill" />
    <path
       sodipodi:nodetypes="ssssccccssccssss"
       inkscape:connector-curvature="0"
       id="path60"
       d="m 331.99991,192.99993 c 8.31001,0 15.00011,-6.68985 15.00011,-14.99985 v -10.00022 c 0,-8.31 -6.6901,-14.99985 -15.00011,-14.99985 H 312 V 223 h 10 v -30.00007 z m 0,-9.9999 H 322 v -20.00011 h 9.99991 c 2.77,0 5.00021,2.22995 5.00021,4.99994 v 10.00022 c 0,2.77 -2.23021,4.99995 -5.00021,4.99995 z"
       style="opacity:1;fill:#ffffff;fill-opacity:1;fill-rule:nonzero;stroke:none;stroke-width:9.24406815;stroke-linecap:square;stroke-linejoin:miter;stroke-miterlimit:8;stroke-dasharray:none;stroke-opacity:1;paint-order:markers stroke fill" />
    <path
       sodipodi:nodetypes="ccccc"
       style="opacity:1;fill:#ffffff;fill-opacity:1;fill-rule:nonzero;stroke:none;stroke-width:8.13679886;stroke-linecap:square;stroke-linejoin:miter;stroke-miterlimit:8;stroke-dasharray:none;stroke-opacity:1;paint-order:markers stroke fill"
       d="m 331.00001,187.00003 h 10.00001 l 6,35.99997 h -10 z"
       id="path62"
       inkscape:connector-curvature="0" />
    <path
       style="opacity:1;fill:#ffffff;fill-opacity:1;fill-rule:nonzero;stroke:none;stroke-width:0.34895027;stroke-linecap:square;stroke-linejoin:round;stroke-miterlimit:1.41400003;stroke-dasharray:none;stroke-opacity:1;paint-order:markers stroke fill"
       d="m 392.00015,153.00001 c -8.31,0 -15.0002,6.68986 -15.0002,14.99988 v 40.00023 c 0,8.31002 6.6902,14.99988 15.0002,14.99988 h 9.9999 c 2.77,0 5,-2.22995 5,-4.99996 V 223 h 9.9999 v -42.00008 h -19.9999 v 9.99991 h 10 v 17.00029 c 0,2.77 -2.23,4.99996 -5,4.99996 h -9.9999 c -2.77,0 -5.0002,-2.22996 -5.0002,-4.99996 v -40.00023 c 0,-2.77 2.2302,-4.99996 5.0002,-4.99996 h 9.9999 c 2.77,0 5,2.22996 5,4.99996 v 4.99996 h 9.9999 v -4.99996 c 0,-8.31002 -6.6899,-14.99988 -14.9999,-14.99988 z"
       id="rect876"
       inkscape:connector-curvature="0" />
  </g>
</svg>
