<svg xmlns="http://www.w3.org/2000/svg" width="206" height="273" viewBox="0 0 206 273">
  <g fill="none" fill-rule="evenodd" transform="translate(1)">
    <path fill="#FFF" fill-rule="nonzero" stroke="#000" d="M204.22262,255.16413 C204.22262,264.50163 196.58262,272.14163 187.24512,272.14163 L17.47012,272.14163 C8.132625,272.14163 0.492625,264.50163 0.492625,255.16413 L0.492625,17.47913 C0.492625,8.14038 8.132625,0.50038 17.47012,0.50038 L187.24512,0.50038 C196.58262,0.50038 204.22262,8.14038 204.22262,17.47913 L204.22262,255.16413 Z"/>
    <path fill="#000" fill-rule="nonzero" d="M187.24512,4.74539 L17.47012,4.74539 C10.466375,4.74539 4.736375,10.47539 4.736375,17.47914 L4.736375,255.16414 C4.736375,262.16789 10.466375,267.89789 17.47012,267.89789 L187.24512,267.89789 C194.24887,267.89789 199.97887,262.16789 199.97887,255.16414 L199.97887,17.47914 C199.97887,10.47539 194.24887,4.74539 187.24512,4.74539 L187.24512,4.74539 Z M192.90512,255.16414 C192.90512,258.27664 190.35762,260.82289 187.24512,260.82289 L17.47012,260.82289 C14.357625,260.82289 11.810125,258.27664 11.810125,255.16414 L11.810125,17.47914 C11.810125,14.36664 14.357625,11.81914 17.47012,11.81914 L187.24512,11.81914 C190.35762,11.81914 192.90512,14.36664 192.90512,17.47914 L192.90512,255.16414 Z"/>
    <circle cx="102.5" cy="95.5" r="56.5" fill="#0046AA"/>
    <path fill="#FFF" fill-rule="nonzero" d="M101.494794,63 C88.5129961,63 77.9895873,73.4746601 77.9895873,86.3963326 L77.9895873,101.311545 L71.0494054,99.2385865 C70.8286522,99.1701704 70.5938509,99.1332157 70.3505206,99.1332157 C69.0525917,99.1332157 68,100.180931 68,101.472848 C68,101.971237 68.1565341,102.43367 68.4234449,102.813197 L83.865638,125 L99.3083328,102.813197 C99.5752436,102.433666 99.7317777,101.971732 99.7317777,101.472848 C99.7317777,100.180931 98.6796877,99.1332157 97.3812571,99.1332157 C97.1379268,99.1332157 96.9031256,99.1701704 96.6823723,99.2385865 L89.7421905,101.311545 L89.7421905,86.3963286 C89.7421905,79.9357401 95.0041457,74.6981603 101.494794,74.6981603 C107.985442,74.6981603 113.247397,79.9357401 113.247397,86.3963286 L113.247397,125 L125,125 L125,86.3963286 C125,73.4746601 114.476591,63 101.494794,63"/>
    <path fill="#000" fill-rule="nonzero" d="M50.632,217.84 C50.632,227.304 47.824,232.972 39.816,232.972 C32.068,232.972 29,226.992 29,217.944 L29,196 L35.5,196 L35.5,217.944 C35.5,224.236 36.904,226.524 39.868,226.524 C42.884,226.524 44.132,224.236 44.132,217.944 L44.132,196 L50.632,196 L50.632,217.84 Z M69.456,216.696 L56.196,216.696 L56.196,210.352 L69.456,210.352 L69.456,216.696 Z M94.676,202.24 L87.136,202.24 L87.136,232.4 L80.636,232.4 L80.636,202.24 L73.096,202.24 L73.096,196 L94.676,196 L94.676,202.24 Z M120.832,217.84 C120.832,227.304 118.024,232.972 110.016,232.972 C102.268,232.972 99.2,226.992 99.2,217.944 L99.2,196 L105.7,196 L105.7,217.944 C105.7,224.236 107.104,226.524 110.068,226.524 C113.084,226.524 114.332,224.236 114.332,217.944 L114.332,196 L120.832,196 L120.832,217.84 Z M148.808,232.4 L141.736,232.4 L136.068,218.568 L133.936,218.568 L133.936,232.4 L127.436,232.4 L127.436,196 L137.108,196 C144.18,196 148.704,199.796 148.704,207.336 C148.704,212.432 146.104,215.604 142.568,217.268 L148.808,232.4 Z M142.204,207.44 C142.204,204.164 140.696,202.344 136.796,202.344 L133.936,202.344 L133.936,212.484 L137.16,212.484 C140.488,212.484 142.204,210.768 142.204,207.44 Z M175.484,232.4 L169.244,232.4 L162.536,216.176 C161.6,213.888 160.456,210.924 159.78,208.792 C159.832,211.028 159.884,214.772 159.884,217.06 L159.884,232.4 L153.956,232.4 L153.956,196 L160.508,196 L166.904,211.964 C167.788,214.148 169.088,217.528 169.764,219.556 C169.712,217.32 169.556,213.368 169.556,211.08 L169.556,196 L175.484,196 L175.484,232.4 Z"/>
  </g>
</svg>
