<svg xmlns="http://www.w3.org/2000/svg" width="80" height="80" viewBox="0 0 80 80">
  <g fill="none" fill-rule="evenodd">
    <g fill="#FFFFFE">
      <rect width="80" height="80" fill-rule="nonzero" rx="5"/>
      <rect width="70" height="70" x="5" y="5" fill-rule="nonzero" stroke="#000" stroke-width="3" rx="3"/>
    </g>
    <path fill="#000" d="M24.0022002,38.0000015 L50.4093002,38.0000015 L50.4093001,38.0000015 C51.3382621,38.0001312 52.2292701,37.6314205 52.8865001,36.9749015 L57.4532001,32.4142015 L57.4532002,32.4142014 C58.2342692,31.6340324 58.2349982,30.3684014 57.4548289,29.5873314 C57.4542862,29.5867881 57.4537432,29.5862451 57.4531999,29.5857024 L52.8864999,25.0251024 L52.8865,25.0251025 C52.229219,24.3686585 51.33824,23.9999625 50.4093,24.0000025 L24.0022,24.0000025 L24.0022001,24.0000025 C22.8970201,23.9993948 22.0006101,24.8948255 22.0000001,26.0000025 C22.0000001,26.0000027 22.0000001,26.0000029 22.0000001,26.0000031 L22.0000001,36.0000031 L22,35.9998803 C22.0005395,37.1050603 22.8969,38.0005403 24.00208,38.0000003 C24.0020802,38.0000003 24.0020804,38.0000003 24.0020806,38.0000003 L24.0022002,38.0000015 Z M35.9973002,22.0000015 L40.0013002,22.0000015 L40.0013001,22.0000015 C40.5535851,22.0004434 41.0016601,21.5530865 41.0021001,21.0008015 C41.0021003,21.0005348 41.0021004,21.000268 41.0021004,21.0000012 L41.0021004,18.0000012 L41.0021005,18.0002102 C41.001719,16.8951402 40.1055765,15.9996202 39.0005105,16.0000002 C39.0005104,16.0000002 39.0005102,16.0000002 39.0005101,16.0000002 L36.9981001,16.0000002 L36.9981001,16.0000002 C35.8930901,15.9995583 34.9969401,16.8949882 34.9965001,18.0000002 C34.9965001,18.0000003 34.9965001,18.0000004 34.9965001,18.0000005 L34.9965001,21.0000005 L34.9965001,20.999989 C34.9967698,21.552472 35.4448061,22.000159 35.9972901,21.999999 L35.9973002,22.0000015 Z M40.0013002,40.0000015 L35.9973002,40.0000015 L35.9973001,40.0000015 C35.4450151,39.9995597 34.9969401,40.4469165 34.9965001,40.9992015 C34.9964999,40.9994683 34.9964998,40.9997351 34.9964998,41.0000019 L34.9964998,62.0000019 L34.9964998,61.999893 C34.9968814,63.104903 35.8929798,64.000383 36.9979898,64.000003 C36.9979899,64.000003 36.99799,64.000003 36.9979901,64.000003 L39.0001901,64.000003 L39.00019,64.000003 C40.10526,64.0005003 41.00149,63.10507 41.00199,62.000003 C41.00199,62.0000029 41.00199,62.0000028 41.00199,62.0000026 L41.00199,41.0000026 L41.00199,41.0000024 C41.00199,40.4477174 40.554275,40.0000024 40.00199,40.0000024 C40.0017595,40.0000024 40.001529,40.0000025 40.0012986,40.0000026 L40.0013002,40.0000015 Z"/>
  </g>
</svg>
