<svg xmlns="http://www.w3.org/2000/svg" width="606" height="893" viewBox="0 0 606 893">
  <g fill="none">
    <rect width="606" height="893" fill="#000" rx="33"/>
    <rect width="600" height="887" x="3" y="3" fill="#FFF" rx="30"/>
    <path fill="#003F87" d="M33,23 L573,23 C578.522847,23 583,27.4771525 583,33 L583,860 C583,865.522847 578.522847,870 573,870 L33,870 C27.4771525,870 23,865.522847 23,860 L23,33 C23,27.4771525 27.4771525,23 33,23 Z"/>
    <path fill="#FFF" d="M264.4999,189 C361.1729,189 438.9998,267.05015 438.9998,364.00015 L438.999,531.999 L439,531.999959 L491.4759,517.5685 C504.7056,513.93003 515.4688,528.4996 508.1032,540.07582 L400,703.999959 L291.8969,540.07583 C284.5313,528.49961 295.2945,513.93004 308.5241,517.56851 L361,531.999959 L361,364.00015 C361,310.26216 317.9609,266.99988 264.4999,266.99988 C211.0389,266.99988 167.9999,310.26216 167.9999,364.00015 L167.9999,703.999909 L90,703.999909 L90,364.00015 C90,267.05015 167.8269,189 264.4999,189 Z" transform="matrix(-1 0 0 1 600.5 0)"/>
  </g>
</svg>
