<?xml version="1.0" encoding="UTF-8" standalone="no"?>
<!-- Created with Inkscape (http://www.inkscape.org/) -->

<svg
   xmlns:dc="http://purl.org/dc/elements/1.1/"
   xmlns:cc="http://creativecommons.org/ns#"
   xmlns:rdf="http://www.w3.org/1999/02/22-rdf-syntax-ns#"
   xmlns:svg="http://www.w3.org/2000/svg"
   xmlns="http://www.w3.org/2000/svg"
   xmlns:sodipodi="http://sodipodi.sourceforge.net/DTD/sodipodi-0.dtd"
   xmlns:inkscape="http://www.inkscape.org/namespaces/inkscape"
   width="606mm"
   height="606mm"
   viewBox="0 0 606.00001 605.99998"
   version="1.1"
   id="svg823"
   inkscape:version="0.92.2 (5c3e80d, 2017-08-06)"
   sodipodi:docname="Singapore_road_sign_-_Prohibitory_-_No_jaywalking.svg">
  <defs
     id="defs817" />
  <sodipodi:namedview
     id="base"
     pagecolor="#ffffff"
     bordercolor="#666666"
     borderopacity="1.0"
     inkscape:pageopacity="0.0"
     inkscape:pageshadow="2"
     inkscape:zoom="0.25"
     inkscape:cx="674.0165"
     inkscape:cy="955.9098"
     inkscape:document-units="mm"
     inkscape:current-layer="layer1"
     showgrid="false"
     inkscape:window-width="1920"
     inkscape:window-height="1057"
     inkscape:window-x="-8"
     inkscape:window-y="-8"
     inkscape:window-maximized="1"
     inkscape:snap-global="false"
     fit-margin-top="0"
     fit-margin-left="0"
     fit-margin-right="0"
     fit-margin-bottom="0" />
  <metadata
     id="metadata820">
    <rdf:RDF>
      <cc:Work
         rdf:about="">
        <dc:format>image/svg+xml</dc:format>
        <dc:type
           rdf:resource="http://purl.org/dc/dcmitype/StillImage" />
        <dc:title></dc:title>
      </cc:Work>
    </rdf:RDF>
  </metadata>
  <g
     inkscape:label="Layer 1"
     inkscape:groupmode="layer"
     id="layer1"
     transform="translate(-205.72297,361.36704)">
    <rect
       style="opacity:1;fill:#000000;fill-opacity:1;fill-rule:nonzero;stroke:none;stroke-width:0.0664286;stroke-linecap:square;stroke-linejoin:round;stroke-miterlimit:10;stroke-dasharray:none;stroke-opacity:1;paint-order:stroke fill markers"
       id="rect1368"
       width="604"
       height="604"
       x="206.72298"
       y="-360.36703"
       rx="52"
       ry="52" />
    <rect
       ry="50"
       rx="50"
       y="-358.36703"
       x="208.72298"
       height="600"
       width="600"
       id="rect1370"
       style="opacity:1;fill:#ffffff;fill-opacity:1;fill-rule:nonzero;stroke:none;stroke-width:0.06598867;stroke-linecap:square;stroke-linejoin:round;stroke-miterlimit:10;stroke-dasharray:none;stroke-opacity:1;paint-order:stroke fill markers" />
    <path
       sodipodi:nodetypes="ccccccccc"
       inkscape:connector-curvature="0"
       id="path845"
       d="m 276.41453,-155.94059 100.80831,-117.35785 2.9615,-4.02859 396.33523,272.7750641 -11.84712,16.1137859 -148.2118,172.5435 -2.12138,2.12141 -340.04632,-340.04624 z"
       style="opacity:1;fill:#000000;fill-opacity:1;fill-rule:nonzero;stroke:none;stroke-width:16;stroke-linecap:square;stroke-linejoin:miter;stroke-miterlimit:8;stroke-dasharray:none;stroke-opacity:1;paint-order:markers stroke fill" />
    <path
       style="opacity:1;fill:#a0a0a0;fill-opacity:1;fill-rule:nonzero;stroke:none;stroke-width:16;stroke-linecap:square;stroke-linejoin:miter;stroke-miterlimit:8;stroke-dasharray:none;stroke-opacity:1;paint-order:markers stroke fill"
       d="M 276.41453,-155.94059 377.22284,-273.29844 764.67245,11.56182 616.46065,184.10532 Z"
       id="path856"
       inkscape:connector-curvature="0"
       sodipodi:nodetypes="ccccc" />
    <path
       style="opacity:1;fill:#dc0000;fill-opacity:1;fill-rule:nonzero;stroke:none;stroke-width:0.07791565;stroke-linecap:square;stroke-linejoin:round;stroke-miterlimit:10;stroke-dasharray:none;stroke-opacity:1;paint-order:stroke fill markers"
       d="M 508.72314,-338.36699 A 279.99999,279.99999 0 0 0 228.72267,-58.367013 279.99999,279.99999 0 0 0 508.72314,221.63292 279.99999,279.99999 0 0 0 788.72311,-58.367013 279.99999,279.99999 0 0 0 508.72314,-338.36699 Z m 0,59.99996 a 220,220 0 0 1 219.99951,220.000017 220,220 0 0 1 -219.99951,219.999983 220,220 0 0 1 -220,-219.999983 220,220 0 0 1 220,-220.000017 z"
       id="path854"
       inkscape:connector-curvature="0" />
    <path
       inkscape:connector-curvature="0"
       id="path11226"
       style="fill:#000000;fill-opacity:1;fill-rule:nonzero;stroke:none;stroke-width:3.52792001"
       d="m 487.9988,-117.10069 13.05565,23.632861 1.43426,2.366582 8.64374,-6.851006 -1.60954,-3.628357 c -7.05707,-13.05102 -13.40845,-26.45466 -19.40695,-39.85843 -2.47004,-10.22918 -8.82143,-19.40013 -17.64276,-25.39651 -1.76429,-0.7059 -3.52856,-2.82181 -3.17569,-4.93821 3.88135,-5.99638 6.35139,-12.69826 7.76278,-20.10553 1.7643,-7.05464 -1.05851,-14.46193 -6.70424,-18.69464 -5.64564,-2.8219 -12.70278,-2.1164 -17.28989,2.11631 -2.82281,6.34914 -3.17569,13.40376 -1.41142,20.45831 0.35308,6.3491 1.7643,12.69824 4.23425,18.34195 -6.3514,7.05453 -12.70279,13.75641 -19.40707,20.45828 -10.58559,8.46555 -16.23123,21.51644 -15.52557,35.27296 -3.52859,18.341881 2.11715,37.036507 14.81993,50.793013 l 5.64562,-3.527309 1.7643,1.76364 -1.7643,31.040112 -0.21333,5.589613 54.81133,-54.090581 -5.55117,-0.52836 c -1.4114,0 -2.82281,-0.70491 -3.88135,-1.4109 -1.41141,-1.058159 -2.47003,-2.116429 -2.82282,-3.527329 l -2.47003,-27.160169 c -0.35309,-1.76367 1.05863,-3.52721 2.47003,-3.87998 1.7643,-0.70588 3.52847,0 4.23424,1.76368 m -47.28254,46.207535 c -5.99851,-5.996458 -10.58572,-14.461896 -11.99713,-23.985584 -1.4114,-9.523691 0.70616,-18.694751 4.5871,-26.454771 1.05864,-2.11632 3.52858,-3.17456 5.64574,-2.82182 2.11717,0.7059 3.88134,2.46916 4.23423,4.58546 l 2.11716,24.691131 v 23.985584 h -4.58711"
       sodipodi:nodetypes="ccccccccccccccccccccccccccccscccccc" />
    <path
       inkscape:connector-curvature="0"
       id="path11228"
       style="fill:#000000;fill-opacity:1;fill-rule:nonzero;stroke:none;stroke-width:3.52876878"
       d="m 519.39579,33.168059 c 1.05842,0.353187 2.11671,0.353187 3.52783,0 1.05831,-0.353185 2.11672,-1.411872 2.46953,-2.117862 l 8.11386,-13.76592 0.70602,-1.764857 c 0.35301,-0.353204 0.35301,-0.705397 0.35301,-1.0589 0.353,-0.353184 0,-0.706387 0,-1.411874 -0.35301,-0.706397 -1.05842,-1.411863 -1.76393,-1.764887 -0.706,-0.353183 -1.41111,-0.353183 -2.11672,0 -1.05831,0.353214 -1.41112,1.0589 -1.76391,1.764887 -0.70502,2.11777 -2.46943,3.176761 -4.23334,2.823757 -1.05831,0 -1.76392,-0.706367 -2.46942,-1.411883 -0.35302,-0.706387 -0.70602,-1.764857 -0.70602,-2.470834 l 1.76392,-42.003721 0.30231,-4.553016 -13.056,12.252205 0.75909,4.301846 8.11397,51.181059"
       sodipodi:nodetypes="cccccccccccccccccc" />
    <path
       inkscape:connector-curvature="0"
       id="path11230"
       style="fill:#000000;fill-opacity:1;fill-rule:nonzero;stroke:none;stroke-width:3.52722287"
       d="m 450.22382,39.53273 -9.90075,5.341776 1.09989,7.001933 8.1088,51.168961 c 0,1.05862 0.35278,2.11727 1.05773,2.8231 0.70456,0.70623 1.76269,1.41153 2.82043,1.76443 0.70455,0 1.76278,0 2.82042,-0.35309 1.05762,-0.35311 2.11535,-0.70522 2.46784,-1.41155 l 20.09573,-23.996471 c 0.70555,-1.05863 0.70555,-2.47018 0,-3.17598 -0.70556,-1.05865 -2.11537,-1.05865 -3.173,-0.70525 -2.82044,1.76437 -5.64094,3.88173 -8.10879,6.35201 -1.05764,2.47018 -3.52558,4.23463 -6.346,3.88173 -1.05763,-0.35311 -2.46794,-0.70522 -3.52557,-1.76445 -0.70456,-1.05865 -1.41021,-2.11728 -1.76278,-3.52891 v -4.94038 -5.293386 c -0.3528,-3.175979 -0.3528,-6.704912 -1.05764,-10.233819 -0.70556,-6.704833 -2.11538,-13.409753 -3.87816,-20.114675"
       sodipodi:nodetypes="ccccccccccccccccccc" />
    <rect
       style="opacity:1;fill:#dc0000;fill-opacity:1;fill-rule:nonzero;stroke:none;stroke-width:1.97395921;stroke-linecap:square;stroke-linejoin:round;stroke-miterlimit:1.41400003;stroke-dasharray:none;stroke-opacity:1;paint-order:stroke fill markers"
       id="rect964"
       width="60"
       height="531"
       x="288.44977"
       y="-666.49316"
       transform="rotate(45)" />
  </g>
</svg>
