<?xml version="1.0" encoding="UTF-8" standalone="no"?>
<!-- Created with Inkscape (http://www.inkscape.org/) -->

<svg
   xmlns:dc="http://purl.org/dc/elements/1.1/"
   xmlns:cc="http://creativecommons.org/ns#"
   xmlns:rdf="http://www.w3.org/1999/02/22-rdf-syntax-ns#"
   xmlns:svg="http://www.w3.org/2000/svg"
   xmlns="http://www.w3.org/2000/svg"
   xmlns:sodipodi="http://sodipodi.sourceforge.net/DTD/sodipodi-0.dtd"
   xmlns:inkscape="http://www.inkscape.org/namespaces/inkscape"
   width="606mm"
   height="606mm"
   viewBox="0 0 606 605.99998"
   version="1.1"
   id="svg823"
   inkscape:version="0.92.2 (5c3e80d, 2017-08-06)"
   sodipodi:docname="SSS.svg">
  <defs
     id="defs817" />
  <sodipodi:namedview
     id="base"
     pagecolor="#ffffff"
     bordercolor="#666666"
     borderopacity="1.0"
     inkscape:pageopacity="0.0"
     inkscape:pageshadow="2"
     inkscape:zoom="0.175"
     inkscape:cx="978.14757"
     inkscape:cy="1676.402"
     inkscape:document-units="mm"
     inkscape:current-layer="layer1"
     showgrid="false"
     inkscape:window-width="1920"
     inkscape:window-height="1057"
     inkscape:window-x="-8"
     inkscape:window-y="-8"
     inkscape:window-maximized="1"
     inkscape:snap-global="false" />
  <metadata
     id="metadata820">
    <rdf:RDF>
      <cc:Work
         rdf:about="">
        <dc:format>image/svg+xml</dc:format>
        <dc:type
           rdf:resource="http://purl.org/dc/dcmitype/StillImage" />
        <dc:title></dc:title>
      </cc:Work>
    </rdf:RDF>
  </metadata>
  <g
     inkscape:label="Layer 1"
     inkscape:groupmode="layer"
     id="layer1"
     transform="translate(0,309)">
    <rect
       style="opacity:1;fill:#000000;fill-opacity:1;fill-rule:nonzero;stroke:none;stroke-width:0.0664286;stroke-linecap:square;stroke-linejoin:round;stroke-miterlimit:10;stroke-dasharray:none;stroke-opacity:1;paint-order:stroke fill markers"
       id="rect1368"
       width="604"
       height="604"
       x="1"
       y="-308"
       rx="52"
       ry="52" />
    <rect
       ry="50"
       rx="50"
       y="-306"
       x="3"
       height="600"
       width="600"
       id="rect1370"
       style="opacity:1;fill:#ffffff;fill-opacity:1;fill-rule:nonzero;stroke:none;stroke-width:0.06598867;stroke-linecap:square;stroke-linejoin:round;stroke-miterlimit:10;stroke-dasharray:none;stroke-opacity:1;paint-order:stroke fill markers" />
    <path
       style="opacity:1;fill:none;fill-opacity:1;fill-rule:nonzero;stroke:#dc0000;stroke-width:100.00021362;stroke-linecap:round;stroke-linejoin:round;stroke-miterlimit:1.41400003;stroke-dasharray:none;stroke-opacity:1;paint-order:normal"
       d="M 541.40364,203.99989 64.596448,203.99977 302.99974,-208.92704 Z"
       id="path17202"
       inkscape:connector-curvature="0"
       sodipodi:nodetypes="cccc" />
    <path
       sodipodi:nodetypes="cccc"
       inkscape:connector-curvature="0"
       id="path17204"
       d="m 302.99974,-188.92707 221.0832,382.92681 -442.165762,4e-4 z"
       style="opacity:1;fill:#ffffff;fill-opacity:1;fill-rule:nonzero;stroke:none;stroke-width:0.95461363;stroke-linecap:square;stroke-linejoin:miter;stroke-miterlimit:1.41400003;stroke-dasharray:none;stroke-opacity:1;paint-order:markers stroke fill" />
    <path
       d="m 384.89355,24.078137 c 1.1707,3.17348 3.12176,6.34696 5.85316,8.46265 6.63352,8.11001 13.65727,16.22002 21.07126,23.9774 l -1.56083,2.82085 c 2.73141,-0.35283 5.46294,-0.35283 8.19435,-0.35283 3.9021,-2.46832 5.07269,-7.40475 3.12174,-11.28349 -4.29234,-4.23127 -8.19445,-8.46265 -12.09655,-13.04655 -2.34117,-2.82085 -4.68247,-5.64169 -7.41388,-8.11001 -9.75526,-12.693917 -15.99855,-27.856047 -17.55937,-43.723447 -3.12175,-8.81527 -11.70632,-14.8096 -21.07126,-14.8096 -1.56081,0.70566 -3.51187,0.35283 -4.68257,-0.70566 -1.17058,-1.05789 -1.56081,-2.82095 -1.17058,-4.5839 4.29234,-3.17348 7.41398,-7.75749 8.9748,-12.69392 1.95106,-5.28917 1.56082,-10.93096 0,-15.8674 C 363.8223,-74.65304 356.01819,-81 347.04339,-81 c -9.36504,0 -17.16914,5.99443 -19.90066,14.8096 -0.78091,5.28917 0,10.93086 2.73152,15.51477 3.12163,4.5839 7.41397,8.11001 12.48668,9.87307 1.95105,2.11568 2.34117,5.28916 0.7809,7.75738 -20.29089,3.52611 -37.46004,16.57266 -46.43484,34.90827 -4.68246,3.52611 -7.41399,8.81527 -8.19434,14.456967 -0.78091,5.6417 1.17058,11.28349 4.68246,15.51476 1.56082,3.87875 2.34129,8.11002 2.73152,12.34129 -5.85316,0.35283 -11.70632,0.35283 -17.55938,0.35283 -0.7809,0 -1.95105,-0.35283 -2.34128,-1.41042 -0.78092,-0.70467 -1.17071,-1.76306 -1.17071,-2.46822 -2.7314,-11.98876 -5.07269,-23.62478 -6.24327,-35.613527 -0.39046,-3.52611 -2.3413,-7.4047501 -5.85317,-9.8730701 -3.51188,-2.46822 -7.80422,-3.17348 -11.31609,-2.11559 -1.95094,0 -3.902,-1.41042 -4.29223,-3.8787399 3.9021,-2.11568 7.02375,-6.34696 8.58457,-11.28349 1.56082,-5.28907 1.17059,-10.2256 -0.78091,-14.45697 l 0.39045,-0.35283 c -2.7314,-5.6418 -8.9748,-9.16791 -15.60832,-8.46265 -6.63351,1.0578 -11.70621,6.34696 -12.09645,12.34129 -2.73141,5.99433 -2.34129,13.04655 0.78091,18.68824 0,1.41043 0.39045,2.82095 0.39045,4.23137 -7.41387,0.7046699 -15.21809,3.8786399 -21.46137,9.87297 -2.73152,3.17348 -5.46293,6.69959 -7.41398,10.57833 -1.56083,3.87864 -2.73152,7.757377 -3.51188,11.636027 v 0.35283 c -0.39045,6.34695 0,12.69391 1.17059,18.68834 -0.78091,4.93653 -0.78091,10.2256 0.7809,15.16213 1.1706,4.93654 3.51188,9.52044 6.63353,13.39918 l 5.0727,8.46255 c -5.85317,24.330033 -17.55938,46.897013 -34.33829,65.232623 -3.51188,0.35283 -6.2434,3.52611 -6.2434,7.40475 0,3.87875 2.73152,6.69959 6.2434,7.40486 2.7314,1.05779 5.46292,2.46821 7.80411,4.23127 2.73151,1.41042 5.07269,3.17348 7.41398,5.28916 l 5.85316,1.0578 c -0.39046,-2.46822 -1.1707,-4.93654 -2.34129,-7.40476 -2.73141,-3.87874 -3.12164,-9.1679 -1.56082,-13.7518 15.99855,-15.8674 28.48523,-34.90827 37.45993,-55.712195 0,-1.76296 1.1707,-3.17348 2.73152,-3.52601 1.56082,-0.705668 3.12164,0 4.29224,1.41042 3.51186,5.99433 7.41397,12.341275 12.09655,17.982975 -0.7809,12.69392 -1.1707,25.38783 -1.1707,38.08175 -1.17059,3.52611 -1.95105,7.05222 -2.73141,10.57833 -1.56082,1.41042 -1.95105,3.87864 -0.7809,5.6417 1.17069,1.76305 3.51186,2.46831 5.46292,1.76305 11.3161,0.70566 23.02231,1.76306 34.3384,3.17348 5.46282,2.82085 10.53563,6.34696 15.21809,10.57823 0.78091,1.41053 2.34129,1.76306 3.51188,1.41053 1.56082,-0.35284 2.34128,-1.76306 2.34128,-3.17348 -1.95105,-4.23138 -4.29234,-8.81528 -6.63362,-13.39918 -1.56083,-1.0578 -2.34118,-2.82085 -2.34118,-4.93654 0.39045,-2.11568 1.56082,-3.52611 3.12164,-4.5839 8.58457,-8.81517 18.33974,-16.92519 29.26559,-23.97741 5.85317,-3.17348 10.92586,-8.11001 14.43774,-14.10434 3.12164,-5.99433 4.68246,-12.69392 3.90211,-19.746135 5.85305,-2.46821 12.09644,-2.82084 17.94961,-1.05779 0,3.173475 1.17059,6.346955 3.12164,8.462645 8.97481,17.98298 12.48668,37.72911 10.92585,57.82778 -1.17069,1.41043 -1.56092,3.87874 -0.39045,6.34696 1.56083,2.11569 3.51188,3.17348 5.46283,3.52611 7.41398,0.35283 14.43772,0 21.85171,-1.05779 l 0.39045,-0.70566 -1.95105,-3.87875 -3.90211,-2.46821 -1.95106,-1.76306 -3.51186,-5.28916 -0.78092,0.35283 c -3.12163,-1.76306 -4.68246,-5.6417 -3.12163,-8.81518 1.56082,-8.81527 2.34128,-17.63045 2.73151,-26.44562 0.39045,-5.6418 -1.95105,-10.57833 -5.85316,-14.45697 -2.34129,-2.11569 -3.51187,-5.28917 -3.12164,-8.46265 -0.78091,-1.057785 -0.78091,-2.115685 -0.39045,-3.173475 0.39045,-1.05779 1.17058,-1.76305 1.95105,-2.11568 3.90199,0.35283 7.41387,0.70566 11.31597,1.05789 0.39046,0.35283 0.78091,0.35283 1.1706,0.35283 0.78091,0 1.1707,-0.35283 1.1707,-0.70566 0.39045,-0.35283 0.39045,-1.0579 0.39045,-1.41043 -0.39045,-0.70566 -0.78091,-1.05789 -1.1707,-1.05789 -1.95094,-2.820848 -2.73141,-5.994328 -2.73141,-9.167808 -7.80421,-17.63045 -14.43773,-35.96606 -19.1202,-54.6544 -0.39045,-1.0578 -0.39045,-2.11559 0,-3.17348 0.39046,-1.05779 1.56082,-1.76296 2.3413,-2.11559 0.7809,-0.35283 1.95093,0 3.12163,0.35283 0.78092,0.70567 1.56083,1.76306 1.56083,2.82085 m -51.50755,8.81518 c -3.12164,9.1679 -6.24328,18.68834 -9.36493,28.20878 -2.73152,9.1678 -5.85315,18.68824 -8.9748,28.208678 -0.39045,1.05779 -0.7809,3.17348 0.39046,4.93653 0.7809,1.76306 2.73141,2.820845 4.29223,2.820845 -1.56082,13.75171 -8.97481,26.44563 -20.29079,34.20301 -5.46293,6.34696 -11.70621,11.63612 -18.33984,16.57266 -2.34119,2.82084 -5.46282,4.93653 -9.36494,5.28916 -5.07269,-2.11568 -7.80421,-7.75738 -6.24339,-13.04655 1.1707,-8.46264 2.73153,-16.57265 4.68257,-24.68267 3.51188,-10.93086 1.17059,-22.919505 -6.24339,-31.029523 -7.80411,-8.46264 -10.14539,-20.80393 -6.24328,-31.73479 0,-0.70566 0,-1.41042 0.7809,-2.11568 0.39046,-0.70566 1.1707,-1.0578 1.95106,-1.0578 0.78091,0 1.56082,0.35284 1.95105,1.0578 0.78091,0.70566 0.78091,1.41042 0.78091,2.11568 -0.78091,3.17348 0.7798,5.99433 3.51187,7.05222 3.12165,-0.70566 6.24329,-0.35283 9.36494,0.70567 2.73151,0.35283 5.46292,0.35283 8.19445,0 3.90199,-0.70567 8.19433,-1.0579 12.48656,0 1.95105,0.35283 4.29234,1.05779 6.63364,1.05779 3.90199,1.41042 8.58457,-0.35283 10.53561,-3.87874 3.12165,-2.46822 3.51188,-7.05212 1.1706,-9.87297 0.39045,-1.76306 0,-3.52611 -1.56083,-4.584 -1.17058,-1.41043 -3.12164,-2.11559 -4.68246,-1.76296 -0.39045,0.35283 -1.17069,0.35283 -1.56093,0.35283 -0.78091,-0.35283 -1.17059,-0.70566 -1.56082,-1.05789 -0.78091,-1.05779 -0.78091,-2.46822 0.39045,-3.17348 1.56083,-5.99433 1.56083,-11.98865 0,-17.27782 1.56083,-6.346957 6.2434,-11.283487 11.70632,-13.751707 0.78092,-1.05779 2.34118,-1.76305 3.902,-1.76305 1.56094,0.35283 2.73152,1.05779 3.12176,2.11568 2.73141,8.81518 5.46293,17.277817 8.58457,26.092997"
       style="fill:#000000;fill-opacity:1;fill-rule:nonzero;stroke:none;stroke-width:3.70932436;stroke-opacity:1"
       id="path1963"
       inkscape:connector-curvature="0"
       sodipodi:nodetypes="ccccccccccccccsccccccccsccccccccccccccccccccccscccccccccccccccccccccccccccccccccccccccccccsccccccccccccccccccccccsccccccccccccccccccc" />
  </g>
</svg>
