<svg xmlns="http://www.w3.org/2000/svg" width="1124" height="996" viewBox="0 0 1124 996">
  <g fill="none">
    <path fill="#AF1E2D" d="M1040.84414,0.385226513 C1104.73534,0.385226513 1144.66735,69.5494706 1112.72177,124.880883 L633.987887,954.072846 C602.042272,1009.40431 522.178178,1009.40428 490.232606,954.072792 L11.4995566,124.880829 C-20.4459721,69.5494166 19.4860398,0.385226513 83.3772127,0.385226513 L1040.84414,0.385226513 Z"/>
    <path fill="#FFF" d="M1004.90016,83.3823032 C1020.87297,83.3823032 1030.85597,100.673368 1022.86957,114.506221 L580.079528,881.441257 C572.093123,895.274119 552.127104,895.274111 544.140711,881.441242 L101.3515,114.506206 C93.3651158,100.673353 103.348119,83.3823032 119.320913,83.3823032 L1004.90016,83.3823032 Z"/>
    <polygon fill="#000" points="759.291 320.28 759.95 321.097 760.662 321.862 761.426 322.574 762.217 323.206 763.061 323.812 763.957 324.34 764.88 324.788 765.829 325.183 766.83 325.499 767.858 325.763 768.913 325.948 769.44 326 769.782 326.027 770.151 326.053 770.969 326.027 771.759 325.948 772.603 325.789 773.446 325.578 774.29 325.315 775.107 324.972 775.951 324.603 776.768 324.155 777.558 323.654 778.323 323.127 779.061 322.547 779.773 321.915 781.038 320.544 781.591 319.779 782.066 319.015 782.488 318.198 782.857 317.381 783.12 316.511 783.331 315.615 783.436 314.718 783.436 313.796 783.41 313.321 783.41 218.111 783.331 216.819 783.147 215.581 782.857 214.368 782.514 213.182 782.066 212.048 781.539 210.968 780.932 209.913 780.273 208.938 779.509 207.989 778.718 207.093 777.848 206.276 776.899 205.511 775.924 204.8 774.87 204.141 773.789 203.561 772.656 203.06 771.496 202.612 770.283 202.243 769.044 201.953 767.753 201.742 766.461 201.61 765.117 201.557 763.799 201.584 762.481 201.716 761.216 201.953 759.95 202.269 758.738 202.638 757.578 203.113 756.418 203.666 755.337 204.272 754.283 204.958 753.281 205.696 752.332 206.487 751.436 207.356 750.593 208.253 749.828 209.202 749.117 210.203 748.484 211.231 747.904 212.312 747.403 213.393 746.982 214.526 746.639 215.686 746.402 216.846 746.217 218.032 746.138 219.245 746.138 220.431 746.217 221.591 746.349 222.724 746.507 223.831 746.744 224.859 747.034 225.887 747.376 226.862 747.746 227.811 748.167 228.708 748.642 229.577 749.169 230.395 749.723 231.185 750.302 231.95 750.935 232.662 752.306 233.979 753.782 235.139 755.363 236.141 757.05 237.011 757.92 237.38 758.368 237.538 758.474 237.564 758.5 237.802 758.5 284.247 758.474 284.221 758.447 284.115 758.131 283.324 757.762 282.481 757.34 281.585 756.866 280.636 756.365 279.687 755.838 278.685 754.599 276.576 753.254 274.388 751.752 272.148 750.118 269.855 748.378 267.588 746.559 265.321 744.635 263.133 742.632 261.024 740.576 259.021 738.493 257.176 736.358 255.489 735.277 254.724 734.197 254.013 733.116 253.38 732.035 252.774 730.954 252.273 729.874 251.798 728.819 251.429 727.739 251.113 726.684 250.902 725.63 250.744 724.602 250.691 723.574 250.744 722.546 250.876 721.57 251.113 720.569 251.456 719.62 251.877 718.671 252.431 717.775 253.09 717.537 253.275 717.406 253.406 717.406 253.485 717.485 253.749 717.722 254.118 718.065 254.645 718.513 255.252 719.093 255.99 719.752 256.859 720.516 257.808 721.36 258.863 722.256 260.023 723.231 261.262 724.259 262.579 725.34 264.003 726.473 265.505 727.633 267.061 728.793 268.695 729.979 270.408 731.165 272.148 733.538 275.838 735.831 279.713 737.993 283.72 740.18 287.937 744.714 296.61 747.007 300.88 748.114 302.936 749.222 304.965 750.302 306.89 751.33 308.761 752.358 310.527 753.334 312.188 754.256 313.743 755.126 315.14 755.943 316.405 756.708 317.539 757.393 318.461 757.999 319.226 758.289 319.542 758.553 319.806 758.79 320.017 759.001 320.149 759.212 320.254"/>
    <polyline fill="#000" points="548.616 315.257 548.485 316.073 548.3 316.89 548.037 317.68 547.747 318.443 547.379 319.181 546.957 319.892 546.51 320.602 545.983 321.261 544.851 322.472 543.587 323.578 542.191 324.473 541.454 324.868 540.69 325.21 539.927 325.5 539.137 325.711 538.347 325.895 537.557 326.001 536.741 326.053 535.951 326.053 535.134 325.974 534.318 325.842 533.502 325.632 532.685 325.368 531.896 325.079 531.106 324.71 529.552 323.815 528.13 322.762 527.472 322.182 526.84 321.55 526.234 320.892 525.708 320.207 525.234 319.496 524.812 318.733 524.444 317.969 524.154 317.179 523.917 316.363 523.786 315.547 523.733 315.125 523.733 313.993 523.707 310.965 523.707 298.905 523.733 250.666 523.733 250.297 523.759 249.139 523.812 244.557 523.759 239.975 523.733 238.843 523.733 238.474 523.707 238.448 523.654 238.422 523.391 238.343 522.364 237.948 521.39 237.5 520.416 237.026 519.494 236.499 518.599 235.92 517.756 235.288 516.94 234.63 516.176 233.919 515.439 233.155 514.754 232.339 514.122 231.496 513.543 230.601 513.016 229.653 512.542 228.679 512.121 227.652 511.752 226.572 511.463 225.466 511.226 224.308 511.041 223.097 510.963 221.833 510.91 220.542 510.963 219.226 511.121 217.909 511.41 216.619 511.753 215.329 512.227 214.065 512.78 212.827 513.411 211.642 514.149 210.457 514.939 209.352 515.834 208.272 516.782 207.271 517.782 206.323 518.862 205.454 520.021 204.664 521.206 203.927 522.443 203.295 523.733 202.769 525.076 202.321 526.446 202.005 527.867 201.794 529.316 201.689 530.764 201.689 532.186 201.821 533.581 202.058 534.951 202.4 536.294 202.821 537.558 203.348 538.795 203.953 539.98 204.664 541.112 205.428 542.166 206.297 543.166 207.219 544.088 208.219 544.957 209.272 545.72 210.405 546.431 211.59 547.037 212.827 547.537 214.091 547.958 215.434 548.275 216.803 548.511 218.199 548.617 219.647 548.617 250.534 549.907 248.849 551.25 247.058 552.645 245.162 554.094 243.161 555.594 241.107 557.148 238.974 558.754 236.815 560.413 234.603 563.836 230.127 567.391 225.677 571.104 221.306 572.973 219.199 574.895 217.172 576.844 215.223 578.793 213.354 580.767 211.563 582.742 209.931 584.743 208.404 586.745 207.034 588.693 205.77 590.589 204.691 592.432 203.769 594.223 202.979 595.961 202.374 597.593 201.926 599.173 201.636 600.674 201.557 602.096 201.636 602.754 201.768 603.413 201.926 604.044 202.137 604.65 202.4 605.229 202.716 605.782 203.085 606.309 203.506 606.809 203.98 607.283 204.48 607.731 205.059 608.152 205.691 608.547 206.376 608.916 207.113 609.232 207.903 609.548 208.746 609.811 209.641 610.048 210.615 610.259 211.642 610.443 212.722 610.574 213.854 610.68 215.065 610.758 216.329 610.785 217.646 610.811 217.988 610.811 315.257 610.627 316.073 610.416 316.889 610.126 317.679 609.784 318.443 609.415 319.18 608.968 319.891 607.967 321.261 606.809 322.472 605.492 323.578 604.096 324.473 603.359 324.868 602.596 325.21 601.832 325.5 601.042 325.711 600.252 325.895 599.436 326 598.646 326.053 597.829 326.053 597.04 325.974 596.223 325.816 595.407 325.605 594.591 325.342 593.775 325 592.985 324.631 592.195 324.183 591.457 323.709 590.72 323.183 590.035 322.603 589.377 321.998 588.745 321.339 588.192 320.655 587.666 319.944 587.218 319.207 586.823 318.443 586.481 317.679 586.217 316.863 586.033 316.047 585.928 315.204 585.928 313.94 585.954 311.807 585.954 309.754 585.98 307.779 585.98 300.406 585.954 296.983 585.954 293.665 585.928 290.4 585.902 283.896 585.902 280.552 585.928 277.076 585.928 234.919 585.902 234.867 585.875 234.788 585.77 234.472 585.612 234.182 585.428 233.972 585.244 233.84 585.007 233.761 584.743 233.761 584.454 233.866 584.111 234.077 583.743 234.419 583.321 234.867 583.216 234.972 583.19 235.025 583.164 235.051 583.085 235.104 582.795 235.367 582.19 235.92 581.531 236.552 580.794 237.237 580.057 238.027 579.24 238.869 578.398 239.791 577.529 240.765 576.634 241.792 575.686 242.872 574.738 244.03 572.737 246.453 570.683 249.06 568.576 251.851 566.47 254.747 564.337 257.749 562.257 260.856 560.255 264.016 558.307 267.228 556.49 270.441 554.778 273.653 553.251 276.813 551.882 279.946 551.276 281.474 550.723 282.975 550.249 284.449 549.802 285.924 549.459 287.346 549.143 288.715 548.933 290.084 548.775 291.374 548.748 291.427 548.696 291.559 548.643 291.664 548.617 291.69 548.617 292.428 548.591 294.587 548.591 314.52 548.617 315.073 548.617 315.257"/>
    <polyline fill="#000" points="471.864 201.558 472.966 201.584 474.016 201.663 475.066 201.846 476.115 202.056 477.113 202.345 478.11 202.66 479.055 203.053 479.999 203.5 480.892 203.998 481.758 204.549 482.597 205.127 483.385 205.783 484.146 206.465 484.881 207.174 485.563 207.935 486.193 208.748 486.77 209.588 487.321 210.454 487.82 211.346 488.266 212.291 488.633 213.236 488.974 214.233 489.263 215.23 489.473 216.28 489.63 217.329 489.709 218.405 489.762 219.481 489.736 220.164 489.63 221.555 489.42 222.919 489.105 224.231 488.686 225.517 488.187 226.751 487.583 227.932 486.901 229.086 486.166 230.162 485.327 231.186 484.434 232.13 483.463 233.023 482.44 233.836 481.889 234.23 481.626 234.414 481.469 234.492 481.416 234.545 481.469 234.597 482.571 235.647 483.568 236.749 484.434 237.93 485.169 239.163 485.799 240.449 486.324 241.788 486.744 243.178 487.085 244.569 487.347 246.013 487.557 247.456 487.689 248.926 487.82 251.839 487.82 252.81 487.794 255.119 487.767 259.685 487.741 268.818 487.794 287.03 487.82 296.215 487.846 305.505 487.846 310.229 487.82 312.617 487.82 314.533 487.794 314.638 487.584 315.897 487.19 317.131 486.665 318.311 485.983 319.44 485.222 320.49 484.33 321.461 483.359 322.327 482.309 323.114 481.181 323.796 480 324.347 478.793 324.767 477.559 325.056 476.299 325.187 475.04 325.161 473.754 324.977 472.468 324.662 471.208 324.19 469.975 323.586 468.768 322.851 467.639 322.038 466.59 321.093 465.645 320.07 464.805 318.994 464.123 317.813 463.572 316.606 463.204 315.32 463.073 314.664 463.047 314.349 463.02 314.27 463.02 308.812 463.047 299.39 463.073 289.838 463.073 260.919 463.02 251.314 463.02 249.818 462.994 249.818 462.941 249.87 462.836 249.949 462.653 250.107 461.839 250.763 458.795 253.492 455.934 256.274 453.231 259.108 450.738 261.994 448.403 264.907 446.225 267.847 444.204 270.812 442.341 273.777 440.635 276.717 439.06 279.656 437.617 282.569 436.331 285.456 435.124 288.29 434.074 291.045 433.103 293.748 432.264 296.372 431.502 298.918 430.846 301.359 430.269 303.694 429.77 305.899 429.351 307.972 429.009 309.914 428.721 311.725 428.511 313.352 428.327 314.795 428.196 316.081 428.169 316.658 428.143 316.763 428.117 316.842 428.091 316.999 427.671 318.102 427.146 319.204 426.516 320.227 425.781 321.198 424.968 322.09 424.102 322.93 423.131 323.691 422.133 324.347 421.084 324.898 419.982 325.371 418.853 325.712 417.698 325.948 416.544 326.053 415.31 326.001 414.024 325.817 412.765 325.45 411.479 324.977 410.245 324.347 409.065 323.639 407.936 322.773 406.913 321.854 405.994 320.805 405.181 319.702 404.498 318.548 404 317.314 403.659 316.028 403.553 315.372 403.527 315.215 403.527 313.562 403.58 307.788 403.632 284.747 403.58 261.732 403.527 238.77 403.527 237.615 403.501 237.563 403.448 237.563 403.028 237.405 402.215 237.09 400.614 236.408 399.118 235.568 397.701 234.65 396.415 233.6 395.208 232.445 394.132 231.159 393.187 229.795 392.374 228.299 391.692 226.672 391.167 224.966 390.799 223.129 390.616 221.213 390.563 220.19 390.589 219.166 390.668 218.143 390.8 217.119 391.01 216.122 391.272 215.125 391.613 214.154 391.98 213.183 392.427 212.265 392.925 211.346 393.476 210.454 394.08 209.614 394.736 208.774 395.418 207.987 396.153 207.226 396.94 206.517 397.754 205.835 398.62 205.205 399.512 204.628 400.431 204.077 401.402 203.604 402.399 203.158 403.396 202.791 404.446 202.476 405.522 202.214 406.624 202.03 407.726 201.899 408.855 201.846 409.983 201.846 411.111 201.925 412.24 202.056 413.316 202.266 414.392 202.502 415.415 202.817 416.439 203.185 417.436 203.605 418.381 204.051 419.299 204.575 420.191 205.153 421.058 205.756 421.871 206.412 422.658 207.121 423.393 207.856 424.102 208.643 424.732 209.457 425.335 210.323 425.886 211.215 426.411 212.16 426.857 213.131 427.251 214.102 427.566 215.151 427.854 216.201 428.064 217.277 428.222 218.379 428.301 219.508 428.327 219.796 428.327 232.445 428.353 247.745 428.38 255.382 428.353 262.939 428.327 270.392 428.327 270.76 428.353 270.707 428.511 270.287 428.852 269.421 429.534 267.742 431.004 264.383 432.631 261.102 434.389 257.901 436.305 254.752 438.378 251.681 440.609 248.716 442.997 245.855 445.542 243.126 448.271 240.476 449.688 239.216 451.132 237.983 452.628 236.775 454.176 235.621 455.777 234.492 457.404 233.39 459.293 232.209 459.346 232.183 459.32 232.183 459.32 232.157 459.031 231.868 458.349 231.107 457.693 230.32 457.089 229.48 456.512 228.614 456.013 227.695 455.567 226.751 455.147 225.806 454.806 224.809 454.517 223.785 454.281 222.735 454.124 221.686 454.018 220.584 453.966 219.481 453.966 219.271 453.992 219.009 453.992 218.458 454.097 217.382 454.255 216.332 454.465 215.283 454.727 214.285 455.068 213.288 455.462 212.343 455.882 211.399 456.38 210.506 456.932 209.614 457.509 208.774 458.139 207.987 458.821 207.226 459.53 206.491 460.291 205.809 461.078 205.179 461.918 204.575 462.784 204.024 463.676 203.526 464.621 203.08 465.565 202.686 466.563 202.345 467.56 202.082 468.583 201.846 469.659 201.689 470.709 201.584 471.811 201.557 471.864 201.557"/>
    <polygon fill="#000" points="695.569 315.226 695.226 316.728 694.673 318.15 693.988 319.52 693.145 320.784 692.171 321.97 691.09 323.024 689.905 323.946 688.667 324.71 687.35 325.342 685.98 325.763 684.61 326 683.925 326.053 683.214 326.027 682.503 325.974 681.765 325.842 680.29 325.447 678.788 324.868 677.287 324.13 675.864 323.208 674.547 322.154 673.362 320.995 672.835 320.363 672.334 319.704 671.913 319.046 671.544 318.335 671.228 317.623 670.965 316.886 670.806 316.148 670.701 315.384 670.675 315.015 670.675 228.321 670.57 227.189 670.359 226.109 670.069 225.081 669.648 224.133 669.174 223.237 668.594 222.394 667.936 221.604 667.198 220.866 666.382 220.208 665.486 219.576 664.564 219.022 663.537 218.496 662.483 218.048 661.35 217.653 660.191 217.31 658.979 217.02 657.741 216.783 656.45 216.599 655.133 216.467 653.79 216.388 652.42 216.362 651.024 216.388 649.628 216.467 648.6 216.573 647.599 216.757 646.572 216.994 645.571 217.284 644.57 217.653 642.568 218.522 640.645 219.576 638.801 220.787 637.088 222.078 635.534 223.474 634.823 224.159 634.191 224.871 633.585 225.582 633.058 226.293 632.61 227.004 632.215 227.689 631.873 228.348 631.635 229.006 631.609 229.164 631.583 229.217 631.583 229.244 631.557 229.244 631.478 229.27 631.373 229.217 631.188 229.138 630.767 228.875 630.213 228.453 629.634 227.874 629.002 227.163 628.396 226.32 627.869 225.371 627.448 224.291 627.184 223.132 627.105 222.5 627.105 221.868 627.131 221.183 627.184 220.84 627.21 220.761 627.263 220.366 627.447 219.55 627.948 217.943 628.58 216.415 629.37 214.966 630.292 213.57 631.32 212.253 632.505 211.015 633.796 209.855 635.192 208.749 636.694 207.722 638.301 206.773 639.986 205.904 641.751 205.114 643.569 204.402 645.466 203.744 647.415 203.191 649.417 202.717 651.472 202.321 653.553 202.005 655.66 201.768 657.768 201.61 659.902 201.558 662.062 201.558 664.196 201.663 666.329 201.847 668.437 202.137 670.518 202.506 672.572 202.954 674.575 203.481 676.55 204.113 678.447 204.824 680.291 205.641 682.082 206.563 683.768 207.537 685.401 208.644 686.903 209.829 688.325 211.094 689.643 212.49 690.854 213.965 691.934 215.519 692.883 217.205 693.699 218.97 694.358 220.841 694.885 222.79 695.254 224.871 695.438 227.031 695.464 228.164 695.464 229.718 695.491 230.429 695.491 232.168 695.517 234.091 695.543 235.013 695.543 237.832 695.569 237.832"/>
    <polyline fill="#000" points="321.246 149.336 322.642 149.424 324.009 149.627 325.318 149.976 326.598 150.442 327.82 151.024 328.955 151.693 330.031 152.507 331.02 153.38 331.893 154.369 332.707 155.416 333.376 156.551 333.958 157.743 334.423 159.023 334.743 160.332 334.918 161.699 334.976 163.096 334.889 164.521 334.743 165.917 334.511 167.255 334.22 168.535 333.871 169.757 333.434 170.95 332.911 172.055 332.358 173.131 331.747 174.15 331.078 175.139 330.322 176.04 329.536 176.913 328.722 177.757 327.82 178.513 326.918 179.24 325.929 179.909 324.94 180.52 323.893 181.073 322.817 181.596 321.711 182.062 319.384 182.876 316.97 183.458 314.497 183.865 311.967 184.069 309.378 184.098 306.789 183.924 304.171 183.545 301.611 182.993 299.08 182.265 296.607 181.335 294.222 180.229 291.953 178.949 289.772 177.495 288.753 176.68 287.764 175.837 286.804 174.935 285.903 174.004 285.03 173.044 284.215 172.026 283.459 170.95 282.761 169.844 282.092 168.681 281.51 167.488 280.987 166.237 280.492 164.957 280.085 163.648 279.765 162.281 279.503 160.856 279.299 159.401 279.183 157.918 279.154 156.376 279.212 154.049 279.387 151.78 279.736 149.598 280.172 147.475 280.725 145.439 281.394 143.49 282.179 141.599 283.081 139.766 284.07 138.021 285.176 136.363 286.339 134.763 287.619 133.25 288.986 131.796 290.441 130.429 291.982 129.12 293.582 127.898 295.24 126.763 296.986 125.687 298.818 124.669 300.68 123.767 302.6 122.895 304.578 122.138 306.614 121.44 308.68 120.8 310.803 120.277 312.927 119.782 315.137 119.404 317.348 119.084 319.588 118.851 321.828 118.677 324.126 118.589 326.424 118.56 328.693 118.647 330.933 118.822 333.114 119.113 335.267 119.52 337.361 120.015 339.427 120.596 341.405 121.295 343.354 122.051 345.245 122.894 347.077 123.825 348.823 124.843 350.539 125.92 352.168 127.054 353.739 128.247 355.222 129.527 356.677 130.836 358.015 132.203 359.295 133.628 360.487 135.083 361.622 136.595 362.669 138.137 363.629 139.708 364.502 141.279 365.287 142.908 365.985 144.566 366.596 146.224 367.091 147.882 367.498 149.569 367.818 151.256 368.05 152.944 368.167 154.602 368.167 156.289 368.37 156.289 368.166 285.415 369.679 285.997 371.104 286.637 372.5 287.393 373.838 288.237 375.06 289.168 376.253 290.186 377.329 291.291 378.318 292.484 379.22 293.764 380.005 295.131 380.703 296.586 381.285 298.156 381.722 299.785 382.071 301.502 382.274 303.305 382.332 305.196 382.245 307.145 381.925 309.065 381.402 310.956 380.703 312.817 379.831 314.621 378.784 316.337 377.562 317.966 376.224 319.508 374.74 320.904 373.14 322.184 371.424 323.289 369.591 324.249 367.672 325.006 365.693 325.588 363.628 325.937 362.552 326.024 361.505 326.053 359.352 325.937 357.287 325.646 355.28 325.122 353.36 324.424 351.527 323.522 349.811 322.475 348.211 321.282 346.727 319.944 345.36 318.461 344.167 316.861 343.149 315.115 342.277 313.312 341.579 311.392 341.113 309.385 340.822 307.32 340.764 305.196 340.793 156.376 340.764 155.183 340.648 154.02 340.502 152.885 340.299 151.809 340.037 150.791 339.717 149.773 339.368 148.813 338.961 147.911 338.495 147.038 338.001 146.195 336.895 144.653 335.645 143.257 334.248 142.006 332.736 140.93 331.107 139.999 329.391 139.243 327.616 138.632 325.783 138.166 323.893 137.846 321.973 137.672 320.053 137.672 318.104 137.788 316.213 138.05 314.322 138.486 312.49 139.039 310.715 139.737 308.999 140.581 307.399 141.541 305.886 142.675 304.519 143.926 303.268 145.293 302.163 146.835 301.232 148.493 300.476 150.267 300.185 151.198 299.923 152.187 299.72 153.176 299.574 154.223 299.487 155.271 299.458 156.376 299.516 157.394 299.632 158.325 299.836 159.256 300.098 160.129 300.447 161.001 300.854 161.816 301.348 162.601 301.901 163.357 302.512 164.085 303.181 164.783 303.908 165.481 304.694 166.15 306.468 167.43 308.417 168.652 308.708 168.71 308.184 167.401 307.806 166.004 307.573 164.579 307.486 163.096 307.573 161.699 307.777 160.332 308.097 159.023 308.563 157.743 309.144 156.551 309.842 155.416 310.628 154.369 311.53 153.38 312.49 152.478 313.566 151.693 314.7 151.024 315.893 150.442 317.144 149.976 318.482 149.627 319.82 149.424 321.245 149.336"/>
    <polygon fill="#000" points="452.122 134.623 453.458 134.683 454.736 134.891 455.954 135.247 457.142 135.693 458.241 136.257 459.311 136.911 460.291 137.683 461.182 138.515 461.984 139.406 462.727 140.386 463.381 141.396 463.945 142.466 464.391 143.565 464.747 144.664 464.985 145.793 465.133 146.922 465.162 148.08 465.103 149.209 464.954 150.368 464.746 151.526 464.182 153.844 463.41 156.101 462.518 158.3 461.568 160.409 460.676 162.369 459.845 164.181 462.667 163.706 465.37 163.142 467.925 162.518 470.331 161.835 472.648 161.062 474.847 160.201 476.926 159.22 478.946 158.151 480.877 156.933 482.719 155.626 484.531 154.141 486.254 152.536 487.977 150.784 489.611 148.853 491.274 146.744 492.879 144.456 493.74 145.704 494.453 146.922 495.047 148.17 495.523 149.388 495.909 150.606 496.176 151.794 496.325 152.982 496.384 154.17 496.355 155.329 496.206 156.458 495.999 157.587 495.702 158.686 495.315 159.755 494.84 160.825 494.305 161.835 493.711 162.845 493.028 163.825 492.285 164.776 491.483 165.697 490.651 166.558 488.809 168.251 486.789 169.766 484.621 171.133 482.363 172.321 480.016 173.331 477.61 174.163 475.115 174.846 472.471 175.381 469.738 175.826 466.916 176.183 464.034 176.421 461.123 176.569 458.241 176.658 455.389 176.658 452.597 176.599 449.923 176.45 447.369 176.272 444.992 176.034 442.764 175.767 440.803 175.44 439.883 175.292 439.051 175.114 438.278 174.935 437.595 174.727 438.457 173.925 439.348 173.004 440.209 171.994 441.071 170.895 442.705 168.519 444.22 166.053 444.903 164.776 445.497 163.528 446.062 162.31 446.537 161.122 446.923 159.993 447.22 158.923 447.428 157.943 447.517 157.052 446.239 156.577 445.051 156.072 443.981 155.448 443.031 154.794 442.169 154.081 441.427 153.309 440.773 152.507 440.238 151.645 439.793 150.754 439.436 149.863 439.169 148.912 438.991 147.991 438.931 147.011 438.931 146.06 439.05 145.11 439.228 144.159 439.496 143.209 439.823 142.288 440.268 141.396 440.773 140.535 441.338 139.703 441.991 138.901 442.704 138.158 443.506 137.475 444.368 136.851 445.289 136.287 446.269 135.812 447.338 135.396 448.438 135.069 449.596 134.802 450.844 134.653"/>
    <circle cx="472.177" cy="219.54" r="4.15" fill="#FFF"/>
    <polygon fill="#000" points="597.149 395.218 609.534 483.748 621.881 483.748 636.102 423.566 650.305 483.729 662.671 483.729 675.037 395.218 661.64 395.218 654.726 444.645 643.054 395.218 629.17 395.218 629.151 395.236 629.151 395.254 617.478 444.643 610.564 395.216"/>
    <polygon fill="#000" points="755.447 395.217 775.312 430.243 795.296 395.217 811.111 395.217 782.02 444.524 782.02 483.748 768.735 483.748 768.735 444.524 739.632 395.217"/>
    <polygon fill="#000" points="465.809 483.748 465.828 483.654 465.885 483.485 492.946 395.217 479.041 395.217 459.757 458.204 440.435 395.217 426.549 395.217 453.629 483.485 453.704 483.748"/>
    <polygon fill="#000" points="414.652 483.748 401.65 483.748 401.65 395.217 414.652 395.217"/>
    <polyline fill="#000" points="358.778 395.217 360.633 395.255 362.413 395.367 364.156 395.555 365.806 395.836 367.417 396.192 368.954 396.642 370.453 397.166 371.896 397.804 373.283 398.516 374.614 399.34 375.925 400.24 377.181 401.252 378.399 402.376 379.58 403.576 380.742 404.906 381.866 406.331 382.953 407.867 384.04 409.516 385.09 411.278 385.596 412.215 385.727 412.44 385.802 412.571 385.782 412.571 385.745 412.59 385.633 412.627 385.501 412.684 385.314 412.759 384.846 412.927 384.246 413.133 383.534 413.396 382.747 413.696 381.866 414.014 380.948 414.351 379.036 415.045 377.162 415.72 376.3 416.038 375.494 416.338 374.763 416.6 374.164 416.825 373.676 416.994 373.489 417.069 373.357 417.106 373.245 417.144 373.189 417.181 373.169 417.181 373.113 417.069 372.888 416.582 372.4 415.645 371.894 414.745 371.351 413.902 370.808 413.115 370.208 412.365 369.608 411.69 368.952 411.053 368.259 410.472 367.547 409.929 366.778 409.46 365.972 409.048 365.129 408.673 364.23 408.355 363.274 408.111 362.262 407.923 361.212 407.774 360.088 407.699 358.926 407.68 357.689 407.717 356.415 407.811 355.14 408.017 353.866 408.317 352.61 408.729 351.373 409.273 350.155 409.947 349.556 410.36 348.975 410.791 348.394 411.259 347.832 411.765 347.269 412.327 346.726 412.927 346.201 413.583 345.676 414.276 345.189 415.026 344.702 415.813 344.215 416.656 343.765 417.556 343.334 418.512 342.903 419.524 342.509 420.592 342.135 421.735 341.778 422.916 341.441 424.171 341.123 425.483 340.823 426.851 340.56 428.294 340.317 429.812 340.092 431.405 339.904 433.054 339.754 434.779 339.605 436.578 339.51 438.452 339.454 439.407 339.434 440.307 339.434 442.069 339.472 443.755 339.566 445.386 339.678 446.96 339.846 448.459 340.034 449.902 340.277 451.289 340.54 452.62 340.84 453.894 341.177 455.112 341.533 456.274 341.927 457.38 342.339 458.429 342.789 459.441 343.257 460.378 343.745 461.296 344.269 462.14 344.794 462.946 345.356 463.695 345.918 464.407 346.518 465.082 347.118 465.7 347.736 466.281 348.373 466.825 349.011 467.312 349.667 467.762 350.322 468.193 350.978 468.568 352.328 469.205 353.696 469.711 355.064 470.086 356.413 470.329 357.744 470.46 359.037 470.46 360.311 470.367 361.548 470.179 362.729 469.861 363.891 469.449 364.996 468.943 366.046 468.343 367.039 467.649 367.976 466.844 368.857 465.982 369.681 465.007 370.412 463.976 371.087 462.852 371.687 461.652 372.193 460.378 372.624 459.029 372.961 457.623 373.205 456.143 373.355 454.606 373.392 453.013 373.392 452.769 357.181 452.769 357.181 439.482 386.848 439.482 386.848 439.539 386.922 440.251 387.034 441.712 387.203 444.655 387.241 447.653 387.166 450.689 386.941 453.706 386.772 455.206 386.585 456.705 386.341 458.204 386.041 459.666 385.723 461.128 385.329 462.552 384.917 463.976 384.448 465.363 383.924 466.712 383.343 468.043 382.724 469.336 382.031 470.61 381.3 471.829 380.494 472.99 379.632 474.134 378.714 475.202 377.739 476.251 376.69 477.226 375.565 478.144 374.385 479.006 373.129 479.812 371.817 480.543 370.412 481.199 368.95 481.798 367.395 482.323 365.764 482.773 364.059 483.129 362.278 483.41 360.423 483.616 359.449 483.691 358.961 483.71 358.736 483.71 358.605 483.729 357.574 483.748 356.525 483.729 355.475 483.673 354.388 483.579 353.302 483.448 352.215 483.279 351.128 483.054 350.022 482.792 348.916 482.473 347.811 482.099 346.724 481.668 345.637 481.199 344.55 480.656 343.481 480.075 342.413 479.419 341.382 478.707 340.352 477.919 339.34 477.057 338.365 476.139 337.41 475.146 336.472 474.096 335.573 472.953 334.692 471.735 333.868 470.442 333.062 469.055 332.312 467.593 331.581 466.057 330.907 464.426 330.269 462.702 329.688 460.884 329.145 458.973 328.676 456.968 328.245 454.869 327.871 452.676 327.552 450.371 327.308 447.972 327.121 445.461 327.009 442.837 326.952 440.101 326.972 437.346 327.046 434.666 327.196 432.118 327.402 429.663 327.665 427.32 327.983 425.09 328.358 422.954 328.789 420.911 329.276 418.981 329.801 417.125 330.382 415.382 331 413.714 331.675 412.14 332.369 410.66 333.118 409.254 333.905 407.942 334.73 406.706 335.592 405.544 336.473 404.457 337.391 403.445 338.347 402.489 339.321 401.627 340.315 400.821 341.327 400.071 342.376 399.397 343.444 398.778 344.512 398.216 345.599 397.71 346.705 397.26 347.83 396.848 348.954 396.511 350.078 396.211 351.221 395.948 352.365 395.724 353.508 395.555 355.794 395.311 358.081 395.218 358.774 395.218"/>
    <polygon fill="#000" points="502.629 395.255 555.74 395.217 555.74 408.504 515.898 408.523 515.898 430.599 542.472 430.599 542.472 443.886 515.898 443.886 515.898 470.479 555.74 470.479 555.74 483.748 502.629 483.748"/>
    <polygon fill="#000" points="719.103 395.217 719.14 395.33 719.159 395.386 719.197 395.48 749.856 483.748 735.801 483.748 726.88 458.073 697.533 458.073 688.65 483.748 674.613 483.748 705.104 395.517 705.216 395.217"/>
    <polygon fill="#FFF" points="712.169 415.738 702.124 444.805 722.27 444.805"/>
  </g>
</svg>
