<?xml version="1.0" encoding="UTF-8" standalone="no"?>
<!-- Created with Inkscape (http://www.inkscape.org/) -->

<svg
   xmlns:dc="http://purl.org/dc/elements/1.1/"
   xmlns:cc="http://creativecommons.org/ns#"
   xmlns:rdf="http://www.w3.org/1999/02/22-rdf-syntax-ns#"
   xmlns:svg="http://www.w3.org/2000/svg"
   xmlns="http://www.w3.org/2000/svg"
   xmlns:sodipodi="http://sodipodi.sourceforge.net/DTD/sodipodi-0.dtd"
   xmlns:inkscape="http://www.inkscape.org/namespaces/inkscape"
   id="svg17624"
   version="1.1"
   inkscape:version="0.48.2 r9819"
   width="281.91406"
   height="249.02344"
   xml:space="preserve"
   sodipodi:docname="AJAX1.svg"><metadata
     id="metadata17630"><rdf:RDF><cc:Work
         rdf:about=""><dc:format>image/svg+xml</dc:format><dc:type
           rdf:resource="http://purl.org/dc/dcmitype/StillImage" /><dc:title /></cc:Work></rdf:RDF></metadata><defs
     id="defs17628"><inkscape:perspective
       sodipodi:type="inkscape:persp3d"
       inkscape:vp_x="0 : 0.5 : 1"
       inkscape:vp_y="0 : 1000 : 0"
       inkscape:vp_z="1 : 0.5 : 1"
       inkscape:persp3d-origin="0.5 : 0.33333333 : 1"
       id="perspective17632" /><clipPath
       clipPathUnits="userSpaceOnUse"
       id="clipPath17642"><path
         d="m -2,710 501,0 0,-711 -501,0 0,711 z"
         id="path17644"
         inkscape:connector-curvature="0" /></clipPath><clipPath
       clipPathUnits="userSpaceOnUse"
       id="clipPath17648"><path
         d="m 0,708.06 498,0 0,-708 -498,0 0,708 z"
         id="path17650"
         inkscape:connector-curvature="0" /></clipPath><clipPath
       clipPathUnits="userSpaceOnUse"
       id="clipPath17798"><path
         d="m -2,710 501,0 0,-711 -501,0 0,711 z"
         id="path17800"
         inkscape:connector-curvature="0" /></clipPath><clipPath
       clipPathUnits="userSpaceOnUse"
       id="clipPath17804"><path
         d="m 0,708.06 498,0 0,-708 -498,0 0,708 z"
         id="path17806"
         inkscape:connector-curvature="0" /></clipPath></defs><sodipodi:namedview
     pagecolor="#ffffff"
     bordercolor="#666666"
     borderopacity="1"
     objecttolerance="10"
     gridtolerance="10"
     guidetolerance="10"
     inkscape:pageopacity="0"
     inkscape:pageshadow="2"
     inkscape:window-width="1280"
     inkscape:window-height="1004"
     id="namedview17626"
     showgrid="false"
     inkscape:zoom="16"
     inkscape:cx="279.22841"
     inkscape:cy="244.3585"
     inkscape:window-x="-8"
     inkscape:window-y="-8"
     inkscape:window-maximized="1"
     inkscape:current-layer="g17634"
     fit-margin-top="0"
     fit-margin-left="0"
     fit-margin-right="0"
     fit-margin-bottom="0"
     showguides="true"
     inkscape:guide-bbox="true" /><g
     id="g17634"
     inkscape:groupmode="layer"
     inkscape:label="GG1999P002"
     transform="matrix(1.25,0,0,-1.25,-395.85937,404.49219)"><path
       inkscape:connector-curvature="0"
       style="fill:#ffffff;fill-rule:nonzero;stroke:#000000;stroke-width:0.80000001;stroke-miterlimit:4;stroke-opacity:1;stroke-dasharray:none"
       d="m 527.63603,323.19922 c 7.828,0 14.173,-6.3457 14.173,-14.1729 0,-2.6748 -0.74,-5.1758 -2.027,-7.3105 l -98.04,-169.8126 c -2.483,-4.281 -7.058,-7.125 -12.297,-7.125 -5.22,0 -9.781,2.824 -12.241,7.024 l -98.23626,170.1567 c -1.2002,2.0811 -1.88574,4.4922 -1.88574,7.0674 0,7.8272 6.3457,14.1729 14.1729,14.1729 l 196.3811,0 z"
       id="path11" /><path
       inkscape:connector-curvature="0"
       style="fill:#c0111e;fill-opacity:1;fill-rule:nonzero;stroke:none"
       d="m 439.29599,133.33223 c -1.953,-3.418 -5.632,-5.72 -9.85,-5.72 -4.218,0 -7.899,2.304 -9.8525,5.72 l -98.06419,169.8631 c -1.02442,1.7041 -1.61231,3.6972 -1.61231,5.831 0,6.26176 5.07617,11.3389 11.3379,11.3389 l 196.3821,0 c 6.263,0 11.339,-5.07714 11.339,-11.3389 0,-2.126 -0.586,-4.1162 -1.603,-5.8164 l -98.077,-169.8777 z"
       id="path13" /><path
       inkscape:connector-curvature="0"
       style="fill:#ffffff;fill-rule:nonzero;stroke:none"
       d="m 343.5273,301.93165 171.855,-0.0156 -85.9368,-148.7924 -85.9182,148.808 z"
       id="path15" /><path
       inkscape:connector-curvature="0"
       style="fill:#000000;fill-rule:nonzero;stroke:none"
       d="m 412.3135,274.42675 -0.1094,-3.7568 c -0.003,-0.1592 0.0234,-0.3223 0.082,-0.4815 0.25389,-0.6836 1.01369,-1.0332 1.69729,-0.7793 0.24611,0.0908 0.44531,0.2442 0.5928,0.4385 l 11.70831,15.1533 -18.7542,3.8662 c -0.23731,0.0508 -0.4922,0.0371 -0.7364,-0.0527 -0.68451,-0.2539 -1.0332,-1.0137 -0.77931,-1.6973 0.0567,-0.1562 0.14951,-0.3037 0.253,-0.4218 l 2.5898,-2.8448 c -10.26559,-6.7236 -17.04879,-18.3291 -17.04879,-31.5175 0,-5.2207 1.0586,-10.1954 2.9795,-14.7149 l 8.92089,3.7861 c -1.4258,3.3555 -2.21389,7.0538 -2.21389,10.9288 0,8.9804 4.23829,16.9775 10.8184,22.0937 z"
       id="path17" /><path
       inkscape:connector-curvature="0"
       style="fill:#000000;fill-rule:nonzero;stroke:none"
       d="m 432.8635,280.08595 1.18,9.6172 c 17.951,-2.1807 31.983,-17.0059 32.982,-35.2949 l 3.782,0.8251 c 0.154,0.0313 0.328,0.0372 0.492,0.009 0.719,-0.122 1.202,-0.8047 1.08,-1.5234 -0.044,-0.2568 -0.16,-0.4844 -0.322,-0.665 l -12.725,-14.3086 -7.27,17.7177 c -0.095,0.2237 -0.127,0.4737 -0.083,0.7315 0.123,0.7187 0.805,1.2031 1.524,1.0801 0.166,-0.0284 0.321,-0.087 0.457,-0.169 l 3.198,-1.9619 c -1.707,12.5283 -11.71,22.415 -24.295,23.9424 z"
       id="path19" /><path
       inkscape:connector-curvature="0"
       style="fill:#000000;fill-rule:nonzero;stroke:none"
       d="m 451.7865,235.50485 7.739,-5.82809 c -6.872,-9.104 -17.784,-14.99 -30.069,-14.99 -6.119,0 -11.895,1.459 -17.0014,4.048 l -1.1641,-3.664 c -0.0498,-0.148 -0.1318,-0.302 -0.2383,-0.43 -0.4658,-0.562 -1.2978,-0.639 -1.8593,-0.173 -0.2012,0.166 -0.3399,0.38 -0.4141,0.611 l -6.0293,18.1742 18.9785,-2.56251 c 0.241,-0.0303 0.474,-0.127 0.675,-0.294 0.561,-0.4658 0.639,-1.2988 0.174,-1.86029 -0.109,-0.12991 -0.237,-0.2344 -0.375,-0.31151 l -3.314,-1.7862 c 3.262,-1.333 6.825,-2.0654 10.568,-2.0654 9.12,0 17.226,4.374 22.33,11.1318 z"
       id="path21" /></g></svg>