<?xml version="1.0" encoding="UTF-8" standalone="no"?>
<!-- Created with Inkscape (http://www.inkscape.org/) -->

<svg
   xmlns:dc="http://purl.org/dc/elements/1.1/"
   xmlns:cc="http://creativecommons.org/ns#"
   xmlns:rdf="http://www.w3.org/1999/02/22-rdf-syntax-ns#"
   xmlns:svg="http://www.w3.org/2000/svg"
   xmlns="http://www.w3.org/2000/svg"
   xmlns:sodipodi="http://sodipodi.sourceforge.net/DTD/sodipodi-0.dtd"
   xmlns:inkscape="http://www.inkscape.org/namespaces/inkscape"
   id="svg17624"
   version="1.1"
   inkscape:version="0.48.2 r9819"
   width="212.59749"
   height="212.5975"
   xml:space="preserve"
   sodipodi:docname="AJAX1.svg"><metadata
     id="metadata17630"><rdf:RDF><cc:Work
         rdf:about=""><dc:format>image/svg+xml</dc:format><dc:type
           rdf:resource="http://purl.org/dc/dcmitype/StillImage" /><dc:title /></cc:Work></rdf:RDF></metadata><defs
     id="defs17628"><inkscape:perspective
       sodipodi:type="inkscape:persp3d"
       inkscape:vp_x="0 : 0.5 : 1"
       inkscape:vp_y="0 : 1000 : 0"
       inkscape:vp_z="1 : 0.5 : 1"
       inkscape:persp3d-origin="0.5 : 0.33333333 : 1"
       id="perspective17632" /><clipPath
       clipPathUnits="userSpaceOnUse"
       id="clipPath17642"><path
         d="m -2,710 501,0 0,-711 -501,0 0,711 z"
         id="path17644"
         inkscape:connector-curvature="0" /></clipPath><clipPath
       clipPathUnits="userSpaceOnUse"
       id="clipPath17648"><path
         d="m 0,708.06 498,0 0,-708 -498,0 0,708 z"
         id="path17650"
         inkscape:connector-curvature="0" /></clipPath><clipPath
       clipPathUnits="userSpaceOnUse"
       id="clipPath17798"><path
         d="m -2,710 501,0 0,-711 -501,0 0,711 z"
         id="path17800"
         inkscape:connector-curvature="0" /></clipPath><clipPath
       clipPathUnits="userSpaceOnUse"
       id="clipPath17804"><path
         d="m 0,708.06 498,0 0,-708 -498,0 0,708 z"
         id="path17806"
         inkscape:connector-curvature="0" /></clipPath></defs><sodipodi:namedview
     pagecolor="#ffffff"
     bordercolor="#666666"
     borderopacity="1"
     objecttolerance="10"
     gridtolerance="10"
     guidetolerance="10"
     inkscape:pageopacity="0"
     inkscape:pageshadow="2"
     inkscape:window-width="1280"
     inkscape:window-height="1004"
     id="namedview17626"
     showgrid="false"
     inkscape:zoom="2.0022598"
     inkscape:cx="171.27724"
     inkscape:cy="62.828072"
     inkscape:window-x="-8"
     inkscape:window-y="-8"
     inkscape:window-maximized="1"
     inkscape:current-layer="g17634"
     fit-margin-top="0"
     fit-margin-left="0"
     fit-margin-right="0"
     fit-margin-bottom="0"
     showguides="true"
     inkscape:guide-bbox="true" /><g
     id="g17634"
     inkscape:groupmode="layer"
     inkscape:label="GG1999P002"
     transform="matrix(1.25,0,0,-1.25,1.5910449,252.28591)"><path
       inkscape:connector-curvature="0"
       style="fill:#c0111e;fill-opacity:1;fill-rule:nonzero;stroke:none"
       d="m -1.2728359,116.78962 c 0,46.96681 38.0722999,85.03911 85.0391039,85.03911 46.966892,0 85.038892,-38.0723 85.038892,-85.03911 0,-46.965893 -38.072,-85.038893 -85.038892,-85.038893 -46.966804,0 -85.0391039,38.073 -85.0391039,85.038893 z"
       id="path11-4"
       sodipodi:nodetypes="sssss" /><path
       sodipodi:nodetypes="sssss"
       inkscape:connector-curvature="0"
       id="path3006"
       transform="matrix(0.8,0,0,-0.8,-1.35975,173.8285)"
       d="m 106.40625,-8.9379392 c -44.030745,0 -80.31825,36.2196762 -80.31825,80.2504392 0,44.02987 36.287505,80.21856 80.31825,80.21856 44.03113,0 80.21875,-36.18869 80.21875,-80.21856 0,-44.030762 -36.18763,-80.2504392 -80.21875,-80.2504392 z"
       style="fill:#ffffff;fill-rule:nonzero;stroke:none" /><path
       id="path3008"
       d="m 44.38145,137.37165 c -0.6748,-0.2763 -1.4756,-0.2255 -2.1269,0.21 -1.0411,0.6953 -1.3213,2.1035 -0.626,3.1445 l 13.791,21.418 13.791,-21.418 c 0.6953,-1.041 0.416,-2.4492 -0.626,-3.1445 -0.6513,-0.4355 -1.4521,-0.4863 -2.1269,-0.21 l -5.3682,2.0948 0,-45.354203 -11.3398,0 0,45.354203 -5.3682,-2.0948 z"
       style="fill:#c0111e;fill-opacity:1;fill-rule:nonzero;stroke:none"
       inkscape:connector-curvature="0" /><path
       id="path3010"
       d="m 96.52305,99.782247 0,62.361903 17.0082,0 0,-62.361903 8.052,3.141203 c 1.736,0.7188 3.725,-0.1055 4.444,-1.8412 0.451,-1.089003 0.296,-2.278003 -0.315,-3.190003 l -20.685,-32.126 -20.6868,32.126 c -0.6094,0.912 -0.7656,2.101 -0.3135,3.190003 0.7188,1.7357 2.708,2.56 4.4434,1.8412 l 8.0527,-3.141203 z"
       style="fill:#000000;fill-rule:nonzero;stroke:none"
       inkscape:connector-curvature="0" /></g></svg>