<svg xmlns="http://www.w3.org/2000/svg" width="19" height="24" viewBox="0 0 19 24">
  <path fill-rule="evenodd" d="M17.9647054,11 L4.41621622,11 C3.93950528,11.0000335 3.48230982,10.8156615 3.145219,10.48745 L0.802108194,8.2071 C0.401018691,7.81658598 0.401002259,7.18341998 0.802070787,6.79288498 C0.802083261,6.79287284 0.802095736,6.79286069 0.80210821,6.79284855 L3.14521902,4.51254855 L3.14521889,4.51254867 C3.48233384,4.18437417 3.93951133,4.00000867 4.41621619,3.99999867 L17.9647567,3.99999867 C18.5319684,3.999833 18.9919224,4.44741417 18.9920919,4.99969867 C18.9920919,4.99979868 18.9920919,4.9998987 18.9920919,4.99999871 L18.9920919,9.99999871 C18.9920919,10.5522838 18.532276,10.9999988 17.9650649,10.9999988 C17.9649451,10.9999988 17.9648254,10.9999988 17.9647056,10.9999987 L17.9647054,11 Z M11.8104514,3 L9.75603784,3 C9.472432,2.99999999 9.2425243,2.7761425 9.2425243,2.5 C9.2425243,2.5 9.2425243,2.5 9.2425243,2.5 L9.2425243,1 L9.2425243,1.00000015 C9.24252422,0.447715151 9.70233971,1.50996e-07 10.2695513,1.50996e-07 L11.2965784,1.50996e-07 C11.8637899,1.26854853e-07 12.3236053,0.447715151 12.3236053,1.00000015 L12.3236053,2.50000015 L12.3236053,2.50000032 C12.3236053,2.77600582 12.0939164,2.99980682 11.8104513,3.00000032 L11.8104514,3 Z M9.75603784,12 L11.8104514,12 C12.0940571,12 12.3239648,12.2238575 12.3239648,12.5 L12.3239648,23 C12.3239648,23.552285 11.8641489,24 11.2969378,24 L10.2699108,24 C9.70269912,24 9.24288372,23.5522845 9.24288372,23 C9.24288372,23 9.24288372,23 9.24288372,23 L9.24288372,12.5 C9.24288367,12.2239945 9.47257266,12.000193 9.75603777,12 Z" transform="matrix(-1 0 0 1 19 0)"/>
</svg>
