<svg id="Layer_1" data-name="Layer 1" xmlns="http://www.w3.org/2000/svg" viewBox="0 0 15 15"><defs><style>.cls-1{fill:#fff;}</style></defs><title>SVG_TRAFFIC LIGHT</title><rect class="cls-1" width="15" height="15"/><path d="M12,7H10.2V6C11,5.57,12,5,12,4H10.2c0-1.1-1.2-2-2.69-2h0C6,2,4.8,2.9,4.8,4H3C3,5,4,5.57,4.8,6V7H3C3,8,4,8.57,4.8,9v1H3c0,1.12.85,1.65,1.8,2,0,1.1,1.21,2,2.69,2h0c1.49,0,2.69-.9,2.69-2,1-.35,1.77-.88,1.8-2H10.2V9C11,8.57,12,8,12,7Z"/><circle class="cls-1" cx="7.5" cy="5" r="1"/><circle class="cls-1" cx="7.5" cy="8" r="1"/><circle class="cls-1" cx="7.5" cy="11" r="1"/></svg>