<?xml version="1.0" standalone="no"?>
<!DOCTYPE svg PUBLIC "-//W3C//DTD SVG 20010904//EN"
 "http://www.w3.org/TR/2001/REC-SVG-20010904/DTD/svg10.dtd">
<svg version="1.0" xmlns="http://www.w3.org/2000/svg"
 width="700.000000pt" height="700.000000pt" viewBox="0 0 700.000000 700.000000"
 preserveAspectRatio="xMidYMid meet">
<metadata>
Created by potrace 1.11, written by Peter Selinger 2001-2013
</metadata>
<g transform="translate(0.000000,700.000000) scale(0.100000,-0.100000)"
fill="#000000" stroke="none">
<path d="M3458 6445 c-1 -1 -60 -6 -130 -9 -70 -4 -137 -9 -148 -11 -12 -2
-49 -7 -83 -10 -34 -4 -64 -8 -67 -10 -3 -2 -26 -6 -50 -10 -222 -32 -552
-141 -791 -260 l-105 -53 -875 -1 c-481 0 -883 -2 -894 -5 -90 -19 -121 -34
-182 -83 -52 -43 -96 -112 -117 -182 -14 -49 -16 -280 -15 -2310 0 -2459 -3
-2316 56 -2406 63 -96 143 -149 258 -170 17 -3 421 -6 899 -6 l870 -1 95 -48
c556 -280 1197 -375 1821 -269 284 49 553 137 819 268 l101 50 872 0 c480 0
882 2 893 5 150 32 248 115 295 252 19 55 20 103 20 2319 0 2227 0 2264 -20
2326 -38 122 -141 218 -265 248 -37 9 -276 13 -924 13 l-873 0 -97 48 c-123
61 -236 110 -253 110 -8 0 -18 4 -23 9 -12 11 -278 97 -321 104 -16 3 -47 10
-70 16 -47 13 -189 38 -260 46 -27 3 -60 8 -74 10 -14 3 -95 8 -180 11 -85 3
-160 7 -167 9 -6 2 -13 2 -15 0z m387 -389 c300 -44 571 -129 821 -257 797
-407 1318 -1176 1403 -2069 9 -96 6 -446 -4 -510 -3 -19 -10 -66 -16 -105
-107 -731 -544 -1400 -1172 -1794 -285 -179 -603 -304 -907 -356 -52 -9 -106
-18 -120 -20 -14 -3 -61 -7 -105 -9 l-80 -5 65 9 64 9 471 471 471 470 -1 379
0 378 -373 189 -373 189 -194 193 -194 192 -193 1 -193 1 -187 187 c-103 102
-188 188 -188 191 0 3 84 5 188 5 l187 0 192 192 191 192 284 0 c156 0 326 0
378 1 l95 0 1 83 c1 45 5 199 10 342 4 143 8 274 7 292 0 35 23 61 260 301
l112 114 1 193 2 193 -69 56 c-71 59 -197 119 -354 171 l-78 25 -26 -22 c-14
-13 -33 -30 -42 -38 -9 -8 -57 -53 -108 -99 l-91 -83 0 -192 0 -191 -191 1
-190 1 -192 191 -192 192 -389 0 -389 0 -39 40 c-22 22 -44 40 -49 40 -15 0
-191 -105 -299 -178 -203 -137 -409 -323 -528 -476 l-23 -30 285 -285 285
-286 0 -160 c0 -88 0 -174 0 -190 1 -26 39 -68 269 -297 147 -146 343 -340
436 -430 93 -89 233 -226 311 -303 l143 -140 -2 -374 -1 -374 192 -192 192
-193 -192 -194 -192 -193 1 -277 1 -278 -27 0 c-15 0 -77 9 -136 19 -699 123
-1311 519 -1701 1102 -39 57 -86 133 -105 169 -20 36 -47 85 -60 110 -45 84
-126 284 -161 400 -77 252 -108 454 -112 715 -3 237 8 360 52 570 84 404 239
734 512 1091 62 81 290 309 386 386 376 301 817 492 1280 554 191 25 518 25
690 0z m2541 -355 c63 -20 144 -82 185 -142 100 -145 81 -347 -45 -471 -129
-127 -316 -145 -467 -45 -105 70 -161 177 -160 309 0 168 110 310 271 353 55
15 160 13 216 -4z m-2761 -4771 c3 -5 1 -10 -4 -10 -6 0 -11 5 -11 10 0 6 2
10 4 10 3 0 8 -4 11 -10z m-72 -7 c-29 -2 -77 -2 -105 0 -29 2 -6 3 52 3 58 0
81 -1 53 -3z"/>
</g>
</svg>
